<svg xmlns="http://www.w3.org/2000/svg" viewBox="0 0 640.65 559.88"><defs><style>.cls-1{fill:#fff;}</style></defs><g id="Layer_2" data-name="Layer 2"><g id="Layer_1-2" data-name="Layer 1"><path class="cls-1" d="M55.47,379.93c42.48,0,51.27,37,51.27,71.14,0,34.32-8.79,71.14-51.27,71.14H2.74a2,2,0,0,1-2.09-2.09V382a2,2,0,0,1,2.09-2.09Zm-3.76,21.34h-22a1.11,1.11,0,0,0-1.26,1.26v96.88c0,1,.21,1.25,1.05,1.25H51.92c21.34,0,26.15-21.34,26.15-50.64C78.07,421.78,73.26,401.27,51.71,401.27Z"/><path class="cls-1" d="M129.19,432.24c-1.25.21-2.93.21-3.14-1.05l-1.46-16.11c-.21-1.25,0-2.51,1.25-2.93,8-2.3,22.6-4,36.62-4,25.95,0,41.64,8.78,41.64,33.27V517.4c0,1.26-.42,2.3-2.72,3.14-7.32,2.3-22.18,3.77-36.62,3.77-37.66,0-49-7.12-49-31.18,0-21.34,4.81-31,35.57-34.74l24.69-3.13c.84-.21,1.26-.42,1.26-1.26v-8.37c0-12.55-5.86-15.48-22.18-15.48A203.06,203.06,0,0,0,129.19,432.24Zm48.13,41.43a1.11,1.11,0,0,0-1.26-1.26H162c-15.06,0-19.66,2.72-19.66,17.79,0,14.85,3.76,16.53,20.29,16.53a72.57,72.57,0,0,0,13.18-1.05c1.26-.42,1.47-.83,1.47-1.46Z"/><path class="cls-1" d="M244.58,450c0,1.26,1.25,1.89,3.77,1.89,2.09,0,3.55-.21,4.18-.84,8.58-11.3,20.92-29.71,26.78-38.92.84-1.25,1.47-1.88,3.14-1.88h27.83c1.88,0,3.14.63,2.51,1.88-3.35,4.81-24.48,31.81-37,46.66a4.15,4.15,0,0,0-1.26,2.51c0,.84.63,1.68,1.67,2.93,9,12.35,33.27,48.34,37.88,55.66.63,1.05.63,2.3-2.3,2.3H285.17a2.7,2.7,0,0,1-2.93-1.67c-6.9-12.14-22-35.78-29.08-47.08-.63-1-2.93-2.09-5.23-2.09-2.93,0-3.35.62-3.35,1.88v46.87a2,2,0,0,1-2.09,2.09h-23a2,2,0,0,1-2.09-2.09V370.51a2,2,0,0,1,2.09-2.09h23a2,2,0,0,1,2.09,2.09Z"/><path class="cls-1" d="M387.7,487.69c-.21-1.05-.63-1.47-1.67-1.47H345.22a1.88,1.88,0,0,0-2.09,1.47l-7.95,32.43c-.63,1.67-1.46,2.09-2.72,2.09H308.19c-1.05,0-1.68-.42-1.68-1.25a1.26,1.26,0,0,1,.21-.84c6.28-25.32,29.09-109,37.88-138.1a2.64,2.64,0,0,1,2.51-2.09h40c1.47,0,2.09.84,2.51,2.09,9,31.18,32.23,119.69,36.62,138.1V521c0,.83-.42,1.25-1.46,1.25H398a2.37,2.37,0,0,1-2.72-2.09Zm-5.23-22.6c.84,0,1.25-.21,1.25-1.26-2.3-10.67-9.83-43.94-13.81-60.26-.21-.83-.83-1-3.55-1s-3.35.21-3.56,1c-4.39,16.32-12.55,49.59-14.86,60.26,0,1.05.42,1.26,1.26,1.26Z"/><path class="cls-1" d="M532.76,464.67c0,39.55-13.18,57.54-51.89,57.54-4.61,0-11.51-.42-14-.42-1.26,0-1.68.42-1.68,1.68v34.31a2,2,0,0,1-2.09,2.1H439.86a2,2,0,0,1-2.1-2.1V414.87c0-.84.42-1.67,2.31-2.3,7.95-2.72,25.52-4.39,38.7-4.39C522.09,408.18,532.76,423.87,532.76,464.67ZM465.17,500a1.88,1.88,0,0,0,1.68,2.1A59.66,59.66,0,0,0,479,503c18.84,0,25.32-6.9,25.32-38.08,0-29.92-5.44-36.41-25.73-36.41a55.84,55.84,0,0,0-11.72,1c-1.47.21-1.68,1.46-1.68,2.51Z"/><path class="cls-1" d="M640.65,464.67c0,39.55-13.18,57.54-51.89,57.54-4.6,0-11.51-.42-14-.42-1.26,0-1.67.42-1.67,1.68v34.31a2,2,0,0,1-2.1,2.1H547.75a2,2,0,0,1-2.09-2.1V414.87c0-.84.41-1.67,2.3-2.3,7.95-2.72,25.52-4.39,38.71-4.39C630,408.18,640.65,423.87,640.65,464.67ZM573.07,500a1.87,1.87,0,0,0,1.67,2.1,59.76,59.76,0,0,0,12.14.83c18.83,0,25.31-6.9,25.31-38.08,0-29.92-5.44-36.41-25.73-36.41a55.91,55.91,0,0,0-11.72,1c-1.46.21-1.67,1.46-1.67,2.51Z"/><path class="cls-1" d="M320,240a80,80,0,0,1,80,80H640C640,143.27,496.73,0,320,0S0,143.27,0,320H240A80,80,0,0,1,320,240Z"/></g></g></svg>