<svg xmlns="http://www.w3.org/2000/svg" viewBox="0 0 640 191.46"><defs><style>.cls-1{fill:#121315;}</style></defs><g id="Layer_2" data-name="Layer 2"><g id="Layer_1-2" data-name="Layer 1"><path class="cls-1" d="M54.82,11.51c42.48,0,51.27,37,51.27,71.14,0,34.32-8.79,71.14-51.27,71.14H2.09A2,2,0,0,1,0,151.7V13.6a2,2,0,0,1,2.09-2.09ZM51.06,32.85h-22a1.11,1.11,0,0,0-1.25,1.26V131c0,1,.21,1.25,1.05,1.25H51.26c21.35,0,26.16-21.34,26.16-50.64C77.42,53.36,72.61,32.85,51.06,32.85Z"/><path class="cls-1" d="M128.54,63.82c-1.25.21-2.93.21-3.14-1l-1.46-16.11c-.21-1.25,0-2.51,1.25-2.93,7.95-2.3,22.6-4,36.62-4,25.95,0,41.64,8.78,41.64,33.27V149c0,1.26-.42,2.3-2.72,3.14-7.32,2.3-22.18,3.77-36.62,3.77-37.66,0-49-7.12-49-31.18,0-21.34,4.81-31,35.57-34.74l24.69-3.13c.84-.21,1.26-.42,1.26-1.26V77.21c0-12.55-5.86-15.48-22.18-15.48A202.91,202.91,0,0,0,128.54,63.82Zm48.13,41.43a1.11,1.11,0,0,0-1.26-1.26h-14c-15.06,0-19.67,2.72-19.67,17.79,0,14.86,3.77,16.53,20.3,16.53a72.57,72.57,0,0,0,13.18-1.05c1.26-.42,1.47-.83,1.47-1.46Z"/><path class="cls-1" d="M243.93,81.6c0,1.26,1.25,1.89,3.76,1.89,2.1,0,3.56-.21,4.19-.84,8.58-11.3,20.92-29.71,26.78-38.92.84-1.25,1.47-1.88,3.14-1.88h27.83c1.88,0,3.14.63,2.51,1.88-3.35,4.81-24.48,31.81-37,46.66a4.15,4.15,0,0,0-1.26,2.51c0,.84.63,1.68,1.67,2.93,9,12.35,33.27,48.34,37.88,55.66.62,1,.62,2.3-2.31,2.3H284.52a2.7,2.7,0,0,1-2.93-1.67c-6.9-12.14-22-35.78-29.08-47.08-.63-1.05-2.93-2.09-5.23-2.09-2.93,0-3.35.62-3.35,1.88V151.7a2,2,0,0,1-2.09,2.09h-23a2,2,0,0,1-2.09-2.09V2.09A2,2,0,0,1,218.82,0h23a2,2,0,0,1,2.09,2.09Z"/><path class="cls-1" d="M387.05,119.27c-.21-1-.63-1.47-1.68-1.47h-40.8a1.88,1.88,0,0,0-2.09,1.47l-8,32.43c-.63,1.67-1.47,2.09-2.72,2.09H307.54c-1.05,0-1.68-.42-1.68-1.25a1.26,1.26,0,0,1,.21-.84c6.28-25.32,29.09-109,37.87-138.1a2.66,2.66,0,0,1,2.52-2.09h40c1.47,0,2.09.84,2.51,2.09,9,31.18,32.22,119.69,36.62,138.1v.84c0,.83-.42,1.25-1.47,1.25H397.3a2.37,2.37,0,0,1-2.72-2.09Zm-5.23-22.6c.83,0,1.25-.21,1.25-1.26-2.3-10.67-9.83-43.94-13.81-60.26-.21-.83-.83-1-3.55-1s-3.35.21-3.56,1c-4.4,16.32-12.56,49.59-14.86,60.26,0,1,.42,1.26,1.26,1.26Z"/><path class="cls-1" d="M532.11,96.25c0,39.55-13.18,57.54-51.89,57.54-4.61,0-11.51-.42-14-.42-1.26,0-1.68.42-1.68,1.68v34.31a2,2,0,0,1-2.09,2.1H439.2a2,2,0,0,1-2.09-2.1V46.45c0-.83.42-1.67,2.3-2.3,8-2.72,25.53-4.39,38.71-4.39C521.44,39.76,532.11,55.45,532.11,96.25Zm-67.59,35.36a1.88,1.88,0,0,0,1.68,2.1,59.66,59.66,0,0,0,12.13.83c18.83,0,25.32-6.9,25.32-38.08,0-29.92-5.44-36.41-25.74-36.41A55.81,55.81,0,0,0,466.2,61.1c-1.47.21-1.68,1.46-1.68,2.51Z"/><path class="cls-1" d="M640,96.25c0,39.55-13.18,57.54-51.89,57.54-4.61,0-11.51-.42-14-.42-1.26,0-1.68.42-1.68,1.68v34.31a2,2,0,0,1-2.09,2.1H547.1a2,2,0,0,1-2.1-2.1V46.45c0-.83.42-1.67,2.31-2.3,8-2.72,25.52-4.39,38.71-4.39C629.33,39.76,640,55.45,640,96.25Zm-67.59,35.36a1.88,1.88,0,0,0,1.68,2.1,59.66,59.66,0,0,0,12.13.83c18.84,0,25.32-6.9,25.32-38.08,0-29.92-5.44-36.41-25.73-36.41a55.91,55.91,0,0,0-11.72,1.05c-1.47.21-1.68,1.46-1.68,2.51Z"/></g></g></svg>