<?xml version="1.0" standalone="no"?>
<!DOCTYPE svg PUBLIC "-//W3C//DTD SVG 1.1//EN" "http://www.w3.org/Graphics/SVG/1.1/DTD/svg11.dtd" >
<svg xmlns="http://www.w3.org/2000/svg" xmlns:xlink="http://www.w3.org/1999/xlink" version="1.1">
<metadata></metadata>
<defs>
<font id="fira_sans_compressedThIt" horiz-adv-x="942" >
<font-face units-per-em="2048" ascent="1638" descent="-410" />
<missing-glyph horiz-adv-x="491" />
<glyph unicode="&#xfb01;" horiz-adv-x="937" d="M817 1063l-149 -1063h-45l143 1022h-438l-144 -1028q-17 -119 -49.5 -192.5t-76 -114t-124.5 -86.5l-14 32q70 40 108.5 77.5t66.5 105t44 178.5l144 1028h-152l4 41h154l28 201q17 119 85.5 182t177.5 63q113 0 215 -82l-25 -30q-90 71 -195 71q-186 0 -215 -211 l-26 -194h483z" />
<glyph unicode="&#xfb02;" horiz-adv-x="983" d="M760 23q27 0 67 14l13 -37q-50 -20 -86 -20q-58 0 -87.5 39t-19.5 114l182 1278q-126 57 -247 57q-193 0 -222 -211l-26 -194h244l-15 -41h-235l-144 -1028q-17 -119 -49.5 -192.5t-76 -114t-124.5 -86.5l-14 32q70 40 108.5 77.5t66.5 105t44 178.5l144 1028h-152l4 41 h154l28 201q17 119 86.5 182t180.5 63q129 0 252 -63l43 6l-187 -1321q-15 -108 68 -108z" />
<glyph horiz-adv-x="0" />
<glyph horiz-adv-x="682" />
<glyph unicode="&#xd;" horiz-adv-x="491" />
<glyph unicode=" "  horiz-adv-x="491" />
<glyph unicode="&#x09;" horiz-adv-x="491" />
<glyph unicode="&#xa0;" horiz-adv-x="491" />
<glyph unicode="!" horiz-adv-x="442" d="M176 414l135 981h45l-137 -981h-43zM147 -16q-21 0 -33 11.5t-12 29.5q0 22 14.5 36.5t37.5 14.5q20 0 31.5 -11.5t11.5 -29.5q0 -22 -14 -36.5t-36 -14.5z" />
<glyph unicode="&#x22;" horiz-adv-x="628" d="M207 903l63 492h47l-75 -492h-35zM489 903l64 492h47l-76 -492h-35z" />
<glyph unicode="#" horiz-adv-x="823" d="M854 940h-137l-121 -489h129l-8 -41h-131l-103 -410h-47l103 410h-346l-103 -410h-47l102 410h-137l8 41h140l120 489h-131l5 41h137l94 375h47l-94 -375h346l92 375h49l-94 -375h133zM549 451l121 489h-346l-121 -489h346z" />
<glyph unicode="$" horiz-adv-x="880" d="M602 1372q143 -10 252 -139l-33 -27q-106 127 -250 127q-139 0 -225 -90.5t-86 -226.5q0 -97 50.5 -155.5t172.5 -110.5q134 -58 196 -133.5t62 -198.5q0 -74 -21.5 -145.5t-64.5 -136t-119 -106.5t-174 -48l-40 -281h-39l39 279q-190 3 -304 161l31 27 q106 -145 279 -145q78 0 142 24.5t105 64t69 92t40 105.5t12 107q0 107 -54 174t-177 121q-134 58 -192 126.5t-58 176.5q0 146 96.5 250t251.5 108l39 289h41z" />
<glyph unicode="%" horiz-adv-x="1333" d="M1180 1423l-1000 -1431l35 -23l997 1432zM391 739q-89 0 -138.5 63.5t-49.5 176.5q0 66 17 133.5t49.5 128.5t89 99t126.5 38q90 0 140.5 -62.5t50.5 -174.5q0 -67 -17.5 -135t-50.5 -129t-90 -99.5t-127 -38.5zM393 778q62 0 110.5 37t75 95t39.5 118t13 117 q0 90 -36.5 142t-109.5 52q-62 0 -110.5 -37t-74.5 -94.5t-39 -117t-13 -115.5q0 -91 36 -144t109 -53zM889 -20q-90 0 -140.5 64t-50.5 175q0 66 17.5 133.5t50.5 128.5t90 99t127 38q89 0 138.5 -62t49.5 -175q0 -66 -17 -134t-50 -129t-89 -99.5t-126 -38.5zM891 18 q62 0 110 37t74.5 95t39.5 118.5t13 116.5q0 91 -36 143t-109 52q-51 0 -93 -25t-68.5 -63.5t-45 -88t-26 -97t-7.5 -91.5q0 -90 37 -143.5t111 -53.5z" />
<glyph unicode="&#x26;" horiz-adv-x="1230" d="M664 1417q102 0 166.5 -67.5t64.5 -171.5q0 -127 -73 -220.5t-279 -220.5l313 -450q91 152 186 401l39 -16q-40 -97 -61 -147.5t-60 -128t-79 -140.5l166 -244l-35 -26l-160 233q-169 -239 -395 -239q-136 0 -214.5 85.5t-78.5 219.5q0 67 13.5 123t47.5 115t98 116 t158 113q-119 177 -119 313q0 66 18.5 127t54 112.5t95 82t134.5 30.5zM664 1376q-53 0 -96.5 -18.5t-72.5 -49t-48.5 -71.5t-28 -84t-8.5 -88q0 -136 108 -295q104 63 168 113t100.5 98.5t49 92.5t12.5 104q0 90 -51.5 144t-132.5 54zM504 721q-89 -52 -148.5 -105.5 t-90 -109t-42.5 -107t-12 -114.5q0 -113 65 -187.5t181 -74.5q210 0 370 227z" />
<glyph unicode="'" horiz-adv-x="346" d="M207 903l63 492h47l-75 -492h-35z" />
<glyph unicode="(" horiz-adv-x="544" d="M565 1700l27 -21q-151 -217 -240.5 -396t-139.5 -389.5t-50 -455.5q0 -194 40.5 -344.5t121.5 -341.5l-31 -16q-44 102 -68 163t-52.5 153t-41 185.5t-12.5 200.5q0 193 27 357t86.5 316.5t137.5 288t195 300.5z" />
<glyph unicode=")" horiz-adv-x="544" d="M307 1698q44 -103 67 -163t51.5 -153t41 -186t12.5 -199q0 -191 -27.5 -355t-87.5 -317.5t-138.5 -290t-194.5 -300.5l-27 20q151 217 240.5 396.5t139.5 390.5t50 456q0 135 -24.5 263.5t-53.5 210t-82 210.5z" />
<glyph unicode="*" horiz-adv-x="755" d="M762 1231l-270 -94l122 -267l-39 -18l-114 264l-191 -264l-34 22l198 265l-241 96l16 37l240 -103l43 330h45l-54 -332l269 103z" />
<glyph unicode="+" horiz-adv-x="839" d="M512 1016l-45 -318h256l-6 -43h-256l-45 -317h-47l47 317h-258l6 43h258l45 318h45z" />
<glyph unicode="," horiz-adv-x="309" d="M86 76q19 0 31 -12t12 -31q0 -18 -25 -70l-110 -229h-35l100 254q-22 15 -22 39q0 21 14 35t35 14z" />
<glyph unicode="-" horiz-adv-x="671" d="M141 618l6 44h412l-4 -44h-414z" />
<glyph unicode="." horiz-adv-x="309" d="M82 -16q-21 0 -33 11.5t-12 29.5q0 22 14 36.5t37 14.5q20 0 31.5 -11.5t11.5 -29.5q0 -22 -13.5 -36.5t-35.5 -14.5z" />
<glyph unicode="/" horiz-adv-x="897" d="M778 1634l37 -12l-645 -1817l-35 11z" />
<glyph unicode="0" horiz-adv-x="958" d="M614 1378q-80 0 -150 -45.5t-121.5 -123t-91.5 -177.5t-64.5 -213.5t-37 -225.5t-12.5 -218q0 -395 246 -395q96 0 177 64.5t135.5 168t93 237t56 268.5t17.5 265q0 395 -248 395zM614 1335q102 0 151.5 -86.5t49.5 -265.5q0 -125 -17 -256t-52.5 -257.5t-85 -225.5 t-121 -160t-154.5 -61q-201 0 -201 352q0 156 27.5 320t78.5 309.5t136 238t188 92.5z" />
<glyph unicode="1" horiz-adv-x="677" d="M551 1354l-191 -1354h-45l183 1298l-318 -223l-20 35l354 244h37z" />
<glyph unicode="2" horiz-adv-x="784" d="M459 1378q121 0 188.5 -78t69.5 -208q0 -92 -22 -166.5t-98.5 -195t-200.5 -273t-351 -414.5l553 2l-16 -45h-598l8 45q157 179 264 305.5t185 229.5t121.5 170.5t68.5 130t32.5 107.5t6.5 104q0 115 -55.5 180t-157.5 65q-82 0 -149.5 -41t-133.5 -120l-31 26 q77 90 153 133t163 43z" />
<glyph unicode="3" horiz-adv-x="823" d="M504 1378q116 0 180 -71.5t64 -192.5q0 -155 -80.5 -264.5t-216.5 -126.5q99 -9 155 -76.5t56 -197.5q0 -64 -14 -128t-45.5 -126t-77.5 -109.5t-115.5 -76.5t-153.5 -29q-180 0 -276 170l34 22q46 -81 104 -115t140 -34q77 0 139 27.5t101.5 71.5t66.5 101.5t38 114.5 t11 113q0 126 -59 187.5t-168 61.5h-65l12 41h51q77 0 138.5 33t99 87.5t57.5 119.5t20 133q0 106 -51 165.5t-145 59.5q-138 0 -281 -137l-26 27q152 149 307 149z" />
<glyph unicode="4" horiz-adv-x="849" d="M768 424l-6 -41h-158l-53 -383h-45l55 383h-498l7 37l477 958l35 -16l-465 -938h450l66 432h39l-62 -432h158z" />
<glyph unicode="5" horiz-adv-x="798" d="M791 1354l-13 -41h-467l-75 -543q106 80 215 80q118 0 182.5 -84t64.5 -227q0 -72 -14 -146t-46 -149.5t-79.5 -133t-120.5 -94t-162 -36.5q-178 0 -270 155l35 25q83 -137 240 -137q79 0 143.5 33.5t106 86.5t70 122t40.5 137t12 135q0 127 -56 199.5t-153 72.5 q-62 0 -111 -20t-112 -64h-37l88 629h519z" />
<glyph unicode="6" horiz-adv-x="897" d="M672 1337q-107 0 -202.5 -94t-163.5 -251t-103 -355q70 108 158 172.5t184 64.5q109 0 174 -75.5t65 -220.5q0 -76 -13.5 -156t-44.5 -160t-75.5 -142t-112 -101t-147.5 -39q-134 0 -197 102.5t-63 277.5q0 169 39 347t107 328t172.5 246.5t222.5 96.5q107 0 178 -78 l-29 -28q-65 65 -149 65zM541 834q-179 0 -351 -271q-12 -117 -12 -203q0 -337 213 -337q73 0 133 37.5t98.5 96.5t65.5 134t38 146.5t11 137.5q0 127 -52 193t-144 66z" />
<glyph unicode="7" horiz-adv-x="729" d="M778 1354l-6 -37l-645 -1329l-41 12l635 1309l-545 4l6 41h596z" />
<glyph unicode="8" horiz-adv-x="915" d="M575 707q105 -59 153 -127t48 -168q0 -190 -113 -311t-284 -121q-139 0 -216 80t-77 216q0 317 334 465q-83 46 -121.5 108.5t-38.5 156.5q0 161 103.5 266.5t238.5 105.5q112 0 182 -71t70 -197q0 -131 -63 -222.5t-216 -180.5zM305 1006q0 -86 37.5 -143t126.5 -101 l74 -37q147 84 206.5 173t59.5 212q0 108 -56.5 167.5t-150.5 59.5q-120 0 -208.5 -93t-88.5 -238zM379 23q150 0 250 105.5t100 283.5q0 99 -47 159.5t-158 118.5l-65 31q-83 -36 -144 -80t-95 -86.5t-54.5 -94t-26.5 -93.5t-6 -93q0 -119 64 -185t182 -66z" />
<glyph unicode="9" horiz-adv-x="878" d="M547 1378q130 0 194 -90t64 -256q0 -835 -696 -1063l-13 35q126 45 224 104.5t183 146.5t144 208.5t90 277.5q-156 -219 -338 -219q-113 0 -177 84t-64 236q0 91 25 183.5t71.5 172.5t123 130t169.5 50zM401 565q181 0 342 242q17 119 17 225q0 305 -215 305 q-84 0 -152 -47.5t-108 -123t-61 -160t-21 -166.5q0 -133 52 -204t146 -71z" />
<glyph unicode=":" horiz-adv-x="309" d="M203 834q-21 0 -33 11t-12 29q0 22 14 37t37 15q20 0 31.5 -11.5t11.5 -29.5q0 -22 -13.5 -36.5t-35.5 -14.5zM82 -16q-21 0 -33 11.5t-12 29.5q0 22 14 36.5t37 14.5q20 0 31.5 -11.5t11.5 -29.5q0 -22 -13.5 -36.5t-35.5 -14.5z" />
<glyph unicode=";" horiz-adv-x="309" d="M203 834q-21 0 -33 11t-12 29q0 22 14 37t37 15q20 0 31.5 -11.5t11.5 -29.5q0 -22 -13.5 -36.5t-35.5 -14.5zM86 76q19 0 31 -12t12 -31q0 -18 -25 -70l-110 -229h-35l100 254q-22 15 -22 39q0 21 14 35t35 14z" />
<glyph unicode="&#x3c;" horiz-adv-x="858" d="M766 1030l16 -35l-573 -321l483 -314l-26 -34l-506 333l6 33z" />
<glyph unicode="=" horiz-adv-x="841" d="M182 817l6 43h560l-7 -43h-559zM135 494l6 43h559l-6 -43h-559z" />
<glyph unicode="&#x3e;" horiz-adv-x="860" d="M233 1030l508 -332l-6 -32l-602 -340l-14 34l573 324l-485 311z" />
<glyph unicode="?" horiz-adv-x="806" d="M518 1415q111 0 171.5 -64t60.5 -169q0 -71 -22 -130t-57 -99.5t-77.5 -76t-85 -68.5t-77.5 -68t-57 -84t-22 -107q0 -55 10 -103l-40 -10q-15 69 -15 111q0 63 22 115t56.5 89t77 71t84.5 68.5t76.5 73.5t56.5 94.5t22 123.5q0 90 -47 142t-137 52q-80 0 -145.5 -37.5 t-139.5 -119.5l-28 26q77 89 151 129.5t162 40.5zM311 -18q-21 0 -33 11.5t-12 29.5q0 22 14 36.5t37 14.5q20 0 31.5 -11.5t11.5 -29.5q0 -22 -13.5 -36.5t-35.5 -14.5z" />
<glyph unicode="@" horiz-adv-x="1759" d="M1042 1417q136 0 244 -48t176.5 -134t104 -199.5t35.5 -247.5q0 -97 -14.5 -199.5t-46.5 -203t-76.5 -179t-110 -127t-142.5 -48.5q-89 0 -128.5 68t-34.5 180q-117 -244 -291 -244q-99 0 -157 76.5t-58 224.5q0 82 15 168t49.5 171.5t84 152t124 108t163.5 41.5 q93 0 190 -53l-73 -549q-6 -49 -8 -87.5t2 -81t16.5 -71t39 -47t66.5 -18.5q68 0 126 47.5t97 123t66.5 171t40 190.5t12.5 182q0 173 -56 304t-174 208.5t-284 77.5q-123 0 -232 -37.5t-192 -101.5t-152 -150.5t-116.5 -184t-80 -203t-47.5 -205.5t-15 -193 q0 -305 151 -482t402 -177q173 0 325 65l7 -41q-165 -67 -332 -67q-268 0 -433 190t-165 512q0 97 15.5 201t50 213.5t84.5 211t123 191.5t160.5 156.5t203 105.5t245.5 39zM760 76q89 0 165 74.5t124 195.5l75 553q-75 35 -147 35q-82 0 -149.5 -40.5t-111 -104.5 t-73.5 -145t-42.5 -158.5t-12.5 -149.5q0 -128 46.5 -194t125.5 -66z" />
<glyph unicode="A" horiz-adv-x="962" d="M782 0l-57 416h-520l-174 -416h-49l589 1395h60l200 -1395h-49zM223 459h498l-123 897z" />
<glyph unicode="B" horiz-adv-x="1017" d="M649 739q110 -14 174 -84t64 -198q0 -63 -13.5 -124t-47.5 -122.5t-84.5 -107.5t-132 -74.5t-183.5 -28.5h-297l197 1395h280q164 0 250 -73.5t86 -213.5q0 -147 -80.5 -247t-212.5 -122zM365 1352l-84 -594h280q151 0 243.5 100.5t92.5 247.5q0 246 -291 246h-241z M434 43q91 0 162.5 26t116 67t73.5 97t40.5 111t11.5 113q0 129 -70.5 194.5t-202.5 65.5h-291l-94 -674h254z" />
<glyph unicode="C" horiz-adv-x="917" d="M727 1415q87 0 146.5 -30t109.5 -89l-29 -30q-50 54 -102.5 80t-126.5 26q-95 0 -176.5 -40.5t-139.5 -110t-102.5 -159t-71 -191.5t-40 -202.5t-13.5 -197.5q0 -218 80.5 -332t220.5 -114q85 0 151 30.5t130 85.5l27 -32q-143 -129 -308 -129q-162 0 -255 127t-93 362 q0 103 14.5 209.5t44 214t78.5 200.5t112 165.5t151.5 114.5t191.5 42z" />
<glyph unicode="D" horiz-adv-x="1075" d="M571 1395q69 0 127 -13t112.5 -45.5t92.5 -83.5t61 -132.5t23 -186.5q0 -141 -20.5 -271t-69 -252.5t-121 -212t-183 -144t-247.5 -54.5h-217l197 1395h245zM571 1352h-206l-185 -1309h172q107 0 196 36.5t152 102t110.5 150.5t75 186.5t41 204.5t13.5 211 q0 98 -20 172.5t-53.5 120t-82.5 74.5t-100 40t-113 11z" />
<glyph unicode="E" horiz-adv-x="831" d="M868 1395l-12 -43h-491l-82 -594h424l-7 -43h-426l-94 -672h512l-6 -43h-557l197 1395h542z" />
<glyph unicode="F" horiz-adv-x="790" d="M860 1395l-12 -43h-483l-86 -623h417l-6 -43h-418l-96 -686h-47l197 1395h534z" />
<glyph unicode="G" horiz-adv-x="1021" d="M727 1415q87 0 153.5 -29.5t125.5 -91.5l-33 -30q-54 58 -111.5 83t-136.5 25q-130 0 -235 -76.5t-170.5 -204.5t-100.5 -288t-35 -334q0 -221 83 -332.5t241 -111.5q142 0 283 84l81 573h-241v43h293l-88 -643q-164 -102 -330 -102q-176 0 -272.5 126t-96.5 365 q0 183 39 351t111.5 301t186.5 212.5t253 79.5z" />
<glyph unicode="H" horiz-adv-x="1110" d="M176 0h-47l197 1395h45l-88 -635h610l88 635h47l-197 -1395h-47l103 719h-611z" />
<glyph unicode="I" horiz-adv-x="454" d="M371 1395l-195 -1395h-47l197 1395h45z" />
<glyph unicode="J" horiz-adv-x="483" d="M410 1395l-170 -1217q-23 -161 -78 -236t-201 -147l-16 33q130 67 179 137t71 219l170 1211h45z" />
<glyph unicode="K" horiz-adv-x="880" d="M129 0l197 1395h45l-195 -1395h-47zM731 0l-444 752l614 643h53l-616 -647l446 -748h-53z" />
<glyph unicode="L" horiz-adv-x="751" d="M371 1395l-191 -1350h488l-17 -45h-522l197 1395h45z" />
<glyph unicode="M" horiz-adv-x="1286" d="M1151 1395l-72 -1395h-45l37 709q17 399 35 649l-490 -1186h-49l-164 1184q-10 -50 -33 -155.5t-55 -249t-51 -228.5l-162 -723h-45l318 1395h63l162 -1170l479 1170h72z" />
<glyph unicode="N" horiz-adv-x="1114" d="M1030 1395l-196 -1395h-58l-422 1348q-9 -122 -45 -373l-135 -975h-45l197 1395h57l422 -1344q15 166 45 369l135 975h45z" />
<glyph unicode="O" horiz-adv-x="1169" d="M725 1415q169 0 262.5 -124t93.5 -359q0 -84 -9.5 -172t-31.5 -182t-54 -180t-80.5 -162.5t-107.5 -133t-138.5 -89.5t-170.5 -33q-168 0 -261 126.5t-93 360.5q0 118 20 243t66 252.5t112 227t168 162.5t224 63zM725 1374q-96 0 -178.5 -43t-140 -116t-102 -165 t-70.5 -195.5t-39 -200.5t-13 -187q0 -216 80.5 -329t226.5 -113q101 0 185.5 43.5t142 117.5t101 166t68.5 196.5t36.5 200t11.5 185.5q0 216 -80 328t-229 112z" />
<glyph unicode="P" horiz-adv-x="944" d="M573 1395q363 0 363 -316q0 -74 -14 -141.5t-50 -134.5t-90.5 -115.5t-142.5 -79t-199 -30.5h-184l-80 -578h-47l197 1395h247zM449 621q101 0 179.5 28t126 72.5t78.5 106t42.5 122t11.5 127.5q0 143 -78.5 209t-237.5 66h-206l-103 -731h187z" />
<glyph unicode="Q" horiz-adv-x="1171" d="M623 8q220 -10 329 -143l-37 -33q-68 86 -161.5 117t-255.5 31h-9h-2h-2q-166 2 -258 128.5t-92 358.5q0 118 20 243t66 252.5t112 227t168 162.5t224 63q169 0 262.5 -124t93.5 -359q0 -107 -14.5 -217.5t-49.5 -226t-86 -210.5t-131 -168t-177 -102zM182 467 q0 -216 80.5 -329t226.5 -113q101 0 185.5 43.5t142 117.5t101 166t68.5 196.5t36.5 200t11.5 185.5q0 216 -80 328t-229 112q-96 0 -178.5 -43t-140 -116t-102 -165t-70.5 -195.5t-39 -200.5t-13 -187z" />
<glyph unicode="R" horiz-adv-x="966" d="M930 1102q0 -74 -19.5 -142.5t-58.5 -129t-106 -103t-154 -57.5l225 -670h-49l-221 664h-4h-275l-92 -664h-47l197 1395h260q179 0 261.5 -74t82.5 -219zM514 707q79 0 143 23.5t105 62t68.5 90.5t39 106t11.5 111q0 129 -68 190.5t-227 61.5h-221l-91 -645h240z" />
<glyph unicode="S" horiz-adv-x="901" d="M586 1415q173 0 293 -143l-33 -27q-56 66 -116.5 97.5t-143.5 31.5q-139 0 -227.5 -98t-88.5 -234q0 -96 50 -152t182 -114q141 -64 202.5 -140t61.5 -202q0 -67 -17.5 -132t-52.5 -123.5t-84.5 -102.5t-118.5 -70t-149 -26q-112 0 -188 43.5t-138 126.5l33 24 q56 -73 123.5 -111t167.5 -38q90 0 163.5 35.5t119 94t70 130t24.5 147.5q0 112 -54 178t-184 125q-146 68 -202 132.5t-56 174.5q0 94 42.5 178t127 139.5t193.5 55.5z" />
<glyph unicode="T" horiz-adv-x="800" d="M901 1395l-12 -45h-350l-189 -1350h-47l191 1350h-353l6 45h754z" />
<glyph unicode="U" horiz-adv-x="1071" d="M1010 1395l-148 -1049q-10 -75 -39.5 -140t-78 -116t-121.5 -80.5t-162 -29.5q-72 0 -129 19.5t-92.5 54t-58 81t-26 100.5t2.5 113l147 1047h45l-145 -1045q-20 -144 42 -234.5t216 -90.5q155 0 244 93.5t110 233.5l146 1043h47z" />
<glyph unicode="V" horiz-adv-x="923" d="M987 1395l-571 -1395h-58l-180 1395h47l168 -1350l545 1350h49z" />
<glyph unicode="W" horiz-adv-x="1345" d="M1397 1395l-461 -1395h-55l-95 1350l-469 -1350h-57l-70 1395h46l61 -1342l467 1342h59l90 -1346l437 1346h47z" />
<glyph unicode="X" horiz-adv-x="819" d="M862 1395l-401 -639l258 -756h-47l-240 719l-432 -719h-49l457 756l-222 639h52l200 -607l375 607h49z" />
<glyph unicode="Y" horiz-adv-x="835" d="M922 1395l-478 -842l-77 -553h-48l78 553l-243 842h47l225 -795l444 795h52z" />
<glyph unicode="Z" horiz-adv-x="851" d="M-12 0l8 43l835 1309h-591l8 43h641l-6 -39l-836 -1311h633l-14 -45h-678z" />
<glyph unicode="[" horiz-adv-x="526" d="M545 1630l-4 -35h-181l-251 -1777h180l-4 -35h-222l261 1847h221z" />
<glyph unicode="\" horiz-adv-x="897" d="M428 1630l133 -1816l-39 -9l-133 1817z" />
<glyph unicode="]" horiz-adv-x="528" d="M514 1630l-260 -1847h-221l4 35h182l250 1777h-182l6 35h221z" />
<glyph unicode="^" horiz-adv-x="901" d="M633 1686l211 -607h-51l-185 551l-340 -551h-55l385 607h35z" />
<glyph unicode="_" horiz-adv-x="899" d="M-23 -205l7 43h737l-6 -43h-738z" />
<glyph unicode="`" horiz-adv-x="440" d="M229 1556l269 -188l-21 -29l-278 172z" />
<glyph unicode="a" d="M584 1083q127 0 233 -69l-110 -785q-15 -93 -8.5 -141t49.5 -74l-17 -34q-51 26 -67 73t-5 137q-126 -210 -297 -210q-124 0 -192 97t-68 267q0 101 16.5 201.5t54.5 198.5t92.5 172.5t137 120.5t181.5 46zM582 1044q-89 0 -163 -43.5t-123 -114.5t-82.5 -163.5 t-48.5 -187.5t-15 -189q0 -153 55.5 -238t159.5 -85q168 0 301 239l104 733q-83 49 -188 49z" />
<glyph unicode="b" horiz-adv-x="960" d="M614 1083q121 0 183.5 -88t62.5 -252q0 -98 -15 -199t-50.5 -203.5t-87.5 -181.5t-133 -129t-179 -50q-123 0 -266 67l205 1454l45 6l-86 -614q76 91 153 140.5t168 49.5zM614 1042q-88 0 -167.5 -53.5t-159.5 -152.5l-109 -762q111 -51 219 -51q89 0 162 48t119 123.5 t78 173t45 191.5t14 184q1 146 -50 222.5t-151 76.5z" />
<glyph unicode="c" horiz-adv-x="782" d="M565 1083q133 0 219 -102l-30 -29q-77 90 -191 90q-102 0 -183.5 -62.5t-129.5 -163.5t-73 -218t-25 -238q0 -166 62 -251.5t173 -85.5q112 0 227 96l23 -31q-121 -108 -250 -108q-132 0 -206.5 98.5t-74.5 281.5q0 101 17 201t54 195t89.5 167t129.5 116t169 44z" />
<glyph unicode="d" horiz-adv-x="958" d="M856 1507l45 -6l-213 -1501h-37l31 260q-147 -280 -332 -280q-117 0 -182.5 95t-65.5 267q0 124 27.5 250.5t79.5 238t139 182t195 70.5q166 0 231 -163zM543 1042q-64 0 -121 -30.5t-99 -83.5t-76 -122t-54.5 -147.5t-31.5 -158t-11 -156.5q0 -152 52.5 -236.5 t147.5 -84.5q102 0 183.5 85t160.5 242l70 504q-62 188 -221 188z" />
<glyph unicode="e" horiz-adv-x="866" d="M815 856q0 -97 -47.5 -172.5t-136 -125t-207 -79.5t-268.5 -41q-4 -58 -4 -84q0 -164 61 -247.5t168 -83.5q75 0 136.5 27.5t129.5 84.5l25 -31q-74 -63 -142.5 -93.5t-148.5 -30.5q-131 0 -204 96t-73 276q0 102 17.5 203.5t55 197t91.5 168.5t133.5 117.5t173.5 44.5 q112 0 176 -61t64 -166zM573 1042q-92 0 -167.5 -48.5t-125 -130.5t-80 -179t-42.5 -205q612 40 612 377q0 88 -51 137t-146 49z" />
<glyph unicode="f" horiz-adv-x="518" d="M563 1468q-174 0 -203 -211l-26 -194h244l-13 -41h-237l-144 -1028q-17 -119 -49.5 -192.5t-76 -114t-124.5 -86.5l-14 32q71 40 109 77.5t66.5 105t43.5 178.5l144 1028h-152l6 41h150l28 201q17 118 82.5 181.5t165.5 63.5t189 -71l-21 -33q-86 63 -168 63z" />
<glyph unicode="g" horiz-adv-x="937" d="M586 1083q127 0 233 -69l-145 -1037q-54 -380 -344 -380q-151 0 -271 96l23 28q115 -86 250 -86q115 0 193.5 82t103.5 263l33 231q-124 -211 -295 -211q-123 0 -192 95.5t-71 260.5q0 97 16.5 195.5t54.5 195t92.5 170.5t137 120t181.5 46zM584 1044q-89 0 -163.5 -43.5 t-123 -114t-82.5 -161.5t-49 -183.5t-14 -183.5q2 -147 57 -231t158 -84q169 0 303 240l102 712q-79 49 -188 49z" />
<glyph unicode="h" horiz-adv-x="976" d="M631 1083q113 0 163 -83t31 -230l-108 -770h-45l108 766q19 137 -20.5 207.5t-130.5 70.5q-188 0 -371 -378l-92 -666h-45l211 1501l45 6l-105 -747q162 323 359 323z" />
<glyph unicode="i" horiz-adv-x="436" d="M342 1403q-15 0 -25 10.5t-10 24.5q0 19 11.5 31t31.5 12q15 0 25 -10t10 -25q0 -18 -11.5 -30.5t-31.5 -12.5zM315 1063l-149 -1063h-45l149 1063h45z" />
<glyph unicode="j" horiz-adv-x="438" d="M344 1403q-15 0 -25 10.5t-10 24.5q0 19 11.5 31t31.5 12q15 0 25 -10t10 -25q0 -18 -11.5 -30.5t-31.5 -12.5zM-84 -399l-12 34q69 39 107 76t66 104.5t44 178.5l151 1069h45l-151 -1069q-12 -91 -31 -152.5t-52 -105.5t-69.5 -72.5t-97.5 -62.5z" />
<glyph unicode="k" horiz-adv-x="870" d="M377 1507l-111 -792q82 181 172.5 274.5t202.5 93.5q89 0 136.5 -55t47.5 -141q0 -270 -323 -393l190 -494h-45l-198 512q331 114 331 375q0 72 -35.5 114.5t-107.5 42.5q-106 0 -199 -110.5t-186 -323.5l-86 -610h-45l211 1501z" />
<glyph unicode="l" horiz-adv-x="466" d="M367 1507l-193 -1376q-15 -108 68 -108q32 0 67 14l13 -37q-50 -20 -86 -20q-58 0 -87 38.5t-20 114.5l193 1368z" />
<glyph unicode="m" horiz-adv-x="1425" d="M1098 1083q102 0 147 -87t23 -240l-105 -756h-45l105 752q40 292 -127 292q-173 0 -340 -387l-94 -657h-44l107 752q40 292 -129 292t-340 -399l-90 -645h-45l149 1063h39l-41 -318q72 165 157 251.5t173 86.5q103 0 148.5 -86t23.5 -237q71 158 156 240.5t172 82.5z" />
<glyph unicode="n" horiz-adv-x="976" d="M631 1083q113 0 162.5 -83.5t29.5 -229.5l-108 -770h-45l108 766q19 137 -19.5 207.5t-129.5 70.5q-189 0 -371 -378l-92 -666h-45l149 1063h39l-39 -307q81 162 167 244.5t194 82.5z" />
<glyph unicode="o" horiz-adv-x="948" d="M385 -20q-135 0 -208 99.5t-73 276.5q0 76 11 156.5t33.5 163t60.5 155t87 129.5t118 90t149 33q134 0 206.5 -99t72.5 -275q0 -76 -11 -156t-33 -163t-59.5 -155.5t-86 -130t-117.5 -91t-150 -33.5zM385 23q74 0 137 32.5t106.5 87.5t77 124.5t53 147.5t29 151.5 t9.5 142.5q0 163 -60 248t-174 85q-73 0 -136 -32t-106.5 -87.5t-77 -124.5t-53 -147t-29 -152t-9.5 -143q0 -163 59.5 -248t173.5 -85z" />
<glyph unicode="p" horiz-adv-x="952" d="M63 -403l207 1466h39l-18 -166q140 186 315 186q119 0 182.5 -88t63.5 -252q0 -82 -11 -166.5t-33 -171.5t-59.5 -162.5t-87 -135t-119.5 -93.5t-153 -34q-109 0 -219 55l-61 -432zM391 23q89 0 161.5 47.5t119 122t78 171.5t44.5 192t13 187q0 299 -203 299 q-173 0 -321 -206l-107 -758q105 -55 215 -55z" />
<glyph unicode="q" horiz-adv-x="944" d="M584 -403l82 593q-129 -210 -299 -210q-125 0 -195 97t-70 267q0 101 17 201.5t55.5 198.5t94 172.5t138.5 120.5t183 46q127 0 233 -69l-194 -1411zM367 23q175 0 307 243l104 729q-83 49 -188 49q-76 0 -141 -30.5t-112.5 -83.5t-84 -121.5t-58.5 -147.5t-33 -158 t-11 -157q0 -152 56.5 -237.5t160.5 -85.5z" />
<glyph unicode="r" horiz-adv-x="610" d="M578 1083q37 0 79 -14l-14 -39q-32 12 -70 12q-101 0 -173.5 -91.5t-141.5 -286.5l-92 -664h-45l149 1063h39l-39 -291q57 157 130.5 234t177.5 77z" />
<glyph unicode="s" horiz-adv-x="772" d="M463 1083q150 0 252 -108l-29 -29q-52 49 -103.5 72.5t-119.5 23.5q-108 0 -179 -65t-71 -172q0 -76 42 -124t153 -95q121 -54 171 -118t50 -161q0 -150 -93 -238.5t-237 -88.5q-97 0 -165.5 35.5t-125.5 99.5l31 28q52 -59 112 -89.5t148 -30.5q124 0 204.5 72t80.5 210 q0 85 -43 138.5t-158 103.5q-122 53 -168.5 110.5t-46.5 147.5q0 123 85 200.5t210 77.5z" />
<glyph unicode="t" horiz-adv-x="550" d="M303 1022l-113 -803q-15 -98 18 -148.5t101 -50.5q69 0 156 52l18 -31q-89 -61 -176 -61q-90 0 -134.5 62.5t-27.5 176.5l113 803h-145l4 41h147l47 268l35 4l-39 -272h240l-12 -41h-232z" />
<glyph unicode="u" horiz-adv-x="968" d="M348 -20q-110 0 -163 82.5t-33 224.5l110 776h45l-108 -776q-19 -129 20.5 -196.5t128.5 -67.5q211 0 363 376l92 664h45l-152 -1063h-34l40 309q-142 -329 -354 -329z" />
<glyph unicode="v" horiz-adv-x="774" d="M803 1063l-455 -1063h-57l-170 1063h47l156 -1024l432 1024h47z" />
<glyph unicode="w" horiz-adv-x="1167" d="M1178 1063l-377 -1063h-62l-86 1016l-370 -1016h-62l-82 1063h43l76 -1020l373 1020h57l88 -1020l357 1020h45z" />
<glyph unicode="x" horiz-adv-x="749" d="M745 1063l-339 -496l231 -567h-47l-215 539l-361 -539h-53l391 571l-198 492h49l180 -463l311 463h51z" />
<glyph unicode="y" horiz-adv-x="768" d="M799 1063l-453 -1067q-58 -136 -103.5 -206.5t-104.5 -112.5t-161 -76l-4 34q91 31 146.5 73t95 106.5t88.5 185.5h-20l-162 1063h47l151 -1030l431 1030h49z" />
<glyph unicode="z" horiz-adv-x="692" d="M705 1063l-7 -37l-663 -983h516l-12 -43h-562l7 37l663 985h-481l6 41h533z" />
<glyph unicode="{" horiz-adv-x="552" d="M575 1675l-4 -35q-73 0 -112 -44.5t-51 -139.5l-80 -563q-11 -89 -47 -128t-103 -50q63 -13 87 -54.5t11 -134.5l-77 -557q-12 -94 13 -136.5t97 -43.5l-4 -35q-83 0 -122.5 52t-24.5 159l80 582q10 78 -17 112.5t-94 34.5l6 41q134 0 156 152l80 579q28 209 206 209z " />
<glyph unicode="|" horiz-adv-x="716" d="M535 1640l-256 -1841h-46l259 1841h43z" />
<glyph unicode="}" horiz-adv-x="552" d="M31 -246l2 35q74 0 113 44.5t53 139.5l77 564q13 90 48 128.5t102 49.5q-63 13 -87 54t-11 134l78 557q12 94 -13.5 136.5t-97.5 43.5l4 35q83 0 122.5 -52t24.5 -159l-79 -581q-10 -78 16.5 -113t93.5 -35l-6 -41q-134 0 -156 -151l-79 -580q-28 -209 -205 -209z" />
<glyph unicode="~" horiz-adv-x="798" d="M535 573q-30 0 -64 17.5t-59 39t-56 39t-57 17.5q-40 0 -67.5 -21t-63.5 -67l-27 20q40 56 76.5 84.5t83.5 28.5q31 0 65 -17.5t58.5 -39t55 -39t57.5 -17.5q37 0 64 21t63 66l26 -21q-40 -56 -74.5 -83.5t-80.5 -27.5z" />
<glyph unicode="&#xa1;" horiz-adv-x="442" d="M268 831q-21 0 -33 11.5t-12 29.5q0 22 14 37t37 15q20 0 31.5 -11.5t11.5 -29.5q0 -22 -14 -37t-35 -15zM240 516l-129 -909h-45l131 909h43z" />
<glyph unicode="&#xa2;" horiz-adv-x="782" d="M569 1083q68 -1 119 -25.5t96 -76.5l-30 -29q-77 90 -191 90q-102 0 -183.5 -62.5t-129.5 -163.5t-73 -218t-25 -238q0 -166 62 -251.5t173 -85.5q112 0 227 96l23 -31q-113 -98 -223 -106l-39 -281h-41l39 279q-126 6 -196.5 104.5t-70.5 275.5q0 97 15.5 193.5 t49.5 188.5t82.5 164t120 119.5t156.5 55.5l43 303h39z" />
<glyph unicode="&#xa3;" horiz-adv-x="843" d="M633 1378q148 0 227 -139l-31 -22q-35 60 -81 89t-115 29q-106 0 -175 -84t-89 -219l-39 -287h360l-4 -43h-362l-58 -423q-13 -99 -49 -149t-111 -87h574l-16 -43h-623l6 43q84 43 122.5 93t51.5 143l60 423h-107l4 43h107l41 291q21 150 101.5 246t205.5 96z" />
<glyph unicode="&#xa4;" d="M854 272l-33 -24l-131 158q-79 -76 -196 -76q-115 0 -191 73l-131 -155l-31 24l133 162q-75 101 -75 262q0 162 73 260l-135 162l31 27l131 -158q81 78 195 78q121 0 196 -78l129 158l29 -27l-131 -160q74 -99 74 -262q0 -162 -76 -260zM494 369q120 0 185.5 85t65.5 242 q0 158 -64.5 244t-186.5 86q-120 0 -185 -86.5t-65 -243.5t65.5 -242t184.5 -85z" />
<glyph unicode="&#xa5;" horiz-adv-x="819" d="M901 1354l-430 -682h205l-4 -41h-223l-33 -242h221l-6 -45h-221l-50 -344h-47l49 344h-223l6 45h224l32 242h-221l6 41h207l-246 682h54l229 -678l420 678h51z" />
<glyph unicode="&#xa6;" horiz-adv-x="716" d="M537 1640l-105 -733h-43l103 733h45zM381 537l-102 -738h-43l100 738h45z" />
<glyph unicode="&#xa7;" horiz-adv-x="948" d="M631 1335q-116 0 -181 -68.5t-65 -166.5q0 -72 41 -120.5t149 -98.5q108 -52 153.5 -111.5t45.5 -146.5q0 -96 -42 -164.5t-148 -139.5q69 -66 69 -172q0 -119 -81 -198.5t-214 -79.5q-143 0 -258 90l27 33q95 -80 233 -80q117 0 182.5 67t65.5 166q0 76 -40 126.5 t-140 95.5q-115 52 -165 110.5t-50 147.5q0 92 46 163t155 144q-76 67 -76 170q0 113 82 193.5t209 80.5q130 0 239 -88l-24 -33q-55 41 -103.5 60.5t-109.5 19.5zM727 623q0 71 -36.5 124t-133.5 97q-86 42 -115 65q-102 -72 -143 -135.5t-41 -148.5q0 -74 41.5 -125 t146.5 -97q53 -23 111 -61q101 69 135.5 134t34.5 147z" />
<glyph unicode="&#xa8;" horiz-adv-x="483" d="M219 1378q-14 0 -23.5 10.5t-9.5 24.5q0 19 10.5 31t30.5 12q15 0 25 -10t10 -25q0 -18 -11.5 -30.5t-31.5 -12.5zM504 1378q-15 0 -25 10.5t-10 24.5q0 19 11.5 31t31.5 12q15 0 24 -10t9 -25q0 -18 -11 -30.5t-30 -12.5z" />
<glyph unicode="&#xa9;" horiz-adv-x="1353" d="M727 1479q209 0 340 -155.5t131 -432.5q0 -273 -131.5 -430.5t-339.5 -157.5q-209 0 -340 155.5t-131 432.5q0 273 131.5 430.5t339.5 157.5zM727 1436q-192 0 -311 -144t-119 -401q0 -260 118.5 -402.5t311.5 -142.5q191 0 309.5 144.5t118.5 400.5q0 260 -118 402.5 t-310 142.5zM725 1241q87 0 149 -59l-22 -29q-53 47 -127 47q-32 0 -62 -15.5t-57.5 -49t-44 -95.5t-16.5 -145q0 -161 50 -236t134 -75q78 0 139 57l23 -33q-69 -65 -164 -65q-103 0 -165 88t-62 264q0 91 20 160.5t53 108.5t71.5 58t80.5 19z" />
<glyph unicode="&#xaa;" horiz-adv-x="874" d="M391 567q-90 0 -139 55.5t-49 147.5q0 134 85.5 211.5t227.5 77.5h154l12 92q11 106 -19 154.5t-116 48.5q-93 0 -199 -45l-14 34q120 52 215 52q203 0 178 -242l-55 -401q-10 -52 -4 -93t43 -59l-13 -33q-43 15 -59 50.5t-10 95.5q-100 -146 -238 -146zM393 608 q143 0 236 166l35 242h-146q-137 0 -202.5 -69t-65.5 -177q0 -74 36 -118t107 -44zM84 0l6 43h559l-6 -43h-559z" />
<glyph unicode="&#xab;" horiz-adv-x="954" d="M483 1030l29 -18l-297 -424l180 -418l-33 -18l-196 423l4 29zM836 1030l28 -18l-297 -424l181 -418l-33 -18l-197 423l4 29z" />
<glyph unicode="&#xac;" horiz-adv-x="856" d="M733 676l-37 -270h-45l31 227h-526l6 43h571z" />
<glyph unicode="&#xad;" horiz-adv-x="671" d="M141 618l6 44h412l-4 -44h-414z" />
<glyph unicode="&#xae;" horiz-adv-x="1067" d="M602 1477q167 0 273 -120t106 -329q0 -208 -105.5 -333.5t-273.5 -125.5q-166 0 -271.5 120.5t-105.5 330.5q0 207 105.5 332t271.5 125zM602 608q152 0 246 112.5t94 307.5t-94 303.5t-246 108.5q-150 0 -244 -113.5t-94 -306.5q0 -194 94.5 -303t243.5 -109zM754 1151 q0 -122 -105 -150l123 -245h-47l-119 241h-88v-241h-41v551h103q84 0 129 -41t45 -115zM518 1266v-230h86q109 0 109 115t-125 115h-70z" />
<glyph unicode="&#xaf;" horiz-adv-x="479" d="M539 1403h-355l6 43h355z" />
<glyph unicode="&#xb0;" horiz-adv-x="872" d="M426 842q-88 0 -141.5 62t-53.5 171q0 140 77 240t196 100q89 0 141.5 -61t52.5 -170q0 -140 -76.5 -241t-195.5 -101zM428 885q100 0 162.5 87t62.5 212q0 90 -39.5 140t-109.5 50q-101 0 -163 -87.5t-62 -211.5q0 -92 39 -141t110 -49z" />
<glyph unicode="&#xb1;" horiz-adv-x="843" d="M514 1016l-45 -318h256l-6 -43h-256l-45 -317h-47l47 317h-258l6 43h258l45 318h45zM66 0l6 43h559l-6 -43h-559z" />
<glyph unicode="&#xb2;" horiz-adv-x="696" d="M467 1511q79 0 122.5 -52t43.5 -132q0 -70 -22.5 -134.5t-84.5 -145.5t-105.5 -128.5t-150.5 -157.5q-37 -39 -57 -59h354l-14 -43h-395l6 43q198 209 234 250q143 163 177 277q15 49 15 98q0 67 -32.5 106.5t-90.5 39.5q-97 0 -184 -101l-29 27q54 60 104 86t109 26z " />
<glyph unicode="&#xb3;" horiz-adv-x="696" d="M475 1516q78 0 122 -46t44 -124q0 -97 -50.5 -160.5t-133.5 -77.5q65 -6 102 -47t37 -117q0 -130 -73.5 -214.5t-188.5 -84.5q-120 0 -187 109l31 22q31 -49 68.5 -69.5t89.5 -20.5q101 0 159 74t58 184q0 141 -145 141h-46l13 39h33q87 0 138.5 65.5t51.5 156.5 q0 63 -32 97t-91 34q-50 0 -91.5 -18t-90.5 -62l-21 26q96 93 203 93z" />
<glyph unicode="&#xb4;" horiz-adv-x="446" d="M502 1556l22 -45l-327 -172l-17 31z" />
<glyph unicode="&#xb5;" horiz-adv-x="987" d="M743 346q-25 -189 -2 -348l-41 -6q-20 127 -10 254q-148 -266 -332 -266q-155 0 -178 159q-10 -95 -35 -272l-36 -260l-43 -4l204 1460h45l-108 -774q-19 -140 25 -203t128 -63q183 0 334 292l107 748h45z" />
<glyph unicode="&#xb6;" horiz-adv-x="1157" d="M694 1395h318l-252 -1788l-45 -8l246 1755h-236l-244 -1747l-47 -8l146 1028q-162 6 -238 89.5t-76 221.5q0 202 114.5 329.5t313.5 127.5z" />
<glyph unicode="&#xb7;" horiz-adv-x="309" d="M172 623q-21 0 -33 11.5t-12 29.5q0 22 14 36.5t37 14.5q20 0 31.5 -11.5t11.5 -29.5q0 -22 -13.5 -36.5t-35.5 -14.5z" />
<glyph unicode="&#xb8;" horiz-adv-x="389" d="M104 18l-30 -170q137 -12 137 -129q0 -68 -45.5 -110.5t-116.5 -42.5t-117 37l19 32q46 -28 98 -28q53 0 85 29t32 81q0 51 -30.5 73.5t-106.5 23.5l41 204h34z" />
<glyph unicode="&#xb9;" horiz-adv-x="696" d="M539 1499l-117 -840h-43l110 789l-198 -131l-19 31l232 151h35z" />
<glyph unicode="&#xba;" horiz-adv-x="866" d="M559 1395q109 0 169 -78.5t60 -222.5q0 -65 -11.5 -134.5t-39 -140.5t-67.5 -126.5t-101.5 -90.5t-136.5 -35q-110 0 -169.5 78t-59.5 223q0 86 20 173.5t60 169t112 133t164 51.5zM559 1356q-67 0 -121.5 -33t-89 -84t-58 -117.5t-33 -129.5t-9.5 -124q0 -126 48 -194 t136 -68q68 0 123 33.5t89 85t57 118.5t32.5 129.5t9.5 121.5q0 126 -48 194t-136 68zM80 0l6 43h559l-6 -43h-559z" />
<glyph unicode="&#xbb;" horiz-adv-x="954" d="M258 1030l197 -424l-4 -31l-316 -423l-29 18l297 424l-178 418zM610 1030l197 -424l-4 -31l-316 -423l-28 18l297 424l-178 418z" />
<glyph unicode="&#xbc;" horiz-adv-x="1550" d="M1229 1520l31 -19l-912 -1636l-33 18zM365 555l110 788l-199 -131l-18 31l231 152h35l-116 -840h-43zM1397 270l-6 -41h-99l-32 -229h-41l34 229h-323l4 37l305 590l35 -14l-295 -572h281l38 260h37l-37 -260h99z" />
<glyph unicode="&#xbd;" horiz-adv-x="1550" d="M1229 1520l31 -19l-912 -1636l-33 18zM524 1395l-116 -840h-43l110 788l-199 -131l-18 31l231 152h35zM1229 852q79 0 122.5 -52t43.5 -132q0 -70 -22.5 -134.5t-84.5 -145.5t-105.5 -128.5t-150.5 -157.5q-37 -39 -57 -59h354l-14 -43h-395l6 43q198 209 234 250 q143 163 177 277q15 49 15 98q0 67 -32.5 106t-90.5 39q-99 0 -185 -100l-28 26q54 60 104 86.5t109 26.5z" />
<glyph unicode="&#xbe;" horiz-adv-x="1550" d="M1229 1520l31 -19l-912 -1636l-33 18zM582 840q0 -130 -74 -214.5t-189 -84.5q-120 0 -186 108l31 23q31 -49 68.5 -69.5t89.5 -20.5q101 0 159 74t58 184q0 141 -146 141h-45l12 39h33q87 0 139 65t52 156q0 63 -32 97t-91 34q-50 0 -91.5 -18t-90.5 -62l-21 27 q95 92 203 92q78 0 122 -46t44 -124q0 -97 -51 -160t-134 -77q65 -6 102.5 -47t37.5 -117zM1397 270l-6 -41h-99l-32 -229h-41l34 229h-323l4 37l305 590l35 -14l-295 -572h281l38 260h37l-37 -260h99z" />
<glyph unicode="&#xbf;" horiz-adv-x="804" d="M449 1030q21 0 33 -11.5t12 -29.5q0 -22 -14.5 -36.5t-37.5 -14.5q-20 0 -31.5 11.5t-11.5 29.5q0 22 14 36.5t36 14.5zM242 -406q-111 0 -171.5 65.5t-60.5 170.5q0 71 22 129.5t57 99t77.5 76t85 68.5t77.5 68t57 83.5t22 106.5q0 51 -11 104l41 10q15 -69 15 -110 q0 -63 -22 -115t-57 -89t-77 -71t-84 -68.5t-77 -73.5t-57 -94.5t-22 -123.5q0 -90 47.5 -142.5t137.5 -52.5q80 0 145 38t139 120l29 -26q-78 -90 -152 -131.5t-161 -41.5z" />
<glyph unicode="&#xc0;" horiz-adv-x="962" d="M793 1593l-19 -28l-280 147l30 45zM782 0l-57 416h-520l-174 -416h-49l589 1395h60l200 -1395h-49zM223 459h498l-123 897z" />
<glyph unicode="&#xc1;" horiz-adv-x="962" d="M805 1712l-324 -147l-16 30l319 164zM782 0l-57 416h-520l-174 -416h-49l589 1395h60l200 -1395h-49zM223 459h498l-123 897z" />
<glyph unicode="&#xc2;" horiz-adv-x="962" d="M643 1731l-219 -162l-21 26l230 185h24l177 -185l-25 -26zM571 1395h60l200 -1395h-49l-57 416h-520l-174 -416h-49zM223 459h498l-123 897z" />
<glyph unicode="&#xc3;" horiz-adv-x="962" d="M549 1735q-30 0 -51.5 -15.5t-57.5 -56.5l-26 18q73 95 135 95q38 0 96.5 -44t91.5 -44q28 0 53 19t58 65l26 -19q-64 -106 -135 -106q-35 0 -69 22t-64.5 44t-56.5 22zM571 1395h60l200 -1395h-49l-57 416h-520l-174 -416h-49zM223 459h498l-123 897z" />
<glyph unicode="&#xc4;" horiz-adv-x="962" d="M494 1636q-14 0 -23.5 10.5t-9.5 24.5q0 19 10.5 31t30.5 12q15 0 25 -10t10 -25q0 -18 -11.5 -30.5t-31.5 -12.5zM778 1636q-15 0 -25 10.5t-10 24.5q0 19 11.5 31t31.5 12q15 0 24 -10t9 -25q0 -18 -11 -30.5t-30 -12.5zM782 0l-57 416h-520l-174 -416h-49l589 1395h60 l200 -1395h-49zM223 459h498l-123 897z" />
<glyph unicode="&#xc5;" horiz-adv-x="962" d="M633 1577q-56 0 -88.5 37t-32.5 98q0 83 46 134.5t112 51.5q57 0 89 -37t32 -96q0 -84 -45 -136t-113 -52zM670 1862q-55 0 -86 -41.5t-31 -108.5q0 -46 22 -72t60 -26q53 0 85 42t32 109q0 44 -22 70.5t-60 26.5zM782 0l-57 416h-520l-174 -416h-49l589 1395h60 l200 -1395h-49zM223 459h498l-123 897z" />
<glyph unicode="&#xc6;" horiz-adv-x="1284" d="M1235 1352h-573l45 -594h438l-6 -43h-430l51 -672h387l-8 -43h-422l-29 401h-504l-182 -401h-45l641 1395h649zM686 444l-65 914l-416 -914h481z" />
<glyph unicode="&#xc7;" horiz-adv-x="917" d="M727 1415q87 0 146.5 -30t109.5 -89l-29 -30q-50 54 -102.5 80t-126.5 26q-95 0 -176.5 -40.5t-139.5 -110t-102.5 -159t-71 -191.5t-40 -202.5t-13.5 -197.5q0 -218 80.5 -332t220.5 -114q85 0 151 30.5t130 85.5l27 -32q-141 -127 -297 -129l-25 -132q137 -12 137 -129 q0 -68 -45.5 -110.5t-116.5 -42.5q-70 0 -116 37l18 32q46 -28 98 -28q53 0 85 29t32 81q0 51 -30.5 73.5t-106.5 23.5l33 166q-150 11 -236 137.5t-86 351.5q0 103 14.5 209.5t44 214t78.5 200.5t112 165.5t151.5 114.5t191.5 42z" />
<glyph unicode="&#xc8;" horiz-adv-x="831" d="M526 1757l269 -164l-19 -28l-280 147zM868 1395l-12 -43h-491l-82 -594h424l-7 -43h-426l-94 -672h512l-6 -43h-557l197 1395h542z" />
<glyph unicode="&#xc9;" horiz-adv-x="831" d="M786 1759l21 -47l-324 -147l-16 30zM868 1395l-12 -43h-491l-82 -594h424l-7 -43h-426l-94 -672h512l-6 -43h-557l197 1395h542z" />
<glyph unicode="&#xca;" horiz-adv-x="831" d="M426 1569l-20 26l229 185h24l177 -185l-25 -26l-166 162zM868 1395l-12 -43h-491l-82 -594h424l-7 -43h-426l-94 -672h512l-6 -43h-557l197 1395h542z" />
<glyph unicode="&#xcb;" horiz-adv-x="831" d="M496 1636q-14 0 -23.5 10.5t-9.5 24.5q0 19 10.5 31t30.5 12q15 0 25 -10t10 -25q0 -18 -11.5 -30.5t-31.5 -12.5zM780 1636q-15 0 -25 10.5t-10 24.5q0 19 11.5 31t31.5 12q15 0 24 -10t9 -25q0 -18 -11 -30.5t-30 -12.5zM868 1395l-12 -43h-491l-82 -594h424l-7 -43 h-426l-94 -672h512l-6 -43h-557l197 1395h542z" />
<glyph unicode="&#xcc;" horiz-adv-x="454" d="M270 1757l269 -164l-19 -28l-280 147zM371 1395l-195 -1395h-47l197 1395h45z" />
<glyph unicode="&#xcd;" horiz-adv-x="454" d="M530 1759l21 -47l-324 -147l-16 30zM371 1395l-195 -1395h-47l197 1395h45z" />
<glyph unicode="&#xce;" horiz-adv-x="454" d="M170 1569l-20 26l229 185h24l177 -185l-25 -26l-166 162zM371 1395l-195 -1395h-47l197 1395h45z" />
<glyph unicode="&#xcf;" horiz-adv-x="454" d="M240 1636q-14 0 -23.5 10.5t-9.5 24.5q0 19 10.5 31t30.5 12q15 0 25 -10t10 -25q0 -18 -11.5 -30.5t-31.5 -12.5zM524 1636q-15 0 -25 10.5t-10 24.5q0 19 11.5 31t31.5 12q15 0 24 -10t9 -25q0 -18 -11 -30.5t-30 -12.5zM371 1395l-195 -1395h-47l197 1395h45z" />
<glyph unicode="&#xd0;" horiz-adv-x="1081" d="M578 1395q87 0 157.5 -22t130.5 -72t93.5 -143t33.5 -224q0 -141 -20.5 -271t-69 -252.5t-121 -212t-183 -144t-247.5 -54.5h-217l98 702h-153l6 41h154l92 652h246zM358 43q107 0 196 36.5t152 102t110.5 150.5t75 186.5t41 204.5t13.5 211q0 98 -20 172.5t-53.5 120.5 t-82 74.5t-99.5 39.5t-113 11h-207l-86 -609h319l-6 -41h-319l-93 -659h172z" />
<glyph unicode="&#xd1;" horiz-adv-x="1114" d="M825 1647q-35 0 -69 22t-64.5 44t-56.5 22q-30 0 -51.5 -15.5t-57.5 -56.5l-26 18q73 95 135 95q38 0 96.5 -44t91.5 -44q28 0 53 19t58 65l27 -19q-64 -106 -136 -106zM1030 1395l-196 -1395h-58l-422 1348q-9 -122 -45 -373l-135 -975h-45l197 1395h57l422 -1344 q15 166 45 369l135 975h45z" />
<glyph unicode="&#xd2;" horiz-adv-x="1169" d="M647 1757l268 -164l-18 -28l-281 147zM725 1415q169 0 262.5 -124t93.5 -359q0 -84 -9.5 -172t-31.5 -182t-54 -180t-80.5 -162.5t-107.5 -133t-138.5 -89.5t-170.5 -33q-168 0 -261 126.5t-93 360.5q0 118 20 243t66 252.5t112 227t168 162.5t224 63zM725 1374 q-96 0 -178.5 -43t-140 -116t-102 -165t-70.5 -195.5t-39 -200.5t-13 -187q0 -216 80.5 -329t226.5 -113q101 0 185.5 43.5t142 117.5t101 166t68.5 196.5t36.5 200t11.5 185.5q0 216 -80 328t-229 112z" />
<glyph unicode="&#xd3;" horiz-adv-x="1169" d="M907 1759l21 -47l-324 -147l-16 30zM725 1415q169 0 262.5 -124t93.5 -359q0 -84 -9.5 -172t-31.5 -182t-54 -180t-80.5 -162.5t-107.5 -133t-138.5 -89.5t-170.5 -33q-168 0 -261 126.5t-93 360.5q0 118 20 243t66 252.5t112 227t168 162.5t224 63zM725 1374 q-96 0 -178.5 -43t-140 -116t-102 -165t-70.5 -195.5t-39 -200.5t-13 -187q0 -216 80.5 -329t226.5 -113q101 0 185.5 43.5t142 117.5t101 166t68.5 196.5t36.5 200t11.5 185.5q0 216 -80 328t-229 112z" />
<glyph unicode="&#xd4;" horiz-adv-x="1169" d="M547 1569l-21 26l230 185h24l176 -185l-24 -26l-166 162zM725 1415q169 0 262.5 -124t93.5 -359q0 -84 -9.5 -172t-31.5 -182t-54 -180t-80.5 -162.5t-107.5 -133t-138.5 -89.5t-170.5 -33q-168 0 -261 126.5t-93 360.5q0 118 20 243t66 252.5t112 227t168 162.5t224 63z M725 1374q-96 0 -178.5 -43t-140 -116t-102 -165t-70.5 -195.5t-39 -200.5t-13 -187q0 -216 80.5 -329t226.5 -113q101 0 185.5 43.5t142 117.5t101 166t68.5 196.5t36.5 200t11.5 185.5q0 216 -80 328t-229 112z" />
<glyph unicode="&#xd5;" horiz-adv-x="1169" d="M862 1647q-35 0 -69 22t-64.5 44t-56.5 22q-30 0 -51.5 -15.5t-57.5 -56.5l-26 18q73 95 135 95q38 0 96.5 -44t91.5 -44q28 0 53 19t58 65l26 -19q-64 -106 -135 -106zM725 1415q169 0 262.5 -124t93.5 -359q0 -84 -9.5 -172t-31.5 -182t-54 -180t-80.5 -162.5 t-107.5 -133t-138.5 -89.5t-170.5 -33q-168 0 -261 126.5t-93 360.5q0 118 20 243t66 252.5t112 227t168 162.5t224 63zM725 1374q-96 0 -178.5 -43t-140 -116t-102 -165t-70.5 -195.5t-39 -200.5t-13 -187q0 -216 80.5 -329t226.5 -113q101 0 185.5 43.5t142 117.5t101 166 t68.5 196.5t36.5 200t11.5 185.5q0 216 -80 328t-229 112z" />
<glyph unicode="&#xd6;" horiz-adv-x="1169" d="M616 1636q-14 0 -23 10.5t-9 24.5q0 19 10.5 31t30.5 12q15 0 24.5 -10t9.5 -25q0 -18 -11.5 -30.5t-31.5 -12.5zM901 1636q-15 0 -25 10.5t-10 24.5q0 19 11.5 31t31.5 12q15 0 24 -10t9 -25q0 -18 -11 -30.5t-30 -12.5zM725 1415q169 0 262.5 -124t93.5 -359 q0 -84 -9.5 -172t-31.5 -182t-54 -180t-80.5 -162.5t-107.5 -133t-138.5 -89.5t-170.5 -33q-168 0 -261 126.5t-93 360.5q0 118 20 243t66 252.5t112 227t168 162.5t224 63zM725 1374q-96 0 -178.5 -43t-140 -116t-102 -165t-70.5 -195.5t-39 -200.5t-13 -187 q0 -216 80.5 -329t226.5 -113q101 0 185.5 43.5t142 117.5t101 166t68.5 196.5t36.5 200t11.5 185.5q0 216 -80 328t-229 112z" />
<glyph unicode="&#xd7;" horiz-adv-x="839" d="M690 932l29 -31l-256 -272l184 -275l-37 -26l-180 270l-252 -270l-26 30l254 271l-185 276l39 27l176 -273z" />
<glyph unicode="&#xd8;" horiz-adv-x="1169" d="M893 1376q188 -106 188 -444q0 -84 -9.5 -172t-31.5 -182t-54 -180t-80.5 -162.5t-107.5 -133t-138.5 -89.5t-170.5 -33q-69 0 -122 20l-86 -227l-39 14l90 229q-96 50 -146.5 165t-50.5 286q0 118 20 243t66 252.5t112 227t168 162.5t224 63q69 0 133 -22l90 241l41 -12 zM182 467q0 -325 170 -412l492 1297q-55 22 -119 22q-96 0 -178.5 -43t-140 -116t-102 -165t-70.5 -195.5t-39 -200.5t-13 -187zM489 25q101 0 185.5 43.5t142 117.5t101 166t68.5 196.5t36.5 200t11.5 185.5q0 312 -162 405l-489 -1298q53 -16 106 -16z" />
<glyph unicode="&#xd9;" horiz-adv-x="1071" d="M580 1757l268 -164l-19 -28l-280 147zM1010 1395l-148 -1049q-10 -75 -39.5 -140t-78 -116t-121.5 -80.5t-162 -29.5q-72 0 -129 19.5t-92.5 54t-58 81t-26 100.5t2.5 113l147 1047h45l-145 -1045q-20 -144 42 -234.5t216 -90.5q155 0 244 93.5t110 233.5l146 1043h47z " />
<glyph unicode="&#xda;" horiz-adv-x="1071" d="M840 1759l20 -47l-323 -147l-17 30zM1010 1395l-148 -1049q-10 -75 -39.5 -140t-78 -116t-121.5 -80.5t-162 -29.5q-72 0 -129 19.5t-92.5 54t-58 81t-26 100.5t2.5 113l147 1047h45l-145 -1045q-20 -144 42 -234.5t216 -90.5q155 0 244 93.5t110 233.5l146 1043h47z" />
<glyph unicode="&#xdb;" horiz-adv-x="1071" d="M479 1569l-20 26l229 185h25l176 -185l-25 -26l-166 162zM1010 1395l-148 -1049q-10 -75 -39.5 -140t-78 -116t-121.5 -80.5t-162 -29.5q-72 0 -129 19.5t-92.5 54t-58 81t-26 100.5t2.5 113l147 1047h45l-145 -1045q-20 -144 42 -234.5t216 -90.5q155 0 244 93.5 t110 233.5l146 1043h47z" />
<glyph unicode="&#xdc;" horiz-adv-x="1071" d="M549 1636q-14 0 -23.5 10.5t-9.5 24.5q0 19 10.5 31t30.5 12q15 0 25 -10t10 -25q0 -18 -11.5 -30.5t-31.5 -12.5zM834 1636q-15 0 -25 10.5t-10 24.5q0 19 11.5 31t31.5 12q15 0 23.5 -10t8.5 -25q0 -18 -10.5 -30.5t-29.5 -12.5zM1010 1395l-148 -1049 q-10 -75 -39.5 -140t-78 -116t-121.5 -80.5t-162 -29.5q-72 0 -129 19.5t-92.5 54t-58 81t-26 100.5t2.5 113l147 1047h45l-145 -1045q-20 -144 42 -234.5t216 -90.5q155 0 244 93.5t110 233.5l146 1043h47z" />
<glyph unicode="&#xdd;" horiz-adv-x="835" d="M717 1759l20 -47l-323 -147l-17 30zM922 1395l-478 -842l-77 -553h-48l78 553l-243 842h47l225 -795l444 795h52z" />
<glyph unicode="&#xde;" horiz-adv-x="929" d="M518 1135q363 0 363 -326q0 -76 -14 -144.5t-49.5 -136.5t-90 -117t-142 -79.5t-198.5 -30.5h-168l-43 -301h-47l197 1395h45l-37 -260h184zM393 344q85 0 154.5 19t116.5 54t81 78.5t53 97.5t27.5 106.5t8.5 109.5q0 149 -79.5 216t-238.5 67h-188l-105 -748h170z" />
<glyph unicode="&#xdf;" horiz-adv-x="968" d="M-84 -399l-12 32q69 40 107 77.5t66 105t44 178.5l158 1116q27 191 122 295t230 104q98 0 156.5 -60t58.5 -153q0 -76 -27 -136t-65 -96.5t-76 -68.5t-65 -70.5t-27 -84.5q0 -35 19 -69t47 -60.5t61 -63.5t61 -75.5t47 -99t19 -132.5q0 -44 -10 -91.5t-33.5 -96 t-57.5 -86.5t-86 -62t-114 -24q-52 0 -100 16.5t-77 38.5l19 35q70 -47 158 -47q54 0 98.5 21.5t73 55t48 76.5t28 83.5t8.5 78.5q0 68 -19 125.5t-47 94t-61 72.5t-61 64t-47 65.5t-19 78.5q0 39 14.5 72t37.5 57.5t50.5 48t55 50t50.5 57t37.5 75t14.5 98.5 q0 77 -46.5 124.5t-125.5 47.5q-117 0 -199.5 -94t-107.5 -274l-156 -1106q-12 -91 -31 -152.5t-52 -105.5t-69.5 -72.5t-97.5 -62.5z" />
<glyph unicode="&#xe0;" d="M539 1556l268 -188l-21 -29l-278 172zM584 1083q127 0 233 -69l-110 -785q-15 -93 -8.5 -141t49.5 -74l-17 -34q-51 26 -67 73t-5 137q-126 -210 -297 -210q-124 0 -192 97t-68 267q0 101 16.5 201.5t54.5 198.5t92.5 172.5t137 120.5t181.5 46zM582 1044 q-89 0 -163 -43.5t-123 -114.5t-82.5 -163.5t-48.5 -187.5t-15 -189q0 -153 55.5 -238t159.5 -85q168 0 301 239l104 733q-83 49 -188 49z" />
<glyph unicode="&#xe1;" d="M788 1556l23 -45l-328 -172l-16 31zM584 1083q127 0 233 -69l-110 -785q-15 -93 -8.5 -141t49.5 -74l-17 -34q-51 26 -67 73t-5 137q-126 -210 -297 -210q-124 0 -192 97t-68 267q0 101 16.5 201.5t54.5 198.5t92.5 172.5t137 120.5t181.5 46zM582 1044q-89 0 -163 -43.5 t-123 -114.5t-82.5 -163.5t-48.5 -187.5t-15 -189q0 -153 55.5 -238t159.5 -85q168 0 301 239l104 733q-83 49 -188 49z" />
<glyph unicode="&#xe2;" d="M432 1339l-22 27l229 195h27l174 -195l-27 -27l-162 172zM584 1083q127 0 233 -69l-110 -785q-15 -93 -8.5 -141t49.5 -74l-17 -34q-51 26 -67 73t-5 137q-126 -210 -297 -210q-124 0 -192 97t-68 267q0 101 16.5 201.5t54.5 198.5t92.5 172.5t137 120.5t181.5 46z M582 1044q-89 0 -163 -43.5t-123 -114.5t-82.5 -163.5t-48.5 -187.5t-15 -189q0 -153 55.5 -238t159.5 -85q168 0 301 239l104 733q-83 49 -188 49z" />
<glyph unicode="&#xe3;" d="M735 1389q-35 0 -69 22t-64.5 44t-56.5 22q-30 0 -51.5 -15.5t-57.5 -56.5l-26 18q73 95 135 95q38 0 96.5 -44t91.5 -44q29 0 53.5 19t57.5 64l26 -18q-64 -106 -135 -106zM584 1083q127 0 233 -69l-110 -785q-15 -93 -8.5 -141t49.5 -74l-17 -34q-51 26 -67 73t-5 137 q-126 -210 -297 -210q-124 0 -192 97t-68 267q0 101 16.5 201.5t54.5 198.5t92.5 172.5t137 120.5t181.5 46zM582 1044q-89 0 -163 -43.5t-123 -114.5t-82.5 -163.5t-48.5 -187.5t-15 -189q0 -153 55.5 -238t159.5 -85q168 0 301 239l104 733q-83 49 -188 49z" />
<glyph unicode="&#xe4;" d="M489 1378q-14 0 -23 10.5t-9 24.5q0 19 10.5 31t30.5 12q15 0 24.5 -10t9.5 -25q0 -18 -11.5 -30.5t-31.5 -12.5zM774 1378q-15 0 -25 10.5t-10 24.5q0 19 11.5 31t31.5 12q15 0 24 -10t9 -25q0 -18 -11 -30.5t-30 -12.5zM584 1083q127 0 233 -69l-110 -785 q-15 -93 -8.5 -141t49.5 -74l-17 -34q-51 26 -67 73t-5 137q-126 -210 -297 -210q-124 0 -192 97t-68 267q0 101 16.5 201.5t54.5 198.5t92.5 172.5t137 120.5t181.5 46zM582 1044q-89 0 -163 -43.5t-123 -114.5t-82.5 -163.5t-48.5 -187.5t-15 -189q0 -153 55.5 -238 t159.5 -85q168 0 301 239l104 733q-83 49 -188 49z" />
<glyph unicode="&#xe5;" d="M662 1640q57 0 88.5 -37t31.5 -96q0 -85 -45 -136.5t-112 -51.5q-56 0 -88.5 37t-32.5 98q0 83 46 134.5t112 51.5zM662 1604q-55 0 -86 -41.5t-31 -108.5q0 -46 22 -72t60 -26q53 0 84.5 42t31.5 109q0 45 -21.5 71t-59.5 26zM584 1083q127 0 233 -69l-110 -785 q-15 -93 -8.5 -141t49.5 -74l-17 -34q-51 26 -67 73t-5 137q-126 -210 -297 -210q-124 0 -192 97t-68 267q0 101 16.5 201.5t54.5 198.5t92.5 172.5t137 120.5t181.5 46zM582 1044q-89 0 -163 -43.5t-123 -114.5t-82.5 -163.5t-48.5 -187.5t-15 -189q0 -153 55.5 -238 t159.5 -85q168 0 301 239l104 733q-83 49 -188 49z" />
<glyph unicode="&#xe6;" horiz-adv-x="1386" d="M489 1083q106 0 168.5 -62.5t81.5 -178.5q130 241 357 241q112 0 174.5 -61t62.5 -166q0 -129 -84.5 -219.5t-228.5 -137.5t-346 -61q-6 -86 1.5 -157t31.5 -131t73.5 -93.5t120.5 -33.5q75 0 136.5 27.5t129.5 84.5l23 -31q-72 -63 -140.5 -93.5t-148.5 -30.5 q-206 0 -258 225q-93 -120 -177 -172.5t-175 -52.5q-111 0 -172.5 71.5t-61.5 190.5q0 73 22 137.5t67.5 117.5t124 84t182.5 31h200q17 81 54 166q-22 264 -222 264q-107 0 -249 -65l-11 37q144 69 264 69zM1094 1042q-74 0 -138 -32.5t-110 -86t-81.5 -127t-56 -152.5 t-30.5 -165q610 43 610 377q0 88 -49.5 137t-144.5 49zM645 571h-188q-95 0 -166 -27t-110.5 -74.5t-58 -104t-18.5 -123.5q0 -100 50 -159.5t137 -59.5q91 0 171 53.5t171 175.5q-20 137 12 319z" />
<glyph unicode="&#xe7;" horiz-adv-x="782" d="M565 1083q133 0 219 -102l-30 -29q-77 90 -191 90q-102 0 -183.5 -62.5t-129.5 -163.5t-73 -218t-25 -238q0 -166 62 -251.5t173 -85.5q112 0 227 96l23 -31q-120 -105 -244 -108l-24 -132q137 -12 137 -129q0 -68 -45.5 -110.5t-116.5 -42.5t-117 37l19 32 q46 -28 98 -28q53 0 85 29t32 81q0 51 -30.5 73.5t-106.5 23.5l32 168q-118 11 -184 108.5t-66 269.5q0 101 17 201t54 195t89.5 167t129.5 116t169 44z" />
<glyph unicode="&#xe8;" horiz-adv-x="866" d="M776 1368l-20 -29l-279 172l31 45zM815 856q0 -97 -47.5 -172.5t-136 -125t-207 -79.5t-268.5 -41q-4 -58 -4 -84q0 -164 61 -247.5t168 -83.5q75 0 136.5 27.5t129.5 84.5l25 -31q-74 -63 -142.5 -93.5t-148.5 -30.5q-131 0 -204 96t-73 276q0 102 17.5 203.5t55 197 t91.5 168.5t133.5 117.5t173.5 44.5q112 0 176 -61t64 -166zM573 1042q-92 0 -167.5 -48.5t-125 -130.5t-80 -179t-42.5 -205q612 40 612 377q0 88 -51 137t-146 49z" />
<glyph unicode="&#xe9;" horiz-adv-x="866" d="M780 1511l-327 -172l-17 31l322 186zM815 856q0 -97 -47.5 -172.5t-136 -125t-207 -79.5t-268.5 -41q-4 -58 -4 -84q0 -164 61 -247.5t168 -83.5q75 0 136.5 27.5t129.5 84.5l25 -31q-74 -63 -142.5 -93.5t-148.5 -30.5q-131 0 -204 96t-73 276q0 102 17.5 203.5t55 197 t91.5 168.5t133.5 117.5t173.5 44.5q112 0 176 -61t64 -166zM573 1042q-92 0 -167.5 -48.5t-125 -130.5t-80 -179t-42.5 -205q612 40 612 377q0 88 -51 137t-146 49z" />
<glyph unicode="&#xea;" horiz-adv-x="866" d="M621 1511l-220 -172l-22 27l229 195h27l174 -195l-27 -27zM815 856q0 -97 -47.5 -172.5t-136 -125t-207 -79.5t-268.5 -41q-4 -58 -4 -84q0 -164 61 -247.5t168 -83.5q75 0 136.5 27.5t129.5 84.5l25 -31q-74 -63 -142.5 -93.5t-148.5 -30.5q-131 0 -204 96t-73 276 q0 102 17.5 203.5t55 197t91.5 168.5t133.5 117.5t173.5 44.5q112 0 176 -61t64 -166zM573 1042q-92 0 -167.5 -48.5t-125 -130.5t-80 -179t-42.5 -205q612 40 612 377q0 88 -51 137t-146 49z" />
<glyph unicode="&#xeb;" horiz-adv-x="866" d="M459 1378q-14 0 -23.5 10.5t-9.5 24.5q0 19 10.5 31t30.5 12q15 0 25 -10t10 -25q0 -18 -11.5 -30.5t-31.5 -12.5zM743 1378q-15 0 -24.5 10.5t-9.5 24.5q0 19 11.5 31t31.5 12q15 0 23.5 -10t8.5 -25q0 -18 -11 -30.5t-30 -12.5zM815 856q0 -97 -47.5 -172.5t-136 -125 t-207 -79.5t-268.5 -41q-4 -58 -4 -84q0 -164 61 -247.5t168 -83.5q75 0 136.5 27.5t129.5 84.5l25 -31q-74 -63 -142.5 -93.5t-148.5 -30.5q-131 0 -204 96t-73 276q0 102 17.5 203.5t55 197t91.5 168.5t133.5 117.5t173.5 44.5q112 0 176 -61t64 -166zM573 1042 q-92 0 -167.5 -48.5t-125 -130.5t-80 -179t-42.5 -205q612 40 612 377q0 88 -51 137t-146 49z" />
<glyph unicode="&#xec;" horiz-adv-x="436" d="M246 1556l268 -188l-20 -29l-279 172zM315 1063l-149 -1063h-45l149 1063h45z" />
<glyph unicode="&#xed;" horiz-adv-x="436" d="M496 1556l22 -45l-328 -172l-16 31zM315 1063l-149 -1063h-45l149 1063h45z" />
<glyph unicode="&#xee;" horiz-adv-x="436" d="M139 1339l-22 27l229 195h27l174 -195l-27 -27l-162 172zM315 1063l-149 -1063h-45l149 1063h45z" />
<glyph unicode="&#xef;" horiz-adv-x="436" d="M197 1378q-14 0 -23.5 10.5t-9.5 24.5q0 19 10.5 31t30.5 12q15 0 25 -10t10 -25q0 -18 -11.5 -30.5t-31.5 -12.5zM481 1378q-15 0 -25 10.5t-10 24.5q0 19 11.5 31t31.5 12q15 0 24 -10t9 -25q0 -18 -11 -30.5t-30 -12.5zM315 1063l-149 -1063h-45l149 1063h45z" />
<glyph unicode="&#xf0;" horiz-adv-x="946" d="M664 1364q163 -174 163 -487q0 -121 -16.5 -243.5t-53 -241t-89.5 -209.5t-132 -147t-174 -56q-129 0 -197.5 92t-68.5 252q0 66 11 136t32.5 140t56.5 131.5t79 109.5t104.5 75.5t128.5 27.5q174 0 270 -196q11 203 -20 341t-125 246l-168 -174l-33 13l176 186 q-94 84 -202 115l14 36q120 -37 217 -122l139 139l25 -25zM362 23q74 0 137.5 40t107.5 103.5t78 151.5t54 175.5t33 184.5q-96 225 -264 225q-91 0 -164 -55.5t-115 -143.5t-64 -186t-22 -194q0 -143 56 -222t163 -79z" />
<glyph unicode="&#xf1;" horiz-adv-x="976" d="M717 1389q-35 0 -69.5 22t-65 44t-56.5 22q-30 0 -51 -15t-57 -57l-27 18q73 95 135 95q38 0 97 -44t92 -44q29 0 53 18.5t57 64.5l27 -18q-64 -106 -135 -106zM631 1083q113 0 162.5 -83.5t29.5 -229.5l-108 -770h-45l108 766q19 137 -19.5 207.5t-129.5 70.5 q-189 0 -371 -378l-92 -666h-45l149 1063h39l-39 -307q81 162 167 244.5t194 82.5z" />
<glyph unicode="&#xf2;" horiz-adv-x="948" d="M516 1556l268 -188l-20 -29l-279 172zM385 -20q-135 0 -208 99.5t-73 276.5q0 76 11 156.5t33.5 163t60.5 155t87 129.5t118 90t149 33q134 0 206.5 -99t72.5 -275q0 -76 -11 -156t-33 -163t-59.5 -155.5t-86 -130t-117.5 -91t-150 -33.5zM385 23q74 0 137 32.5 t106.5 87.5t77 124.5t53 147.5t29 151.5t9.5 142.5q0 163 -60 248t-174 85q-73 0 -136 -32t-106.5 -87.5t-77 -124.5t-53 -147t-29 -152t-9.5 -143q0 -163 59.5 -248t173.5 -85z" />
<glyph unicode="&#xf3;" horiz-adv-x="948" d="M766 1556l22 -45l-327 -172l-17 31zM385 -20q-135 0 -208 99.5t-73 276.5q0 76 11 156.5t33.5 163t60.5 155t87 129.5t118 90t149 33q134 0 206.5 -99t72.5 -275q0 -76 -11 -156t-33 -163t-59.5 -155.5t-86 -130t-117.5 -91t-150 -33.5zM385 23q74 0 137 32.5t106.5 87.5 t77 124.5t53 147.5t29 151.5t9.5 142.5q0 163 -60 248t-174 85q-73 0 -136 -32t-106.5 -87.5t-77 -124.5t-53 -147t-29 -152t-9.5 -143q0 -163 59.5 -248t173.5 -85z" />
<glyph unicode="&#xf4;" horiz-adv-x="948" d="M410 1339l-23 27l229 195h27l174 -195l-26 -27l-162 172zM385 -20q-135 0 -208 99.5t-73 276.5q0 76 11 156.5t33.5 163t60.5 155t87 129.5t118 90t149 33q134 0 206.5 -99t72.5 -275q0 -76 -11 -156t-33 -163t-59.5 -155.5t-86 -130t-117.5 -91t-150 -33.5zM385 23 q74 0 137 32.5t106.5 87.5t77 124.5t53 147.5t29 151.5t9.5 142.5q0 163 -60 248t-174 85q-73 0 -136 -32t-106.5 -87.5t-77 -124.5t-53 -147t-29 -152t-9.5 -143q0 -163 59.5 -248t173.5 -85z" />
<glyph unicode="&#xf5;" horiz-adv-x="948" d="M713 1389q-35 0 -69.5 22t-65 44t-56.5 22q-30 0 -51 -15t-57 -57l-27 18q73 95 135 95q38 0 97 -44t92 -44q29 0 53 18.5t57 64.5l27 -18q-64 -106 -135 -106zM385 -20q-135 0 -208 99.5t-73 276.5q0 76 11 156.5t33.5 163t60.5 155t87 129.5t118 90t149 33 q134 0 206.5 -99t72.5 -275q0 -76 -11 -156t-33 -163t-59.5 -155.5t-86 -130t-117.5 -91t-150 -33.5zM385 23q74 0 137 32.5t106.5 87.5t77 124.5t53 147.5t29 151.5t9.5 142.5q0 163 -60 248t-174 85q-73 0 -136 -32t-106.5 -87.5t-77 -124.5t-53 -147t-29 -152t-9.5 -143 q0 -163 59.5 -248t173.5 -85z" />
<glyph unicode="&#xf6;" horiz-adv-x="948" d="M467 1378q-14 0 -23.5 10.5t-9.5 24.5q0 19 10.5 31t30.5 12q15 0 25 -10t10 -25q0 -18 -11.5 -30.5t-31.5 -12.5zM752 1378q-15 0 -25 10.5t-10 24.5q0 19 11.5 31t31.5 12q15 0 24 -10t9 -25q0 -18 -11 -30.5t-30 -12.5zM385 -20q-135 0 -208 99.5t-73 276.5 q0 76 11 156.5t33.5 163t60.5 155t87 129.5t118 90t149 33q134 0 206.5 -99t72.5 -275q0 -76 -11 -156t-33 -163t-59.5 -155.5t-86 -130t-117.5 -91t-150 -33.5zM385 23q74 0 137 32.5t106.5 87.5t77 124.5t53 147.5t29 151.5t9.5 142.5q0 163 -60 248t-174 85 q-73 0 -136 -32t-106.5 -87.5t-77 -124.5t-53 -147t-29 -152t-9.5 -143q0 -163 59.5 -248t173.5 -85z" />
<glyph unicode="&#xf7;" horiz-adv-x="839" d="M498 1055q-21 0 -33 11.5t-12 29.5q0 22 14 36.5t37 14.5q20 0 31.5 -11.5t11.5 -29.5q0 -22 -13.5 -36.5t-35.5 -14.5zM158 655l6 43h559l-6 -43h-559zM379 207q-21 0 -33 11.5t-12 29.5q0 22 14 36.5t37 14.5q20 0 31.5 -11.5t11.5 -29.5q0 -22 -13.5 -36.5 t-35.5 -14.5z" />
<glyph unicode="&#xf8;" horiz-adv-x="948" d="M709 1042q133 -88 133 -333q0 -76 -11 -156t-33 -163t-59.5 -155.5t-86 -130t-117.5 -91t-150 -33.5q-62 0 -109 20l-104 -242l-35 11l103 249q-136 88 -136 338q0 76 11 156.5t33.5 163t60.5 155t87 129.5t118 90t149 33q65 0 109 -20l104 246l35 -13zM152 356 q0 -226 110 -299l395 967q-41 18 -94 18q-73 0 -136 -32t-106.5 -87.5t-77 -124.5t-53 -147t-29 -152t-9.5 -143zM385 23q74 0 137 32.5t106.5 87.5t77 124.5t53 147.5t29 151.5t9.5 142.5q0 222 -107 297l-397 -965q41 -18 92 -18z" />
<glyph unicode="&#xf9;" horiz-adv-x="968" d="M508 1556l268 -188l-20 -29l-279 172zM348 -20q-110 0 -163 82.5t-33 224.5l110 776h45l-108 -776q-19 -129 20.5 -196.5t128.5 -67.5q211 0 363 376l92 664h45l-152 -1063h-34l40 309q-142 -329 -354 -329z" />
<glyph unicode="&#xfa;" horiz-adv-x="968" d="M758 1556l22 -45l-327 -172l-17 31zM348 -20q-110 0 -163 82.5t-33 224.5l110 776h45l-108 -776q-19 -129 20.5 -196.5t128.5 -67.5q211 0 363 376l92 664h45l-152 -1063h-34l40 309q-142 -329 -354 -329z" />
<glyph unicode="&#xfb;" horiz-adv-x="968" d="M401 1339l-22 27l229 195h27l174 -195l-27 -27l-161 172zM348 -20q-110 0 -163 82.5t-33 224.5l110 776h45l-108 -776q-19 -129 20.5 -196.5t128.5 -67.5q211 0 363 376l92 664h45l-152 -1063h-34l40 309q-142 -329 -354 -329z" />
<glyph unicode="&#xfc;" horiz-adv-x="968" d="M459 1378q-14 0 -23.5 10.5t-9.5 24.5q0 19 10.5 31t30.5 12q15 0 25 -10t10 -25q0 -18 -11.5 -30.5t-31.5 -12.5zM743 1378q-15 0 -24.5 10.5t-9.5 24.5q0 19 11.5 31t31.5 12q15 0 23.5 -10t8.5 -25q0 -18 -11 -30.5t-30 -12.5zM348 -20q-110 0 -163 82.5t-33 224.5 l110 776h45l-108 -776q-19 -129 20.5 -196.5t128.5 -67.5q211 0 363 376l92 664h45l-152 -1063h-34l40 309q-142 -329 -354 -329z" />
<glyph unicode="&#xfd;" horiz-adv-x="768" d="M653 1556l23 -45l-328 -172l-16 31zM799 1063l-453 -1067q-58 -136 -103.5 -206.5t-104.5 -112.5t-161 -76l-4 34q91 31 146.5 73t95 106.5t88.5 185.5h-20l-162 1063h47l151 -1030l431 1030h49z" />
<glyph unicode="&#xfe;" horiz-adv-x="952" d="M606 1083q121 0 183.5 -88t62.5 -252q0 -82 -11 -166.5t-33 -171.5t-59.5 -162.5t-86.5 -135t-119 -93.5t-152 -34q-112 0 -219 55l-61 -430l-48 -6l269 1902l45 6l-84 -612q77 91 150.5 139.5t162.5 48.5zM391 23q75 0 138.5 33t108 89.5t78 128t53 154t29 161 t9.5 154.5q2 146 -50 222.5t-153 76.5q-155 0 -319 -206l-107 -758q101 -55 213 -55z" />
<glyph unicode="&#xff;" horiz-adv-x="768" d="M354 1378q-14 0 -23 10.5t-9 24.5q0 43 40 43q15 0 25 -10t10 -25q0 -18 -11.5 -30.5t-31.5 -12.5zM639 1378q-15 0 -25 10.5t-10 24.5q0 19 11.5 31t31.5 12q15 0 24 -10t9 -25q0 -18 -11 -30.5t-30 -12.5zM799 1063l-453 -1067q-58 -136 -103.5 -206.5t-104.5 -112.5 t-161 -76l-4 34q91 31 146.5 73t95 106.5t88.5 185.5h-20l-162 1063h47l151 -1030l431 1030h49z" />
<glyph unicode="&#x152;" horiz-adv-x="1421" d="M1458 1395l-12 -43h-559q71 -54 110 -161t39 -259q0 -72 -10 -174h270l-6 -43h-268q-15 -105 -41.5 -202.5t-67.5 -189t-100.5 -165t-132.5 -115.5h602l-8 -43h-680q-53 -20 -121 -20q-157 0 -247.5 127.5t-90.5 359.5q0 117 19.5 242.5t64 253t108 227t159.5 162.5 t210 63q65 0 115 -20h647zM987 934q0 215 -77 327.5t-214 112.5q-106 0 -195 -61.5t-146.5 -158.5t-97.5 -219.5t-57.5 -240.5t-17.5 -227q0 -215 77.5 -328.5t213.5 -113.5q94 0 173 43.5t133.5 117.5t96 166t65 196.5t35 200.5t11.5 185z" />
<glyph unicode="&#x153;" horiz-adv-x="1529" d="M1477 856q0 -97 -47.5 -172.5t-136.5 -125.5t-208 -79.5t-270 -40.5q-2 -29 -2 -84q0 -164 61 -247.5t168 -83.5q75 0 137 27.5t130 84.5l24 -31q-74 -63 -142 -93.5t-149 -30.5q-123 0 -194.5 87t-77.5 257q-121 -344 -385 -344q-135 0 -208 99.5t-73 276.5 q0 76 11 156.5t33.5 163t60.5 155t87 129.5t118 90t149 33q128 0 198.5 -89.5t78.5 -254.5q59 157 158 250.5t241 93.5q112 0 175 -61t63 -166zM385 23q74 0 137 32.5t106.5 87.5t77 124.5t53 147.5t29 151.5t9.5 142.5q0 163 -60 248t-174 85q-73 0 -136 -32t-106.5 -87.5 t-77 -124.5t-53 -147t-29 -152t-9.5 -143q0 -163 59.5 -248t173.5 -85zM1235 1042q-74 0 -138 -32t-110 -85.5t-81.5 -126.5t-56 -152.5t-30.5 -166.5q613 40 613 377q0 88 -50 137t-147 49z" />
<glyph unicode="&#x178;" horiz-adv-x="835" d="M426 1636q-14 0 -23.5 10.5t-9.5 24.5q0 19 10.5 31t30.5 12q15 0 25 -10t10 -25q0 -18 -11.5 -30.5t-31.5 -12.5zM711 1636q-15 0 -25 10.5t-10 24.5q0 19 11.5 31t31.5 12q15 0 24 -10t9 -25q0 -18 -11 -30.5t-30 -12.5zM922 1395l-478 -842l-77 -553h-48l78 553 l-243 842h47l225 -795l444 795h52z" />
<glyph unicode="&#x2c6;" horiz-adv-x="552" d="M201 1339l-23 27l230 195h26l174 -195l-26 -27l-162 172z" />
<glyph unicode="&#x2dc;" horiz-adv-x="573" d="M512 1389q-35 0 -69 22t-64.5 44t-56.5 22q-30 0 -51.5 -15.5t-57.5 -56.5l-27 18q73 95 136 95q38 0 96.5 -44t91.5 -44q29 0 53.5 19t57.5 64l26 -18q-64 -106 -135 -106z" />
<glyph unicode="&#x2000;" horiz-adv-x="949" />
<glyph unicode="&#x2001;" horiz-adv-x="1898" />
<glyph unicode="&#x2002;" horiz-adv-x="949" />
<glyph unicode="&#x2003;" horiz-adv-x="1898" />
<glyph unicode="&#x2004;" horiz-adv-x="632" />
<glyph unicode="&#x2005;" horiz-adv-x="474" />
<glyph unicode="&#x2006;" horiz-adv-x="316" />
<glyph unicode="&#x2007;" horiz-adv-x="316" />
<glyph unicode="&#x2008;" horiz-adv-x="237" />
<glyph unicode="&#x2009;" horiz-adv-x="379" />
<glyph unicode="&#x200a;" horiz-adv-x="105" />
<glyph unicode="&#x2010;" horiz-adv-x="671" d="M141 618l6 44h412l-4 -44h-414z" />
<glyph unicode="&#x2011;" horiz-adv-x="671" d="M141 618l6 44h412l-4 -44h-414z" />
<glyph unicode="&#x2012;" horiz-adv-x="671" d="M141 618l6 44h412l-4 -44h-414z" />
<glyph unicode="&#x2013;" horiz-adv-x="874" d="M92 618l6 44h713l-6 -44h-713z" />
<glyph unicode="&#x2014;" horiz-adv-x="1306" d="M94 621l6 41h1143l-6 -41h-1143z" />
<glyph unicode="&#x2018;" horiz-adv-x="387" d="M287 1194q-20 0 -30.5 12t-10.5 29q0 24 24 68l113 225h31l-109 -250q27 -9 27 -35q0 -20 -12.5 -34.5t-32.5 -14.5z" />
<glyph unicode="&#x2019;" horiz-adv-x="387" d="M328 1485q20 0 30.5 -12t10.5 -29q0 -22 -25 -68l-113 -225h-30l108 250q-26 9 -26 35q0 20 12.5 34.5t32.5 14.5z" />
<glyph unicode="&#x201a;" horiz-adv-x="387" d="M129 78q20 0 30.5 -12t10.5 -29q0 -22 -25 -68l-112 -225h-31l109 250q-27 9 -27 35q0 20 12.5 34.5t32.5 14.5z" />
<glyph unicode="&#x201c;" horiz-adv-x="616" d="M287 1194q-20 0 -30.5 12t-10.5 29q0 24 24 68l113 225h31l-109 -250q27 -9 27 -35q0 -20 -12.5 -34.5t-32.5 -14.5zM516 1194q-20 0 -30.5 12t-10.5 29q0 22 25 68l112 225h31l-108 -250q26 -9 26 -35q0 -20 -12.5 -34.5t-32.5 -14.5z" />
<glyph unicode="&#x201d;" horiz-adv-x="616" d="M328 1485q20 0 30.5 -12t10.5 -29q0 -22 -25 -68l-113 -225h-30l108 250q-26 9 -26 35q0 20 12.5 34.5t32.5 14.5zM557 1485q20 0 30.5 -12t10.5 -29q0 -22 -25 -68l-112 -225h-31l109 250q-27 9 -27 35q0 20 12.5 34.5t32.5 14.5z" />
<glyph unicode="&#x201e;" horiz-adv-x="616" d="M129 78q20 0 30.5 -12t10.5 -29q0 -22 -25 -68l-112 -225h-31l109 250q-27 9 -27 35q0 20 12.5 34.5t32.5 14.5zM358 78q20 0 30.5 -12t10.5 -29q0 -24 -24 -68l-113 -225h-31l109 250q-27 9 -27 35q0 20 12.5 34.5t32.5 14.5z" />
<glyph unicode="&#x2022;" horiz-adv-x="436" d="M250 784q28 0 44.5 -16.5t16.5 -42.5q0 -30 -21 -52t-52 -22q-26 0 -43 17t-17 43q0 30 21 51.5t51 21.5z" />
<glyph unicode="&#x2026;" horiz-adv-x="929" d="M82 -16q-21 0 -33 11.5t-12 29.5q0 22 14 36.5t37 14.5q20 0 31.5 -11.5t11.5 -29.5q0 -22 -13.5 -36.5t-35.5 -14.5zM391 -16q-21 0 -33 11.5t-12 29.5q0 22 14 36.5t37 14.5q20 0 31.5 -11.5t11.5 -29.5q0 -22 -13.5 -36.5t-35.5 -14.5zM700 -16q-21 0 -33 11.5 t-12 29.5q0 22 14.5 36.5t37.5 14.5q20 0 31.5 -11.5t11.5 -29.5q0 -22 -14 -36.5t-36 -14.5z" />
<glyph unicode="&#x202f;" horiz-adv-x="379" />
<glyph unicode="&#x2039;" horiz-adv-x="604" d="M483 1030l29 -18l-297 -424l180 -418l-33 -18l-196 423l4 29z" />
<glyph unicode="&#x203a;" horiz-adv-x="602" d="M258 1030l197 -424l-4 -31l-316 -423l-29 18l297 424l-178 418z" />
<glyph unicode="&#x205f;" horiz-adv-x="474" />
<glyph unicode="&#x20ac;" horiz-adv-x="976" d="M764 1335q-142 0 -256.5 -121t-181.5 -362h475l-17 -41h-469l-45 -244h432l-14 -43h-424q-20 -253 50.5 -376t215.5 -123q70 0 125 22t119 66l-4 -50q-122 -83 -244 -83q-164 0 -245.5 137.5t-63.5 406.5h-127l16 43h117l43 244h-127l17 41h120q77 262 203.5 394 t288.5 132q75 0 133.5 -27t114.5 -83l-27 -35q-57 56 -106.5 79t-118.5 23z" />
<glyph unicode="&#x2122;" horiz-adv-x="1460" d="M700 1395l-12 -39h-217l-102 -738h-41l102 738h-223l6 39h487zM1348 1395l-70 -777h-41l43 472q7 96 27 249l-301 -628h-39l-127 639q-12 -91 -43 -273l-86 -459h-41l145 777h53l123 -645l303 645h54z" />
<glyph unicode="&#x25fc;" horiz-adv-x="1064" d="M0 1065h1065v-1065h-1065v1065z" />
<glyph unicode="&#xfb03;" horiz-adv-x="1429" d="M1309 1063l-150 -1063h-45l143 1022h-438l-143 -1028q-22 -154 -66 -230t-131 -129l-16 29q72 48 109.5 118.5t58.5 211.5l143 1028h-448l-142 -1028q-17 -119 -49.5 -192.5t-76 -114t-124.5 -86.5l-14 32q71 40 109 77.5t66.5 105t43.5 178.5l144 1028h-152l6 41h152 l24 180q17 120 91.5 183t197.5 63q121 0 258 -82q67 102 211 102q113 0 215 -82l-24 -30q-90 71 -195 71q-186 0 -215 -211l-27 -194h484zM780 1063l29 201q9 64 37 116l-6 -6q-126 74 -238 74q-217 0 -246 -211l-24 -174h448z" />
<glyph unicode="&#xfb04;" horiz-adv-x="1474" d="M1249 23q30 0 70 14l12 -37q-54 -20 -88 -20q-58 0 -87 39t-17 114l180 1278q-126 57 -248 57q-190 0 -219 -211l-27 -194h242l-12 -41h-236l-145 -1028q-14 -105 -40 -173.5t-61.5 -109t-93.5 -76.5l-16 29q72 48 109 118.5t57 211.5l143 1028h-446l-142 -1028 q-17 -119 -49.5 -192.5t-76 -114t-124.5 -86.5l-14 32q71 40 109 77.5t66.5 105t43.5 178.5l144 1028h-152l6 41h152l24 180q17 120 91.5 183t197.5 63q121 0 258 -82q70 102 215 102q129 0 252 -63l41 6l-184 -1321q-15 -108 65 -108zM778 1063l29 201q7 51 33 112v-2 q-126 74 -238 74q-217 0 -246 -211l-24 -174h446z" />
</font>
</defs>
</svg>
