<?xml version="1.0" standalone="no"?>
<!DOCTYPE svg PUBLIC "-//W3C//DTD SVG 1.1//EN" "http://www.w3.org/Graphics/SVG/1.1/DTD/svg11.dtd" >
<svg xmlns="http://www.w3.org/2000/svg" xmlns:xlink="http://www.w3.org/1999/xlink" version="1.1">
<metadata></metadata>
<defs>
<font id="fira_sans_compressedLtIt" horiz-adv-x="966" >
<font-face units-per-em="2048" ascent="1638" descent="-410" />
<missing-glyph horiz-adv-x="454" />
<glyph unicode="&#xfb01;" horiz-adv-x="968" d="M872 1071l-151 -1071h-115l137 977h-374l-131 -961q-12 -81 -31 -142t-42.5 -102.5t-62 -76.5t-76 -58t-96.5 -53l-30 86q71 37 109.5 71t69 103.5t46.5 182.5l131 950h-150l15 94h147l25 180q19 128 98 199.5t207 71.5q124 0 240 -86l-52 -76q-92 65 -184 65 q-88 0 -135.5 -44.5t-60.5 -139.5l-23 -170h489z" />
<glyph unicode="&#xfb02;" horiz-adv-x="1007" d="M803 78q29 0 63 12l21 -84q-56 -29 -111 -29q-73 0 -111.5 51t-25.5 144l168 1208q-113 45 -211 45q-84 0 -130.5 -44.5t-59.5 -139.5l-23 -170h223l-28 -94h-209l-131 -961q-12 -81 -31 -142t-42.5 -102.5t-62 -76.5t-76 -58t-96.5 -53l-30 86q71 37 109.5 71t69 103.5 t46.5 182.5l131 950h-152l15 94h149l25 180q19 127 98 199t205 72q129 0 233 -52l107 11l-184 -1315q-14 -88 51 -88z" />
<glyph horiz-adv-x="0" />
<glyph horiz-adv-x="682" />
<glyph unicode="&#xd;" horiz-adv-x="454" />
<glyph unicode=" "  horiz-adv-x="454" />
<glyph unicode="&#x09;" horiz-adv-x="454" />
<glyph unicode="&#xa0;" horiz-adv-x="454" />
<glyph unicode="!" horiz-adv-x="446" d="M152 446l122 957h121l-143 -957h-100zM150 -23q-39 0 -61.5 24t-22.5 60q0 43 27.5 74t70.5 31q40 0 63 -24.5t23 -59.5q0 -43 -28 -74t-72 -31z" />
<glyph unicode="&#x22;" horiz-adv-x="692" d="M193 889l55 514h117l-91 -514h-81zM516 889l55 514h117l-90 -514h-82z" />
<glyph unicode="#" horiz-adv-x="851" d="M881 926h-129l-117 -463h121l-15 -92h-129l-92 -371h-102l92 371h-285l-92 -371h-102l92 371h-121l14 92h129l115 463h-117l13 94h129l84 342h102l-84 -342h285l84 342h104l-86 -342h121zM532 463l115 463h-285l-114 -463h284z" />
<glyph unicode="$" horiz-adv-x="886" d="M631 1378q141 -19 252 -149l-72 -66q-55 63 -113 92t-129 29q-118 0 -193 -76t-75 -200q0 -86 44 -137t159 -103q139 -61 204.5 -138t65.5 -206q0 -103 -40.5 -195.5t-127.5 -161.5t-207 -85l-43 -289h-94l41 284q-183 11 -315 173l73 63q115 -135 273 -135 q104 0 178.5 50t108.5 126t34 166q0 95 -47.5 152t-167.5 112q-138 64 -197 134.5t-59 185.5q0 145 99.5 254.5t255.5 121.5l41 295h94z" />
<glyph unicode="%" horiz-adv-x="1372" d="M1178 1440l-1000 -1434l74 -53l997 1433zM391 719q-98 0 -156.5 70t-58.5 190q0 69 19 138t55 130t96.5 99t134.5 38q100 0 157.5 -68.5t57.5 -187.5q0 -54 -11 -110t-35.5 -110t-59.5 -96t-86.5 -67.5t-112.5 -25.5zM395 805q56 0 98 34t64 87t32.5 105t10.5 99 q0 78 -29.5 124t-93.5 46q-56 0 -98 -33.5t-63.5 -86t-31.5 -104.5t-10 -101q0 -77 29 -123.5t92 -46.5zM932 -23q-100 0 -158.5 70.5t-58.5 190.5q0 69 19 138t55 130t96.5 99t134.5 38q101 0 159 -68.5t58 -187.5q0 -69 -19 -139t-54.5 -131.5t-96 -100.5t-135.5 -39z M934 63q56 0 98 34t64 87t32.5 105t10.5 100q0 77 -29 123.5t-92 46.5q-46 0 -82.5 -23t-58.5 -58t-36.5 -80t-20 -86t-5.5 -79q0 -170 119 -170z" />
<glyph unicode="&#x26;" horiz-adv-x="1239" d="M659 1425q119 0 192 -73.5t73 -184.5q0 -131 -74 -222t-258 -204l266 -393q92 165 168 359l96 -39q-103 -234 -202 -392l157 -231l-94 -65l-139 210q-88 -106 -181.5 -159.5t-207.5 -53.5q-145 0 -230.5 91t-85.5 231q0 134 67.5 244t237.5 223q-112 166 -112 301 q0 150 86 254t241 104zM657 1333q-106 0 -158.5 -76.5t-52.5 -187.5q0 -122 93 -256q157 97 214.5 173t57.5 181q0 76 -42.5 121t-111.5 45zM498 694q-136 -89 -188 -183t-52 -210q0 -100 53 -163.5t150 -63.5q183 0 325 190z" />
<glyph unicode="'" horiz-adv-x="368" d="M193 889l55 514h117l-91 -514h-81z" />
<glyph unicode="(" horiz-adv-x="542" d="M549 1716l67 -51q-214 -306 -313.5 -593.5t-99.5 -627.5q0 -202 36.5 -353.5t110.5 -326.5l-78 -40q-46 103 -71.5 166.5t-55 157t-42.5 190t-13 206.5q0 196 28 361t90 318.5t141 288.5t200 304z" />
<glyph unicode=")" horiz-adv-x="542" d="M322 1710q47 -108 70.5 -167.5t54.5 -155.5t44 -191.5t13 -204.5q0 -195 -28.5 -360.5t-90.5 -320t-141.5 -290t-200.5 -303.5l-68 50q216 310 316 596.5t100 627.5q0 200 -36.5 351t-110.5 329z" />
<glyph unicode="*" horiz-adv-x="772" d="M795 1188l-271 -80l135 -262l-96 -53l-102 270l-178 -270l-86 55l206 262l-241 84l39 94l235 -108l29 327h113l-64 -329l260 112z" />
<glyph unicode="+" horiz-adv-x="854" d="M553 1040l-43 -313h248l-15 -100h-249l-45 -312h-107l45 312h-250l13 100h253l46 313h104z" />
<glyph unicode="," horiz-adv-x="376" d="M131 166q37 0 59.5 -23t22.5 -61q0 -39 -45 -125l-133 -264h-78l113 301q-37 24 -37 69q0 44 27.5 73.5t70.5 29.5z" />
<glyph unicode="-" horiz-adv-x="679" d="M121 592l14 98h451l-13 -98h-452z" />
<glyph unicode="." horiz-adv-x="380" d="M117 -23q-39 0 -61.5 24t-22.5 60q0 43 27.5 74t70.5 31q40 0 63 -24.5t23 -59.5q0 -43 -28 -74t-72 -31z" />
<glyph unicode="/" horiz-adv-x="892" d="M748 1645l94 -25l-645 -1823l-93 27z" />
<glyph unicode="0" horiz-adv-x="983" d="M623 1384q-87 0 -162 -45.5t-128 -124t-94 -177.5t-65.5 -212t-36.5 -221t-12 -211q0 -205 69.5 -310.5t206.5 -105.5q87 0 162 45.5t128 124t94 178t65.5 212t36.5 221t12 211.5q0 415 -276 415zM618 1288q84 0 125 -74t41 -231q0 -147 -24.5 -302.5t-69.5 -293 t-119.5 -225.5t-164.5 -88q-84 0 -125 74t-41 231q0 147 24.5 302.5t69.5 293t119.5 225.5t164.5 88z" />
<glyph unicode="1" horiz-adv-x="716" d="M610 1362l-190 -1362h-115l170 1223l-293 -201l-47 86l377 254h98z" />
<glyph unicode="2" horiz-adv-x="811" d="M465 1384q137 0 214 -84.5t77 -222.5q0 -120 -48.5 -230t-179 -277.5t-405.5 -469.5l526 2l-33 -102h-636l16 100q180 202 289.5 332.5t184.5 228.5t109 168t46 122t12 120q0 105 -47 161t-131 56q-74 0 -136 -39t-128 -116l-70 63q81 98 163.5 143t176.5 45z" />
<glyph unicode="3" horiz-adv-x="839" d="M502 1384q130 0 202 -78t72 -208q0 -149 -79 -248t-220 -127q103 -12 160 -78t57 -188q0 -68 -15.5 -134.5t-50 -129t-84 -110.5t-123 -77t-161.5 -29q-193 0 -301 181l80 53q45 -73 99 -105t126 -32q79 0 141 33t98.5 89.5t55.5 124t19 142.5q0 110 -51.5 159.5 t-149.5 49.5h-78l33 94h49q86 0 151.5 48t97.5 122t32 160q0 93 -45 144.5t-125 51.5q-68 0 -130 -32t-133 -99l-55 70q159 153 328 153z" />
<glyph unicode="4" horiz-adv-x="876" d="M809 455l-16 -97h-146l-51 -358h-113l52 358h-488l14 88l463 938l94 -41l-434 -888h365l67 401h101l-58 -401h150z" />
<glyph unicode="5" horiz-adv-x="829" d="M836 1362l-31 -96h-449l-63 -467q97 63 192 63q121 0 189.5 -87.5t68.5 -239.5q0 -74 -15.5 -149.5t-50.5 -149.5t-85.5 -131t-128 -92.5t-170.5 -35.5q-192 0 -297 166l78 62q44 -67 96.5 -98t128.5 -31q84 0 150 43t103 112t56 145.5t19 153.5q0 118 -46 178t-130 60 q-52 0 -96 -15.5t-99 -50.5h-88l92 660h576z" />
<glyph unicode="6" horiz-adv-x="923" d="M680 1290q-136 0 -247 -168.5t-167 -437.5q136 203 312 203q114 0 182.5 -80t68.5 -232q0 -80 -15.5 -161.5t-49 -160.5t-81.5 -140t-119 -98.5t-154 -37.5q-77 0 -133.5 29t-90.5 83t-50.5 124.5t-16.5 159.5q0 171 39.5 348t109.5 325.5t179.5 243t236.5 94.5 q118 0 205 -81l-60 -74q-67 61 -149 61zM553 791q-81 0 -159.5 -64.5t-147.5 -177.5q-10 -88 -10 -178q0 -149 42 -223t134 -74q63 0 115.5 33.5t86 86.5t56.5 120.5t33 132.5t10 126q0 110 -42.5 164t-117.5 54z" />
<glyph unicode="7" horiz-adv-x="739" d="M801 1362l-15 -90l-612 -1288l-98 34l590 1244l-512 2l14 98h633z" />
<glyph unicode="8" horiz-adv-x="927" d="M621 717q97 -54 144.5 -124t47.5 -169q0 -200 -120.5 -323.5t-303.5 -123.5q-152 0 -237.5 88.5t-85.5 231.5q0 299 315 436q-145 92 -145 264t108.5 279.5t255.5 107.5q128 0 208.5 -75t80.5 -205q0 -134 -62 -222t-206 -165zM598 1292q-112 0 -181 -83.5t-69 -209.5 q0 -81 33.5 -132t114.5 -89l51 -24q127 71 178 152t51 194q0 92 -46.5 142t-131.5 50zM393 74q131 0 217 93.5t86 256.5q0 87 -41.5 142.5t-140.5 103.5l-53 24q-70 -31 -121.5 -70t-81.5 -77t-47.5 -84t-23 -84.5t-5.5 -83.5q0 -104 55.5 -162.5t155.5 -58.5z" />
<glyph unicode="9" horiz-adv-x="890" d="M547 1384q144 0 216.5 -97t72.5 -271q0 -87 -7 -165t-27 -171t-53.5 -173.5t-90.5 -164.5t-133.5 -152.5t-187 -129t-245.5 -101.5l-20 86q125 44 219.5 97.5t175.5 129.5t137.5 181t89.5 241q-145 -184 -305 -184q-116 0 -186 89.5t-70 242.5q0 76 16 152t50.5 146.5 t82.5 124.5t116.5 86.5t148.5 32.5zM412 606q146 0 299 207q10 130 10 203q0 136 -42.5 205t-135.5 69q-62 0 -113 -29.5t-84 -76t-56 -107t-32.5 -120t-9.5 -117.5q0 -114 42 -174t122 -60z" />
<glyph unicode=":" horiz-adv-x="380" d="M229 776q-39 0 -61.5 24t-22.5 60q0 43 28 74t71 31q40 0 63 -24.5t23 -59.5q0 -43 -28.5 -74t-72.5 -31zM117 -23q-39 0 -61.5 24t-22.5 60q0 43 27.5 74t70.5 31q40 0 63 -24.5t23 -59.5q0 -43 -28 -74t-72 -31z" />
<glyph unicode=";" horiz-adv-x="385" d="M233 776q-39 0 -61 24t-22 60q0 43 27.5 74t70.5 31q40 0 63 -24.5t23 -59.5q0 -43 -28.5 -74t-72.5 -31zM131 166q37 0 59.5 -23t22.5 -61q0 -39 -45 -125l-133 -264h-78l113 301q-37 24 -37 69q0 44 27.5 73.5t70.5 29.5z" />
<glyph unicode="&#x3c;" horiz-adv-x="856" d="M776 1079l35 -90l-584 -319l494 -301l-59 -90l-541 344l16 108z" />
<glyph unicode="=" horiz-adv-x="851" d="M162 803l12 102h606l-14 -102h-604zM113 446l12 103h606l-14 -103h-604z" />
<glyph unicode="&#x3e;" horiz-adv-x="856" d="M236 1079l540 -342l-16 -110l-639 -348l-35 92l584 317l-494 301z" />
<glyph unicode="?" horiz-adv-x="778" d="M518 1425q129 0 199.5 -73t70.5 -187q0 -72 -22.5 -130.5t-58.5 -98t-79.5 -74t-86.5 -66.5t-79 -66t-58.5 -81.5t-22.5 -105.5q0 -45 6 -80l-102 -21q-15 62 -15 107q0 66 22 120t57.5 91t78 70t85 65.5t78 68t57.5 87t22 114.5q0 79 -41 120.5t-117 41.5 q-71 0 -134.5 -36.5t-133.5 -112.5l-68 61q157 186 342 186zM307 -25q-39 0 -61.5 24t-22.5 60q0 43 28 74t71 31q40 0 63 -24.5t23 -59.5q0 -43 -28.5 -74t-72.5 -31z" />
<glyph unicode="@" horiz-adv-x="1751" d="M1032 1425q142 0 255 -49.5t185.5 -136.5t111 -204.5t38.5 -256.5q0 -123 -25.5 -251t-74.5 -242.5t-131 -187t-183 -72.5q-89 0 -134.5 60.5t-47.5 158.5q-108 -215 -274 -215q-103 0 -165.5 82t-62.5 231q0 85 15 171.5t49.5 173.5t85 153.5t128 108.5t171.5 42 q115 0 219 -63l-74 -563q-7 -51 -8 -89.5t6 -77.5t30 -60t62 -21q72 0 132 64.5t96 165.5t55.5 213.5t19.5 217.5q0 253 -126 401t-359 148q-118 0 -221.5 -35.5t-181.5 -96t-142.5 -143t-107.5 -174.5t-72.5 -192.5t-43 -195t-13.5 -183.5q0 -287 138.5 -456.5 t379.5 -169.5q175 0 332 67l16 -94q-93 -37 -174.5 -55.5t-181.5 -18.5q-281 0 -451 199t-170 528q0 99 15.5 203.5t50 214.5t85 211t124.5 190.5t163.5 155.5t208 104.5t252.5 38.5zM770 121q76 0 140.5 70t101.5 159l73 527q-63 24 -116 24q-73 0 -132.5 -38t-96.5 -97.5 t-62 -136.5t-35 -149.5t-10 -141.5q0 -108 35.5 -162.5t101.5 -54.5z" />
<glyph unicode="A" horiz-adv-x="974" d="M739 0l-43 385h-463l-151 -385h-123l573 1403h152l180 -1403h-125zM272 485h414l-92 820z" />
<glyph unicode="B" horiz-adv-x="1030" d="M686 741q234 -47 234 -276q0 -67 -14.5 -130t-51 -125t-91.5 -108t-142.5 -74t-196.5 -28h-322l199 1403h322q170 0 264 -77.5t94 -221.5q0 -145 -79 -239t-216 -124zM623 1305h-217l-74 -519h217q152 0 231.5 87.5t79.5 226.5q0 107 -60.5 156t-176.5 49zM440 100 q83 0 147.5 22.5t103.5 58t63.5 84.5t33.5 97t9 101q0 119 -61.5 172t-184.5 53h-232l-83 -588h204z" />
<glyph unicode="C" horiz-adv-x="940" d="M727 1425q93 0 160 -33t125 -98l-72 -69q-52 53 -100.5 75.5t-114.5 22.5q-102 0 -186 -54.5t-138.5 -141t-92.5 -200t-54 -226.5t-16 -224q0 -196 70 -294.5t190 -98.5q80 0 140.5 29t129.5 84l53 -80q-154 -140 -334 -140q-169 0 -269.5 131.5t-100.5 372.5 q0 106 15.5 213.5t46 214t81 199t116 164t156 112.5t195.5 41z" />
<glyph unicode="D" horiz-adv-x="1097" d="M573 1403q97 0 175 -23t143 -75t101 -146.5t36 -226.5q0 -145 -22 -276.5t-72.5 -253t-125.5 -209.5t-189.5 -140.5t-256.5 -52.5h-260l199 1403h272zM578 1303h-172l-170 -1203h149q96 0 175.5 34.5t135.5 96t98 140.5t66 174.5t35.5 191t11.5 195.5q0 87 -17.5 153 t-46.5 107t-72 66.5t-89.5 35t-103.5 9.5z" />
<glyph unicode="E" horiz-adv-x="856" d="M895 1403l-29 -100h-460l-74 -527h401l-16 -98h-400l-81 -578h489l-16 -100h-607l199 1403h594z" />
<glyph unicode="F" horiz-adv-x="800" d="M885 1403l-31 -100h-448l-78 -551h391l-14 -99h-390l-94 -653h-119l199 1403h584z" />
<glyph unicode="G" horiz-adv-x="1050" d="M737 1425q184 0 310 -141l-78 -67q-53 57 -107 81.5t-129 24.5q-122 0 -219 -74.5t-156 -198t-89.5 -274t-30.5 -313.5q0 -383 272 -383q123 0 252 74l69 501h-213v101h347l-93 -662q-186 -117 -372 -117q-185 0 -285 126t-100 370q0 144 24.5 280.5t75.5 258.5 t123.5 214t175.5 145.5t223 53.5z" />
<glyph unicode="H" horiz-adv-x="1122" d="M221 0h-119l199 1403h119l-86 -615h526l86 615h119l-197 -1403h-118l96 686h-527z" />
<glyph unicode="I" horiz-adv-x="477" d="M420 1403l-199 -1403h-119l199 1403h119z" />
<glyph unicode="J" horiz-adv-x="503" d="M457 1403l-174 -1223q-13 -94 -37 -160t-66.5 -114t-93 -80.5t-131.5 -69.5l-31 84q127 67 174.5 136.5t67.5 216.5l172 1210h119z" />
<glyph unicode="K" horiz-adv-x="946" d="M102 0l199 1403h119l-199 -1403h-119zM725 0l-391 752l563 651h129l-563 -655l393 -748h-131z" />
<glyph unicode="L" horiz-adv-x="786" d="M420 1403l-182 -1294h477l-33 -109h-580l199 1403h119z" />
<glyph unicode="M" horiz-adv-x="1312" d="M1206 1403l-88 -1403h-114l43 668q14 242 47 620l-428 -1122h-121l-129 1120q-20 -137 -115 -612l-141 -674h-115l303 1403h156l121 -1098l413 1098h168z" />
<glyph unicode="N" horiz-adv-x="1126" d="M1069 1403l-199 -1403h-153l-342 1294q-9 -193 -53 -508l-107 -786h-113l199 1403h154l344 -1292q9 192 43 440l116 852h111z" />
<glyph unicode="O" horiz-adv-x="1171" d="M725 1425q179 0 279 -129t100 -370q0 -103 -14.5 -208t-43.5 -213t-79 -202t-115 -167.5t-157.5 -116t-200.5 -42.5q-178 0 -278.5 130t-100.5 370q0 100 15 204.5t44.5 212t80 202t115.5 169t156.5 117.5t198.5 43zM719 1325q-104 0 -188.5 -58.5t-137.5 -149.5 t-89.5 -207.5t-51 -225.5t-14.5 -211q0 -195 69 -294t193 -99q78 0 144.5 31t115 83.5t87 124t63.5 148.5t41 161.5t23 160t7 145.5q0 196 -67 293.5t-195 97.5z" />
<glyph unicode="P" horiz-adv-x="950" d="M580 1403q185 0 284 -87.5t99 -256.5q0 -76 -15.5 -145.5t-53.5 -137t-95 -117t-147 -80t-203 -30.5h-150l-78 -549h-119l199 1403h279zM459 647q89 0 158 25t110 65t67.5 96t36 110.5t9.5 115.5q0 129 -67.5 187.5t-205.5 58.5h-161l-93 -658h146z" />
<glyph unicode="Q" horiz-adv-x="1175" d="M686 43q201 -12 313 -145l-96 -88q-71 98 -161.5 132.5t-249.5 34.5q-177 2 -277 131.5t-100 368.5q0 100 15 204.5t44.5 212t80 202t115.5 169t156.5 117.5t198.5 43q179 0 279 -129t100 -370q0 -102 -13.5 -205.5t-45 -211t-78.5 -197t-119.5 -161.5t-161.5 -108z M238 473q0 -195 69 -294t193 -99q78 0 144.5 31t115 83.5t87 124t63.5 148.5t41 161.5t23 160t7 145.5q0 196 -67 293.5t-195 97.5q-104 0 -188.5 -58.5t-137.5 -149.5t-89.5 -207.5t-51 -225.5t-14.5 -211z" />
<glyph unicode="R" horiz-adv-x="995" d="M956 1090q0 -94 -30.5 -178t-102 -155t-176.5 -104l219 -653h-123l-208 631h-224l-90 -631h-119l199 1403h283q188 0 280 -81t92 -232zM324 729h172q76 0 136 21.5t97 56t61.5 82.5t34 96t9.5 100q0 114 -59 167t-191 53h-178z" />
<glyph unicode="S" horiz-adv-x="909" d="M590 1425q185 0 319 -157l-73 -68q-58 66 -116.5 95.5t-133.5 29.5q-119 0 -197 -83t-78 -204q0 -86 44.5 -136.5t166.5 -106.5q96 -44 154 -90t90.5 -112.5t32.5 -156.5q0 -87 -31 -168.5t-87.5 -146.5t-144 -104.5t-192.5 -39.5q-115 0 -200 46.5t-154 134.5l76 63 q60 -70 124 -105.5t156 -35.5q151 0 240.5 102.5t89.5 249.5q0 101 -47 159.5t-172 117.5q-147 70 -205.5 139t-58.5 184q0 73 28 143.5t78.5 126t126.5 89.5t164 34z" />
<glyph unicode="T" horiz-adv-x="837" d="M944 1403l-31 -107h-327l-183 -1296h-118l182 1296h-336l14 107h799z" />
<glyph unicode="U" horiz-adv-x="1085" d="M1047 1403l-146 -1043q-11 -78 -44.5 -146.5t-87 -121.5t-131.5 -84t-171 -31q-94 0 -165 32.5t-110 87.5t-53.5 124.5t-3.5 147.5l146 1034h118l-145 -1036q-18 -127 36.5 -206t184.5 -79q134 0 213.5 83.5t95.5 209.5l144 1028h119z" />
<glyph unicode="V" horiz-adv-x="942" d="M1030 1403l-563 -1403h-141l-168 1403h121l135 -1278l491 1278h125z" />
<glyph unicode="W" horiz-adv-x="1376" d="M1442 1403l-443 -1403h-149l-59 1270l-416 -1270h-150l-47 1403h111l30 -1288l422 1288h136l61 -1290l391 1290h113z" />
<glyph unicode="X" horiz-adv-x="868" d="M932 1403l-404 -647l250 -756h-125l-202 672l-383 -672h-129l450 754l-219 649h125l172 -572l336 572h129z" />
<glyph unicode="Y" horiz-adv-x="884" d="M989 1403l-485 -856l-78 -547h-119l78 547l-244 856h121l195 -748l401 748h131z" />
<glyph unicode="Z" horiz-adv-x="862" d="M-23 0l17 100l774 1198h-549l17 105h675l-16 -98l-774 -1201l602 2l-33 -106h-713z" />
<glyph unicode="[" horiz-adv-x="534" d="M584 1651l-15 -95h-186l-236 -1691h185l-13 -94h-294l266 1880h293z" />
<glyph unicode="\" horiz-adv-x="890" d="M453 1634l133 -1820l-99 -17l-131 1823z" />
<glyph unicode="]" horiz-adv-x="534" d="M559 1651l-266 -1880h-291l12 94h189l235 1691h-186l12 95h295z" />
<glyph unicode="^" horiz-adv-x="915" d="M672 1704l219 -625h-119l-164 510l-305 -510h-127l397 625h99z" />
<glyph unicode="_" horiz-adv-x="894" d="M-53 -248l16 103h778l-14 -103h-780z" />
<glyph unicode="`" horiz-adv-x="489" d="M260 1593l289 -209l-43 -61l-309 172z" />
<glyph unicode="a" d="M594 1094q136 0 272 -78l-112 -783q-14 -72 -7.5 -111.5t46.5 -62.5l-37 -82q-59 18 -88.5 60t-26.5 121q-125 -181 -281 -181q-127 0 -199.5 99t-72.5 272q0 102 17 203t56.5 200t96.5 174.5t144 122t192 46.5zM590 999q-66 0 -123.5 -28t-98.5 -77t-73 -112t-51.5 -137 t-29 -148.5t-9.5 -148.5q0 -135 44.5 -204.5t129.5 -69.5q138 0 268 213l96 678q-77 34 -153 34z" />
<glyph unicode="b" horiz-adv-x="978" d="M631 1094q124 0 192 -93t68 -264q0 -85 -11 -170t-34 -171.5t-63 -161t-92.5 -132.5t-128 -91.5t-165.5 -33.5q-137 0 -295 70l207 1460l115 15l-82 -588q143 160 289 160zM608 995q-137 0 -282 -180l-99 -702q96 -39 179 -39q79 0 143.5 43t105.5 111.5t68.5 158.5 t39 177.5t11.5 174.5q3 256 -166 256z" />
<glyph unicode="c" horiz-adv-x="790" d="M571 1094q141 0 240 -111l-66 -70q-42 42 -81.5 62t-94.5 20q-76 0 -138.5 -41t-102.5 -106t-68 -150t-39.5 -169t-11.5 -167q0 -143 50.5 -212.5t143.5 -69.5q58 0 106.5 21t106.5 63l50 -76q-130 -111 -271 -111q-142 0 -223.5 102.5t-81.5 287.5q0 98 16.5 196.5 t54.5 195t92.5 170.5t136.5 119.5t181 45.5z" />
<glyph unicode="d" horiz-adv-x="980" d="M834 1522l112 -15l-213 -1507h-98l18 207q-131 -230 -303 -230q-124 0 -193 99.5t-69 273.5q0 98 16.5 199t53 199.5t87.5 175t127 123.5t165 47q150 0 219 -138zM545 997q-83 0 -150.5 -62.5t-107.5 -160.5t-61 -208t-21 -216q0 -134 43.5 -205t122.5 -71q86 0 157 76 t146 221l63 469q-29 75 -74 116t-118 41z" />
<glyph unicode="e" horiz-adv-x="882" d="M840 846q0 -82 -31 -148.5t-85.5 -112.5t-135 -79.5t-172.5 -53t-205 -30.5q-2 -18 -2 -55q0 -289 197 -289q66 0 124.5 25t124.5 77l52 -76q-156 -127 -312 -127q-145 0 -225 102t-80 286q0 103 18 204.5t57 197t95 168t138 116t180 43.5q125 0 193.5 -69t68.5 -179z M569 997q-77 0 -140 -41t-104.5 -111.5t-68 -154t-37.5 -178.5q257 25 381.5 103.5t124.5 228.5q0 153 -156 153z" />
<glyph unicode="f" horiz-adv-x="536" d="M584 1425q-76 0 -119.5 -44t-56.5 -140l-25 -170h229l-28 -94h-213l-133 -961q-12 -81 -31 -142t-42.5 -102.5t-62 -76.5t-76 -58t-96.5 -53l-30 86q71 37 109.5 71t69 103.5t46.5 182.5l131 950h-150l15 94h149l25 180q17 127 92 199t191 72q105 0 206 -72l-47 -76 q-80 51 -153 51z" />
<glyph unicode="g" horiz-adv-x="960" d="M596 1094q137 0 270 -78l-143 -1022q-58 -416 -391 -416q-159 0 -289 98l49 80q111 -78 242 -78q234 0 276 318l25 176q-58 -81 -122 -126.5t-148 -45.5q-128 0 -201.5 96.5t-73.5 261.5q-1 81 11.5 164t37.5 166.5t67 156t96 128.5t130 88.5t164 32.5zM592 999 q-79 0 -145 -40t-110 -105t-74 -150t-43.5 -171.5t-12.5 -172.5q2 -129 46 -196.5t130 -67.5q138 0 268 213l94 656q-77 34 -153 34z" />
<glyph unicode="h" horiz-adv-x="976" d="M645 1094q113 0 169 -86.5t34 -233.5l-109 -774h-114l108 770q28 225 -112 225q-82 0 -164 -93.5t-156 -242.5l-92 -659h-115l213 1507l117 15l-96 -686q69 122 145 190t172 68z" />
<glyph unicode="i" horiz-adv-x="456" d="M346 1374q-35 0 -55.5 19.5t-20.5 52.5q0 40 26 66t64 26q34 0 54 -20t20 -52q0 -41 -25.5 -66.5t-62.5 -25.5zM360 1071l-151 -1071h-115l152 1071h114z" />
<glyph unicode="j" horiz-adv-x="458" d="M350 1374q-35 0 -55.5 19.5t-20.5 52.5q0 40 26.5 66t64.5 26q33 0 53 -20t20 -52q0 -41 -25.5 -66.5t-62.5 -25.5zM-92 -416l-31 86q53 27 85 51.5t61.5 64t47.5 97.5t31 144l148 1044h115l-150 -1055q-14 -102 -38 -170.5t-65.5 -117t-85 -77.5t-118.5 -67z" />
<glyph unicode="k" horiz-adv-x="899" d="M424 1522l-98 -707q141 279 329 279q97 0 153 -60.5t56 -154.5q0 -262 -307 -390l188 -489h-120l-195 520q163 52 240.5 138t77.5 212q0 61 -29 95t-86 34q-173 0 -336 -374l-88 -625h-115l213 1507z" />
<glyph unicode="l" horiz-adv-x="479" d="M412 1522l-189 -1356q-12 -88 51 -88q32 0 62 12l22 -84q-56 -29 -110 -29q-73 0 -111.5 51t-25.5 144l186 1335z" />
<glyph unicode="m" horiz-adv-x="1427" d="M1110 1094q104 0 156.5 -88.5t31.5 -237.5l-110 -768h-115l107 764q17 117 -8.5 174t-86.5 57q-73 0 -145 -90.5t-147 -247.5l-97 -657h-112l106 764q33 231 -94 231q-75 0 -147.5 -92.5t-147.5 -253.5l-92 -649h-115l152 1071h98l-27 -248q141 271 304 271 q89 0 140.5 -67t51.5 -187q135 254 297 254z" />
<glyph unicode="n" horiz-adv-x="976" d="M645 1094q113 0 169 -86.5t34 -233.5l-109 -774h-114l108 770q28 225 -110 225q-152 0 -322 -336l-92 -659h-115l152 1071h98l-27 -246q74 129 152.5 199t175.5 70z" />
<glyph unicode="o" d="M397 -23q-148 0 -227.5 104t-79.5 288q0 77 11.5 157t35 162.5t63 154.5t90.5 128.5t123 89.5t156 33q148 0 228 -103.5t80 -285.5q0 -93 -16 -189.5t-53 -194t-90.5 -173.5t-136.5 -123.5t-184 -47.5zM401 76q65 0 120.5 30.5t93.5 82.5t66.5 116t44.5 137.5t24 140.5 t8 130q0 140 -49.5 212t-143.5 72q-78 0 -141 -44t-102 -112t-65.5 -155.5t-37 -169t-10.5 -158.5q0 -282 192 -282z" />
<glyph unicode="p" horiz-adv-x="972" d="M37 -422l209 1493h100l-12 -141q131 164 291 164q124 0 193 -93t69 -264q0 -103 -15.5 -204.5t-52.5 -203.5t-91.5 -179t-139.5 -125t-189 -48q-99 0 -186 43l-61 -428zM401 74q66 0 122 30t95.5 82t69.5 117.5t47.5 141.5t26 149.5t8.5 144.5q0 256 -166 256 q-74 0 -146.5 -49t-133.5 -131l-99 -700q87 -41 176 -41z" />
<glyph unicode="q" horiz-adv-x="962" d="M555 -422l80 572q-121 -173 -273 -173q-128 0 -201 99t-73 272q0 102 17.5 203t57 200t97 174.5t145 122t193.5 46.5q134 0 270 -78l-198 -1424zM381 74q139 0 268 215l99 676q-77 34 -154 34q-80 0 -146 -40t-110.5 -105.5t-75 -151.5t-44 -175t-13.5 -179 q0 -134 45.5 -204t130.5 -70z" />
<glyph unicode="r" horiz-adv-x="630" d="M604 1094q32 0 82 -15l-35 -108q-40 12 -69 12q-92 0 -159 -93t-128 -278l-86 -612h-115l152 1071h100l-29 -240q56 130 123.5 196.5t163.5 66.5z" />
<glyph unicode="s" horiz-adv-x="786" d="M467 1094q160 0 278 -121l-61 -68q-52 46 -102.5 68t-114.5 22q-92 0 -149.5 -52.5t-57.5 -141.5q0 -66 40 -108t140 -83q119 -52 172.5 -119.5t53.5 -171.5q0 -156 -102 -249t-261 -93q-187 0 -313 144l69 67q51 -55 109.5 -83.5t138.5 -28.5q110 0 175 64.5t65 172.5 q0 74 -40.5 121t-146.5 94q-117 50 -167 111.5t-50 157.5q0 124 92.5 210.5t231.5 86.5z" />
<glyph unicode="t" horiz-adv-x="587" d="M354 977l-106 -748q-21 -153 96 -153q62 0 139 45l39 -78q-98 -66 -196 -66q-101 0 -154.5 69t-36.5 187l105 744h-148l14 94h150l55 260l95 10l-39 -270h223l-29 -94h-207z" />
<glyph unicode="u" horiz-adv-x="968" d="M332 -23q-111 0 -168 83t-37 223l111 788h114l-110 -795q-15 -101 13.5 -151.5t92.5 -50.5q168 0 316 321l96 676h112l-151 -1071h-94l26 248q-65 -128 -140.5 -199.5t-180.5 -71.5z" />
<glyph unicode="v" horiz-adv-x="811" d="M856 1071l-450 -1071h-142l-158 1071h123l119 -969l387 969h121z" />
<glyph unicode="w" horiz-adv-x="1202" d="M1225 1071l-361 -1071h-147l-53 963l-322 -963h-149l-66 1071h113l43 -981l331 981h134l53 -981l313 981h111z" />
<glyph unicode="x" horiz-adv-x="788" d="M805 1071l-336 -506l223 -565h-121l-182 498l-319 -498h-125l387 575l-197 496h121l154 -430l270 430h125z" />
<glyph unicode="y" horiz-adv-x="808" d="M854 1071l-446 -1079q-57 -140 -114.5 -219t-130 -122t-188.5 -69l-4 86q135 40 200 106t130 226h-47l-148 1071h121l117 -983l389 983h121z" />
<glyph unicode="z" horiz-adv-x="712" d="M731 1071l-12 -90l-604 -881h479l-27 -100h-600l15 90l604 881h-443l17 100h571z" />
<glyph unicode="{" horiz-adv-x="550" d="M608 1696l-10 -90q-79 0 -117.5 -40.5t-50.5 -133.5l-72 -519q-14 -98 -50 -138t-113 -62q35 -11 55.5 -24t36 -37t16.5 -59t-4 -89l-70 -514q-12 -88 15 -126t102 -38l-10 -90q-247 0 -211 258l72 526q12 82 -13 114t-96 32l14 98q68 0 104 33.5t46 113.5l76 535 q17 133 83.5 191.5t196.5 58.5z" />
<glyph unicode="|" horiz-adv-x="696" d="M557 1647l-258 -1852h-109l261 1852h106z" />
<glyph unicode="}" horiz-adv-x="550" d="M-6 -264l10 90q79 0 117.5 40.5t50.5 133.5l72 518q13 98 49.5 138.5t114.5 62.5q-70 22 -94.5 64.5t-10.5 144.5l70 514q12 88 -15.5 126t-103.5 38l10 90q249 0 213 -258l-71 -527q-12 -83 11.5 -114t96.5 -31l-14 -98q-68 0 -104 -34t-48 -114l-74 -534 q-19 -133 -85 -191.5t-195 -58.5z" />
<glyph unicode="~" horiz-adv-x="821" d="M547 543q-34 0 -70 18t-61.5 40t-57 40t-57.5 18q-28 0 -54 -15t-41 -31.5t-40 -47.5l-64 43q50 71 98 110.5t111 39.5q35 0 70.5 -18.5t60 -40t55.5 -40t58 -18.5q39 0 69 23t62 67l64 -43q-46 -69 -93.5 -107t-109.5 -38z" />
<glyph unicode="&#xa1;" horiz-adv-x="446" d="M262 780q-39 0 -61.5 24t-22.5 60q0 43 27.5 74t70.5 31q40 0 63 -24.5t23 -59.5q0 -43 -28 -74t-72 -31zM268 510l-116 -913h-123l141 913h98z" />
<glyph unicode="&#xa2;" horiz-adv-x="790" d="M569 995q-76 0 -138.5 -41t-102.5 -106t-68 -150t-39.5 -169t-11.5 -167q0 -143 50.5 -212.5t143.5 -69.5q58 0 106.5 21t106.5 63l50 -76q-108 -91 -224 -106l-41 -289h-96l41 289q-121 17 -188.5 117.5t-67.5 267.5q0 91 14.5 183t47 183t79.5 164t117.5 124.5 t155.5 65.5l43 306h94l-43 -299q124 -8 213 -111l-66 -70q-42 42 -81.5 62t-94.5 20z" />
<glyph unicode="&#xa3;" horiz-adv-x="864" d="M643 1384q87 0 149 -38.5t109 -116.5l-78 -53q-37 57 -78 83.5t-102 26.5q-93 0 -152 -71.5t-77 -194.5l-35 -256h352l-12 -84h-350l-45 -336q-13 -101 -46.5 -153.5t-107.5 -90.5h553l-33 -100h-672l15 98q88 41 124.5 93t51.5 159l45 330h-111l13 84h110l37 264 q23 160 111.5 258t228.5 98z" />
<glyph unicode="&#xa4;" horiz-adv-x="942" d="M899 272l-74 -59l-131 158q-82 -70 -202 -70q-114 0 -195 68l-129 -156l-72 61l140 164q-66 109 -66 260q0 153 63 254l-143 172l74 60l131 -160q82 70 197 70q116 0 200 -68l129 158l72 -62l-141 -166q67 -103 67 -258q0 -153 -63 -254zM494 393q221 0 221 305 q0 306 -221 306q-109 0 -165.5 -77t-56.5 -229q0 -305 222 -305z" />
<glyph unicode="&#xa5;" horiz-adv-x="864" d="M961 1362l-416 -670h192l-12 -88h-223l-29 -211h223l-12 -86h-225l-43 -307h-117l43 307h-225l12 86h227l29 211h-227l14 88h195l-232 670h123l201 -645l377 645h125z" />
<glyph unicode="&#xa6;" horiz-adv-x="696" d="M557 1647l-102 -740h-109l105 740h106zM401 537l-102 -742h-109l105 742h106z" />
<glyph unicode="&#xa7;" horiz-adv-x="946" d="M631 1290q-106 0 -159.5 -57.5t-53.5 -142.5q0 -68 37 -111t139 -90q112 -51 160.5 -114t48.5 -148q0 -92 -43.5 -159.5t-145.5 -135.5q68 -68 68 -178q0 -125 -88 -209t-244 -84q-153 0 -278 96l57 76q96 -78 229 -78q104 0 156.5 55t52.5 142q0 73 -36.5 116t-133.5 84 q-113 51 -165 112.5t-52 153.5q0 91 46 162t143 135q-64 70 -64 168q0 132 93 215.5t231 83.5q148 0 266 -102l-55 -72q-54 42 -102 62t-107 20zM539 807q-70 33 -111 59q-76 -58 -106.5 -114t-30.5 -127q0 -63 33.5 -106t121.5 -81q44 -18 111 -59q77 61 106 118t29 119 q0 59 -33 105t-120 86z" />
<glyph unicode="&#xa8;" horiz-adv-x="595" d="M254 1360q-30 0 -49 19t-19 48q0 38 25 63.5t59 25.5q30 0 49 -19t19 -49q0 -38 -24 -63t-60 -25zM580 1360q-30 0 -49 19t-19 48q0 38 24 63.5t58 25.5q30 0 49 -19t19 -49q0 -38 -24 -63t-58 -25z" />
<glyph unicode="&#xa9;" horiz-adv-x="1359" d="M731 1507q143 0 256.5 -72t180.5 -213t67 -331q0 -284 -142.5 -450.5t-361.5 -166.5q-221 0 -363.5 166t-142.5 451q0 142 38.5 259t106.5 194.5t160.5 120t200.5 42.5zM731 1427q-188 0 -306 -142t-118 -394q0 -254 117.5 -395.5t306.5 -141.5q186 0 303 142.5 t117 394.5q0 253 -116.5 394.5t-303.5 141.5zM733 1260q97 0 174 -70l-43 -62q-65 48 -129 48q-67 0 -112 -66.5t-45 -216.5q0 -283 161 -283q68 0 135 56l46 -64q-84 -80 -187 -80q-113 0 -183.5 94t-70.5 277q0 184 72.5 275.5t181.5 91.5z" />
<glyph unicode="&#xaa;" horiz-adv-x="860" d="M369 561q-93 0 -147 60.5t-54 156.5q0 128 85 208.5t249 80.5h123l8 68q11 92 -17 133t-102 41q-87 0 -190 -41l-27 82q127 53 233 53q119 0 173.5 -69t39.5 -199l-51 -371q-9 -44 -2.5 -75.5t37.5 -47.5l-31 -80q-49 13 -75.5 42t-30.5 83q-91 -125 -221 -125zM393 651 q112 0 193 142l26 192h-110q-62 0 -107 -18t-68.5 -48t-34.5 -64t-11 -73q0 -61 28 -96t84 -35zM53 0l13 102h606l-15 -102h-604z" />
<glyph unicode="&#xab;" horiz-adv-x="989" d="M473 1063l68 -49l-291 -428l172 -422l-76 -47l-219 432l12 80zM862 1063l68 -49l-291 -428l172 -422l-76 -47l-219 432l12 80z" />
<glyph unicode="&#xac;" horiz-adv-x="862" d="M762 707l-49 -359h-111l35 258h-504l12 101h617z" />
<glyph unicode="&#xad;" horiz-adv-x="679" d="M121 592l14 98h451l-13 -98h-452z" />
<glyph unicode="&#xae;" horiz-adv-x="1071" d="M604 1507q176 0 293 -132.5t117 -354.5q0 -220 -117.5 -357t-292.5 -137q-176 0 -292.5 133t-116.5 355q0 220 117 356.5t292 136.5zM604 600q146 0 241 113.5t95 306.5q0 195 -93.5 305.5t-242.5 110.5q-145 0 -240.5 -114.5t-95.5 -307.5q0 -194 95 -304t241 -110z M772 1139q0 -61 -28 -99.5t-76 -52.5l123 -242h-86l-111 230h-57v-230h-76v558h117q95 0 144.5 -43t49.5 -121zM537 1233v-191h63q96 0 96 97q0 94 -106 94h-53z" />
<glyph unicode="&#xaf;" horiz-adv-x="536" d="M594 1384h-412l13 95h411z" />
<glyph unicode="&#xb0;" horiz-adv-x="870" d="M420 811q-96 0 -156.5 66t-60.5 186q0 151 85 256.5t212 105.5q96 0 157.5 -65.5t61.5 -185.5q0 -152 -85.5 -257.5t-213.5 -105.5zM424 897q91 0 145 79t54 198q0 81 -33 123t-94 42q-90 0 -144.5 -78.5t-54.5 -197.5q0 -81 33 -123.5t94 -42.5z" />
<glyph unicode="&#xb1;" horiz-adv-x="854" d="M555 1061l-43 -313h248l-15 -101h-249l-45 -311h-107l45 311h-250l13 101h254l45 313h104zM51 0l12 102h607l-15 -102h-604z" />
<glyph unicode="&#xb2;" horiz-adv-x="679" d="M455 1520q90 0 141 -56t51 -145q0 -86 -53.5 -181t-109.5 -156.5t-188 -191.5q-9 -9 -13.5 -14t-12.5 -12.5t-14 -13.5h332l-25 -88h-428l12 86q21 22 67 69t65 66.5t57 59.5t54 59.5t44.5 54t41 55t30 50.5t25 53t13 49.5t5.5 52.5q0 56 -28 87.5t-75 31.5 q-86 0 -165 -93l-60 54q106 123 234 123z" />
<glyph unicode="&#xb3;" horiz-adv-x="679" d="M465 1524q90 0 139 -50.5t49 -134.5q0 -90 -49.5 -149t-136.5 -80q67 -6 105 -47t38 -117q0 -130 -80 -215.5t-204 -85.5q-137 0 -207 119l63 47q58 -82 144 -82q88 0 137 64.5t49 156.5q0 117 -125 117h-55l26 80h33q75 0 120.5 56.5t45.5 131.5q0 53 -26.5 81t-75.5 28 q-83 0 -172 -74l-43 57q108 97 225 97z" />
<glyph unicode="&#xb4;" horiz-adv-x="497" d="M522 1597l51 -102l-358 -172l-35 63z" />
<glyph unicode="&#xb5;" horiz-adv-x="985" d="M772 358q-28 -193 -6 -360l-104 -14q-20 104 -15 206q-62 -100 -130.5 -156.5t-154.5 -56.5q-115 0 -157 107q0 -93 -23 -250l-32 -237l-113 -13l209 1487h114l-108 -768q-16 -122 19.5 -175.5t105.5 -53.5q152 0 276 252l105 745h114z" />
<glyph unicode="&#xb6;" horiz-adv-x="1198" d="M688 1403h399l-253 -1806l-109 -19l240 1729h-207l-236 -1710l-110 -19l145 1024q-164 9 -242.5 96t-78.5 228q0 217 120.5 347t331.5 130z" />
<glyph unicode="&#xb7;" horiz-adv-x="380" d="M199 557q-39 0 -61.5 24t-22.5 60q0 43 27.5 73.5t70.5 30.5q40 0 63 -24t23 -59q0 -43 -28 -74t-72 -31z" />
<glyph unicode="&#xb8;" horiz-adv-x="448" d="M158 33l-27 -168q139 -15 139 -144q0 -80 -55 -132t-149 -52q-90 0 -138 45l41 66q52 -29 97 -29q48 0 77 25t29 73q0 47 -29.5 66.5t-107.5 19.5l49 230h74z" />
<glyph unicode="&#xb9;" horiz-adv-x="679" d="M565 1509l-119 -847h-94l103 737l-181 -117l-41 66l250 161h82z" />
<glyph unicode="&#xba;" horiz-adv-x="856" d="M547 1403q124 0 192 -83t68 -233q0 -68 -12 -138t-41 -140.5t-70.5 -125t-107 -88.5t-144.5 -34q-124 0 -191 83t-67 233q0 68 12 138t40.5 140.5t70.5 125t106.5 88.5t143.5 34zM545 1311q-72 0 -125.5 -43.5t-81 -113t-40.5 -141t-13 -143.5q0 -107 38.5 -162 t110.5 -55t125.5 44t81 115t40.5 142t13 142q0 105 -38.5 160t-110.5 55zM49 0l12 102h607l-15 -102h-604z" />
<glyph unicode="&#xbb;" horiz-adv-x="989" d="M268 1063l219 -434l-12 -78l-336 -434l-65 47l291 430l-172 422zM657 1063l220 -434l-13 -78l-336 -434l-65 47l291 430l-172 422z" />
<glyph unicode="&#xbc;" horiz-adv-x="1556" d="M1204 1530l70 -39l-909 -1634l-72 37zM338 555l102 737l-180 -116l-41 65l250 162h82l-119 -848h-94zM1436 297l-15 -84h-90l-31 -213h-92l31 213h-317l10 74l295 575l78 -33l-271 -532h219l43 235h80l-33 -235h93z" />
<glyph unicode="&#xbd;" horiz-adv-x="1556" d="M1204 1530l70 -39l-909 -1634l-72 37zM551 1403l-119 -848h-94l102 737l-180 -116l-41 65l250 162h82zM1239 858q90 0 141.5 -56t51.5 -145q0 -53 -18 -106.5t-47 -100.5t-76 -102t-94.5 -104t-113.5 -114q-10 -9 -15 -14l-13 -13l-15 -15h332l-24 -88h-428l12 86 q189 195 224 233q138 154 167 262q10 37 10 74q0 56 -27.5 87.5t-74.5 31.5q-87 0 -166 -92l-59 53q106 123 233 123z" />
<glyph unicode="&#xbe;" horiz-adv-x="1556" d="M1204 1530l70 -39l-909 -1634l-72 37zM596 840q0 -130 -80.5 -215.5t-204.5 -85.5q-137 0 -207 118l64 48q58 -82 143 -82q88 0 137.5 64.5t49.5 156.5q0 117 -125 117h-56l27 79h33q74 0 120 57t46 132q0 52 -26.5 80t-76.5 28q-84 0 -172 -73l-43 57q107 96 226 96 q90 0 139 -50t49 -134q0 -90 -49.5 -149t-136.5 -80q67 -6 105 -47t38 -117zM1436 297l-15 -84h-90l-31 -213h-92l31 213h-317l10 74l295 575l78 -33l-271 -532h219l43 235h80l-33 -235h93z" />
<glyph unicode="&#xbf;" horiz-adv-x="778" d="M463 1034q39 0 61.5 -24t22.5 -60q0 -43 -27.5 -73.5t-70.5 -30.5q-40 0 -63.5 24.5t-23.5 59.5q0 43 28.5 73.5t72.5 30.5zM250 -422q-128 0 -198 72.5t-70 185.5q0 71 22.5 129.5t58.5 98t79.5 74t86.5 66.5t79 66t58.5 82.5t22.5 106.5q0 11 -6 80l102 20 q15 -62 15 -106q0 -66 -22 -120t-57.5 -91t-78 -70t-85 -65t-78 -67.5t-57.5 -86.5t-22 -113q0 -166 158 -166q132 0 268 152l68 -64q-158 -184 -344 -184z" />
<glyph unicode="&#xc0;" horiz-adv-x="974" d="M827 1616l-41 -62l-309 154l62 96zM739 0l-43 385h-463l-151 -385h-123l573 1403h152l180 -1403h-125zM272 485h414l-92 820z" />
<glyph unicode="&#xc1;" horiz-adv-x="974" d="M840 1706l-359 -154l-32 66l339 188zM739 0l-43 385h-463l-151 -385h-123l573 1403h152l180 -1403h-125zM272 485h414l-92 820z" />
<glyph unicode="&#xc2;" horiz-adv-x="974" d="M647 1724l-227 -163l-49 57l250 211h71l189 -215l-54 -53zM532 1403h152l180 -1403h-125l-43 385h-463l-151 -385h-123zM272 485h414l-92 820z" />
<glyph unicode="&#xc3;" horiz-adv-x="974" d="M553 1716q-28 0 -49.5 -18.5t-54.5 -63.5l-60 41q78 133 166 133q37 0 72.5 -23t66 -46t56.5 -23q25 0 48 20.5t54 65.5l63 -37q-75 -141 -167 -141q-37 0 -72.5 23t-66 46t-56.5 23zM532 1403h152l180 -1403h-125l-43 385h-463l-151 -385h-123zM272 485h414l-92 820z " />
<glyph unicode="&#xc4;" horiz-adv-x="974" d="M477 1618q-30 0 -48.5 19t-18.5 49q0 38 25 63t59 25q30 0 48.5 -19t18.5 -49q0 -38 -24 -63t-60 -25zM803 1618q-30 0 -49 19t-19 49q0 38 24 63t58 25q30 0 49 -19t19 -49q0 -38 -24 -63t-58 -25zM532 1403h152l180 -1403h-125l-43 385h-463l-151 -385h-123zM272 485 h414l-92 820z" />
<glyph unicode="&#xc5;" horiz-adv-x="974" d="M637 1556q-70 0 -112 46.5t-42 119.5q0 94 56 153.5t139 59.5q70 0 111.5 -46.5t41.5 -119.5q0 -94 -55.5 -153.5t-138.5 -59.5zM674 1866q-51 0 -80 -40.5t-29 -103.5q0 -45 20 -70.5t56 -25.5q51 0 80 40t29 103q0 46 -19.5 71.5t-56.5 25.5zM739 0l-43 385h-463 l-151 -385h-123l573 1403h152l180 -1403h-125zM272 485h414l-92 820z" />
<glyph unicode="&#xc6;" horiz-adv-x="1333" d="M1274 1303h-533l33 -527h428l-14 -100h-408l37 -576h383l-16 -100h-473l-23 377h-465l-168 -377h-121l646 1403h723zM266 477h416l-47 830z" />
<glyph unicode="&#xc7;" horiz-adv-x="940" d="M725 1323q-102 0 -186 -54.5t-138.5 -141t-92.5 -200t-54 -226.5t-16 -224q0 -196 70 -294.5t190 -98.5q80 0 140.5 29t129.5 84l53 -80q-140 -129 -307 -140l-18 -112q139 -15 139 -144q0 -80 -55.5 -132t-149.5 -52q-89 0 -137 45l41 66q52 -29 96 -29q48 0 77.5 25 t29.5 73q0 47 -30 66.5t-108 19.5l39 179q-150 19 -235.5 147.5t-85.5 351.5q0 106 15.5 213.5t46 214t81 199t116 164t156 112.5t195.5 41q93 0 160 -33t125 -98l-72 -69q-52 53 -100.5 75.5t-114.5 22.5z" />
<glyph unicode="&#xc8;" horiz-adv-x="856" d="M537 1804l288 -188l-41 -62l-309 154zM895 1403l-29 -100h-460l-74 -527h401l-16 -98h-400l-81 -578h489l-16 -100h-607l199 1403h594z" />
<glyph unicode="&#xc9;" horiz-adv-x="856" d="M786 1806l52 -100l-359 -154l-33 66zM895 1403l-29 -100h-460l-74 -527h401l-16 -98h-400l-81 -578h489l-16 -100h-607l199 1403h594z" />
<glyph unicode="&#xca;" horiz-adv-x="856" d="M418 1561l-49 57l249 211h72l189 -215l-54 -53l-180 163zM895 1403l-29 -100h-460l-74 -527h401l-16 -98h-400l-81 -578h489l-16 -100h-607l199 1403h594z" />
<glyph unicode="&#xcb;" horiz-adv-x="856" d="M475 1618q-30 0 -48.5 19t-18.5 49q0 38 25 63t59 25q30 0 48.5 -19t18.5 -49q0 -38 -24 -63t-60 -25zM801 1618q-30 0 -49 19t-19 49q0 38 24 63t58 25q30 0 49 -19t19 -49q0 -38 -24 -63t-58 -25zM895 1403l-29 -100h-460l-74 -527h401l-16 -98h-400l-81 -578h489 l-16 -100h-607l199 1403h594z" />
<glyph unicode="&#xcc;" horiz-adv-x="477" d="M291 1804l289 -188l-41 -62l-310 154zM420 1403l-199 -1403h-119l199 1403h119z" />
<glyph unicode="&#xcd;" horiz-adv-x="477" d="M541 1806l51 -100l-359 -154l-32 66zM420 1403l-199 -1403h-119l199 1403h119z" />
<glyph unicode="&#xce;" horiz-adv-x="477" d="M172 1561l-49 57l250 211h71l189 -215l-53 -53l-181 163zM420 1403l-199 -1403h-119l199 1403h119z" />
<glyph unicode="&#xcf;" horiz-adv-x="477" d="M229 1618q-30 0 -48.5 19t-18.5 49q0 38 25 63t59 25q30 0 48.5 -19t18.5 -49q0 -38 -24 -63t-60 -25zM555 1618q-30 0 -49 19t-19 49q0 38 24 63t58 25q30 0 49 -19t19 -49q0 -38 -24 -63t-58 -25zM420 1403l-199 -1403h-119l199 1403h119z" />
<glyph unicode="&#xd0;" horiz-adv-x="1107" d="M584 1403q77 0 141.5 -13.5t123.5 -47.5t100 -86.5t65 -135t24 -188.5q0 -120 -15.5 -231.5t-48 -217.5t-86 -192.5t-125.5 -152t-171.5 -102t-218.5 -36.5h-260l96 676h-148l15 94h145l90 633h273zM395 100q114 0 205.5 50t149.5 131.5t97 192t55 224t16 234.5 q0 108 -25.5 183.5t-73 115t-103 56t-128.5 16.5h-172l-76 -533h287l-15 -94h-284l-82 -576h149z" />
<glyph unicode="&#xd1;" horiz-adv-x="1126" d="M838 1624q-37 0 -72.5 23t-66 46t-56.5 23q-28 0 -49.5 -18.5t-54.5 -63.5l-60 41q78 133 166 133q37 0 72.5 -23t66 -46t56.5 -23q25 0 48 20.5t54 65.5l64 -37q-75 -141 -168 -141zM1069 1403l-199 -1403h-153l-342 1294q-9 -193 -53 -508l-107 -786h-113l199 1403h154 l344 -1292q9 192 43 440l116 852h111z" />
<glyph unicode="&#xd2;" horiz-adv-x="1171" d="M655 1804l289 -188l-41 -62l-309 154zM725 1425q179 0 279 -129t100 -370q0 -103 -14.5 -208t-43.5 -213t-79 -202t-115 -167.5t-157.5 -116t-200.5 -42.5q-178 0 -278.5 130t-100.5 370q0 100 15 204.5t44.5 212t80 202t115.5 169t156.5 117.5t198.5 43zM719 1325 q-104 0 -188.5 -58.5t-137.5 -149.5t-89.5 -207.5t-51 -225.5t-14.5 -211q0 -195 69 -294t193 -99q78 0 144.5 31t115 83.5t87 124t63.5 148.5t41 161.5t23 160t7 145.5q0 196 -67 293.5t-195 97.5z" />
<glyph unicode="&#xd3;" horiz-adv-x="1171" d="M905 1806l51 -100l-358 -154l-33 66zM725 1425q179 0 279 -129t100 -370q0 -103 -14.5 -208t-43.5 -213t-79 -202t-115 -167.5t-157.5 -116t-200.5 -42.5q-178 0 -278.5 130t-100.5 370q0 100 15 204.5t44.5 212t80 202t115.5 169t156.5 117.5t198.5 43zM719 1325 q-104 0 -188.5 -58.5t-137.5 -149.5t-89.5 -207.5t-51 -225.5t-14.5 -211q0 -195 69 -294t193 -99q78 0 144.5 31t115 83.5t87 124t63.5 148.5t41 161.5t23 160t7 145.5q0 196 -67 293.5t-195 97.5z" />
<glyph unicode="&#xd4;" horiz-adv-x="1171" d="M537 1561l-50 57l250 211h72l188 -215l-53 -53l-180 163zM725 1425q179 0 279 -129t100 -370q0 -103 -14.5 -208t-43.5 -213t-79 -202t-115 -167.5t-157.5 -116t-200.5 -42.5q-178 0 -278.5 130t-100.5 370q0 100 15 204.5t44.5 212t80 202t115.5 169t156.5 117.5 t198.5 43zM719 1325q-104 0 -188.5 -58.5t-137.5 -149.5t-89.5 -207.5t-51 -225.5t-14.5 -211q0 -195 69 -294t193 -99q78 0 144.5 31t115 83.5t87 124t63.5 148.5t41 161.5t23 160t7 145.5q0 196 -67 293.5t-195 97.5z" />
<glyph unicode="&#xd5;" horiz-adv-x="1171" d="M864 1624q-37 0 -72.5 23t-65.5 46t-56 23q-29 0 -50.5 -18.5t-54.5 -63.5l-59 41q78 133 166 133q37 0 72.5 -23t65.5 -46t56 -23q25 0 48.5 20.5t54.5 65.5l63 -37q-75 -141 -168 -141zM725 1425q179 0 279 -129t100 -370q0 -103 -14.5 -208t-43.5 -213t-79 -202 t-115 -167.5t-157.5 -116t-200.5 -42.5q-178 0 -278.5 130t-100.5 370q0 100 15 204.5t44.5 212t80 202t115.5 169t156.5 117.5t198.5 43zM719 1325q-104 0 -188.5 -58.5t-137.5 -149.5t-89.5 -207.5t-51 -225.5t-14.5 -211q0 -195 69 -294t193 -99q78 0 144.5 31t115 83.5 t87 124t63.5 148.5t41 161.5t23 160t7 145.5q0 196 -67 293.5t-195 97.5z" />
<glyph unicode="&#xd6;" horiz-adv-x="1171" d="M594 1618q-30 0 -49 19t-19 49q0 38 25 63t59 25q30 0 49 -19t19 -49q0 -38 -24 -63t-60 -25zM920 1618q-30 0 -49 19t-19 49q0 38 24 63t58 25q30 0 48.5 -19t18.5 -49q0 -38 -23.5 -63t-57.5 -25zM725 1425q179 0 279 -129t100 -370q0 -103 -14.5 -208t-43.5 -213 t-79 -202t-115 -167.5t-157.5 -116t-200.5 -42.5q-178 0 -278.5 130t-100.5 370q0 100 15 204.5t44.5 212t80 202t115.5 169t156.5 117.5t198.5 43zM719 1325q-104 0 -188.5 -58.5t-137.5 -149.5t-89.5 -207.5t-51 -225.5t-14.5 -211q0 -195 69 -294t193 -99q78 0 144.5 31 t115 83.5t87 124t63.5 148.5t41 161.5t23 160t7 145.5q0 196 -67 293.5t-195 97.5z" />
<glyph unicode="&#xd7;" horiz-adv-x="856" d="M692 963l68 -66l-252 -268l192 -271l-84 -61l-186 258l-240 -258l-67 65l250 267l-191 272l86 62l178 -267z" />
<glyph unicode="&#xd8;" horiz-adv-x="1171" d="M922 1370q87 -58 134.5 -171.5t47.5 -272.5q0 -103 -14.5 -208t-43.5 -213t-79 -202t-115 -167.5t-157.5 -116t-200.5 -42.5q-56 0 -105 15l-90 -236l-94 29l96 246q-89 58 -137.5 172.5t-48.5 273.5q0 100 15 204.5t44.5 212t80 202t115.5 169t156.5 117.5t198.5 43 q63 0 109 -14l94 248l94 -29zM238 473q0 -265 118 -350l447 1190q-37 12 -84 12q-104 0 -188.5 -58.5t-137.5 -149.5t-89.5 -207.5t-51 -225.5t-14.5 -211zM500 80q78 0 144.5 31t115 83.5t87 124t63.5 148.5t41 161.5t23 160t7 145.5q0 262 -113 346l-446 -1190 q42 -10 78 -10z" />
<glyph unicode="&#xd9;" horiz-adv-x="1085" d="M594 1804l289 -188l-41 -62l-310 154zM1047 1403l-146 -1043q-11 -78 -44.5 -146.5t-87 -121.5t-131.5 -84t-171 -31q-94 0 -165 32.5t-110 87.5t-53.5 124.5t-3.5 147.5l146 1034h118l-145 -1036q-18 -127 36.5 -206t184.5 -79q134 0 213.5 83.5t95.5 209.5l144 1028 h119z" />
<glyph unicode="&#xda;" horiz-adv-x="1085" d="M844 1806l51 -100l-358 -154l-33 66zM1047 1403l-146 -1043q-11 -78 -44.5 -146.5t-87 -121.5t-131.5 -84t-171 -31q-94 0 -165 32.5t-110 87.5t-53.5 124.5t-3.5 147.5l146 1034h118l-145 -1036q-18 -127 36.5 -206t184.5 -79q134 0 213.5 83.5t95.5 209.5l144 1028h119 z" />
<glyph unicode="&#xdb;" horiz-adv-x="1085" d="M475 1561l-49 57l250 211h72l188 -215l-53 -53l-181 163zM1047 1403l-146 -1043q-11 -78 -44.5 -146.5t-87 -121.5t-131.5 -84t-171 -31q-94 0 -165 32.5t-110 87.5t-53.5 124.5t-3.5 147.5l146 1034h118l-145 -1036q-18 -127 36.5 -206t184.5 -79q134 0 213.5 83.5 t95.5 209.5l144 1028h119z" />
<glyph unicode="&#xdc;" horiz-adv-x="1085" d="M532 1618q-30 0 -48.5 19t-18.5 49q0 38 25 63t59 25q30 0 48.5 -19t18.5 -49q0 -38 -24 -63t-60 -25zM858 1618q-30 0 -48.5 19t-18.5 49q0 38 23.5 63t57.5 25q30 0 49 -19t19 -49q0 -38 -24 -63t-58 -25zM1047 1403l-146 -1043q-11 -78 -44.5 -146.5t-87 -121.5 t-131.5 -84t-171 -31q-94 0 -165 32.5t-110 87.5t-53.5 124.5t-3.5 147.5l146 1034h118l-145 -1036q-18 -127 36.5 -206t184.5 -79q134 0 213.5 83.5t95.5 209.5l144 1028h119z" />
<glyph unicode="&#xdd;" horiz-adv-x="884" d="M739 1806l52 -100l-359 -154l-33 66zM989 1403l-485 -856l-78 -547h-119l78 547l-244 856h121l195 -748l401 748h131z" />
<glyph unicode="&#xde;" horiz-adv-x="948" d="M541 1151q186 0 284.5 -89t98.5 -265q0 -78 -15.5 -148.5t-53.5 -139t-95 -118t-147 -80t-203 -30.5h-150l-39 -281h-119l199 1403h119l-35 -252h156zM420 379q89 0 158 25t110 65.5t67.5 97t36 112t9.5 118.5q0 136 -67 195t-206 59h-157l-97 -672h146z" />
<glyph unicode="&#xdf;" horiz-adv-x="976" d="M-92 -416l-31 86q71 37 109.5 71t69 103.5t46.5 182.5l152 1083q27 198 128 305t251 107q113 0 180.5 -67t67.5 -169q0 -74 -25.5 -132t-62.5 -94t-74 -67t-62.5 -67.5t-25.5 -79.5q0 -34 18.5 -66.5t46 -58.5t59.5 -62t59.5 -74t46 -98t18.5 -131q0 -51 -12 -102.5 t-38.5 -101.5t-64.5 -89t-94 -62.5t-123 -23.5q-101 0 -189 58l48 82q67 -41 137 -41q58 0 103 27t69.5 70t36.5 88.5t12 90.5q0 61 -18 112.5t-45 84.5t-59 68t-59 63.5t-45 69.5t-18 88q0 56 25.5 101t62 77t73 66t62 85t25.5 117q0 68 -38 105.5t-103 37.5 q-100 0 -168 -82.5t-92 -246.5l-152 -1082q-14 -102 -38 -170.5t-65.5 -117t-85 -77.5t-118.5 -67z" />
<glyph unicode="&#xe0;" d="M557 1593l289 -209l-43 -61l-309 172zM594 1094q136 0 272 -78l-112 -783q-14 -72 -7.5 -111.5t46.5 -62.5l-37 -82q-59 18 -88.5 60t-26.5 121q-125 -181 -281 -181q-127 0 -199.5 99t-72.5 272q0 102 17 203t56.5 200t96.5 174.5t144 122t192 46.5zM590 999 q-66 0 -123.5 -28t-98.5 -77t-73 -112t-51.5 -137t-29 -148.5t-9.5 -148.5q0 -135 44.5 -204.5t129.5 -69.5q138 0 268 213l96 678q-77 34 -153 34z" />
<glyph unicode="&#xe1;" d="M795 1597l51 -102l-359 -172l-34 63zM594 1094q136 0 272 -78l-112 -783q-14 -72 -7.5 -111.5t46.5 -62.5l-37 -82q-59 18 -88.5 60t-26.5 121q-125 -181 -281 -181q-127 0 -199.5 99t-72.5 272q0 102 17 203t56.5 200t96.5 174.5t144 122t192 46.5zM590 999 q-66 0 -123.5 -28t-98.5 -77t-73 -112t-51.5 -137t-29 -148.5t-9.5 -148.5q0 -135 44.5 -204.5t129.5 -69.5q138 0 268 213l96 678q-77 34 -153 34z" />
<glyph unicode="&#xe2;" d="M432 1321l-51 57l252 217h69l189 -221l-57 -53l-175 170zM594 1094q136 0 272 -78l-112 -783q-14 -72 -7.5 -111.5t46.5 -62.5l-37 -82q-59 18 -88.5 60t-26.5 121q-125 -181 -281 -181q-127 0 -199.5 99t-72.5 272q0 102 17 203t56.5 200t96.5 174.5t144 122t192 46.5z M590 999q-66 0 -123.5 -28t-98.5 -77t-73 -112t-51.5 -137t-29 -148.5t-9.5 -148.5q0 -135 44.5 -204.5t129.5 -69.5q138 0 268 213l96 678q-77 34 -153 34z" />
<glyph unicode="&#xe3;" d="M748 1366q-37 0 -72.5 23t-66 46t-56.5 23q-28 0 -49.5 -18.5t-54.5 -63.5l-60 41q78 133 166 133q37 0 72.5 -23t66 -46t56.5 -23q25 0 48 20.5t54 65.5l63 -37q-75 -141 -167 -141zM594 1094q136 0 272 -78l-112 -783q-14 -72 -7.5 -111.5t46.5 -62.5l-37 -82 q-59 18 -88.5 60t-26.5 121q-125 -181 -281 -181q-127 0 -199.5 99t-72.5 272q0 102 17 203t56.5 200t96.5 174.5t144 122t192 46.5zM590 999q-66 0 -123.5 -28t-98.5 -77t-73 -112t-51.5 -137t-29 -148.5t-9.5 -148.5q0 -135 44.5 -204.5t129.5 -69.5q138 0 268 213l96 678 q-77 34 -153 34z" />
<glyph unicode="&#xe4;" d="M479 1360q-30 0 -48.5 18.5t-18.5 48.5q0 38 25 63.5t59 25.5q30 0 48.5 -19t18.5 -49q0 -38 -24 -63t-60 -25zM805 1360q-31 0 -49.5 19t-18.5 48q0 38 24 63.5t58 25.5q30 0 49 -19t19 -49q0 -38 -24 -63t-58 -25zM594 1094q136 0 272 -78l-112 -783 q-14 -72 -7.5 -111.5t46.5 -62.5l-37 -82q-59 18 -88.5 60t-26.5 121q-125 -181 -281 -181q-127 0 -199.5 99t-72.5 272q0 102 17 203t56.5 200t96.5 174.5t144 122t192 46.5zM590 999q-66 0 -123.5 -28t-98.5 -77t-73 -112t-51.5 -137t-29 -148.5t-9.5 -148.5 q0 -135 44.5 -204.5t129.5 -69.5q138 0 268 213l96 678q-77 34 -153 34z" />
<glyph unicode="&#xe5;" d="M674 1677q70 0 111.5 -46.5t41.5 -119.5q0 -94 -55.5 -153.5t-138.5 -59.5q-70 0 -112 46.5t-42 119.5q0 94 56 153.5t139 59.5zM670 1608q-51 0 -80 -40.5t-29 -103.5q0 -45 20 -70.5t56 -25.5q51 0 79.5 40t28.5 103q0 46 -19.5 71.5t-55.5 25.5zM594 1094 q136 0 272 -78l-112 -783q-14 -72 -7.5 -111.5t46.5 -62.5l-37 -82q-59 18 -88.5 60t-26.5 121q-125 -181 -281 -181q-127 0 -199.5 99t-72.5 272q0 102 17 203t56.5 200t96.5 174.5t144 122t192 46.5zM590 999q-66 0 -123.5 -28t-98.5 -77t-73 -112t-51.5 -137t-29 -148.5 t-9.5 -148.5q0 -135 44.5 -204.5t129.5 -69.5q138 0 268 213l96 678q-77 34 -153 34z" />
<glyph unicode="&#xe6;" horiz-adv-x="1398" d="M489 1094q193 0 265 -193q131 193 338 193q125 0 194.5 -69t69.5 -179q0 -82 -31 -148t-85.5 -112.5t-135 -80.5t-173 -53.5t-206.5 -29.5q-17 -344 195 -344q67 0 124.5 25t124.5 77l52 -76q-152 -127 -312 -127q-100 0 -170 50t-104 145q-155 -195 -334 -195 q-121 0 -188.5 73.5t-67.5 197.5q0 73 22.5 137t69.5 118.5t131 86t197 31.5h168q14 65 51 159q-33 217 -209 217q-91 0 -239 -61l-23 90q156 68 276 68zM1083 997q-76 0 -138.5 -41t-104.5 -111t-68.5 -153.5t-38.5 -179.5q257 25 381.5 103.5t124.5 228.5q0 153 -156 153z M618 537h-147q-157 0 -230 -77.5t-73 -211.5q0 -85 38.5 -131.5t108.5 -46.5q74 0 144 47.5t151 154.5q-7 62 -4.5 135t12.5 130z" />
<glyph unicode="&#xe7;" horiz-adv-x="790" d="M569 995q-76 0 -138.5 -41t-102.5 -106t-68 -150t-39.5 -169t-11.5 -167q0 -143 50.5 -212.5t143.5 -69.5q58 0 106.5 21t106.5 63l50 -76q-124 -105 -254 -111l-19 -112q139 -15 139 -144q0 -80 -55 -132t-149 -52q-90 0 -138 45l41 66q52 -29 97 -29q48 0 77 25t29 73 q0 47 -29.5 66.5t-107.5 19.5l39 181q-117 20 -181.5 119.5t-64.5 263.5q0 98 16.5 196.5t54.5 195t92.5 170.5t136.5 119.5t181 45.5q141 0 240 -111l-66 -70q-42 42 -81.5 62t-94.5 20z" />
<glyph unicode="&#xe8;" horiz-adv-x="882" d="M811 1384l-43 -61l-309 172l63 98zM840 846q0 -82 -31 -148.5t-85.5 -112.5t-135 -79.5t-172.5 -53t-205 -30.5q-2 -18 -2 -55q0 -289 197 -289q66 0 124.5 25t124.5 77l52 -76q-156 -127 -312 -127q-145 0 -225 102t-80 286q0 103 18 204.5t57 197t95 168t138 116 t180 43.5q125 0 193.5 -69t68.5 -179zM569 997q-77 0 -140 -41t-104.5 -111.5t-68 -154t-37.5 -178.5q257 25 381.5 103.5t124.5 228.5q0 153 -156 153z" />
<glyph unicode="&#xe9;" horiz-adv-x="882" d="M811 1495l-358 -172l-35 63l342 211zM840 846q0 -82 -31 -148.5t-85.5 -112.5t-135 -79.5t-172.5 -53t-205 -30.5q-2 -18 -2 -55q0 -289 197 -289q66 0 124.5 25t124.5 77l52 -76q-156 -127 -312 -127q-145 0 -225 102t-80 286q0 103 18 204.5t57 197t95 168t138 116 t180 43.5q125 0 193.5 -69t68.5 -179zM569 997q-77 0 -140 -41t-104.5 -111.5t-68 -154t-37.5 -178.5q257 25 381.5 103.5t124.5 228.5q0 153 -156 153z" />
<glyph unicode="&#xea;" horiz-adv-x="882" d="M625 1491l-228 -170l-51 57l252 217h70l188 -221l-57 -53zM578 1094q125 0 193.5 -69t68.5 -179q0 -82 -31 -148.5t-85.5 -112.5t-135 -79.5t-172.5 -53t-205 -30.5q-2 -18 -2 -55q0 -289 197 -289q66 0 124.5 25t124.5 77l52 -76q-156 -127 -312 -127q-145 0 -225 102 t-80 286q0 103 18 204.5t57 197t95 168t138 116t180 43.5zM219 512q257 25 381.5 103.5t124.5 228.5q0 153 -156 153q-77 0 -140 -41t-104.5 -111.5t-68 -154t-37.5 -178.5z" />
<glyph unicode="&#xeb;" horiz-adv-x="882" d="M444 1360q-30 0 -48.5 18.5t-18.5 48.5q0 38 25 63.5t59 25.5q30 0 48.5 -19t18.5 -49q0 -38 -24 -63t-60 -25zM770 1360q-30 0 -49 19t-19 48q0 38 24 63.5t58 25.5q30 0 49 -19t19 -49q0 -38 -24 -63t-58 -25zM578 1094q125 0 193.5 -69t68.5 -179q0 -82 -31 -148.5 t-85.5 -112.5t-135 -79.5t-172.5 -53t-205 -30.5q-2 -18 -2 -55q0 -289 197 -289q66 0 124.5 25t124.5 77l52 -76q-156 -127 -312 -127q-145 0 -225 102t-80 286q0 103 18 204.5t57 197t95 168t138 116t180 43.5zM219 512q257 25 381.5 103.5t124.5 228.5q0 153 -156 153 q-77 0 -140 -41t-104.5 -111.5t-68 -154t-37.5 -178.5z" />
<glyph unicode="&#xec;" horiz-adv-x="456" d="M262 1593l289 -209l-43 -61l-309 172zM360 1071l-151 -1071h-115l152 1071h114z" />
<glyph unicode="&#xed;" horiz-adv-x="456" d="M500 1597l51 -102l-358 -172l-35 63zM360 1071l-151 -1071h-115l152 1071h114z" />
<glyph unicode="&#xee;" horiz-adv-x="456" d="M137 1321l-51 57l252 217h70l188 -221l-57 -53l-174 170zM360 1071l-151 -1071h-115l152 1071h114z" />
<glyph unicode="&#xef;" horiz-adv-x="456" d="M184 1360q-30 0 -48.5 18.5t-18.5 48.5q0 38 25 63.5t59 25.5q30 0 48.5 -19t18.5 -49q0 -38 -24 -63t-60 -25zM510 1360q-30 0 -49 19t-19 48q0 38 24 63.5t58 25.5q30 0 49 -19t19 -49q0 -38 -24 -63t-58 -25zM360 1071l-151 -1071h-115l152 1071h114z" />
<glyph unicode="&#xf0;" horiz-adv-x="970" d="M688 1356q90 -91 133 -208.5t43 -293.5q0 -127 -17.5 -249.5t-55.5 -237t-93 -200.5t-136.5 -138t-178.5 -52q-143 0 -221 96.5t-78 268.5q0 109 28 217t79 197.5t132.5 145.5t180.5 56q153 0 248 -151q5 172 -25.5 276.5t-112.5 198.5l-147 -149l-74 38l162 168 q-84 68 -184 97l37 86q115 -31 217 -111l149 148l55 -62zM385 74q274 0 356 596q-78 192 -227 192q-81 0 -143.5 -47.5t-98 -125t-53.5 -166t-18 -181.5q0 -131 47 -199.5t137 -68.5z" />
<glyph unicode="&#xf1;" horiz-adv-x="976" d="M717 1366q-37 0 -72.5 23t-66 46t-56.5 23q-28 0 -49.5 -18.5t-54.5 -63.5l-60 41q78 133 166 133q37 0 72.5 -23t66 -46t56.5 -23q25 0 48 20.5t54 65.5l64 -37q-75 -141 -168 -141zM645 1094q113 0 169 -86.5t34 -233.5l-109 -774h-114l108 770q28 225 -110 225 q-152 0 -322 -336l-92 -659h-115l152 1071h98l-27 -246q74 129 152.5 199t175.5 70z" />
<glyph unicode="&#xf2;" d="M528 1593l289 -209l-43 -61l-309 172zM397 -23q-148 0 -227.5 104t-79.5 288q0 77 11.5 157t35 162.5t63 154.5t90.5 128.5t123 89.5t156 33q148 0 228 -103.5t80 -285.5q0 -93 -16 -189.5t-53 -194t-90.5 -173.5t-136.5 -123.5t-184 -47.5zM401 76q65 0 120.5 30.5 t93.5 82.5t66.5 116t44.5 137.5t24 140.5t8 130q0 140 -49.5 212t-143.5 72q-78 0 -141 -44t-102 -112t-65.5 -155.5t-37 -169t-10.5 -158.5q0 -282 192 -282z" />
<glyph unicode="&#xf3;" d="M766 1597l51 -102l-358 -172l-35 63zM397 -23q-148 0 -227.5 104t-79.5 288q0 77 11.5 157t35 162.5t63 154.5t90.5 128.5t123 89.5t156 33q148 0 228 -103.5t80 -285.5q0 -93 -16 -189.5t-53 -194t-90.5 -173.5t-136.5 -123.5t-184 -47.5zM401 76q65 0 120.5 30.5 t93.5 82.5t66.5 116t44.5 137.5t24 140.5t8 130q0 140 -49.5 212t-143.5 72q-78 0 -141 -44t-102 -112t-65.5 -155.5t-37 -169t-10.5 -158.5q0 -282 192 -282z" />
<glyph unicode="&#xf4;" d="M403 1321l-51 57l252 217h70l188 -221l-57 -53l-174 170zM397 -23q-148 0 -227.5 104t-79.5 288q0 77 11.5 157t35 162.5t63 154.5t90.5 128.5t123 89.5t156 33q148 0 228 -103.5t80 -285.5q0 -93 -16 -189.5t-53 -194t-90.5 -173.5t-136.5 -123.5t-184 -47.5zM401 76 q65 0 120.5 30.5t93.5 82.5t66.5 116t44.5 137.5t24 140.5t8 130q0 140 -49.5 212t-143.5 72q-78 0 -141 -44t-102 -112t-65.5 -155.5t-37 -169t-10.5 -158.5q0 -282 192 -282z" />
<glyph unicode="&#xf5;" d="M719 1366q-37 0 -72.5 23t-66 46t-56.5 23q-28 0 -49.5 -18.5t-54.5 -63.5l-60 41q78 133 166 133q37 0 72.5 -23t66 -46t56.5 -23q25 0 48 20.5t54 65.5l64 -37q-75 -141 -168 -141zM397 -23q-148 0 -227.5 104t-79.5 288q0 77 11.5 157t35 162.5t63 154.5t90.5 128.5 t123 89.5t156 33q148 0 228 -103.5t80 -285.5q0 -93 -16 -189.5t-53 -194t-90.5 -173.5t-136.5 -123.5t-184 -47.5zM401 76q65 0 120.5 30.5t93.5 82.5t66.5 116t44.5 137.5t24 140.5t8 130q0 140 -49.5 212t-143.5 72q-78 0 -141 -44t-102 -112t-65.5 -155.5t-37 -169 t-10.5 -158.5q0 -282 192 -282z" />
<glyph unicode="&#xf6;" d="M451 1360q-31 0 -49.5 19t-18.5 48q0 38 25 63.5t59 25.5q30 0 49 -19t19 -49q0 -38 -24 -63t-60 -25zM776 1360q-30 0 -48.5 18.5t-18.5 48.5q0 38 24 63.5t58 25.5q30 0 48.5 -19t18.5 -49q0 -38 -24 -63t-58 -25zM397 -23q-148 0 -227.5 104t-79.5 288q0 77 11.5 157 t35 162.5t63 154.5t90.5 128.5t123 89.5t156 33q148 0 228 -103.5t80 -285.5q0 -93 -16 -189.5t-53 -194t-90.5 -173.5t-136.5 -123.5t-184 -47.5zM401 76q65 0 120.5 30.5t93.5 82.5t66.5 116t44.5 137.5t24 140.5t8 130q0 140 -49.5 212t-143.5 72q-78 0 -141 -44 t-102 -112t-65.5 -155.5t-37 -169t-10.5 -158.5q0 -282 192 -282z" />
<glyph unicode="&#xf7;" horiz-adv-x="851" d="M504 1030q-39 0 -61.5 24t-22.5 60q0 43 27.5 74t70.5 31q40 0 63 -24.5t23 -59.5q0 -43 -28 -74t-72 -31zM137 627l13 102h606l-15 -102h-604zM379 135q-39 0 -61.5 24t-22.5 60q0 43 27.5 74t70.5 31q40 0 63 -24.5t23 -59.5q0 -43 -28 -74t-72 -31z" />
<glyph unicode="&#xf8;" d="M745 1038q132 -101 132 -333q0 -93 -16 -189.5t-53 -194t-90.5 -173.5t-136.5 -123.5t-184 -47.5q-44 0 -88 13l-102 -246l-88 29l106 256q-135 101 -135 340q0 77 11.5 157t35 162.5t63 154.5t90.5 128.5t123 89.5t156 33q51 0 95 -15l100 248l88 -29zM565 997 q-78 0 -141 -44t-102 -112t-65.5 -155.5t-37 -169t-10.5 -158.5q0 -175 72 -241l350 870q-30 10 -66 10zM401 76q65 0 120.5 30.5t93.5 82.5t66.5 116t44.5 137.5t24 140.5t8 130q0 171 -68 239l-348 -868q24 -8 59 -8z" />
<glyph unicode="&#xf9;" horiz-adv-x="968" d="M514 1593l289 -209l-43 -61l-309 172zM332 -23q-111 0 -168 83t-37 223l111 788h114l-110 -795q-15 -101 13.5 -151.5t92.5 -50.5q168 0 316 321l96 676h112l-151 -1071h-94l26 248q-65 -128 -140.5 -199.5t-180.5 -71.5z" />
<glyph unicode="&#xfa;" horiz-adv-x="968" d="M752 1597l51 -102l-359 -172l-34 63zM332 -23q-111 0 -168 83t-37 223l111 788h114l-110 -795q-15 -101 13.5 -151.5t92.5 -50.5q168 0 316 321l96 676h112l-151 -1071h-94l26 248q-65 -128 -140.5 -199.5t-180.5 -71.5z" />
<glyph unicode="&#xfb;" horiz-adv-x="968" d="M389 1321l-51 57l252 217h69l189 -221l-57 -53l-175 170zM332 -23q-111 0 -168 83t-37 223l111 788h114l-110 -795q-15 -101 13.5 -151.5t92.5 -50.5q168 0 316 321l96 676h112l-151 -1071h-94l26 248q-65 -128 -140.5 -199.5t-180.5 -71.5z" />
<glyph unicode="&#xfc;" horiz-adv-x="968" d="M436 1360q-30 0 -48.5 18.5t-18.5 48.5q0 38 25 63.5t59 25.5q30 0 48.5 -19t18.5 -49q0 -38 -24 -63t-60 -25zM762 1360q-30 0 -49 19t-19 48q0 38 24 63.5t58 25.5q30 0 49 -19t19 -49q0 -38 -24 -63t-58 -25zM332 -23q-111 0 -168 83t-37 223l111 788h114l-110 -795 q-15 -101 13.5 -151.5t92.5 -50.5q168 0 316 321l96 676h112l-151 -1071h-94l26 248q-65 -128 -140.5 -199.5t-180.5 -71.5z" />
<glyph unicode="&#xfd;" horiz-adv-x="808" d="M670 1597l51 -102l-359 -172l-34 63zM854 1071l-446 -1079q-57 -140 -114.5 -219t-130 -122t-188.5 -69l-4 86q135 40 200 106t130 226h-47l-148 1071h121l117 -983l389 983h121z" />
<glyph unicode="&#xfe;" horiz-adv-x="974" d="M627 1094q124 0 193 -93t69 -264q0 -103 -15.5 -204.5t-52.5 -203.5t-91.5 -179t-139.5 -125t-189 -48q-99 0 -186 43l-61 -428l-117 -16l272 1931l115 17l-82 -590q140 160 285 160zM403 74q66 0 122 30t95.5 82t69.5 117.5t47.5 141.5t26 149.5t8.5 144.5 q0 256 -166 256q-135 0 -280 -180l-99 -700q87 -41 176 -41z" />
<glyph unicode="&#xff;" horiz-adv-x="808" d="M354 1360q-30 0 -48.5 18.5t-18.5 48.5q0 38 25 63.5t59 25.5q30 0 48.5 -19t18.5 -49q0 -38 -24 -63t-60 -25zM680 1360q-30 0 -49 19t-19 48q0 38 24 63.5t58 25.5q30 0 49 -19t19 -49q0 -38 -24 -63t-58 -25zM854 1071l-446 -1079q-57 -140 -114.5 -219t-130 -122 t-188.5 -69l-4 86q135 40 200 106t130 226h-47l-148 1071h121l117 -983l389 983h121z" />
<glyph unicode="&#x152;" horiz-adv-x="1460" d="M1497 1403l-29 -100h-518q113 -122 113 -377q0 -82 -8 -150h280l-14 -98h-279q-29 -181 -96 -333t-176 -245h559l-18 -100h-701q-64 -23 -131 -23q-168 0 -266 131t-98 369q0 99 14.5 204t43.5 212.5t77 202t110 169t149 117.5t187 43q64 0 119 -22h682zM485 80 q100 0 180.5 59.5t130.5 151t83.5 209t47 225.5t13.5 209q0 196 -64 293.5t-182 97.5q-81 0 -150.5 -40.5t-118 -110t-86 -156t-59 -184t-32 -188t-10.5 -173.5q0 -195 66.5 -294t180.5 -99z" />
<glyph unicode="&#x153;" horiz-adv-x="1517" d="M1477 846q0 -102 -46.5 -179t-134.5 -126t-197.5 -77t-252.5 -42q-2 -18 -2 -55q0 -289 196 -289q68 0 125.5 25t124.5 77l51 -76q-156 -127 -311 -127q-226 0 -276 254q-126 -254 -357 -254q-148 0 -227.5 104t-79.5 288q0 77 11.5 157t35 162.5t63 154.5t90.5 128.5 t123 89.5t156 33q230 0 285 -250q128 250 358 250q125 0 195 -69.5t70 -178.5zM401 76q65 0 120.5 30.5t93.5 82.5t66.5 116t44.5 137.5t24 140.5t8 130q0 140 -49.5 212t-143.5 72q-78 0 -141 -44t-102 -112t-65.5 -155.5t-37 -169t-10.5 -158.5q0 -282 192 -282zM1204 997 q-78 0 -141 -39.5t-105 -108.5t-68.5 -153.5t-37.5 -183.5q257 25 382.5 103.5t125.5 228.5q0 153 -156 153z" />
<glyph unicode="&#x178;" horiz-adv-x="884" d="M428 1618q-30 0 -49 19t-19 49q0 38 25 63t59 25q30 0 49 -19t19 -49q0 -38 -24 -63t-60 -25zM754 1618q-30 0 -49 19t-19 49q0 38 24 63t58 25q30 0 49 -19t19 -49q0 -38 -24 -63t-58 -25zM989 1403l-485 -856l-78 -547h-119l78 547l-244 856h121l195 -748l401 748h131z " />
<glyph unicode="&#x2c6;" horiz-adv-x="632" d="M229 1321l-51 57l252 217h70l188 -221l-57 -53l-174 170z" />
<glyph unicode="&#x2dc;" horiz-adv-x="638" d="M545 1366q-37 0 -72.5 23t-66 46t-56.5 23q-28 0 -49.5 -18.5t-54.5 -63.5l-60 41q78 133 166 133q37 0 72.5 -23t66 -46t56.5 -23q25 0 48 20.5t54 65.5l64 -37q-75 -141 -168 -141z" />
<glyph unicode="&#x2000;" horiz-adv-x="967" />
<glyph unicode="&#x2001;" horiz-adv-x="1935" />
<glyph unicode="&#x2002;" horiz-adv-x="967" />
<glyph unicode="&#x2003;" horiz-adv-x="1935" />
<glyph unicode="&#x2004;" horiz-adv-x="645" />
<glyph unicode="&#x2005;" horiz-adv-x="483" />
<glyph unicode="&#x2006;" horiz-adv-x="322" />
<glyph unicode="&#x2007;" horiz-adv-x="322" />
<glyph unicode="&#x2008;" horiz-adv-x="241" />
<glyph unicode="&#x2009;" horiz-adv-x="387" />
<glyph unicode="&#x200a;" horiz-adv-x="107" />
<glyph unicode="&#x2010;" horiz-adv-x="679" d="M121 592l14 98h451l-13 -98h-452z" />
<glyph unicode="&#x2011;" horiz-adv-x="679" d="M121 592l14 98h451l-13 -98h-452z" />
<glyph unicode="&#x2012;" horiz-adv-x="679" d="M121 592l14 98h451l-13 -98h-452z" />
<glyph unicode="&#x2013;" horiz-adv-x="880" d="M76 592l14 98h741l-12 -98h-743z" />
<glyph unicode="&#x2014;" horiz-adv-x="1320" d="M78 592l14 98h1182l-14 -98h-1182z" />
<glyph unicode="&#x2018;" horiz-adv-x="395" d="M276 1083q-35 0 -55 22t-20 54q0 25 8.5 47.5t32.5 67.5l129 244h71l-112 -275q35 -20 35 -63q0 -40 -24.5 -68.5t-64.5 -28.5z" />
<glyph unicode="&#x2019;" horiz-adv-x="395" d="M334 1518q35 0 55.5 -22t20.5 -54q0 -25 -8.5 -47.5t-32.5 -67.5l-129 -244h-72l113 275q-35 20 -35 63q0 40 24 68.5t64 28.5z" />
<glyph unicode="&#x201a;" horiz-adv-x="395" d="M141 152q35 0 55.5 -22t20.5 -54q0 -25 -8.5 -47.5t-32.5 -67.5l-129 -244h-72l113 275q-35 20 -35 63q0 40 24 68.5t64 28.5z" />
<glyph unicode="&#x201c;" horiz-adv-x="706" d="M276 1083q-35 0 -55 22t-20 54q0 25 8.5 47.5t32.5 67.5l129 244h71l-112 -275q35 -20 35 -63q0 -40 -24.5 -68.5t-64.5 -28.5zM588 1083q-35 0 -55.5 22t-20.5 54q0 25 8.5 47.5t32.5 67.5l129 244h72l-113 -275q35 -20 35 -63q0 -40 -24 -68.5t-64 -28.5z" />
<glyph unicode="&#x201d;" horiz-adv-x="706" d="M334 1518q35 0 55.5 -22t20.5 -54q0 -25 -8.5 -47.5t-32.5 -67.5l-129 -244h-72l113 275q-35 20 -35 63q0 40 24 68.5t64 28.5zM645 1518q35 0 55.5 -22t20.5 -54q0 -25 -8.5 -47.5t-32.5 -67.5l-129 -244h-72l113 275q-35 20 -35 63q0 40 24 68.5t64 28.5z" />
<glyph unicode="&#x201e;" horiz-adv-x="706" d="M141 152q35 0 55.5 -22t20.5 -54q0 -25 -8.5 -47.5t-32.5 -67.5l-129 -244h-72l113 275q-35 20 -35 63q0 40 24 68.5t64 28.5zM453 152q35 0 55 -22t20 -54q0 -25 -8.5 -47.5t-32.5 -67.5l-129 -244h-71l112 275q-34 19 -34 63q0 40 24 68.5t64 28.5z" />
<glyph unicode="&#x2022;" horiz-adv-x="530" d="M303 856q60 0 96.5 -36t36.5 -93q0 -70 -46 -118t-114 -48q-60 0 -96.5 36t-36.5 93q0 70 46 118t114 48z" />
<glyph unicode="&#x2026;" horiz-adv-x="1140" d="M117 -23q-39 0 -61.5 24t-22.5 60q0 43 27.5 74t70.5 31q40 0 63 -24.5t23 -59.5q0 -43 -28 -74t-72 -31zM498 -23q-39 0 -61.5 24t-22.5 60q0 43 27.5 74t70.5 31q40 0 63 -24.5t23 -59.5q0 -43 -28 -74t-72 -31zM877 -23q-39 0 -61.5 24t-22.5 60q0 43 27.5 74t70.5 31 q40 0 63 -24.5t23 -59.5q0 -43 -28 -74t-72 -31z" />
<glyph unicode="&#x202f;" horiz-adv-x="387" />
<glyph unicode="&#x2039;" horiz-adv-x="600" d="M473 1063l68 -49l-291 -428l172 -422l-76 -47l-219 432l12 80z" />
<glyph unicode="&#x203a;" horiz-adv-x="600" d="M268 1063l219 -434l-12 -78l-336 -434l-65 47l291 430l-172 422z" />
<glyph unicode="&#x205f;" horiz-adv-x="483" />
<glyph unicode="&#x20ac;" horiz-adv-x="987" d="M770 1284q-123 0 -220.5 -99t-158.5 -302h449l-33 -88h-436l-39 -213h403l-30 -86h-386q-32 -416 236 -416q68 0 125.5 22.5t126.5 65.5l-16 -113q-136 -78 -254 -78q-172 0 -260.5 132.5t-75.5 386.5h-140l33 86h117l39 213h-135l32 88h123q76 248 208.5 374.5 t299.5 126.5q152 0 269 -114l-60 -80q-55 51 -103.5 72.5t-113.5 21.5z" />
<glyph unicode="&#x2122;" horiz-adv-x="1478" d="M727 1403l-29 -86h-204l-99 -703h-94l98 703h-215l15 86h528zM1413 1403l-80 -789h-92l41 404q5 59 35 278l-258 -594h-84l-103 603q-13 -125 -43 -293l-67 -398h-90l143 789h123l92 -602l254 602h129z" />
<glyph unicode="&#x25fc;" horiz-adv-x="1075" d="M0 1075h1075v-1075h-1075v1075z" />
<glyph unicode="&#xfb03;" horiz-adv-x="1456" d="M1360 1071l-150 -1071h-114l137 977h-375l-133 -961q-16 -117 -49 -194t-77 -120.5t-116 -82.5l-41 80q49 29 80 65t54 100t36 163l131 950h-372l-133 -961q-12 -81 -31 -142t-42.5 -102.5t-62 -76.5t-76 -58t-96.5 -53l-30 86q71 37 109.5 71t69 103.5t46.5 182.5 l133 950h-152l15 94h151l23 160q17 128 98.5 199t216.5 71q119 0 246 -76q84 97 231 97q127 0 238 -86l-49 -76q-92 65 -186 65q-87 0 -134.5 -44.5t-60.5 -139.5l-25 -170h490zM758 1071l24 180q5 44 27 97q-99 57 -197 57q-94 0 -144 -44.5t-62 -139.5l-21 -150h373z" />
<glyph unicode="&#xfb04;" horiz-adv-x="1497" d="M1292 78q32 0 62 12l22 -84q-56 -29 -112 -29q-73 0 -111 51t-25 144l168 1206q-110 47 -211 47q-84 0 -130.5 -44.5t-59.5 -139.5l-25 -170h226l-29 -94h-209l-133 -961q-23 -171 -78 -254t-164 -143l-41 80q49 29 80 65t54 100t36 163l131 950h-372l-133 -961 q-12 -81 -31 -142t-42.5 -102.5t-62 -76.5t-76 -58t-96.5 -53l-30 86q71 37 109.5 71t69 103.5t46.5 182.5l133 950h-152l15 94h151l23 160q17 128 98.5 199t216.5 71q119 0 246 -76q81 97 229 97q127 0 234 -52l106 11l-184 -1315q-14 -88 51 -88zM758 1071l24 180 q5 44 27 97q-99 57 -197 57q-94 0 -144 -44.5t-62 -139.5l-21 -150h373z" />
</font>
</defs>
</svg>
