<?xml version="1.0" standalone="no"?>
<!DOCTYPE svg PUBLIC "-//W3C//DTD SVG 1.1//EN" "http://www.w3.org/Graphics/SVG/1.1/DTD/svg11.dtd" >
<svg xmlns="http://www.w3.org/2000/svg" xmlns:xlink="http://www.w3.org/1999/xlink" version="1.1">
<metadata></metadata>
<defs>
<font id="fira_sans_compressedtwo" horiz-adv-x="1155" >
<font-face units-per-em="2048" ascent="1638" descent="-410" />
<missing-glyph horiz-adv-x="520" />
<glyph unicode="&#xfb01;" horiz-adv-x="905" d="M418 1501q107 0 211 -71l-2 -5q-105 72 -209 72q-102 0 -151.5 -53.5t-49.5 -169.5v-215h479v-1059h-4v1055h-475v-1055h-4v1055h-154v4h154v215q0 117 50.5 172t154.5 55z" />
<glyph unicode="&#xfb02;" horiz-adv-x="954" d="M795 -14q35 0 67 16v-4q-32 -16 -67 -16q-50 0 -75.5 31.5t-25.5 88.5v1332q-149 63 -268 63q-99 0 -154 -54t-55 -157v-227h254v-4h-254v-1055h-4v1055h-154v4h154v227q0 105 56 160t157 55q124 0 270 -63h2v-1336q0 -116 97 -116z" />
<glyph horiz-adv-x="0" />
<glyph horiz-adv-x="682" />
<glyph unicode="&#xd;" horiz-adv-x="520" />
<glyph unicode=" "  horiz-adv-x="520" />
<glyph unicode="&#x09;" horiz-adv-x="520" />
<glyph unicode="&#xa0;" horiz-adv-x="520" />
<glyph unicode="!" horiz-adv-x="430" d="M217 1393v-1008h-4v1008h4zM215 20q14 0 14 -14t-14 -14t-14 14t14 14z" />
<glyph unicode="&#x22;" horiz-adv-x="602" d="M162 913v480h4v-480h-4zM436 913v480h4v-480h-4z" />
<glyph unicode="#" horiz-adv-x="802" d="M778 954h-140l-66 -512h145v-4h-146l-57 -438h-4l57 438h-389l-57 -438h-4l57 438h-149v4h149l67 512h-155v4h155l52 398h4l-52 -398h389l52 398h4l-51 -398h139v-4zM567 442l67 512h-389l-67 -512h389z" />
<glyph unicode="$" horiz-adv-x="884" d="M752 354q0 -158 -89.5 -264.5t-232.5 -107.5v-277h-4v277q-106 0 -178.5 39t-138.5 116l2 4q66 -77 137.5 -116t177.5 -39q143 0 232.5 105t89.5 263q0 77 -18 134.5t-57.5 101.5t-94 76.5t-136.5 64.5q-169 66 -233 138.5t-64 199.5q0 125 80.5 213.5t208.5 89.5v277h4 v-277q90 0 155.5 -33t121.5 -94l-2 -4q-55 62 -120 94.5t-155 32.5q-129 0 -208.5 -88t-79.5 -211q0 -125 62 -196.5t230 -137.5q167 -64 238.5 -147t71.5 -234z" />
<glyph unicode="%" horiz-adv-x="1263" d="M1016 1413h4l-766 -1431h-4zM332 1372q99 0 154 -78t55 -229q0 -150 -54.5 -232.5t-154.5 -82.5q-99 0 -154 81t-55 228q0 154 54 233.5t155 79.5zM332 1368q-98 0 -151.5 -78t-53.5 -231q0 -146 54.5 -225.5t150.5 -79.5q97 0 151 81t54 230q0 150 -54.5 226.5 t-150.5 76.5zM932 604q99 0 154 -78t55 -229q0 -150 -54.5 -232.5t-154.5 -82.5q-99 0 -154 81t-55 228q0 154 54 233.5t155 79.5zM932 600q-98 0 -151.5 -78t-53.5 -231q0 -147 54 -226t151 -79t151 81t54 230q0 150 -54.5 226.5t-150.5 76.5z" />
<glyph unicode="&#x26;" horiz-adv-x="1210" d="M524 1415q105 0 168.5 -77.5t63.5 -211.5q0 -53 -14 -99t-34.5 -80t-62 -73t-76.5 -65t-98 -70l432 -501q79 187 121 473h4q-43 -288 -123 -475l203 -236l-4 -2l-201 235q-125 -251 -368 -251q-148 0 -237 93.5t-89 248.5q0 140 61 235t193 180q-106 121 -143 196 t-37 189q0 135 67 213t174 78zM524 1411q-105 0 -171 -76.5t-66 -210.5q0 -113 36.5 -187t143.5 -196q63 44 98.5 71t76.5 65.5t61.5 72t34.5 79t14 97.5q0 132 -62 208.5t-166 76.5zM467 737q-132 -87 -193 -181.5t-61 -231.5q0 -154 88 -246t234 -92q238 0 366 250z" />
<glyph unicode="'" horiz-adv-x="327" d="M162 913v480h4v-480h-4z" />
<glyph unicode="(" horiz-adv-x="550" d="M414 1690l4 -2q-41 -74 -63.5 -115t-57 -112t-53.5 -122.5t-42.5 -127.5t-35.5 -146.5t-20.5 -160.5t-8.5 -187t8.5 -187t20.5 -160.5t35.5 -146.5t42.5 -127.5t53.5 -122.5t57 -112t63.5 -115l-4 -2q-48 86 -74 135t-64.5 130.5t-59.5 149t-42.5 157t-31 189t-9.5 212.5 t9.5 212.5t31 189t42.5 157t59.5 149t64.5 130.5t74 135z" />
<glyph unicode=")" horiz-adv-x="550" d="M137 1690q48 -86 74 -135t64.5 -130.5t59.5 -149t42.5 -157t31 -189t9.5 -212.5t-9.5 -212.5t-31 -189t-42.5 -157t-59.5 -149t-64.5 -130.5t-74 -135l-4 2q41 74 63.5 115t57 112t53.5 122.5t42.5 127.5t35.5 146.5t20.5 160.5t8.5 187t-8.5 187t-20.5 160.5 t-35.5 146.5t-42.5 127.5t-53.5 122.5t-57 112t-63.5 115z" />
<glyph unicode="*" horiz-adv-x="743" d="M631 1257l-256 -100l157 -264l-4 -2l-156 262l-159 -262l-2 2l158 264l-256 100l2 5l256 -101v328h4v-328l254 101z" />
<glyph unicode="+" horiz-adv-x="804" d="M403 993v-313h259v-4h-259v-314h-4v314h-256v4h256v313h4z" />
<glyph unicode="," horiz-adv-x="231" d="M121 20q12 0 12 -12q0 -8 -4 -20l-61 -211h-7l56 217q-11 4 -11 12q0 14 15 14z" />
<glyph unicode="-" horiz-adv-x="673" d="M143 637v4h387v-4h-387z" />
<glyph unicode="." horiz-adv-x="225" d="M113 20q14 0 14 -14t-14 -14q-15 0 -15 14t15 14z" />
<glyph unicode="/" horiz-adv-x="872" d="M629 1626l4 -2l-389 -1812l-4 2z" />
<glyph unicode="0" horiz-adv-x="919" d="M459 1372q162 0 239.5 -167.5t77.5 -526.5t-77.5 -527.5t-239.5 -168.5t-239 168.5t-77 527.5t77 526.5t239 167.5zM459 1368q-160 0 -236 -166.5t-76 -523.5t76 -524.5t236 -167.5t236.5 167.5t76.5 524.5q0 356 -76.5 523t-236.5 167z" />
<glyph unicode="1" horiz-adv-x="649" d="M403 1352v-1352h-4v1348l-305 -240l-2 4l307 240h4z" />
<glyph unicode="2" horiz-adv-x="755" d="M358 1372q127 0 198 -91t71 -232q0 -58 -8 -109.5t-21 -99t-43.5 -108t-60.5 -113t-89 -139t-111.5 -161t-144.5 -202.5q-53 -73 -81 -113h571l-2 -4h-576v4q297 413 367 519q135 207 172 341q23 85 23 185q0 141 -70.5 230t-194.5 89q-95 0 -161 -43.5t-129 -134.5l-2 2 q61 91 128.5 135.5t163.5 44.5z" />
<glyph unicode="3" horiz-adv-x="788" d="M365 1372q123 0 194.5 -86.5t71.5 -234.5q0 -154 -73 -236t-189 -92q136 -8 215.5 -97.5t79.5 -260.5q0 -169 -85.5 -276t-222.5 -107q-97 0 -165 38t-132 127l4 3q64 -88 130.5 -126t162.5 -38q136 0 219.5 105.5t83.5 273.5q0 173 -84 264.5t-239 91.5h-47v4h53 q123 0 204 83.5t81 242.5q0 146 -70.5 231.5t-191.5 85.5q-156 0 -271 -143l-2 2q114 145 273 145z" />
<glyph unicode="4" horiz-adv-x="829" d="M762 406v-5h-160v-401h-4v401h-506v7l350 964l4 -2l-350 -964h502v450h4v-450h160z" />
<glyph unicode="5" horiz-adv-x="788" d="M637 1352v-4h-479v-607q97 97 219 97q140 0 217.5 -106.5t77.5 -295.5q0 -204 -81.5 -329t-228.5 -125q-177 0 -278 147l4 2q98 -145 274 -145q146 0 226 124t80 326q0 187 -76 292.5t-215 105.5q-119 0 -219 -97h-4v615h483z" />
<glyph unicode="6" horiz-adv-x="860" d="M469 866q130 0 204.5 -102t74.5 -309q0 -236 -73 -354.5t-212 -118.5q-84 0 -146.5 44.5t-100 126.5t-55.5 190.5t-18 244.5q0 237 40.5 411.5t123 273.5t199.5 99q99 0 174 -72l-2 -4q-72 72 -172 72q-114 0 -196 -97.5t-122.5 -271t-40.5 -407.5q134 274 322 274z M463 -14q137 0 208.5 118t71.5 351q0 205 -73 306t-201 101q-55 0 -103.5 -21.5t-87.5 -62t-70 -86.5t-61 -106q0 -134 18 -241.5t54.5 -189t98.5 -125.5t145 -44z" />
<glyph unicode="7" horiz-adv-x="731" d="M647 1352v-4l-477 -1358l-4 2l477 1356h-567v4h571z" />
<glyph unicode="8" horiz-adv-x="888" d="M502 696q146 -74 205 -151.5t59 -208.5q0 -170 -84.5 -262t-232.5 -92q-155 0 -240.5 92.5t-85.5 271.5q0 142 65 237t199 165q-121 62 -167 130t-46 175q0 154 77.5 236.5t194.5 82.5q120 0 196.5 -79.5t76.5 -241.5q0 -119 -49.5 -199t-167.5 -156zM178 1053 q0 -114 53.5 -183t184.5 -133l82 -39q117 75 167 154t50 199q0 161 -75.5 239t-193.5 78q-116 0 -192 -81.5t-76 -233.5zM449 -14q146 0 229.5 91.5t83.5 258.5q0 74 -17.5 129t-59 99t-92.5 76.5t-134 72.5l-68 32q-135 -70 -199.5 -165.5t-64.5 -233.5q0 -176 84.5 -268 t237.5 -92z" />
<glyph unicode="9" horiz-adv-x="845" d="M412 1372q159 0 230 -140t71 -427q0 -147 -22 -265t-63 -206t-104.5 -156.5t-139.5 -115.5t-175 -85l-2 5q124 47 212.5 110t155 157.5t100 229.5t34.5 313q-120 -257 -308 -257q-132 0 -212 107t-80 300q0 209 83 319.5t220 110.5zM401 539q186 0 308 261v1 q0 289 -69.5 428t-227.5 139q-135 0 -217 -109.5t-82 -316.5q0 -191 79 -297t209 -106z" />
<glyph unicode=":" horiz-adv-x="225" d="M113 899q14 0 14 -14q0 -15 -14 -15q-6 0 -10.5 4.5t-4.5 10.5q0 14 15 14zM113 20q14 0 14 -14t-14 -14q-15 0 -15 14t15 14z" />
<glyph unicode=";" horiz-adv-x="231" d="M113 899q14 0 14 -14q0 -15 -14 -15q-6 0 -10.5 4.5t-4.5 10.5q0 14 15 14zM121 20q12 0 12 -12q0 -8 -4 -20l-61 -211h-7l56 217q-11 4 -11 12q0 14 15 14z" />
<glyph unicode="&#x3c;" horiz-adv-x="833" d="M680 997l2 -4l-526 -311l526 -320l-2 -4l-528 322v4z" />
<glyph unicode="=" horiz-adv-x="804" d="M143 829v5h519v-5h-519zM143 522v4h519v-4h-519z" />
<glyph unicode="&#x3e;" horiz-adv-x="833" d="M154 997l528 -313v-4l-528 -322l-2 4l526 320l-526 311z" />
<glyph unicode="?" horiz-adv-x="784" d="M408 1413q110 0 176.5 -73t66.5 -195q0 -61 -17 -109.5t-44.5 -81.5t-60.5 -62.5t-66.5 -60t-61 -66t-44.5 -89.5t-17 -121v-170h-4v170q0 68 17 122t44.5 89.5t61 66.5t66.5 60t60.5 62t44.5 81.5t17 108.5q0 120 -65 192t-174 72q-158 0 -271 -162l-4 2 q114 164 275 164zM336 20q14 0 14 -14t-14 -14t-14 14t14 14z" />
<glyph unicode="@" horiz-adv-x="1732" d="M897 1415q127 0 233.5 -40.5t181.5 -111.5t127.5 -169.5t77.5 -214.5t25 -246q0 -168 -22.5 -291t-61 -188.5t-81.5 -95t-93 -29.5q-88 0 -141 78.5t-57 223.5q-74 -298 -250 -298q-120 0 -193.5 113t-73.5 327q0 127 26.5 225.5t72 156.5t102 87t121.5 29q103 0 199 -62 v-551q0 -156 51.5 -240.5t142.5 -84.5q38 0 73 17t68.5 60t58 109.5t39.5 172.5t15 241q0 129 -25 244.5t-77 213.5t-126.5 169t-180 111t-232.5 40q-207 0 -368.5 -122.5t-247.5 -329t-86 -459.5q0 -217 53 -388t147.5 -279.5t221 -165t276.5 -56.5q76 0 158 17t143 46v-4 q-61 -29 -143 -46t-158 -17q-151 0 -278.5 57t-222.5 166t-148.5 280.5t-53.5 389.5q0 254 87 461.5t249.5 330.5t370.5 123zM1085 346v12v549q-96 60 -194 60q-64 0 -120 -28.5t-101 -86.5t-71 -155t-26 -224q0 -213 72 -324.5t191 -111.5q176 0 249 309z" />
<glyph unicode="A" horiz-adv-x="960" d="M885 0l-128 436h-554l-127 -436h-4l405 1393h4l408 -1393h-4zM204 440h552l-277 949z" />
<glyph unicode="B" horiz-adv-x="974" d="M514 737q159 -3 255.5 -99.5t96.5 -262.5q0 -201 -109.5 -288t-316.5 -87h-223v1393h184q202 0 302 -88t100 -254q0 -131 -78 -217.5t-211 -96.5zM403 1389h-182v-650h260q147 0 232.5 89t85.5 223q0 163 -98 250.5t-298 87.5zM442 4q99 0 173.5 19t131 61t86 115 t29.5 176q0 167 -99 263.5t-271 96.5h-271v-731h221z" />
<glyph unicode="C" horiz-adv-x="888" d="M575 1413q86 0 145 -31t111 -86l-2 -4q-52 55 -110.5 86t-143.5 31q-195 0 -311.5 -181.5t-116.5 -533.5q0 -337 116.5 -522.5t309.5 -185.5q155 0 271 120l2 -4q-116 -120 -273 -120q-196 0 -313 186.5t-117 525.5q0 354 117 536.5t315 182.5z" />
<glyph unicode="D" horiz-adv-x="1030" d="M393 1393q79 0 145 -15.5t133 -60.5t112.5 -118t74.5 -197t29 -289t-28.5 -292.5t-74.5 -205.5t-110.5 -128t-130 -68.5t-140.5 -18.5h-186v1393h176zM393 1389h-172v-1385h182q75 0 140 18.5t129 68t109.5 127t73.5 204.5t28 291q0 118 -15 215t-40 166t-62.5 122 t-78.5 85t-92 52.5t-99 28t-103 7.5z" />
<glyph unicode="E" horiz-adv-x="831" d="M729 1393v-4h-508v-648h436v-4h-436v-733h527v-4h-531v1393h512z" />
<glyph unicode="F" horiz-adv-x="788" d="M217 0v1393h504v-4h-500v-678h432v-4h-432v-707h-4z" />
<glyph unicode="G" horiz-adv-x="1005" d="M571 1413q82 0 145 -27.5t126 -85.5l-2 -4q-119 113 -269 113q-64 0 -123 -23.5t-114.5 -77t-96.5 -132.5t-65.5 -200t-24.5 -269q0 -364 116.5 -542.5t324.5 -178.5q151 0 280 96v614h-252l-2 4h258v-620q-136 -98 -284 -98q-209 0 -327 179.5t-118 545.5q0 148 25 269 t66 201t97 134.5t116 78t124 23.5z" />
<glyph unicode="H" horiz-adv-x="1095" d="M874 0v737h-653v-737h-4v1393h4v-652h653v652h5v-1393h-5z" />
<glyph unicode="I" horiz-adv-x="438" d="M221 1393v-1393h-4v1393h4z" />
<glyph unicode="J" horiz-adv-x="458" d="M252 1393v-1219q0 -147 -39.5 -223t-161.5 -137l-2 4q120 59 159.5 134.5t39.5 221.5v1219h4z" />
<glyph unicode="K" horiz-adv-x="858" d="M221 1393v-1391h-4v1391h4zM795 1393l-564 -643l590 -750h-6l-590 750l563 643h7z" />
<glyph unicode="L" horiz-adv-x="745" d="M221 1393v-1389h484v-4h-488v1393h4z" />
<glyph unicode="M" horiz-adv-x="1273" d="M995 1393l135 -1393h-4l-71 725q-35 356 -64 659l-354 -1210h-4l-352 1210q-2 -21 -64 -645l-70 -739h-4l133 1393h7l352 -1213l354 1213h6z" />
<glyph unicode="N" horiz-adv-x="1095" d="M879 1393v-1393h-7l-651 1389v-211v-1178h-4v1393h6l651 -1389v275v1114h5z" />
<glyph unicode="O" d="M578 1413q207 0 320.5 -179.5t113.5 -537.5q0 -357 -110.5 -535.5t-323.5 -178.5q-206 0 -320.5 179t-114.5 531q0 351 117.5 536t317.5 185zM578 1409q-199 0 -315 -184.5t-116 -532.5q0 -349 113.5 -527.5t317.5 -178.5q211 0 320.5 177.5t109.5 532.5t-112.5 534 t-317.5 179z" />
<glyph unicode="P" horiz-adv-x="915" d="M350 1393q251 0 359 -95.5t108 -304.5q0 -205 -115.5 -301t-355.5 -96h-125v-596h-4v1393h133zM346 600q238 0 352.5 94.5t114.5 298.5q0 207 -106.5 301.5t-356.5 94.5h-129v-789h125z" />
<glyph unicode="Q" d="M629 -14q144 -2 237.5 -30t169.5 -103l-4 -3q-77 75 -174.5 104.5t-267.5 27.5h-12q-206 0 -320.5 179t-114.5 531q0 351 117.5 536t317.5 185q207 0 320.5 -179.5t113.5 -537.5q0 -668 -383 -710zM147 692q0 -349 113.5 -527.5t317.5 -178.5q211 0 320.5 177.5 t109.5 532.5t-112.5 534t-317.5 179q-199 0 -315 -184.5t-116 -532.5z" />
<glyph unicode="R" horiz-adv-x="942" d="M850 0h-6l-323 687q-24 -3 -50 -3h-250v-684h-4v1393h211q206 0 293.5 -93t87.5 -264q0 -158 -77.5 -246t-206.5 -103zM221 688h250q148 0 241 87.5t93 260.5q0 170 -86.5 261.5t-290.5 91.5h-207v-701z" />
<glyph unicode="S" horiz-adv-x="905" d="M449 1413q93 0 159.5 -34t124.5 -97l-2 -4q-57 64 -123.5 97.5t-158.5 33.5q-132 0 -214.5 -90.5t-82.5 -216.5q0 -129 64 -203t237 -141q115 -44 181.5 -92t102 -121.5t35.5 -179.5q0 -164 -93 -273.5t-243 -109.5q-109 0 -184.5 40t-142.5 119l2 4q68 -79 142.5 -119 t182.5 -40q147 0 239.5 108.5t92.5 270.5q0 154 -73 238.5t-242 150.5q-174 68 -240 142.5t-66 205.5q0 129 84 220t218 91z" />
<glyph unicode="T" horiz-adv-x="790" d="M758 1393v-4h-361v-1389h-4v1389h-360v4h725z" />
<glyph unicode="U" horiz-adv-x="1054" d="M858 1393v-1047q0 -61 -11 -113.5t-36 -99.5t-62.5 -80t-93.5 -52t-127 -19q-89 0 -155 28.5t-103.5 80t-55 115t-17.5 140.5v1047h4v-1047q0 -76 17.5 -139t54 -113.5t102 -79t153.5 -28.5q87 0 151.5 28.5t102 79t55 113.5t17.5 139v1047h4z" />
<glyph unicode="V" horiz-adv-x="905" d="M834 1393l-377 -1393h-4l-381 1393h4l379 -1389l374 1389h5z" />
<glyph unicode="W" horiz-adv-x="1316" d="M1235 1393l-268 -1393h-4l-304 1389l-305 -1389h-4l-268 1393h4l266 -1389l305 1389h5l303 -1387l266 1387h4z" />
<glyph unicode="X" horiz-adv-x="784" d="M395 758l357 -758h-4l-357 756l-354 -756h-4l354 758l-303 635h4l303 -633l303 633h4z" />
<glyph unicode="Y" horiz-adv-x="802" d="M762 1393l-356 -838v-555h-5v555l-360 838h4l358 -834l355 834h4z" />
<glyph unicode="Z" horiz-adv-x="847" d="M764 1393v-4l-684 -1385h655v-4h-659v4l684 1385h-623v4h627z" />
<glyph unicode="[" horiz-adv-x="520" d="M369 1618v-4h-181v-1815h181v-4h-185v1823h185z" />
<glyph unicode="\" horiz-adv-x="872" d="M244 1626l389 -1812l-4 -2l-389 1812z" />
<glyph unicode="]" horiz-adv-x="520" d="M336 1618v-1823h-184v4h180v1815h-180v4h184z" />
<glyph unicode="^" horiz-adv-x="888" d="M438 1673l283 -594h-4l-281 590l-280 -590h-4l282 594h4z" />
<glyph unicode="_" horiz-adv-x="880" d="M92 -178v4h696v-4h-696z" />
<glyph unicode="`" horiz-adv-x="405" d="M74 1528l280 -168l-2 -4l-280 168z" />
<glyph unicode="a" horiz-adv-x="876" d="M664 225q0 -116 18 -167.5t70 -71.5l-2 -4q-53 21 -72 71.5t-19 160.5q-91 -232 -280 -232q-125 0 -193.5 87t-68.5 228q0 156 92 241t262 85h188v139q0 152 -54.5 232.5t-178.5 80.5q-113 0 -248 -69v4q132 69 248 69q126 0 182 -81t56 -236v-537zM379 -14q99 0 166 59 t114 177v396h-188q-168 0 -259 -83.5t-91 -237.5q0 -140 67 -225.5t191 -85.5z" />
<glyph unicode="b" horiz-adv-x="942" d="M510 1079q147 0 223 -136t76 -402q0 -270 -77.5 -414.5t-227.5 -144.5q-179 0 -291 219v-201h-4v1495h4v-631q59 102 129.5 158.5t167.5 56.5zM504 -14q148 0 224.5 143.5t76.5 411.5q0 264 -74.5 399t-220.5 135q-95 0 -164.5 -55.5t-132.5 -162.5v-650 q115 -221 291 -221z" />
<glyph unicode="c" horiz-adv-x="776" d="M473 1079q127 0 215 -102l-4 -2q-87 100 -211 100q-161 0 -248.5 -140t-87.5 -411q0 -265 91.5 -401.5t240.5 -136.5q128 0 221 106l4 -2q-94 -108 -225 -108q-152 0 -244 137.5t-92 404.5q0 273 89 414t251 141z" />
<glyph unicode="d" horiz-adv-x="950" d="M737 1495h4v-1495h-4v204q-48 -105 -114.5 -163.5t-169.5 -58.5q-149 0 -234.5 139.5t-85.5 404.5q0 257 87.5 405t244.5 148q98 0 166.5 -61t105.5 -149v626zM453 -14q103 0 168.5 59t115.5 168v648q-38 92 -106 153t-166 61q-155 0 -241.5 -146.5t-86.5 -402.5 q0 -263 84 -401.5t232 -138.5z" />
<glyph unicode="e" horiz-adv-x="882" d="M760 590q0 -45 -2 -74h-621q1 -253 88.5 -391.5t237.5 -138.5q78 0 137 29t119 91l2 -4q-62 -62 -120 -91t-138 -29q-153 0 -241.5 140.5t-88.5 395.5q0 263 88.5 412t241.5 149q148 0 222.5 -135t74.5 -354zM754 520q2 27 2 70q0 142 -29.5 248t-97 171.5t-166.5 65.5 q-150 0 -238 -147.5t-88 -407.5h617z" />
<glyph unicode="f" horiz-adv-x="503" d="M401 1497q-82 0 -133 -55t-51 -156v-227h254v-4h-254v-1055h-4v1055h-154v4h154v227q0 104 51.5 159.5t136.5 55.5q99 0 187 -67l-2 -4q-88 67 -185 67z" />
<glyph unicode="g" horiz-adv-x="817" d="M776 1114l2 -4q-96 -35 -321 -35q125 -20 186.5 -112t61.5 -234q0 -162 -75.5 -247t-201.5 -85q-83 0 -154 41q-92 -71 -92 -176q0 -147 203 -147h113q124 0 193 -64t69 -172q0 -123 -85.5 -197.5t-250.5 -74.5q-176 0 -254 61t-78 209h4q0 -146 77 -206t251 -60 q162 0 247 73t85 195q0 107 -68 169.5t-190 62.5h-113q-207 0 -207 151q0 101 92 178q-145 90 -145 291q0 161 78.5 254.5t202.5 93.5t200 5.5t102.5 11t67.5 18.5zM406 1075q-125 0 -201 -94t-76 -250q0 -79 25 -143.5t67.5 -104.5t95.5 -61t111 -21q123 0 197.5 84 t74.5 244q0 92 -25 161.5t-67.5 108.5t-93 57.5t-108.5 18.5z" />
<glyph unicode="h" horiz-adv-x="972" d="M547 1079q115 0 170 -81t55 -224v-774h-4v774q0 142 -53.5 221.5t-167.5 79.5q-206 0 -334 -282v-793h-4v1495h4v-694q129 278 334 278z" />
<glyph unicode="i" horiz-adv-x="421" d="M211 1446q12 0 12 -12q0 -13 -12 -13t-12 13q0 12 12 12zM213 1059v-1059h-4v1059h4z" />
<glyph unicode="j" horiz-adv-x="423" d="M213 1446q12 0 12 -12q0 -13 -12 -13t-12 13q0 12 12 12zM215 1059v-1125q0 -128 -37.5 -197t-128.5 -128l-2 4q90 58 127 126.5t37 194.5v1125h4z" />
<glyph unicode="k" horiz-adv-x="751" d="M213 1495v-1495h-4v1495h4zM666 1059l-437 -479l482 -580h-6l-482 580l436 479h7z" />
<glyph unicode="l" horiz-adv-x="458" d="M299 -18q-50 0 -75 31.5t-25 88.5v1393h4v-1393q0 -116 96 -116q36 0 68 16v-4q-32 -16 -68 -16z" />
<glyph unicode="m" horiz-adv-x="1417" d="M1008 1079q102 0 155.5 -83t53.5 -222v-774h-5v774q0 138 -51.5 219.5t-152.5 81.5q-178 0 -293 -282v-793h-4v784q0 130 -52.5 210.5t-152.5 80.5q-178 0 -293 -282v-793h-4v1059h4v-257q114 277 293 277q96 0 150.5 -74.5t58.5 -203.5q114 278 293 278z" />
<glyph unicode="n" horiz-adv-x="972" d="M547 1079q115 0 170 -81t55 -224v-774h-4v774q0 142 -53.5 221.5t-167.5 79.5q-206 0 -334 -282v-793h-4v1059h4v-258q129 278 334 278z" />
<glyph unicode="o" horiz-adv-x="935" d="M471 1079q158 0 245 -134.5t87 -407.5q0 -281 -88 -418t-248 -137q-159 0 -246.5 136.5t-87.5 409.5q0 279 89.5 415t248.5 136zM471 1075q-157 0 -245.5 -135.5t-88.5 -411.5q0 -272 86 -407t244 -135t245 136.5t87 414.5q0 271 -85.5 404.5t-242.5 133.5z" />
<glyph unicode="p" horiz-adv-x="942" d="M514 1079q295 0 295 -538q0 -272 -77 -415.5t-226 -143.5q-179 0 -293 219v-590h-4v1448h4v-195q124 215 301 215zM506 -14q147 0 223 142t76 413q0 534 -291 534q-95 0 -167 -55.5t-134 -161.5v-651q118 -221 293 -221z" />
<glyph unicode="q" horiz-adv-x="950" d="M737 1059h4v-1448h-4v593q-49 -105 -114 -163.5t-168 -58.5q-151 0 -236.5 139.5t-85.5 404.5q0 259 87.5 406t244.5 147q98 0 166.5 -60.5t105.5 -147.5v188zM455 -14q102 0 167 59t115 168v650q-38 90 -106.5 151t-165.5 61q-156 0 -242 -145.5t-86 -403.5 q0 -264 84.5 -402t233.5 -138z" />
<glyph unicode="r" horiz-adv-x="604" d="M487 1079q43 0 76 -10v-4q-33 10 -76 10q-105 0 -168.5 -73t-105.5 -246v-756h-4v1059h4v-289q41 166 105.5 237.5t168.5 71.5z" />
<glyph unicode="s" horiz-adv-x="765" d="M377 1079q79 0 137 -26t111 -80l-2 -4q-54 55 -111 80.5t-135 25.5q-102 0 -173 -69.5t-71 -176.5q0 -90 55.5 -145t198.5 -119q78 -34 122.5 -59.5t79 -60t47.5 -76.5t13 -103q0 -130 -75 -207t-193 -77q-93 0 -157.5 34.5t-123.5 100.5l2 4q59 -66 123 -100.5 t156 -34.5q116 0 190 76.5t74 203.5q0 49 -10 85.5t-27 64t-51 52.5t-72 45t-100 48q-144 64 -200 120t-56 148q0 109 72 179.5t176 70.5z" />
<glyph unicode="t" horiz-adv-x="540" d="M526 43l2 -4q-75 -57 -157 -57t-128 54.5t-46 153.5v865h-146v4h146v274h4v-274h245v-4h-245v-865q0 -98 45 -151t125 -53q81 0 155 57z" />
<glyph unicode="u" horiz-adv-x="964" d="M756 1059v-1059h-4v238q-115 -256 -310 -256q-115 0 -178 78t-63 214v785h4v-785q0 -134 62 -211t175 -77q192 0 310 260v813h4z" />
<glyph unicode="v" horiz-adv-x="745" d="M688 1059l-305 -1059h-4l-322 1059h4l320 -1055l303 1055h4z" />
<glyph unicode="w" horiz-adv-x="1138" d="M1067 1059l-238 -1059h-4l-256 1055l-256 -1055h-4l-237 1059h4l235 -1055l256 1055h4l256 -1055l236 1055h4z" />
<glyph unicode="x" horiz-adv-x="731" d="M365 569l315 -569h-4l-314 567l-307 -567h-4l309 569l-264 490h4l262 -488l269 488h4z" />
<glyph unicode="y" horiz-adv-x="743" d="M57 1059h4l322 -1059h-4zM682 1059h4l-299 -1059q-23 -80 -38 -124t-37.5 -92.5t-48 -75.5t-63 -52t-89.5 -43l-2 4q52 18 89 42.5t62.5 51.5t47.5 74t37 91.5t38 123.5z" />
<glyph unicode="z" horiz-adv-x="690" d="M623 1059v-4l-557 -1051h538v-4h-545v4l557 1051h-505v4h512z" />
<glyph unicode="{" horiz-adv-x="546" d="M387 1655v-4q-131 0 -131 -191v-586q0 -75 -33.5 -117t-93.5 -42q60 0 93.5 -42.5t33.5 -117.5v-586q0 -190 131 -190v-4q-135 0 -135 192v588q0 77 -34 117.5t-93 40.5v4q59 0 93 40t34 117v588q0 193 135 193z" />
<glyph unicode="|" horiz-adv-x="704" d="M354 1638v-1837h-4v1837h4z" />
<glyph unicode="}" horiz-adv-x="546" d="M160 1655q135 0 135 -193v-588q0 -77 34 -117t93 -40v-4q-59 0 -93 -40.5t-34 -117.5v-588q0 -192 -135 -192v4q131 0 131 190v586q0 75 33.5 117.5t93.5 42.5q-60 0 -93.5 42t-33.5 117v586q0 191 -131 191v4z" />
<glyph unicode="~" horiz-adv-x="759" d="M504 596q-28 0 -62 17.5t-60 39t-60 39t-62 17.5q-36 0 -62.5 -23t-52.5 -65h-4q53 92 119 92q36 0 80 -28.5t87 -56.5t77 -28q67 0 110 88h4q-39 -92 -114 -92z" />
<glyph unicode="&#xa1;" horiz-adv-x="430" d="M215 899q14 0 14 -14q0 -15 -14 -15t-14 15q0 14 14 14zM217 520v-905h-4v905h4z" />
<glyph unicode="&#xa2;" horiz-adv-x="776" d="M690 92l4 -2q-94 -108 -225 -108h-4v-277h-4v277q-148 4 -238 142t-90 400q0 272 88.5 413t249.5 142v297h4v-297q124 -1 213 -102l-4 -2q-87 100 -211 100q-161 0 -248.5 -140t-87.5 -411q0 -265 91.5 -401.5t240.5 -136.5q128 0 221 106z" />
<glyph unicode="&#xa3;" horiz-adv-x="825" d="M496 1368q-118 0 -180 -92.5t-62 -239.5v-307h352v-4h-352v-483q0 -99 -29.5 -152t-97.5 -86h584v-4h-594v4q71 33 102 85.5t31 152.5v483h-94v4h94v307q0 149 62.5 242.5t183.5 93.5q135 0 221 -125l-4 -2q-84 123 -217 123z" />
<glyph unicode="&#xa4;" horiz-adv-x="942" d="M748 694q0 -165 -87 -262l130 -153l-5 -3l-128 153q-75 -81 -189 -81q-112 0 -187 81l-126 -153l-4 3l127 153q-86 96 -86 262q0 164 80 260l-121 152l4 2l120 -151q75 87 193 87q122 0 197 -89l120 153l5 -2l-122 -154q79 -97 79 -258zM469 352q119 0 196.5 90.5 t77.5 251.5q0 159 -75.5 252.5t-198.5 93.5q-117 0 -191 -86h1h-1q-81 -94 -81 -260q0 -161 77 -251.5t195 -90.5z" />
<glyph unicode="&#xa5;" horiz-adv-x="786" d="M745 1352l-349 -697h222v-4h-223v-270h223v-4h-223v-377h-4v377h-215v4h215v270h-215v4h214l-349 697h4l348 -695l348 695h4z" />
<glyph unicode="&#xa6;" horiz-adv-x="704" d="M354 1638v-731h-4v731h4zM354 537v-736h-4v736h4z" />
<glyph unicode="&#xa7;" horiz-adv-x="890" d="M565 321q58 -36 81.5 -81.5t23.5 -114.5q0 -113 -67 -179.5t-173 -66.5q-131 0 -237 84l2 4q106 -84 235 -84q105 0 170.5 65t65.5 177q0 96 -49.5 148.5t-184.5 105.5q-140 57 -194 113.5t-54 164.5q0 81 38.5 145.5t119.5 129.5q-65 40 -90 85t-25 113q0 112 68.5 177 t167.5 65q115 0 225 -82l-2 -4q-107 82 -223 82q-97 0 -164.5 -63.5t-67.5 -174.5q0 -91 49.5 -144.5t190.5 -113.5q133 -57 184.5 -117.5t51.5 -172.5q0 -163 -142 -261zM188 657q0 -105 53 -161.5t191 -112.5q80 -30 129 -60q141 96 141 259q0 111 -49.5 170t-181.5 116 q-79 33 -126 61q-82 -65 -119.5 -128t-37.5 -144z" />
<glyph unicode="&#xa8;" horiz-adv-x="399" d="M86 1415q12 0 12 -12t-12 -12t-12 12t12 12zM338 1415q12 0 12 -12t-12 -12t-12 12t12 12z" />
<glyph unicode="&#xa9;" horiz-adv-x="1359" d="M680 1456q201 0 324.5 -148.5t123.5 -416.5q0 -264 -124 -414.5t-324 -150.5q-201 0 -325 148.5t-124 416.5q0 264 124.5 414.5t324.5 150.5zM680 1452q-198 0 -321 -149t-123 -412q0 -267 122.5 -414t321.5 -147q198 0 321 149t123 412q0 267 -122.5 414t-321.5 147z M676 1233q78 0 131 -53l-2 -4q-53 53 -129 53q-37 0 -71.5 -18.5t-66 -55.5t-50.5 -104.5t-19 -155.5q0 -166 58 -251t149 -85q85 0 147 62l2 -5q-57 -61 -149 -61q-93 0 -152 86.5t-59 253.5q0 89 19.5 157t51 106t67.5 56.5t73 18.5z" />
<glyph unicode="&#xaa;" horiz-adv-x="847" d="M430 1051h168v135q0 203 -180 203q-93 0 -203 -52l-2 4q110 52 205 52q184 0 184 -207v-453q0 -73 15 -109.5t57 -50.5l-2 -4q-43 17 -58.5 51.5t-15.5 104.5v2q-79 -158 -231 -158q-96 0 -149.5 66t-53.5 172q0 116 71 180t195 64zM598 735v312h-166q-124 0 -194 -62.5 t-70 -177.5q0 -104 52.5 -169t146.5 -65q152 0 231 162zM166 4h518v-4h-518v4z" />
<glyph unicode="&#xab;" horiz-adv-x="915" d="M414 1012l4 -2l-240 -420l242 -418l-4 -2l-242 418v4zM735 1012l4 -2l-239 -420l241 -418l-4 -2l-241 418v4z" />
<glyph unicode="&#xac;" horiz-adv-x="821" d="M678 659v-219h-4v215h-531v4h535z" />
<glyph unicode="&#xad;" horiz-adv-x="673" d="M143 637v4h387v-4h-387z" />
<glyph unicode="&#xae;" horiz-adv-x="1064" d="M532 1452q160 0 254.5 -113.5t94.5 -306.5q0 -198 -90.5 -314t-258.5 -116q-160 0 -254 113.5t-94 306.5q0 198 90 314t258 116zM532 606q167 0 256 114.5t89 311.5q0 192 -93.5 304t-251.5 112q-167 0 -255.5 -114.5t-88.5 -311.5q0 -192 93 -304t251 -112zM668 1159 q0 -68 -32 -104.5t-78 -40.5l124 -254h-4l-124 254h-130v-252h-4v547h94q73 0 113.5 -37.5t40.5 -112.5zM545 1018q52 0 85.5 36t33.5 105q0 72 -39 109t-111 37h-90v-287h121z" />
<glyph unicode="&#xaf;" horiz-adv-x="442" d="M391 1411h-319v4h319v-4z" />
<glyph unicode="&#xb0;" horiz-adv-x="843" d="M371 862q-93 0 -152 73.5t-59 203.5q0 126 58.5 200t152.5 74q99 0 155 -73.5t56 -202.5q0 -132 -55.5 -203.5t-155.5 -71.5zM371 866q99 0 153 70.5t54 200.5q0 128 -54.5 200t-152.5 72q-92 0 -149.5 -73t-57.5 -197q0 -129 57.5 -201t149.5 -72z" />
<glyph unicode="&#xb1;" horiz-adv-x="804" d="M403 993v-313h259v-4h-259v-314h-4v314h-256v4h256v313h4zM143 0v4h519v-4h-519z" />
<glyph unicode="&#xb2;" horiz-adv-x="671" d="M334 1503q83 0 126.5 -55.5t43.5 -151.5q0 -53 -11 -99t-27.5 -87t-65.5 -114t-92.5 -133.5t-141.5 -191.5q-8 -11 -12 -16h370v-4h-377v4q55 74 79.5 106.5t66 88.5t57.5 79t44 65t37 60.5t26 50t21.5 49.5t11.5 44.5t8.5 49t1.5 48.5q0 95 -42.5 149t-123.5 54 q-58 0 -99.5 -26.5t-80.5 -81.5l-4 2q77 110 184 110z" />
<glyph unicode="&#xb3;" horiz-adv-x="671" d="M338 1503q80 0 127 -55.5t47 -144.5q0 -94 -45.5 -145t-112.5 -58q79 -5 128.5 -61t49.5 -160q0 -107 -55 -173.5t-145 -66.5q-63 0 -108 24.5t-85 79.5l4 2q39 -55 83 -78.5t106 -23.5q89 0 142.5 65.5t53.5 170.5t-52.5 162t-143.5 57h-37v4h41q72 0 122 52t50 149 q0 88 -46 142t-124 54q-101 0 -174 -90l-4 2q77 92 178 92z" />
<glyph unicode="&#xb4;" horiz-adv-x="405" d="M352 1528l2 -4l-280 -168l-2 4z" />
<glyph unicode="&#xb5;" horiz-adv-x="974" d="M799 2h-4q-41 156 -45 299q-47 -146 -129.5 -232.5t-192.5 -86.5q-91 0 -148 58t-67 171v-328v-272h-4v1448h4v-785q0 -150 59.5 -219t155.5 -69q109 0 191 87.5t131 235.5v750h4v-731q0 -166 45 -326z" />
<glyph unicode="&#xb6;" horiz-adv-x="1144" d="M573 1393h254v-1782h-4v1778h-248v-1778h-4v1028q-94 0 -164.5 31t-111 84.5t-59.5 118.5t-19 143q0 177 97.5 277t258.5 100z" />
<glyph unicode="&#xb7;" horiz-adv-x="225" d="M113 688q14 0 14 -14q0 -15 -14 -15q-6 0 -10.5 4.5t-4.5 10.5q0 14 15 14z" />
<glyph unicode="&#xb8;" horiz-adv-x="339" d="M145 -16l-8 -152q76 -3 114 -30.5t38 -90.5q0 -64 -33.5 -94.5t-81.5 -30.5q-57 0 -102 33l2 4q42 -33 100 -33q47 0 79 29t32 92q0 58 -35.5 87t-116.5 30l8 156h4z" />
<glyph unicode="&#xb9;" horiz-adv-x="671" d="M387 1489v-838h-4v834l-199 -148l-2 4l201 148h4z" />
<glyph unicode="&#xba;" horiz-adv-x="841" d="M422 1393q127 0 197.5 -102.5t70.5 -303.5q0 -210 -71 -314t-199 -104t-198 104t-70 308q0 207 72 309.5t198 102.5zM422 1389q-125 0 -195.5 -101t-70.5 -307q0 -202 68.5 -305t195.5 -103t196.5 103t69.5 311q0 200 -69 301t-195 101zM162 0v4h518v-4h-518z" />
<glyph unicode="&#xbb;" horiz-adv-x="915" d="M180 1012l240 -420v-4l-242 -418l-4 2l242 418l-240 420zM502 1012l239 -420v-4l-241 -418l-4 2l241 418l-239 420z" />
<glyph unicode="&#xbc;" horiz-adv-x="1464" d="M1069 1501h4l-678 -1638h-4zM182 1245l201 148h4v-838h-4v834l-199 -148zM1346 252v-4h-103v-248h-4v248h-330v6l228 598l4 -2l-228 -598h326v278h4v-278h103z" />
<glyph unicode="&#xbd;" horiz-adv-x="1464" d="M1069 1501h4l-678 -1638h-4zM387 1393v-838h-4v834l-199 -148l-2 4l201 148h4zM1126 852q83 0 126.5 -55.5t43.5 -151.5q0 -53 -11 -99t-27.5 -87t-65.5 -114t-92.5 -133.5t-141.5 -191.5q-8 -11 -12 -16h371v-4h-377v4q67 89 98 130.5t76 104t63.5 90.5t44.5 71.5 t34.5 67t19.5 57t13.5 60.5t2.5 60q0 95 -42.5 149t-123.5 54q-58 0 -99.5 -27t-80.5 -82l-4 2q78 111 184 111z" />
<glyph unicode="&#xbe;" horiz-adv-x="1464" d="M1069 1501h4l-678 -1638h-4zM532 782q0 -106 -55 -172.5t-145 -66.5q-63 0 -108 24.5t-85 79.5l4 2q39 -55 83 -78.5t106 -23.5q89 0 142.5 65t53.5 170t-52.5 162t-143.5 57h-37v5h41q72 0 122 51.5t50 148.5q0 88 -46 142.5t-124 54.5q-101 0 -174 -90l-4 2 q77 92 178 92q80 0 127 -56t47 -145q0 -94 -45.5 -144.5t-112.5 -57.5q79 -5 128.5 -61.5t49.5 -160.5zM1346 252v-4h-103v-248h-4v248h-330v6l228 598l4 -2l-228 -598h326v278h4v-278h103z" />
<glyph unicode="&#xbf;" horiz-adv-x="784" d="M446 870q-14 0 -14 15q0 14 14 14q15 0 15 -14q0 -6 -4.5 -10.5t-10.5 -4.5zM373 -393q-102 0 -171 74t-69 180q0 60 17 107.5t44.5 80t60.5 61.5t66.5 59.5t61 65.5t44.5 88.5t17 120.5v78h5v-78q0 -68 -17 -121.5t-44.5 -89t-61 -66t-67 -59t-61 -60.5t-44.5 -79.5 t-17 -107.5q0 -105 67 -177.5t169 -72.5q163 0 274 164l4 -4q-114 -164 -278 -164z" />
<glyph unicode="&#xc0;" horiz-adv-x="960" d="M631 1583l-2 -4l-279 141l2 4zM885 0l-128 436h-554l-127 -436h-4l405 1393h4l408 -1393h-4zM204 440h552l-277 949z" />
<glyph unicode="&#xc1;" horiz-adv-x="960" d="M614 1720l-278 -141l-2 4l278 141zM885 0l-128 436h-554l-127 -436h-4l405 1393h4l408 -1393h-4zM204 440h552l-277 949z" />
<glyph unicode="&#xc2;" horiz-adv-x="960" d="M477 1737l-178 -160l-4 2l180 162h4l185 -162l-5 -2zM885 0l-128 436h-554l-127 -436h-4l405 1393h4l408 -1393h-4zM204 440h552l-277 949z" />
<glyph unicode="&#xc3;" horiz-adv-x="960" d="M381 1753q-29 0 -50.5 -16t-51.5 -56l-5 2q30 40 53 57t54 17q33 0 93.5 -45t98.5 -45q33 0 56.5 17.5t50.5 58.5l4 -2q-27 -42 -52 -60t-59 -18q-39 0 -99.5 45t-92.5 45zM885 0l-128 436h-554l-127 -436h-4l405 1393h4l408 -1393h-4zM204 440h552l-277 949z" />
<glyph unicode="&#xc4;" horiz-adv-x="960" d="M367 1649q-13 0 -13 12t13 12q12 0 12 -12t-12 -12zM618 1649q-12 0 -12 12t12 12q13 0 13 -12t-13 -12zM885 0l-128 436h-554l-127 -436h-4l405 1393h4l408 -1393h-4zM204 440h552l-277 949z" />
<glyph unicode="&#xc5;" horiz-adv-x="960" d="M479 1599q-51 0 -78.5 35.5t-27.5 94.5t28.5 95t77.5 36q51 0 79 -35t28 -94t-29 -95.5t-78 -36.5zM479 1855q-47 0 -74.5 -35t-27.5 -91q0 -58 26.5 -91.5t75.5 -33.5q47 0 75 35.5t28 91.5q0 58 -27 91t-76 33zM885 0l-128 436h-554l-127 -436h-4l405 1393h4l408 -1393 h-4zM204 440h552l-277 949z" />
<glyph unicode="&#xc6;" horiz-adv-x="1259" d="M782 4h394v-4h-398l-90 420h-516l-133 -420h-4l442 1393h606v-4h-600l140 -648h444v-4h-443zM173 424h514l-208 965z" />
<glyph unicode="&#xc7;" horiz-adv-x="888" d="M573 -18h-2l-8 -150q76 -3 114 -30.5t38 -90.5q0 -64 -33.5 -94.5t-81.5 -30.5q-57 0 -102 33l2 4q42 -33 100 -33q47 0 79 29t32 92q0 58 -35.5 87t-116.5 30l8 154q-194 3 -309 189.5t-115 522.5q0 354 117 536.5t315 182.5q86 0 145 -31t111 -86l-2 -4 q-52 55 -110.5 86t-143.5 31q-195 0 -311.5 -181.5t-116.5 -533.5q0 -337 116.5 -522.5t309.5 -185.5q155 0 271 120l2 -4q-116 -120 -273 -120z" />
<glyph unicode="&#xc8;" horiz-adv-x="831" d="M348 1724l279 -141l-2 -4l-279 141zM729 1393v-4h-508v-648h436v-4h-436v-733h527v-4h-531v1393h512z" />
<glyph unicode="&#xc9;" horiz-adv-x="831" d="M608 1724l2 -4l-278 -141l-2 4zM729 1393v-4h-508v-648h436v-4h-436v-733h527v-4h-531v1393h512z" />
<glyph unicode="&#xca;" horiz-adv-x="831" d="M295 1577l-4 2l180 162h4l184 -162l-4 -2l-182 160zM729 1393v-4h-508v-648h436v-4h-436v-733h527v-4h-531v1393h512z" />
<glyph unicode="&#xcb;" horiz-adv-x="831" d="M362 1673q13 0 13 -12t-13 -12q-12 0 -12 12t12 12zM614 1673q13 0 13 -12t-13 -12q-12 0 -12 12t12 12zM729 1393v-4h-508v-648h436v-4h-436v-733h527v-4h-531v1393h512z" />
<glyph unicode="&#xcc;" horiz-adv-x="438" d="M92 1724l279 -141l-2 -4l-279 141zM221 1393v-1393h-4v1393h4z" />
<glyph unicode="&#xcd;" horiz-adv-x="438" d="M352 1724l2 -4l-278 -141l-2 4zM221 1393v-1393h-4v1393h4z" />
<glyph unicode="&#xce;" horiz-adv-x="438" d="M39 1577l-4 2l180 162h4l184 -162l-4 -2l-182 160zM221 1393v-1393h-4v1393h4z" />
<glyph unicode="&#xcf;" horiz-adv-x="438" d="M106 1673q13 0 13 -12t-13 -12q-12 0 -12 12t12 12zM358 1673q13 0 13 -12t-13 -12q-12 0 -12 12t12 12zM221 1393v-1393h-4v1393h4z" />
<glyph unicode="&#xd0;" horiz-adv-x="1021" d="M385 1393q79 0 145 -15.5t133 -60.5t112.5 -118t74.5 -197t29 -289t-28.5 -292.5t-74.5 -205.5t-110.5 -128t-130 -68.5t-140.5 -18.5h-186v721h-158v4h158v668h176zM395 4q75 0 140 18.5t129 68t109 127t73 204.5t28 291q0 118 -14.5 215t-40 166t-62.5 122t-78.5 85 t-92 52.5t-98.5 28t-103 7.5h-172v-664h330v-4h-330v-717h182z" />
<glyph unicode="&#xd1;" horiz-adv-x="1095" d="M649 1663q-39 0 -99.5 45t-92.5 45q-29 0 -51 -16.5t-52 -55.5l-4 2q30 40 53 57t54 17q33 0 93.5 -45t98.5 -45q33 0 56.5 17.5t50.5 58.5l4 -2q-27 -42 -52 -60t-59 -18zM879 1393v-1393h-7l-651 1389v-211v-1178h-4v1393h6l651 -1389v275v1114h5z" />
<glyph unicode="&#xd2;" d="M453 1724l278 -141l-2 -4l-278 141zM578 1413q207 0 320.5 -179.5t113.5 -537.5q0 -357 -110.5 -535.5t-323.5 -178.5q-206 0 -320.5 179t-114.5 531q0 351 117.5 536t317.5 185zM578 1409q-199 0 -315 -184.5t-116 -532.5q0 -349 113.5 -527.5t317.5 -178.5 q211 0 320.5 177.5t109.5 532.5t-112.5 534t-317.5 179z" />
<glyph unicode="&#xd3;" d="M713 1724l2 -4l-279 -141l-2 4zM578 1413q207 0 320.5 -179.5t113.5 -537.5q0 -357 -110.5 -535.5t-323.5 -178.5q-206 0 -320.5 179t-114.5 531q0 351 117.5 536t317.5 185zM578 1409q-199 0 -315 -184.5t-116 -532.5q0 -349 113.5 -527.5t317.5 -178.5 q211 0 320.5 177.5t109.5 532.5t-112.5 534t-317.5 179z" />
<glyph unicode="&#xd4;" d="M399 1577l-4 2l180 162h5l184 -162l-4 -2l-182 160zM578 1413q207 0 320.5 -179.5t113.5 -537.5q0 -357 -110.5 -535.5t-323.5 -178.5q-206 0 -320.5 179t-114.5 531q0 351 117.5 536t317.5 185zM578 1409q-199 0 -315 -184.5t-116 -532.5q0 -349 113.5 -527.5 t317.5 -178.5q211 0 320.5 177.5t109.5 532.5t-112.5 534t-317.5 179z" />
<glyph unicode="&#xd5;" d="M674 1663q-39 0 -100 45t-93 45q-29 0 -50.5 -16t-51.5 -56l-4 2q30 40 53 57t53 17q33 0 94 -45t99 -45q33 0 56 17.5t50 58.5l4 -2q-28 -42 -52 -60t-58 -18zM578 1413q207 0 320.5 -179.5t113.5 -537.5q0 -357 -110.5 -535.5t-323.5 -178.5q-206 0 -320.5 179 t-114.5 531q0 351 117.5 536t317.5 185zM578 1409q-199 0 -315 -184.5t-116 -532.5q0 -349 113.5 -527.5t317.5 -178.5q211 0 320.5 177.5t109.5 532.5t-112.5 534t-317.5 179z" />
<glyph unicode="&#xd6;" d="M467 1673q12 0 12 -12t-12 -12t-12 12t12 12zM719 1673q12 0 12 -12t-12 -12t-12 12t12 12zM578 1413q207 0 320.5 -179.5t113.5 -537.5q0 -357 -110.5 -535.5t-323.5 -178.5q-206 0 -320.5 179t-114.5 531q0 351 117.5 536t317.5 185zM578 1409q-199 0 -315 -184.5 t-116 -532.5q0 -349 113.5 -527.5t317.5 -178.5q211 0 320.5 177.5t109.5 532.5t-112.5 534t-317.5 179z" />
<glyph unicode="&#xd7;" horiz-adv-x="802" d="M623 909l4 -2l-221 -276l221 -279l-4 -2l-222 277l-221 -277l-4 2l221 279l-221 276l4 2l221 -276z" />
<glyph unicode="&#xd8;" d="M743 1378q130 -62 199.5 -233t69.5 -449q0 -357 -110.5 -535.5t-323.5 -178.5q-86 0 -158 32l-58 -225l-4 2l58 225q-131 61 -202 231.5t-71 444.5q0 351 117.5 536t317.5 185q89 0 161 -33l56 232l4 -2zM147 692q0 -272 70 -441.5t199 -230.5l323 1355q-74 34 -161 34 q-199 0 -315 -184.5t-116 -532.5zM578 -14q211 0 320.5 177.5t109.5 532.5q0 549 -265 677l-323 -1355q68 -32 158 -32z" />
<glyph unicode="&#xd9;" horiz-adv-x="1054" d="M401 1724l279 -141l-2 -4l-279 141zM858 1393v-1047q0 -61 -11 -113.5t-36 -99.5t-62.5 -80t-93.5 -52t-127 -19q-89 0 -155 28.5t-103.5 80t-55 115t-17.5 140.5v1047h4v-1047q0 -76 17.5 -139t54 -113.5t102 -79t153.5 -28.5q87 0 151.5 28.5t102 79t55 113.5t17.5 139 v1047h4z" />
<glyph unicode="&#xda;" horiz-adv-x="1054" d="M662 1724l2 -4l-279 -141l-2 4zM858 1393v-1047q0 -61 -11 -113.5t-36 -99.5t-62.5 -80t-93.5 -52t-127 -19q-89 0 -155 28.5t-103.5 80t-55 115t-17.5 140.5v1047h4v-1047q0 -76 17.5 -139t54 -113.5t102 -79t153.5 -28.5q87 0 151.5 28.5t102 79t55 113.5t17.5 139 v1047h4z" />
<glyph unicode="&#xdb;" horiz-adv-x="1054" d="M348 1577l-4 2l180 162h4l185 -162l-4 -2l-183 160zM858 1393v-1047q0 -61 -11 -113.5t-36 -99.5t-62.5 -80t-93.5 -52t-127 -19q-89 0 -155 28.5t-103.5 80t-55 115t-17.5 140.5v1047h4v-1047q0 -76 17.5 -139t54 -113.5t102 -79t153.5 -28.5q87 0 151.5 28.5t102 79 t55 113.5t17.5 139v1047h4z" />
<glyph unicode="&#xdc;" horiz-adv-x="1054" d="M416 1673q12 0 12 -12t-12 -12q-13 0 -13 12t13 12zM668 1673q12 0 12 -12t-12 -12q-13 0 -13 12t13 12zM858 1393v-1047q0 -61 -11 -113.5t-36 -99.5t-62.5 -80t-93.5 -52t-127 -19q-89 0 -155 28.5t-103.5 80t-55 115t-17.5 140.5v1047h4v-1047q0 -76 17.5 -139 t54 -113.5t102 -79t153.5 -28.5q87 0 151.5 28.5t102 79t55 113.5t17.5 139v1047h4z" />
<glyph unicode="&#xdd;" horiz-adv-x="802" d="M535 1724l2 -4l-279 -141l-2 4zM762 1393l-356 -838v-555h-5v555l-360 838h4l358 -834l355 834h4z" />
<glyph unicode="&#xde;" horiz-adv-x="915" d="M360 1126q246 0 351.5 -94.5t105.5 -312.5q0 -214 -113 -309t-348 -95h-135v-315h-4v1393h4v-267h139zM356 319q233 0 345 94t112 306q0 216 -104 309.5t-349 93.5h-139v-803h135z" />
<glyph unicode="&#xdf;" horiz-adv-x="956" d="M485 1501q112 0 174 -66.5t62 -181.5q0 -60 -21 -109.5t-50.5 -83t-59.5 -64t-51 -67t-21 -77.5q0 -37 18 -69t47.5 -57.5t64.5 -52t70 -61t64.5 -76t47.5 -105t18 -140.5q0 -145 -60 -228t-167 -83q-84 0 -154 47l2 4q68 -47 152 -47q105 0 164 82t59 225q0 77 -18 140 t-47.5 104.5t-64.5 75.5t-70 61t-64.5 52.5t-47.5 57.5t-18 70q0 41 21 78t51 67.5t59.5 64t50.5 83t21 108.5q0 113 -61.5 178.5t-170.5 65.5q-121 0 -196.5 -89.5t-75.5 -238.5v-1169h-4v1169q0 151 76.5 241.5t199.5 90.5z" />
<glyph unicode="&#xe0;" horiz-adv-x="876" d="M575 1360l-2 -4l-280 168l2 4zM664 225q0 -116 18 -167.5t70 -71.5l-2 -4q-53 21 -72 71.5t-19 160.5q-91 -232 -280 -232q-125 0 -193.5 87t-68.5 228q0 156 92 241t262 85h188v139q0 152 -54.5 232.5t-178.5 80.5q-113 0 -248 -69v4q132 69 248 69q126 0 182 -81 t56 -236v-537zM379 -14q99 0 166 59t114 177v396h-188q-168 0 -259 -83.5t-91 -237.5q0 -140 67 -225.5t191 -85.5z" />
<glyph unicode="&#xe1;" horiz-adv-x="876" d="M559 1524l-280 -168l-3 4l281 168zM664 225q0 -116 18 -167.5t70 -71.5l-2 -4q-53 21 -72 71.5t-19 160.5q-91 -232 -280 -232q-125 0 -193.5 87t-68.5 228q0 156 92 241t262 85h188v139q0 152 -54.5 232.5t-178.5 80.5q-113 0 -248 -69v4q132 69 248 69q126 0 182 -81 t56 -236v-537zM379 -14q99 0 166 59t114 177v396h-188q-168 0 -259 -83.5t-91 -237.5q0 -140 67 -225.5t191 -85.5z" />
<glyph unicode="&#xe2;" horiz-adv-x="876" d="M426 1522l-180 -170l-4 2l182 172h4l180 -172l-4 -2zM664 225q0 -116 18 -167.5t70 -71.5l-2 -4q-53 21 -72 71.5t-19 160.5q-91 -232 -280 -232q-125 0 -193.5 87t-68.5 228q0 156 92 241t262 85h188v139q0 152 -54.5 232.5t-178.5 80.5q-113 0 -248 -69v4 q132 69 248 69q126 0 182 -81t56 -236v-537zM379 -14q99 0 166 59t114 177v396h-188q-168 0 -259 -83.5t-91 -237.5q0 -140 67 -225.5t191 -85.5z" />
<glyph unicode="&#xe3;" horiz-adv-x="876" d="M332 1495q-29 0 -51 -16.5t-52 -55.5l-4 2q30 40 53 57t54 17q33 0 93.5 -45t98.5 -45q33 0 56.5 17.5t50.5 58.5l4 -2q-27 -42 -52 -60t-59 -18q-39 0 -99.5 45t-92.5 45zM664 225q0 -116 18 -167.5t70 -71.5l-2 -4q-53 21 -72 71.5t-19 160.5q-91 -232 -280 -232 q-125 0 -193.5 87t-68.5 228q0 156 92 241t262 85h188v139q0 152 -54.5 232.5t-178.5 80.5q-113 0 -248 -69v4q132 69 248 69q126 0 182 -81t56 -236v-537zM379 -14q99 0 166 59t114 177v396h-188q-168 0 -259 -83.5t-91 -237.5q0 -140 67 -225.5t191 -85.5z" />
<glyph unicode="&#xe4;" horiz-adv-x="876" d="M299 1391q-12 0 -12 12t12 12t12 -12t-12 -12zM551 1391q-12 0 -12 12t12 12t12 -12t-12 -12zM664 225q0 -116 18 -167.5t70 -71.5l-2 -4q-53 21 -72 71.5t-19 160.5q-91 -232 -280 -232q-125 0 -193.5 87t-68.5 228q0 156 92 241t262 85h188v139q0 152 -54.5 232.5 t-178.5 80.5q-113 0 -248 -69v4q132 69 248 69q126 0 182 -81t56 -236v-537zM379 -14q99 0 166 59t114 177v396h-188q-168 0 -259 -83.5t-91 -237.5q0 -140 67 -225.5t191 -85.5z" />
<glyph unicode="&#xe5;" horiz-adv-x="876" d="M426 1341q-51 0 -79 35t-28 94t29 95.5t78 36.5q51 0 78.5 -35t27.5 -94t-28.5 -95.5t-77.5 -36.5zM426 1597q-47 0 -74.5 -35.5t-27.5 -91.5q0 -58 26.5 -91t75.5 -33q47 0 74.5 35.5t27.5 91.5q0 58 -26.5 91t-75.5 33zM664 225q0 -116 18 -167.5t70 -71.5l-2 -4 q-53 21 -72 71.5t-19 160.5q-91 -232 -280 -232q-125 0 -193.5 87t-68.5 228q0 156 92 241t262 85h188v139q0 152 -54.5 232.5t-178.5 80.5q-113 0 -248 -69v4q132 69 248 69q126 0 182 -81t56 -236v-537zM379 -14q99 0 166 59t114 177v396h-188q-168 0 -259 -83.5 t-91 -237.5q0 -140 67 -225.5t191 -85.5z" />
<glyph unicode="&#xe6;" horiz-adv-x="1409" d="M1286 590q0 -45 -2 -74h-620q0 -263 86.5 -396.5t238.5 -133.5q78 0 137 29t119 91l2 -4q-62 -62 -120 -91t-138 -29q-108 0 -184.5 66.5t-113.5 200.5q-70 -144 -142.5 -205.5t-179.5 -61.5q-119 0 -185.5 87.5t-66.5 227.5q0 156 92 241t262 85h188v139 q0 152 -54.5 232.5t-178.5 80.5q-110 0 -248 -69v4q135 69 248 69q126 0 182 -81t56 -236v-141q17 217 102.5 337.5t222.5 120.5q151 0 224 -128.5t73 -360.5zM1280 520q2 27 2 70q0 230 -72 357.5t-221 127.5q-151 0 -238 -147.5t-87 -407.5h616zM369 -14q107 0 178.5 62.5 t141.5 205.5q-30 115 -30 264v100h-188q-168 0 -259 -84t-91 -237q0 -139 65.5 -225t182.5 -86z" />
<glyph unicode="&#xe7;" horiz-adv-x="776" d="M473 1079q127 0 215 -102l-4 -2q-87 100 -211 100q-161 0 -248.5 -140t-87.5 -411q0 -265 91.5 -401.5t240.5 -136.5q128 0 221 106l4 -2q-94 -108 -225 -108q-152 0 -244 137.5t-92 404.5q0 273 89 414t251 141zM467 -18l-8 -152q76 -3 113.5 -30.5t37.5 -90.5 q0 -64 -33 -94.5t-81 -30.5q-58 0 -103 33l2 4q42 -33 101 -33q47 0 78.5 29t31.5 92q0 59 -35 87.5t-116 29.5l8 156h4z" />
<glyph unicode="&#xe8;" horiz-adv-x="882" d="M612 1360l-2 -4l-280 168l2 4zM760 590q0 -45 -2 -74h-621q1 -253 88.5 -391.5t237.5 -138.5q78 0 137 29t119 91l2 -4q-62 -62 -120 -91t-138 -29q-153 0 -241.5 140.5t-88.5 395.5q0 263 88.5 412t241.5 149q148 0 222.5 -135t74.5 -354zM754 520q2 27 2 70 q0 142 -29.5 248t-97 171.5t-166.5 65.5q-150 0 -238 -147.5t-88 -407.5h617z" />
<glyph unicode="&#xe9;" horiz-adv-x="882" d="M596 1524l-281 -168l-2 4l281 168zM760 590q0 -45 -2 -74h-621q1 -253 88.5 -391.5t237.5 -138.5q78 0 137 29t119 91l2 -4q-62 -62 -120 -91t-138 -29q-153 0 -241.5 140.5t-88.5 395.5q0 263 88.5 412t241.5 149q148 0 222.5 -135t74.5 -354zM754 520q2 27 2 70 q0 142 -29.5 248t-97 171.5t-166.5 65.5q-150 0 -238 -147.5t-88 -407.5h617z" />
<glyph unicode="&#xea;" horiz-adv-x="882" d="M463 1522l-180 -170l-4 2l182 172h4l180 -172l-4 -2zM760 590q0 -45 -2 -74h-621q1 -253 88.5 -391.5t237.5 -138.5q78 0 137 29t119 91l2 -4q-62 -62 -120 -91t-138 -29q-153 0 -241.5 140.5t-88.5 395.5q0 263 88.5 412t241.5 149q148 0 222.5 -135t74.5 -354zM754 520 q2 27 2 70q0 142 -29.5 248t-97 171.5t-166.5 65.5q-150 0 -238 -147.5t-88 -407.5h617z" />
<glyph unicode="&#xeb;" horiz-adv-x="882" d="M336 1391q-12 0 -12 12t12 12t12 -12t-12 -12zM588 1391q-13 0 -13 12t13 12q12 0 12 -12t-12 -12zM760 590q0 -45 -2 -74h-621q1 -253 88.5 -391.5t237.5 -138.5q78 0 137 29t119 91l2 -4q-62 -62 -120 -91t-138 -29q-153 0 -241.5 140.5t-88.5 395.5q0 263 88.5 412 t241.5 149q148 0 222.5 -135t74.5 -354zM754 520q2 27 2 70q0 142 -29.5 248t-97 171.5t-166.5 65.5q-150 0 -238 -147.5t-88 -407.5h617z" />
<glyph unicode="&#xec;" horiz-adv-x="421" d="M80 1528l280 -168l-2 -4l-280 168zM213 1059v-1059h-4v1059h4z" />
<glyph unicode="&#xed;" horiz-adv-x="421" d="M342 1528l2 -4l-281 -168l-2 4zM213 1059v-1059h-4v1059h4z" />
<glyph unicode="&#xee;" horiz-adv-x="421" d="M31 1352l-4 2l182 172h4l180 -172l-4 -2l-178 170zM213 1059v-1059h-4v1059h4z" />
<glyph unicode="&#xef;" horiz-adv-x="421" d="M84 1415q12 0 12 -12t-12 -12t-12 12t12 12zM336 1415q12 0 12 -12t-12 -12t-12 12t12 12zM213 1059v-1059h-4v1059h4z" />
<glyph unicode="&#xf0;" horiz-adv-x="907" d="M501 1371q263 -226 263 -712q0 -241 -37.5 -392.5t-107.5 -218t-177 -66.5q-145 0 -227 127.5t-82 357.5q0 209 80 339t223 130q188 0 324 -246q-5 236 -69.5 401t-192.5 277l-148 -188l-4 2l149 189q-104 88 -241 128v4q144 -42 244 -129l104 135l4 -2l-104 -135z M442 -14q159 0 238.5 158t79.5 515v25q-138 248 -324 248q-140 0 -219.5 -128.5t-79.5 -336.5q0 -228 81 -354.5t224 -126.5z" />
<glyph unicode="&#xf1;" horiz-adv-x="972" d="M401 1495q-29 0 -50.5 -16t-51.5 -56l-4 2q30 40 53 57t53 17q33 0 94 -45t99 -45q33 0 56 17.5t50 58.5l5 -2q-27 -42 -52 -60t-59 -18q-39 0 -100 45t-93 45zM547 1079q115 0 170 -81t55 -224v-774h-4v774q0 142 -53.5 221.5t-167.5 79.5q-206 0 -334 -282v-793h-4 v1059h4v-258q129 278 334 278z" />
<glyph unicode="&#xf2;" horiz-adv-x="935" d="M338 1528l280 -168l-2 -4l-280 168zM471 1079q158 0 245 -134.5t87 -407.5q0 -281 -88 -418t-248 -137q-159 0 -246.5 136.5t-87.5 409.5q0 279 89.5 415t248.5 136zM471 1075q-157 0 -245.5 -135.5t-88.5 -411.5q0 -272 86 -407t244 -135t245 136.5t87 414.5 q0 271 -85.5 404.5t-242.5 133.5z" />
<glyph unicode="&#xf3;" horiz-adv-x="935" d="M600 1528l2 -4l-280 -168l-3 4zM471 1079q158 0 245 -134.5t87 -407.5q0 -281 -88 -418t-248 -137q-159 0 -246.5 136.5t-87.5 409.5q0 279 89.5 415t248.5 136zM471 1075q-157 0 -245.5 -135.5t-88.5 -411.5q0 -272 86 -407t244 -135t245 136.5t87 414.5 q0 271 -85.5 404.5t-242.5 133.5z" />
<glyph unicode="&#xf4;" horiz-adv-x="935" d="M289 1352l-4 2l182 172h4l180 -172l-4 -2l-178 170zM471 1079q158 0 245 -134.5t87 -407.5q0 -281 -88 -418t-248 -137q-159 0 -246.5 136.5t-87.5 409.5q0 279 89.5 415t248.5 136zM471 1075q-157 0 -245.5 -135.5t-88.5 -411.5q0 -272 86 -407t244 -135t245 136.5 t87 414.5q0 271 -85.5 404.5t-242.5 133.5z" />
<glyph unicode="&#xf5;" horiz-adv-x="935" d="M567 1405q-39 0 -99.5 45t-92.5 45q-29 0 -51 -16.5t-52 -55.5l-4 2q30 40 53 57t54 17q33 0 93.5 -45t98.5 -45q33 0 56.5 17.5t50.5 58.5l4 -2q-27 -42 -52 -60t-59 -18zM471 1079q158 0 245 -134.5t87 -407.5q0 -281 -88 -418t-248 -137q-159 0 -246.5 136.5 t-87.5 409.5q0 279 89.5 415t248.5 136zM471 1075q-157 0 -245.5 -135.5t-88.5 -411.5q0 -272 86 -407t244 -135t245 136.5t87 414.5q0 271 -85.5 404.5t-242.5 133.5z" />
<glyph unicode="&#xf6;" horiz-adv-x="935" d="M342 1415q12 0 12 -12t-12 -12t-12 12t12 12zM594 1415q12 0 12 -12t-12 -12t-12 12t12 12zM471 1079q158 0 245 -134.5t87 -407.5q0 -281 -88 -418t-248 -137q-159 0 -246.5 136.5t-87.5 409.5q0 279 89.5 415t248.5 136zM471 1075q-157 0 -245.5 -135.5t-88.5 -411.5 q0 -272 86 -407t244 -135t245 136.5t87 414.5q0 271 -85.5 404.5t-242.5 133.5z" />
<glyph unicode="&#xf7;" horiz-adv-x="804" d="M403 1098q6 0 10.5 -4.5t4.5 -10.5q0 -14 -15 -14q-14 0 -14 14q0 15 14 15zM143 676v4h519v-4h-519zM403 287q6 0 10.5 -4.5t4.5 -10.5q0 -14 -15 -14q-14 0 -14 14q0 15 14 15z" />
<glyph unicode="&#xf8;" horiz-adv-x="935" d="M607 1048q196 -101 196 -511q0 -281 -88 -418t-248 -137q-77 0 -136 31l-67 -242h-4l67 244q-194 106 -194 513q0 279 89.5 415t248.5 136q73 0 133 -30l66 241h4zM137 528q0 -403 191 -509l276 1026q-58 30 -133 30q-157 0 -245.5 -135.5t-88.5 -411.5zM467 -14 q158 0 245 136.5t87 414.5q0 406 -193 507l-274 -1027q59 -31 135 -31z" />
<glyph unicode="&#xf9;" horiz-adv-x="964" d="M354 1528l281 -168l-2 -4l-281 168zM756 1059v-1059h-4v238q-115 -256 -310 -256q-115 0 -178 78t-63 214v785h4v-785q0 -134 62 -211t175 -77q192 0 310 260v813h4z" />
<glyph unicode="&#xfa;" horiz-adv-x="964" d="M616 1528l2 -4l-280 -168l-2 4zM756 1059v-1059h-4v238q-115 -256 -310 -256q-115 0 -178 78t-63 214v785h4v-785q0 -134 62 -211t175 -77q192 0 310 260v813h4z" />
<glyph unicode="&#xfb;" horiz-adv-x="964" d="M305 1352l-4 2l182 172h4l181 -172l-4 -2l-179 170zM756 1059v-1059h-4v238q-115 -256 -310 -256q-115 0 -178 78t-63 214v785h4v-785q0 -134 62 -211t175 -77q192 0 310 260v813h4z" />
<glyph unicode="&#xfc;" horiz-adv-x="964" d="M358 1415q13 0 13 -12t-13 -12q-12 0 -12 12t12 12zM610 1415q13 0 13 -12t-13 -12q-12 0 -12 12t12 12zM756 1059v-1059h-4v238q-115 -256 -310 -256q-115 0 -178 78t-63 214v785h4v-785q0 -134 62 -211t175 -77q192 0 310 260v813h4z" />
<glyph unicode="&#xfd;" horiz-adv-x="743" d="M506 1524l-281 -168l-2 4l281 168zM57 1059h4l322 -1059h-4zM682 1059h4l-299 -1059q-23 -80 -38 -124t-37.5 -92.5t-48 -75.5t-63 -52t-89.5 -43l-2 4q52 18 89 42.5t62.5 51.5t47.5 74t37 91.5t38 123.5z" />
<glyph unicode="&#xfe;" horiz-adv-x="942" d="M514 1079q295 0 295 -538q0 -272 -77 -415.5t-226 -143.5q-179 0 -293 219v-590h-4v1884h4v-631q124 215 301 215zM506 -14q147 0 223 142t76 413q0 534 -291 534q-95 0 -167 -55.5t-134 -161.5v-651q118 -221 293 -221z" />
<glyph unicode="&#xff;" horiz-adv-x="743" d="M246 1391q-13 0 -13 12t13 12q12 0 12 -12t-12 -12zM498 1391q-13 0 -13 12t13 12q12 0 12 -12t-12 -12zM57 1059h4l322 -1059h-4zM682 1059h4l-299 -1059q-23 -80 -38 -124t-37.5 -92.5t-48 -75.5t-63 -52t-89.5 -43l-2 4q52 18 89 42.5t62.5 51.5t47.5 74t37 91.5 t38 123.5z" />
<glyph unicode="&#x152;" horiz-adv-x="1409" d="M1325 4v-4h-663q-54 -18 -117 -18q-186 0 -294 188t-108 522q0 333 110.5 527t291.5 194q64 0 119 -20h645v-4h-634q139 -58 213.5 -227.5t74.5 -420.5h272v-4h-272q0 -615 -290 -733h652zM147 692q0 -330 107.5 -518t290.5 -188q201 0 307 193t106 560q0 309 -110 489.5 t-303 180.5q-179 0 -288.5 -193.5t-109.5 -523.5z" />
<glyph unicode="&#x153;" horiz-adv-x="1550" d="M1427 590q0 -45 -2 -74h-622q2 -253 89 -391.5t236 -138.5q80 0 139 29t119 91l3 -4q-61 -61 -121 -90.5t-140 -29.5q-141 0 -228.5 123.5t-99.5 348.5q-14 -226 -101.5 -349t-229.5 -123q-159 0 -247.5 139.5t-88.5 406.5q0 273 90.5 412t247.5 139q144 0 231.5 -126 t98.5 -352q14 226 101 352t226 126q151 0 225 -128.5t74 -360.5zM469 -14q153 0 241.5 145t88.5 406q0 253 -87.5 395.5t-240.5 142.5q-156 0 -245 -138t-89 -409q0 -265 87 -403.5t245 -138.5zM1421 520q2 27 2 70q0 229 -73 357t-222 128q-150 0 -237.5 -147.5 t-87.5 -407.5h618z" />
<glyph unicode="&#x178;" horiz-adv-x="802" d="M289 1673q12 0 12 -12t-12 -12q-13 0 -13 12t13 12zM541 1673q12 0 12 -12t-12 -12q-13 0 -13 12t13 12zM762 1393l-356 -838v-555h-5v555l-360 838h4l358 -834l355 834h4z" />
<glyph unicode="&#x2c6;" horiz-adv-x="489" d="M76 1352l-4 2l182 172h4l180 -172l-4 -2l-178 170z" />
<glyph unicode="&#x2dc;" horiz-adv-x="532" d="M360 1405q-39 0 -99.5 45t-92.5 45q-29 0 -50.5 -16t-51.5 -56l-5 2q30 40 53 57t54 17q33 0 93.5 -45t98.5 -45q33 0 56.5 17.5t50.5 58.5l4 -2q-27 -42 -52 -60t-59 -18z" />
<glyph unicode="&#x2000;" horiz-adv-x="930" />
<glyph unicode="&#x2001;" horiz-adv-x="1860" />
<glyph unicode="&#x2002;" horiz-adv-x="930" />
<glyph unicode="&#x2003;" horiz-adv-x="1860" />
<glyph unicode="&#x2004;" horiz-adv-x="620" />
<glyph unicode="&#x2005;" horiz-adv-x="465" />
<glyph unicode="&#x2006;" horiz-adv-x="310" />
<glyph unicode="&#x2007;" horiz-adv-x="310" />
<glyph unicode="&#x2008;" horiz-adv-x="232" />
<glyph unicode="&#x2009;" horiz-adv-x="372" />
<glyph unicode="&#x200a;" horiz-adv-x="103" />
<glyph unicode="&#x2010;" horiz-adv-x="673" d="M143 637v4h387v-4h-387z" />
<glyph unicode="&#x2011;" horiz-adv-x="673" d="M143 637v4h387v-4h-387z" />
<glyph unicode="&#x2012;" horiz-adv-x="673" d="M143 637v4h387v-4h-387z" />
<glyph unicode="&#x2013;" horiz-adv-x="874" d="M94 637v4h686v-4h-686z" />
<glyph unicode="&#x2014;" horiz-adv-x="1296" d="M94 637v4h1108v-4h-1108z" />
<glyph unicode="&#x2018;" horiz-adv-x="391" d="M188 1174q-8 0 -8 10q0 4 4 16l74 244h2l-72 -250q11 0 11 -10t-11 -10z" />
<glyph unicode="&#x2019;" horiz-adv-x="391" d="M203 1446q8 0 8 -10q0 -5 -4 -17l-74 -243h-2l72 249q-10 0 -10 11q0 10 10 10z" />
<glyph unicode="&#x201a;" horiz-adv-x="391" d="M203 20q8 0 8 -10q0 -4 -4 -16l-74 -244h-2l72 250q-10 0 -10 10t10 10z" />
<glyph unicode="&#x201c;" horiz-adv-x="522" d="M188 1325q-8 0 -8 10q0 5 4 17l74 243h2l-72 -249q11 0 11 -11q0 -10 -11 -10zM319 1325q-8 0 -8 10q0 5 4 17l74 243h2l-72 -249q11 0 11 -11q0 -10 -11 -10z" />
<glyph unicode="&#x201d;" horiz-adv-x="522" d="M203 1446q8 0 8 -10q0 -5 -4 -17l-74 -243h-2l72 249q-10 0 -10 11q0 10 10 10zM334 1446q8 0 8 -10q0 -5 -4 -17l-74 -243h-2l72 249q-10 0 -10 11q0 10 10 10z" />
<glyph unicode="&#x201e;" horiz-adv-x="522" d="M203 20q8 0 8 -10q0 -4 -4 -16l-74 -244h-2l72 250q-10 0 -10 10t10 10zM334 20q8 0 8 -10q0 -4 -4 -16l-74 -244h-2l72 250q-10 0 -10 10t10 10z" />
<glyph unicode="&#x2022;" horiz-adv-x="376" d="M188 737q15 0 15 -14t-15 -14q-14 0 -14 14t14 14z" />
<glyph unicode="&#x2026;" horiz-adv-x="675" d="M113 20q14 0 14 -14t-14 -14q-15 0 -15 14t15 14zM338 20q14 0 14 -14t-14 -14t-14 14t14 14zM563 20q15 0 15 -14t-15 -14q-14 0 -14 14t14 14z" />
<glyph unicode="&#x202f;" horiz-adv-x="372" />
<glyph unicode="&#x2039;" horiz-adv-x="593" d="M414 1012l4 -2l-240 -420l242 -418l-4 -2l-242 418v4z" />
<glyph unicode="&#x203a;" horiz-adv-x="593" d="M180 1012l240 -420v-4l-242 -418l-4 2l242 418l-240 420z" />
<glyph unicode="&#x205f;" horiz-adv-x="465" />
<glyph unicode="&#x20ac;" horiz-adv-x="940" d="M608 1368q-152 0 -258 -138t-133 -401h481v-4h-481v-270h436l-2 -4h-434q24 -291 122.5 -428t258.5 -137q115 0 219 84l2 -4q-53 -43 -104 -63.5t-117 -20.5q-338 0 -385 569h-121v4h121v270h-121v4h121q25 264 133 403.5t262 139.5q69 0 125 -24.5t115 -77.5l-2 -4 q-57 52 -113 77t-125 25z" />
<glyph unicode="&#x2122;" horiz-adv-x="1419" d="M551 1393v-4h-227v-768h-5v768h-227v4h459zM1159 1393l43 -772h-4l-37 671q-4 62 -4 97h-2l-233 -676h-4l-236 676h-2q0 -37 -4 -103l-35 -665h-4l41 772h6l236 -676l233 676h6z" />
<glyph unicode="&#x25fc;" horiz-adv-x="1054" d="M0 1055h1055v-1055h-1055v1055z" />
<glyph unicode="&#xfb03;" horiz-adv-x="1363" d="M676 1059h479v-1059h-4v1055h-475v-1055h-4v1055h-455v-1055h-4v1055h-154v4h154v207q0 105 56 160t157 55q129 0 272 -70q45 90 179 90q106 0 210 -71l-2 -5q-105 72 -208 72q-102 0 -151.5 -53.5t-49.5 -169.5v-215zM672 1274q0 84 25 134q-140 69 -271 69 q-99 0 -154 -54t-55 -157v-207h455v215z" />
<glyph unicode="&#xfb04;" horiz-adv-x="1413" d="M1253 -14q36 0 68 16v-4q-32 -16 -68 -16q-50 0 -75 31.5t-25 88.5v1332q-149 63 -268 63q-99 0 -154 -54t-55 -157v-227h254v-4h-254v-1055h-4v1055h-455v-1055h-4v1055h-154v4h154v207q0 105 56 160t157 55q127 0 275 -69q53 89 184 89q124 0 270 -63h2v-1336 q0 -116 96 -116zM672 1286q0 74 27 122q-144 69 -273 69q-99 0 -154 -54t-55 -157v-207h455v227z" />
</font>
</defs>
</svg>
