<?xml version="1.0" standalone="no"?>
<!DOCTYPE svg PUBLIC "-//W3C//DTD SVG 1.1//EN" "http://www.w3.org/Graphics/SVG/1.1/DTD/svg11.dtd" >
<svg xmlns="http://www.w3.org/2000/svg" xmlns:xlink="http://www.w3.org/1999/xlink" version="1.1">
<metadata></metadata>
<defs>
<font id="fira_sans_compressedeightIt" horiz-adv-x="942" >
<font-face units-per-em="2048" ascent="1638" descent="-410" />
<missing-glyph horiz-adv-x="512" />
<glyph unicode="&#xfb01;" horiz-adv-x="921" d="M791 1060l-148 -1060h-16l146 1045h-462l-150 -1059q-16 -114 -45 -185t-69 -111t-113 -83l-5 11q68 40 106.5 79.5t66 108.5t43.5 180l150 1059h-156l2 15h156l29 205q17 116 79.5 177t160.5 61q110 0 208 -78l-10 -11q-48 38 -93.5 56.5t-104.5 18.5q-91 0 -149.5 -57 t-74.5 -169l-29 -203h478z" />
<glyph unicode="&#xfb02;" horiz-adv-x="980" d="M747 -3q36 0 70 16l6 -14q-38 -18 -78 -18q-53 0 -77 35.5t-14 100.5l186 1308q-137 63 -260 63q-98 0 -160 -57t-78 -168l-29 -203h249l-4 -15h-247l-150 -1059q-16 -114 -45 -185t-69 -111t-113 -83l-5 11q68 40 106.5 79.5t66 108.5t43.5 180l150 1059h-156l2 15h156 l29 205q17 116 83.5 177t171.5 61q131 0 262 -65l15 1l-187 -1322q-16 -120 76 -120z" />
<glyph horiz-adv-x="0" />
<glyph horiz-adv-x="682" />
<glyph unicode="&#xd;" horiz-adv-x="512" />
<glyph unicode=" "  horiz-adv-x="512" />
<glyph unicode="&#x09;" horiz-adv-x="512" />
<glyph unicode="&#xa0;" horiz-adv-x="512" />
<glyph unicode="!" horiz-adv-x="434" d="M188 394l138 1000h16l-139 -1000h-15zM143 -11q-10 0 -16.5 6.5t-6.5 16.5q0 11 7 18t18 7q10 0 16.5 -6.5t6.5 -16.5q0 -11 -7 -18t-18 -7z" />
<glyph unicode="&#x22;" horiz-adv-x="614" d="M216 910l64 484h17l-68 -484h-13zM493 910l64 484h17l-68 -484h-13z" />
<glyph unicode="#" horiz-adv-x="811" d="M844 950h-143l-125 -505h137l-5 -16h-136l-106 -429h-17l106 429h-375l-107 -429h-17l107 429h-152l5 16h151l125 505h-145l1 15h148l96 391h17l-96 -391h374l97 391h17l-96 -391h141zM559 445l124 505h-374l-126 -505h376z" />
<glyph unicode="$" horiz-adv-x="886" d="M596 1371q82 -3 141.5 -36.5t110.5 -94.5l-11 -11q-52 62 -113 94.5t-144 32.5q-78 0 -142.5 -29t-104.5 -77.5t-61.5 -108.5t-21.5 -124q0 -97 53 -158.5t183 -118.5q127 -56 188.5 -134t61.5 -198q0 -76 -21.5 -148t-65.5 -135t-122 -102.5t-180 -41.5l-40 -277h-14 l39 277q-93 1 -168 43t-126 115l11 10q104 -152 286 -152q82 0 148.5 25t109.5 65.5t72 95t41.5 110.5t12.5 114q0 114 -58 189t-182 129q-133 58 -189 124t-56 168q0 66 23 128.5t65 113.5t109.5 81.5t149.5 30.5h1l39 282h15z" />
<glyph unicode="%" horiz-adv-x="1310" d="M1172 1416l-992 -1431l14 -7l991 1431zM386 746q-83 0 -129 61.5t-46 168.5q0 63 15.5 129t46 128t85.5 101.5t125 39.5q82 0 127.5 -58.5t45.5 -166.5q0 -63 -15.5 -130t-46.5 -130t-85 -103t-123 -40zM386 761q53 0 97.5 26.5t72.5 68t47.5 94t28 103t8.5 97.5 q0 100 -40.5 154.5t-116.5 54.5q-67 0 -119 -38.5t-80.5 -99.5t-42.5 -124t-14 -122q0 -99 41 -156.5t118 -57.5zM870 -19q-83 0 -128.5 61.5t-45.5 168.5q0 49 9 101.5t30 106t51 95.5t77 68.5t104 26.5q82 0 127.5 -58.5t45.5 -166.5q0 -63 -15.5 -130t-46.5 -130 t-85 -103t-123 -40zM871 -4q53 0 97.5 26.5t72.5 67.5t47.5 94t27.5 103.5t8 97.5q0 100 -40.5 154.5t-116.5 54.5q-67 0 -119 -39t-80 -99.5t-42 -124t-14 -122.5q0 -99 41 -156t118 -57z" />
<glyph unicode="&#x26;" horiz-adv-x="1232" d="M671 1416q93 0 152.5 -64.5t59.5 -165.5q0 -133 -73.5 -226t-282.5 -221l335 -487q44 66 81.5 147t56.5 132.5t54 153.5l14 -4q-36 -104 -56.5 -158.5t-58.5 -134.5t-82 -146l163 -238l-14 -10l-161 235q-170 -248 -394 -248q-131 0 -205.5 83t-74.5 212q0 53 7 96t27 92 t54.5 93t92.5 91.5t137 94.5q-120 171 -120 323q0 52 10.5 101t33.5 94.5t56 79.5t81.5 54.5t106.5 20.5zM671 1401q-69 0 -122.5 -29.5t-85 -78.5t-47.5 -107t-16 -120q0 -149 117 -316q146 89 221.5 157.5t102 130t26.5 148.5q0 95 -55 155t-141 60zM513 732 q-98 -57 -162 -114.5t-95.5 -115.5t-42.5 -109.5t-11 -116.5q0 -122 69.5 -200.5t193.5 -78.5q218 0 385 243z" />
<glyph unicode="'" horiz-adv-x="337" d="M216 910l64 484h17l-68 -484h-13z" />
<glyph unicode="(" horiz-adv-x="550" d="M574 1693l10 -8q-115 -164 -191 -299.5t-133.5 -286.5t-84 -312.5t-26.5 -351.5q0 -103 12 -195.5t39 -182t50 -150.5t64 -159l-13 -6q-42 99 -65.5 160t-51 151.5t-39.5 183.5t-12 198q0 193 26.5 356t85.5 315t136 287t193 300z" />
<glyph unicode=")" horiz-adv-x="546" d="M301 1692q43 -103 65 -161.5t50 -150.5t40 -184.5t12 -198.5q0 -190 -27 -353t-86 -315t-135.5 -287.5t-191.5 -300.5l-11 8q114 165 190 300.5t133.5 286.5t84 312t26.5 349q0 197 -40 346.5t-122 342.5z" />
<glyph unicode="*" horiz-adv-x="747" d="M742 1250l-269 -99l121 -265l-14 -7l-119 265l-193 -265l-14 9l196 264l-242 99l7 14l241 -102l45 329h17l-49 -329l269 101z" />
<glyph unicode="+" horiz-adv-x="833" d="M492 1004l-45 -318h256l-2 -16h-256l-46 -319h-17l46 319h-257l2 16h258l45 318h16z" />
<glyph unicode="," horiz-adv-x="249" d="M53 37q10 0 16.5 -6.5t6.5 -16.5t-12 -34l-96 -216h-15l91 226q-15 6 -15 22q0 11 7 18t17 7z" />
<glyph unicode="-" horiz-adv-x="673" d="M154 632l2 15h395l-2 -15h-395z" />
<glyph unicode="." horiz-adv-x="249" d="M52 -11q-10 0 -16.5 6.5t-6.5 16.5q0 25 24 25q10 0 16.5 -6.5t6.5 -16.5q0 -25 -24 -25z" />
<glyph unicode="/" horiz-adv-x="899" d="M791 1628l14 -4l-643 -1814l-14 5z" />
<glyph unicode="0" horiz-adv-x="952" d="M616 1374q-95 0 -175 -64t-133.5 -168.5t-92 -239t-55.5 -272t-17 -271.5q0 -378 232 -378q94 0 173.5 63t134 166t93 236t56 271.5t17.5 273.5q0 383 -233 383zM616 1358q109 0 162.5 -91t53.5 -276q0 -133 -17.5 -270t-55 -267t-90 -231.5t-129 -163t-165.5 -62.5 q-215 0 -215 362q0 132 17 268t54 268t89 234.5t129 165.5t167 63z" />
<glyph unicode="1" horiz-adv-x="665" d="M529 1353l-188 -1353h-17l186 1333l-331 -235l-8 14l345 241h13z" />
<glyph unicode="2" horiz-adv-x="780" d="M469 1374q117 0 180.5 -75t65.5 -199q1 -92 -20.5 -165.5t-101.5 -199t-207.5 -282.5t-367.5 -437h566l-7 -16h-582l2 16q243 283 374.5 445t209.5 285t98 194t19 160q-2 119 -60.5 189t-169.5 70q-85 0 -154 -41.5t-142 -123.5l-12 9q77 86 149.5 128.5t159.5 42.5z" />
<glyph unicode="3" horiz-adv-x="806" d="M497 1374q109 0 169 -69.5t60 -184.5q0 -156 -81 -270.5t-223 -126.5q101 -9 158.5 -78t57.5 -199q0 -62 -13.5 -124.5t-43.5 -124.5t-74 -109.5t-110.5 -77t-146.5 -29.5q-95 0 -159 40t-113 127l13 9q49 -86 109.5 -123t150.5 -37q77 0 141.5 29t106 75t70 106t41 120 t12.5 119q0 132 -63.5 200.5t-178.5 68.5h-60l4 15h59q79 0 143 34t103 90.5t59.5 125t20.5 140.5q0 109 -55 174t-157 65q-148 0 -288 -141l-11 10q145 146 299 146z" />
<glyph unicode="4" horiz-adv-x="837" d="M752 411l-3 -15h-158l-56 -396h-16l56 396h-504l3 16l481 962l14 -7l-478 -956h486l65 445h14l-63 -445h159z" />
<glyph unicode="5" horiz-adv-x="792" d="M771 1353l-4 -16h-476l-83 -587q112 91 233 91q114 0 175.5 -77t61.5 -214q0 -60 -9 -121.5t-28 -126.5t-52 -121.5t-76.5 -102t-107 -71.5t-138.5 -26q-170 0 -254 150l14 9q36 -68 98 -105.5t142 -37.5q72 0 133 25.5t103 69.5t73.5 99t50 118t27 122.5t8.5 117.5 q0 131 -58 204t-165 73q-119 0 -233 -93h-16l87 620h494z" />
<glyph unicode="6" horiz-adv-x="884" d="M666 1374q103 0 165 -75l-11 -10q-58 70 -154 70q-114 0 -216 -103.5t-172.5 -273t-103.5 -377.5q174 263 366 263q105 0 165.5 -73t60.5 -213q0 -73 -12 -151.5t-41 -160t-71.5 -145t-108.5 -104t-147 -40.5q-87 0 -144 50t-81 132t-24 195q0 165 38 342t104.5 328 t168.5 248.5t218 97.5zM540 853q-189 0 -370 -274q-16 -102 -16 -221q0 -169 56 -265t176 -96q78 0 142 40t104 102t67.5 142t38.5 155t11 145q0 134 -55 203t-154 69z" />
<glyph unicode="7" horiz-adv-x="731" d="M769 1353l-1 -15l-661 -1349l-15 5l658 1342l-561 1l2 16h578z" />
<glyph unicode="8" horiz-adv-x="911" d="M558 698q109 -59 156.5 -125.5t47.5 -169.5q0 -183 -111 -302.5t-278 -119.5q-132 0 -204.5 77t-72.5 209q0 71 15 131.5t50.5 123.5t104.5 120t169 104q-87 47 -125 107.5t-38 153.5q0 159 100.5 263t232.5 104q106 0 171 -68.5t65 -191.5q0 -127 -60.5 -222 t-222.5 -194zM288 1007q0 -95 40 -153t132 -105l85 -44q161 97 220 191t59 218q0 117 -60 181t-159 64q-127 0 -222 -99.5t-95 -252.5zM373 -3q160 0 266 114t106 292q0 110 -52.5 174t-179.5 129l-64 32q-71 -33 -126.5 -71t-91 -77.5t-60 -79t-36.5 -83t-17 -80.5t-5 -81 q0 -126 67.5 -197.5t192.5 -71.5z" />
<glyph unicode="9" horiz-adv-x="868" d="M542 1374q247 0 247 -335q0 -827 -679 -1064l-5 13q549 193 649 788q-75 -121 -165 -183t-188 -62q-112 0 -175 79.5t-63 226.5q0 90 24 182t69.5 172.5t120 131.5t165.5 51zM401 547q98 0 189.5 65.5t166.5 190.5q16 114 16 236q0 320 -231 320q-88 0 -159.5 -50 t-114.5 -128.5t-65.5 -167.5t-22.5 -176q0 -140 58 -215t163 -75z" />
<glyph unicode=":" horiz-adv-x="249" d="M174 859q-10 0 -16.5 6.5t-6.5 16.5q0 25 24 25q10 0 17 -6.5t7 -16.5q0 -11 -7 -18t-18 -7zM52 -11q-10 0 -16.5 6.5t-6.5 16.5q0 25 24 25q10 0 16.5 -6.5t6.5 -16.5q0 -25 -24 -25z" />
<glyph unicode=";" horiz-adv-x="249" d="M174 859q-10 0 -16.5 6.5t-6.5 16.5q0 25 24 25q10 0 17 -6.5t7 -16.5q0 -11 -7 -18t-18 -7zM53 37q10 0 16.5 -6.5t6.5 -16.5t-12 -34l-96 -216h-15l91 226q-15 6 -15 22q0 11 7 18t17 7z" />
<glyph unicode="&#x3c;" horiz-adv-x="856" d="M760 1007l6 -13l-571 -315l482 -317l-10 -14l-490 326l2 13z" />
<glyph unicode="=" horiz-adv-x="835" d="M195 825l2 16h530l-2 -16h-530zM150 514l2 16h530l-2 -16h-530z" />
<glyph unicode="&#x3e;" horiz-adv-x="858" d="M232 1007l492 -319l-2 -12l-583 -328l-6 14l574 321l-484 311z" />
<glyph unicode="?" horiz-adv-x="884" d="M520 1414q106 0 160.5 -63.5t54.5 -166.5q0 -74 -21.5 -133.5t-56 -99.5t-76.5 -74.5t-84 -67t-76.5 -67t-56.5 -84t-23 -110.5q0 -48 13 -115l-15 -3q-15 71 -15 117q1 62 23 113t56.5 86.5t76.5 68t84 67t76.5 74t56 98t21.5 130.5q0 97 -50 156t-149 59 q-79 0 -143 -37t-137 -120l-11 9q74 85 142 124t150 39zM316 -13q-10 0 -16.5 6.5t-6.5 16.5q0 25 24 25q10 0 17 -6.5t7 -16.5q0 -11 -7 -18t-18 -7z" />
<glyph unicode="@" horiz-adv-x="1757" d="M1050 1416q134 0 239 -48t170.5 -133t99 -197t33.5 -244q0 -120 -24.5 -249.5t-70 -246.5t-121.5 -193t-169 -76q-174 0 -148 287q-115 -283 -303 -283q-92 0 -148.5 77t-56.5 220q0 69 11 141t32.5 144.5t57.5 136t82 113t109.5 78.5t136.5 29q94 0 173 -48l-74 -561 q-7 -53 -9 -96t3.5 -86t20.5 -72t43.5 -47t69.5 -18q89 0 162 75t116 190.5t66.5 241.5t23.5 242q0 130 -32.5 239t-96 192t-165.5 129.5t-233 46.5q-124 0 -235.5 -38.5t-197 -104.5t-157.5 -154.5t-121.5 -188.5t-84 -207t-50.5 -209t-16 -195q0 -316 158.5 -500 t414.5 -184q167 0 316 65l2 -15q-153 -65 -318 -65q-262 0 -425.5 188.5t-163.5 510.5q0 95 16.5 198.5t51.5 212t85.5 210t123.5 191.5t160.5 156.5t201.5 105.5t241 39zM757 49q94 0 171 76.5t131 217.5l78 572q-74 42 -157 42q-85 0 -156 -41t-117 -106t-78.5 -149 t-46.5 -167.5t-14 -163.5q0 -136 51.5 -208.5t137.5 -72.5z" />
<glyph unicode="A" horiz-adv-x="960" d="M803 0l-64 430h-545l-184 -430h-17l599 1394h19l209 -1394h-17zM201 446h536l-138 930z" />
<glyph unicode="B" horiz-adv-x="1009" d="M615 738q116 -9 186 -84t70 -203q0 -68 -14 -130.5t-48.5 -122t-85.5 -102.5t-130.5 -69.5t-179.5 -26.5h-274l195 1394h262q164 0 247.5 -73t83.5 -209q0 -150 -89.5 -253.5t-222.5 -120.5zM349 1378l-89 -633h311q62 0 122 25.5t108.5 71t78.5 116.5t30 154 q0 266 -312 266h-249zM417 16q96 0 172 25t125 67t81 99t45.5 117.5t13.5 126.5q0 130 -76.5 204.5t-211.5 74.5h-308l-100 -714h259z" />
<glyph unicode="C" horiz-adv-x="905" d="M721 1414q86 0 144.5 -31t104.5 -87l-10 -12q-47 55 -102 84.5t-137 29.5q-118 0 -215 -61t-159 -157.5t-105 -222t-61.5 -250t-18.5 -246.5q0 -225 84 -344.5t236 -119.5q89 0 156 33t130 87l10 -13q-139 -123 -296 -123q-159 0 -248 124.5t-89 354.5q0 88 9.5 178 t31.5 184.5t53.5 180t78.5 161t104.5 131t134.5 87.5t164 32z" />
<glyph unicode="D" horiz-adv-x="1067" d="M561 1394q68 0 125 -12.5t110.5 -44.5t90.5 -81.5t59 -129t22 -182.5q0 -116 -14.5 -226t-45 -217.5t-81.5 -197t-119 -158t-163.5 -107t-209.5 -38.5h-196l195 1394h227zM561 1378h-212l-191 -1362h179q111 0 204 38t159 106t115.5 156t79 193.5t43.5 213.5t14 221 q0 434 -391 434z" />
<glyph unicode="E" horiz-adv-x="829" d="M856 1394l-4 -16h-503l-88 -632h433l-2 -15h-433l-101 -715h521l-2 -16h-538l195 1394h522z" />
<glyph unicode="F" horiz-adv-x="788" d="M847 1394l-4 -16h-494l-94 -662h430l-2 -16h-429l-98 -700h-17l195 1394h513z" />
<glyph unicode="G" horiz-adv-x="1009" d="M721 1414q83 0 145.5 -28t119.5 -87l-12 -12q-56 57 -115 84t-138 27q-107 0 -199.5 -54t-157.5 -145.5t-111 -211.5t-68 -252.5t-22 -268.5q0 -229 88.5 -349t253.5 -120q147 0 294 93l86 602h-248v16h267l-89 -627q-155 -100 -311 -100q-171 0 -264.5 125t-93.5 361 q0 115 16.5 228.5t48 219.5t81 196.5t111.5 158t144 106t174 38.5z" />
<glyph unicode="H" horiz-adv-x="1101" d="M156 0h-17l195 1394h17l-90 -640h642l90 640h16l-196 -1394h-17l105 739h-642z" />
<glyph unicode="I" horiz-adv-x="442" d="M351 1394l-195 -1394h-17l195 1394h17z" />
<glyph unicode="J" horiz-adv-x="477" d="M394 1394l-170 -1219q-22 -155 -73 -228.5t-187 -138.5l-6 13q130 63 179 134.5t70 221.5l170 1217h17z" />
<glyph unicode="K" horiz-adv-x="860" d="M139 2l195 1392h17l-195 -1392h-17zM738 0l-472 750l641 644h20l-641 -645l472 -749h-20z" />
<glyph unicode="L" horiz-adv-x="739" d="M351 1394l-193 -1378h484l-5 -16h-498l195 1394h17z" />
<glyph unicode="M" horiz-adv-x="1277" d="M1127 1394l-64 -1394h-16l32 720q4 86 11 231t12 254t8 173l-512 -1205h-19l-177 1206q-47 -211 -149 -645l-171 -734h-16l324 1394h26l175 -1200l510 1200h26z" />
<glyph unicode="N" horiz-adv-x="1101" d="M1010 1394l-195 -1394h-22l-447 1375q-13 -99 -36 -263l-155 -1112h-16l195 1394h22l447 -1374q20 151 41 301l150 1073h16z" />
<glyph unicode="O" horiz-adv-x="1167" d="M723 1414q167 0 257.5 -123t90.5 -355q0 -82 -9 -168.5t-30 -181t-52 -180.5t-78.5 -164.5t-106 -135.5t-137.5 -91t-170 -34q-166 0 -255 123.5t-89 354.5q0 82 10 169.5t32 181.5t54 180.5t79.5 164t105 135t134.5 91t164 33.5zM723 1398q-117 0 -214.5 -63.5 t-160.5 -163.5t-106.5 -227t-62 -249.5t-18.5 -236.5q0 -224 84 -342.5t243 -118.5q89 0 166.5 33.5t134.5 90.5t102.5 135t75.5 163t50 177.5t28.5 177t8.5 163.5q0 226 -85.5 343.5t-245.5 117.5z" />
<glyph unicode="P" horiz-adv-x="935" d="M565 1394q352 0 352 -303q0 -72 -14 -139.5t-49 -134.5t-88.5 -116.5t-140 -80t-195.5 -30.5h-191l-83 -590h-17l195 1394h231zM434 606q89 0 161.5 20.5t122.5 57t86 82.5t56.5 101.5t30 110t9.5 112.5q0 288 -336 288h-215l-108 -772h193z" />
<glyph unicode="Q" horiz-adv-x="1169" d="M576 -8q130 -3 215.5 -33t146.5 -103l-14 -11q-66 78 -160 108t-268 28h-8h-1v0q-166 1 -254.5 124.5t-88.5 353.5q0 82 10 169.5t32 181.5t54 180.5t79.5 164t105 135t134.5 91t164 33.5q167 0 257.5 -123t90.5 -355q0 -111 -15.5 -226.5t-53 -236.5t-92.5 -219 t-141.5 -169.5t-192.5 -92.5zM161 458q0 -224 84 -342.5t243 -118.5q89 0 166.5 33.5t134.5 90.5t102.5 135t75.5 163t50 177.5t28.5 177t8.5 163.5q0 226 -85.5 343.5t-245.5 117.5q-117 0 -214.5 -63.5t-160.5 -163.5t-106.5 -227t-62 -249.5t-18.5 -236.5z" />
<glyph unicode="R" horiz-adv-x="950" d="M909 1105q0 -76 -20.5 -147t-61 -132t-108.5 -100.5t-156 -46.5l225 -679h-18l-225 678h-8h-286l-95 -678h-17l195 1394h243q177 0 254.5 -72t77.5 -217zM528 694q93 0 165.5 36t114.5 96t63 130.5t21 147.5q0 139 -72.5 206.5t-242.5 67.5h-228l-96 -684h275z" />
<glyph unicode="S" horiz-adv-x="907" d="M594 1414q172 0 280 -135l-12 -10q-103 129 -268 129q-103 0 -181 -51.5t-116 -130.5t-38 -172q0 -105 52 -163.5t189 -117.5t198.5 -131.5t61.5 -197.5q0 -117 -46.5 -218.5t-141.5 -168t-220 -66.5q-113 0 -185 41.5t-128 121.5l11 10q54 -77 123.5 -117t178.5 -40 q91 0 166.5 37t123.5 98.5t74.5 139t26.5 160.5q0 121 -58.5 189.5t-191.5 126.5q-141 62 -196 124.5t-55 171.5q0 95 39.5 178t121.5 137.5t191 54.5z" />
<glyph unicode="T" horiz-adv-x="792" d="M886 1394l-6 -17h-357l-193 -1377h-17l193 1377h-358l2 17h736z" />
<glyph unicode="U" horiz-adv-x="1062" d="M989 1394l-147 -1059q-10 -72 -37.5 -134t-73.5 -112.5t-117 -79t-159 -28.5t-151 29t-95 79t-42.5 112t-0.5 134l147 1059h17l-147 -1058q-12 -67 -0.5 -128t40 -108t89 -75t144.5 -28q85 0 152.5 27.5t111 76t70 108t35.5 128.5l147 1057h17z" />
<glyph unicode="V" horiz-adv-x="911" d="M964 1394l-571 -1394h-20l-185 1394h17l179 -1378l563 1378h17z" />
<glyph unicode="W" horiz-adv-x="1325" d="M1368 1394l-462 -1394h-20l-105 1377l-489 -1377h-20l-73 1394h16l69 -1375l489 1375h22l103 -1375l453 1375h17z" />
<glyph unicode="X" horiz-adv-x="794" d="M832 1394l-394 -637l252 -757h-17l-247 745l-452 -745h-18l460 757l-216 637h17l211 -625l386 625h18z" />
<glyph unicode="Y" horiz-adv-x="813" d="M895 1394l-476 -840l-78 -554h-17l78 555l-242 839h16l236 -823l464 823h19z" />
<glyph unicode="Z" horiz-adv-x="845" d="M-8 0l2 16l865 1362h-612l2 16h631l-2 -16l-864 -1362h647l-4 -16h-665z" />
<glyph unicode="[" horiz-adv-x="524" d="M530 1622l-1 -13h-180l-256 -1804h181l-2 -14h-196l259 1831h195z" />
<glyph unicode="\" horiz-adv-x="899" d="M416 1627l135 -1813l-14 -4l-135 1814z" />
<glyph unicode="]" horiz-adv-x="524" d="M499 1622l-258 -1831h-197l2 14h181l255 1804h-182l1 13h198z" />
<glyph unicode="^" horiz-adv-x="894" d="M618 1677l201 -598h-18l-191 580l-359 -580h-19l373 598h13z" />
<glyph unicode="_" horiz-adv-x="901" d="M-4 -186l2 15h709l-2 -15h-709z" />
<glyph unicode="`" horiz-adv-x="413" d="M211 1536l259 -175l-7 -10l-263 169z" />
<glyph unicode="a" horiz-adv-x="925" d="M586 1081q116 0 208 -61l-107 -777q-19 -105 -11.5 -163.5t56.5 -85.5l-6 -13q-28 15 -44 36.5t-20 55.5t-2.5 65t8.5 84q-134 -241 -310 -241q-118 0 -182.5 97t-64.5 260q0 101 16.5 202t54 199.5t91 173.5t134.5 121.5t179 46.5zM586 1066q-94 0 -172.5 -45.5 t-130 -119t-87.5 -170t-52 -195.5t-16 -197q0 -156 60 -249t171 -93q175 0 313 255l105 760q-82 54 -191 54z" />
<glyph unicode="b" horiz-adv-x="954" d="M609 1081q118 0 177.5 -87t59.5 -252q0 -97 -15.5 -198.5t-51 -203t-86.5 -181t-129.5 -129t-171.5 -49.5q-116 0 -253 66l202 1450l16 2l-87 -629q166 211 339 211zM608 1065q-92 0 -174 -55t-166 -160l-111 -793q125 -60 236 -60q91 0 166 49t124 126.5t83 177.5 t48.5 199t14.5 193q0 323 -221 323z" />
<glyph unicode="c" horiz-adv-x="788" d="M562 1081q129 0 211 -103l-12 -10q-77 98 -199 98q-101 0 -184 -60t-136 -161t-81.5 -227.5t-28.5 -263.5q0 -174 66 -265.5t185 -91.5q67 0 121 26t110 77l10 -10q-118 -109 -241 -109q-126 0 -197 97t-71 276q0 140 29.5 269t84.5 232t141.5 164.5t191.5 61.5z" />
<glyph unicode="d" horiz-adv-x="950" d="M864 1499l17 -2l-210 -1497h-14l39 290q-34 -67 -68 -118.5t-76.5 -96.5t-93.5 -69.5t-107 -24.5q-113 0 -176.5 93t-63.5 260q0 95 15.5 195.5t50.5 200t84.5 177t124 126t161.5 48.5q95 0 152 -55.5t81 -140.5zM547 1066q-104 0 -187.5 -71t-132 -183t-74 -235.5 t-25.5 -242.5q0 -160 59 -248.5t165 -88.5q105 0 188 86t160 240l75 537q-56 206 -228 206z" />
<glyph unicode="e" horiz-adv-x="864" d="M806 862q0 -101 -51.5 -178.5t-145 -126.5t-211.5 -76.5t-263 -36.5q-5 -58 -5 -101q0 -169 64 -257.5t180 -88.5q77 0 139.5 28.5t133.5 89.5l9 -12q-75 -63 -139.5 -92.5t-142.5 -29.5q-124 0 -192.5 93t-68.5 268q0 79 11.5 161t34 166t61 157.5t88 131t119 90.5 t150.5 33q103 0 166 -58.5t63 -160.5zM576 1066q-82 0 -152 -36.5t-118 -96t-84.5 -140t-56.5 -163.5t-29 -171q144 9 260 36t206 74.5t139 122t49 170.5t-58 150t-156 54z" />
<glyph unicode="f" horiz-adv-x="505" d="M555 1490q-86 0 -142.5 -58t-72.5 -169l-28 -203h251l-4 -15h-249l-149 -1059q-16 -114 -45 -185t-69 -111t-113 -83l-5 11q69 40 107 79.5t66 108.5t43 180l148 1059h-152l2 15h152l29 205q17 116 77.5 178t152.5 62q101 0 185 -76l-9 -11q-43 38 -82.5 55t-92.5 17z " />
<glyph unicode="g" horiz-adv-x="923" d="M588 1081q113 0 205 -61l-147 -1057q-27 -194 -109.5 -276t-209.5 -82q-145 0 -262 95l9 12q117 -92 253 -92q58 0 105 17t87.5 55.5t69 107t41.5 164.5l39 277q-134 -241 -308 -241q-119 0 -183.5 96.5t-64.5 258.5q0 95 16.5 192.5t54 194.5t91 171.5t135 121 t178.5 46.5zM588 1066q-94 0 -172.5 -45.5t-130.5 -118.5t-88 -167.5t-51.5 -190t-15.5 -188.5q0 -155 60 -247.5t171 -92.5q173 0 311 255l104 741q-82 54 -188 54z" />
<glyph unicode="h" horiz-adv-x="974" d="M622 1081q112 0 160.5 -83.5t29.5 -224.5l-108 -773h-17l109 772q19 137 -25.5 215.5t-148.5 78.5q-106 0 -196 -92t-183 -290l-96 -684h-16l210 1497l16 2l-109 -778q89 186 177 273t197 87z" />
<glyph unicode="i" horiz-adv-x="425" d="M340 1416q-9 0 -14.5 5.5t-5.5 13.5q0 9 6 15t16 6q19 0 19 -18q0 -9 -6 -15.5t-15 -6.5zM295 1060l-148 -1060h-16l148 1060h16z" />
<glyph unicode="j" horiz-adv-x="432" d="M344 1416q-19 0 -19 19q0 9 6.5 15t15.5 6q19 0 19 -18q0 -9 -6.5 -15.5t-15.5 -6.5zM-78 -393l-6 13q101 58 147.5 131.5t68.5 234.5l152 1074h16l-151 -1074q-12 -87 -29.5 -146t-47 -102t-63 -71t-87.5 -60z" />
<glyph unicode="k" horiz-adv-x="872" d="M357 1499l-118 -843q92 211 188 318t212 107q85 0 130 -52.5t45 -140.5q0 -141 -85 -234.5t-249 -157.5l199 -496h-16l-201 503q167 64 251 155t84 230q0 82 -40 130t-118 48q-113 0 -211.5 -113t-194.5 -337l-86 -616h-16l210 1497z" />
<glyph unicode="l" horiz-adv-x="464" d="M347 1499l-193 -1382q-19 -120 76 -120q37 0 71 16l5 -14q-38 -18 -78 -18q-53 0 -76.5 35.5t-13.5 100.5l192 1380z" />
<glyph unicode="m" horiz-adv-x="1419" d="M1092 1081q101 0 141.5 -86t18.5 -241l-105 -754h-16l104 753q21 151 -15 232t-129 81q-190 0 -351 -390l-94 -676h-16l105 753q21 151 -15.5 232t-129.5 81q-188 0 -349 -401l-94 -665h-16l148 1060h14l-48 -356q151 377 346 377q101 0 141.5 -86t18.5 -241l-5 -38 q152 365 346 365z" />
<glyph unicode="n" horiz-adv-x="974" d="M622 1081q112 0 160.5 -83.5t29.5 -224.5l-109 -773h-16l108 772q19 137 -25 215.5t-148 78.5q-107 0 -196.5 -91t-182.5 -289l-96 -686h-16l148 1060h14l-46 -339q90 188 177.5 274t197.5 86z" />
<glyph unicode="o" d="M381 -19q-129 0 -198.5 97.5t-69.5 272.5q0 94 15 191t50 194.5t85.5 173.5t128 123.5t171.5 47.5q128 0 197 -96.5t69 -270.5q0 -92 -14.5 -188.5t-49 -195t-84.5 -175.5t-128 -125.5t-172 -48.5zM381 -3q92 0 167.5 48t123 123.5t80.5 172.5t46.5 191t13.5 183 q0 169 -64.5 260t-184.5 91q-76 0 -141.5 -33t-112 -89.5t-82 -128t-56 -153t-31 -159.5t-10.5 -153q0 -169 64.5 -261t186.5 -92z" />
<glyph unicode="p" horiz-adv-x="952" d="M77 -395l202 1455h15l-26 -189q150 210 337 210q119 0 178.5 -87t59.5 -252q0 -98 -15.5 -199.5t-51 -203.5t-86 -180.5t-128.5 -128t-171 -49.5q-125 0 -237 67l-61 -441zM391 -3q91 0 166 48.5t124 126.5t83 177.5t48.5 198.5t14.5 194q0 323 -223 323 q-183 0 -339 -215l-109 -787q104 -66 235 -66z" />
<glyph unicode="q" horiz-adv-x="935" d="M592 -395l85 617q-137 -241 -312 -241q-122 0 -188 96.5t-66 260.5q0 101 16.5 202t54.5 199.5t93 173.5t138 121.5t183 46.5q115 0 207 -61l-195 -1413zM365 -3q175 0 316 256l106 759q-82 54 -192 54q-97 0 -177 -45.5t-132.5 -119t-89 -170t-52.5 -195t-16 -197.5 q0 -157 61 -249.5t176 -92.5z" />
<glyph unicode="r" horiz-adv-x="606" d="M568 1081q38 0 76 -15l-5 -14q-31 14 -73 14q-105 0 -180 -84t-141 -283l-98 -699h-16l148 1060h15l-44 -315q60 181 135.5 258.5t182.5 77.5z" />
<glyph unicode="s" horiz-adv-x="770" d="M464 1081q147 0 244 -108l-12 -10q-93 102 -232 102q-112 0 -191.5 -71t-79.5 -186q0 -82 45 -133.5t162 -101.5q118 -51 167 -111.5t49 -158.5q0 -147 -91.5 -234.5t-225.5 -87.5q-95 0 -161 35.5t-118 99.5l11 11q50 -63 112.5 -96.5t155.5 -33.5q127 0 213.5 81.5 t86.5 223.5q0 94 -45.5 150.5t-161.5 105.5q-121 52 -168.5 107.5t-47.5 142.5q0 121 84.5 197t203.5 76z" />
<glyph unicode="t" horiz-adv-x="544" d="M283 1045l-116 -832q-15 -106 21 -161.5t114 -55.5q75 0 158 56l8 -13q-89 -58 -167 -58q-85 0 -125.5 60t-24.5 172l115 832h-145l2 15h146l41 273l13 1l-38 -274h243l-3 -15h-242z" />
<glyph unicode="u" horiz-adv-x="966" d="M356 -19q-109 0 -160 81.5t-31 224.5l107 773h16l-106 -773q-19 -137 27.5 -213.5t147.5 -76.5q112 0 204 94t161 263l98 706h16l-148 -1060h-13l45 321q-66 -161 -158 -250.5t-206 -89.5z" />
<glyph unicode="v" horiz-adv-x="753" d="M774 1060l-453 -1060h-20l-173 1060h17l167 -1045l445 1045h17z" />
<glyph unicode="w" horiz-adv-x="1146" d="M1152 1060l-383 -1060h-21l-102 1043l-394 -1043h-22l-86 1060h16l84 -1044l394 1044h20l102 -1044l375 1044h17z" />
<glyph unicode="x" horiz-adv-x="737" d="M720 1060l-339 -491l234 -569h-17l-228 559l-379 -559h-18l389 570l-197 490h17l191 -480l328 480h19z" />
<glyph unicode="y" horiz-adv-x="751" d="M771 1060l-449 -1061q-42 -98 -71 -154.5t-68 -105.5t-86.5 -78t-117.5 -52l-1 14q68 23 113 51t83 76.5t64.5 101t67.5 148.5h-9l-169 1060h17l166 -1049l443 1049h17z" />
<glyph unicode="z" horiz-adv-x="690" d="M699 1060l-2 -14l-692 -1030h532l-4 -16h-550l2 14l692 1031h-498l1 15h519z" />
<glyph unicode="{" horiz-adv-x="550" d="M555 1661l-1 -13q-135 0 -160 -189l-81 -579q-21 -158 -149 -165q58 -4 85.5 -45.5t15.5 -123.5l-81 -578q-13 -97 14 -141.5t93 -44.5l-1 -13q-148 0 -121 198l82 585q10 77 -17.5 116t-87.5 39l1 15q60 0 100.5 39t51.5 117l81 586q27 197 175 197z" />
<glyph unicode="|" horiz-adv-x="727" d="M526 1639l-256 -1839h-16l256 1839h16z" />
<glyph unicode="}" horiz-adv-x="548" d="M46 -231l1 13q135 0 160 189l81 579q11 81 50.5 121.5t99.5 43.5q-124 8 -102 168l81 578q13 97 -13.5 142t-92.5 45l1 13q147 0 120 -198l-81 -586q-10 -77 17.5 -116t87.5 -39l-2 -15q-60 0 -100 -39t-51 -117l-82 -585q-27 -197 -175 -197z" />
<glyph unicode="~" horiz-adv-x="794" d="M527 589q-28 0 -59 17.5t-54.5 39t-54 39t-57.5 17.5q-68 0 -130 -90l-11 8q69 98 142 98q29 0 61 -17.5t55 -39t53 -39t56 -17.5q38 0 67.5 23.5t60.5 66.5l12 -8q-68 -98 -141 -98z" />
<glyph unicode="&#xa1;" horiz-adv-x="434" d="M265 857q-10 0 -16.5 6.5t-6.5 16.5q0 11 7 18t18 7q23 0 23 -22q0 -11 -7 -18.5t-18 -7.5zM224 519l-129 -906h-16l129 906h16z" />
<glyph unicode="&#xa2;" horiz-adv-x="788" d="M562 1081q129 0 211 -103l-12 -10q-77 98 -199 98q-101 0 -184 -60t-136 -161t-81.5 -227.5t-28.5 -263.5q0 -174 66 -265.5t185 -91.5q67 0 121 26t110 77l10 -10q-110 -102 -223 -108l-39 -278h-15l38 277h-2q-126 0 -197 97t-71 276q0 185 48.5 345.5t149 267.5 t234.5 113l41 298h14l-41 -297h1z" />
<glyph unicode="&#xa3;" horiz-adv-x="831" d="M628 1374q141 0 212 -129l-12 -9q-66 122 -200 122q-114 0 -186 -89.5t-93 -233.5l-42 -301h353l-1 -16h-354l-65 -465q-13 -99 -50 -151t-111 -86h581l-5 -16h-602l1 16q79 37 118 88.5t52 148.5l65 465h-99l1 16h100l42 302q21 150 97.5 244t197.5 94z" />
<glyph unicode="&#xa4;" d="M827 277l-13 -9l-129 154q-77 -80 -191 -80q-113 0 -189 79l-127 -153l-12 9l129 155q-83 96 -83 263q0 163 78 260l-126 155l13 9l123 -153q76 85 194 85q119 0 196 -86l123 154l12 -9l-125 -156q77 -96 77 -259q0 -167 -82 -262zM494 357q119 0 193 89t74 249 q0 159 -72.5 250t-194.5 91q-120 0 -193 -91t-73 -250q0 -160 74 -249t192 -89z" />
<glyph unicode="&#xa5;" horiz-adv-x="796" d="M872 1353l-442 -694h216l-2 -15h-222l-36 -261h221l-2 -16h-221l-51 -367h-17l51 367h-218l2 16h218l36 261h-216l2 15h212l-250 694h20l243 -690l437 690h19z" />
<glyph unicode="&#xa6;" horiz-adv-x="729" d="M528 1639l-104 -732h-16l104 732h16zM372 537l-101 -737h-16l101 737h16z" />
<glyph unicode="&#xa7;" horiz-adv-x="954" d="M629 1358q-119 0 -188.5 -73.5t-69.5 -175.5q0 -79 43 -130t155 -104q103 -48 147 -107t44 -143q0 -97 -43 -167.5t-151 -141.5q75 -63 75 -167q0 -110 -76.5 -191.5t-203.5 -81.5q-138 0 -242 86l9 13q97 -83 234 -83q122 0 192 76.5t70 179.5q0 80 -42 130.5t-148 98.5 q-110 50 -158 105t-48 140q0 88 47 160.5t164 151.5q-85 67 -85 175q0 109 75 186.5t200 77.5q123 0 231 -84l-9 -12q-105 81 -222 81zM743 625q0 78 -40.5 134t-139.5 102q-77 37 -113 64q-115 -77 -160 -147.5t-45 -155.5q0 -80 45 -132.5t151 -99.5q81 -38 115 -65 q107 71 147 139.5t40 160.5z" />
<glyph unicode="&#xa8;" horiz-adv-x="423" d="M204 1387q-19 0 -19 19q0 9 6 15t15 6q19 0 19 -18q0 -9 -6 -15.5t-15 -6.5zM465 1387q-19 0 -19 19q0 9 6 15t15 6q19 0 19 -18q0 -9 -6 -15.5t-15 -6.5z" />
<glyph unicode="&#xa9;" horiz-adv-x="1347" d="M724 1463q203 0 329 -150.5t126 -421.5q0 -267 -126.5 -419.5t-328.5 -152.5q-203 0 -329 150.5t-126 421.5q0 267 126.5 419.5t328.5 152.5zM724 1447q-196 0 -318 -147.5t-122 -408.5q0 -265 121.5 -410.5t318.5 -145.5q196 0 318 147.5t122 408.5q0 265 -121.5 410.5 t-318.5 145.5zM721 1236q79 0 136 -55l-8 -12q-53 51 -128 51q-36 0 -69 -17.5t-63.5 -53.5t-48.5 -102t-18 -152q0 -164 55.5 -246t144.5 -82q83 0 145 60l8 -13q-59 -63 -154 -63q-96 0 -155.5 87t-59.5 257q0 172 65 256.5t150 84.5z" />
<glyph unicode="&#xaa;" horiz-adv-x="868" d="M392 568q-86 0 -132.5 53t-46.5 141q0 136 84 213.5t225 77.5h160l14 101q15 113 -18.5 168.5t-123.5 55.5q-100 0 -206 -49l-6 13q116 52 213 52q188 0 158 -240l-56 -401q-11 -90 -4 -118q11 -39 49 -54l-5 -13q-32 11 -47 37.5t-14 58.5t5 70q-52 -84 -110 -125 t-139 -41zM393 584q81 0 140.5 43.5t108.5 130.5l39 279h-158q-138 0 -215.5 -74t-77.5 -201q0 -82 41.5 -130t121.5 -48zM96 0l1 16h530l-1 -16h-530z" />
<glyph unicode="&#xab;" horiz-adv-x="946" d="M486 1017l12 -7l-298 -421l182 -418l-12 -7l-189 420l2 12zM825 1017l12 -7l-298 -421l182 -418l-12 -7l-189 420l2 12z" />
<glyph unicode="&#xac;" horiz-adv-x="851" d="M718 664l-35 -234h-16l31 219h-530l4 15h546z" />
<glyph unicode="&#xad;" horiz-adv-x="673" d="M154 632l2 15h395l-2 -15h-395z" />
<glyph unicode="&#xae;" horiz-adv-x="1062" d="M601 1459q162 0 259.5 -115t97.5 -313q0 -201 -94.5 -320t-262.5 -119q-162 0 -259.5 115.5t-97.5 313.5q0 201 94.5 319.5t262.5 118.5zM601 607q162 0 252.5 114t90.5 310q0 193 -93 303.5t-250 110.5q-162 0 -252.5 -114t-90.5 -310q0 -192 93.5 -303t249.5 -111z M741 1157q0 -66 -30.5 -103t-78.5 -44l124 -252h-17l-122 251h-118v-249h-15v548h97q76 0 118 -38.5t42 -112.5zM499 1023h111q52 0 84 33.5t32 100.5q0 68 -37 102t-106 34h-84v-270z" />
<glyph unicode="&#xaf;" horiz-adv-x="452" d="M516 1408h-330l2 16h330z" />
<glyph unicode="&#xb0;" horiz-adv-x="874" d="M426 856q-83 0 -131.5 59t-48.5 163q0 136 74.5 236t189.5 100q83 0 131.5 -58.5t48.5 -163.5q0 -136 -74.5 -236t-189.5 -100zM426 872q109 0 178 95t69 225q0 99 -43.5 152.5t-120.5 53.5q-109 0 -177.5 -95t-68.5 -225q0 -98 43.5 -152t119.5 -54z" />
<glyph unicode="&#xb1;" horiz-adv-x="837" d="M495 1004l-45 -318h256l-2 -16h-256l-46 -319h-17l47 319h-258l2 16h258l45 318h16zM78 0l1 16h530l-1 -16h-530z" />
<glyph unicode="&#xb2;" horiz-adv-x="696" d="M473 1505q73 0 112 -46.5t39 -121.5q0 -39 -10 -80t-22.5 -74.5t-43 -80.5t-50 -75.5t-68 -85t-71.5 -82.5t-85.5 -94t-88.5 -96h366l-4 -16h-382l1 16q27 30 81.5 89.5t78.5 86t67 76t63 76.5t50.5 68.5t44.5 70.5t29.5 65t21.5 69t6 67q0 70 -35 112t-101 42 q-57 0 -102 -26.5t-90 -79.5l-12 9q49 57 97.5 84t107.5 27z" />
<glyph unicode="&#xb3;" horiz-adv-x="696" d="M479 1507q72 0 112.5 -44t40.5 -118q0 -97 -52.5 -165t-139.5 -78q147 -12 147 -167q0 -130 -68.5 -212t-180.5 -82q-63 0 -106 25t-73 80l12 8q29 -53 68.5 -75.5t98.5 -22.5q107 0 170 78.5t63 200.5q0 159 -161 159h-39l5 14h37q92 0 147.5 70t55.5 167 q0 68 -36 107.5t-101 39.5q-100 0 -186 -87l-8 11q90 91 194 91z" />
<glyph unicode="&#xb4;" horiz-adv-x="417" d="M487 1537l8 -17l-312 -169l-4 12z" />
<glyph unicode="&#xb5;" horiz-adv-x="987" d="M731 333q-23 -167 -1 -333l-15 -3q-21 147 -4 289q-68 -140 -159 -222.5t-198 -82.5q-87 0 -134 51.5t-49 149.5q-5 -35 -19 -142.5t-22 -161.5l-39 -268l-16 -1l204 1451h16l-108 -781q-21 -147 26.5 -214.5t141.5 -67.5q104 0 195 85t161 231l105 747h17z" />
<glyph unicode="&#xb6;" horiz-adv-x="1150" d="M704 1394h273l-250 -1784l-17 -3l249 1771h-244l-248 -1768l-17 -3l145 1029q-158 2 -234 86.5t-76 221.5q0 193 114.5 321.5t304.5 128.5z" />
<glyph unicode="&#xb7;" horiz-adv-x="249" d="M145 648q-10 0 -17 6.5t-7 16.5q0 11 7 18t18 7q10 0 16.5 -6.5t6.5 -16.5q0 -25 -24 -25z" />
<glyph unicode="&#xb8;" horiz-adv-x="358" d="M74 -4l-31 -161q70 -3 104 -30.5t34 -85.5t-38.5 -98.5t-103.5 -40.5q-63 0 -105 34l9 12q40 -31 96 -31q59 0 92 36t33 88q0 54 -32 77.5t-104 25.5l33 174h13z" />
<glyph unicode="&#xb9;" horiz-adv-x="696" d="M530 1492l-117 -839h-16l115 820l-213 -142l-7 12l225 149h13z" />
<glyph unicode="&#xba;" horiz-adv-x="866" d="M560 1394q104 0 162 -76.5t58 -215.5q0 -63 -11 -131t-37.5 -141t-65 -130.5t-100 -94.5t-135.5 -37q-105 0 -162.5 76.5t-57.5 216.5q0 66 11.5 136t38.5 142t66 128t99.5 91.5t133.5 35.5zM560 1378q-71 0 -129 -35t-95 -89.5t-62.5 -124.5t-36 -137.5t-10.5 -130.5 q0 -132 53.5 -204.5t150.5 -72.5q72 0 130.5 36t95.5 92t62 127t35 137t10 126q0 131 -54 203.5t-150 72.5zM94 0l2 16h530l-2 -16h-530z" />
<glyph unicode="&#xbb;" d="M254 1017l185 -421l-2 -12l-303 -420l-12 8l299 419l-180 420zM593 1017l185 -421l-2 -12l-303 -420l-11 8l298 419l-180 420z" />
<glyph unicode="&#xbc;" horiz-adv-x="1523" d="M1217 1506l13 -5l-909 -1637l-13 5zM383 555l115 820l-213 -142l-7 12l225 149h13l-117 -839h-16zM1361 258l-2 -15h-101l-34 -243h-15l34 243h-328l2 14l310 596l14 -6l-308 -589h312l39 272h14l-38 -272h101z" />
<glyph unicode="&#xbd;" horiz-adv-x="1523" d="M1217 1506l13 -5l-909 -1637l-13 5zM516 1394l-117 -839h-16l115 820l-213 -142l-7 12l225 149h13zM1209 852q73 0 112 -47t39 -122q0 -39 -10 -80t-22.5 -74.5t-43 -80t-50.5 -75.5t-67.5 -84.5t-72 -82.5t-85.5 -93.5t-88 -96.5h366l-4 -16h-382l2 16q28 31 81.5 89.5 t78 86t67.5 76t63.5 76t50.5 68.5t44 70t29.5 65t21.5 69t6 67q0 70 -35.5 112t-101.5 42q-57 0 -102 -26.5t-90 -79.5l-12 9q49 57 97.5 84.5t107.5 27.5z" />
<glyph unicode="&#xbe;" horiz-adv-x="1523" d="M1217 1506l13 -5l-909 -1637l-13 5zM573 837q0 -130 -68.5 -212.5t-180.5 -82.5q-121 0 -179 106l12 8q30 -53 69 -76t98 -23q107 0 170.5 79t63.5 201q0 158 -162 158h-39l5 15h37q92 0 148 70t56 167q0 68 -36.5 107.5t-101.5 39.5q-100 0 -186 -87l-8 11q89 90 194 90 q73 0 113.5 -43.5t40.5 -117.5q0 -97 -52.5 -165t-139.5 -78q146 -12 146 -167zM1361 258l-2 -15h-101l-34 -243h-15l34 243h-328l2 14l310 596l14 -6l-308 -589h312l39 272h14l-38 -272h101z" />
<glyph unicode="&#xbf;" horiz-adv-x="884" d="M452 1027q23 0 23 -22q0 -11 -7 -18.5t-18 -7.5q-10 0 -16.5 6.5t-6.5 16.5q0 11 7 18t18 7zM247 -400q-106 0 -160.5 63.5t-54.5 166.5q0 74 21.5 133.5t56 99.5t76.5 75t84 67.5t76.5 67t56.5 84t23 110.5q0 47 -13 114l15 3q15 -71 15 -116q-1 -62 -23 -113t-56.5 -87 t-76.5 -68.5t-84 -67t-76.5 -74t-56 -98t-21.5 -130.5q0 -97 50 -155.5t149 -58.5q79 0 143 37t137 120l11 -9q-74 -85 -142 -124.5t-150 -39.5z" />
<glyph unicode="&#xc0;" horiz-adv-x="960" d="M777 1586l-8 -11l-265 143l10 17zM803 0l-64 430h-545l-184 -430h-17l599 1394h19l209 -1394h-17zM201 446h536l-138 930z" />
<glyph unicode="&#xc1;" horiz-adv-x="960" d="M794 1718l-306 -143l-6 12l304 148zM803 0l-64 430h-545l-184 -430h-17l599 1394h19l209 -1394h-17zM201 446h536l-138 930z" />
<glyph unicode="&#xc2;" horiz-adv-x="960" d="M639 1735l-206 -160l-10 9l211 169h11l164 -169l-10 -9zM803 0l-64 430h-545l-184 -430h-17l599 1394h19l209 -1394h-17zM201 446h536l-138 930z" />
<glyph unicode="&#xc3;" horiz-adv-x="960" d="M552 1748q-28 0 -51.5 -16t-60.5 -56l-10 7q39 43 65 61.5t57 18.5q34 0 91.5 -45t92.5 -45q30 0 54 17.5t58 60.5l11 -6q-35 -48 -62 -67.5t-60 -19.5q-32 0 -65 22.5t-63.5 45t-56.5 22.5zM592 1394h19l209 -1394h-17l-64 430h-545l-184 -430h-17zM201 446h536 l-138 930z" />
<glyph unicode="&#xc4;" horiz-adv-x="960" d="M508 1645q-19 0 -19 19q0 9 6.5 15.5t15.5 6.5q18 0 18 -19q0 -9 -6 -15.5t-15 -6.5zM770 1645q-19 0 -19 19q0 9 6 15.5t15 6.5q19 0 19 -19q0 -9 -6 -15.5t-15 -6.5zM803 0l-64 430h-545l-184 -430h-17l599 1394h19l209 -1394h-17zM201 446h536l-138 930z" />
<glyph unicode="&#xc5;" horiz-adv-x="960" d="M634 1593q-48 0 -75 30.5t-27 82.5q0 74 38.5 119.5t98.5 45.5q46 0 72.5 -31t26.5 -81q0 -73 -37.5 -119.5t-96.5 -46.5zM668 1857q-55 0 -88 -41.5t-33 -109.5q0 -46 23 -72.5t65 -26.5q53 0 85.5 42.5t32.5 109.5q0 45 -22.5 71.5t-62.5 26.5zM803 0l-64 430h-545 l-184 -430h-17l599 1394h19l209 -1394h-17zM201 446h536l-138 930z" />
<glyph unicode="&#xc6;" horiz-adv-x="1275" d="M1223 1378h-591l47 -632h443l-2 -15h-440l54 -715h391l-2 -16h-405l-30 415h-512l-189 -415h-17l638 1394h619zM687 430l-71 949l-433 -949h504z" />
<glyph unicode="&#xc7;" horiz-adv-x="905" d="M721 1414q86 0 144.5 -31t104.5 -87l-10 -12q-47 55 -102 84.5t-137 29.5q-118 0 -215 -61t-159 -157.5t-105 -222t-61.5 -250t-18.5 -246.5q0 -225 84 -344.5t236 -119.5q89 0 156 33t130 87l10 -13q-138 -122 -294 -123l-28 -146q70 -3 103.5 -30.5t33.5 -85.5 t-38 -98.5t-103 -40.5q-64 0 -106 34l9 12q40 -31 97 -31q59 0 92 36t33 88q0 54 -32.5 77.5t-104.5 25.5l31 159q-154 5 -240 129t-86 350q0 88 9.5 178t31.5 184.5t53.5 180t78.5 161t104.5 131t134.5 87.5t164 32z" />
<glyph unicode="&#xc8;" horiz-adv-x="829" d="M512 1735l262 -149l-7 -11l-266 143zM856 1394l-4 -16h-503l-88 -632h433l-2 -15h-433l-101 -715h521l-2 -16h-538l195 1394h522z" />
<glyph unicode="&#xc9;" horiz-adv-x="829" d="M784 1735l7 -17l-305 -143l-6 12zM856 1394l-4 -16h-503l-88 -632h433l-2 -15h-433l-101 -715h521l-2 -16h-538l195 1394h522z" />
<glyph unicode="&#xca;" horiz-adv-x="829" d="M430 1575l-9 9l211 169h10l165 -169l-10 -9l-161 160zM856 1394l-4 -16h-503l-88 -632h433l-2 -15h-433l-101 -715h521l-2 -16h-538l195 1394h522z" />
<glyph unicode="&#xcb;" horiz-adv-x="829" d="M506 1645q-19 0 -19 19q0 9 6 15.5t15 6.5q19 0 19 -19q0 -9 -6 -15.5t-15 -6.5zM768 1645q-19 0 -19 19q0 9 6 15.5t15 6.5q19 0 19 -19q0 -9 -6 -15.5t-15 -6.5zM856 1394l-4 -16h-503l-88 -632h433l-2 -15h-433l-101 -715h521l-2 -16h-538l195 1394h522z" />
<glyph unicode="&#xcc;" horiz-adv-x="442" d="M254 1735l263 -149l-7 -11l-266 143zM351 1394l-195 -1394h-17l195 1394h17z" />
<glyph unicode="&#xcd;" horiz-adv-x="442" d="M526 1735l8 -17l-305 -143l-7 12zM351 1394l-195 -1394h-17l195 1394h17z" />
<glyph unicode="&#xce;" horiz-adv-x="442" d="M173 1575l-9 9l210 169h11l165 -169l-10 -9l-161 160zM351 1394l-195 -1394h-17l195 1394h17z" />
<glyph unicode="&#xcf;" horiz-adv-x="442" d="M249 1645q-19 0 -19 19q0 9 6 15.5t15 6.5q19 0 19 -19q0 -9 -6 -15.5t-15 -6.5zM510 1645q-18 0 -18 19q0 9 6 15.5t15 6.5q18 0 18 -19q0 -9 -6 -15.5t-15 -6.5zM351 1394l-195 -1394h-17l195 1394h17z" />
<glyph unicode="&#xd0;" horiz-adv-x="1073" d="M568 1394q68 0 125 -12.5t110.5 -44.5t90.5 -81.5t59 -129t22 -182.5q0 -140 -20.5 -271t-68.5 -255t-119 -215.5t-180.5 -147t-245.5 -55.5h-196l100 715h-155l2 16h155l93 663h228zM343 16q111 0 204 38t159 106t115.5 156t79 193.5t43.5 213.5t14 221q0 434 -390 434 h-213l-91 -647h327l-2 -16h-327l-98 -699h179z" />
<glyph unicode="&#xd1;" horiz-adv-x="1101" d="M814 1658q-32 0 -65 22.5t-63.5 45t-56.5 22.5q-28 0 -51 -15.5t-60 -56.5l-11 7q39 43 65 61.5t57 18.5q34 0 91.5 -45t92.5 -45q30 0 54 17.5t58 60.5l11 -6q-35 -48 -62 -67.5t-60 -19.5zM1010 1394l-195 -1394h-22l-447 1375q-13 -99 -36 -263l-155 -1112h-16 l195 1394h22l447 -1374q20 151 41 301l150 1073h16z" />
<glyph unicode="&#xd2;" horiz-adv-x="1167" d="M634 1735l263 -149l-8 -11l-265 143zM723 1414q167 0 257.5 -123t90.5 -355q0 -82 -9 -168.5t-30 -181t-52 -180.5t-78.5 -164.5t-106 -135.5t-137.5 -91t-170 -34q-166 0 -255 123.5t-89 354.5q0 82 10 169.5t32 181.5t54 180.5t79.5 164t105 135t134.5 91t164 33.5z M723 1398q-117 0 -214.5 -63.5t-160.5 -163.5t-106.5 -227t-62 -249.5t-18.5 -236.5q0 -224 84 -342.5t243 -118.5q89 0 166.5 33.5t134.5 90.5t102.5 135t75.5 163t50 177.5t28.5 177t8.5 163.5q0 226 -85.5 343.5t-245.5 117.5z" />
<glyph unicode="&#xd3;" horiz-adv-x="1167" d="M906 1735l8 -17l-305 -143l-7 12zM723 1414q167 0 257.5 -123t90.5 -355q0 -82 -9 -168.5t-30 -181t-52 -180.5t-78.5 -164.5t-106 -135.5t-137.5 -91t-170 -34q-166 0 -255 123.5t-89 354.5q0 82 10 169.5t32 181.5t54 180.5t79.5 164t105 135t134.5 91t164 33.5z M723 1398q-117 0 -214.5 -63.5t-160.5 -163.5t-106.5 -227t-62 -249.5t-18.5 -236.5q0 -224 84 -342.5t243 -118.5q89 0 166.5 33.5t134.5 90.5t102.5 135t75.5 163t50 177.5t28.5 177t8.5 163.5q0 226 -85.5 343.5t-245.5 117.5z" />
<glyph unicode="&#xd4;" horiz-adv-x="1167" d="M553 1575l-10 9l211 169h11l164 -169l-10 -9l-160 160zM723 1414q167 0 257.5 -123t90.5 -355q0 -82 -9 -168.5t-30 -181t-52 -180.5t-78.5 -164.5t-106 -135.5t-137.5 -91t-170 -34q-166 0 -255 123.5t-89 354.5q0 82 10 169.5t32 181.5t54 180.5t79.5 164t105 135 t134.5 91t164 33.5zM723 1398q-117 0 -214.5 -63.5t-160.5 -163.5t-106.5 -227t-62 -249.5t-18.5 -236.5q0 -224 84 -342.5t243 -118.5q89 0 166.5 33.5t134.5 90.5t102.5 135t75.5 163t50 177.5t28.5 177t8.5 163.5q0 226 -85.5 343.5t-245.5 117.5z" />
<glyph unicode="&#xd5;" horiz-adv-x="1167" d="M857 1658q-32 0 -65 22.5t-63.5 45t-56.5 22.5q-28 0 -51.5 -16t-60.5 -56l-10 7q39 43 65 61.5t57 18.5q34 0 91.5 -45t92.5 -45q30 0 54 17.5t58 60.5l11 -6q-35 -48 -62 -67.5t-60 -19.5zM723 1414q167 0 257.5 -123t90.5 -355q0 -82 -9 -168.5t-30 -181t-52 -180.5 t-78.5 -164.5t-106 -135.5t-137.5 -91t-170 -34q-166 0 -255 123.5t-89 354.5q0 82 10 169.5t32 181.5t54 180.5t79.5 164t105 135t134.5 91t164 33.5zM723 1398q-117 0 -214.5 -63.5t-160.5 -163.5t-106.5 -227t-62 -249.5t-18.5 -236.5q0 -224 84 -342.5t243 -118.5 q89 0 166.5 33.5t134.5 90.5t102.5 135t75.5 163t50 177.5t28.5 177t8.5 163.5q0 226 -85.5 343.5t-245.5 117.5z" />
<glyph unicode="&#xd6;" horiz-adv-x="1167" d="M628 1645q-18 0 -18 19q0 9 6 15.5t15 6.5q19 0 19 -19q0 -9 -6.5 -15.5t-15.5 -6.5zM890 1645q-19 0 -19 19q0 9 6 15.5t15 6.5q19 0 19 -19q0 -9 -6 -15.5t-15 -6.5zM723 1414q167 0 257.5 -123t90.5 -355q0 -82 -9 -168.5t-30 -181t-52 -180.5t-78.5 -164.5 t-106 -135.5t-137.5 -91t-170 -34q-166 0 -255 123.5t-89 354.5q0 82 10 169.5t32 181.5t54 180.5t79.5 164t105 135t134.5 91t164 33.5zM723 1398q-117 0 -214.5 -63.5t-160.5 -163.5t-106.5 -227t-62 -249.5t-18.5 -236.5q0 -224 84 -342.5t243 -118.5q89 0 166.5 33.5 t134.5 90.5t102.5 135t75.5 163t50 177.5t28.5 177t8.5 163.5q0 226 -85.5 343.5t-245.5 117.5z" />
<glyph unicode="&#xd7;" horiz-adv-x="829" d="M687 916l12 -10l-258 -276l183 -277l-14 -9l-182 276l-257 -276l-11 10l258 276l-184 277l15 9l182 -275z" />
<glyph unicode="&#xd8;" horiz-adv-x="1167" d="M882 1378q189 -98 189 -442q0 -82 -9 -168.5t-30 -181t-52 -180.5t-78.5 -164.5t-106 -135.5t-137.5 -91t-170 -34q-72 0 -130 24l-85 -221l-14 6l85 221q-98 46 -149 160t-51 288q0 82 10 169.5t32 181.5t54 180.5t79.5 164t105 135t134.5 91t164 33.5q83 0 146 -30 l88 235l15 -6zM161 458q0 -344 190 -433l511 1345q-59 28 -139 28q-117 0 -214.5 -63.5t-160.5 -163.5t-106.5 -227t-62 -249.5t-18.5 -236.5zM488 -3q89 0 166.5 33.5t134.5 90.5t102.5 135t75.5 163t50 177.5t28.5 177t8.5 163.5q0 333 -180 428l-511 -1345 q57 -23 125 -23z" />
<glyph unicode="&#xd9;" horiz-adv-x="1062" d="M563 1735l263 -149l-7 -11l-266 143zM989 1394l-147 -1059q-10 -72 -37.5 -134t-73.5 -112.5t-117 -79t-159 -28.5t-151 29t-95 79t-42.5 112t-0.5 134l147 1059h17l-147 -1058q-12 -67 -0.5 -128t40 -108t89 -75t144.5 -28q85 0 152.5 27.5t111 76t70 108t35.5 128.5 l147 1057h17z" />
<glyph unicode="&#xda;" horiz-adv-x="1062" d="M835 1735l8 -17l-305 -143l-7 12zM989 1394l-147 -1059q-10 -72 -37.5 -134t-73.5 -112.5t-117 -79t-159 -28.5t-151 29t-95 79t-42.5 112t-0.5 134l147 1059h17l-147 -1058q-12 -67 -0.5 -128t40 -108t89 -75t144.5 -28q85 0 152.5 27.5t111 76t70 108t35.5 128.5 l147 1057h17z" />
<glyph unicode="&#xdb;" horiz-adv-x="1062" d="M482 1575l-9 9l210 169h11l165 -169l-11 -9l-160 160zM989 1394l-147 -1059q-10 -72 -37.5 -134t-73.5 -112.5t-117 -79t-159 -28.5t-151 29t-95 79t-42.5 112t-0.5 134l147 1059h17l-147 -1058q-12 -67 -0.5 -128t40 -108t89 -75t144.5 -28q85 0 152.5 27.5t111 76 t70 108t35.5 128.5l147 1057h17z" />
<glyph unicode="&#xdc;" horiz-adv-x="1062" d="M558 1645q-19 0 -19 19q0 9 6 15.5t15 6.5q19 0 19 -19q0 -9 -6 -15.5t-15 -6.5zM819 1645q-19 0 -19 19q0 9 6 15.5t15 6.5q19 0 19 -19q0 -9 -6 -15.5t-15 -6.5zM989 1394l-147 -1059q-10 -72 -37.5 -134t-73.5 -112.5t-117 -79t-159 -28.5t-151 29t-95 79t-42.5 112 t-0.5 134l147 1059h17l-147 -1058q-12 -67 -0.5 -128t40 -108t89 -75t144.5 -28q85 0 152.5 27.5t111 76t70 108t35.5 128.5l147 1057h17z" />
<glyph unicode="&#xdd;" horiz-adv-x="813" d="M710 1735l7 -17l-305 -143l-6 12zM895 1394l-476 -840l-78 -554h-17l78 555l-242 839h16l236 -823l464 823h19z" />
<glyph unicode="&#xde;" horiz-adv-x="917" d="M508 1129q353 0 353 -311q0 -74 -14 -142.5t-49 -136.5t-88.5 -117.5t-140 -80t-195.5 -30.5h-175l-43 -311h-17l195 1394h17l-37 -265h194zM378 327q106 0 188.5 30t133.5 77.5t84 113t46 131.5t13 138q0 152 -83.5 224t-251.5 72h-196l-110 -786h176z" />
<glyph unicode="&#xdf;" horiz-adv-x="966" d="M-78 -393l-6 11q69 40 107 79.5t66 108.5t43 180l158 1122q26 186 119 290.5t222 104.5q93 0 147.5 -57.5t54.5 -147.5q0 -56 -14.5 -102.5t-37.5 -79t-50.5 -60t-55 -51t-50.5 -47t-37.5 -54.5t-14.5 -66q0 -36 19 -71t47 -62.5t61 -65t61 -77t47 -101t19 -134.5 q0 -43 -9 -88.5t-31 -92.5t-53 -83.5t-80.5 -59.5t-108.5 -23q-52 0 -100 17t-77 39l6 13q71 -54 170 -54q70 0 124 33t84 84.5t44.5 106t14.5 106.5q0 85 -26.5 153.5t-63.5 112t-74.5 81t-64 79.5t-26.5 87q0 43 19.5 79.5t48 61t62.5 56.5t62.5 63.5t48 83.5t19.5 116 q0 84 -50 137t-137 53q-122 0 -209.5 -100t-113.5 -282l-157 -1120q-12 -87 -29.5 -146t-47 -102t-63 -71t-87.5 -60z" />
<glyph unicode="&#xe0;" horiz-adv-x="925" d="M534 1536l260 -175l-8 -10l-262 169zM586 1081q116 0 208 -61l-107 -777q-19 -105 -11.5 -163.5t56.5 -85.5l-6 -13q-28 15 -44 36.5t-20 55.5t-2.5 65t8.5 84q-134 -241 -310 -241q-118 0 -182.5 97t-64.5 260q0 101 16.5 202t54 199.5t91 173.5t134.5 121.5t179 46.5z M586 1066q-94 0 -172.5 -45.5t-130 -119t-87.5 -170t-52 -195.5t-16 -197q0 -156 60 -249t171 -93q175 0 313 255l105 760q-82 54 -191 54z" />
<glyph unicode="&#xe1;" horiz-adv-x="925" d="M793 1537l8 -17l-312 -169l-5 12zM586 1081q116 0 208 -61l-107 -777q-19 -105 -11.5 -163.5t56.5 -85.5l-6 -13q-28 15 -44 36.5t-20 55.5t-2.5 65t8.5 84q-134 -241 -310 -241q-118 0 -182.5 97t-64.5 260q0 101 16.5 202t54 199.5t91 173.5t134.5 121.5t179 46.5z M586 1066q-94 0 -172.5 -45.5t-130 -119t-87.5 -170t-52 -195.5t-16 -197q0 -156 60 -249t171 -93q175 0 313 255l105 760q-82 54 -191 54z" />
<glyph unicode="&#xe2;" horiz-adv-x="925" d="M445 1348l-10 9l214 179h11l161 -179l-11 -9l-156 171zM586 1081q116 0 208 -61l-107 -777q-19 -105 -11.5 -163.5t56.5 -85.5l-6 -13q-28 15 -44 36.5t-20 55.5t-2.5 65t8.5 84q-134 -241 -310 -241q-118 0 -182.5 97t-64.5 260q0 101 16.5 202t54 199.5t91 173.5 t134.5 121.5t179 46.5zM586 1066q-94 0 -172.5 -45.5t-130 -119t-87.5 -170t-52 -195.5t-16 -197q0 -156 60 -249t171 -93q175 0 313 255l105 760q-82 54 -191 54z" />
<glyph unicode="&#xe3;" horiz-adv-x="925" d="M735 1400q-32 0 -65 22.5t-63 45t-56 22.5q-28 0 -51.5 -16t-60.5 -56l-11 7q39 43 65 61.5t57 18.5q34 0 92 -45t93 -45q30 0 54 17.5t58 60.5l11 -6q-35 -48 -62.5 -67.5t-60.5 -19.5zM586 1081q116 0 208 -61l-107 -777q-19 -105 -11.5 -163.5t56.5 -85.5l-6 -13 q-28 15 -44 36.5t-20 55.5t-2.5 65t8.5 84q-134 -241 -310 -241q-118 0 -182.5 97t-64.5 260q0 101 16.5 202t54 199.5t91 173.5t134.5 121.5t179 46.5zM586 1066q-94 0 -172.5 -45.5t-130 -119t-87.5 -170t-52 -195.5t-16 -197q0 -156 60 -249t171 -93q175 0 313 255 l105 760q-82 54 -191 54z" />
<glyph unicode="&#xe4;" horiz-adv-x="925" d="M505 1387q-18 0 -18 19q0 9 6 15t15 6q18 0 18 -18q0 -9 -6 -15.5t-15 -6.5zM767 1387q-19 0 -19 19q0 9 6 15t15 6q19 0 19 -18q0 -9 -6 -15.5t-15 -6.5zM586 1081q116 0 208 -61l-107 -777q-19 -105 -11.5 -163.5t56.5 -85.5l-6 -13q-28 15 -44 36.5t-20 55.5t-2.5 65 t8.5 84q-134 -241 -310 -241q-118 0 -182.5 97t-64.5 260q0 101 16.5 202t54 199.5t91 173.5t134.5 121.5t179 46.5zM586 1066q-94 0 -172.5 -45.5t-130 -119t-87.5 -170t-52 -195.5t-16 -197q0 -156 60 -249t171 -93q175 0 313 255l105 760q-82 54 -191 54z" />
<glyph unicode="&#xe5;" horiz-adv-x="925" d="M665 1613q46 0 72.5 -31t26.5 -81q0 -73 -37.5 -119.5t-95.5 -46.5q-48 0 -75.5 30.5t-27.5 82.5q0 74 38.5 119.5t98.5 45.5zM664 1599q-55 0 -88 -41.5t-33 -109.5q0 -46 23 -72.5t65 -26.5q53 0 85.5 42.5t32.5 109.5q0 45 -22.5 71.5t-62.5 26.5zM586 1081 q116 0 208 -61l-107 -777q-19 -105 -11.5 -163.5t56.5 -85.5l-6 -13q-28 15 -44 36.5t-20 55.5t-2.5 65t8.5 84q-134 -241 -310 -241q-118 0 -182.5 97t-64.5 260q0 101 16.5 202t54 199.5t91 173.5t134.5 121.5t179 46.5zM586 1066q-94 0 -172.5 -45.5t-130 -119 t-87.5 -170t-52 -195.5t-16 -197q0 -156 60 -249t171 -93q175 0 313 255l105 760q-82 54 -191 54z" />
<glyph unicode="&#xe6;" horiz-adv-x="1384" d="M491 1081q102 0 164.5 -69.5t72.5 -208.5q59 128 151 203t217 75q103 0 166 -58.5t63 -160.5q0 -101 -52 -178.5t-145.5 -126.5t-211.5 -76.5t-262 -36.5q-10 -90 -1 -171t33 -142.5t76.5 -97.5t129.5 -36t140 29t134 89l8 -12q-75 -63 -139.5 -92.5t-142.5 -29.5 q-211 0 -251 254q-90 -136 -172.5 -195t-184.5 -59q-105 0 -162 70t-57 185q0 76 22 140.5t66.5 117t121.5 82.5t178 30h209q19 91 53 172q-5 143 -66 215.5t-159 72.5q-109 0 -256 -69l-3 14q148 70 260 70zM1095 1066q-82 0 -152 -36.5t-118.5 -96t-85 -140t-56.5 -163.5 t-28 -171q144 9 259.5 36t206 74.5t139.5 122t49 170.5t-58 150t-156 54zM658 592h-204q-98 0 -172 -28.5t-116.5 -79t-63.5 -113t-21 -135.5q0 -108 53 -173.5t150 -65.5q102 0 183 60.5t171 195.5q-18 162 20 339z" />
<glyph unicode="&#xe7;" horiz-adv-x="788" d="M562 1081q129 0 211 -103l-12 -10q-77 98 -199 98q-101 0 -184 -60t-136 -161t-81.5 -227.5t-28.5 -263.5q0 -174 66 -265.5t185 -91.5q67 0 121 26t110 77l10 -10q-118 -109 -241 -109h-4l-28 -147q70 -3 104 -30.5t34 -85.5t-38.5 -98.5t-103.5 -40.5q-63 0 -106 34 l9 11q38 -30 97 -30t92 35.5t33 87.5q0 54 -32.5 78t-104.5 26l31 161q-119 6 -185 102.5t-66 269.5q0 140 29.5 269t84.5 232t141.5 164.5t191.5 61.5z" />
<glyph unicode="&#xe8;" horiz-adv-x="864" d="M756 1361l-7 -10l-263 169l10 16zM806 862q0 -101 -51.5 -178.5t-145 -126.5t-211.5 -76.5t-263 -36.5q-5 -58 -5 -101q0 -169 64 -257.5t180 -88.5q77 0 139.5 28.5t133.5 89.5l9 -12q-75 -63 -139.5 -92.5t-142.5 -29.5q-124 0 -192.5 93t-68.5 268q0 79 11.5 161 t34 166t61 157.5t88 131t119 90.5t150.5 33q103 0 166 -58.5t63 -160.5zM576 1066q-82 0 -152 -36.5t-118 -96t-84.5 -140t-56.5 -163.5t-29 -171q144 9 260 36t206 74.5t139 122t49 170.5t-58 150t-156 54z" />
<glyph unicode="&#xe9;" horiz-adv-x="864" d="M763 1520l-312 -169l-5 12l309 174zM806 862q0 -101 -51.5 -178.5t-145 -126.5t-211.5 -76.5t-263 -36.5q-5 -58 -5 -101q0 -169 64 -257.5t180 -88.5q77 0 139.5 28.5t133.5 89.5l9 -12q-75 -63 -139.5 -92.5t-142.5 -29.5q-124 0 -192.5 93t-68.5 268q0 79 11.5 161 t34 166t61 157.5t88 131t119 90.5t150.5 33q103 0 166 -58.5t63 -160.5zM576 1066q-82 0 -152 -36.5t-118 -96t-84.5 -140t-56.5 -163.5t-29 -171q144 9 260 36t206 74.5t139 122t49 170.5t-58 150t-156 54z" />
<glyph unicode="&#xea;" horiz-adv-x="864" d="M616 1519l-209 -171l-9 9l213 179h11l162 -179l-12 -9zM806 862q0 -101 -51.5 -178.5t-145 -126.5t-211.5 -76.5t-263 -36.5q-5 -58 -5 -101q0 -169 64 -257.5t180 -88.5q77 0 139.5 28.5t133.5 89.5l9 -12q-75 -63 -139.5 -92.5t-142.5 -29.5q-124 0 -192.5 93 t-68.5 268q0 79 11.5 161t34 166t61 157.5t88 131t119 90.5t150.5 33q103 0 166 -58.5t63 -160.5zM576 1066q-82 0 -152 -36.5t-118 -96t-84.5 -140t-56.5 -163.5t-29 -171q144 9 260 36t206 74.5t139 122t49 170.5t-58 150t-156 54z" />
<glyph unicode="&#xeb;" horiz-adv-x="864" d="M468 1387q-19 0 -19 19q0 9 6 15t15 6q19 0 19 -18q0 -9 -6 -15.5t-15 -6.5zM729 1387q-19 0 -19 19q0 9 6 15t15 6q19 0 19 -18q0 -9 -6 -15.5t-15 -6.5zM806 862q0 -101 -51.5 -178.5t-145 -126.5t-211.5 -76.5t-263 -36.5q-5 -58 -5 -101q0 -169 64 -257.5t180 -88.5 q77 0 139.5 28.5t133.5 89.5l9 -12q-75 -63 -139.5 -92.5t-142.5 -29.5q-124 0 -192.5 93t-68.5 268q0 79 11.5 161t34 166t61 157.5t88 131t119 90.5t150.5 33q103 0 166 -58.5t63 -160.5zM576 1066q-82 0 -152 -36.5t-118 -96t-84.5 -140t-56.5 -163.5t-29 -171 q144 9 260 36t206 74.5t139 122t49 170.5t-58 150t-156 54z" />
<glyph unicode="&#xec;" horiz-adv-x="425" d="M233 1536l260 -175l-8 -10l-262 169zM295 1060l-148 -1060h-16l148 1060h16z" />
<glyph unicode="&#xed;" horiz-adv-x="425" d="M492 1537l7 -17l-311 -169l-5 12zM295 1060l-148 -1060h-16l148 1060h16z" />
<glyph unicode="&#xee;" horiz-adv-x="425" d="M144 1348l-10 9l214 179h11l161 -179l-11 -9l-156 171zM295 1060l-148 -1060h-16l148 1060h16z" />
<glyph unicode="&#xef;" horiz-adv-x="425" d="M204 1387q-19 0 -19 19q0 9 6 15t15 6q19 0 19 -18q0 -9 -6 -15.5t-15 -6.5zM466 1387q-19 0 -19 19q0 9 6 15t15 6q19 0 19 -18q0 -9 -6 -15.5t-15 -6.5zM295 1060l-148 -1060h-16l148 1060h16z" />
<glyph unicode="&#xf0;" horiz-adv-x="940" d="M652 1369q164 -166 164 -477q0 -117 -17 -240t-54 -244t-89 -215.5t-130 -153t-170 -58.5q-122 0 -186.5 90.5t-64.5 247.5q0 72 14.5 153t47 165t78 150.5t115 109t151.5 42.5q183 0 279 -232q20 211 -9 373t-139 278l-177 -184l-13 6l180 188q-90 87 -214 124l6 13 q129 -40 219 -126l132 136l10 -9zM356 -3q75 0 140.5 41t112 108t83.5 158t59.5 184t35.5 193q-96 242 -276 242q-79 0 -146 -41.5t-110.5 -106.5t-74.5 -146.5t-44.5 -160t-13.5 -149.5q0 -151 60 -236.5t174 -85.5z" />
<glyph unicode="&#xf1;" horiz-adv-x="974" d="M714 1400q-32 0 -65 22.5t-63 45t-56 22.5q-28 0 -51.5 -16t-60.5 -56l-11 7q39 43 65 61.5t57 18.5q34 0 92 -45t93 -45q30 0 53.5 17t57.5 61l11 -6q-35 -48 -62 -67.5t-60 -19.5zM622 1081q112 0 160.5 -83.5t29.5 -224.5l-109 -773h-16l108 772q19 137 -25 215.5 t-148 78.5q-107 0 -196.5 -91t-182.5 -289l-96 -686h-16l148 1060h14l-46 -339q90 188 177.5 274t197.5 86z" />
<glyph unicode="&#xf2;" d="M509 1536l259 -175l-7 -10l-262 169zM381 -19q-129 0 -198.5 97.5t-69.5 272.5q0 94 15 191t50 194.5t85.5 173.5t128 123.5t171.5 47.5q128 0 197 -96.5t69 -270.5q0 -92 -14.5 -188.5t-49 -195t-84.5 -175.5t-128 -125.5t-172 -48.5zM381 -3q92 0 167.5 48t123 123.5 t80.5 172.5t46.5 191t13.5 183q0 169 -64.5 260t-184.5 91q-76 0 -141.5 -33t-112 -89.5t-82 -128t-56 -153t-31 -159.5t-10.5 -153q0 -169 64.5 -261t186.5 -92z" />
<glyph unicode="&#xf3;" d="M768 1537l7 -17l-311 -169l-5 12zM381 -19q-129 0 -198.5 97.5t-69.5 272.5q0 94 15 191t50 194.5t85.5 173.5t128 123.5t171.5 47.5q128 0 197 -96.5t69 -270.5q0 -92 -14.5 -188.5t-49 -195t-84.5 -175.5t-128 -125.5t-172 -48.5zM381 -3q92 0 167.5 48t123 123.5 t80.5 172.5t46.5 191t13.5 183q0 169 -64.5 260t-184.5 91q-76 0 -141.5 -33t-112 -89.5t-82 -128t-56 -153t-31 -159.5t-10.5 -153q0 -169 64.5 -261t186.5 -92z" />
<glyph unicode="&#xf4;" d="M420 1348l-10 9l214 179h11l161 -179l-11 -9l-156 171zM381 -19q-129 0 -198.5 97.5t-69.5 272.5q0 94 15 191t50 194.5t85.5 173.5t128 123.5t171.5 47.5q128 0 197 -96.5t69 -270.5q0 -92 -14.5 -188.5t-49 -195t-84.5 -175.5t-128 -125.5t-172 -48.5zM381 -3 q92 0 167.5 48t123 123.5t80.5 172.5t46.5 191t13.5 183q0 169 -64.5 260t-184.5 91q-76 0 -141.5 -33t-112 -89.5t-82 -128t-56 -153t-31 -159.5t-10.5 -153q0 -169 64.5 -261t186.5 -92z" />
<glyph unicode="&#xf5;" d="M710 1400q-32 0 -65 22.5t-63.5 45t-56.5 22.5q-28 0 -51 -15.5t-60 -56.5l-11 7q39 43 65 61.5t57 18.5q34 0 91.5 -45t92.5 -45q30 0 54 17.5t58 60.5l11 -6q-35 -48 -62 -67.5t-60 -19.5zM381 -19q-129 0 -198.5 97.5t-69.5 272.5q0 94 15 191t50 194.5t85.5 173.5 t128 123.5t171.5 47.5q128 0 197 -96.5t69 -270.5q0 -92 -14.5 -188.5t-49 -195t-84.5 -175.5t-128 -125.5t-172 -48.5zM381 -3q92 0 167.5 48t123 123.5t80.5 172.5t46.5 191t13.5 183q0 169 -64.5 260t-184.5 91q-76 0 -141.5 -33t-112 -89.5t-82 -128t-56 -153 t-31 -159.5t-10.5 -153q0 -169 64.5 -261t186.5 -92z" />
<glyph unicode="&#xf6;" d="M480 1387q-19 0 -19 19q0 9 6 15t15 6q19 0 19 -18q0 -9 -6 -15.5t-15 -6.5zM742 1387q-19 0 -19 19q0 9 6 15t15 6q19 0 19 -18q0 -9 -6 -15.5t-15 -6.5zM381 -19q-129 0 -198.5 97.5t-69.5 272.5q0 94 15 191t50 194.5t85.5 173.5t128 123.5t171.5 47.5 q128 0 197 -96.5t69 -270.5q0 -92 -14.5 -188.5t-49 -195t-84.5 -175.5t-128 -125.5t-172 -48.5zM381 -3q92 0 167.5 48t123 123.5t80.5 172.5t46.5 191t13.5 183q0 169 -64.5 260t-184.5 91q-76 0 -141.5 -33t-112 -89.5t-82 -128t-56 -153t-31 -159.5t-10.5 -153 q0 -169 64.5 -261t186.5 -92z" />
<glyph unicode="&#xf7;" horiz-adv-x="833" d="M489 1065q-23 0 -23 22q0 11 7 18.5t18 7.5q10 0 16.5 -6.5t6.5 -16.5q0 -11 -7 -18t-18 -7zM171 670l2 16h530l-2 -16h-530zM376 242q-10 0 -16.5 6.5t-6.5 16.5q0 11 7 18t18 7q23 0 23 -22q0 -11 -7 -18.5t-18 -7.5z" />
<glyph unicode="&#xf8;" d="M692 1048q137 -81 137 -334q0 -92 -14.5 -188.5t-49 -195t-84.5 -175.5t-128 -125.5t-172 -48.5q-66 0 -116 26l-101 -240l-14 3l101 244q-138 83 -138 337q0 94 15 191t50 194.5t85.5 173.5t128 123.5t171.5 47.5q65 0 115 -26l99 241l14 -4zM130 350q0 -244 128 -322v1 l415 1012q-50 25 -110 25q-76 0 -141.5 -33t-112 -89.5t-82 -128t-56 -153t-31 -159.5t-10.5 -153zM381 -3q92 0 167.5 48t123 123.5t80.5 172.5t46.5 191t13.5 183q0 242 -127 319l-415 -1012q47 -25 111 -25z" />
<glyph unicode="&#xf9;" horiz-adv-x="966" d="M501 1536l259 -175l-7 -10l-263 169zM356 -19q-109 0 -160 81.5t-31 224.5l107 773h16l-106 -773q-19 -137 27.5 -213.5t147.5 -76.5q112 0 204 94t161 263l98 706h16l-148 -1060h-13l45 321q-66 -161 -158 -250.5t-206 -89.5z" />
<glyph unicode="&#xfa;" horiz-adv-x="966" d="M759 1537l8 -17l-312 -169l-4 12zM356 -19q-109 0 -160 81.5t-31 224.5l107 773h16l-106 -773q-19 -137 27.5 -213.5t147.5 -76.5q112 0 204 94t161 263l98 706h16l-148 -1060h-13l45 321q-66 -161 -158 -250.5t-206 -89.5z" />
<glyph unicode="&#xfb;" horiz-adv-x="966" d="M412 1348l-10 9l214 179h11l161 -179l-11 -9l-156 171zM356 -19q-109 0 -160 81.5t-31 224.5l107 773h16l-106 -773q-19 -137 27.5 -213.5t147.5 -76.5q112 0 204 94t161 263l98 706h16l-148 -1060h-13l45 321q-66 -161 -158 -250.5t-206 -89.5z" />
<glyph unicode="&#xfc;" horiz-adv-x="966" d="M472 1387q-19 0 -19 19q0 9 6 15t15 6q19 0 19 -18q0 -9 -6 -15.5t-15 -6.5zM733 1387q-18 0 -18 19q0 9 6 15t15 6q19 0 19 -18q0 -9 -6.5 -15.5t-15.5 -6.5zM356 -19q-109 0 -160 81.5t-31 224.5l107 773h16l-106 -773q-19 -137 27.5 -213.5t147.5 -76.5q112 0 204 94 t161 263l98 706h16l-148 -1060h-13l45 321q-66 -161 -158 -250.5t-206 -89.5z" />
<glyph unicode="&#xfd;" horiz-adv-x="751" d="M651 1537l7 -17l-311 -169l-5 12zM771 1060l-449 -1061q-42 -98 -71 -154.5t-68 -105.5t-86.5 -78t-117.5 -52l-1 14q68 23 113 51t83 76.5t64.5 101t67.5 148.5h-9l-169 1060h17l166 -1049l443 1049h17z" />
<glyph unicode="&#xfe;" horiz-adv-x="950" d="M603 1081q239 0 239 -339q0 -98 -15.5 -199.5t-51 -203.5t-86 -180.5t-128.5 -128t-171 -49.5q-125 0 -237 67l-61 -438l-17 -3l266 1890l16 2l-87 -626q82 100 162 154t171 54zM390 -3q90 0 165.5 48.5t124 126.5t83 177.5t49 198.5t14.5 194q0 323 -223 323 q-165 0 -335 -213l-111 -789q104 -66 233 -66z" />
<glyph unicode="&#xff;" horiz-adv-x="751" d="M363 1387q-19 0 -19 19q0 9 6 15t15 6q19 0 19 -18q0 -9 -6 -15.5t-15 -6.5zM625 1387q-19 0 -19 19q0 9 6 15t15 6q19 0 19 -18q0 -9 -6 -15.5t-15 -6.5zM771 1060l-449 -1061q-42 -98 -71 -154.5t-68 -105.5t-86.5 -78t-117.5 -52l-1 14q68 23 113 51t83 76.5t64.5 101 t67.5 148.5h-9l-169 1060h17l166 -1049l443 1049h17z" />
<glyph unicode="&#x152;" horiz-adv-x="1409" d="M1435 1394l-3 -16h-600q87 -47 134 -160t47 -282q0 -98 -11 -190h271l-3 -15h-270q-15 -115 -43.5 -221.5t-73.5 -206.5t-113 -176t-151 -111h639l-3 -16h-676q-51 -19 -113 -19q-152 0 -237 124.5t-85 353.5q0 116 19 241.5t62.5 254t105 230t154.5 165.5t203 64 q65 0 111 -20h636zM996 937q0 223 -82.5 342t-227.5 119q-107 0 -197.5 -63.5t-149.5 -163.5t-100.5 -227t-59.5 -250t-18 -236q0 -222 80 -341.5t225 -119.5q82 0 153.5 33.5t124.5 91t96.5 134.5t71.5 162.5t47.5 178t28 177t8.5 163.5z" />
<glyph unicode="&#x153;" horiz-adv-x="1536" d="M1477 862q0 -101 -51.5 -178.5t-145.5 -126.5t-212 -76.5t-263 -36.5q-5 -58 -5 -101q0 -169 64 -257.5t180 -88.5q77 0 139.5 28.5t133.5 89.5l9 -12q-75 -63 -139.5 -92.5t-142.5 -29.5q-124 0 -192.5 93.5t-67.5 272.5q0 19 2 57q-23 -88 -57.5 -160.5t-83 -133.5 t-116 -95t-148.5 -34q-129 0 -198.5 97.5t-69.5 272.5q0 94 15 191t50 194.5t85.5 173.5t128 123.5t171.5 47.5q128 0 196.5 -96t69.5 -271q0 -19 -2 -61q24 89 59.5 162.5t86 135t121 96t153.5 34.5q103 0 166.5 -58.5t63.5 -160.5zM381 -3q92 0 167.5 48t123 123.5 t80.5 172.5t46.5 191t13.5 183q0 169 -64.5 260t-184.5 91q-76 0 -141.5 -33t-112 -89.5t-82 -128t-56 -153t-31 -159.5t-10.5 -153q0 -169 64.5 -261t186.5 -92zM1246 1066q-102 0 -184 -54t-133.5 -145t-81.5 -193.5t-41 -214.5q144 9 260 36t206 74.5t139 122t49 170.5 t-58 150t-156 54z" />
<glyph unicode="&#x178;" horiz-adv-x="813" d="M432 1645q-19 0 -19 19q0 9 6 15.5t15 6.5q19 0 19 -19q0 -9 -6 -15.5t-15 -6.5zM694 1645q-19 0 -19 19q0 9 6 15.5t15 6.5q19 0 19 -19q0 -9 -6 -15.5t-15 -6.5zM895 1394l-476 -840l-78 -554h-17l78 555l-242 839h16l236 -823l464 823h19z" />
<glyph unicode="&#x2c6;" horiz-adv-x="507" d="M188 1348l-10 9l214 179h11l161 -179l-11 -9l-156 171z" />
<glyph unicode="&#x2dc;" horiz-adv-x="542" d="M493 1400q-32 0 -65 22.5t-63 45t-56 22.5q-28 0 -51.5 -16t-60.5 -56l-11 7q39 43 65 61.5t57 18.5q34 0 92 -45t93 -45q30 0 54 17.5t58 60.5l11 -6q-35 -48 -62.5 -67.5t-60.5 -19.5z" />
<glyph unicode="&#x2000;" horiz-adv-x="935" />
<glyph unicode="&#x2001;" horiz-adv-x="1871" />
<glyph unicode="&#x2002;" horiz-adv-x="935" />
<glyph unicode="&#x2003;" horiz-adv-x="1871" />
<glyph unicode="&#x2004;" horiz-adv-x="623" />
<glyph unicode="&#x2005;" horiz-adv-x="467" />
<glyph unicode="&#x2006;" horiz-adv-x="311" />
<glyph unicode="&#x2007;" horiz-adv-x="311" />
<glyph unicode="&#x2008;" horiz-adv-x="233" />
<glyph unicode="&#x2009;" horiz-adv-x="374" />
<glyph unicode="&#x200a;" horiz-adv-x="103" />
<glyph unicode="&#x2010;" horiz-adv-x="673" d="M154 632l2 15h395l-2 -15h-395z" />
<glyph unicode="&#x2011;" horiz-adv-x="673" d="M154 632l2 15h395l-2 -15h-395z" />
<glyph unicode="&#x2012;" horiz-adv-x="673" d="M154 632l2 15h395l-2 -15h-395z" />
<glyph unicode="&#x2013;" horiz-adv-x="876" d="M105 632l2 15h694l-2 -15h-694z" />
<glyph unicode="&#x2014;" horiz-adv-x="1300" d="M106 632l2 15h1118l-2 -15h-1118z" />
<glyph unicode="&#x2018;" horiz-adv-x="399" d="M299 1288q-19 0 -19 19q0 11 15 42l108 229h12l-110 -251q15 -3 15 -18q0 -21 -21 -21z" />
<glyph unicode="&#x2019;" horiz-adv-x="397" d="M335 1456q19 0 19 -19q0 -13 -14 -42l-109 -230h-12l110 251q-15 3 -15 18q0 22 21 22z" />
<glyph unicode="&#x201a;" horiz-adv-x="397" d="M135 36q19 0 19 -19q0 -13 -14 -42l-109 -229h-12l110 251q-15 3 -15 17q0 22 21 22z" />
<glyph unicode="&#x201c;" horiz-adv-x="559" d="M299 1288q-19 0 -19 19q0 11 15 42l108 229h12l-110 -251q15 -3 15 -18q0 -21 -21 -21zM460 1288q-20 0 -20 19q0 11 15 42l109 229h12l-110 -251q15 -3 15 -18q0 -21 -21 -21z" />
<glyph unicode="&#x201d;" horiz-adv-x="557" d="M335 1456q19 0 19 -19q0 -13 -14 -42l-109 -230h-12l110 251q-15 3 -15 18q0 22 21 22zM495 1456q20 0 20 -19q0 -11 -15 -42l-109 -230h-12l111 251q-15 3 -15 18q0 22 20 22z" />
<glyph unicode="&#x201e;" horiz-adv-x="557" d="M135 36q19 0 19 -19q0 -13 -14 -42l-109 -229h-12l110 251q-15 3 -15 17q0 22 21 22zM295 36q20 0 20 -19q0 -11 -15 -42l-108 -229h-12l110 251q-15 3 -15 17q0 22 20 22z" />
<glyph unicode="&#x2022;" horiz-adv-x="395" d="M226 751q13 0 20.5 -7.5t7.5 -19.5q0 -14 -9.5 -23.5t-22.5 -9.5t-20.5 8t-7.5 20q0 13 9 22.5t23 9.5z" />
<glyph unicode="&#x2026;" horiz-adv-x="751" d="M52 -11q-10 0 -16.5 6.5t-6.5 16.5q0 25 24 25q10 0 16.5 -6.5t6.5 -16.5q0 -25 -24 -25zM302 -11q-10 0 -16.5 6.5t-6.5 16.5q0 11 7 18t18 7q10 0 16.5 -6.5t6.5 -16.5q0 -11 -7 -18t-18 -7zM553 -11q-10 0 -16.5 6.5t-6.5 16.5q0 25 24 25q10 0 17 -6.5t7 -16.5 q0 -11 -7 -18t-18 -7z" />
<glyph unicode="&#x202f;" horiz-adv-x="374" />
<glyph unicode="&#x2039;" horiz-adv-x="606" d="M486 1017l12 -7l-298 -421l182 -418l-12 -7l-189 420l2 12z" />
<glyph unicode="&#x203a;" horiz-adv-x="604" d="M254 1017l185 -421l-2 -12l-303 -420l-12 8l299 419l-180 420z" />
<glyph unicode="&#x205f;" horiz-adv-x="467" />
<glyph unicode="&#x20ac;" horiz-adv-x="968" d="M762 1374q74 0 129 -25.5t108 -79.5l-10 -13q-52 53 -104.5 77.5t-123.5 24.5q-147 0 -270.5 -134.5t-197.5 -387.5h482l-5 -15h-481l-44 -262h435l-6 -16h-431q-21 -273 51.5 -409.5t225.5 -136.5q118 0 237 85v-17q-120 -84 -238 -84q-160 0 -237 141.5t-56 420.5h-123 l5 16h120l44 262h-120l5 15h118q76 260 205 399t282 139z" />
<glyph unicode="&#x2122;" horiz-adv-x="1447" d="M689 1394l-4 -15h-224l-106 -759h-15l106 759h-226l2 15h467zM1309 1394l-66 -774h-15l53 633q10 101 12 121l-321 -662h-14l-137 665q-6 -49 -26 -154l-115 -603h-15l147 774h19l136 -667l322 667h20z" />
<glyph unicode="&#x25fc;" horiz-adv-x="1064" d="M0 1065h1065v-1065h-1065v1065z" />
<glyph unicode="&#xfb03;" horiz-adv-x="1406" d="M1276 1060l-148 -1060h-17l146 1045h-462l-149 -1059q-21 -145 -59.5 -218.5t-114.5 -126.5l-6 10q70 50 106.5 122.5t56.5 212.5l150 1059h-471l-147 -1059q-16 -114 -45 -185t-69 -111t-113 -83l-5 11q69 40 107 79.5t66 108.5t43 180l148 1059h-152l2 15h152l26 185 q17 116 91 177t189 61q121 0 254 -84q65 104 196 104q110 0 208 -78l-10 -11q-48 38 -94 56.5t-105 18.5q-91 0 -149.5 -57t-74.5 -169l-29 -203h479zM781 1060l29 205q11 77 40 126l-3 -4q-131 81 -247 81q-109 0 -178.5 -56.5t-85.5 -168.5l-25 -183h470z" />
<glyph unicode="&#xfb04;" horiz-adv-x="1464" d="M1229 -3q37 0 71 16l5 -14q-38 -18 -77 -18q-53 0 -77 35.5t-14 100.5l186 1308q-137 63 -260 63q-98 0 -160.5 -57t-78.5 -168l-28 -203h248l-4 -15h-246l-150 -1059q-21 -145 -59.5 -218.5t-114.5 -126.5l-6 10q71 51 107.5 123t56.5 212l149 1059h-469l-147 -1059 q-16 -114 -45 -185t-69 -111t-113 -83l-5 11q69 40 107 79.5t66 108.5t43 180l148 1059h-152l2 15h152l26 185q17 116 91 177t189 61q121 0 254 -84q68 104 209 104q131 0 262 -65l15 1l-188 -1322q-16 -120 76 -120zM809 1265q11 76 42 127l-4 -5q-131 81 -246 81 q-109 0 -179 -56.5t-86 -168.5l-25 -183h469z" />
</font>
</defs>
</svg>
