<?xml version="1.0" standalone="no"?>
<!DOCTYPE svg PUBLIC "-//W3C//DTD SVG 1.1//EN" "http://www.w3.org/Graphics/SVG/1.1/DTD/svg11.dtd" >
<svg xmlns="http://www.w3.org/2000/svg" xmlns:xlink="http://www.w3.org/1999/xlink" version="1.1">
<metadata></metadata>
<defs>
<font id="fira_sans_compressedXBdIt" horiz-adv-x="1007" >
<font-face units-per-em="2048" ascent="1638" descent="-410" />
<missing-glyph horiz-adv-x="339" />
<glyph unicode="&#xfb01;" horiz-adv-x="1013" d="M1022 1092l-154 -1092h-340l119 850h-143l-98 -723q-11 -82 -32.5 -151t-48 -120.5t-64.5 -95.5t-74.5 -74t-86.5 -58t-91 -46t-97 -39l-78 250q71 31 113 65t72 96t44 161l99 735h-115l35 242h113l12 88q23 165 141.5 270.5t304.5 105.5q172 0 330 -88l-121 -215 q-100 50 -178 50q-63 0 -95.5 -34.5t-43.5 -109.5l-8 -67h485z" />
<glyph unicode="&#xfb02;" horiz-adv-x="1089" d="M977 240q13 0 33 4l22 -240q-91 -41 -192 -41q-135 0 -197.5 82.5t-42.5 226.5l145 1035q-36 8 -75 8q-60 0 -87 -37.5t-38 -118.5l-8 -67h125l-68 -242h-90l-98 -723q-11 -82 -32.5 -151t-48 -120.5t-64.5 -95.5t-74.5 -74t-86.5 -58t-91 -46t-97 -39l-78 250 q71 31 113 65t72 96t44 161l99 735h-115l33 242h115l12 88q23 168 132.5 272t291.5 104q121 0 215 -32l274 26l-174 -1253q-8 -57 31 -57z" />
<glyph horiz-adv-x="0" />
<glyph horiz-adv-x="682" />
<glyph unicode="&#xd;" horiz-adv-x="339" />
<glyph unicode=" "  horiz-adv-x="339" />
<glyph unicode="&#x09;" horiz-adv-x="339" />
<glyph unicode="&#xa0;" horiz-adv-x="339" />
<glyph unicode="!" horiz-adv-x="466" d="M90 532l76 891h356l-168 -891h-264zM158 -37q-76 0 -120 48t-44 120q0 90 59.5 152.5t149.5 62.5q75 0 119.5 -48.5t44.5 -121.5q0 -91 -59.5 -152t-149.5 -61z" />
<glyph unicode="&#x22;" horiz-adv-x="870" d="M156 840l45 583h288l-118 -583h-215zM580 840l45 583h288l-118 -583h-215z" />
<glyph unicode="#" horiz-adv-x="978" d="M1006 899h-109l-94 -387h88l-33 -221h-110l-72 -291h-266l71 291h-135l-72 -291h-264l72 291h-94l32 221h115l96 387h-94l29 223h119l65 264h268l-65 -264h133l66 264h266l-66 -264h84zM537 512l94 387h-133l-97 -387h136z" />
<glyph unicode="$" horiz-adv-x="935" d="M623 848q94 -48 151 -95.5t89 -115.5t32 -158q0 -186 -106.5 -316t-286.5 -169l-47 -326h-230l45 318q-200 29 -331 192l184 176q60 -62 115.5 -92.5t123.5 -30.5q83 0 130 51.5t47 133.5q0 58 -38.5 99t-138.5 91q-139 68 -200.5 145t-61.5 197q0 173 108.5 296.5 t280.5 156.5l43 301h232l-45 -305q159 -35 264 -168l-170 -172q-99 102 -209 102q-70 0 -109.5 -40.5t-39.5 -104.5q0 -50 36 -84.5t132 -81.5z" />
<glyph unicode="%" horiz-adv-x="1488" d="M1169 1477l-979 -1446l177 -115l981 1446zM383 670q-120 0 -195 77.5t-75 221.5q0 119 42 220t126.5 165.5t195.5 64.5q122 0 196.5 -76t74.5 -219q0 -119 -41.5 -221t-126.5 -167.5t-197 -65.5zM401 868q41 0 70 44.5t40 100t11 111.5q0 97 -63 97q-33 0 -58 -24 t-38 -63t-19 -80.5t-6 -84.5q0 -53 15 -77t48 -24zM1055 -37q-121 0 -197 76.5t-76 220.5q0 118 42.5 220t128 166.5t196.5 64.5q121 0 194.5 -76t73.5 -219q0 -119 -41.5 -220.5t-125.5 -167t-195 -65.5zM1073 160q41 0 70 44.5t40 100t11 111.5q0 96 -64 96q-33 0 -58 -24 t-37.5 -63t-18.5 -80t-6 -85q0 -53 14.5 -76.5t48.5 -23.5z" />
<glyph unicode="&#x26;" horiz-adv-x="1351" d="M678 1460q168 0 262 -83.5t94 -217.5q0 -133 -71 -232.5t-207 -195.5l157 -242q44 87 103 267l252 -72q-90 -217 -207 -371l178 -219l-309 -131l-99 143q-97 -77 -188 -110t-197 -33q-170 0 -274 96t-104 248q0 97 35 179t95.5 146t157.5 132q-65 84 -92.5 149.5 t-27.5 133.5q0 188 122 300.5t320 112.5zM657 1237q-36 0 -60 -30.5t-33 -70t-9 -81.5q0 -69 45 -152q60 65 87.5 124.5t27.5 135.5q0 74 -58 74zM512 565q-88 -93 -88 -231q0 -127 108 -127q88 0 166 69z" />
<glyph unicode="'" horiz-adv-x="446" d="M156 840l45 583h288l-118 -583h-215z" />
<glyph unicode="(" horiz-adv-x="573" d="M506 1765l207 -151q-181 -250 -272 -572.5t-91 -646.5q0 -176 26.5 -314.5t82.5 -273.5l-242 -135q-40 91 -60 138t-52 134.5t-47 154.5t-27.5 159.5t-12.5 187.5q0 202 31 376t98 334t150.5 299.5t208.5 309.5z" />
<glyph unicode=")" horiz-adv-x="579" d="M408 1761q51 -115 75.5 -176t59.5 -166.5t50 -210.5t15 -223q0 -200 -31.5 -374.5t-98.5 -335t-151.5 -300.5t-209.5 -307l-203 152q182 256 270 571t88 643q0 179 -26 318.5t-82 273.5z" />
<glyph unicode="*" horiz-adv-x="819" d="M877 1083l-248 -45l153 -219l-264 -153l-59 249l-125 -251l-228 153l205 227l-217 41l109 263l198 -117l-10 291h297l-90 -295l219 123z" />
<glyph unicode="+" horiz-adv-x="931" d="M690 1135l-45 -322h250l-37 -266h-254l-49 -324h-272l47 324h-258l37 266h264l45 322h272z" />
<glyph unicode="," horiz-adv-x="442" d="M188 348q74 0 118 -44.5t44 -119.5q0 -52 -21 -105t-79 -157l-156 -289h-174l129 367q-65 47 -65 131q0 89 58 153t146 64z" />
<glyph unicode="-" horiz-adv-x="712" d="M68 508l34 266h570l-35 -266h-569z" />
<glyph unicode="." horiz-adv-x="450" d="M147 -37q-75 0 -119 48t-44 120q0 90 59.5 152.5t149.5 62.5q74 0 118.5 -48.5t44.5 -121.5q0 -91 -59.5 -152t-149.5 -61z" />
<glyph unicode="/" horiz-adv-x="878" d="M645 1677l287 -71l-647 -1839l-287 73z" />
<glyph unicode="0" horiz-adv-x="1058" d="M645 1419q-100 0 -185 -39t-146.5 -108.5t-108.5 -160.5t-75 -200t-42 -222.5t-14 -231.5q0 -247 96.5 -370.5t284.5 -123.5q99 0 183.5 39t146 108t108.5 160t75.5 199.5t43 221.5t14.5 231q0 245 -97 371t-284 126zM629 1163q34 0 50.5 -30.5t16.5 -104.5 q0 -160 -25.5 -342.5t-79 -325.5t-120.5 -143q-34 0 -51 31t-17 104q0 110 15 245.5t42 264t72 215t97 86.5z" />
<glyph unicode="1" horiz-adv-x="825" d="M811 1389l-195 -1389h-329l139 1030l-248 -164l-119 234l445 289h307z" />
<glyph unicode="2" horiz-adv-x="884" d="M512 1419q184 0 282.5 -99t98.5 -253q0 -74 -25 -149t-64.5 -142t-114.5 -156t-147.5 -164t-191.5 -192l457 2l-74 -266h-780l31 246q267 284 352 388q170 206 199 341q8 34 8 67q0 55 -25 83t-69 28q-49 0 -96 -31.5t-111 -99.5l-176 156q92 117 200 179t246 62z" />
<glyph unicode="3" horiz-adv-x="892" d="M504 1419q176 0 275.5 -91.5t99.5 -233.5q0 -287 -332 -363q133 -18 202.5 -82t69.5 -186q0 -136 -65.5 -250t-186 -182t-270.5 -68q-138 0 -232.5 54.5t-166.5 160.5l200 166q48 -63 92.5 -91t100.5 -28q77 0 128.5 65.5t51.5 178.5q0 137 -145 137h-95l72 236h62 q78 0 126 57.5t48 149.5q0 114 -105 114q-107 0 -221 -114l-145 180q196 190 436 190z" />
<glyph unicode="4" horiz-adv-x="991" d="M969 551l-37 -260h-115l-41 -291h-325l38 291h-495l33 231l438 905l276 -104l-358 -772h145l86 319h285l-45 -319h115z" />
<glyph unicode="5" horiz-adv-x="937" d="M952 1389l-69 -248h-396l-38 -275q90 49 174 49q120 0 194 -89t74 -257q0 -170 -66.5 -307t-194 -218t-294.5 -81q-251 0 -379 217l205 162q41 -60 82 -90.5t100 -30.5q54 0 94 30t62 80t32.5 105.5t10.5 116.5q0 68 -24 96.5t-68 28.5q-58 0 -134 -51l-221 2l107 760 h749z" />
<glyph unicode="6" horiz-adv-x="1003" d="M698 938q129 0 201 -91.5t72 -258.5q0 -174 -59 -314.5t-177.5 -225.5t-277.5 -85q-198 0 -296 118t-98 343q0 146 28 289t84 270t134 224.5t185.5 154.5t230.5 57q156 0 264 -94l-143 -195q-69 44 -127 44q-82 0 -150.5 -88.5t-109.5 -264.5q106 117 239 117zM471 209 q41 0 74.5 42t52 105t28 127.5t9.5 120.5q0 57 -16 79t-48 22q-64 0 -147 -109q-23 -165 -23 -254q0 -71 17 -102t53 -31z" />
<glyph unicode="7" horiz-adv-x="804" d="M911 1386l-34 -233l-564 -1188l-286 105l497 1056h-432l37 260h782z" />
<glyph unicode="8" d="M770 741q96 -63 140 -136t44 -167q0 -219 -147.5 -347t-378.5 -128q-203 0 -311.5 100.5t-108.5 255.5q0 263 271 394q-132 110 -132 266q0 199 132.5 319.5t341.5 120.5q182 0 286.5 -85t104.5 -230q0 -224 -242 -363zM600 1186q-48 0 -79 -33.5t-41.5 -77t-10.5 -96.5 q0 -48 19.5 -79t68.5 -58l16 -11q111 100 111 250q0 105 -84 105zM455 209q80 0 123 61t43 158q0 60 -26 96t-97 74l-31 16q-64 -54 -95.5 -126.5t-31.5 -147.5q0 -131 115 -131z" />
<glyph unicode="9" horiz-adv-x="997" d="M606 1419q197 0 298.5 -111.5t101.5 -312.5q0 -412 -232 -685.5t-686 -368.5l-45 235q233 66 359.5 159t201.5 263q-59 -62 -115.5 -91.5t-126.5 -29.5q-126 0 -205 97.5t-79 263.5q0 162 62.5 293t184 209.5t281.5 78.5zM645 825q17 126 17 230q0 68 -18.5 96.5 t-59.5 28.5q-54 0 -92.5 -57t-54 -130t-15.5 -147q0 -131 76 -131q72 0 147 110z" />
<glyph unicode=":" horiz-adv-x="452" d="M246 657q-76 0 -120 48t-44 120q0 90 59.5 152.5t149.5 62.5q75 0 119.5 -48.5t44.5 -121.5q0 -91 -59.5 -152t-149.5 -61zM150 -37q-76 0 -120 48t-44 120q0 90 59.5 152.5t149.5 62.5q74 0 118.5 -48.5t44.5 -121.5q0 -91 -59 -152t-149 -61z" />
<glyph unicode=";" horiz-adv-x="452" d="M248 657q-76 0 -120 48t-44 120q0 90 59.5 152.5t149.5 62.5q75 0 119.5 -48.5t44.5 -121.5q0 -91 -59.5 -152t-149.5 -61zM190 348q74 0 118 -44.5t44 -119.5q0 -52 -21 -105t-79 -157l-156 -289h-174l129 367q-65 47 -65 131q0 89 58 153t146 64z" />
<glyph unicode="&#x3c;" horiz-adv-x="890" d="M829 1188l76 -250l-571 -266l493 -264l-147 -234l-641 358l43 302z" />
<glyph unicode="=" horiz-adv-x="899" d="M102 764l37 266h756l-37 -266h-756zM41 326l37 266h756l-37 -266h-756z" />
<glyph unicode="&#x3e;" horiz-adv-x="890" d="M250 1188l641 -357l-41 -301l-748 -356l-77 254l579 268l-502 260z" />
<glyph unicode="?" horiz-adv-x="845" d="M543 1458q174 0 270 -90.5t96 -230.5q0 -71 -21 -129t-55 -97t-74.5 -71.5t-81.5 -59.5t-75 -54t-55 -63t-21 -79q0 -32 4 -56l-301 -47q-18 65 -18 111q0 68 18.5 124t48 93t65.5 68.5t72 57t65.5 51t48 58.5t18.5 72q0 70 -72 70t-184 -115l-178 168q177 219 430 219z M344 -37q-76 0 -120 48t-44 120q0 90 59.5 152.5t149.5 62.5q75 0 119.5 -48.5t44.5 -121.5q0 -91 -59.5 -152t-149.5 -61z" />
<glyph unicode="@" horiz-adv-x="1736" d="M1016 1458q158 0 286 -54t210 -147.5t125.5 -217t43.5 -265.5q0 -201 -60 -376t-172 -283.5t-251 -108.5q-91 0 -144.5 55.5t-58.5 139.5q-89 -187 -262 -187q-124 0 -191 89t-67 245q0 132 30 253t87.5 218.5t151 156t210.5 58.5q163 0 303 -96l-69 -510q-2 -12 -5 -34 q-16 -78 -13.5 -127.5t36.5 -49.5q54 0 99 95t67.5 222.5t22.5 245.5q0 432 -394 432q-134 0 -244 -52.5t-184 -141.5t-125 -209t-73.5 -251t-22.5 -273q0 -496 436 -496q175 0 338 70l50 -230q-88 -39 -200.5 -62.5t-217.5 -23.5q-337 0 -520 200.5t-183 551.5 q0 177 41.5 346.5t124.5 317t197 259t268.5 176t329.5 64.5zM809 221q47 0 84 76l74 522q-15 6 -35 6q-42 0 -76 -52t-53.5 -131.5t-30 -164.5t-10.5 -160q0 -53 11 -74.5t36 -21.5z" />
<glyph unicode="A" horiz-adv-x="1026" d="M614 0l-6 297h-262l-84 -297h-368l528 1423h426l131 -1423h-365zM418 555h186l-10 629z" />
<glyph unicode="B" horiz-adv-x="1046" d="M762 752q248 -55 248 -281q0 -227 -161.5 -349t-436.5 -122h-414l201 1423h376q224 0 352 -83t128 -238q0 -140 -81.5 -228.5t-211.5 -121.5zM524 858q87 0 127.5 55t40.5 150q0 106 -114 106h-60l-43 -311h49zM449 260q103 0 151.5 65.5t48.5 166.5q0 67 -32.5 99 t-104.5 32h-70l-49 -363h56z" />
<glyph unicode="C" horiz-adv-x="991" d="M729 1460q217 0 358 -164l-182 -184q-85 82 -180 82q-64 0 -116.5 -45.5t-85.5 -117.5t-55.5 -166.5t-32 -188.5t-9.5 -187q0 -131 39 -190t115 -59q54 0 103 25t122 79l129 -197q-192 -184 -428 -184q-207 0 -328 139t-121 410q0 151 26 289.5t80 259t132.5 209 t189.5 139.5t244 51z" />
<glyph unicode="D" horiz-adv-x="1124" d="M580 1423q91 0 165 -12.5t144.5 -47t118 -90.5t76 -146.5t28.5 -211.5q0 -162 -24.5 -298.5t-79 -251.5t-137 -195t-202.5 -125t-270 -45h-401l201 1423h381zM590 1163h-72l-125 -903h62q66 0 119 44t85.5 112.5t54 159.5t30 177.5t8.5 174.5q0 127 -40.5 181t-121.5 54z " />
<glyph unicode="E" horiz-adv-x="866" d="M965 1423l-78 -256h-367l-45 -319h328l-39 -252h-326l-45 -338h400l-37 -258h-758l201 1423h766z" />
<glyph unicode="F" horiz-adv-x="813" d="M938 1423l-80 -256h-338l-49 -358h305l-41 -258h-301l-80 -551h-356l201 1423h739z" />
<glyph unicode="G" horiz-adv-x="1112" d="M764 1460q239 0 391 -180l-190 -174q-52 50 -99 72t-108 22q-75 0 -135.5 -48t-98.5 -124.5t-63.5 -178t-36 -203t-10.5 -206.5q0 -115 31.5 -165t93.5 -50q71 0 135 45l43 303h-117l4 250h481l-98 -706q-106 -73 -230.5 -113.5t-236.5 -40.5q-467 0 -467 531 q0 153 29 294.5t88 264t142.5 213t199.5 142.5t252 52z" />
<glyph unicode="H" horiz-adv-x="1103" d="M354 0h-356l201 1423h356l-78 -544h240l76 544h356l-199 -1423h-356l84 598h-238z" />
<glyph unicode="I" horiz-adv-x="507" d="M555 1423l-201 -1423h-356l201 1423h356z" />
<glyph unicode="J" horiz-adv-x="561" d="M610 1423l-170 -1216q-12 -80 -34 -148t-49 -118t-66.5 -93t-76.5 -72t-87.5 -56t-92 -43.5t-97.5 -36.5l-62 249q106 52 149 126t64 218l166 1190h356z" />
<glyph unicode="K" horiz-adv-x="1130" d="M-2 0l201 1423h356l-201 -1423h-356zM682 0l-211 758l410 665h356l-408 -657l238 -766h-385z" />
<glyph unicode="L" horiz-adv-x="866" d="M555 1423l-160 -1140h434l-79 -283h-752l201 1423h356z" />
<glyph unicode="M" horiz-adv-x="1353" d="M1352 1423l-117 -1423h-344l61 539q17 135 97 612l-261 -1004h-339l-7 1002q-25 -380 -59 -614l-76 -535h-344l281 1423h424l-11 -981l238 981h457z" />
<glyph unicode="N" horiz-adv-x="1093" d="M1139 1423l-199 -1423h-422l-125 1122q7 -124 3.5 -295.5t-25.5 -347.5l-62 -479h-309l199 1423h424l122 -1124q-6 148 -2.5 294t23.5 310l68 520h305z" />
<glyph unicode="O" horiz-adv-x="1187" d="M717 1460q227 0 344 -134.5t117 -401.5q0 -151 -24.5 -289t-77 -261.5t-128.5 -214t-187 -143.5t-245 -53q-226 0 -342.5 135.5t-116.5 401.5q0 150 24 288t76 261t128 214t187 144t245 53zM694 1198q-72 0 -128.5 -80.5t-87 -204.5t-45.5 -249t-15 -238 q0 -108 30 -155.5t91 -47.5q60 0 108.5 53t79 135t51 186.5t29 202.5t8.5 189q0 110 -30 159.5t-91 49.5z" />
<glyph unicode="P" horiz-adv-x="1017" d="M586 1423q232 0 354.5 -101.5t122.5 -295.5q0 -122 -38 -224.5t-109.5 -177.5t-180 -117t-243.5 -42h-72l-66 -465h-356l201 1423h387zM492 723q208 0 208 299q0 79 -32 112t-105 33h-45l-61 -444h35z" />
<glyph unicode="Q" horiz-adv-x="1183" d="M805 92q114 -6 195.5 -41.5t146.5 -105.5l-254 -262q-133 286 -377 286q-459 0 -459 531q0 150 24 288t76 261t128 214t187 144t245 53q227 0 344 -134.5t117 -401.5q0 -136 -21.5 -260t-65.5 -234.5t-117 -198t-169 -139.5zM418 426q0 -108 30 -155.5t91 -47.5 q60 0 108.5 53t79 135t51 186.5t29 202.5t8.5 189q0 110 -30 159.5t-91 49.5q-72 0 -128.5 -80.5t-87 -204.5t-45.5 -249t-15 -238z" />
<glyph unicode="R" horiz-adv-x="1052" d="M1071 1044q0 -153 -64 -259.5t-196 -182.5l199 -602h-369l-147 530h-64l-76 -530h-356l201 1423h385q487 0 487 -379zM520 1171l-55 -393h49q70 0 116 39t63.5 94t17.5 123q0 72 -34.5 104.5t-105.5 32.5h-51z" />
<glyph unicode="S" horiz-adv-x="985" d="M625 1460q266 0 417 -190l-176 -180q-102 108 -227 108q-76 0 -119 -41t-43 -102q0 -57 39 -95t160 -100q136 -69 201 -157t65 -232q0 -221 -155 -364.5t-394 -143.5q-287 0 -456 207l192 184q66 -64 126.5 -95.5t139.5 -31.5q84 0 134.5 49.5t50.5 131.5q0 70 -43 115.5 t-160 103.5q-140 70 -200 150.5t-60 213.5q0 138 66 245.5t181.5 165.5t260.5 58z" />
<glyph unicode="T" horiz-adv-x="923" d="M1055 1423l-76 -276h-254l-162 -1147h-356l162 1147h-281l39 276h928z" />
<glyph unicode="U" horiz-adv-x="1077" d="M1145 1423l-144 -1013q-28 -195 -167 -321t-365 -126q-122 0 -213.5 36.5t-142 100t-69.5 145.5t-5 177l139 1001h357l-146 -1044q-10 -68 14.5 -109t88.5 -41q66 0 102.5 43.5t46.5 112.5l145 1038h359z" />
<glyph unicode="V" horiz-adv-x="987" d="M1141 1423l-477 -1423h-467l-105 1423h363l14 -1153l309 1153h363z" />
<glyph unicode="W" horiz-adv-x="1443" d="M1559 1423l-361 -1423h-467l60 1075l-240 -1075h-465l45 1423h348l-90 -1153l277 1153h360l-59 -1153l250 1153h342z" />
<glyph unicode="X" d="M1124 1423l-385 -657l209 -766h-373l-77 543l-207 -543h-387l407 756l-188 667h373l53 -469l192 469h383z" />
<glyph unicode="Y" horiz-adv-x="1028" d="M1182 1423l-492 -893l-74 -530h-356l74 528l-240 895h375l86 -622l246 622h381z" />
<glyph unicode="Z" horiz-adv-x="923" d="M-63 0l38 268l600 877h-440l43 278h828l-43 -272l-598 -864h505l-79 -287h-854z" />
<glyph unicode="[" horiz-adv-x="557" d="M692 1688l-37 -258h-182l-192 -1428h178l-37 -256h-508l276 1942h502z" />
<glyph unicode="\" horiz-adv-x="888" d="M553 1661l135 -1839l-307 -55l-135 1839z" />
<glyph unicode="]" horiz-adv-x="552" d="M690 1688l-274 -1942h-502l37 256h182l191 1430h-174l32 256h508z" />
<glyph unicode="^" horiz-adv-x="964" d="M807 1731l221 -652h-323l-95 396l-184 -396h-336l404 652h313z" />
<glyph unicode="_" horiz-adv-x="876" d="M-111 -360l37 268h844l-39 -268h-842z" />
<glyph unicode="`" horiz-adv-x="632" d="M340 1706l354 -281l-100 -151l-404 190z" />
<glyph unicode="a" horiz-adv-x="987" d="M610 1128q198 0 379 -106l-98 -696q-10 -53 -3.5 -84t38.5 -47l-107 -226q-86 8 -151 46.5t-90 107.5q-58 -80 -121.5 -120t-149.5 -40q-136 0 -208 103.5t-72 283.5q0 119 18.5 228t62.5 211t109.5 176t166.5 118.5t226 44.5zM578 885q-68 0 -116.5 -84.5t-69.5 -204 t-21 -254.5q0 -69 15 -97t46 -28q29 0 57.5 29.5t63.5 83.5l76 544q-29 11 -51 11z" />
<glyph unicode="b" horiz-adv-x="1009" d="M721 1128q125 0 193.5 -94.5t68.5 -271.5q0 -139 -19 -256t-62.5 -219t-110.5 -172.5t-168 -111t-230 -40.5q-183 0 -393 88l205 1471l346 37l-76 -551q45 55 109.5 87.5t136.5 32.5zM569 874q-57 0 -127 -96l-73 -549q37 -16 73 -16q50 0 88.5 51t60.5 131.5t33 169 t11 174.5q0 78 -17 106.5t-49 28.5z" />
<glyph unicode="c" horiz-adv-x="819" d="M584 1128q194 0 317 -139l-164 -184q-71 59 -139 59q-57 0 -99.5 -42.5t-65.5 -113t-33.5 -147t-10.5 -158.5q0 -98 27.5 -135t79.5 -37q62 0 153 60l121 -201q-149 -127 -336 -127q-188 0 -294.5 118t-106.5 329q0 200 64 361.5t191 259t296 97.5z" />
<glyph unicode="d" horiz-adv-x="1011" d="M739 1556l340 -34l-213 -1522h-303l4 125q-56 -82 -118 -122t-148 -40q-131 0 -202.5 99.5t-71.5 287.5q0 116 18 227.5t56 211t91 175t127.5 120t161.5 44.5q120 0 187 -96zM555 877q-44 0 -80 -53.5t-57 -135.5t-32 -169.5t-11 -164.5q0 -81 16.5 -110t48.5 -29 q59 0 131 127l66 475q-31 60 -82 60z" />
<glyph unicode="e" horiz-adv-x="948" d="M602 1128q165 0 260 -84t92 -217q-12 -366 -587 -434v-28q0 -148 125 -148q54 0 105 22.5t118 71.5l114 -198q-178 -150 -393 -150q-194 -2 -301.5 107t-103.5 325q2 121 24.5 229t68.5 200.5t112 160t159.5 105.5t206.5 38zM387 600q64 6 112 29t74.5 55.5t39 68.5 t12.5 74q0 72 -62 72q-65 0 -109 -84.5t-67 -214.5z" />
<glyph unicode="f" horiz-adv-x="628" d="M666 1305q-51 0 -81 -35t-40 -111l-8 -67h206l-73 -242h-166l-98 -723q-11 -82 -32.5 -151t-48 -120.5t-64.5 -95.5t-74.5 -74t-86.5 -58t-91 -46t-97 -39l-78 250q71 31 113 65t72 96t44 161l99 735h-115l35 242h113l12 88q23 169 132.5 274t291.5 105q163 0 276 -91 l-121 -200q-61 37 -120 37z" />
<glyph unicode="g" horiz-adv-x="991" d="M612 1128q198 0 383 -106l-135 -965q-39 -264 -163 -390t-353 -126q-196 0 -364 115l120 221q127 -74 232 -74q75 0 123.5 42.5t64.5 154.5l19 133q-92 -135 -234 -135q-130 0 -202 104t-72 283q0 118 18.5 223.5t62.5 202t109.5 166t165.5 110.5t225 41zM580 885 q-51 0 -91 -43.5t-64.5 -116.5t-37 -162t-12.5 -186q0 -68 15 -96.5t46 -28.5q56 0 127 115l70 507q-29 11 -53 11z" />
<glyph unicode="h" horiz-adv-x="956" d="M733 1128q111 0 166 -87.5t33 -237.5l-115 -803h-342l103 741q9 76 -25 76q-25 0 -54 -46.5t-79 -156.5l-86 -614h-342l213 1522l346 34l-86 -616q111 188 268 188z" />
<glyph unicode="i" horiz-adv-x="481" d="M348 1284q-83 0 -128.5 45.5t-45.5 120.5q0 96 62.5 158.5t154.5 62.5q83 0 128.5 -45.5t45.5 -120.5q0 -96 -62.5 -158.5t-154.5 -62.5zM487 1092l-151 -1092h-342l151 1092h342z" />
<glyph unicode="j" horiz-adv-x="481" d="M352 1284q-83 0 -128.5 45.5t-45.5 120.5q0 96 62.5 158.5t154.5 62.5q83 0 128.5 -45.5t45.5 -120.5q0 -96 -62.5 -158.5t-154.5 -62.5zM-139 -457l-78 250q71 31 113 65t72 96t44 161l135 977h342l-135 -965q-12 -82 -33.5 -151t-48 -120.5t-64.5 -95.5t-74 -74 t-85.5 -58t-90.5 -46t-97 -39z" />
<glyph unicode="k" horiz-adv-x="1005" d="M553 1556l-80 -589q66 83 139 121t164 38q115 0 184.5 -68t69.5 -179q0 -123 -58.5 -212t-185.5 -171l129 -496h-354l-115 524q135 57 187.5 127.5t52.5 157.5q0 37 -16 57.5t-43 20.5q-87 0 -197 -193l-94 -694h-344l213 1522z" />
<glyph unicode="l" horiz-adv-x="509" d="M539 1556l-172 -1259q-4 -31 3 -44t27 -13q13 0 33 4l25 -240q-94 -41 -195 -41q-135 0 -197.5 82.5t-42.5 226.5l175 1250z" />
<glyph unicode="m" horiz-adv-x="1396" d="M1176 1128q110 0 164 -87.5t32 -235.5l-115 -805h-342l103 741q11 84 -21 84q-21 0 -45.5 -45t-64.5 -151l-90 -629h-342l102 741q11 84 -20 84q-22 0 -47.5 -47.5t-67.5 -159.5l-86 -618h-342l151 1092h297v-160q118 196 273 196q79 0 130.5 -48t65.5 -134 q117 182 265 182z" />
<glyph unicode="n" horiz-adv-x="958" d="M733 1128q113 0 168 -87.5t33 -237.5l-115 -803h-342l103 741q9 76 -25 76q-25 0 -54 -46.5t-79 -156.5l-86 -614h-342l151 1092h297v-166q129 202 291 202z" />
<glyph unicode="o" d="M426 -37q-186 0 -290.5 109.5t-104.5 324.5q0 144 34.5 273t100.5 232.5t173.5 164.5t242.5 61q185 0 289 -110.5t104 -325.5q0 -115 -21 -220.5t-65.5 -198.5t-108 -162t-154.5 -108.5t-200 -39.5zM451 215q47 0 83.5 55t56.5 140t30 171t10 164q0 129 -74 129 q-48 0 -84.5 -54.5t-56.5 -139.5t-29.5 -170.5t-9.5 -163.5q0 -70 18 -100.5t56 -30.5z" />
<glyph unicode="p" horiz-adv-x="1009" d="M-72 -461l217 1553h306l-2 -105q111 141 272 141q125 0 193.5 -94.5t68.5 -271.5q0 -168 -30.5 -310t-91 -253t-160.5 -173.5t-230 -62.5q-71 0 -139 19l-58 -406zM440 211q51 0 91 56.5t62 142.5t33 173.5t11 164.5q0 71 -17.5 98.5t-48.5 27.5q-60 0 -127 -96l-75 -549 q41 -18 71 -18z" />
<glyph unicode="q" horiz-adv-x="1001" d="M457 -461l73 537q-95 -113 -221 -113q-135 0 -208.5 103.5t-73.5 283.5q0 123 19.5 233t64 211t110.5 174t166.5 116.5t224.5 43.5q206 0 387 -106l-196 -1446zM434 217q60 0 129 113l78 544q-29 11 -59 11q-67 0 -116 -79.5t-71 -200t-22 -263.5q0 -67 14.5 -96 t46.5 -29z" />
<glyph unicode="r" horiz-adv-x="688" d="M696 1124q44 0 88 -18l-104 -334q-50 12 -76 12q-70 0 -117.5 -78t-83.5 -217l-67 -489h-342l151 1092h293l-2 -181q102 213 260 213z" />
<glyph unicode="s" horiz-adv-x="829" d="M485 1128q106 0 198 -37t155 -102l-146 -182q-100 76 -186 76q-47 0 -76 -24t-29 -62q0 -35 34.5 -64.5t129.5 -75.5q107 -49 160 -116.5t53 -178.5q0 -120 -62 -212.5t-164 -139.5t-226 -47q-241 0 -396 168l179 176q107 -100 206 -100q56 0 86.5 29t30.5 75t-32.5 78 t-118.5 70q-112 52 -162.5 116.5t-50.5 174.5q0 163 117.5 270.5t299.5 107.5z" />
<glyph unicode="t" horiz-adv-x="671" d="M489 850l-71 -516q-15 -96 55 -96q36 0 78 22l78 -217q-116 -80 -271 -80q-161 0 -234.5 99.5t-49.5 273.5l71 514h-108l35 242h121l61 239l305 35l-37 -274h195l-76 -242h-152z" />
<glyph unicode="u" horiz-adv-x="946" d="M231 -37q-113 0 -169.5 87.5t-34.5 232.5l112 809h342l-104 -756q-9 -70 24 -70q50 0 115 123l96 703h342l-153 -1092h-297l6 145q-58 -86 -123 -134t-156 -48z" />
<glyph unicode="v" horiz-adv-x="886" d="M985 1092l-401 -1092h-414l-113 1092h359l-2 -832l217 832h354z" />
<glyph unicode="w" horiz-adv-x="1300" d="M1374 1092l-321 -1092h-383l10 778l-188 -778h-392l-20 1092h342l-66 -830l219 830h320l-23 -830l175 830h327z" />
<glyph unicode="x" horiz-adv-x="884" d="M940 1092l-285 -519l183 -573h-355l-75 389l-168 -389h-349l345 580l-173 512h359l51 -344l129 344h338z" />
<glyph unicode="y" horiz-adv-x="899" d="M997 1092l-415 -1094q-88 -234 -241 -339.5t-388 -117.5l-4 236q134 21 203 67t120 156h-122l-93 1092h353l-13 -871l240 871h360z" />
<glyph unicode="z" horiz-adv-x="792" d="M838 1092l-35 -244l-430 -586h366l-69 -262h-736l35 246l430 585h-319l39 261h719z" />
<glyph unicode="{" horiz-adv-x="548" d="M690 1722l-33 -241q-59 0 -83 -26t-33 -97l-45 -359q-16 -132 -75.5 -194t-170.5 -92q99 -21 137.5 -85t20.5 -200l-48 -356q-9 -67 10.5 -93t82.5 -26l-35 -242q-222 0 -308 87.5t-61 275.5l45 352q11 85 -6.5 116t-75.5 31l39 287q63 0 93 33.5t40 116.5l45 354 q12 96 38 159t78 110t136 68t209 21z" />
<glyph unicode="|" horiz-adv-x="602" d="M618 1661l-262 -1878h-321l262 1878h321z" />
<glyph unicode="}" horiz-adv-x="548" d="M-92 -289l31 242q61 0 85 26t33 97l45 358q7 69 27 118.5t53.5 82t72 52t93.5 34.5q-99 21 -137.5 85t-20.5 200l48 356q8 68 -11 93.5t-82 25.5l35 241q221 0 307 -87.5t62 -274.5l-45 -352q-11 -85 6.5 -116.5t75.5 -31.5l-41 -287q-62 0 -91.5 -33t-39.5 -116 l-47 -354q-9 -76 -26.5 -130.5t-50.5 -100t-83.5 -72.5t-124.5 -41.5t-174 -14.5z" />
<glyph unicode="~" horiz-adv-x="905" d="M588 469q-38 0 -73.5 12.5t-61 30.5t-49 36.5t-48.5 31t-49 12.5q-26 0 -51 -16t-40 -33.5t-44 -55.5l-152 95q35 58 66 100t72.5 83.5t89 63t100.5 21.5q47 0 89.5 -19t68.5 -42.5t58 -42.5t61 -19q42 0 69 23.5t64 76.5l157 -94q-36 -58 -66.5 -99t-71.5 -82t-88.5 -62 t-100.5 -21z" />
<glyph unicode="&#xa1;" horiz-adv-x="466" d="M258 664q-76 0 -120 47.5t-44 119.5q0 90 59.5 153t149.5 63q75 0 119.5 -48.5t44.5 -121.5q0 -91 -59.5 -152t-149.5 -61zM346 475l-80 -897h-358l172 897h266z" />
<glyph unicode="&#xa2;" horiz-adv-x="819" d="M649 291l121 -201q-120 -99 -248 -121l-47 -301h-231l49 316q-124 39 -192 149t-68 277q0 262 111 454.5t305 245.5l47 311h227l-43 -301q126 -25 221 -131l-164 -184q-71 59 -139 59q-57 0 -99.5 -42.5t-65.5 -113t-33.5 -147t-10.5 -158.5q0 -98 27.5 -135t79.5 -37 q62 0 153 60z" />
<glyph unicode="&#xa3;" horiz-adv-x="927" d="M516 502q-8 -88 -41.5 -143.5t-118.5 -98.5h502l-76 -260h-815l37 250q42 13 71 31t47 37.5t29 49t16 56t9 68.5l19 139h-117l24 178h115l27 195q29 193 139 304t299 111q237 0 338 -213l-215 -137q-24 51 -50.5 71.5t-62.5 20.5q-52 0 -76.5 -39t-35.5 -127l-25 -186 h272l-24 -178h-271z" />
<glyph unicode="&#xa4;" horiz-adv-x="942" d="M872 700q0 -136 -51 -241l146 -178l-158 -127l-121 153q-86 -55 -194 -55q-113 0 -201 57l-127 -155l-148 129l146 176q-53 103 -53 241q0 140 53 240l-148 180l160 125l121 -153q90 55 197 55q111 0 196 -57l129 155l148 -129l-146 -176q51 -102 51 -240zM492 475 q67 0 98 51.5t31 173.5t-31 174t-98 52t-99.5 -52.5t-32.5 -173.5t32.5 -173t99.5 -52z" />
<glyph unicode="&#xa5;" horiz-adv-x="972" d="M1120 1386l-379 -663h154l-27 -176h-211l-20 -139h215l-31 -177h-207l-32 -231h-338l30 231h-213l29 177h207l18 139h-209l27 176h146l-189 663h342l90 -571l242 571h356z" />
<glyph unicode="&#xa6;" horiz-adv-x="602" d="M618 1661l-106 -754h-322l107 754h321zM461 537l-105 -754h-321l104 754h322z" />
<glyph unicode="&#xa7;" horiz-adv-x="954" d="M680 934q103 -45 158 -106.5t55 -155.5q0 -186 -195 -295q84 -75 84 -187q0 -155 -122.5 -260.5t-319.5 -105.5q-201 0 -336 115l135 190q97 -68 199 -68q63 0 96 27.5t33 73.5q0 44 -34.5 73t-137.5 72q-108 44 -160.5 102.5t-52.5 153.5q0 191 190 293q-75 75 -75 188 q0 156 119 264.5t315 108.5q193 0 336 -117l-138 -186q-84 66 -190 66q-127 0 -127 -99q0 -45 32.5 -72.5t135.5 -74.5zM467 514q8 -4 84 -43q51 71 51 137q0 41 -30.5 72t-102.5 61q-5 2 -24.5 10t-28.5 13q-43 -64 -43 -131q0 -40 21.5 -67t72.5 -52z" />
<glyph unicode="&#xa8;" horiz-adv-x="874" d="M340 1309q-69 0 -108 39.5t-39 105.5q0 82 54.5 137.5t131.5 55.5q70 0 109.5 -39.5t39.5 -106.5q0 -82 -54.5 -137t-133.5 -55zM758 1309q-68 0 -108 40t-40 105q0 83 54 138t133 55q69 0 109 -40t40 -106q0 -82 -54.5 -137t-133.5 -55z" />
<glyph unicode="&#xa9;" horiz-adv-x="1370" d="M735 1577q125 0 234 -49.5t189 -138.5t126.5 -219.5t46.5 -284.5t-46.5 -284.5t-126.5 -218.5t-189 -137.5t-234 -49.5t-235 49.5t-191.5 137.5t-128.5 218.5t-47 284.5t47 284.5t128.5 219.5t191.5 138.5t235 49.5zM735 1403q-181 0 -294 -138.5t-113 -379.5t113 -378.5 t294 -137.5q178 0 292 138t114 378t-114 379t-292 139zM745 1290q134 0 230 -104l-94 -125q-61 43 -115 43q-47 0 -75.5 -51.5t-28.5 -165.5q0 -120 29 -169.5t83 -49.5t115 55l92 -133q-108 -111 -242 -111q-147 0 -229 105.5t-82 302.5q0 188 85.5 295.5t231.5 107.5z" />
<glyph unicode="&#xaa;" horiz-adv-x="829" d="M299 539q-100 0 -156.5 63.5t-56.5 167.5q0 62 20 115.5t61.5 99t117 72t176.5 26.5h61l2 23q9 60 -8 83t-65 23q-81 0 -187 -34l-45 182q144 63 297 63q167 0 241 -79.5t50 -253.5l-37 -265q-5 -35 1 -53t32 -29l-88 -198q-159 11 -199 112q-84 -118 -217 -118zM418 752 q35 0 63 36l19 132h-37q-82 0 -82 -113q0 -29 8 -42t29 -13zM-23 0l35 266h725l-35 -266h-725z" />
<glyph unicode="&#xab;" horiz-adv-x="1142" d="M461 1147l190 -141l-268 -428l149 -418l-233 -144l-266 455l37 219zM973 1147l190 -141l-268 -428l149 -418l-233 -144l-266 455l37 219z" />
<glyph unicode="&#xac;" horiz-adv-x="931" d="M897 809l-86 -588h-293l43 320h-489l37 268h788z" />
<glyph unicode="&#xad;" horiz-adv-x="712" d="M68 508l34 266h570l-35 -266h-569z" />
<glyph unicode="&#xae;" horiz-adv-x="1069" d="M600 1559q213 0 348 -157t135 -413q0 -254 -135 -409.5t-348 -155.5q-215 0 -353 155t-138 408q0 257 138 414.5t353 157.5zM600 567q147 0 236.5 110t89.5 312t-90 314t-236 112q-149 0 -241.5 -112t-92.5 -316q0 -200 92.5 -310t241.5 -110zM705 963l124 -246h-155 l-88 209h-39v-209h-139v579h149q117 0 178.5 -47t61.5 -137q0 -88 -92 -149zM547 1184v-133h47q25 0 42 17t17 52q0 64 -59 64h-47z" />
<glyph unicode="&#xaf;" horiz-adv-x="669" d="M715 1337h-541l37 240h541z" />
<glyph unicode="&#xb0;" horiz-adv-x="849" d="M399 752q-118 0 -194 76.5t-76 215.5q0 179 101 297.5t257 118.5q118 0 194.5 -77t76.5 -218q0 -177 -102 -295t-257 -118zM418 944q61 0 91 64t30 153q0 105 -70 105q-42 0 -69.5 -33.5t-38.5 -80t-11 -101.5q0 -107 68 -107z" />
<glyph unicode="&#xb1;" horiz-adv-x="931" d="M717 1315l-45 -322h250l-37 -266h-254l-49 -324h-273l47 324h-258l37 266h264l45 322h273zM18 0l37 266h756l-37 -266h-756z" />
<glyph unicode="&#xb2;" horiz-adv-x="686" d="M463 1542q114 0 182 -66t68 -163q0 -66 -21 -123t-69.5 -114.5t-102.5 -106t-145 -119.5h295l-54 -195h-526l27 181q201 186 273.5 280t72.5 170q0 31 -15 48.5t-42 17.5q-30 0 -58.5 -19.5t-68.5 -62.5l-123 112q133 160 307 160z" />
<glyph unicode="&#xb3;" horiz-adv-x="686" d="M459 1542q115 0 181.5 -58.5t66.5 -148.5q0 -88 -56 -144.5t-157 -80.5q180 -13 180 -172q0 -126 -94 -217.5t-256 -91.5q-181 0 -271 143l142 117q62 -68 127 -68q47 0 77.5 34.5t30.5 94.5q0 40 -23.5 57t-76.5 17h-56l54 164h28q56 0 84.5 29t28.5 77q0 64 -68 64 q-67 0 -145 -68l-100 127q134 125 303 125z" />
<glyph unicode="&#xb4;" horiz-adv-x="647" d="M602 1710l113 -246l-447 -194l-86 162z" />
<glyph unicode="&#xb5;" horiz-adv-x="972" d="M860 373q-29 -214 -14 -375l-318 -31q-12 66 -12 139q-41 -63 -77 -91.5t-81 -28.5q-54 0 -84 41q20 -124 0 -267l-24 -182l-322 -33l217 1547h340l-102 -758q-16 -101 31 -101q50 0 100 111l104 748h343z" />
<glyph unicode="&#xb6;" horiz-adv-x="1368" d="M686 1423h655l-258 -1845l-292 -39l225 1645h-139l-222 -1606l-290 -39l139 993q-173 3 -266 100t-93 261q0 244 146.5 387t394.5 143z" />
<glyph unicode="&#xb7;" horiz-adv-x="450" d="M215 436q-76 0 -120 48t-44 120q0 90 59.5 152.5t149.5 62.5q75 0 119.5 -48.5t44.5 -121.5q0 -91 -59.5 -152t-149.5 -61z" />
<glyph unicode="&#xb8;" horiz-adv-x="612" d="M293 33l-21 -137q78 -12 120 -56.5t42 -118.5q0 -45 -15.5 -88.5t-49.5 -85t-98 -67t-150 -25.5q-124 0 -203 68l96 145q51 -28 101 -28q36 0 59 16.5t23 48.5q0 33 -34.5 47.5t-113.5 14.5l66 266h178z" />
<glyph unicode="&#xb9;" horiz-adv-x="686" d="M666 1522l-121 -867h-238l84 627l-153 -104l-88 157l294 187h222z" />
<glyph unicode="&#xba;" horiz-adv-x="854" d="M541 1423q156 0 241.5 -84.5t85.5 -255.5q0 -111 -27 -208t-80 -173t-138 -119.5t-193 -43.5q-156 0 -242 84.5t-86 253.5q0 89 17 170t53 150t87 119t123.5 78.5t158.5 28.5zM524 1204q-35 0 -60.5 -37t-39 -96t-19.5 -117.5t-6 -115.5q0 -43 12 -61.5t38 -18.5 q33 0 59 38t39.5 96.5t20.5 118t7 113.5q0 80 -51 80zM-29 0l37 266h756l-37 -266h-756z" />
<glyph unicode="&#xbb;" horiz-adv-x="1142" d="M344 1147l264 -457l-35 -219l-393 -455l-192 144l272 426l-151 420zM856 1147l264 -457l-35 -219l-393 -455l-192 144l272 426l-151 420z" />
<glyph unicode="&#xbc;" horiz-adv-x="1679" d="M1198 1554l176 -96l-909 -1636l-178 96zM293 557l84 627l-154 -105l-88 158l295 186h221l-121 -866h-237zM1618 354l-27 -186h-65l-23 -168h-219l23 168h-332l22 168l269 551l192 -78l-205 -455h84l76 191h166l-27 -191h66z" />
<glyph unicode="&#xbd;" horiz-adv-x="1679" d="M1198 1554l176 -96l-909 -1636l-178 96zM651 1423l-121 -866h-237l84 627l-154 -105l-88 158l295 186h221zM1364 887q114 0 182 -66.5t68 -163.5q0 -66 -21 -123t-69.5 -114.5t-102.5 -105.5t-145 -119h295l-53 -195h-527l27 180q200 185 273 280t73 171q0 65 -57 65 q-30 0 -58.5 -19.5t-68.5 -62.5l-123 113q133 160 307 160z" />
<glyph unicode="&#xbe;" horiz-adv-x="1679" d="M1198 1554l176 -96l-909 -1636l-178 96zM659 840q0 -126 -94 -218t-256 -92q-179 0 -270 144l141 117q62 -68 127 -68q47 0 78 34.5t31 94.5q0 39 -24 56.5t-77 17.5h-55l53 164h29q56 0 84.5 29t28.5 77q0 64 -68 64q-67 0 -145 -68l-101 127q134 125 303 125 q115 0 181.5 -58.5t66.5 -148.5q0 -88 -56 -144.5t-157 -80.5q180 -13 180 -172zM1618 354l-27 -186h-65l-23 -168h-219l23 168h-332l22 168l269 551l192 -78l-205 -455h84l76 191h166l-27 -191h66z" />
<glyph unicode="&#xbf;" horiz-adv-x="843" d="M485 1040q76 0 120 -48t44 -120q0 -90 -59.5 -152.5t-149.5 -62.5q-75 0 -119.5 48.5t-44.5 121.5q0 91 59.5 152t149.5 61zM289 -461q-173 0 -270 92t-97 230q0 71 21 128.5t55 96.5t74.5 71.5t81.5 59.5t75 54.5t55 63.5t21 79q0 33 -4 57l301 45q19 -69 19 -110 q0 -68 -18.5 -124t-48 -93.5t-65.5 -68.5t-72 -56.5t-65.5 -51t-48 -58t-18.5 -71.5q0 -69 69 -69q79 0 187 114l178 -168q-179 -221 -430 -221z" />
<glyph unicode="&#xc0;" horiz-adv-x="1026" d="M950 1679l-100 -151l-404 172l144 239zM614 0l-6 297h-262l-84 -297h-368l528 1423h426l131 -1423h-365zM418 555h186l-10 629z" />
<glyph unicode="&#xc1;" horiz-adv-x="1026" d="M961 1702l-449 -176l-80 162l414 258zM614 0l-6 297h-262l-84 -297h-368l528 1423h426l131 -1423h-365zM418 555h186l-10 629z" />
<glyph unicode="&#xc2;" horiz-adv-x="1026" d="M672 1724l-244 -174l-123 133l287 275h203l219 -291l-135 -117zM422 1423h426l131 -1423h-365l-6 297h-262l-84 -297h-368zM418 555h186l-10 629z" />
<glyph unicode="&#xc3;" horiz-adv-x="1026" d="M573 1640q-26 0 -47.5 -21.5t-50.5 -68.5l-143 86q48 108 119 179t143 71q35 0 66.5 -14t50 -31t41 -31t41.5 -14q22 0 42.5 20t47.5 66l147 -82q-49 -110 -120.5 -180t-145.5 -70q-36 0 -72.5 22.5t-67 45t-51.5 22.5zM422 1423h426l131 -1423h-365l-6 297h-262 l-84 -297h-368zM418 555h186l-10 629z" />
<glyph unicode="&#xc4;" horiz-adv-x="1026" d="M446 1567q-69 0 -108 39.5t-39 105.5q0 82 54.5 137.5t131.5 55.5q70 0 110 -39.5t40 -106.5q0 -82 -55 -137t-134 -55zM903 1905q69 0 109.5 -40t40.5 -106q0 -82 -55 -137t-134 -55q-68 0 -107.5 40t-39.5 105q0 83 53.5 138t132.5 55zM422 1423h426l131 -1423h-365 l-6 297h-262l-84 -297h-368zM418 555h186l-10 629z" />
<glyph unicode="&#xc5;" horiz-adv-x="1026" d="M653 1495q-110 0 -170.5 66.5t-60.5 175.5q0 130 82 218.5t215 88.5q110 0 170.5 -67.5t60.5 -176.5q0 -130 -82.5 -217.5t-214.5 -87.5zM702 1874q-42 0 -66 -38t-24 -89q0 -82 58 -82q41 0 65.5 38.5t24.5 88.5q0 40 -15.5 61t-42.5 21zM614 0l-6 297h-262l-84 -297 h-368l528 1423h426l131 -1423h-365zM418 555h186l-10 629z" />
<glyph unicode="&#xc6;" horiz-adv-x="1445" d="M1407 1167h-399l-2 -323h383l-39 -250h-349l-2 -336h383l-41 -258h-669l8 297h-295l-109 -297h-385l627 1423h965zM686 555l16 606l-223 -606h207z" />
<glyph unicode="&#xc7;" horiz-adv-x="991" d="M934 147q-160 -156 -359 -180l-10 -71q78 -12 120 -56.5t42 -118.5q0 -45 -15.5 -88.5t-49.5 -85t-98 -67t-150 -25.5q-124 0 -203 68l96 145q51 -28 101 -28q36 0 58.5 16.5t22.5 48.5q0 34 -34 48t-113 14l51 208q-157 35 -246.5 170.5t-89.5 366.5q0 151 26 289.5 t80 259t132.5 209t189.5 139.5t244 51q217 0 358 -164l-182 -184q-85 82 -180 82q-64 0 -116.5 -45.5t-85.5 -117.5t-55.5 -166.5t-32 -188.5t-9.5 -187q0 -131 39 -190t115 -59q54 0 103 25t122 79z" />
<glyph unicode="&#xc8;" horiz-adv-x="866" d="M535 1939l360 -260l-100 -151l-404 172zM965 1423l-78 -256h-367l-45 -319h328l-39 -252h-326l-45 -338h400l-37 -258h-758l201 1423h766z" />
<glyph unicode="&#xc9;" horiz-adv-x="866" d="M791 1946l114 -244l-448 -176l-80 162zM965 1423l-78 -256h-367l-45 -319h328l-39 -252h-326l-45 -338h400l-37 -258h-758l201 1423h766z" />
<glyph unicode="&#xca;" horiz-adv-x="866" d="M373 1550l-123 133l287 275h202l219 -291l-135 -117l-207 174zM965 1423l-78 -256h-367l-45 -319h328l-39 -252h-326l-45 -338h400l-37 -258h-758l201 1423h766z" />
<glyph unicode="&#xcb;" horiz-adv-x="866" d="M391 1567q-69 0 -108 39.5t-39 105.5q0 82 54.5 137.5t131.5 55.5q70 0 110 -39.5t40 -106.5q0 -82 -55 -137t-134 -55zM809 1567q-68 0 -107.5 40t-39.5 105q0 83 53.5 138t132.5 55q69 0 109 -40t40 -106q0 -82 -54.5 -137t-133.5 -55zM965 1423l-78 -256h-367 l-45 -319h328l-39 -252h-326l-45 -338h400l-37 -258h-758l201 1423h766z" />
<glyph unicode="&#xcc;" horiz-adv-x="507" d="M330 1939l360 -260l-100 -151l-404 172zM555 1423l-201 -1423h-356l201 1423h356z" />
<glyph unicode="&#xcd;" horiz-adv-x="507" d="M586 1946l114 -244l-448 -176l-80 162zM555 1423l-201 -1423h-356l201 1423h356z" />
<glyph unicode="&#xce;" horiz-adv-x="507" d="M168 1550l-123 133l287 275h203l219 -291l-136 -117l-206 174zM555 1423l-201 -1423h-356l201 1423h356z" />
<glyph unicode="&#xcf;" horiz-adv-x="507" d="M186 1567q-69 0 -108 39.5t-39 105.5q0 82 54.5 137.5t131.5 55.5q70 0 110 -39.5t40 -106.5q0 -82 -55 -137t-134 -55zM604 1567q-68 0 -107.5 40t-39.5 105q0 83 53.5 138t132.5 55q69 0 109.5 -40t40.5 -106q0 -82 -55 -137t-134 -55zM555 1423l-201 -1423h-356 l201 1423h356z" />
<glyph unicode="&#xd0;" horiz-adv-x="1140" d="M596 1423q91 0 165 -12.5t144.5 -47t118 -90.5t76 -146.5t28.5 -211.5q0 -162 -24.5 -298.5t-79 -251.5t-136.5 -195t-202 -125t-270 -45h-402l86 616h-75l32 213h74l84 594h381zM471 260q66 0 119 44t85.5 112.5t54 159.5t30 177.5t8.5 174.5q0 127 -40.5 181t-121.5 54 h-71l-48 -334h193l-35 -213h-186l-49 -356h61z" />
<glyph unicode="&#xd1;" horiz-adv-x="1093" d="M795 1550q-36 0 -72.5 22.5t-67 45t-51.5 22.5q-26 0 -47.5 -21.5t-50.5 -68.5l-144 86q48 108 119.5 179t143.5 71q35 0 66.5 -14t49.5 -31t40.5 -31t41.5 -14q22 0 42.5 20t47.5 66l148 -82q-49 -110 -120.5 -180t-145.5 -70zM1139 1423l-199 -1423h-422l-125 1122 q7 -124 3.5 -295.5t-25.5 -347.5l-62 -479h-309l199 1423h424l122 -1124q-6 148 -2.5 294t23.5 310l68 520h305z" />
<glyph unicode="&#xd2;" horiz-adv-x="1187" d="M666 1939l360 -260l-100 -151l-404 172zM717 1460q227 0 344 -134.5t117 -401.5q0 -151 -24.5 -289t-77 -261.5t-128.5 -214t-187 -143.5t-245 -53q-226 0 -342.5 135.5t-116.5 401.5q0 150 24 288t76 261t128 214t187 144t245 53zM694 1198q-72 0 -128.5 -80.5 t-87 -204.5t-45.5 -249t-15 -238q0 -108 30 -155.5t91 -47.5q60 0 108.5 53t79 135t51 186.5t29 202.5t8.5 189q0 110 -30 159.5t-91 49.5z" />
<glyph unicode="&#xd3;" horiz-adv-x="1187" d="M922 1946l114 -244l-448 -176l-80 162zM717 1460q227 0 344 -134.5t117 -401.5q0 -151 -24.5 -289t-77 -261.5t-128.5 -214t-187 -143.5t-245 -53q-226 0 -342.5 135.5t-116.5 401.5q0 150 24 288t76 261t128 214t187 144t245 53zM694 1198q-72 0 -128.5 -80.5 t-87 -204.5t-45.5 -249t-15 -238q0 -108 30 -155.5t91 -47.5q60 0 108.5 53t79 135t51 186.5t29 202.5t8.5 189q0 110 -30 159.5t-91 49.5z" />
<glyph unicode="&#xd4;" horiz-adv-x="1187" d="M504 1550l-123 133l287 275h202l220 -291l-136 -117l-206 174zM717 1460q227 0 344 -134.5t117 -401.5q0 -151 -24.5 -289t-77 -261.5t-128.5 -214t-187 -143.5t-245 -53q-226 0 -342.5 135.5t-116.5 401.5q0 150 24 288t76 261t128 214t187 144t245 53zM694 1198 q-72 0 -128.5 -80.5t-87 -204.5t-45.5 -249t-15 -238q0 -108 30 -155.5t91 -47.5q60 0 108.5 53t79 135t51 186.5t29 202.5t8.5 189q0 110 -30 159.5t-91 49.5z" />
<glyph unicode="&#xd5;" horiz-adv-x="1187" d="M840 1550q-36 0 -72.5 22.5t-67 45t-51.5 22.5q-26 0 -47.5 -21.5t-50.5 -68.5l-143 86q48 108 119 179t143 71q35 0 66.5 -14t49.5 -31t40.5 -31t41.5 -14q22 0 42.5 20t47.5 66l148 -82q-49 -110 -120.5 -180t-145.5 -70zM717 1460q227 0 344 -134.5t117 -401.5 q0 -151 -24.5 -289t-77 -261.5t-128.5 -214t-187 -143.5t-245 -53q-226 0 -342.5 135.5t-116.5 401.5q0 150 24 288t76 261t128 214t187 144t245 53zM694 1198q-72 0 -128.5 -80.5t-87 -204.5t-45.5 -249t-15 -238q0 -108 30 -155.5t91 -47.5q60 0 108.5 53t79 135t51 186.5 t29 202.5t8.5 189q0 110 -30 159.5t-91 49.5z" />
<glyph unicode="&#xd6;" horiz-adv-x="1187" d="M522 1567q-69 0 -108 39.5t-39 105.5q0 82 54.5 137.5t131.5 55.5q70 0 110 -39.5t40 -106.5q0 -82 -55 -137t-134 -55zM940 1567q-68 0 -107.5 40t-39.5 105q0 83 53.5 138t132.5 55q69 0 109 -40t40 -106q0 -82 -54.5 -137t-133.5 -55zM717 1460q227 0 344 -134.5 t117 -401.5q0 -151 -24.5 -289t-77 -261.5t-128.5 -214t-187 -143.5t-245 -53q-226 0 -342.5 135.5t-116.5 401.5q0 150 24 288t76 261t128 214t187 144t245 53zM694 1198q-72 0 -128.5 -80.5t-87 -204.5t-45.5 -249t-15 -238q0 -108 30 -155.5t91 -47.5q60 0 108.5 53 t79 135t51 186.5t29 202.5t8.5 189q0 110 -30 159.5t-91 49.5z" />
<glyph unicode="&#xd7;" horiz-adv-x="899" d="M705 1055l172 -172l-244 -258l188 -258l-211 -166l-174 248l-215 -248l-172 170l238 252l-187 266l213 166l168 -258z" />
<glyph unicode="&#xd8;" horiz-adv-x="1187" d="M1010 1364q168 -139 168 -440q0 -151 -24.5 -289t-77 -261.5t-128.5 -214t-187 -143.5t-245 -53q-39 0 -59 2l-84 -244l-250 72l96 270q-162 140 -162 437q0 150 24 288t76 261t128 214t187 144t245 53q37 0 53 -2l88 240l246 -72zM694 1202q-78 0 -138 -81t-92 -206 t-47.5 -250.5t-15.5 -238.5q0 -56 9 -94l297 870h-13zM539 219q64 0 116 53.5t84 135.5t53.5 188t30 203.5t8.5 189.5q0 53 -6 94l-297 -864h11z" />
<glyph unicode="&#xd9;" horiz-adv-x="1077" d="M612 1939l361 -260l-101 -151l-403 172zM1145 1423l-144 -1013q-28 -195 -167 -321t-365 -126q-122 0 -213.5 36.5t-142 100t-69.5 145.5t-5 177l139 1001h357l-146 -1044q-10 -68 14.5 -109t88.5 -41q66 0 102.5 43.5t46.5 112.5l145 1038h359z" />
<glyph unicode="&#xda;" horiz-adv-x="1077" d="M868 1946l115 -244l-448 -176l-80 162zM1145 1423l-144 -1013q-28 -195 -167 -321t-365 -126q-122 0 -213.5 36.5t-142 100t-69.5 145.5t-5 177l139 1001h357l-146 -1044q-10 -68 14.5 -109t88.5 -41q66 0 102.5 43.5t46.5 112.5l145 1038h359z" />
<glyph unicode="&#xdb;" horiz-adv-x="1077" d="M451 1550l-123 133l286 275h203l219 -291l-135 -117l-207 174zM1145 1423l-144 -1013q-28 -195 -167 -321t-365 -126q-122 0 -213.5 36.5t-142 100t-69.5 145.5t-5 177l139 1001h357l-146 -1044q-10 -68 14.5 -109t88.5 -41q66 0 102.5 43.5t46.5 112.5l145 1038h359z " />
<glyph unicode="&#xdc;" horiz-adv-x="1077" d="M469 1567q-69 0 -108 39.5t-39 105.5q0 82 54.5 137.5t131.5 55.5q70 0 109.5 -39.5t39.5 -106.5q0 -82 -54.5 -137t-133.5 -55zM887 1567q-68 0 -108 40t-40 105q0 83 54 138t133 55q69 0 109 -40t40 -106q0 -82 -54.5 -137t-133.5 -55zM1145 1423l-144 -1013 q-28 -195 -167 -321t-365 -126q-122 0 -213.5 36.5t-142 100t-69.5 145.5t-5 177l139 1001h357l-146 -1044q-10 -68 14.5 -109t88.5 -41q66 0 102.5 43.5t46.5 112.5l145 1038h359z" />
<glyph unicode="&#xdd;" horiz-adv-x="1028" d="M840 1946l114 -244l-448 -176l-80 162zM1182 1423l-492 -893l-74 -530h-356l74 528l-240 895h375l86 -622l246 622h381z" />
<glyph unicode="&#xde;" horiz-adv-x="1024" d="M559 1202q233 0 356 -102.5t123 -302.5q0 -254 -151 -411t-420 -157h-78l-33 -229h-356l199 1423h356l-31 -221h35zM465 487q211 0 211 306q0 84 -32.5 118.5t-104.5 34.5h-52l-63 -459h41z" />
<glyph unicode="&#xdf;" horiz-adv-x="1024" d="M-139 -457l-78 250q100 43 151.5 105t69.5 184l137 1010q31 222 158 344.5t334 122.5q161 0 248.5 -80.5t87.5 -206.5q0 -62 -17.5 -114t-42.5 -87t-50 -66t-42.5 -67t-17.5 -74q0 -36 19.5 -70t47.5 -67t56 -74t47.5 -108.5t19.5 -151.5q0 -83 -23 -157t-69.5 -136.5 t-127.5 -99.5t-187 -37q-107 0 -193 49l111 238q30 -21 61 -21q41 0 60.5 38.5t19.5 99.5q0 58 -21.5 112t-47 91.5t-47 99t-21.5 131.5q0 56 15 104.5t37 84.5t43.5 71.5t36.5 82t15 99.5q0 72 -57 72q-44 0 -69.5 -53t-41.5 -164l-131 -971q-15 -106 -49.5 -192.5 t-78.5 -145t-107 -107.5t-121 -79t-135 -60z" />
<glyph unicode="&#xe0;" horiz-adv-x="987" d="M588 1706l354 -281l-100 -151l-404 190zM610 1128q198 0 379 -106l-98 -696q-10 -53 -3.5 -84t38.5 -47l-107 -226q-86 8 -151 46.5t-90 107.5q-58 -80 -121.5 -120t-149.5 -40q-136 0 -208 103.5t-72 283.5q0 119 18.5 228t62.5 211t109.5 176t166.5 118.5t226 44.5z M578 885q-68 0 -116.5 -84.5t-69.5 -204t-21 -254.5q0 -69 15 -97t46 -28q29 0 57.5 29.5t63.5 83.5l76 544q-29 11 -51 11z" />
<glyph unicode="&#xe1;" horiz-adv-x="987" d="M817 1710l113 -246l-447 -194l-86 162zM610 1128q198 0 379 -106l-98 -696q-10 -53 -3.5 -84t38.5 -47l-107 -226q-86 8 -151 46.5t-90 107.5q-58 -80 -121.5 -120t-149.5 -40q-136 0 -208 103.5t-72 283.5q0 119 18.5 228t62.5 211t109.5 176t166.5 118.5t226 44.5z M578 885q-68 0 -116.5 -84.5t-69.5 -204t-21 -254.5q0 -69 15 -97t46 -28q29 0 57.5 29.5t63.5 83.5l76 544q-29 11 -51 11z" />
<glyph unicode="&#xe2;" horiz-adv-x="987" d="M426 1270l-113 135l285 289h205l215 -305l-141 -119l-197 192zM610 1128q198 0 379 -106l-98 -696q-10 -53 -3.5 -84t38.5 -47l-107 -226q-86 8 -151 46.5t-90 107.5q-58 -80 -121.5 -120t-149.5 -40q-136 0 -208 103.5t-72 283.5q0 119 18.5 228t62.5 211t109.5 176 t166.5 118.5t226 44.5zM578 885q-68 0 -116.5 -84.5t-69.5 -204t-21 -254.5q0 -69 15 -97t46 -28q29 0 57.5 29.5t63.5 83.5l76 544q-29 11 -51 11z" />
<glyph unicode="&#xe3;" horiz-adv-x="987" d="M754 1292q-36 0 -72.5 22.5t-67 45t-51.5 22.5q-26 0 -47.5 -21.5t-50.5 -68.5l-143 86q48 108 119 179t143 71q35 0 66.5 -14t49.5 -31t40.5 -31t41.5 -14q22 0 42.5 20t47.5 66l148 -82q-49 -110 -120.5 -180t-145.5 -70zM610 1128q198 0 379 -106l-98 -696 q-10 -53 -3.5 -84t38.5 -47l-107 -226q-86 8 -151 46.5t-90 107.5q-58 -80 -121.5 -120t-149.5 -40q-136 0 -208 103.5t-72 283.5q0 119 18.5 228t62.5 211t109.5 176t166.5 118.5t226 44.5zM578 885q-68 0 -116.5 -84.5t-69.5 -204t-21 -254.5q0 -69 15 -97t46 -28 q29 0 57.5 29.5t63.5 83.5l76 544q-29 11 -51 11z" />
<glyph unicode="&#xe4;" horiz-adv-x="987" d="M442 1309q-69 0 -108 39.5t-39 105.5q0 82 54.5 137.5t131.5 55.5q70 0 110 -39.5t40 -106.5q0 -82 -55 -137t-134 -55zM860 1309q-68 0 -107.5 40t-39.5 105q0 83 53.5 138t132.5 55q69 0 109.5 -40t40.5 -106q0 -82 -55 -137t-134 -55zM610 1128q198 0 379 -106 l-98 -696q-10 -53 -3.5 -84t38.5 -47l-107 -226q-86 8 -151 46.5t-90 107.5q-58 -80 -121.5 -120t-149.5 -40q-136 0 -208 103.5t-72 283.5q0 119 18.5 228t62.5 211t109.5 176t166.5 118.5t226 44.5zM578 885q-68 0 -116.5 -84.5t-69.5 -204t-21 -254.5q0 -69 15 -97 t46 -28q29 0 57.5 29.5t63.5 83.5l76 544q-29 11 -51 11z" />
<glyph unicode="&#xe5;" horiz-adv-x="987" d="M709 1784q110 0 170.5 -67.5t60.5 -176.5q0 -130 -82.5 -217.5t-214.5 -87.5q-110 0 -170.5 66.5t-60.5 175.5q0 130 82 218.5t215 88.5zM692 1614q-42 0 -66 -38t-24 -89q0 -82 57 -82q41 0 66 38.5t25 88.5q0 40 -15.5 61t-42.5 21zM610 1128q198 0 379 -106l-98 -696 q-10 -53 -3.5 -84t38.5 -47l-107 -226q-86 8 -151 46.5t-90 107.5q-58 -80 -121.5 -120t-149.5 -40q-136 0 -208 103.5t-72 283.5q0 119 18.5 228t62.5 211t109.5 176t166.5 118.5t226 44.5zM578 885q-68 0 -116.5 -84.5t-69.5 -204t-21 -254.5q0 -69 15 -97t46 -28 q29 0 57.5 29.5t63.5 83.5l76 544q-29 11 -51 11z" />
<glyph unicode="&#xe6;" horiz-adv-x="1449" d="M516 1126q90 0 148.5 -28.5t103.5 -87.5q134 118 336 118q165 0 260 -84t92 -217q-12 -365 -588 -434q0 -95 27 -135.5t96 -40.5q56 0 107.5 22.5t118.5 71.5l114 -198q-178 -150 -393 -150q-237 -3 -342 160q-131 -160 -315 -160q-130 0 -207.5 79.5t-77.5 209.5 q0 63 12.5 118t47 110.5t88.5 95t144.5 64t207.5 24.5h69q7 33 33 104q-9 51 -47.5 77.5t-97.5 26.5q-104 0 -236 -53l-43 230q183 77 342 77zM1063 899q-45 0 -81 -44t-58 -108.5t-35 -148.5q84 8 139.5 46t76.5 84.5t21 98.5q0 72 -63 72zM535 467h-43q-65 0 -100.5 -41.5 t-35.5 -124.5q0 -92 60 -92q51 0 119 108q-7 55 0 150z" />
<glyph unicode="&#xe7;" horiz-adv-x="819" d="M770 90q-127 -108 -281 -125l-10 -69q78 -12 120 -56.5t42 -118.5q0 -45 -15.5 -88.5t-49.5 -85t-98 -67t-150 -25.5q-124 0 -203 68l96 145q51 -28 101 -28q36 0 58.5 16.5t22.5 48.5q0 34 -34 48t-113 14l53 213q-131 36 -203.5 147t-72.5 283q0 200 64 361.5t191 259 t296 97.5q194 0 317 -139l-164 -184q-71 59 -139 59q-57 0 -99.5 -42.5t-65.5 -113t-33.5 -147t-10.5 -158.5q0 -98 27.5 -135t79.5 -37q62 0 153 60z" />
<glyph unicode="&#xe8;" horiz-adv-x="948" d="M909 1425l-100 -151l-403 190l149 242zM602 1128q165 0 260 -84t92 -217q-12 -366 -587 -434v-28q0 -148 125 -148q54 0 105 22.5t118 71.5l114 -198q-178 -150 -393 -150q-194 -2 -301.5 107t-103.5 325q2 121 24.5 229t68.5 200.5t112 160t159.5 105.5t206.5 38z M387 600q64 6 112 29t74.5 55.5t39 68.5t12.5 74q0 72 -62 72q-65 0 -109 -84.5t-67 -214.5z" />
<glyph unicode="&#xe9;" horiz-adv-x="948" d="M897 1464l-446 -194l-86 162l419 278zM602 1128q165 0 260 -84t92 -217q-12 -366 -587 -434v-28q0 -148 125 -148q54 0 105 22.5t118 71.5l114 -198q-178 -150 -393 -150q-194 -2 -301.5 107t-103.5 325q2 121 24.5 229t68.5 200.5t112 160t159.5 105.5t206.5 38z M387 600q64 6 112 29t74.5 55.5t39 68.5t12.5 74q0 72 -62 72q-65 0 -109 -84.5t-67 -214.5z" />
<glyph unicode="&#xea;" horiz-adv-x="948" d="M647 1462l-254 -192l-112 135l284 289h205l215 -305l-141 -119zM602 1128q165 0 260 -84t92 -217q-12 -366 -587 -434v-28q0 -148 125 -148q54 0 105 22.5t118 71.5l114 -198q-178 -150 -393 -150q-194 -2 -301.5 107t-103.5 325q2 121 24.5 229t68.5 200.5t112 160 t159.5 105.5t206.5 38zM387 600q64 6 112 29t74.5 55.5t39 68.5t12.5 74q0 72 -62 72q-65 0 -109 -84.5t-67 -214.5z" />
<glyph unicode="&#xeb;" horiz-adv-x="948" d="M410 1309q-69 0 -108.5 39.5t-39.5 105.5q0 82 55 137.5t132 55.5q70 0 109.5 -39.5t39.5 -106.5q0 -82 -54.5 -137t-133.5 -55zM866 1647q69 0 109.5 -40t40.5 -106q0 -82 -55 -137t-134 -55q-68 0 -107.5 40t-39.5 105q0 83 53.5 138t132.5 55zM602 1128q165 0 260 -84 t92 -217q-12 -366 -587 -434v-28q0 -148 125 -148q54 0 105 22.5t118 71.5l114 -198q-178 -150 -393 -150q-194 -2 -301.5 107t-103.5 325q2 121 24.5 229t68.5 200.5t112 160t159.5 105.5t206.5 38zM387 600q64 6 112 29t74.5 55.5t39 68.5t12.5 74q0 72 -62 72 q-65 0 -109 -84.5t-67 -214.5z" />
<glyph unicode="&#xec;" horiz-adv-x="481" d="M285 1706l354 -281l-100 -151l-404 190zM487 1092l-151 -1092h-342l151 1092h342z" />
<glyph unicode="&#xed;" horiz-adv-x="481" d="M514 1710l113 -246l-447 -194l-86 162zM487 1092l-151 -1092h-342l151 1092h342z" />
<glyph unicode="&#xee;" horiz-adv-x="481" d="M123 1270l-113 135l285 289h205l215 -305l-142 -119l-196 192zM487 1092l-151 -1092h-342l151 1092h342z" />
<glyph unicode="&#xef;" horiz-adv-x="481" d="M139 1309q-69 0 -108 39.5t-39 105.5q0 82 54.5 137.5t131.5 55.5q70 0 110 -39.5t40 -106.5q0 -82 -55 -137t-134 -55zM557 1309q-68 0 -107.5 40t-39.5 105q0 83 53.5 138t132.5 55q69 0 109 -40t40 -106q0 -82 -54.5 -137t-133.5 -55zM487 1092l-151 -1092h-342 l151 1092h342z" />
<glyph unicode="&#xf0;" horiz-adv-x="1009" d="M743 1368q121 -113 176.5 -251.5t55.5 -321.5q0 -167 -35.5 -315t-103.5 -264.5t-176 -184.5t-244 -68q-178 0 -284.5 111t-106.5 307q0 104 32 210.5t86 194t134 142.5t169 55q124 0 203 -92q-6 98 -30.5 164t-77.5 127l-103 -105l-180 99l117 118q-74 30 -142 43 l93 217q98 -16 237 -75l154 161l147 -135zM449 215q29 0 53 15.5t41.5 49t30 69.5t23 95.5t17 107t15.5 122.5q-37 67 -97 67q-45 0 -79.5 -40t-53.5 -102t-28 -125t-9 -122q0 -74 22 -105.5t65 -31.5z" />
<glyph unicode="&#xf1;" horiz-adv-x="958" d="M698 1292q-36 0 -72 22.5t-66.5 45t-51.5 22.5q-26 0 -47.5 -21.5t-50.5 -68.5l-144 86q48 108 119 179t143 71q35 0 66.5 -14t50 -31t41 -31t41.5 -14q22 0 42.5 20t47.5 66l148 -82q-49 -110 -121 -180t-146 -70zM733 1128q113 0 168 -87.5t33 -237.5l-115 -803h-342 l103 741q9 76 -25 76q-25 0 -54 -46.5t-79 -156.5l-86 -614h-342l151 1092h297v-166q129 202 291 202z" />
<glyph unicode="&#xf2;" d="M547 1706l354 -281l-100 -151l-404 190zM426 -37q-186 0 -290.5 109.5t-104.5 324.5q0 144 34.5 273t100.5 232.5t173.5 164.5t242.5 61q185 0 289 -110.5t104 -325.5q0 -115 -21 -220.5t-65.5 -198.5t-108 -162t-154.5 -108.5t-200 -39.5zM451 215q47 0 83.5 55 t56.5 140t30 171t10 164q0 129 -74 129q-48 0 -84.5 -54.5t-56.5 -139.5t-29.5 -170.5t-9.5 -163.5q0 -70 18 -100.5t56 -30.5z" />
<glyph unicode="&#xf3;" d="M776 1710l113 -246l-447 -194l-86 162zM426 -37q-186 0 -290.5 109.5t-104.5 324.5q0 144 34.5 273t100.5 232.5t173.5 164.5t242.5 61q185 0 289 -110.5t104 -325.5q0 -115 -21 -220.5t-65.5 -198.5t-108 -162t-154.5 -108.5t-200 -39.5zM451 215q47 0 83.5 55t56.5 140 t30 171t10 164q0 129 -74 129q-48 0 -84.5 -54.5t-56.5 -139.5t-29.5 -170.5t-9.5 -163.5q0 -70 18 -100.5t56 -30.5z" />
<glyph unicode="&#xf4;" d="M385 1270l-113 135l285 289h205l215 -305l-141 -119l-197 192zM426 -37q-186 0 -290.5 109.5t-104.5 324.5q0 144 34.5 273t100.5 232.5t173.5 164.5t242.5 61q185 0 289 -110.5t104 -325.5q0 -115 -21 -220.5t-65.5 -198.5t-108 -162t-154.5 -108.5t-200 -39.5zM451 215 q47 0 83.5 55t56.5 140t30 171t10 164q0 129 -74 129q-48 0 -84.5 -54.5t-56.5 -139.5t-29.5 -170.5t-9.5 -163.5q0 -70 18 -100.5t56 -30.5z" />
<glyph unicode="&#xf5;" d="M713 1292q-36 0 -72.5 22.5t-67 45t-51.5 22.5q-26 0 -47.5 -21.5t-50.5 -68.5l-143 86q48 108 119 179t143 71q35 0 66.5 -14t49.5 -31t40.5 -31t41.5 -14q22 0 42.5 20t47.5 66l148 -82q-49 -110 -120.5 -180t-145.5 -70zM426 -37q-186 0 -290.5 109.5t-104.5 324.5 q0 144 34.5 273t100.5 232.5t173.5 164.5t242.5 61q185 0 289 -110.5t104 -325.5q0 -115 -21 -220.5t-65.5 -198.5t-108 -162t-154.5 -108.5t-200 -39.5zM451 215q47 0 83.5 55t56.5 140t30 171t10 164q0 129 -74 129q-48 0 -84.5 -54.5t-56.5 -139.5t-29.5 -170.5 t-9.5 -163.5q0 -70 18 -100.5t56 -30.5z" />
<glyph unicode="&#xf6;" d="M401 1309q-69 0 -108 39.5t-39 105.5q0 82 54.5 137.5t131.5 55.5q70 0 110 -39.5t40 -106.5q0 -82 -55 -137t-134 -55zM819 1309q-68 0 -107.5 40t-39.5 105q0 83 53.5 138t132.5 55q69 0 109.5 -40t40.5 -106q0 -82 -55 -137t-134 -55zM426 -37q-186 0 -290.5 109.5 t-104.5 324.5q0 144 34.5 273t100.5 232.5t173.5 164.5t242.5 61q185 0 289 -110.5t104 -325.5q0 -115 -21 -220.5t-65.5 -198.5t-108 -162t-154.5 -108.5t-200 -39.5zM451 215q47 0 83.5 55t56.5 140t30 171t10 164q0 129 -74 129q-48 0 -84.5 -54.5t-56.5 -139.5 t-29.5 -170.5t-9.5 -163.5q0 -70 18 -100.5t56 -30.5z" />
<glyph unicode="&#xf7;" horiz-adv-x="899" d="M528 985q-75 0 -119 48t-44 120q0 90 59 152.5t149 62.5q75 0 119.5 -48.5t44.5 -121.5q0 -91 -59.5 -152t-149.5 -61zM72 547l37 266h755l-37 -266h-755zM391 -10q-76 0 -120 48t-44 120q0 90 59.5 152.5t149.5 62.5q75 0 119.5 -48.5t44.5 -121.5q0 -91 -59.5 -152 t-149.5 -61z" />
<glyph unicode="&#xf8;" d="M836 1044q139 -114 139 -352q0 -115 -21 -220.5t-65.5 -198.5t-108 -162t-154.5 -108.5t-200 -39.5h-33l-92 -239l-229 71l100 250q-141 113 -141 352q0 144 34.5 273t100.5 232.5t173.5 164.5t242.5 61h32l91 242l229 -76zM557 899q-54 -1 -97 -51.5t-67 -133.5 t-36.5 -176.5t-12.5 -191.5q0 -39 2 -55l2 2l201 577zM455 190q53 2 94.5 54t65.5 134.5t36.5 176.5t12.5 190q0 34 -2 46l-5 -7l-194 -565z" />
<glyph unicode="&#xf9;" horiz-adv-x="946" d="M516 1706l354 -281l-100 -151l-403 190zM231 -37q-113 0 -169.5 87.5t-34.5 232.5l112 809h342l-104 -756q-9 -70 24 -70q50 0 115 123l96 703h342l-153 -1092h-297l6 145q-58 -86 -123 -134t-156 -48z" />
<glyph unicode="&#xfa;" horiz-adv-x="946" d="M745 1710l113 -246l-446 -194l-86 162zM231 -37q-113 0 -169.5 87.5t-34.5 232.5l112 809h342l-104 -756q-9 -70 24 -70q50 0 115 123l96 703h342l-153 -1092h-297l6 145q-58 -86 -123 -134t-156 -48z" />
<glyph unicode="&#xfb;" horiz-adv-x="946" d="M354 1270l-112 135l284 289h205l215 -305l-141 -119l-197 192zM231 -37q-113 0 -169.5 87.5t-34.5 232.5l112 809h342l-104 -756q-9 -70 24 -70q50 0 115 123l96 703h342l-153 -1092h-297l6 145q-58 -86 -123 -134t-156 -48z" />
<glyph unicode="&#xfc;" horiz-adv-x="946" d="M371 1309q-69 0 -108.5 39.5t-39.5 105.5q0 82 55 137.5t132 55.5q70 0 109.5 -39.5t39.5 -106.5q0 -82 -54.5 -137t-133.5 -55zM788 1309q-68 0 -107.5 40t-39.5 105q0 83 53.5 138t132.5 55q69 0 109.5 -40t40.5 -106q0 -82 -55 -137t-134 -55zM231 -37 q-113 0 -169.5 87.5t-34.5 232.5l112 809h342l-104 -756q-9 -70 24 -70q50 0 115 123l96 703h342l-153 -1092h-297l6 145q-58 -86 -123 -134t-156 -48z" />
<glyph unicode="&#xfd;" horiz-adv-x="899" d="M725 1710l113 -246l-447 -194l-86 162zM997 1092l-415 -1094q-88 -234 -241 -339.5t-388 -117.5l-4 236q134 21 203 67t120 156h-122l-93 1092h353l-13 -871l240 871h360z" />
<glyph unicode="&#xfe;" d="M719 1128q126 0 194 -94t68 -272q0 -134 -18.5 -251.5t-58.5 -219t-98.5 -174t-144 -113.5t-190.5 -41q-71 0 -139 19l-58 -404l-346 -37l277 1981l348 34l-78 -550q39 57 105 89.5t139 32.5zM438 211q51 0 91.5 56.5t62 142.5t32.5 173.5t11 164.5q0 72 -17 99t-49 27 q-29 0 -62.5 -25.5t-62.5 -70.5l-79 -549q43 -18 73 -18z" />
<glyph unicode="&#xff;" horiz-adv-x="899" d="M350 1309q-69 0 -108 39.5t-39 105.5q0 82 54.5 137.5t131.5 55.5q70 0 110 -39.5t40 -106.5q0 -82 -55 -137t-134 -55zM768 1309q-68 0 -107.5 40t-39.5 105q0 83 53.5 138t132.5 55q69 0 109 -40t40 -106q0 -82 -54.5 -137t-133.5 -55zM997 1092l-415 -1094 q-88 -234 -241 -339.5t-388 -117.5l-4 236q134 21 203 67t120 156h-122l-93 1092h353l-13 -871l240 871h360z" />
<glyph unicode="&#x152;" horiz-adv-x="1519" d="M1616 1423l-76 -256h-448q45 -109 45 -243q0 -51 -2 -76h321l-37 -252h-317q-42 -199 -141 -338h489l-43 -258h-733q-81 -37 -191 -37q-204 0 -315 136.5t-111 400.5q0 149 23.5 287.5t75 261.5t125 214t179.5 144t234 53q116 0 189 -37h733zM518 223q54 0 98.5 53 t73 135t48 186.5t28 203t8.5 188.5q0 111 -24 160t-76 49q-65 0 -117 -80.5t-80.5 -204t-43.5 -250t-15 -237.5q0 -203 100 -203z" />
<glyph unicode="&#x153;" horiz-adv-x="1525" d="M1190 1128q158 0 251.5 -84.5t88.5 -216.5q-10 -366 -586 -434v-28q0 -148 123 -148q56 0 106.5 22.5t118.5 71.5l115 -198q-178 -150 -385 -150q-191 -3 -297 143q-130 -143 -319 -143q-170 0 -272.5 109.5t-102.5 324.5q0 114 21 220t65 199.5t107 162.5t153 109 t196 40q195 0 283 -147q128 147 334 147zM963 598q84 8 140 46t77.5 84.5t21.5 98.5q0 72 -63 72q-68 0 -111.5 -83t-64.5 -218zM451 215q47 0 83.5 55t56.5 140t30 171t10 164q0 129 -74 129q-48 0 -84.5 -54.5t-56.5 -139.5t-29.5 -170.5t-9.5 -163.5q0 -70 18 -100.5 t56 -30.5z" />
<glyph unicode="&#x178;" horiz-adv-x="1028" d="M440 1567q-69 0 -108 39.5t-39 105.5q0 82 54.5 137.5t131.5 55.5q70 0 110 -39.5t40 -106.5q0 -82 -55 -137t-134 -55zM858 1567q-68 0 -107.5 40t-39.5 105q0 83 53.5 138t132.5 55q69 0 109.5 -40t40.5 -106q0 -82 -55 -137t-134 -55zM1182 1423l-492 -893l-74 -530 h-356l74 528l-240 895h375l86 -622l246 622h381z" />
<glyph unicode="&#x2c6;" horiz-adv-x="813" d="M295 1270l-113 135l285 289h205l215 -305l-142 -119l-196 192z" />
<glyph unicode="&#x2dc;" horiz-adv-x="798" d="M612 1292q-36 0 -72 22.5t-66.5 45t-51.5 22.5q-26 0 -47.5 -21.5t-50.5 -68.5l-144 86q48 108 119 179t143 71q35 0 66.5 -14t50 -31t41 -31t41.5 -14q22 0 42.5 20t47.5 66l148 -82q-49 -110 -121 -180t-146 -70z" />
<glyph unicode="&#x2000;" horiz-adv-x="1022" />
<glyph unicode="&#x2001;" horiz-adv-x="2044" />
<glyph unicode="&#x2002;" horiz-adv-x="1022" />
<glyph unicode="&#x2003;" horiz-adv-x="2044" />
<glyph unicode="&#x2004;" horiz-adv-x="681" />
<glyph unicode="&#x2005;" horiz-adv-x="511" />
<glyph unicode="&#x2006;" horiz-adv-x="340" />
<glyph unicode="&#x2007;" horiz-adv-x="340" />
<glyph unicode="&#x2008;" horiz-adv-x="255" />
<glyph unicode="&#x2009;" horiz-adv-x="408" />
<glyph unicode="&#x200a;" horiz-adv-x="113" />
<glyph unicode="&#x2010;" horiz-adv-x="712" d="M68 508l34 266h570l-35 -266h-569z" />
<glyph unicode="&#x2011;" horiz-adv-x="712" d="M68 508l34 266h570l-35 -266h-569z" />
<glyph unicode="&#x2012;" horiz-adv-x="712" d="M68 508l34 266h570l-35 -266h-569z" />
<glyph unicode="&#x2013;" horiz-adv-x="884" d="M33 508l37 266h811l-39 -266h-809z" />
<glyph unicode="&#x2014;" horiz-adv-x="1347" d="M33 508l37 266h1271l-36 -266h-1272z" />
<glyph unicode="&#x2018;" horiz-adv-x="458" d="M291 932q-66 0 -106 39t-40 104q0 46 19 91t74 145l141 264h158l-117 -334q57 -45 57 -121q0 -79 -52 -133.5t-134 -54.5z" />
<glyph unicode="&#x2019;" horiz-adv-x="458" d="M367 1575q66 0 105.5 -39t39.5 -104q0 -46 -19 -92t-73 -144l-141 -264h-158l117 334q-58 46 -58 120q0 79 52.5 134t134.5 55z" />
<glyph unicode="&#x201a;" horiz-adv-x="458" d="M188 305q66 0 106 -39t40 -104q0 -46 -19 -92t-73 -144l-142 -264h-157l116 334q-57 45 -57 121q0 79 52 133.5t134 54.5z" />
<glyph unicode="&#x201c;" horiz-adv-x="894" d="M289 932q-66 0 -106 39t-40 104q0 46 19 91t74 145l141 264h158l-117 -334q57 -45 57 -121q0 -79 -52 -133.5t-134 -54.5zM727 932q-66 0 -105.5 39t-39.5 104q0 46 19 92t73 144l141 264h158l-117 -334q57 -45 57 -121q0 -79 -52 -133.5t-134 -54.5z" />
<glyph unicode="&#x201d;" horiz-adv-x="894" d="M367 1575q66 0 105.5 -39t39.5 -104q0 -46 -19 -92t-73 -144l-141 -264h-158l117 334q-58 46 -58 120q0 79 52.5 134t134.5 55zM805 1575q66 0 105.5 -39t39.5 -104q0 -46 -19 -92t-73 -144l-141 -264h-158l117 334q-58 46 -58 120q0 79 52.5 134t134.5 55z" />
<glyph unicode="&#x201e;" horiz-adv-x="894" d="M188 305q66 0 106 -39t40 -104q0 -46 -19 -92t-73 -144l-142 -264h-157l116 334q-57 45 -57 121q0 79 52 133.5t134 54.5zM627 305q66 0 105.5 -39t39.5 -104q0 -46 -19 -92t-73 -144l-141 -264h-158l117 334q-58 46 -58 121q0 79 52.5 133.5t134.5 54.5z" />
<glyph unicode="&#x2022;" horiz-adv-x="661" d="M387 991q114 0 181 -69.5t67 -178.5q0 -141 -91.5 -238t-226.5 -97q-114 0 -180.5 70t-66.5 181q0 140 92 236t225 96z" />
<glyph unicode="&#x2026;" horiz-adv-x="1351" d="M147 -37q-75 0 -119 48t-44 120q0 90 59.5 152.5t149.5 62.5q74 0 118.5 -48.5t44.5 -121.5q0 -91 -59.5 -152t-149.5 -61zM598 -37q-76 0 -120 48t-44 120q0 90 59.5 152.5t149.5 62.5q75 0 119.5 -48.5t44.5 -121.5q0 -91 -59.5 -152t-149.5 -61zM1049 -37 q-76 0 -120 48t-44 120q0 90 59.5 152.5t149.5 62.5q74 0 118.5 -48.5t44.5 -121.5q0 -91 -59 -152t-149 -61z" />
<glyph unicode="&#x202f;" horiz-adv-x="408" />
<glyph unicode="&#x2039;" horiz-adv-x="630" d="M461 1147l190 -141l-268 -428l149 -418l-233 -144l-266 455l37 219z" />
<glyph unicode="&#x203a;" horiz-adv-x="630" d="M344 1147l264 -457l-35 -219l-393 -455l-192 144l272 426l-151 420z" />
<glyph unicode="&#x205f;" horiz-adv-x="511" />
<glyph unicode="&#x20ac;" horiz-adv-x="997" d="M799 1169q-171 0 -252 -231h387l-68 -176h-354l-23 -139h332l-67 -179h-283q4 -128 50 -180.5t134 -52.5q108 0 258 84l-32 -258q-148 -74 -293 -74q-205 0 -324 123.5t-129 357.5h-141l67 179h91l22 139h-133l68 176h100q187 481 594 481q183 0 317 -121l-143 -200 q-77 71 -178 71z" />
<glyph unicode="&#x2122;" horiz-adv-x="1556" d="M786 1423l-59 -198h-168l-84 -619h-237l84 619h-175l31 198h608zM1575 1423l-92 -817h-223l36 314q6 58 15 110.5t17 86.5t28 110l-170 -537h-180l-35 533q-6 -122 -29 -310l-43 -307h-215l139 817h293l8 -499l133 499h318z" />
<glyph unicode="&#x25fc;" horiz-adv-x="1095" d="M0 1096h1096v-1096h-1096v1096z" />
<glyph unicode="&#xfb03;" horiz-adv-x="1513" d="M1522 1092l-154 -1092h-340l119 850h-143l-99 -723q-14 -100 -42.5 -180.5t-65 -137t-88 -102t-101 -74.5t-114.5 -57l-88 254q67 40 104 104t51 181l101 735h-158l-98 -723q-11 -82 -32.5 -151t-48 -120.5t-64.5 -95.5t-74.5 -74t-86.5 -58t-91 -46t-97 -39l-78 250 q72 31 114 65t72 96.5t43 160.5l101 735h-117l35 242h113l12 84q22 158 141.5 257t306.5 99q121 0 234 -49q112 73 264 73q172 0 330 -88l-121 -215q-100 50 -178 50q-63 0 -96 -34.5t-44 -109.5l-8 -67h486zM694 1092l13 88q4 37 24 102q-28 4 -47 4q-64 0 -97 -27t-40 -88 l-10 -79h157z" />
<glyph unicode="&#xfb04;" horiz-adv-x="1589" d="M1477 240q8 0 32 4l23 -240q-91 -41 -193 -41q-135 0 -198 82.5t-41 226.5l145 1035q-36 8 -76 8q-61 0 -87.5 -37.5t-37.5 -118.5l-8 -67h123l-65 -242h-90l-99 -723q-14 -100 -42.5 -181t-65 -137t-88 -102t-101 -74.5t-114.5 -56.5l-88 254q67 40 104 104t51 181 l101 735h-158l-98 -723q-11 -82 -32.5 -151t-48 -120.5t-64.5 -95.5t-74.5 -74t-86.5 -58t-91 -46t-97 -39l-78 250q72 31 114 65t72 96.5t43 160.5l101 735h-117l35 242h113l12 84q22 158 141.5 257t306.5 99q121 0 226 -47q104 71 249 71q122 0 216 -32l274 26l-174 -1253 q-8 -57 31 -57zM694 1092l13 88q6 51 24 102q-32 4 -47 4q-64 0 -97 -27t-40 -88l-10 -79h157z" />
</font>
</defs>
</svg>
