<?xml version="1.0" standalone="no"?>
<!DOCTYPE svg PUBLIC "-//W3C//DTD SVG 1.1//EN" "http://www.w3.org/Graphics/SVG/1.1/DTD/svg11.dtd" >
<svg xmlns="http://www.w3.org/2000/svg" xmlns:xlink="http://www.w3.org/1999/xlink" version="1.1">
<metadata></metadata>
<defs>
<font id="fira_sans_compressedBkIt" horiz-adv-x="985" >
<font-face units-per-em="2048" ascent="1638" descent="-410" />
<missing-glyph horiz-adv-x="430" />
<glyph unicode="&#xfb01;" d="M909 1077l-151 -1077h-164l133 946h-328l-125 -913q-13 -88 -35 -154.5t-48.5 -111t-70.5 -81.5t-85.5 -60.5t-108.5 -55.5l-41 125q53 26 85 48.5t63 61.5t50 98.5t30 147.5l123 895h-148l21 131h145l22 162q21 135 108.5 214t225.5 79q132 0 256 -90l-67 -107 q-92 62 -181 62q-82 0 -125 -41.5t-55 -126.5l-20 -152h491z" />
<glyph unicode="&#xfb02;" horiz-adv-x="1030" d="M838 115q24 0 57 10l27 -115q-60 -35 -129 -35q-85 0 -129 61t-29 163l162 1159q-98 39 -187 39q-77 0 -118.5 -41.5t-53.5 -126.5l-20 -152h207l-37 -131h-189l-125 -913q-13 -88 -35 -154.5t-48.5 -111t-70.5 -81.5t-85.5 -60.5t-108.5 -55.5l-41 125q53 26 85 48.5 t63 61.5t50 98.5t30 147.5l123 895h-148l18 131h148l22 162q21 135 107.5 214t224.5 79q123 0 226 -47l145 16l-184 -1311q-11 -75 43 -75z" />
<glyph horiz-adv-x="0" />
<glyph horiz-adv-x="682" />
<glyph unicode="&#xd;" horiz-adv-x="430" />
<glyph unicode=" "  horiz-adv-x="430" />
<glyph unicode="&#x09;" horiz-adv-x="430" />
<glyph unicode="&#xa0;" horiz-adv-x="430" />
<glyph unicode="!" horiz-adv-x="444" d="M133 463l115 946h176l-150 -946h-141zM150 -25q-52 0 -82.5 32.5t-30.5 80.5q0 57 37.5 98t95.5 41q53 0 83 -31.5t30 -80.5q0 -56 -37.5 -98t-95.5 -42z" />
<glyph unicode="&#x22;" horiz-adv-x="745" d="M180 877l53 532h164l-98 -532h-119zM539 877l53 532h164l-99 -532h-118z" />
<glyph unicode="#" horiz-adv-x="874" d="M899 920h-125l-112 -449h116l-20 -125h-127l-86 -346h-137l86 346h-246l-86 -346h-137l86 346h-113l20 125h123l111 449h-111l19 127h123l79 321h138l-80 -321h248l80 321h137l-80 -321h115zM524 471l113 449h-248l-110 -449h245z" />
<glyph unicode="$" horiz-adv-x="894" d="M573 1253q-106 0 -173.5 -70t-67.5 -179q0 -80 40.5 -125t153.5 -99q140 -64 207.5 -143t67.5 -211q0 -163 -103.5 -289.5t-275.5 -154.5l-41 -295h-133l41 290q-178 16 -318 179l103 90q60 -66 121 -98.5t147 -32.5q129 0 209 83.5t80 221.5q0 89 -43 139t-162 107 q-142 69 -201 140t-59 189q0 92 43.5 175.5t126.5 142.5t188 71l43 299h131l-43 -301q143 -25 252 -153l-100 -90q-55 60 -110 87t-124 27z" />
<glyph unicode="%" horiz-adv-x="1396" d="M1171 1450l-995 -1436l98 -73l994 1437zM387 705q-104 0 -166.5 74t-62.5 198q0 70 19.5 140.5t57 132.5t100 100.5t140.5 38.5q107 0 170.5 -72.5t63.5 -194.5q0 -69 -19.5 -140t-56.5 -134t-101.5 -103t-144.5 -40zM393 819q52 0 90 33t56.5 83.5t27 97.5t8.5 89 q0 154 -106 154q-52 0 -89.5 -32t-55.5 -82t-25.5 -96.5t-7.5 -90.5q0 -156 102 -156zM961 -25q-105 0 -168.5 74.5t-63.5 198.5q0 70 20 141t57.5 133t100.5 101t140 39q107 0 170 -73.5t63 -195.5q0 -55 -11.5 -111.5t-37 -112t-61.5 -98.5t-90.5 -69.5t-118.5 -26.5z M967 90q51 0 88.5 33t56 83.5t27 97.5t8.5 89q0 154 -105 154q-53 0 -91 -32t-56 -82.5t-25.5 -96.5t-7.5 -90q0 -156 105 -156z" />
<glyph unicode="&#x26;" horiz-adv-x="1251" d="M659 1432q129 0 207 -77t78 -192q0 -74 -20 -132.5t-64 -108.5t-96.5 -89t-134.5 -88l235 -356q90 164 152 332l137 -55q-78 -181 -205 -377l152 -219l-137 -95l-123 193q-94 -102 -182 -147.5t-199 -45.5q-150 0 -240 94.5t-90 239.5q0 129 66 238.5t227 226.5 q-107 162 -107 297q0 158 91.5 259.5t252.5 101.5zM655 1309q-90 0 -136 -66t-46 -170t82 -231q125 80 178 150t53 169q0 67 -34.5 107.5t-96.5 40.5zM494 676q-112 -86 -155.5 -173t-43.5 -192q0 -95 45.5 -148.5t132.5 -53.5q155 0 289 161z" />
<glyph unicode="'" horiz-adv-x="387" d="M180 877l53 532h164l-98 -532h-119z" />
<glyph unicode="(" horiz-adv-x="540" d="M539 1729l96 -74q-207 -295 -305.5 -588t-98.5 -618q0 -207 34 -356.5t104 -319.5l-111 -62q-41 95 -58.5 136.5t-48.5 127.5t-44.5 147t-25 148.5t-11.5 178.5q0 199 28.5 365t92.5 320.5t143.5 288t204.5 306.5z" />
<glyph unicode=")" horiz-adv-x="540" d="M332 1722q38 -88 49.5 -114t42 -104t41.5 -121t28 -114.5t23 -139.5t6 -144q0 -198 -29 -364t-93 -321t-143.5 -288.5t-203.5 -306.5l-96 70q207 300 304 591.5t97 618.5q0 208 -33.5 358.5t-103.5 321.5z" />
<glyph unicode="*" horiz-adv-x="784" d="M815 1157l-268 -72l145 -254l-141 -77l-92 268l-164 -268l-123 77l211 261l-240 69l54 139l233 -114l19 325h157l-74 -327l259 125z" />
<glyph unicode="+" horiz-adv-x="864" d="M580 1057l-43 -312h243l-18 -137h-246l-45 -307h-145l45 307h-248l18 137h250l43 312h146z" />
<glyph unicode="," horiz-adv-x="407" d="M156 227q48 0 77 -29t29 -79q0 -23 -7.5 -48t-15.5 -43t-32 -67l-148 -291h-108l117 330q-43 34 -43 88q0 60 36 99.5t95 39.5z" />
<glyph unicode="-" horiz-adv-x="688" d="M111 571l18 140h477l-18 -140h-477z" />
<glyph unicode="." horiz-adv-x="413" d="M135 -25q-52 0 -82 32.5t-30 80.5q0 57 37.5 98t95.5 41q52 0 82 -31.5t30 -80.5q0 -56 -37.5 -98t-95.5 -42z" />
<glyph unicode="/" horiz-adv-x="890" d="M725 1653l135 -37l-645 -1825l-133 37z" />
<glyph unicode="0" horiz-adv-x="1001" d="M631 1389q-111 0 -201.5 -65.5t-147.5 -169t-96 -237t-55 -262t-16 -252.5q0 -209 74.5 -318.5t222.5 -109.5q93 0 172 45.5t134 124.5t97 177.5t66 211.5t35.5 220t11.5 209q0 208 -74.5 317t-222.5 109zM625 1257q141 0 141 -268q0 -114 -13.5 -234t-42.5 -236 t-69 -207t-98 -147t-125 -56q-70 0 -104.5 64t-34.5 202q0 145 22.5 296t63.5 284t109 217.5t151 84.5z" />
<glyph unicode="1" horiz-adv-x="747" d="M655 1368l-192 -1368h-164l164 1169l-279 -184l-65 121l389 262h147z" />
<glyph unicode="2" horiz-adv-x="835" d="M475 1389q150 0 233 -90t83 -234q0 -117 -47.5 -224.5t-175.5 -268.5t-388 -435l508 4l-41 -141h-665l20 137q177 197 277.5 314.5t176.5 214t107.5 160t44.5 115.5t13 118q0 95 -42 144.5t-114 49.5q-69 0 -127 -36.5t-125 -112.5l-94 88q164 197 356 197z" />
<glyph unicode="3" horiz-adv-x="843" d="M496 1389q138 0 217.5 -84.5t79.5 -219.5q0 -286 -304 -362q106 -16 165 -81t59 -181q0 -69 -17.5 -137.5t-54 -131.5t-89 -111t-128 -77t-164.5 -29q-208 0 -317 187l108 76q44 -68 95.5 -98.5t119.5 -30.5q130 0 204.5 100.5t74.5 261.5q0 99 -45.5 140.5t-134.5 41.5 h-86l45 129h53q113 0 182.5 86t69.5 215q0 84 -40.5 130.5t-111.5 46.5q-64 0 -123.5 -30t-128.5 -95l-73 96q86 82 169 120t175 38z" />
<glyph unicode="4" horiz-adv-x="894" d="M838 477l-21 -133h-141l-49 -344h-160l51 344h-481l18 121l455 924l135 -58l-409 -854h303l67 379h142l-54 -379h144z" />
<glyph unicode="5" horiz-adv-x="854" d="M864 1368l-43 -133h-432l-59 -420q90 53 180 53q124 0 194 -86.5t70 -242.5q0 -77 -16 -153.5t-53 -151t-90 -132t-134.5 -92.5t-179.5 -35q-109 0 -183.5 45.5t-127.5 129.5l108 88q41 -65 91.5 -95t119.5 -30q62 0 113.5 26t85 68.5t57 98.5t33.5 113.5t10 115.5 q0 204 -153 204q-84 0 -174 -53h-123l94 682h612z" />
<glyph unicode="6" horiz-adv-x="940" d="M604 897q118 0 187 -82.5t69 -239.5q0 -103 -27 -206t-78.5 -192.5t-138 -145.5t-194.5 -56q-159 0 -236 109t-77 299q0 135 24.5 275t74.5 271t118 233.5t163.5 164.5t202.5 62q123 0 223 -84l-79 -105q-70 57 -152 57q-120 0 -219.5 -148.5t-153.5 -393.5 q130 182 293 182zM428 109q58 0 105 31t76.5 80t49.5 112.5t28.5 124t8.5 118.5q0 189 -135 189q-71 0 -142 -58.5t-134 -158.5q-13 -110 -13 -168q0 -139 38 -204.5t118 -65.5z" />
<glyph unicode="7" horiz-adv-x="747" d="M817 1368l-20 -127l-592 -1261l-137 51l561 1200l-492 2l19 135h661z" />
<glyph unicode="8" horiz-adv-x="940" d="M657 723q92 -52 137.5 -123.5t45.5 -171.5q0 -204 -125.5 -328.5t-319.5 -124.5q-159 0 -251.5 94t-92.5 240q0 284 299 420q-133 92 -133 260q0 181 112.5 290.5t272.5 109.5q137 0 224 -77.5t87 -211.5q0 -132 -59 -218t-197 -159zM594 1262q-107 0 -162 -77t-55 -190 q0 -81 33 -127.5t108 -79.5l37 -16q115 67 158 143t43 179q0 80 -41 124t-121 44zM406 109q118 0 192 85.5t74 235.5q0 82 -38.5 133t-133.5 94l-45 21q-72 -36 -121 -80.5t-73 -94.5t-33 -95t-9 -99q0 -97 48 -148.5t139 -51.5z" />
<glyph unicode="9" horiz-adv-x="897" d="M545 1389q154 0 233.5 -102.5t79.5 -282.5q0 -84 -6.5 -159t-27.5 -168t-55 -172.5t-93.5 -164.5t-139 -153t-196.5 -129.5t-260 -102.5l-27 121q122 41 214.5 90t172 119t135.5 165.5t89 219.5q-67 -83 -133.5 -125.5t-147.5 -42.5q-120 0 -193 92t-73 244 q0 81 16.5 159.5t51.5 149.5t84.5 124.5t120.5 85.5t155 32zM420 633q127 0 264 182q8 104 8 191q0 129 -36 190t-117 61q-57 0 -103 -27.5t-74 -70.5t-47 -100t-26.5 -111.5t-7.5 -109.5q0 -205 139 -205z" />
<glyph unicode=":" horiz-adv-x="415" d="M244 739q-52 0 -82.5 32.5t-30.5 80.5q0 57 37.5 98t95.5 41q53 0 83 -31.5t30 -80.5q0 -56 -37.5 -98t-95.5 -42zM135 -25q-52 0 -82 32.5t-30 80.5q0 57 37.5 98t95.5 41q52 0 82 -31.5t30 -80.5q0 -56 -37.5 -98t-95.5 -42z" />
<glyph unicode=";" horiz-adv-x="421" d="M248 739q-52 0 -82.5 32.5t-30.5 80.5q0 57 37.5 98t95.5 41q53 0 83 -31.5t30 -80.5q0 -56 -37.5 -98t-95.5 -42zM156 227q48 0 77 -29t29 -79q0 -23 -7.5 -48t-15.5 -43t-32 -67l-148 -291h-108l117 330q-43 34 -43 88q0 60 36 99.5t95 39.5z" />
<glyph unicode="&#x3c;" horiz-adv-x="851" d="M780 1112l47 -129l-591 -313l503 -293l-82 -129l-563 348l25 166z" />
<glyph unicode="=" horiz-adv-x="858" d="M150 799l18 139h635l-19 -139h-634zM94 414l19 139h635l-19 -139h-635z" />
<glyph unicode="&#x3e;" horiz-adv-x="851" d="M233 1112l566 -346l-25 -168l-663 -350l-48 131l594 313l-503 293z" />
<glyph unicode="?" horiz-adv-x="794" d="M520 1432q143 0 219 -79t76 -200q0 -74 -23 -133t-59.5 -98t-80.5 -72.5t-88 -63.5t-80.5 -63t-59.5 -80t-23 -106q0 -14 5 -64l-146 -27q-14 54 -14 105q0 68 22 123t57 91.5t77.5 68t85.5 62t78 63.5t57 82t22 110q0 145 -137 145q-115 0 -254 -145l-94 86 q163 195 360 195zM307 -25q-52 0 -82 32.5t-30 80.5q0 57 37.5 98t95.5 41q52 0 82 -31.5t30 -80.5q0 -56 -37.5 -98t-95.5 -42z" />
<glyph unicode="@" horiz-adv-x="1744" d="M1028 1432q193 0 332 -87.5t206.5 -235t67.5 -337.5q0 -95 -16.5 -196.5t-52 -201.5t-85 -178.5t-122.5 -127t-158 -48.5q-90 0 -136.5 60t-51.5 151q-100 -206 -264 -206q-107 0 -172.5 86t-65.5 233q0 88 15 176t50 175.5t86 154.5t131 109t177 42q128 0 237 -69 l-78 -582q-5 -54 -5.5 -98.5t19 -73t60.5 -28.5q65 0 119.5 60t88 154t51.5 201.5t18 208.5q0 245 -119 382.5t-344 137.5q-115 0 -215.5 -34t-175 -92t-135 -137t-101 -166.5t-68 -184t-39.5 -186.5t-12 -175q0 -182 57 -319t170 -215t269 -78q163 0 332 70l22 -131 q-194 -76 -368 -76q-192 0 -337.5 94t-223.5 262.5t-78 388.5q0 99 16 204t51 214.5t86 210.5t126.5 190.5t166.5 155t211.5 104t257.5 38.5zM776 147q37 0 72 21.5t61 56.5t43.5 66t30.5 63l74 510q-55 19 -92 19q-68 0 -122 -36t-87 -92t-54.5 -130.5t-29.5 -144 t-8 -140.5q0 -193 112 -193z" />
<glyph unicode="A" d="M711 0l-35 365h-420l-135 -365h-176l563 1409h213l168 -1409h-178zM307 502h357l-72 764z" />
<glyph unicode="B" horiz-adv-x="1036" d="M702 745q115 -29 178.5 -93.5t63.5 -182.5q0 -74 -16.5 -140t-55.5 -127.5t-98 -105.5t-151 -70t-207 -26h-330l197 1409h350q175 0 274 -81t99 -226q0 -144 -82 -234.5t-222 -122.5zM631 1272h-197l-65 -467h176q141 0 215 76t74 215q0 94 -52.5 135t-150.5 41zM436 139 q332 0 332 328q0 108 -56 156.5t-171 48.5h-191l-76 -533h162z" />
<glyph unicode="C" horiz-adv-x="952" d="M723 1432q100 0 172 -36t133 -106l-98 -94q-52 49 -101 72.5t-108 23.5q-94 0 -170.5 -52.5t-125.5 -135.5t-82.5 -192t-47.5 -217.5t-14 -215.5q0 -182 61.5 -270t167.5 -88q52 0 103.5 19.5t79 38t79.5 57.5l70 -113q-159 -148 -350 -148q-176 0 -282 134t-106 378 q0 108 16 216.5t47.5 215t83 198.5t118 163t157.5 111.5t197 40.5z" />
<glyph unicode="D" horiz-adv-x="1112" d="M569 1409q106 0 190 -23.5t152.5 -76.5t106 -147.5t37.5 -225.5q0 -150 -22 -283.5t-73.5 -254.5t-129 -208t-194.5 -138.5t-263 -51.5h-287l197 1409h286zM578 1272h-144l-160 -1135h132q105 0 189 48.5t137 126.5t88 184.5t49 215t14 224.5q0 79 -15 138.5t-41 96.5 t-66 60t-83.5 32t-99.5 9z" />
<glyph unicode="E" horiz-adv-x="880" d="M913 1409l-41 -137h-438l-67 -484h385l-23 -137h-381l-74 -512h474l-23 -139h-639l197 1409h630z" />
<glyph unicode="F" horiz-adv-x="808" d="M899 1409l-41 -137h-424l-72 -504h373l-20 -137h-371l-90 -631h-168l197 1409h616z" />
<glyph unicode="G" horiz-adv-x="1073" d="M743 1432q198 0 330 -154l-108 -92q-53 58 -104 82t-124 24q-94 0 -172.5 -50.5t-131 -133t-89 -192t-52.5 -225t-16 -234.5q0 -338 232 -338q118 0 231 65l62 451h-195l4 139h379l-92 -668q-207 -131 -401 -131q-191 0 -293.5 126t-102.5 370q0 114 17.5 227.5 t51.5 221.5t88.5 200.5t124 162.5t162.5 109.5t199 39.5z" />
<glyph unicode="H" horiz-adv-x="1128" d="M254 0h-168l197 1409h170l-84 -598h467l86 598h168l-197 -1409h-170l94 670h-467z" />
<glyph unicode="I" horiz-adv-x="491" d="M453 1409l-199 -1409h-168l197 1409h170z" />
<glyph unicode="J" horiz-adv-x="520" d="M489 1409l-174 -1229q-14 -104 -44 -178.5t-80 -125t-104 -82t-136 -64.5l-39 118q123 63 169.5 133t68.5 216l169 1212h170z" />
<glyph unicode="K" horiz-adv-x="997" d="M86 0l197 1409h170l-199 -1409h-168zM721 0l-352 754l526 655h184l-530 -661l360 -748h-188z" />
<glyph unicode="L" horiz-adv-x="811" d="M453 1409l-179 -1257h471l-43 -152h-616l197 1409h170z" />
<glyph unicode="M" horiz-adv-x="1335" d="M1245 1409l-100 -1409h-164l47 637q23 302 57 596l-385 -1071h-170l-102 1071q-35 -268 -100 -598l-123 -635h-166l295 1409h215l94 -1047l369 1047h233z" />
<glyph unicode="N" horiz-adv-x="1130" d="M1094 1409l-199 -1409h-223l-285 1260q-6 -240 -51 -574l-94 -686h-156l197 1409h223l287 -1259q6 261 38 466l107 793h156z" />
<glyph unicode="O" horiz-adv-x="1175" d="M725 1432q186 0 289.5 -132t103.5 -378q0 -104 -14.5 -210t-44.5 -214t-80.5 -201t-117 -165.5t-160 -114.5t-203.5 -42q-186 0 -291 132.5t-105 373.5q0 102 15 207.5t45 213.5t81 202t117.5 168t160.5 117t204 43zM713 1292q-96 0 -173.5 -56.5t-125 -143.5t-80 -199 t-45.5 -215.5t-13 -200.5q0 -358 232 -358q82 0 150.5 39.5t114.5 107.5t80 150.5t53 177.5t27.5 179.5t8.5 164.5q0 354 -229 354z" />
<glyph unicode="P" horiz-adv-x="950" d="M584 1409q189 0 291 -93t102 -269q0 -78 -16.5 -149.5t-56 -140t-98 -118.5t-150 -80.5t-205.5 -30.5h-121l-76 -528h-168l197 1409h301zM461 666q80 0 142 23.5t98.5 60.5t59.5 89t31.5 102.5t8.5 107.5q0 119 -58.5 171t-183.5 52h-125l-86 -606h113z" />
<glyph unicode="Q" horiz-adv-x="1177" d="M723 66q184 -8 311 -142l-135 -129q-73 104 -159.5 142t-243.5 38q-185 0 -289.5 132.5t-104.5 373.5q0 102 15 207.5t45 213.5t81 202t117.5 168t160.5 117t204 43q186 0 289.5 -132t103.5 -378q0 -126 -21.5 -251t-66 -245.5t-124 -216t-183.5 -143.5zM276 477 q0 -358 232 -358q82 0 150.5 39.5t114.5 107.5t80 150.5t53 177.5t27.5 179.5t8.5 164.5q0 354 -229 354q-96 0 -173.5 -56.5t-125 -143.5t-80 -199t-45.5 -215.5t-13 -200.5z" />
<glyph unicode="R" horiz-adv-x="1013" d="M973 1079q0 -91 -30 -173.5t-97 -153t-164 -109.5l217 -643h-178l-197 606h-184l-86 -606h-168l197 1409h295q195 0 295 -87t100 -243zM358 741h127q72 0 127.5 20t89.5 52t56 77t30.5 89.5t8.5 93.5q0 104 -53 151.5t-169 47.5h-141z" />
<glyph unicode="S" horiz-adv-x="917" d="M596 1432q204 0 338 -166l-103 -92q-57 62 -113 90t-128 28q-108 0 -177 -73.5t-69 -184.5q0 -81 41 -127.5t158 -101.5q144 -66 213 -148t69 -217q0 -124 -57 -229t-167.5 -170.5t-252.5 -65.5q-221 0 -377 187l107 92q62 -69 124 -102t152 -33q132 0 214.5 86t82.5 229 q0 91 -44 143.5t-167 110.5q-147 70 -207.5 143t-60.5 195q0 101 51 193t150 152.5t223 60.5z" />
<glyph unicode="T" horiz-adv-x="866" d="M973 1409l-39 -147h-316l-178 -1262h-168l177 1262h-324l20 147h828z" />
<glyph unicode="U" horiz-adv-x="1091" d="M1071 1409l-145 -1040q-23 -166 -145 -280t-310 -114q-97 0 -172 34.5t-117 92t-59 129.5t-6 150l147 1028h168l-143 -1034q-16 -114 31.5 -184t162.5 -70q118 0 189.5 75t87.5 189l143 1024h168z" />
<glyph unicode="V" horiz-adv-x="954" d="M1055 1409l-551 -1409h-201l-160 1409h172l113 -1225l451 1225h176z" />
<glyph unicode="W" horiz-adv-x="1394" d="M1468 1409l-426 -1409h-217l-37 1212l-372 -1212h-215l-31 1409h160l6 -1253l387 1253h188l39 -1253l363 1253h155z" />
<glyph unicode="X" horiz-adv-x="899" d="M979 1409l-404 -649l242 -760h-178l-172 639l-350 -639h-187l447 752l-217 657h180l147 -549l308 549h184z" />
<glyph unicode="Y" horiz-adv-x="919" d="M1034 1409l-489 -866l-76 -543h-172l76 543l-244 866h178l170 -717l371 717h186z" />
<glyph unicode="Z" horiz-adv-x="868" d="M-29 0l21 137l731 1127h-518l22 145h701l-23 -139l-731 -1125l578 2l-45 -147h-736z" />
<glyph unicode="[" horiz-adv-x="538" d="M612 1665l-20 -139h-193l-227 -1624h193l-19 -138h-348l268 1901h346z" />
<glyph unicode="\" horiz-adv-x="886" d="M471 1638l131 -1826l-139 -21l-129 1825z" />
<glyph unicode="]" horiz-adv-x="538" d="M592 1665l-266 -1901h-349l19 138h194l226 1624h-191l19 139h348z" />
<glyph unicode="^" horiz-adv-x="923" d="M700 1714l224 -635h-168l-148 488l-282 -488h-174l403 635h145z" />
<glyph unicode="_" horiz-adv-x="892" d="M-70 -279l21 144h803l-21 -144h-803z" />
<glyph unicode="`" horiz-adv-x="522" d="M279 1618l303 -223l-56 -84l-331 176z" />
<glyph unicode="a" horiz-adv-x="978" d="M604 1100q143 0 293 -80l-113 -778q-5 -36 -6 -53t1.5 -39t14.5 -35t33 -23l-55 -117q-137 26 -145 170q-60 -83 -123 -126.5t-148 -43.5q-129 0 -204.5 101t-75.5 270q0 85 13 170.5t39.5 171t70 159.5t100 131t135 89.5t170.5 32.5zM602 967q-91 0 -162.5 -57 t-112.5 -150t-62 -198.5t-21 -215.5q0 -237 147 -237q66 0 122 50t118 144l90 641q-57 23 -119 23z" />
<glyph unicode="b" horiz-adv-x="991" d="M643 1100q125 0 197.5 -95.5t72.5 -271.5q0 -108 -16 -210.5t-54.5 -203.5t-96.5 -176t-148.5 -121.5t-202.5 -46.5q-148 0 -311 72l207 1464l166 21l-82 -574q129 142 268 142zM602 967q-62 0 -127.5 -45t-122.5 -117l-92 -668q82 -28 152 -28q87 0 154 58t104.5 153 t56 200.5t18.5 214.5q0 121 -36 176.5t-107 55.5z" />
<glyph unicode="c" horiz-adv-x="802" d="M575 1100q150 0 256 -115l-90 -98q-41 40 -79.5 59t-88.5 19q-70 0 -126.5 -39.5t-92 -101t-59.5 -143t-33.5 -160t-9.5 -156.5q0 -125 43.5 -186.5t122.5 -61.5q53 0 96.5 19t103.5 61l64 -109q-134 -113 -281 -113q-150 0 -235.5 105t-85.5 291q0 100 17.5 200 t56.5 196.5t95 169.5t140.5 118t185.5 45z" />
<glyph unicode="d" horiz-adv-x="995" d="M817 1528l162 -17l-213 -1511h-141l8 176q-113 -201 -281 -201q-130 0 -202 101.5t-72 277.5q0 80 12 164t35.5 168t61.5 158.5t87 132.5t115.5 91.5t142.5 33.5q143 0 209 -129zM549 969q-77 0 -138 -61.5t-95.5 -158.5t-52 -200t-17.5 -201q0 -118 37.5 -178.5 t107.5 -60.5q73 0 135.5 67.5t130.5 198.5l64 452q-30 71 -69.5 106.5t-102.5 35.5z" />
<glyph unicode="e" horiz-adv-x="897" d="M860 838q0 -87 -32.5 -155.5t-86 -114t-135 -78.5t-165.5 -51t-191 -31v-35q0 -137 45 -196.5t127 -59.5q114 0 240 94l69 -107q-157 -129 -325 -129q-155 0 -240.5 104.5t-85.5 289.5q0 84 12.5 168t38 167t67 154t95 125.5t127.5 85.5t160 31q134 0 207 -74.5 t73 -187.5zM567 967q-67 0 -121.5 -36.5t-90.5 -100.5t-59.5 -137t-35.5 -158q226 28 330 93.5t104 202.5q0 136 -127 136z" />
<glyph unicode="f" horiz-adv-x="546" d="M596 1399q-69 0 -106.5 -41.5t-49.5 -128.5l-20 -152h217l-37 -131h-199l-127 -913q-13 -88 -35 -154.5t-48.5 -111t-70.5 -81.5t-85.5 -60.5t-108.5 -55.5l-41 125q53 26 85 48.5t63 61.5t50 98.5t30 147.5l125 895h-150l21 131h147l23 162q19 136 100 215.5t211 79.5 q116 0 217 -78l-64 -104q-74 47 -147 47z" />
<glyph unicode="g" horiz-adv-x="974" d="M606 1100q140 0 293 -80l-145 -1020q-32 -230 -139.5 -333t-280.5 -103q-79 0 -159.5 27t-145.5 75l67 117q121 -76 236 -76q48 0 86.5 12.5t75.5 43t62.5 91t37.5 148.5l20 152q-59 -75 -116 -114.5t-138 -39.5q-129 0 -204.5 98t-77.5 262q0 81 13 164.5t39 167.5 t70 156.5t100.5 129.5t135 89.5t170.5 32.5zM604 967q-91 0 -162.5 -57t-112.5 -148.5t-62 -194.5t-21 -207q0 -227 147 -227q66 0 122.5 50t119.5 143l88 618q-57 23 -119 23z" />
<glyph unicode="h" horiz-adv-x="972" d="M653 1102q112 0 172 -89.5t39 -234.5l-110 -778h-164l108 776q22 187 -88 187q-123 0 -278 -299l-90 -664h-164l213 1511l164 17l-90 -645q61 104 129.5 161.5t158.5 57.5z" />
<glyph unicode="i" horiz-adv-x="468" d="M344 1352q-45 0 -72.5 27.5t-27.5 72.5q0 57 35 92t86 35q47 0 74.5 -27t27.5 -73q0 -57 -35.5 -92t-87.5 -35zM393 1077l-151 -1077h-164l151 1077h164z" />
<glyph unicode="j" horiz-adv-x="475" d="M352 1352q-45 0 -72.5 27.5t-27.5 72.5q0 57 35 92t86 35q47 0 74.5 -27t27.5 -73q0 -57 -35.5 -92t-87.5 -35zM-96 -430l-43 125q53 26 85 48.5t63 61.5t49.5 98t31.5 148l143 1026h164l-147 -1044q-11 -74 -26.5 -131.5t-39.5 -101.5t-49 -75.5t-64.5 -60t-75.5 -48.5 t-91 -46z" />
<glyph unicode="k" horiz-adv-x="927" d="M455 1532l-93 -655q129 223 308 223q101 0 163 -64t62 -166q0 -246 -297 -385l188 -485h-174l-192 524q162 52 233.5 131t71.5 201q0 113 -96 113q-73 0 -150.5 -83.5t-150.5 -244.5l-86 -641h-164l213 1511z" />
<glyph unicode="l" horiz-adv-x="491" d="M444 1532l-188 -1342q-5 -40 5 -57.5t38 -17.5q24 0 57 10l27 -115q-57 -35 -129 -35q-85 0 -129 61t-29 163l185 1312z" />
<glyph unicode="m" horiz-adv-x="1425" d="M1120 1102q103 0 159.5 -89t35.5 -235l-111 -778h-164l109 774q23 189 -74 189q-33 0 -67.5 -24t-68 -69t-62 -93t-60.5 -111l-96 -666h-164l109 774q23 189 -74 189q-33 0 -68 -25t-69 -70.5t-62.5 -94t-60.5 -111.5l-90 -662h-164l151 1077h140l-19 -203 q64 109 133 168.5t154 59.5q81 0 135.5 -59t63.5 -164q65 111 132.5 167t151.5 56z" />
<glyph unicode="n" horiz-adv-x="974" d="M655 1102q112 0 171.5 -89t39.5 -235l-110 -778h-164l108 776q22 187 -90 187q-125 0 -276 -299l-92 -664h-164l151 1077h140l-19 -207q69 113 141 172.5t164 59.5z" />
<glyph unicode="o" horiz-adv-x="980" d="M408 -25q-156 0 -242 107.5t-86 292.5q0 78 12 159t36 163.5t65 154t93.5 127.5t127 88.5t161.5 32.5q157 0 241.5 -105.5t84.5 -292.5q0 -77 -11.5 -157t-35 -163t-63.5 -155t-92.5 -129t-127.5 -90t-163 -33zM414 111q71 0 128 42t91.5 107t58 148.5t32.5 160t9 148.5 q0 124 -42.5 186t-121.5 62q-72 0 -129 -42t-91.5 -106.5t-57.5 -148t-32 -159.5t-9 -149q0 -249 164 -249z" />
<glyph unicode="p" horiz-adv-x="991" d="M16 -436l213 1513h142l-9 -129q128 152 281 152q125 0 197.5 -95.5t72.5 -271.5q0 -105 -16 -207.5t-54 -203.5t-94 -177t-143 -123t-194 -47q-93 0 -170 39l-62 -428zM412 109q87 0 154 59.5t104.5 155t56 200.5t18.5 211q0 121 -36 176.5t-107 55.5q-63 0 -129 -45.5 t-121 -116.5l-92 -666q74 -30 152 -30z" />
<glyph unicode="q" horiz-adv-x="974" d="M532 -436l78 565q-110 -154 -252 -154q-130 0 -206 101t-76 270q0 103 18 205.5t59.5 202.5t101 176t150.5 123t201 47q140 0 293 -80l-203 -1434zM391 109q66 0 123 50t119 144l90 641q-57 23 -121 23q-73 0 -134 -38t-101.5 -100t-69 -144t-41 -167.5t-12.5 -171.5 q0 -237 147 -237z" />
<glyph unicode="r" horiz-adv-x="649" d="M621 1100q41 0 88 -15l-54 -157q-38 10 -69 10q-86 0 -149.5 -89t-117.5 -263l-77 -586h-164l151 1077h142l-19 -205q54 114 117 171t152 57z" />
<glyph unicode="s" horiz-adv-x="798" d="M471 1100q179 0 299 -129l-82 -94q-104 90 -217 90q-80 0 -129 -45t-49 -123q0 -59 38.5 -95t133.5 -77q115 -49 170 -117.5t55 -177.5q0 -160 -108 -258.5t-275 -98.5q-201 0 -330 152l95 94q54 -54 111 -82t130 -28q102 0 155.5 61.5t53.5 144.5q0 73 -38 114.5 t-140 84.5q-114 46 -165.5 110t-51.5 165q0 126 97.5 217.5t246.5 91.5z" />
<glyph unicode="t" horiz-adv-x="616" d="M389 946l-100 -710q-15 -121 82 -121q55 0 129 41l47 -109q-93 -72 -205 -72q-113 0 -172.5 74.5t-40.5 196.5l98 700h-147l18 131h152l59 252l137 17l-38 -269h210l-38 -131h-191z" />
<glyph unicode="u" horiz-adv-x="966" d="M324 -25q-112 0 -173.5 83.5t-41.5 220.5l110 798h164l-113 -813q-12 -76 10.5 -117t71.5 -41q128 0 273 261l102 710h164l-152 -1077h-139l16 195q-68 -108 -133 -164t-159 -56z" />
<glyph unicode="v" horiz-adv-x="835" d="M889 1077l-447 -1077h-194l-150 1077h176l93 -930l348 930h174z" />
<glyph unicode="w" horiz-adv-x="1224" d="M1257 1077l-350 -1077h-209l-30 930l-289 -930h-207l-53 1077h157l21 -958l305 958h182l31 -958l285 958h157z" />
<glyph unicode="x" horiz-adv-x="821" d="M846 1077l-332 -514l217 -563h-170l-162 471l-288 -471h-174l380 580l-192 497h170l135 -411l242 411h174z" />
<glyph unicode="y" horiz-adv-x="837" d="M891 1077l-438 -1087q-84 -208 -189 -299.5t-291 -120.5l-4 123q137 33 203.5 95.5t126.5 211.5h-61l-140 1077h172l90 -952l359 952h172z" />
<glyph unicode="z" horiz-adv-x="731" d="M754 1077l-19 -129l-565 -809h457l-37 -139h-627l19 125l565 811h-416l23 141h600z" />
<glyph unicode="{" horiz-adv-x="546" d="M629 1706l-15 -127q-82 0 -120 -38t-50 -130l-65 -485q-14 -103 -53.5 -145.5t-124.5 -69.5q49 -16 75 -36t37.5 -64t1.5 -117l-65 -486q-12 -85 16.5 -119t104.5 -34l-15 -129q-149 0 -213 71t-43 221l66 480q11 85 -11 117t-94 32l19 135q67 0 101 33t44 113l70 495 q20 154 96 218.5t238 64.5z" />
<glyph unicode="|" horiz-adv-x="684" d="M573 1651l-260 -1860h-151l260 1860h151z" />
<glyph unicode="}" horiz-adv-x="546" d="M-31 -274l15 129q82 0 120 38t50 130l65 485q13 101 52.5 143.5t125.5 71.5q-49 16 -75 36.5t-37.5 64t-1.5 114.5l65 487q12 85 -16.5 119.5t-106.5 34.5l15 127q150 0 214.5 -71t43.5 -222l-66 -477q-12 -85 10 -117.5t95 -32.5l-19 -137q-67 0 -101 -32.5t-44 -112.5 l-70 -494q-22 -154 -97.5 -219t-236.5 -65z" />
<glyph unicode="~" horiz-adv-x="839" d="M555 522q-38 0 -75.5 19t-62 42.5t-55.5 42.5t-57 19q-27 0 -54.5 -17.5t-43.5 -35.5t-39 -49l-90 53q33 50 63.5 85.5t79.5 65t101 29.5q37 0 73 -19t60 -41.5t54.5 -41.5t57.5 -19q69 0 138 93l88 -56q-110 -170 -238 -170z" />
<glyph unicode="&#xa1;" horiz-adv-x="444" d="M258 745q-52 0 -82.5 32.5t-30.5 80.5q0 57 37.5 98t96.5 41q52 0 82 -31.5t30 -80.5q0 -56 -37.5 -98t-95.5 -42zM289 506l-111 -916h-176l148 916h139z" />
<glyph unicode="&#xa2;" horiz-adv-x="802" d="M573 965q-70 0 -126.5 -39.5t-92 -101t-59.5 -143t-33.5 -160t-9.5 -156.5q0 -125 43.5 -186.5t122.5 -61.5q53 0 96.5 19t103.5 61l64 -109q-110 -90 -219 -108l-43 -293h-131l41 295q-118 25 -184 126.5t-66 262.5q0 115 24 229t71 217.5t128 177.5t184 97l43 307h132 l-44 -301q119 -11 213 -113l-90 -98q-41 40 -79.5 59t-88.5 19z" />
<glyph unicode="&#xa3;" horiz-adv-x="876" d="M649 1389q183 0 277 -168l-109 -72q-36 55 -74 79.5t-94 24.5q-83 0 -135.5 -64t-67.5 -179l-32 -234h338l-17 -110h-336l-39 -277q-14 -104 -44 -158t-103 -92h539l-43 -139h-705l19 135q91 38 126 91.5t50 176.5l37 263h-111l16 110h109l35 244q24 168 118.5 268.5 t245.5 100.5z" />
<glyph unicode="&#xa4;" horiz-adv-x="942" d="M928 274l-105 -84l-127 156q-87 -65 -207 -65q-114 0 -194 65l-129 -156l-96 89l141 161q-64 109 -64 258q0 144 62 252l-148 174l105 84l129 -157q81 63 194 63q118 0 203 -63l131 157l97 -88l-142 -164q64 -106 64 -258q0 -147 -60 -252zM494 412q99 0 148.5 70 t49.5 218q0 289 -198 289q-201 0 -201 -289q0 -148 50.5 -218t150.5 -70z" />
<glyph unicode="&#xa5;" horiz-adv-x="892" d="M1001 1368l-411 -666h188l-16 -114h-225l-27 -191h223l-14 -114h-225l-39 -283h-166l41 283h-230l19 114h225l29 191h-230l19 114h188l-227 666h172l180 -618l350 618h176z" />
<glyph unicode="&#xa6;" horiz-adv-x="684" d="M573 1651l-104 -744h-152l105 744h151zM418 537l-105 -746h-151l104 746h152z" />
<glyph unicode="&#xa7;" horiz-adv-x="950" d="M631 1257q-99 0 -144 -48.5t-45 -125.5q0 -66 34.5 -105t133.5 -85q110 -50 159.5 -114t49.5 -148q0 -89 -44 -157t-140 -132q67 -70 67 -180q0 -60 -22 -113.5t-64 -97t-112 -69t-158 -25.5q-167 0 -291 102l78 102q93 -75 223 -75q96 0 140.5 48.5t44.5 125.5 q0 69 -35 107.5t-133 78.5q-109 46 -162 108.5t-53 155.5q0 173 184 291q-61 70 -61 168q0 146 100.5 231.5t245.5 85.5q162 0 286 -112l-73 -96q-98 79 -209 79zM524 782q-44 20 -102 54q-107 -97 -107 -213q0 -54 29 -91t98 -69q61 -26 113 -57q113 105 113 206 q0 52 -31.5 94t-112.5 76z" />
<glyph unicode="&#xa8;" horiz-adv-x="669" d="M279 1348q-40 0 -65.5 25t-25.5 65q0 49 33.5 81.5t77.5 32.5q40 0 65 -25t25 -63q0 -52 -32 -84t-78 -32zM627 1348q-40 0 -65 25t-25 65q0 49 33 81.5t77 32.5q41 0 65.5 -24.5t24.5 -63.5q0 -51 -32 -83.5t-78 -32.5z" />
<glyph unicode="&#xa9;" horiz-adv-x="1363" d="M733 1524q110 0 206 -44t167.5 -124.5t112.5 -201t41 -265.5q0 -144 -41 -264t-112.5 -200.5t-167.5 -124.5t-206 -44q-111 0 -208 44t-168.5 124.5t-112.5 200.5t-41 264q0 145 41 265.5t112.5 201t168.5 124.5t208 44zM733 1425q-187 0 -304.5 -143t-117.5 -393 q0 -249 118 -391t304 -142q185 0 302.5 142.5t117.5 390.5q0 250 -117.5 393t-302.5 143zM739 1274q107 0 191 -78l-58 -82q-68 49 -131 49q-147 0 -147 -272q0 -266 149 -266q70 0 136 55l57 -82q-86 -90 -199 -90q-120 0 -197 98.5t-77 284.5q0 189 77 286t199 97z" />
<glyph unicode="&#xaa;" horiz-adv-x="841" d="M352 557q-98 0 -154.5 62t-56.5 161q0 58 18.5 107.5t57.5 92.5t109.5 68t165.5 25h98l6 49q23 160 -109 160q-83 0 -186 -41l-33 113q134 55 248 55q131 0 193 -76.5t43 -214.5l-50 -344q-8 -39 -0.5 -65.5t37.5 -40.5l-47 -111q-107 18 -129 117q-86 -117 -211 -117z M391 678q93 0 162 125l22 166h-86q-99 0 -143.5 -54t-44.5 -127q0 -51 22.5 -80.5t67.5 -29.5zM29 0l18 139h635l-18 -139h-635z" />
<glyph unicode="&#xab;" horiz-adv-x="1013" d="M465 1085l96 -67l-287 -434l166 -424l-106 -68l-232 438l17 115zM883 1085l96 -67l-287 -434l166 -424l-106 -68l-232 438l17 115z" />
<glyph unicode="&#xac;" horiz-adv-x="866" d="M780 729l-59 -422h-156l39 281h-485l18 141h643z" />
<glyph unicode="&#xad;" horiz-adv-x="688" d="M111 571l18 140h477l-18 -140h-477z" />
<glyph unicode="&#xae;" horiz-adv-x="1073" d="M602 1526q185 0 306.5 -142t121.5 -370t-121.5 -371t-306.5 -143q-183 0 -304.5 141.5t-121.5 368.5t122 371.5t304 144.5zM602 592q150 0 242 114t92 308t-92 308t-242 114q-145 0 -238.5 -116t-93.5 -310q0 -193 93 -305.5t239 -112.5zM782 1130q0 -114 -104 -153 l123 -238h-109l-100 219h-49v-219h-94v561h126q102 0 154.5 -44.5t52.5 -125.5zM543 1217v-175h53q88 0 88 88q0 87 -92 87h-49z" />
<glyph unicode="&#xaf;" horiz-adv-x="575" d="M631 1372h-453l21 125h450z" />
<glyph unicode="&#xb0;" horiz-adv-x="868" d="M416 791q-101 0 -167.5 67t-66.5 193q0 161 91 271t225 110q101 0 167 -67.5t66 -195.5q0 -160 -91 -269t-224 -109zM420 903q86 0 135 74.5t49 191.5q0 150 -112 150q-85 0 -134 -75t-49 -193q0 -148 111 -148z" />
<glyph unicode="&#xb1;" horiz-adv-x="862" d="M586 1098l-43 -312h243l-18 -137h-246l-45 -307h-145l45 307h-248l18 137h250l43 312h146zM41 0l18 139h635l-18 -139h-635z" />
<glyph unicode="&#xb2;" horiz-adv-x="665" d="M446 1524q96 0 152.5 -58t56.5 -151q0 -62 -22.5 -120.5t-82 -133t-100.5 -117.5t-140 -141l-29 -29h319l-31 -115h-452l16 111l78 81t75 78t63.5 68.5t59.5 69t45 61.5t37 64t20 58.5t9 60.5q0 49 -24 74.5t-64 25.5q-77 0 -156 -86l-79 68q110 131 249 131z" />
<glyph unicode="&#xb3;" horiz-adv-x="665" d="M457 1526q98 0 149 -53t51 -140q0 -85 -49 -143t-139 -80q68 -6 107.5 -49t39.5 -119q0 -128 -83.5 -214.5t-213.5 -86.5q-151 0 -223 125l86 65q54 -79 137 -79q77 0 121.5 59.5t44.5 140.5q0 103 -116 103h-60l35 102h35q66 0 107.5 52t41.5 118q0 44 -24 68t-68 24 q-79 0 -164 -69l-57 73q115 103 242 103z" />
<glyph unicode="&#xb4;" horiz-adv-x="530" d="M532 1622l70 -135l-377 -176l-47 86z" />
<glyph unicode="&#xb5;" horiz-adv-x="983" d="M791 362q-31 -215 -7 -366l-151 -16q-21 100 -15 180q-57 -89 -117.5 -137t-135.5 -48q-93 0 -144 82q12 -79 -14 -247l-31 -220l-160 -20l213 1507h162l-106 -768q-29 -200 102 -200q133 0 238 223l104 745h162z" />
<glyph unicode="&#xb6;" horiz-adv-x="1232" d="M690 1409h451l-256 -1819l-152 -24l236 1708h-187l-231 -1684l-152 -24l146 1020q-166 9 -247 98t-81 236q0 223 126.5 356t346.5 133z" />
<glyph unicode="&#xb7;" horiz-adv-x="413" d="M211 512q-52 0 -82.5 32.5t-30.5 80.5q0 57 37.5 98t95.5 41q52 0 82.5 -32t30.5 -81q0 -56 -37.5 -97.5t-95.5 -41.5z" />
<glyph unicode="&#xb8;" horiz-adv-x="485" d="M193 33l-23 -158q69 -7 103 -46.5t34 -102.5q0 -86 -60 -147.5t-169 -61.5q-92 0 -154 51l56 86q49 -29 98 -29q44 0 71 24.5t27 67.5q0 45 -29.5 63.5t-107.5 18.5l53 234h101z" />
<glyph unicode="&#xb9;" horiz-adv-x="665" d="M586 1511l-121 -852h-129l96 705l-170 -109l-53 88l260 168h117z" />
<glyph unicode="&#xba;" horiz-adv-x="843" d="M539 1409q133 0 205.5 -85.5t72.5 -238.5q0 -70 -12 -139.5t-41 -140.5t-72 -125.5t-110.5 -88.5t-151.5 -34q-132 0 -205 86t-73 238q0 69 12 139t41.5 141t72 125.5t110.5 88.5t151 34zM535 1282q-64 0 -110.5 -40.5t-70.5 -106.5t-34.5 -133t-10.5 -136 q0 -182 125 -182q64 0 110.5 42t70 109.5t34 133.5t10.5 131q0 182 -124 182zM29 0l18 139h635l-18 -139h-635z" />
<glyph unicode="&#xbb;" horiz-adv-x="1013" d="M276 1085l234 -440l-16 -115l-351 -438l-94 68l289 432l-168 426zM694 1085l234 -440l-17 -115l-350 -438l-94 68l289 432l-168 426z" />
<glyph unicode="&#xbc;" horiz-adv-x="1550" d="M1178 1534l94 -53l-905 -1637l-99 54zM322 557l96 705l-170 -109l-53 88l260 168h116l-120 -852h-129zM1452 313l-18 -112h-84l-29 -201h-127l29 201h-316l17 100l286 565l107 -45l-258 -508h180l47 222h111l-31 -222h86z" />
<glyph unicode="&#xbd;" horiz-adv-x="1550" d="M1178 1534l94 -53l-905 -1637l-99 54zM571 1409l-120 -852h-129l96 705l-170 -109l-53 88l260 168h116zM1239 864q96 0 152.5 -58t56.5 -151q0 -61 -24.5 -121.5t-76.5 -126.5t-103.5 -120.5t-135.5 -137.5q-23 -22 -35 -34h320l-31 -115h-453l17 111q27 28 78 81t75 78 t64 68.5t59 68.5t45 61.5t37.5 63.5t20 58.5t8.5 60.5q0 49 -24 75t-64 26q-77 0 -156 -86l-80 67q110 131 250 131z" />
<glyph unicode="&#xbe;" horiz-adv-x="1550" d="M1178 1534l94 -53l-905 -1637l-99 54zM602 840q0 -128 -83.5 -214.5t-213.5 -86.5q-151 0 -223 125l86 65q55 -80 137 -80q77 0 121.5 60t44.5 141q0 102 -117 102h-59l35 103h35q66 0 107.5 52t41.5 118q0 44 -24 68t-68 24q-78 0 -164 -70l-57 74q114 102 241 102 q98 0 149.5 -52.5t51.5 -139.5q0 -85 -49 -143t-139 -80q68 -6 107.5 -49t39.5 -119zM1452 313l-18 -112h-84l-29 -201h-127l29 201h-316l17 100l286 565l107 -45l-258 -508h180l47 222h111l-31 -222h86z" />
<glyph unicode="&#xbf;" horiz-adv-x="794" d="M477 1038q52 0 82.5 -32t30.5 -80q0 -57 -37.5 -98.5t-95.5 -41.5q-52 0 -82.5 32t-30.5 81q0 56 37.5 97.5t95.5 41.5zM262 -436q-143 0 -219 78.5t-76 197.5q0 73 23 131.5t59.5 97.5t80.5 72t88 63.5t80.5 64t59.5 82t23 108.5q0 23 -4 63l145 27q17 -53 17 -105 q0 -68 -22 -123t-57.5 -91.5t-78.5 -68t-86 -61.5t-78.5 -63t-57.5 -81t-22 -108q0 -79 35 -114t104 -35q122 0 252 149l95 -90q-162 -194 -361 -194z" />
<glyph unicode="&#xc0;" d="M854 1634l-55 -84l-332 154l84 133zM711 0l-35 365h-420l-135 -365h-176l563 1409h213l168 -1409h-178zM307 502h357l-72 764z" />
<glyph unicode="&#xc1;" d="M862 1702l-377 -154l-43 86l351 205zM711 0l-35 365h-420l-135 -365h-176l563 1409h213l168 -1409h-178zM307 502h357l-72 764z" />
<glyph unicode="&#xc2;" d="M653 1720l-231 -164l-68 76l260 228h105l194 -236l-71 -68zM508 1409h213l168 -1409h-178l-35 365h-420l-135 -365h-176zM307 502h357l-72 764z" />
<glyph unicode="&#xc3;" d="M555 1706q-25 0 -47 -21t-53 -67l-86 51q92 164 192 164q32 0 61.5 -15.5t48 -33.5t41.5 -33.5t44 -15.5q24 0 45.5 20.5t52.5 67.5l88 -51q-86 -164 -190 -164q-32 0 -62 15.5t-49.5 33.5t-43 33.5t-42.5 15.5zM508 1409h213l168 -1409h-178l-35 365h-420l-135 -365 h-176zM307 502h357l-72 764z" />
<glyph unicode="&#xc4;" d="M471 1606q-40 0 -65 25t-25 65q0 49 33.5 81.5t77.5 32.5q40 0 65 -25t25 -63q0 -52 -32.5 -84t-78.5 -32zM840 1810q41 0 65.5 -24.5t24.5 -63.5q0 -51 -32.5 -83.5t-78.5 -32.5q-40 0 -65 25t-25 65q0 49 33.5 81.5t77.5 32.5zM508 1409h213l168 -1409h-178l-35 365 h-420l-135 -365h-176zM307 502h357l-72 764z" />
<glyph unicode="&#xc5;" d="M641 1544q-76 0 -124 52.5t-48 132.5q0 99 61 164t154 65q77 0 124.5 -52t47.5 -132q0 -101 -61 -165.5t-154 -64.5zM678 1870q-48 0 -75.5 -39t-27.5 -100q0 -45 18.5 -72t53.5 -27q48 0 76.5 40t28.5 100q0 46 -19.5 72t-54.5 26zM711 0l-35 365h-420l-135 -365h-176 l563 1409h213l168 -1409h-178zM307 502h357l-72 764z" />
<glyph unicode="&#xc6;" horiz-adv-x="1370" d="M1303 1272h-506l24 -486h422l-20 -137h-394l27 -510h383l-25 -139h-509l-17 360h-436l-158 -360h-174l649 1409h774zM313 502h369l-35 770z" />
<glyph unicode="&#xc7;" horiz-adv-x="952" d="M721 1292q-94 0 -170.5 -52.5t-125.5 -135.5t-82.5 -192t-47.5 -217.5t-14 -215.5q0 -182 61.5 -270t167.5 -88q52 0 103.5 19.5t79 38t79.5 57.5l70 -113q-145 -133 -310 -146l-14 -102q69 -7 103 -46.5t34 -102.5q0 -86 -60 -147.5t-169 -61.5q-92 0 -154 51l56 86 q49 -29 98 -29q44 0 71 24.5t27 67.5q0 45 -29.5 63.5t-107.5 18.5l41 181q-150 24 -237 155t-87 352q0 108 16 216.5t47.5 215t83 198.5t118 163t157.5 111.5t197 40.5q100 0 172 -36t133 -106l-98 -94q-52 49 -101 72.5t-108 23.5z" />
<glyph unicode="&#xc8;" horiz-adv-x="880" d="M541 1837l303 -203l-56 -84l-331 154zM913 1409l-41 -137h-438l-67 -484h385l-23 -137h-381l-74 -512h474l-23 -139h-639l197 1409h630z" />
<glyph unicode="&#xc9;" horiz-adv-x="880" d="M782 1839l70 -137l-377 -154l-43 86zM913 1409l-41 -137h-438l-67 -484h385l-23 -137h-381l-74 -512h474l-23 -139h-639l197 1409h630z" />
<glyph unicode="&#xca;" horiz-adv-x="880" d="M412 1556l-68 76l260 228h105l194 -236l-72 -68l-188 164zM913 1409l-41 -137h-438l-67 -484h385l-23 -137h-381l-74 -512h474l-23 -139h-639l197 1409h630z" />
<glyph unicode="&#xcb;" horiz-adv-x="880" d="M461 1606q-40 0 -65 25t-25 65q0 49 33 81.5t77 32.5q40 0 65 -25t25 -63q0 -52 -32 -84t-78 -32zM809 1606q-40 0 -65 25t-25 65q0 49 33 81.5t77 32.5q41 0 66 -24.5t25 -63.5q0 -51 -32.5 -83.5t-78.5 -32.5zM913 1409l-41 -137h-438l-67 -484h385l-23 -137h-381 l-74 -512h474l-23 -139h-639l197 1409h630z" />
<glyph unicode="&#xcc;" horiz-adv-x="491" d="M305 1837l303 -203l-55 -84l-332 154zM453 1409l-199 -1409h-168l197 1409h170z" />
<glyph unicode="&#xcd;" horiz-adv-x="491" d="M547 1839l69 -137l-376 -154l-43 86zM453 1409l-199 -1409h-168l197 1409h170z" />
<glyph unicode="&#xce;" horiz-adv-x="491" d="M176 1556l-67 76l260 228h104l195 -236l-72 -68l-188 164zM453 1409l-199 -1409h-168l197 1409h170z" />
<glyph unicode="&#xcf;" horiz-adv-x="491" d="M225 1606q-40 0 -65 25t-25 65q0 49 33.5 81.5t77.5 32.5q40 0 65 -25t25 -63q0 -52 -32.5 -84t-78.5 -32zM573 1606q-40 0 -65 25t-25 65q0 49 33.5 81.5t77.5 32.5q41 0 65.5 -24.5t24.5 -63.5q0 -51 -32.5 -83.5t-78.5 -32.5zM453 1409l-199 -1409h-168l197 1409h170z " />
<glyph unicode="&#xd0;" horiz-adv-x="1124" d="M584 1409q485 0 485 -473q0 -150 -22 -283.5t-73.5 -254.5t-129 -208t-194.5 -138.5t-263 -51.5h-287l93 657h-142l19 131h141l86 621h287zM420 137q105 0 189 48.5t137 126.5t88 184.5t49 215t14 224.5q0 79 -15 138.5t-41 96.5t-66 60t-83.5 32t-99.5 9h-143l-68 -484 h258l-18 -131h-259l-73 -520h131z" />
<glyph unicode="&#xd1;" horiz-adv-x="1130" d="M840 1608q-32 0 -62 15.5t-49.5 33.5t-43 33.5t-42.5 15.5q-25 0 -47 -21t-53 -67l-86 51q92 164 192 164q32 0 61.5 -15.5t48 -33.5t41.5 -33.5t44 -15.5q24 0 45.5 20.5t52.5 67.5l88 -51q-86 -164 -190 -164zM1094 1409l-199 -1409h-223l-285 1260q-6 -240 -51 -574 l-94 -686h-156l197 1409h223l287 -1259q6 261 38 466l107 793h156z" />
<glyph unicode="&#xd2;" horiz-adv-x="1175" d="M659 1837l304 -203l-56 -84l-332 154zM725 1432q186 0 289.5 -132t103.5 -378q0 -104 -14.5 -210t-44.5 -214t-80.5 -201t-117 -165.5t-160 -114.5t-203.5 -42q-186 0 -291 132.5t-105 373.5q0 102 15 207.5t45 213.5t81 202t117.5 168t160.5 117t204 43zM713 1292 q-96 0 -173.5 -56.5t-125 -143.5t-80 -199t-45.5 -215.5t-13 -200.5q0 -358 232 -358q82 0 150.5 39.5t114.5 107.5t80 150.5t53 177.5t27.5 179.5t8.5 164.5q0 354 -229 354z" />
<glyph unicode="&#xd3;" horiz-adv-x="1175" d="M901 1839l70 -137l-377 -154l-43 86zM725 1432q186 0 289.5 -132t103.5 -378q0 -104 -14.5 -210t-44.5 -214t-80.5 -201t-117 -165.5t-160 -114.5t-203.5 -42q-186 0 -291 132.5t-105 373.5q0 102 15 207.5t45 213.5t81 202t117.5 168t160.5 117t204 43zM713 1292 q-96 0 -173.5 -56.5t-125 -143.5t-80 -199t-45.5 -215.5t-13 -200.5q0 -358 232 -358q82 0 150.5 39.5t114.5 107.5t80 150.5t53 177.5t27.5 179.5t8.5 164.5q0 354 -229 354z" />
<glyph unicode="&#xd4;" horiz-adv-x="1175" d="M530 1556l-67 76l260 228h104l195 -236l-72 -68l-188 164zM725 1432q186 0 289.5 -132t103.5 -378q0 -104 -14.5 -210t-44.5 -214t-80.5 -201t-117 -165.5t-160 -114.5t-203.5 -42q-186 0 -291 132.5t-105 373.5q0 102 15 207.5t45 213.5t81 202t117.5 168t160.5 117 t204 43zM713 1292q-96 0 -173.5 -56.5t-125 -143.5t-80 -199t-45.5 -215.5t-13 -200.5q0 -358 232 -358q82 0 150.5 39.5t114.5 107.5t80 150.5t53 177.5t27.5 179.5t8.5 164.5q0 354 -229 354z" />
<glyph unicode="&#xd5;" horiz-adv-x="1175" d="M860 1608q-40 0 -76.5 24.5t-66 49t-53.5 24.5q-25 0 -47.5 -21.5t-53.5 -66.5l-86 51q92 164 193 164q32 0 61 -15.5t47.5 -33.5t41.5 -33.5t44 -15.5q24 0 46 21t53 67l88 -51q-86 -164 -191 -164zM725 1432q186 0 289.5 -132t103.5 -378q0 -104 -14.5 -210t-44.5 -214 t-80.5 -201t-117 -165.5t-160 -114.5t-203.5 -42q-186 0 -291 132.5t-105 373.5q0 102 15 207.5t45 213.5t81 202t117.5 168t160.5 117t204 43zM713 1292q-96 0 -173.5 -56.5t-125 -143.5t-80 -199t-45.5 -215.5t-13 -200.5q0 -358 232 -358q82 0 150.5 39.5t114.5 107.5 t80 150.5t53 177.5t27.5 179.5t8.5 164.5q0 354 -229 354z" />
<glyph unicode="&#xd6;" horiz-adv-x="1175" d="M580 1606q-40 0 -65.5 25t-25.5 65q0 49 33.5 81.5t77.5 32.5q40 0 65 -25t25 -63q0 -52 -32 -84t-78 -32zM928 1606q-40 0 -65 25t-25 65q0 49 33 81.5t77 32.5q41 0 65.5 -24.5t24.5 -63.5q0 -51 -32 -83.5t-78 -32.5zM725 1432q186 0 289.5 -132t103.5 -378 q0 -104 -14.5 -210t-44.5 -214t-80.5 -201t-117 -165.5t-160 -114.5t-203.5 -42q-186 0 -291 132.5t-105 373.5q0 102 15 207.5t45 213.5t81 202t117.5 168t160.5 117t204 43zM713 1292q-96 0 -173.5 -56.5t-125 -143.5t-80 -199t-45.5 -215.5t-13 -200.5q0 -358 232 -358 q82 0 150.5 39.5t114.5 107.5t80 150.5t53 177.5t27.5 179.5t8.5 164.5q0 354 -229 354z" />
<glyph unicode="&#xd7;" horiz-adv-x="866" d="M690 985l94 -90l-245 -264l198 -269l-116 -88l-189 254l-235 -254l-95 91l246 262l-194 270l116 88l183 -264z" />
<glyph unicode="&#xd8;" horiz-adv-x="1175" d="M938 1366q86 -62 133 -175.5t47 -268.5q0 -104 -14.5 -210t-44.5 -214t-80.5 -201t-117 -165.5t-160 -114.5t-203.5 -42q-39 0 -92 11l-93 -242l-133 39l101 258q-86 62 -132.5 175t-46.5 265q0 102 15 207.5t45 213.5t81 202t117.5 168t160.5 117t204 43q39 0 92 -11 l94 250l133 -37zM713 1292q-96 0 -173.5 -56.5t-125 -143.5t-80 -199t-45.5 -215.5t-13 -200.5q0 -222 86 -305l414 1112q-24 8 -63 8zM508 119q82 0 150.5 39.5t114.5 107.5t80 150.5t53 177.5t27.5 179.5t8.5 164.5q0 219 -80 299l-413 -1112q27 -6 59 -6z" />
<glyph unicode="&#xd9;" horiz-adv-x="1091" d="M604 1837l303 -203l-55 -84l-332 154zM1071 1409l-145 -1040q-23 -166 -145 -280t-310 -114q-97 0 -172 34.5t-117 92t-59 129.5t-6 150l147 1028h168l-143 -1034q-16 -114 31.5 -184t162.5 -70q118 0 189.5 75t87.5 189l143 1024h168z" />
<glyph unicode="&#xda;" horiz-adv-x="1091" d="M846 1839l69 -137l-376 -154l-43 86zM1071 1409l-145 -1040q-23 -166 -145 -280t-310 -114q-97 0 -172 34.5t-117 92t-59 129.5t-6 150l147 1028h168l-143 -1034q-16 -114 31.5 -184t162.5 -70q118 0 189.5 75t87.5 189l143 1024h168z" />
<glyph unicode="&#xdb;" horiz-adv-x="1091" d="M475 1556l-67 76l260 228h104l195 -236l-72 -68l-188 164zM1071 1409l-145 -1040q-23 -166 -145 -280t-310 -114q-97 0 -172 34.5t-117 92t-59 129.5t-6 150l147 1028h168l-143 -1034q-16 -114 31.5 -184t162.5 -70q118 0 189.5 75t87.5 189l143 1024h168z" />
<glyph unicode="&#xdc;" horiz-adv-x="1091" d="M524 1606q-40 0 -65 25t-25 65q0 49 33.5 81.5t77.5 32.5q40 0 65 -25t25 -63q0 -52 -32.5 -84t-78.5 -32zM872 1606q-40 0 -65 25t-25 65q0 49 33.5 81.5t77.5 32.5q41 0 65.5 -24.5t24.5 -63.5q0 -51 -32.5 -83.5t-78.5 -32.5zM1071 1409l-145 -1040 q-23 -166 -145 -280t-310 -114q-97 0 -172 34.5t-117 92t-59 129.5t-6 150l147 1028h168l-143 -1034q-16 -114 31.5 -184t162.5 -70q118 0 189.5 75t87.5 189l143 1024h168z" />
<glyph unicode="&#xdd;" horiz-adv-x="919" d="M756 1839l69 -137l-376 -154l-43 86zM1034 1409l-489 -866l-76 -543h-172l76 543l-244 866h178l170 -717l371 717h186z" />
<glyph unicode="&#xde;" horiz-adv-x="958" d="M557 1161q189 0 291 -94.5t102 -275.5q0 -80 -16.5 -152.5t-56 -141.5t-98.5 -119.5t-150 -81t-205 -30.5h-133l-37 -266h-168l197 1409h170l-35 -248h139zM434 403q81 0 142.5 23.5t98.5 61t60.5 90t32 104.5t8.5 111q0 125 -58.5 179t-185.5 54h-133l-88 -623h123z" />
<glyph unicode="&#xdf;" horiz-adv-x="983" d="M-96 -430l-43 125q54 26 86 48.5t63 61.5t49.5 98.5t30.5 147.5l146 1059q28 202 133 312t266 110q124 0 197 -72t73 -182q0 -71 -24.5 -127.5t-59.5 -91.5t-70.5 -65.5t-60 -65.5t-24.5 -76q0 -40 25 -76.5t60 -71t70.5 -76t60.5 -109t25 -152.5q0 -71 -21.5 -138.5 t-62.5 -125t-110 -93t-154 -35.5q-116 0 -199 64l64 111q59 -39 125 -39q52 0 91 23t60 60.5t31 78t10 83.5q0 67 -23.5 121.5t-57.5 92t-67.5 74.5t-57 86t-23.5 108q0 58 24.5 104.5t59 79t69 65.5t59 80.5t24.5 106.5q0 63 -32.5 95t-90.5 32q-180 0 -226 -303 l-149 -1065q-11 -74 -26.5 -131.5t-39.5 -101.5t-49 -75.5t-64.5 -60t-75.5 -48.5t-91 -46z" />
<glyph unicode="&#xe0;" horiz-adv-x="978" d="M569 1618l303 -223l-55 -84l-332 176zM604 1100q143 0 293 -80l-113 -778q-5 -36 -6 -53t1.5 -39t14.5 -35t33 -23l-55 -117q-137 26 -145 170q-60 -83 -123 -126.5t-148 -43.5q-129 0 -204.5 101t-75.5 270q0 85 13 170.5t39.5 171t70 159.5t100 131t135 89.5 t170.5 32.5zM602 967q-91 0 -162.5 -57t-112.5 -150t-62 -198.5t-21 -215.5q0 -237 147 -237q66 0 122 50t118 144l90 641q-57 23 -119 23z" />
<glyph unicode="&#xe1;" horiz-adv-x="978" d="M801 1622l69 -135l-376 -176l-48 86zM604 1100q143 0 293 -80l-113 -778q-5 -36 -6 -53t1.5 -39t14.5 -35t33 -23l-55 -117q-137 26 -145 170q-60 -83 -123 -126.5t-148 -43.5q-129 0 -204.5 101t-75.5 270q0 85 13 170.5t39.5 171t70 159.5t100 131t135 89.5t170.5 32.5 zM602 967q-91 0 -162.5 -57t-112.5 -150t-62 -198.5t-21 -215.5q0 -237 147 -237q66 0 122 50t118 144l90 641q-57 23 -119 23z" />
<glyph unicode="&#xe2;" horiz-adv-x="978" d="M436 1311l-65 75l260 228h104l195 -236l-76 -67l-184 166zM604 1100q143 0 293 -80l-113 -778q-5 -36 -6 -53t1.5 -39t14.5 -35t33 -23l-55 -117q-137 26 -145 170q-60 -83 -123 -126.5t-148 -43.5q-129 0 -204.5 101t-75.5 270q0 85 13 170.5t39.5 171t70 159.5t100 131 t135 89.5t170.5 32.5zM602 967q-91 0 -162.5 -57t-112.5 -150t-62 -198.5t-21 -215.5q0 -237 147 -237q66 0 122 50t118 144l90 641q-57 23 -119 23z" />
<glyph unicode="&#xe3;" horiz-adv-x="978" d="M760 1350q-32 0 -62 15.5t-49.5 33.5t-43 33.5t-42.5 15.5q-25 0 -47 -21t-53 -67l-86 51q92 164 192 164q32 0 61.5 -15.5t48 -33.5t41.5 -33.5t44 -15.5q24 0 45.5 20.5t52.5 67.5l88 -52q-85 -163 -190 -163zM604 1100q143 0 293 -80l-113 -778q-5 -36 -6 -53t1.5 -39 t14.5 -35t33 -23l-55 -117q-137 26 -145 170q-60 -83 -123 -126.5t-148 -43.5q-129 0 -204.5 101t-75.5 270q0 85 13 170.5t39.5 171t70 159.5t100 131t135 89.5t170.5 32.5zM602 967q-91 0 -162.5 -57t-112.5 -150t-62 -198.5t-21 -215.5q0 -237 147 -237q66 0 122 50 t118 144l90 641q-57 23 -119 23z" />
<glyph unicode="&#xe4;" horiz-adv-x="978" d="M477 1348q-40 0 -65 25t-25 65q0 49 33.5 81.5t77.5 32.5q40 0 65 -25t25 -63q0 -52 -32.5 -84t-78.5 -32zM825 1348q-40 0 -65 25t-25 65q0 49 33.5 81.5t77.5 32.5q41 0 65.5 -24.5t24.5 -63.5q0 -51 -32.5 -83.5t-78.5 -32.5zM604 1100q143 0 293 -80l-113 -778 q-5 -36 -6 -53t1.5 -39t14.5 -35t33 -23l-55 -117q-137 26 -145 170q-60 -83 -123 -126.5t-148 -43.5q-129 0 -204.5 101t-75.5 270q0 85 13 170.5t39.5 171t70 159.5t100 131t135 89.5t170.5 32.5zM602 967q-91 0 -162.5 -57t-112.5 -150t-62 -198.5t-21 -215.5 q0 -237 147 -237q66 0 122 50t118 144l90 641q-57 23 -119 23z" />
<glyph unicode="&#xe5;" horiz-adv-x="978" d="M682 1700q77 0 124.5 -52t47.5 -132q0 -101 -61 -165.5t-154 -64.5q-76 0 -124 52t-48 132q0 100 61.5 165t153.5 65zM676 1612q-48 0 -75.5 -39t-27.5 -100q0 -45 18.5 -72t53.5 -27q48 0 76.5 39.5t28.5 99.5q0 46 -19.5 72.5t-54.5 26.5zM604 1100q143 0 293 -80 l-113 -778q-5 -36 -6 -53t1.5 -39t14.5 -35t33 -23l-55 -117q-137 26 -145 170q-60 -83 -123 -126.5t-148 -43.5q-129 0 -204.5 101t-75.5 270q0 85 13 170.5t39.5 171t70 159.5t100 131t135 89.5t170.5 32.5zM602 967q-91 0 -162.5 -57t-112.5 -150t-62 -198.5t-21 -215.5 q0 -237 147 -237q66 0 122 50t118 144l90 641q-57 23 -119 23z" />
<glyph unicode="&#xe6;" horiz-adv-x="1406" d="M494 1100q99 0 161.5 -41.5t104.5 -124.5q129 166 327 166q135 0 209 -74.5t74 -187.5q0 -87 -32.5 -155t-86 -113.5t-135 -79t-165.5 -51.5t-191 -31q-2 -150 37.5 -220.5t134.5 -70.5q113 0 239 94l68 -107q-154 -129 -326 -129q-102 0 -174.5 47.5t-109.5 135.5 q-142 -183 -324 -183q-127 0 -197.5 75t-70.5 200q0 59 13 111.5t45.5 102t81.5 85t125.5 57t174.5 21.5h141q17 73 50 155q-18 86 -69.5 134.5t-131.5 48.5q-92 0 -236 -56l-26 125q151 66 289 66zM1077 967q-68 0 -122.5 -36.5t-90 -100.5t-58 -137t-34.5 -158 q225 28 328.5 93.5t103.5 202.5q0 136 -127 136zM600 512h-117q-270 0 -270 -262q0 -148 123 -148q65 0 125.5 45t132.5 146q-11 124 6 219z" />
<glyph unicode="&#xe7;" horiz-adv-x="802" d="M573 965q-70 0 -126.5 -39.5t-92 -101t-59.5 -143t-33.5 -160t-9.5 -156.5q0 -125 43.5 -186.5t122.5 -61.5q53 0 96.5 19t103.5 61l64 -109q-125 -104 -258 -113l-14 -100q69 -7 103 -46.5t34 -102.5q0 -86 -60.5 -147.5t-169.5 -61.5q-91 0 -153 51l55 86 q49 -29 98 -29q44 0 71.5 24.5t27.5 67.5q0 45 -29.5 63.5t-107.5 18.5l43 185q-115 28 -178.5 128.5t-63.5 258.5q0 100 17.5 200t56.5 196.5t95 169.5t140.5 118t185.5 45q150 0 256 -115l-90 -98q-41 40 -79.5 59t-88.5 19z" />
<glyph unicode="&#xe8;" horiz-adv-x="897" d="M831 1395l-55 -84l-332 176l84 131zM860 838q0 -87 -32.5 -155.5t-86 -114t-135 -78.5t-165.5 -51t-191 -31v-35q0 -137 45 -196.5t127 -59.5q114 0 240 94l69 -107q-157 -129 -325 -129q-155 0 -240.5 104.5t-85.5 289.5q0 84 12.5 168t38 167t67 154t95 125.5 t127.5 85.5t160 31q134 0 207 -74.5t73 -187.5zM567 967q-67 0 -121.5 -36.5t-90.5 -100.5t-59.5 -137t-35.5 -158q226 28 330 93.5t104 202.5q0 136 -127 136z" />
<glyph unicode="&#xe9;" horiz-adv-x="897" d="M829 1487l-376 -176l-47 86l354 225zM860 838q0 -87 -32.5 -155.5t-86 -114t-135 -78.5t-165.5 -51t-191 -31v-35q0 -137 45 -196.5t127 -59.5q114 0 240 94l69 -107q-157 -129 -325 -129q-155 0 -240.5 104.5t-85.5 289.5q0 84 12.5 168t38 167t67 154t95 125.5 t127.5 85.5t160 31q134 0 207 -74.5t73 -187.5zM567 967q-67 0 -121.5 -36.5t-90.5 -100.5t-59.5 -137t-35.5 -158q226 28 330 93.5t104 202.5q0 136 -127 136z" />
<glyph unicode="&#xea;" horiz-adv-x="897" d="M629 1477l-234 -166l-65 75l260 228h104l195 -236l-76 -67zM580 1100q134 0 207 -74.5t73 -187.5q0 -87 -32.5 -155.5t-86 -114t-135 -78.5t-165.5 -51t-191 -31v-35q0 -137 45 -196.5t127 -59.5q114 0 240 94l69 -107q-157 -129 -325 -129q-155 0 -240.5 104.5 t-85.5 289.5q0 84 12.5 168t38 167t67 154t95 125.5t127.5 85.5t160 31zM260 535q226 28 330 93.5t104 202.5q0 136 -127 136q-67 0 -121.5 -36.5t-90.5 -100.5t-59.5 -137t-35.5 -158z" />
<glyph unicode="&#xeb;" horiz-adv-x="897" d="M436 1348q-40 0 -65 25t-25 65q0 49 33.5 81.5t77.5 32.5q40 0 65 -25t25 -63q0 -52 -32.5 -84t-78.5 -32zM805 1552q41 0 65.5 -24.5t24.5 -63.5q0 -51 -32.5 -83.5t-78.5 -32.5q-40 0 -65 25t-25 65q0 49 33.5 81.5t77.5 32.5zM580 1100q134 0 207 -74.5t73 -187.5 q0 -87 -32.5 -155.5t-86 -114t-135 -78.5t-165.5 -51t-191 -31v-35q0 -137 45 -196.5t127 -59.5q114 0 240 94l69 -107q-157 -129 -325 -129q-155 0 -240.5 104.5t-85.5 289.5q0 84 12.5 168t38 167t67 154t95 125.5t127.5 85.5t160 31zM260 535q226 28 330 93.5t104 202.5 q0 136 -127 136q-67 0 -121.5 -36.5t-90.5 -100.5t-59.5 -137t-35.5 -158z" />
<glyph unicode="&#xec;" horiz-adv-x="468" d="M268 1618l303 -223l-55 -84l-332 176zM393 1077l-151 -1077h-164l151 1077h164z" />
<glyph unicode="&#xed;" horiz-adv-x="468" d="M500 1622l69 -135l-376 -176l-48 86zM393 1077l-151 -1077h-164l151 1077h164z" />
<glyph unicode="&#xee;" horiz-adv-x="468" d="M135 1311l-65 75l260 228h104l195 -236l-76 -67l-184 166zM393 1077l-151 -1077h-164l151 1077h164z" />
<glyph unicode="&#xef;" horiz-adv-x="468" d="M176 1348q-40 0 -65 25t-25 65q0 49 33.5 81.5t77.5 32.5q40 0 65 -25t25 -63q0 -52 -32.5 -84t-78.5 -32zM524 1348q-40 0 -65 25t-25 65q0 49 33.5 81.5t77.5 32.5q41 0 65.5 -24.5t24.5 -63.5q0 -51 -32.5 -83.5t-78.5 -32.5zM393 1077l-151 -1077h-164l151 1077h164z " />
<glyph unicode="&#xf0;" horiz-adv-x="991" d="M707 1352q97 -92 141.5 -208.5t44.5 -299.5q0 -130 -18.5 -254t-58.5 -236t-97 -196t-139.5 -133.5t-180.5 -49.5q-153 0 -238 100.5t-85 282.5q0 111 29.5 219t82.5 196t135 142t179 54q148 0 231 -129q1 152 -26.5 238t-102.5 171l-135 -135l-100 55l151 158 q-82 59 -174 82l51 121q117 -30 219 -103l154 152l76 -86zM403 109q49 0 90.5 21.5t72.5 61.5t55.5 90t43 116t31 129.5t23.5 138.5q-62 172 -199 172q-74 0 -130 -44t-87 -116.5t-46 -153t-15 -166.5q0 -249 161 -249z" />
<glyph unicode="&#xf1;" horiz-adv-x="974" d="M715 1350q-32 0 -62 15.5t-49.5 33.5t-43 33.5t-42.5 15.5q-25 0 -47 -21t-53 -67l-86 51q92 164 192 164q32 0 61.5 -15.5t48 -33.5t41.5 -33.5t44 -15.5q24 0 45.5 20.5t52.5 67.5l88 -52q-85 -163 -190 -163zM655 1102q112 0 171.5 -89t39.5 -235l-110 -778h-164 l108 776q22 187 -90 187q-125 0 -276 -299l-92 -664h-164l151 1077h140l-19 -207q69 113 141 172.5t164 59.5z" />
<glyph unicode="&#xf2;" horiz-adv-x="980" d="M532 1618l304 -223l-56 -84l-331 176zM408 -25q-156 0 -242 107.5t-86 292.5q0 78 12 159t36 163.5t65 154t93.5 127.5t127 88.5t161.5 32.5q157 0 241.5 -105.5t84.5 -292.5q0 -77 -11.5 -157t-35 -163t-63.5 -155t-92.5 -129t-127.5 -90t-163 -33zM414 111q71 0 128 42 t91.5 107t58 148.5t32.5 160t9 148.5q0 124 -42.5 186t-121.5 62q-72 0 -129 -42t-91.5 -106.5t-57.5 -148t-32 -159.5t-9 -149q0 -249 164 -249z" />
<glyph unicode="&#xf3;" horiz-adv-x="980" d="M764 1622l70 -135l-377 -176l-47 86zM408 -25q-156 0 -242 107.5t-86 292.5q0 78 12 159t36 163.5t65 154t93.5 127.5t127 88.5t161.5 32.5q157 0 241.5 -105.5t84.5 -292.5q0 -77 -11.5 -157t-35 -163t-63.5 -155t-92.5 -129t-127.5 -90t-163 -33zM414 111q71 0 128 42 t91.5 107t58 148.5t32.5 160t9 148.5q0 124 -42.5 186t-121.5 62q-72 0 -129 -42t-91.5 -106.5t-57.5 -148t-32 -159.5t-9 -149q0 -249 164 -249z" />
<glyph unicode="&#xf4;" horiz-adv-x="980" d="M399 1311l-65 75l260 228h104l195 -236l-76 -67l-184 166zM408 -25q-156 0 -242 107.5t-86 292.5q0 78 12 159t36 163.5t65 154t93.5 127.5t127 88.5t161.5 32.5q157 0 241.5 -105.5t84.5 -292.5q0 -77 -11.5 -157t-35 -163t-63.5 -155t-92.5 -129t-127.5 -90t-163 -33z M414 111q71 0 128 42t91.5 107t58 148.5t32.5 160t9 148.5q0 124 -42.5 186t-121.5 62q-72 0 -129 -42t-91.5 -106.5t-57.5 -148t-32 -159.5t-9 -149q0 -249 164 -249z" />
<glyph unicode="&#xf5;" horiz-adv-x="980" d="M723 1350q-32 0 -62 15.5t-49.5 33.5t-43 33.5t-42.5 15.5q-25 0 -47 -21t-53 -67l-86 51q92 164 192 164q32 0 61.5 -15.5t48 -33.5t41.5 -33.5t44 -15.5q24 0 45.5 20.5t52.5 67.5l88 -52q-85 -163 -190 -163zM408 -25q-156 0 -242 107.5t-86 292.5q0 78 12 159 t36 163.5t65 154t93.5 127.5t127 88.5t161.5 32.5q157 0 241.5 -105.5t84.5 -292.5q0 -77 -11.5 -157t-35 -163t-63.5 -155t-92.5 -129t-127.5 -90t-163 -33zM414 111q71 0 128 42t91.5 107t58 148.5t32.5 160t9 148.5q0 124 -42.5 186t-121.5 62q-72 0 -129 -42 t-91.5 -106.5t-57.5 -148t-32 -159.5t-9 -149q0 -249 164 -249z" />
<glyph unicode="&#xf6;" horiz-adv-x="980" d="M440 1348q-40 0 -65 25t-25 65q0 49 33.5 81.5t77.5 32.5q40 0 65 -25t25 -63q0 -52 -32.5 -84t-78.5 -32zM788 1348q-40 0 -65 25t-25 65q0 49 33.5 81.5t77.5 32.5q41 0 65.5 -24.5t24.5 -63.5q0 -51 -32.5 -83.5t-78.5 -32.5zM408 -25q-156 0 -242 107.5t-86 292.5 q0 78 12 159t36 163.5t65 154t93.5 127.5t127 88.5t161.5 32.5q157 0 241.5 -105.5t84.5 -292.5q0 -77 -11.5 -157t-35 -163t-63.5 -155t-92.5 -129t-127.5 -90t-163 -33zM414 111q71 0 128 42t91.5 107t58 148.5t32.5 160t9 148.5q0 124 -42.5 186t-121.5 62 q-72 0 -129 -42t-91.5 -106.5t-57.5 -148t-32 -159.5t-9 -149q0 -249 164 -249z" />
<glyph unicode="&#xf7;" horiz-adv-x="860" d="M508 1012q-52 0 -82.5 32t-30.5 80q0 57 37.5 98.5t95.5 41.5q52 0 82.5 -32t30.5 -81q0 -56 -37.5 -97.5t-95.5 -41.5zM123 610l18 140h635l-18 -140h-635zM381 90q-52 0 -82.5 32.5t-30.5 80.5q0 57 37.5 98t95.5 41q52 0 82.5 -32t30.5 -81q0 -56 -37.5 -97.5 t-95.5 -41.5z" />
<glyph unicode="&#xf8;" horiz-adv-x="980" d="M770 1036q131 -104 131 -334q0 -77 -11.5 -157t-35 -163t-63.5 -155t-92.5 -129t-127.5 -90t-163 -33q-42 0 -76 9l-99 -246l-124 39l106 260q-65 51 -100 139t-35 199q0 78 12 159t36 163.5t65 154t93.5 127.5t127 88.5t161.5 32.5q46 0 82 -8l97 245l125 -39zM569 965 q-72 0 -129 -42t-91.5 -106.5t-57.5 -148t-32 -159.5t-9 -149q0 -144 47 -200l2 2l311 799q-24 4 -41 4zM414 111q71 0 128 42t91.5 107t58 148.5t32.5 160t9 148.5q0 135 -45 196l-309 -796l-2 -4q12 -2 37 -2z" />
<glyph unicode="&#xf9;" horiz-adv-x="966" d="M512 1618l303 -223l-55 -84l-332 176zM324 -25q-112 0 -173.5 83.5t-41.5 220.5l110 798h164l-113 -813q-12 -76 10.5 -117t71.5 -41q128 0 273 261l102 710h164l-152 -1077h-139l16 195q-68 -108 -133 -164t-159 -56z" />
<glyph unicode="&#xfa;" horiz-adv-x="966" d="M743 1622l70 -135l-377 -176l-47 86zM324 -25q-112 0 -173.5 83.5t-41.5 220.5l110 798h164l-113 -813q-12 -76 10.5 -117t71.5 -41q128 0 273 261l102 710h164l-152 -1077h-139l16 195q-68 -108 -133 -164t-159 -56z" />
<glyph unicode="&#xfb;" horiz-adv-x="966" d="M379 1311l-66 75l260 228h105l194 -236l-75 -67l-185 166zM324 -25q-112 0 -173.5 83.5t-41.5 220.5l110 798h164l-113 -813q-12 -76 10.5 -117t71.5 -41q128 0 273 261l102 710h164l-152 -1077h-139l16 195q-68 -108 -133 -164t-159 -56z" />
<glyph unicode="&#xfc;" horiz-adv-x="966" d="M420 1348q-40 0 -65 25t-25 65q0 49 33 81.5t77 32.5q40 0 65 -25t25 -63q0 -52 -32 -84t-78 -32zM768 1348q-40 0 -65 25t-25 65q0 49 33 81.5t77 32.5q41 0 66 -24.5t25 -63.5q0 -51 -32.5 -83.5t-78.5 -32.5zM324 -25q-112 0 -173.5 83.5t-41.5 220.5l110 798h164 l-113 -813q-12 -76 10.5 -117t71.5 -41q128 0 273 261l102 710h164l-152 -1077h-139l16 195q-68 -108 -133 -164t-159 -56z" />
<glyph unicode="&#xfd;" horiz-adv-x="837" d="M682 1622l70 -135l-377 -176l-47 86zM891 1077l-438 -1087q-84 -208 -189 -299.5t-291 -120.5l-4 123q137 33 203.5 95.5t126.5 211.5h-61l-140 1077h172l90 -952l359 952h172z" />
<glyph unicode="&#xfe;" horiz-adv-x="993" d="M645 1100q125 0 197.5 -95.5t72.5 -271.5q0 -105 -16 -207.5t-54 -203.5t-94 -177t-143 -123t-194 -47q-93 0 -170 39l-60 -428l-168 -24l275 1949l166 21l-80 -574q123 142 268 142zM414 109q70 0 128 40t95.5 103.5t63 147.5t36.5 167.5t11 167.5q0 232 -144 232 q-62 0 -127.5 -45t-122.5 -117l-92 -666q74 -30 152 -30z" />
<glyph unicode="&#xff;" horiz-adv-x="837" d="M358 1348q-40 0 -65 25t-25 65q0 49 33.5 81.5t77.5 32.5q40 0 65 -25t25 -63q0 -52 -32.5 -84t-78.5 -32zM707 1348q-40 0 -65.5 25t-25.5 65q0 49 33.5 81.5t77.5 32.5q41 0 65.5 -24.5t24.5 -63.5q0 -51 -32 -83.5t-78 -32.5zM891 1077l-438 -1087 q-84 -208 -189 -299.5t-291 -120.5l-4 123q137 33 203.5 95.5t126.5 211.5h-61l-140 1077h172l90 -952l359 952h172z" />
<glyph unicode="&#x152;" horiz-adv-x="1490" d="M1522 1409l-39 -137h-502q96 -122 96 -350q0 -66 -6 -134h289l-21 -137h-286q-61 -334 -236 -512h541l-23 -139h-717q-64 -25 -135 -25q-176 0 -278.5 133t-102.5 373q0 101 14.5 207t44 214t78 202.5t111.5 168t151.5 116.5t190.5 43q64 0 125 -23h705zM492 119 q91 0 164 57t118 145t75 201t42 216.5t12 199.5q0 354 -215 354q-88 0 -161 -56.5t-118 -144t-76.5 -199t-44 -215.5t-12.5 -200q0 -184 57.5 -271t158.5 -87z" />
<glyph unicode="&#x153;" horiz-adv-x="1511" d="M1475 838q0 -87 -33 -155.5t-86.5 -114t-135 -78.5t-165.5 -51t-191 -31v-35q0 -137 45 -196.5t127 -59.5q114 0 240 94l70 -107q-157 -129 -326 -129q-211 0 -272 211q-120 -211 -340 -211q-156 0 -242 107.5t-86 292.5q0 78 12 159t36 163.5t65 154t93.5 127.5 t127 88.5t161.5 32.5q215 0 283 -207q121 207 336 207q134 0 207.5 -74.5t73.5 -187.5zM1182 967q-69 0 -124 -35t-91.5 -97t-60 -137.5t-34.5 -165.5q228 29 332.5 95.5t104.5 203.5q0 136 -127 136zM414 111q71 0 128 42t91.5 107t58 148.5t32.5 160t9 148.5 q0 124 -42.5 186t-121.5 62q-72 0 -129 -42t-91.5 -106.5t-57.5 -148t-32 -159.5t-9 -149q0 -249 164 -249z" />
<glyph unicode="&#x178;" horiz-adv-x="919" d="M434 1606q-40 0 -65 25t-25 65q0 49 33.5 81.5t77.5 32.5q40 0 65 -25t25 -63q0 -52 -32.5 -84t-78.5 -32zM782 1606q-40 0 -65 25t-25 65q0 49 33.5 81.5t77.5 32.5q41 0 65.5 -24.5t24.5 -63.5q0 -51 -32.5 -83.5t-78.5 -32.5zM1034 1409l-489 -866l-76 -543h-172 l76 543l-244 866h178l170 -717l371 717h186z" />
<glyph unicode="&#x2c6;" horiz-adv-x="681" d="M246 1311l-66 75l260 228h105l194 -236l-75 -67l-185 166z" />
<glyph unicode="&#x2dc;" horiz-adv-x="681" d="M567 1350q-40 0 -76.5 24.5t-66 49t-53.5 24.5q-25 0 -47.5 -21.5t-53.5 -66.5l-86 51q92 164 193 164q32 0 61 -15.5t47.5 -33.5t41.5 -33.5t44 -15.5q24 0 46 21t53 67l88 -52q-85 -163 -191 -163z" />
<glyph unicode="&#x2000;" horiz-adv-x="979" />
<glyph unicode="&#x2001;" horiz-adv-x="1958" />
<glyph unicode="&#x2002;" horiz-adv-x="979" />
<glyph unicode="&#x2003;" horiz-adv-x="1958" />
<glyph unicode="&#x2004;" horiz-adv-x="652" />
<glyph unicode="&#x2005;" horiz-adv-x="489" />
<glyph unicode="&#x2006;" horiz-adv-x="326" />
<glyph unicode="&#x2007;" horiz-adv-x="326" />
<glyph unicode="&#x2008;" horiz-adv-x="244" />
<glyph unicode="&#x2009;" horiz-adv-x="391" />
<glyph unicode="&#x200a;" horiz-adv-x="108" />
<glyph unicode="&#x2010;" horiz-adv-x="688" d="M111 571l18 140h477l-18 -140h-477z" />
<glyph unicode="&#x2011;" horiz-adv-x="688" d="M111 571l18 140h477l-18 -140h-477z" />
<glyph unicode="&#x2012;" horiz-adv-x="688" d="M111 571l18 140h477l-18 -140h-477z" />
<glyph unicode="&#x2013;" horiz-adv-x="884" d="M68 571l18 140h760l-19 -140h-759z" />
<glyph unicode="&#x2014;" horiz-adv-x="1333" d="M68 571l20 140h1204l-18 -140h-1206z" />
<glyph unicode="&#x2018;" horiz-adv-x="407" d="M272 1030q-44 0 -70 26.5t-26 69.5q0 31 10.5 59.5t40.5 84.5l142 264h98l-115 -299q37 -27 37 -82q0 -53 -31.5 -88t-85.5 -35z" />
<glyph unicode="&#x2019;" horiz-adv-x="407" d="M344 1532q44 0 70 -26.5t26 -69.5q0 -31 -10.5 -59.5t-40.5 -84.5l-141 -264h-98l114 299q-37 27 -37 82q0 53 31.5 88t85.5 35z" />
<glyph unicode="&#x201a;" horiz-adv-x="407" d="M156 197q44 0 70 -27t26 -70q0 -30 -10.5 -58t-40.5 -85l-142 -264h-98l115 299q-37 27 -37 82q0 53 31.5 88t85.5 35z" />
<glyph unicode="&#x201c;" horiz-adv-x="759" d="M274 1030q-44 0 -70 26.5t-26 69.5q0 31 10.5 59.5t40.5 84.5l142 264h98l-115 -299q37 -27 37 -82q0 -53 -31.5 -88t-85.5 -35zM627 1030q-44 0 -70.5 26.5t-26.5 69.5q0 30 10.5 58t41.5 86l141 264h98l-114 -299q36 -27 36 -82q0 -53 -31 -88t-85 -35z" />
<glyph unicode="&#x201d;" horiz-adv-x="759" d="M344 1532q44 0 70 -26.5t26 -69.5q0 -31 -10.5 -59.5t-40.5 -84.5l-141 -264h-98l114 299q-37 27 -37 82q0 53 31.5 88t85.5 35zM696 1532q44 0 70.5 -26.5t26.5 -69.5q0 -30 -10.5 -58t-41.5 -86l-141 -264h-98l114 299q-36 27 -36 82q0 53 31 88t85 35z" />
<glyph unicode="&#x201e;" horiz-adv-x="759" d="M156 197q44 0 70 -27t26 -70q0 -30 -10.5 -58t-40.5 -85l-142 -264h-98l115 299q-37 27 -37 82q0 53 31.5 88t85.5 35zM508 197q44 0 70 -27t26 -70q0 -30 -10.5 -58t-40.5 -85l-141 -264h-99l115 299q-37 27 -37 82q0 53 31.5 88t85.5 35z" />
<glyph unicode="&#x2022;" horiz-adv-x="595" d="M340 907q82 0 131 -50.5t49 -129.5q0 -98 -62.5 -163.5t-156.5 -65.5q-81 0 -130.5 50.5t-49.5 129.5q0 98 63 163.5t156 65.5z" />
<glyph unicode="&#x2026;" horiz-adv-x="1243" d="M135 -25q-52 0 -82 32.5t-30 80.5q0 57 37.5 98t95.5 41q52 0 82 -31.5t30 -80.5q0 -56 -37.5 -98t-95.5 -42zM549 -25q-52 0 -82.5 32.5t-30.5 80.5q0 57 37.5 98t95.5 41q53 0 83 -31.5t30 -80.5q0 -56 -37.5 -98t-95.5 -42zM963 -25q-52 0 -82.5 32.5t-30.5 80.5 q0 57 37.5 98t95.5 41q53 0 83 -31.5t30 -80.5q0 -56 -37.5 -98t-95.5 -42z" />
<glyph unicode="&#x202f;" horiz-adv-x="391" />
<glyph unicode="&#x2039;" horiz-adv-x="595" d="M465 1085l96 -67l-287 -434l166 -424l-106 -68l-232 438l17 115z" />
<glyph unicode="&#x203a;" horiz-adv-x="595" d="M276 1085l234 -440l-16 -115l-351 -438l-94 68l289 432l-168 426z" />
<glyph unicode="&#x205f;" horiz-adv-x="489" />
<glyph unicode="&#x20ac;" horiz-adv-x="991" d="M774 1251q-107 0 -195 -87t-143 -263h426l-43 -115h-411l-35 -192h379l-41 -115h-355q-10 -192 43 -277t174 -85q67 0 126 22.5t128 63.5l-24 -152q-139 -76 -262 -76q-176 0 -268 130t-83 374h-145l41 115h119l33 192h-140l43 115h123q77 237 214 362.5t306 125.5 q163 0 281 -115l-80 -113q-50 48 -98.5 69t-112.5 21z" />
<glyph unicode="&#x2122;" horiz-adv-x="1488" d="M743 1409l-36 -117h-199l-94 -682h-131l94 682h-207l16 117h557zM1452 1409l-84 -799h-127l45 428q5 52 35 238l-229 -580h-113l-84 582q-4 -43 -33 -248l-69 -420h-121l139 799h172l70 -573l219 573h180z" />
<glyph unicode="&#x25fc;" horiz-adv-x="1075" d="M0 1075h1075v-1075h-1075v1075z" />
<glyph unicode="&#xfb03;" horiz-adv-x="1468" d="M1393 1077l-152 -1077h-164l133 946h-327l-125 -913q-14 -96 -37 -164.5t-59 -117t-77 -80t-102 -62.5l-59 115q74 44 113.5 113.5t58.5 213.5l123 895h-316l-129 -913q-13 -88 -35 -154.5t-48.5 -111t-70.5 -81.5t-85.5 -60.5t-108.5 -55.5l-41 125q42 21 69 38t55 44.5 t46 62.5t33 87.5t25 123.5l129 895h-154l21 131h151l21 142q19 135 106 213.5t227 78.5q126 0 238 -73q91 94 242 94q129 0 256 -90l-68 -107q-92 62 -180 62q-82 0 -125 -41.5t-55 -126.5l-21 -152h492zM737 1077l23 162q6 49 24 90q-83 47 -159 47q-85 0 -129.5 -41.5 t-55.5 -126.5l-18 -131h315z" />
<glyph unicode="&#xfb04;" horiz-adv-x="1513" d="M1321 115q24 0 57 10l27 -115q-60 -35 -129 -35q-85 0 -129 61t-31 163l162 1157q-93 41 -184 41q-77 0 -118.5 -41.5t-53.5 -126.5l-21 -152h207l-37 -131h-188l-125 -913q-14 -96 -36.5 -164.5t-59.5 -116.5t-77 -79t-102 -64l-59 115q74 44 113.5 113.5t58.5 213.5 l123 895h-316l-129 -913q-13 -88 -35 -154.5t-48.5 -111t-70.5 -81.5t-85.5 -60.5t-108.5 -55.5l-41 125q42 21 69 38t55 44.5t46 62.5t33 87.5t25 123.5l129 895h-154l21 131h151l21 142q19 135 106 213.5t227 78.5q124 0 236 -73q91 94 240 94q124 0 227 -47l145 16 l-184 -1311q-11 -75 43 -75zM737 1077l23 162q6 49 24 90q-83 47 -159 47q-85 0 -129.5 -41.5t-55.5 -126.5l-18 -131h315z" />
</font>
</defs>
</svg>
