<?xml version="1.0" standalone="no"?>
<!DOCTYPE svg PUBLIC "-//W3C//DTD SVG 1.1//EN" "http://www.w3.org/Graphics/SVG/1.1/DTD/svg11.dtd" >
<svg xmlns="http://www.w3.org/2000/svg" xmlns:xlink="http://www.w3.org/1999/xlink" version="1.1">
<metadata></metadata>
<defs>
<font id="fira_sans_compressedfourIt" horiz-adv-x="919" >
<font-face units-per-em="2048" ascent="1638" descent="-410" />
<missing-glyph horiz-adv-x="518" />
<glyph unicode="&#xfb01;" horiz-adv-x="917" d="M784 1059l-148 -1059h-8l147 1052h-469l-151 -1069q-16 -113 -44 -183t-67 -110t-110 -82l-3 5q68 40 106.5 80.5t66 109.5t43.5 180l151 1069h-156l1 7h156l29 207q17 115 78.5 175.5t156.5 60.5q62 0 109 -19t97 -59l-6 -5q-49 39 -94 57t-106 18q-92 0 -151.5 -58 t-75.5 -171l-29 -206h477z" />
<glyph unicode="&#xfb02;" horiz-adv-x="980" d="M743 -11q36 0 72 17l3 -8q-39 -17 -75 -17q-52 0 -74.5 35t-12.5 97l188 1317q-139 64 -264 64q-100 0 -164 -58t-80 -171l-29 -206h250l-1 -7h-250l-151 -1069q-16 -113 -44 -183t-67 -110t-110 -82l-3 5q68 40 106.5 80.5t66 109.5t43.5 180l151 1069h-156l1 7h156 l29 207q17 115 83 175.5t169 60.5q126 0 266 -67l7 1l-188 -1323q-16 -124 78 -124z" />
<glyph horiz-adv-x="0" />
<glyph horiz-adv-x="682" />
<glyph unicode="&#xd;" horiz-adv-x="518" />
<glyph unicode=" "  horiz-adv-x="518" />
<glyph unicode="&#x09;" horiz-adv-x="518" />
<glyph unicode="&#xa0;" horiz-adv-x="518" />
<glyph unicode="!" horiz-adv-x="432" d="M191 388l139 1005h8l-139 -1005h-8zM142 -9q-17 0 -17 17q0 18 17 18q18 0 18 -17q0 -7 -5 -12.5t-13 -5.5z" />
<glyph unicode="&#x22;" horiz-adv-x="610" d="M218 912l65 481h9l-67 -481h-7zM493 912l66 481h8l-67 -481h-7z" />
<glyph unicode="#" horiz-adv-x="806" d="M841 953h-145l-126 -510h140l-4 -8h-137l-108 -435h-8l107 435h-384l-108 -435h-8l108 435h-156l4 8h154l126 510h-149l1 8h150l98 395h8l-98 -395h384l97 395h8l-97 -395h144zM562 443l126 510h-384l-126 -510h384z" />
<glyph unicode="$" horiz-adv-x="888" d="M595 1370q83 -2 142.5 -35t109.5 -93l-5 -6q-105 127 -259 127q-81 0 -147 -30.5t-106 -80.5t-61.5 -110.5t-21.5 -123.5q0 -97 54 -160t186 -121q126 -56 186.5 -134.5t60.5 -197.5q0 -61 -13 -118.5t-42.5 -113.5t-73.5 -97.5t-112 -67.5t-151 -27l-39 -276h-8l39 276 q-92 1 -166 42.5t-124 114.5l5 6q105 -155 288 -155q83 0 150.5 25t111 66.5t73 96.5t42 111.5t12.5 116.5q0 116 -59 192.5t-184 131.5q-132 59 -188 124t-56 164q0 65 22 126.5t63 113t108.5 82.5t150.5 31h4l39 280h8z" />
<glyph unicode="%" horiz-adv-x="1304" d="M1170 1414l-990 -1431l7 -3l990 1432zM384 749q-81 0 -125.5 60.5t-44.5 165.5q0 62 15 127.5t44.5 128t84 102.5t124.5 40q80 0 124 -57.5t44 -163.5q0 -62 -15 -129t-45 -130t-84 -103.5t-122 -40.5zM384 756q67 0 119.5 40t81 102.5t43 127.5t14.5 126 q0 103 -41.5 158t-118.5 55q-68 0 -121 -39.5t-82 -101t-43 -125.5t-14 -124q0 -102 42 -160.5t120 -58.5zM865 -19q-81 0 -125.5 61t-44.5 166q0 62 15 127.5t44.5 128t84 102.5t124.5 40q80 0 124 -57.5t44 -163.5q0 -62 -15 -129t-45 -130.5t-84 -104t-122 -40.5z M865 -11q67 0 119.5 40t81 102.5t43 127.5t14.5 126q0 103 -41.5 158t-118.5 55q-68 0 -121 -39.5t-82 -101t-43 -125.5t-14 -124q0 -102 42 -160.5t120 -58.5z" />
<glyph unicode="&#x26;" horiz-adv-x="1234" d="M673 1415q91 0 149 -63t58 -163q0 -135 -73.5 -228.5t-283.5 -221.5l340 -497q45 67 83.5 149t57.5 135t53 158l8 -1q-36 -109 -55 -162t-58 -134.5t-84 -148.5l162 -237l-7 -4l-162 235q-170 -251 -393 -251q-130 0 -203.5 82.5t-73.5 210.5q0 53 6.5 95.5t26.5 91.5 t54 92.5t92.5 91.5t138.5 95q-121 172 -121 327q0 64 17 124.5t50.5 111.5t90 81.5t127.5 30.5zM673 1408q-70 0 -124.5 -30t-86.5 -80t-48.5 -109t-16.5 -122q0 -156 119 -323q148 90 225 160t104 133t27 152q0 97 -56 158t-143 61zM515 736q-100 -59 -165.5 -117 t-96.5 -117t-42 -110t-11 -118q0 -125 71 -205t197 -80q219 0 389 248z" />
<glyph unicode="'" horiz-adv-x="335" d="M218 912l65 481h9l-67 -481h-7z" />
<glyph unicode="(" horiz-adv-x="552" d="M576 1691l5 -4q-115 -165 -191.5 -300t-134.5 -286t-84 -313t-26 -353q0 -104 12 -196t39.5 -182.5t50 -150t64.5 -159.5l-7 -4q-42 98 -65 159.5t-50.5 152t-39.5 183.5t-12 197q0 193 26.5 355.5t85 314t135 286.5t192.5 300z" />
<glyph unicode=")" horiz-adv-x="548" d="M300 1690q42 -99 65 -160t49.5 -151t38 -183t11.5 -199q0 -190 -27 -352.5t-85.5 -314t-134 -287t-190.5 -300.5l-6 4q154 222 243.5 398.5t140.5 389t51 462.5q0 137 -25 267t-54 211.5t-84 211.5z" />
<glyph unicode="*" horiz-adv-x="745" d="M736 1255l-269 -100l122 -264l-8 -4l-120 264l-194 -264l-7 4l195 264l-242 100l3 8l242 -101l46 328h9l-48 -328l270 100z" />
<glyph unicode="+" horiz-adv-x="831" d="M486 1001l-45 -319h256l-1 -8h-256l-46 -319h-9l47 319h-258l1 8h258l45 319h8z" />
<glyph unicode="," horiz-adv-x="233" d="M44 26q17 0 17 -17q0 -6 -8 -24l-92 -213h-9l87 219q-13 4 -13 17q0 8 5 13t13 5z" />
<glyph unicode="-" horiz-adv-x="675" d="M158 635v8h390v-8h-390z" />
<glyph unicode="." horiz-adv-x="233" d="M43 -9q-17 0 -17 17q0 8 5 13t13 5q17 0 17 -17q0 -7 -5.5 -12.5t-12.5 -5.5z" />
<glyph unicode="/" horiz-adv-x="901" d="M795 1627l7 -3l-643 -1813l-7 3z" />
<glyph unicode="0" horiz-adv-x="950" d="M616 1373q-94 0 -173.5 -64t-133.5 -168.5t-92 -239t-55 -273.5t-17 -274q0 -373 227 -373q93 0 172.5 62.5t134 165.5t93 236t56.5 272.5t18 276.5q0 379 -230 379zM616 1365q221 0 221 -371q0 -136 -18 -274.5t-56 -270t-91.5 -233.5t-131 -164t-168.5 -63 q-219 0 -219 365q0 134 17 272t54.5 271.5t90 237t131 167t170.5 63.5z" />
<glyph unicode="1" horiz-adv-x="663" d="M523 1352l-188 -1352h-8l187 1343l-336 -238l-3 7l341 240h7z" />
<glyph unicode="2" horiz-adv-x="778" d="M472 1373q116 0 178.5 -74t64.5 -196q1 -61 -7 -110.5t-38 -117t-74.5 -136t-129.5 -180t-189 -236t-267 -315.5h570l-4 -8h-578l1 8q164 192 271 320.5t191.5 239t129 180t73 135.5t36.5 113.5t7 106.5q-2 119 -62.5 190.5t-173.5 71.5q-86 0 -156 -41t-143 -124l-7 4 q76 85 148 127t159 42z" />
<glyph unicode="3" horiz-adv-x="800" d="M495 1373q107 0 166 -69t59 -183q0 -157 -81 -272t-225 -126q102 -9 160 -78.5t58 -199.5q0 -61 -13 -123.5t-43 -124.5t-73.5 -109.5t-109 -77t-144.5 -29.5q-95 0 -158.5 39.5t-112.5 127.5l7 4q49 -87 110.5 -125t153.5 -38q78 0 142.5 29.5t106.5 76.5t71.5 108 t42 122t12.5 120q0 134 -65 204t-181 70h-58l1 8h62q80 0 144.5 34.5t104 91.5t60 125.5t20.5 142.5q0 110 -56.5 177t-160.5 67q-150 0 -290 -143l-6 5q143 146 296 146z" />
<glyph unicode="4" horiz-adv-x="833" d="M748 407l-3 -7h-158l-56 -400h-8l56 400h-506l2 9l483 964l7 -4l-481 -962h496l64 449h8l-64 -449h160z" />
<glyph unicode="5" horiz-adv-x="790" d="M765 1352l-2 -8h-478l-85 -600q114 95 238 95q113 0 174 -76t61 -210q0 -60 -9 -121.5t-27.5 -127t-51 -122.5t-76 -102.5t-107 -72t-138.5 -26.5q-83 0 -147 39.5t-102 109.5l8 4q35 -68 98 -106.5t143 -38.5q88 0 159 37.5t115 96.5t73.5 136t41 150t11.5 144 q0 132 -59 205t-168 73q-123 0 -236 -95h-9l86 616h487z" />
<glyph unicode="6" horiz-adv-x="880" d="M664 1373q103 0 162 -74l-7 -5q-56 71 -155 71q-116 0 -219.5 -105.5t-174.5 -278.5t-104 -384q179 270 373 270q104 0 162.5 -72.5t58.5 -211.5q0 -73 -11.5 -150.5t-40 -159.5t-70 -146t-107.5 -105t-147 -41q-126 0 -185.5 101.5t-59.5 274.5q0 164 38 340.5 t103.5 328t167 249.5t216.5 98zM539 859q-193 0 -375 -275q-17 -104 -17 -227q0 -171 57 -269.5t180 -98.5q80 0 145 41t105.5 104t68 144.5t38.5 157.5t11 147q0 136 -56 206t-157 70z" />
<glyph unicode="7" horiz-adv-x="731" d="M767 1352v-7l-666 -1355l-8 3l665 1351h-565v8h574z" />
<glyph unicode="8" horiz-adv-x="909" d="M553 695q111 -61 158 -125.5t47 -168.5q0 -181 -110 -300.5t-276 -119.5q-130 0 -201.5 76t-71.5 207q0 71 14 131t49.5 123.5t105 121.5t170.5 107q-88 47 -125.5 107t-37.5 153q0 159 100 262.5t231 103.5q103 0 167 -67.5t64 -189.5q0 -126 -60 -222.5t-224 -198.5z M283 1007q0 -98 41 -156t134 -106l88 -46q165 100 224 196.5t59 220.5q0 119 -61.5 184t-161.5 65q-129 0 -226 -101t-97 -257zM372 -11q162 0 269.5 117t107.5 295q0 78 -27.5 133t-75.5 92.5t-137 83.5l-63 33q-71 -34 -127 -73t-92 -79.5t-60.5 -80t-37 -83.5t-17.5 -82 t-5 -82q0 -128 69 -201t196 -73z" />
<glyph unicode="9" horiz-adv-x="866" d="M541 1373q244 0 244 -332q0 -86 -7 -165.5t-27 -171.5t-51.5 -174t-84 -166t-121.5 -153t-167 -130.5t-217 -103.5l-3 7q554 193 652 803q-74 -125 -166.5 -189.5t-191.5 -64.5q-112 0 -174 79t-62 224q0 89 24 181t68.5 173t119 132t164.5 51zM401 541q99 0 192.5 66.5 t166.5 194.5q16 109 16 239q0 324 -235 324q-72 0 -133.5 -33.5t-104 -88t-72.5 -124t-44 -142t-14 -141.5q0 -142 60 -218.5t168 -76.5z" />
<glyph unicode=":" horiz-adv-x="233" d="M166 867q-18 0 -18 17q0 8 5 13t13 5q18 0 18 -17q0 -7 -5 -12.5t-13 -5.5zM43 -9q-17 0 -17 17q0 8 5 13t13 5q17 0 17 -17q0 -7 -5.5 -12.5t-12.5 -5.5z" />
<glyph unicode=";" horiz-adv-x="233" d="M166 867q-18 0 -18 17q0 8 5 13t13 5q18 0 18 -17q0 -7 -5 -12.5t-13 -5.5zM44 26q17 0 17 -17q0 -6 -8 -24l-92 -213h-9l87 219q-13 4 -13 17q0 8 5 13t13 5z" />
<glyph unicode="&#x3c;" horiz-adv-x="856" d="M759 1001l3 -8l-572 -312l482 -319l-4 -7l-486 323v7z" />
<glyph unicode="=" horiz-adv-x="833" d="M199 828l1 8h522l-1 -8h-522zM154 519v9h522v-9h-522z" />
<glyph unicode="&#x3e;" horiz-adv-x="858" d="M232 1001l487 -316v-7l-578 -323l-4 7l574 320l-484 311z" />
<glyph unicode="?" horiz-adv-x="907" d="M520 1413q105 0 158 -63t53 -165q0 -74 -21.5 -134t-56 -100.5t-76 -75t-83.5 -66.5t-77 -66.5t-57 -84.5t-23 -111q0 -50 14 -117l-7 -1q-15 73 -15 118q1 62 23 112.5t57 85.5t77 67.5t83.5 66.5t76 74t56 99t21.5 133q0 99 -51 160t-152 61q-79 0 -142 -37.5 t-137 -120.5l-7 4q74 84 140 122.5t146 38.5zM317 -11q-17 0 -17 17q0 18 17 18q18 0 18 -17q0 -7 -5.5 -12.5t-12.5 -5.5z" />
<glyph unicode="@" horiz-adv-x="1757" d="M1052 1415q134 0 238 -48t168.5 -132.5t97.5 -195.5t33 -243q0 -94 -14.5 -196.5t-46.5 -204.5t-75.5 -183.5t-108.5 -132t-139 -50.5q-174 0 -144 297q-115 -293 -305 -293q-91 0 -146.5 77t-55.5 219q0 84 15 170.5t49 172t82 151.5t121 107t160 41q93 0 168 -47 l-75 -564q-43 -324 131 -324q73 0 136 50.5t106 131.5t74 182.5t45 202.5t14 193q0 104 -20 195t-62 168t-104 131.5t-149.5 85.5t-194.5 31q-125 0 -237 -38.5t-198.5 -105t-158.5 -155.5t-122.5 -189.5t-85 -208t-51 -209.5t-16.5 -196q0 -319 161 -505t418 -186 q165 0 312 63l1 -7q-149 -64 -313 -64q-260 0 -423.5 188.5t-163.5 510.5q0 94 16.5 197t52 211.5t86 209.5t123.5 191t160.5 156.5t201 105.5t239.5 39zM756 41q189 0 305 301l80 577q-74 44 -160 44t-157.5 -41t-119 -106.5t-80.5 -150t-47.5 -170t-14.5 -167.5 q0 -139 53 -213t141 -74z" />
<glyph unicode="A" horiz-adv-x="960" d="M808 0l-65 434h-551l-187 -434h-9l601 1393h8l212 -1393h-9zM195 442h547l-142 940z" />
<glyph unicode="B" horiz-adv-x="1007" d="M605 737q118 -8 189.5 -84t71.5 -204q0 -69 -14.5 -132t-48.5 -121.5t-85.5 -101.5t-130.5 -68.5t-178 -25.5h-267l195 1393h256q165 0 247 -72t82 -207q0 -152 -92 -257t-225 -120zM344 1385l-90 -644h320q58 0 117 25t109 70t82 117.5t32 159.5q0 132 -79.5 202 t-239.5 70h-251zM412 8q120 0 209.5 37.5t139.5 102t73.5 139.5t23.5 162q0 130 -77.5 207t-213.5 77h-314l-102 -725h261z" />
<glyph unicode="C" horiz-adv-x="901" d="M720 1413q152 0 247 -117l-5 -6q-93 115 -243 115q-119 0 -217 -61.5t-160.5 -159.5t-106 -225t-61.5 -252.5t-18 -248.5q0 -226 85.5 -347t240.5 -121q150 0 287 120l5 -7q-139 -122 -293 -122q-158 0 -245.5 124t-87.5 353q0 103 13.5 208.5t41 214.5t74.5 203.5 t108 168.5t147.5 117t187.5 43z" />
<glyph unicode="D" horiz-adv-x="1064" d="M559 1393q404 0 404 -446q0 -140 -20.5 -271t-68 -255.5t-118.5 -216.5t-180.5 -148t-244.5 -56h-189l195 1393h222zM559 1385h-215l-193 -1377h181q112 0 206 38.5t161 107t117.5 157.5t80 196t44 216t14.5 224q0 438 -396 438z" />
<glyph unicode="E" horiz-adv-x="829" d="M852 1393l-2 -8h-506l-89 -642h435l-1 -8h-435l-103 -727h525l-1 -8h-533l195 1393h515z" />
<glyph unicode="F" horiz-adv-x="786" d="M844 1393l-2 -8h-498l-95 -673h433l-1 -7h-433l-98 -705h-8l195 1393h507z" />
<glyph unicode="G" horiz-adv-x="1005" d="M720 1413q82 0 143 -27.5t117 -85.5l-5 -7q-56 57 -116 84.5t-140 27.5q-134 0 -244 -84t-177.5 -220.5t-104 -300.5t-36.5 -335q0 -231 90 -353.5t257 -122.5q145 0 298 96l87 610h-251v8h260l-88 -623q-154 -99 -306 -99q-170 0 -263 125t-93 359q0 113 16.5 226 t47.5 219t80.5 197t111 159.5t143 107.5t173.5 39z" />
<glyph unicode="H" horiz-adv-x="1099" d="M150 0h-8l195 1393h8l-90 -641h651l90 641h8l-197 -1393h-8l106 745h-651z" />
<glyph unicode="I" horiz-adv-x="440" d="M345 1393l-195 -1393h-8l195 1393h8z" />
<glyph unicode="J" horiz-adv-x="475" d="M389 1393l-170 -1218q-22 -155 -71.5 -228t-182.5 -135l-4 7q131 61 180 133t70 223l170 1218h8z" />
<glyph unicode="K" horiz-adv-x="854" d="M142 2l195 1391h8l-195 -1391h-8zM740 0l-479 750l647 643h11l-647 -644l479 -749h-11z" />
<glyph unicode="L" horiz-adv-x="735" d="M345 1393l-194 -1385h483l-1 -8h-491l195 1393h8z" />
<glyph unicode="M" horiz-adv-x="1275" d="M1120 1393l-61 -1393h-8l31 723q23 543 29 661l-519 -1210h-10l-180 1211q-30 -129 -153 -647l-173 -738h-8l327 1393h14l180 -1208l518 1208h13z" />
<glyph unicode="N" horiz-adv-x="1099" d="M1004 1393l-194 -1393h-12l-455 1383q-28 -203 -32 -231l-161 -1152h-8l195 1393h11l455 -1382q6 41 19.5 138.5t20.5 143.5l153 1100h8z" />
<glyph unicode="O" horiz-adv-x="1167" d="M723 1413q166 0 255.5 -122t89.5 -354q0 -81 -9 -167.5t-29.5 -181t-51.5 -181t-78 -165t-105 -136t-137 -91.5t-170 -34q-166 0 -254 122.5t-88 352.5q0 116 19.5 241.5t64.5 254.5t109.5 230.5t164 166t219.5 64.5zM723 1406q-99 0 -184.5 -44.5t-146 -121 t-107.5 -172.5t-74.5 -204t-41.5 -210.5t-14 -197.5q0 -227 85.5 -347t247.5 -120q90 0 168 34t135.5 91.5t104 135.5t76.5 164t50.5 179.5t29 179t8.5 165.5q0 229 -87 348.5t-250 119.5z" />
<glyph unicode="P" horiz-adv-x="933" d="M562 1393q350 0 350 -299q0 -72 -13.5 -139t-48.5 -134t-88.5 -116.5t-139.5 -80t-195 -30.5h-194l-83 -594h-8l195 1393h225zM430 602q107 0 191 30.5t136 78.5t86 114t47 132t13 137q0 291 -341 291h-218l-109 -783h195z" />
<glyph unicode="Q" horiz-adv-x="1169" d="M560 -12q138 -2 225 -31t149 -103l-8 -5q-65 76 -159 105.5t-271 27.5q-2 0 -4 -0.5t-4 -0.5h-1q-166 0 -253.5 122.5t-87.5 352.5q0 116 19.5 241.5t64.5 254.5t109.5 230.5t164 166t219.5 64.5q166 0 255.5 -122t89.5 -354q0 -112 -16 -229.5t-54.5 -240.5t-95 -221.5 t-145 -169t-197.5 -88.5zM155 456q0 -227 85.5 -347t247.5 -120q90 0 168 34t135.5 91.5t104 135.5t76.5 164t50.5 179.5t29 179t8.5 165.5q0 229 -87 348.5t-250 119.5q-99 0 -184.5 -44.5t-146 -121t-107.5 -172.5t-74.5 -204t-41.5 -210.5t-14 -197.5z" />
<glyph unicode="R" horiz-adv-x="946" d="M904 1105q0 -77 -21 -149t-62 -132.5t-110 -99t-157 -42.5l226 -682h-10l-225 682h-10h-289l-96 -682h-8l195 1393h238q177 0 253 -72t76 -216zM532 690q91 0 163 36t114.5 96.5t64 132.5t21.5 150q0 141 -73.5 210.5t-246.5 69.5h-231l-97 -695h285z" />
<glyph unicode="S" horiz-adv-x="909" d="M597 1413q171 0 276 -132l-7 -5q-102 129 -269 129q-106 0 -185.5 -53t-117.5 -133.5t-38 -174.5q0 -106 52.5 -165t191.5 -119q135 -58 196.5 -130t61.5 -196q0 -87 -27.5 -168t-77.5 -144.5t-127.5 -102t-170.5 -38.5q-114 0 -185.5 41t-125.5 120l5 6 q54 -79 124.5 -119t181.5 -40q91 0 167.5 37.5t125 100t75.5 141.5t27 164q0 84 -30 144t-82.5 99t-141.5 77q-140 61 -194.5 122t-54.5 170q0 70 23.5 135.5t66 118t110.5 84t150 31.5z" />
<glyph unicode="T" horiz-adv-x="790" d="M881 1393l-3 -8h-360l-194 -1385h-8l194 1385h-359v8h730z" />
<glyph unicode="U" horiz-adv-x="1060" d="M984 1393l-148 -1062q-10 -71 -37 -132t-72.5 -111t-115.5 -78.5t-158 -28.5q-70 0 -124.5 19t-87 52t-53 77.5t-23 96t3.5 106.5l147 1061h8l-147 -1061q-6 -54 -3.5 -104t22 -93.5t51.5 -76t85 -51t122 -18.5q86 0 155 28t113 77t70.5 108.5t35.5 129.5l147 1061h9z " />
<glyph unicode="V" horiz-adv-x="907" d="M958 1393l-572 -1393h-9l-186 1393h8l183 -1385l567 1385h9z" />
<glyph unicode="W" horiz-adv-x="1318" d="M1360 1393l-463 -1393h-9l-109 1385l-495 -1385h-9l-73 1393h8l70 -1384l495 1384h11l107 -1382l459 1382h8z" />
<glyph unicode="X" horiz-adv-x="788" d="M824 1393l-393 -636l251 -757h-9l-248 752l-458 -752h-9l461 758l-216 635h9l213 -630l390 630h9z" />
<glyph unicode="Y" horiz-adv-x="806" d="M887 1393l-476 -838l-78 -555h-8l78 555l-242 838h8l239 -830l470 830h9z" />
<glyph unicode="Z" horiz-adv-x="843" d="M-7 0l1 8l872 1377h-617l1 8h628l-1 -8l-872 -1377h651l-2 -8h-661z" />
<glyph unicode="[" horiz-adv-x="524" d="M526 1619v-7h-180l-258 -1811h182l-2 -7h-188l258 1825h188z" />
<glyph unicode="\" horiz-adv-x="901" d="M413 1627l135 -1813l-7 -3l-135 1813z" />
<glyph unicode="]" horiz-adv-x="522" d="M494 1619l-257 -1825h-189v7h182l256 1811h-183l1 7h190z" />
<glyph unicode="^" horiz-adv-x="892" d="M614 1675l198 -596h-8l-194 588l-364 -588h-9l370 596h7z" />
<glyph unicode="_" horiz-adv-x="903" d="M1 -181l1 8h700v-8h-701z" />
<glyph unicode="`" horiz-adv-x="407" d="M205 1531l258 -172l-4 -5l-258 168z" />
<glyph unicode="a" d="M587 1080q114 0 201 -59l-107 -775q-19 -107 -11.5 -168.5t57.5 -88.5l-3 -8q-52 27 -61 91t7 147q0 4 0.5 6.5t0.5 5.5q-136 -250 -314 -250q-117 0 -180 97.5t-63 258.5q0 101 16.5 202t53.5 199.5t90.5 173.5t134.5 121.5t178 46.5zM587 1072q-118 0 -211 -69 t-146.5 -180t-80.5 -235.5t-27 -250.5q0 -158 60.5 -253t174.5 -95q177 0 316 260l106 768q-83 55 -192 55z" />
<glyph unicode="b" horiz-adv-x="952" d="M607 1080q117 0 176 -86.5t59 -251.5q0 -97 -15.5 -198t-51 -203t-86.5 -181.5t-128 -129t-169 -49.5q-113 0 -250 66l201 1449h8l-88 -632q169 216 344 216zM607 1072q-94 0 -176 -55.5t-168 -162.5l-112 -802q129 -63 241 -63q91 0 166.5 49t125.5 128t84.5 179.5 t50 201t15.5 195.5q0 330 -227 330z" />
<glyph unicode="c" horiz-adv-x="790" d="M562 1080q129 0 208 -103l-7 -4q-75 99 -202 99q-134 0 -234.5 -102.5t-150.5 -264t-50 -352.5q0 -175 67.5 -269.5t188.5 -94.5q67 0 121.5 27t110.5 79l6 -5q-116 -109 -238 -109q-125 0 -195 97t-70 275q0 143 30.5 273.5t86 232t140.5 161.5t188 60z" />
<glyph unicode="d" horiz-adv-x="948" d="M867 1496h8l-209 -1496h-7l41 299q-73 -147 -157 -232.5t-191 -85.5q-112 0 -175 92.5t-63 257.5q0 95 15.5 195t50 200t83.5 178t123 127t162 49q96 0 153 -58t80 -147zM548 1072q-86 0 -158.5 -48.5t-121 -125.5t-82.5 -176t-49 -198t-15 -193q0 -162 60.5 -252 t169.5 -90q55 0 105.5 24.5t93.5 71.5t78.5 101.5t72.5 128.5l77 546q-54 211 -231 211z" />
<glyph unicode="e" horiz-adv-x="864" d="M804 864q0 -82 -35.5 -149t-96.5 -113.5t-147.5 -80t-184 -51t-211.5 -24.5q-5 -62 -5 -106q0 -170 65 -260.5t183 -90.5q77 0 140 29t135 91l4 -6q-74 -63 -137.5 -92.5t-141.5 -29.5q-122 0 -189 92t-67 266q0 78 11 159t33 165.5t59.5 158.5t87 132t119 92t151.5 34 q101 0 164 -57t63 -159zM577 1072q-85 0 -156.5 -37.5t-120.5 -99t-86 -143.5t-56.5 -166t-28.5 -173q143 8 260.5 35.5t210.5 75.5t144.5 124.5t51.5 175.5t-60.5 153.5t-158.5 54.5z" />
<glyph unicode="f" horiz-adv-x="503" d="M552 1496q-87 0 -144 -59t-73 -172l-29 -206h253l-1 -7h-253l-150 -1069q-16 -113 -44 -183t-67 -110t-110 -82l-3 5q68 40 107 80t66.5 109.5t42.5 180.5l149 1069h-152l1 7h153l29 207q17 116 76 177t149 61q56 0 98.5 -18.5t84.5 -58.5l-6 -5q-42 39 -82 56.5 t-95 17.5z" />
<glyph unicode="g" d="M589 1080q110 0 197 -59l-147 -1062q-26 -191 -107 -271t-206 -80q-145 0 -259 94l4 7q117 -94 255 -94q122 0 200.5 78.5t104.5 265.5l40 291q-136 -250 -312 -250q-117 0 -180 97t-63 258q0 95 16.5 192.5t53.5 194t90.5 171t134.5 121t178 46.5zM589 1072 q-80 0 -149 -32t-119 -87.5t-88.5 -126.5t-62 -152t-35 -161.5t-11.5 -157.5q0 -158 60.5 -252.5t174.5 -94.5q175 0 314 260l105 749q-83 55 -189 55z" />
<glyph unicode="h" horiz-adv-x="974" d="M620 1080q111 0 159.5 -83t29.5 -223l-109 -774h-8l108 773q19 138 -26.5 218.5t-153.5 80.5q-109 0 -198.5 -90t-183.5 -292l-96 -690h-8l209 1496h8l-110 -786q92 195 180.5 282.5t198.5 87.5z" />
<glyph unicode="i" horiz-adv-x="423" d="M338 1420q-14 0 -14 14q0 15 15 15t15 -14q0 -15 -16 -15zM290 1059l-148 -1059h-8l147 1059h9z" />
<glyph unicode="j" horiz-adv-x="430" d="M344 1420q-14 0 -14 14q0 15 15 15t15 -14q0 -15 -16 -15zM-77 -392l-3 7q68 40 106 79.5t66.5 108.5t43.5 180l151 1076h8l-151 -1076q-15 -113 -43.5 -183.5t-68 -110.5t-109.5 -81z" />
<glyph unicode="k" horiz-adv-x="874" d="M351 1496l-120 -857q95 220 193 330.5t215 110.5q83 0 127.5 -51.5t44.5 -139.5q0 -141 -85.5 -233.5t-251.5 -158.5l202 -497h-9l-202 501q168 66 252.5 157t84.5 231q0 85 -41.5 134t-121.5 49q-116 0 -215.5 -113.5t-195.5 -340.5l-86 -618h-8l209 1496h8z" />
<glyph unicode="l" horiz-adv-x="464" d="M341 1496l-193 -1383q-9 -59 10.5 -91.5t68.5 -32.5q35 0 71 17l3 -8q-39 -17 -75 -17q-52 0 -73.5 34.5t-12.5 97.5l193 1383h8z" />
<glyph unicode="m" horiz-adv-x="1417" d="M1090 1080q100 0 140 -85.5t18 -240.5l-105 -754h-8l104 754q22 153 -15 235.5t-134 82.5q-195 0 -354 -390l-95 -682h-8l105 754q22 153 -15 235.5t-134 82.5q-193 0 -353 -401l-94 -671h-8l147 1059h8l-50 -367q153 388 350 388q101 0 140 -85.5t17 -240.5l-7 -52 q153 378 351 378z" />
<glyph unicode="n" horiz-adv-x="974" d="M620 1080q111 0 159.5 -83t29.5 -223l-109 -774h-8l108 773q19 138 -26.5 218.5t-153.5 80.5q-110 0 -199 -89.5t-183 -291.5l-96 -691h-8l147 1059h8l-48 -347q92 194 180 281t199 87z" />
<glyph unicode="o" horiz-adv-x="940" d="M379 -19q-127 0 -195 97t-68 271q0 77 11 158t32.5 164t58.5 156t85 130t115 90t145 33q126 0 194 -95.5t68 -268.5q0 -92 -14.5 -188.5t-48.5 -195.5t-83.5 -176t-127.5 -126t-172 -49zM379 -11q93 0 169.5 48.5t125 125t82 174.5t47.5 193t14 186q0 170 -66 263 t-188 93q-92 0 -168 -47t-125 -122.5t-83 -172.5t-48.5 -192.5t-14.5 -188.5q0 -171 66 -265.5t189 -94.5z" />
<glyph unicode="p" horiz-adv-x="952" d="M80 -392l201 1451h8l-28 -195q153 216 343 216q119 0 178 -86.5t59 -251.5q0 -97 -15.5 -199t-51 -203.5t-86.5 -180.5t-128 -128.5t-169 -49.5q-129 0 -241 70l-62 -443h-8zM391 -11q91 0 167 49t126 128t84.5 179.5t49.5 200.5t15 196q0 330 -229 330q-184 0 -343 -218 l-111 -795q108 -70 241 -70z" />
<glyph unicode="q" horiz-adv-x="933" d="M595 -392l85 623q-139 -250 -315 -250q-122 0 -186.5 97t-64.5 259q0 101 16.5 202t54.5 199.5t92.5 173.5t137 121.5t182.5 46.5q114 0 201 -59l-195 -1413h-8zM365 -11q176 0 318 261l106 767q-83 55 -192 55q-98 0 -179.5 -46t-135.5 -120.5t-91 -172t-53 -197 t-16 -199.5q0 -159 62 -253.5t181 -94.5z" />
<glyph unicode="r" horiz-adv-x="604" d="M565 1080q39 0 76 -15l-3 -7q-31 14 -74 14q-106 0 -181.5 -80.5t-140.5 -281.5l-100 -710h-8l147 1059h8l-45 -322q62 187 137.5 265t183.5 78z" />
<glyph unicode="s" horiz-adv-x="770" d="M465 1080q146 0 241 -107l-7 -5q-93 104 -234 104q-113 0 -195.5 -73t-82.5 -190q0 -84 46 -137t165 -103q118 -50 166 -109t48 -158q0 -146 -91 -233.5t-222 -87.5q-171 0 -276 136l5 6q50 -64 113.5 -99t157.5 -35q128 0 216.5 84.5t88.5 227.5q0 96 -46.5 153.5 t-163.5 107.5q-122 52 -168.5 106.5t-46.5 140.5q0 120 85 195.5t201 75.5z" />
<glyph unicode="t" horiz-adv-x="542" d="M278 1052l-117 -840q-15 -108 22 -165.5t117 -57.5q75 0 159 57l4 -7q-90 -58 -163 -58q-84 0 -123.5 60t-23.5 171l116 840h-145v7h146l39 274l8 1l-38 -275h244l-1 -7h-244z" />
<glyph unicode="u" horiz-adv-x="966" d="M359 -19q-109 0 -160 81.5t-31 224.5l107 772h8l-106 -772q-19 -140 29.5 -219t152.5 -79q113 0 205.5 92t160.5 259l100 719h8l-148 -1059h-7l47 324q-67 -163 -160 -253t-206 -90z" />
<glyph unicode="v" horiz-adv-x="747" d="M766 1059l-453 -1059h-9l-174 1059h8l171 -1051l449 1051h8z" />
<glyph unicode="w" horiz-adv-x="1140" d="M1144 1059l-384 -1059h-10l-106 1051l-400 -1051h-12l-87 1059h8l87 -1051l400 1051h9l107 -1051l380 1051h8z" />
<glyph unicode="x" horiz-adv-x="733" d="M712 1059l-338 -490l235 -569h-8l-232 565l-384 -565h-9l389 570l-197 489h9l193 -485l333 485h9z" />
<glyph unicode="y" horiz-adv-x="745" d="M764 1059l-449 -1059q-33 -78 -55.5 -125t-51.5 -93.5t-60 -74.5t-72.5 -52t-96.5 -43v7q54 18 94.5 42t70 51t58 73.5t50.5 91.5t55 123h-6l-171 1059h8l170 -1054l447 1054h9z" />
<glyph unicode="z" horiz-adv-x="690" d="M697 1059v-7l-701 -1044h536l-1 -8h-546v7l701 1044h-504l1 8h514z" />
<glyph unicode="{" horiz-adv-x="548" d="M550 1657l-1 -7q-133 0 -158 -190l-82 -584q-11 -79 -51 -119.5t-98 -41.5q57 -2 85 -43t17 -120l-82 -584q-25 -188 105 -188v-7q-140 0 -113 194l82 587q10 77 -17 117t-86 40l1 8q59 0 99.5 40t50.5 117l81 587q27 194 167 194z" />
<glyph unicode="|" horiz-adv-x="729" d="M524 1639l-257 -1838h-8l257 1838h8z" />
<glyph unicode="}" horiz-adv-x="546" d="M51 -227v7q134 0 159 190l81 583q11 79 51.5 120t98.5 42q-57 2 -85 42.5t-17 119.5l81 585q25 188 -105 188l1 7q139 0 112 -195l-82 -587q-10 -77 17.5 -116.5t86.5 -39.5l-1 -8q-59 0 -99.5 -40t-50.5 -117l-82 -587q-27 -194 -166 -194z" />
<glyph unicode="~" horiz-adv-x="792" d="M525 594q-27 0 -57.5 17.5t-53.5 38.5t-53.5 38.5t-57.5 17.5q-71 0 -130 -90l-6 4q64 94 136 94q36 0 75 -28t77 -56t70 -28q66 0 129 90l7 -4q-65 -94 -136 -94z" />
<glyph unicode="&#xa1;" horiz-adv-x="432" d="M264 865q-17 0 -17 17q0 8 5.5 13t12.5 5q17 0 17 -17q0 -7 -5 -12.5t-13 -5.5zM219 520l-129 -906h-8l129 906h8z" />
<glyph unicode="&#xa2;" horiz-adv-x="790" d="M562 1080q129 0 208 -103l-7 -4q-75 99 -202 99q-134 0 -234.5 -102.5t-150.5 -264t-50 -352.5q0 -175 67.5 -269.5t188.5 -94.5q67 0 121.5 27t110.5 79l6 -5q-112 -103 -223 -108l-39 -277h-8l39 276h-7q-125 0 -195 97t-70 275q0 191 50 352.5t150.5 266t233.5 108.5 l41 297h7l-40 -297h3z" />
<glyph unicode="&#xa3;" horiz-adv-x="829" d="M627 1373q138 0 207 -127l-6 -4q-65 123 -201 123q-117 0 -190 -91.5t-94 -237.5l-43 -305h352l-1 -8h-352l-66 -478q-13 -98 -50.5 -151t-110.5 -86h582l-1 -8h-597v8q78 35 117 87t52 150l66 478h-97l1 8h97l43 305q21 150 96.5 243.5t195.5 93.5z" />
<glyph unicode="&#xa4;" horiz-adv-x="942" d="M819 278l-7 -4l-128 153q-75 -81 -190 -81q-113 0 -188 80l-127 -152l-6 4l127 154q-85 95 -85 263q0 161 80 259l-123 153l7 5l122 -152q76 87 193 87q120 0 196 -88l122 153l6 -5l-122 -155q78 -96 78 -257q0 -168 -85 -263zM494 354q119 0 195.5 89.5t76.5 250.5 q0 159 -74.5 252t-197.5 93q-121 0 -196 -93t-75 -252q0 -161 76.5 -250.5t194.5 -89.5z" />
<glyph unicode="&#xa5;" horiz-adv-x="790" d="M864 1352l-446 -697h219v-8h-222l-37 -265h220v-8h-221l-52 -374h-8l52 374h-217l1 8h217l36 265h-215l1 8h214l-251 697h11l246 -693l442 693h10z" />
<glyph unicode="&#xa6;" horiz-adv-x="731" d="M525 1639l-104 -732h-8l104 732h8zM370 537l-101 -736h-8l101 736h8z" />
<glyph unicode="&#xa7;" horiz-adv-x="956" d="M629 1365q-121 0 -191.5 -75t-70.5 -179q0 -80 44 -132.5t157 -105.5q101 -47 144.5 -105.5t43.5 -141.5q0 -98 -43 -168.5t-152 -142.5q76 -63 76 -166q0 -107 -74.5 -189t-200.5 -82q-137 0 -238 85l5 7q99 -84 233 -84q83 0 145 39.5t91.5 98t29.5 125.5 q0 81 -42.5 131t-150.5 99t-155 103.5t-47 138.5q0 87 47 160t167 153q-47 36 -68 78t-21 99q0 107 73.5 184.5t197.5 77.5q119 0 228 -83l-4 -7q-106 82 -224 82zM747 626q0 80 -41.5 137t-140.5 103q-74 35 -112 63q-119 -79 -165 -151t-46 -157q0 -82 45.5 -134 t151.5 -100q75 -34 116 -67q109 71 150.5 140.5t41.5 165.5z" />
<glyph unicode="&#xa8;" horiz-adv-x="407" d="M199 1389q-15 0 -15 15t16 15q14 0 14 -14q0 -16 -15 -16zM454 1389q-14 0 -14 15t15 15q14 0 14 -14q0 -16 -15 -16z" />
<glyph unicode="&#xa9;" horiz-adv-x="1345" d="M723 1458q202 0 326.5 -149t124.5 -418q0 -266 -125 -417t-326 -151t-325.5 149.5t-124.5 418.5q0 266 124.5 416.5t325.5 150.5zM723 1450q-198 0 -320.5 -148t-122.5 -411q0 -266 122.5 -413t320.5 -147t320.5 148.5t122.5 411.5q0 266 -122 412.5t-321 146.5z M719 1234q77 0 133 -54l-4 -7q-53 53 -129 53q-36 0 -70.5 -18t-65.5 -55t-49.5 -103.5t-18.5 -154.5q0 -165 57 -249t148 -84q84 0 147 61l4 -7q-58 -62 -151 -62q-94 0 -153.5 86.5t-59.5 254.5q0 89 19.5 157t51.5 106t67.5 57t73.5 19z" />
<glyph unicode="&#xaa;" horiz-adv-x="866" d="M393 569q-85 0 -131 52t-46 138q0 136 84 214t224 78h162l14 104q15 115 -19 172.5t-125 57.5q-96 0 -208 -51l-3 8q111 51 211 51q184 0 153 -238l-56 -401q-11 -91 -5 -119q10 -43 52 -59l-4 -7q-21 7 -34 21t-18.5 28t-5.5 38.5t1.5 39t5.5 44.5q-53 -87 -110.5 -129 t-141.5 -42zM393 577q83 0 142 44t110 133l41 289h-162q-139 0 -219.5 -76t-80.5 -208q0 -83 43.5 -132.5t125.5 -49.5zM99 0v8h522v-8h-522z" />
<glyph unicode="&#xab;" horiz-adv-x="944" d="M487 1014l7 -4l-299 -420l184 -418l-7 -4l-186 418l1 7zM823 1014l6 -4l-299 -420l184 -418l-7 -4l-185 418v7z" />
<glyph unicode="&#xac;" horiz-adv-x="849" d="M713 661l-33 -224h-9l31 216h-530l3 8h538z" />
<glyph unicode="&#xad;" horiz-adv-x="675" d="M158 635v8h390v-8h-390z" />
<glyph unicode="&#xae;" horiz-adv-x="1060" d="M600 1455q160 0 255.5 -114t95.5 -309q0 -199 -91.5 -316t-259.5 -117q-160 0 -255.5 114t-95.5 309q0 199 91.5 316t259.5 117zM600 606q165 0 254.5 114.5t89.5 311.5q0 192 -93.5 303.5t-250.5 111.5q-165 0 -254 -114t-89 -311q0 -192 93 -304t250 -112zM737 1158 q0 -67 -31 -103t-78 -42l124 -254h-9l-123 253h-126v-251h-8v547h95q74 0 115 -37.5t41 -112.5zM494 1020h118q52 0 84.5 35t32.5 103q0 71 -38 107t-109 36h-88v-281z" />
<glyph unicode="&#xaf;" horiz-adv-x="446" d="M509 1410h-323l1 8h323z" />
<glyph unicode="&#xb0;" horiz-adv-x="876" d="M426 860q-81 0 -128.5 58t-47.5 161q0 134 73.5 234t187.5 100q81 0 128.5 -57t47.5 -161q0 -134 -73.5 -234.5t-187.5 -100.5zM426 868q111 0 182 98t71 229q0 101 -45 156t-123 55q-111 0 -182 -98t-71 -229q0 -100 45 -155.5t123 -55.5z" />
<glyph unicode="&#xb1;" horiz-adv-x="835" d="M490 1001l-45 -319h256l-1 -8h-256l-47 -319h-8l47 319h-258l1 8h258l45 319h8zM80 0l1 8h522v-8h-523z" />
<glyph unicode="&#xb2;" horiz-adv-x="696" d="M474 1504q72 0 109.5 -45.5t37.5 -118.5q0 -35 -6.5 -69.5t-22 -71.5t-31 -68t-45 -72.5t-52 -70.5t-63.5 -77t-67.5 -77.5t-77 -85t-79.5 -88.5h369l-1 -8h-379l1 8q29 32 82 91t78.5 87.5t68 78t63.5 77.5t51.5 70t45 71.5t30 66t21.5 70.5t6 68q0 70 -35.5 113 t-103.5 43q-105 0 -196 -107l-6 4q48 56 95.5 83.5t106.5 27.5z" />
<glyph unicode="&#xb3;" horiz-adv-x="696" d="M480 1504q70 0 110 -43.5t40 -115.5q0 -97 -53 -166t-141 -79q148 -10 148 -167q0 -129 -67 -211t-178 -82q-63 0 -105.5 24.5t-71.5 79.5l6 4q29 -54 69.5 -77.5t101.5 -23.5q108 0 172.5 80t64.5 206q0 163 -165 163h-38l3 8h38q94 0 150.5 71t56.5 170q0 70 -37 111 t-104 41q-103 0 -188 -89l-4 6q89 90 192 90z" />
<glyph unicode="&#xb4;" horiz-adv-x="409" d="M483 1531l4 -9l-307 -168l-2 7z" />
<glyph unicode="&#xb5;" horiz-adv-x="987" d="M727 330q-22 -153 0 -330l-8 -1q-21 158 -3 298q-68 -144 -161.5 -230t-201.5 -86q-90 0 -137 54.5t-47 159.5q-8 -55 -22 -158.5t-22 -154.5l-39 -272h-8l203 1449h9l-109 -783q-21 -150 27.5 -218.5t144.5 -68.5q108 0 200.5 87t162.5 236l105 747h8z" />
<glyph unicode="&#xb6;" horiz-adv-x="1148" d="M707 1393h260l-250 -1783h-8l250 1775h-247l-249 -1775h-8l144 1028q-157 1 -233 85.5t-76 221.5q0 191 114.5 319.5t302.5 128.5z" />
<glyph unicode="&#xb7;" horiz-adv-x="233" d="M137 656q-17 0 -17 17q0 7 5 12.5t13 5.5q17 0 17 -17q0 -8 -5.5 -13t-12.5 -5z" />
<glyph unicode="&#xb8;" horiz-adv-x="348" d="M66 -11l-31 -157q69 -2 103 -29t34 -84q0 -55 -36 -95t-100 -40q-61 0 -102 33l6 6q40 -31 96 -31q61 0 94.5 37.5t33.5 89.5q0 55 -33 79.5t-104 26.5l32 164h7z" />
<glyph unicode="&#xb9;" horiz-adv-x="696" d="M527 1490l-117 -838h-8l116 829l-217 -146l-3 7l222 148h7z" />
<glyph unicode="&#xba;" horiz-adv-x="866" d="M561 1393q102 0 159.5 -75.5t57.5 -212.5q0 -51 -8 -107t-24 -117t-44.5 -116t-65.5 -99.5t-90.5 -70.5t-115.5 -26q-103 0 -159.5 75.5t-56.5 214.5q0 66 11.5 135.5t38 141.5t65 128.5t99 92.5t133.5 36zM561 1385q-72 0 -131 -35.5t-96.5 -91t-63.5 -127t-37 -140 t-11 -132.5q0 -134 54 -208t154 -74q73 0 133 37t97.5 94.5t62.5 130t35.5 139t10.5 127.5q0 134 -54.5 207t-153.5 73zM98 0l1 8h522l-1 -8h-522z" />
<glyph unicode="&#xbb;" horiz-adv-x="940" d="M252 1014l182 -421v-6l-301 -419l-6 4l299 418l-180 420zM588 1014l182 -421l-1 -6l-300 -419l-7 4l299 418l-180 420z" />
<glyph unicode="&#xbc;" horiz-adv-x="1517" d="M1214 1503l7 -2l-908 -1638l-7 2zM389 555l116 829l-217 -146l-4 7l222 148h7l-116 -838h-8zM1351 254l-1 -8h-102l-35 -246h-7l34 246h-329l1 9l312 597l7 -3l-311 -595h321l39 276h7l-38 -276h102z" />
<glyph unicode="&#xbd;" horiz-adv-x="1517" d="M1214 1503l7 -2l-908 -1638l-7 2zM513 1393l-116 -838h-8l116 829l-217 -146l-4 7l222 148h7zM1203 852q72 0 110 -45.5t38 -118.5q0 -35 -6.5 -69.5t-22 -71.5t-31 -68t-45 -72.5t-52 -70.5t-63.5 -77t-67.5 -77.5t-77 -85t-79.5 -88.5h369l-2 -8h-378v8q29 32 82 91 t78.5 87.5t68 78t63.5 77.5t51.5 70t45 71.5t30 66t21.5 70.5t6 68q0 71 -35 113.5t-104 42.5q-57 0 -103 -26.5t-92 -80.5l-7 4q48 56 95.5 83.5t106.5 27.5z" />
<glyph unicode="&#xbe;" horiz-adv-x="1517" d="M1214 1503l7 -2l-908 -1638l-7 2zM571 836q0 -129 -67.5 -211t-178.5 -82q-63 0 -105.5 24.5t-71.5 79.5l7 4q29 -54 69 -77.5t101 -23.5q109 0 173.5 80t64.5 206q0 163 -166 163h-38l3 8h39q94 0 150.5 71t56.5 170q0 70 -37 111t-104 41q-103 0 -188 -89l-4 6 q89 90 192 90q70 0 109.5 -43.5t39.5 -115.5q0 -97 -53 -165.5t-141 -78.5q149 -10 149 -168zM1351 254l-1 -8h-102l-35 -246h-7l34 246h-329l1 9l312 597l7 -3l-311 -595h321l39 276h7l-38 -276h102z" />
<glyph unicode="&#xbf;" horiz-adv-x="907" d="M452 1026q18 0 18 -17q0 -7 -5 -12.5t-13 -5.5q-18 0 -18 17q0 8 5 13t13 5zM249 -398q-105 0 -158 63t-53 165q0 74 21.5 134t56 100.5t76 75t83.5 66.5t77 66.5t57 84.5t23 111q0 52 -14 118l7 1q15 -73 15 -118q-1 -62 -23 -112.5t-57 -86t-77 -67.5t-83.5 -66.5 t-76 -74.5t-56 -99t-21.5 -133q0 -99 51 -159.5t152 -60.5q79 0 142.5 37t136.5 120l7 -4q-74 -84 -140 -122.5t-146 -38.5z" />
<glyph unicode="&#xc0;" horiz-adv-x="960" d="M772 1584l-4 -6l-262 142l5 8zM808 0l-65 434h-551l-187 -434h-9l601 1393h8l212 -1393h-9zM195 442h547l-142 940z" />
<glyph unicode="&#xc1;" horiz-adv-x="960" d="M790 1720l-300 -142l-3 6l299 144zM808 0l-65 434h-551l-187 -434h-9l601 1393h8l212 -1393h-9zM195 442h547l-142 940z" />
<glyph unicode="&#xc2;" horiz-adv-x="960" d="M638 1736l-203 -160l-6 5l206 164h6l161 -164l-6 -5zM808 0l-65 434h-551l-187 -434h-9l601 1393h8l212 -1393h-9zM195 442h547l-142 940z" />
<glyph unicode="&#xc3;" horiz-adv-x="960" d="M848 1746l6 -4q-35 -45 -60 -63t-58 -18q-32 0 -64.5 22.5t-62.5 45t-56 22.5q-28 0 -51.5 -15.5t-61.5 -55.5l-6 3q40 42 64.5 59t54.5 17q27 0 58 -22.5t63 -45t62 -22.5q31 0 54.5 17t57.5 60zM597 1393h8l212 -1393h-9l-65 434h-551l-187 -434h-9zM195 442h547 l-142 940z" />
<glyph unicode="&#xc4;" horiz-adv-x="960" d="M512 1647q-14 0 -14 15t15 15q14 0 14 -14q0 -16 -15 -16zM767 1647q-14 0 -14 15t15 15q14 0 14 -14q0 -16 -15 -16zM808 0l-65 434h-551l-187 -434h-9l601 1393h8l212 -1393h-9zM195 442h547l-142 940z" />
<glyph unicode="&#xc5;" horiz-adv-x="960" d="M635 1597q-45 0 -71 29.5t-26 78.5q0 70 36 114t94 44q44 0 68.5 -28.5t24.5 -76.5q0 -70 -35 -115.5t-91 -45.5zM668 1856q-55 0 -89 -41.5t-34 -109.5q0 -46 24 -73t66 -27q53 0 85.5 43t32.5 110q0 46 -22 72t-63 26zM808 0l-65 434h-551l-187 -434h-9l601 1393h8 l212 -1393h-9zM195 442h547l-142 940z" />
<glyph unicode="&#xc6;" horiz-adv-x="1273" d="M1220 1385h-597l48 -642h444v-8h-443l55 -727h392l-1 -8h-399l-32 418h-514l-191 -418h-8l637 1393h610zM687 426l-72 959l-438 -959h510z" />
<glyph unicode="&#xc7;" horiz-adv-x="901" d="M720 1413q152 0 247 -117l-5 -6q-93 115 -243 115q-119 0 -217 -61.5t-160.5 -159.5t-106 -225t-61.5 -252.5t-18 -248.5q0 -226 85.5 -347t240.5 -121q150 0 287 120l5 -7q-139 -122 -292 -122l-30 -149q69 -2 103.5 -29t34.5 -84q0 -55 -36 -95t-100 -40q-61 0 -102 33 l5 6q40 -31 97 -31q61 0 94 37.5t33 89.5q0 55 -33 79.5t-104 26.5l31 156q-155 3 -241 126.5t-86 350.5q0 103 13.5 208.5t41 214.5t74.5 203.5t108 168.5t147.5 117t187.5 43z" />
<glyph unicode="&#xc8;" horiz-adv-x="829" d="M508 1728l261 -144l-4 -6l-262 142zM852 1393l-2 -8h-506l-89 -642h435l-1 -8h-435l-103 -727h525l-1 -8h-533l195 1393h515z" />
<glyph unicode="&#xc9;" horiz-adv-x="829" d="M783 1728l4 -8l-300 -142l-4 6zM852 1393l-2 -8h-506l-89 -642h435l-1 -8h-435l-103 -727h525l-1 -8h-533l195 1393h515z" />
<glyph unicode="&#xca;" horiz-adv-x="829" d="M432 1576l-6 5l205 164h6l162 -164l-6 -5l-159 160zM852 1393l-2 -8h-506l-89 -642h435l-1 -8h-435l-103 -727h525l-1 -8h-533l195 1393h515z" />
<glyph unicode="&#xcb;" horiz-adv-x="829" d="M509 1647q-15 0 -15 15t15 15t15 -14q0 -16 -15 -16zM764 1647q-15 0 -15 15t15 15t15 -14q0 -16 -15 -16zM852 1393l-2 -8h-506l-89 -642h435l-1 -8h-435l-103 -727h525l-1 -8h-533l195 1393h515z" />
<glyph unicode="&#xcc;" horiz-adv-x="440" d="M250 1728l261 -144l-4 -6l-262 142zM345 1393l-195 -1393h-8l195 1393h8z" />
<glyph unicode="&#xcd;" horiz-adv-x="440" d="M525 1728l4 -8l-300 -142l-3 6zM345 1393l-195 -1393h-8l195 1393h8z" />
<glyph unicode="&#xce;" horiz-adv-x="440" d="M174 1576l-6 5l205 164h7l161 -164l-6 -5l-159 160zM345 1393l-195 -1393h-8l195 1393h8z" />
<glyph unicode="&#xcf;" horiz-adv-x="440" d="M251 1647q-15 0 -15 15t16 15q14 0 14 -14q0 -16 -15 -16zM506 1647q-14 0 -14 15t15 15q14 0 14 -14q0 -16 -15 -16zM345 1393l-195 -1393h-8l195 1393h8z" />
<glyph unicode="&#xd0;" horiz-adv-x="1071" d="M565 1393q404 0 404 -446q0 -140 -20.5 -271t-68 -255.5t-118.5 -216.5t-180.5 -148t-244.5 -56h-189l101 719h-156v8h157l93 666h222zM338 8q112 0 206 38.5t161 107t117.5 157.5t80 196t44 216t14.5 224q0 438 -396 438h-215l-92 -658h330l-1 -8h-330l-100 -711h181z " />
<glyph unicode="&#xd1;" horiz-adv-x="1099" d="M811 1661q-32 0 -64.5 22.5t-62.5 45t-56 22.5q-28 0 -51.5 -15.5t-61.5 -55.5l-6 3q40 43 64 59.5t54 16.5q27 0 58 -22.5t63 -45t62 -22.5q31 0 55 17t58 60l6 -4q-35 -45 -60 -63t-58 -18zM1004 1393l-194 -1393h-12l-455 1383q-28 -203 -32 -231l-161 -1152h-8 l195 1393h11l455 -1382q6 41 19.5 138.5t20.5 143.5l153 1100h8z" />
<glyph unicode="&#xd2;" horiz-adv-x="1167" d="M630 1728l261 -144l-3 -6l-262 142zM723 1413q166 0 255.5 -122t89.5 -354q0 -81 -9 -167.5t-29.5 -181t-51.5 -181t-78 -165t-105 -136t-137 -91.5t-170 -34q-166 0 -254 122.5t-88 352.5q0 116 19.5 241.5t64.5 254.5t109.5 230.5t164 166t219.5 64.5zM723 1406 q-99 0 -184.5 -44.5t-146 -121t-107.5 -172.5t-74.5 -204t-41.5 -210.5t-14 -197.5q0 -227 85.5 -347t247.5 -120q90 0 168 34t135.5 91.5t104 135.5t76.5 164t50.5 179.5t29 179t8.5 165.5q0 229 -87 348.5t-250 119.5z" />
<glyph unicode="&#xd3;" horiz-adv-x="1167" d="M906 1728l3 -8l-299 -142l-4 6zM723 1413q166 0 255.5 -122t89.5 -354q0 -81 -9 -167.5t-29.5 -181t-51.5 -181t-78 -165t-105 -136t-137 -91.5t-170 -34q-166 0 -254 122.5t-88 352.5q0 116 19.5 241.5t64.5 254.5t109.5 230.5t164 166t219.5 64.5zM723 1406 q-99 0 -184.5 -44.5t-146 -121t-107.5 -172.5t-74.5 -204t-41.5 -210.5t-14 -197.5q0 -227 85.5 -347t247.5 -120q90 0 168 34t135.5 91.5t104 135.5t76.5 164t50.5 179.5t29 179t8.5 165.5q0 229 -87 348.5t-250 119.5z" />
<glyph unicode="&#xd4;" horiz-adv-x="1167" d="M554 1576l-6 5l206 164h6l161 -164l-6 -5l-158 160zM723 1413q166 0 255.5 -122t89.5 -354q0 -81 -9 -167.5t-29.5 -181t-51.5 -181t-78 -165t-105 -136t-137 -91.5t-170 -34q-166 0 -254 122.5t-88 352.5q0 116 19.5 241.5t64.5 254.5t109.5 230.5t164 166t219.5 64.5z M723 1406q-99 0 -184.5 -44.5t-146 -121t-107.5 -172.5t-74.5 -204t-41.5 -210.5t-14 -197.5q0 -227 85.5 -347t247.5 -120q90 0 168 34t135.5 91.5t104 135.5t76.5 164t50.5 179.5t29 179t8.5 165.5q0 229 -87 348.5t-250 119.5z" />
<glyph unicode="&#xd5;" horiz-adv-x="1167" d="M855 1661q-32 0 -64.5 22.5t-62.5 45t-56 22.5q-28 0 -51 -15.5t-61 -55.5l-7 3q40 42 64.5 59t54.5 17q27 0 58 -22.5t63 -45t62 -22.5q31 0 54.5 17t57.5 60l7 -4q-35 -45 -60.5 -63t-58.5 -18zM723 1413q166 0 255.5 -122t89.5 -354q0 -81 -9 -167.5t-29.5 -181 t-51.5 -181t-78 -165t-105 -136t-137 -91.5t-170 -34q-166 0 -254 122.5t-88 352.5q0 116 19.5 241.5t64.5 254.5t109.5 230.5t164 166t219.5 64.5zM723 1406q-99 0 -184.5 -44.5t-146 -121t-107.5 -172.5t-74.5 -204t-41.5 -210.5t-14 -197.5q0 -227 85.5 -347t247.5 -120 q90 0 168 34t135.5 91.5t104 135.5t76.5 164t50.5 179.5t29 179t8.5 165.5q0 229 -87 348.5t-250 119.5z" />
<glyph unicode="&#xd6;" horiz-adv-x="1167" d="M631 1647q-14 0 -14 15t15 15t15 -14q0 -16 -16 -16zM886 1647q-14 0 -14 15t15 15t15 -14q0 -16 -16 -16zM723 1413q166 0 255.5 -122t89.5 -354q0 -81 -9 -167.5t-29.5 -181t-51.5 -181t-78 -165t-105 -136t-137 -91.5t-170 -34q-166 0 -254 122.5t-88 352.5 q0 116 19.5 241.5t64.5 254.5t109.5 230.5t164 166t219.5 64.5zM723 1405q-118 0 -216.5 -64t-162 -165t-107.5 -229t-63 -252t-19 -239q0 -227 85.5 -347t247.5 -120q90 0 168 34t135.5 91.5t104 135.5t76.5 164t50.5 179.5t29 179t8.5 165.5q0 229 -87 348t-250 119z" />
<glyph unicode="&#xd7;" horiz-adv-x="827" d="M687 912l6 -5l-258 -277l183 -278l-8 -4l-182 278l-259 -278l-6 5l259 278l-184 276l7 5l184 -277z" />
<glyph unicode="&#xd8;" horiz-adv-x="1167" d="M878 1379q190 -99 190 -442q0 -81 -9 -167.5t-29.5 -181t-51.5 -181t-78 -165t-105 -136t-137 -91.5t-170 -34q-72 0 -133 25l-84 -219l-7 4l84 218q-202 92 -202 447q0 116 19.5 241.5t64.5 254.5t109.5 230.5t164 166t219.5 64.5q85 0 148 -31l88 232l8 -3zM155 456 q0 -350 196 -439l517 1358q-63 30 -145 30q-118 0 -216.5 -64t-162 -165t-107.5 -229t-63 -252t-19 -239zM488 -11q90 0 168 34t135.5 91.5t104 135.5t76.5 164t50.5 179.5t29 179t8.5 165.5q0 339 -186 434l-517 -1358q59 -25 131 -25z" />
<glyph unicode="&#xd9;" horiz-adv-x="1060" d="M559 1728l261 -144l-4 -6l-262 142zM984 1393l-148 -1062q-10 -71 -37 -132t-72.5 -111t-115.5 -78.5t-158 -28.5q-70 0 -124.5 19t-87 52t-53 77.5t-23 96t3.5 106.5l147 1061h8l-147 -1061q-6 -54 -3.5 -104t22 -93.5t51.5 -76t85 -51t122 -18.5q86 0 155 28t113 77 t70.5 108.5t35.5 129.5l147 1061h9z" />
<glyph unicode="&#xda;" horiz-adv-x="1060" d="M834 1728l4 -8l-300 -142l-3 6zM984 1393l-148 -1062q-10 -71 -37 -132t-72.5 -111t-115.5 -78.5t-158 -28.5q-70 0 -124.5 19t-87 52t-53 77.5t-23 96t3.5 106.5l147 1061h8l-147 -1061q-6 -54 -3.5 -104t22 -93.5t51.5 -76t85 -51t122 -18.5q86 0 155 28t113 77 t70.5 108.5t35.5 129.5l147 1061h9z" />
<glyph unicode="&#xdb;" horiz-adv-x="1060" d="M483 1576l-6 5l205 164h7l161 -164l-6 -5l-159 160zM984 1393l-148 -1062q-10 -71 -37 -132t-72.5 -111t-115.5 -78.5t-158 -28.5q-70 0 -124.5 19t-87 52t-53 77.5t-23 96t3.5 106.5l147 1061h8l-147 -1061q-6 -54 -3.5 -104t22 -93.5t51.5 -76t85 -51t122 -18.5 q86 0 155 28t113 77t70.5 108.5t35.5 129.5l147 1061h9z" />
<glyph unicode="&#xdc;" horiz-adv-x="1060" d="M560 1647q-15 0 -15 15t16 15q14 0 14 -14q0 -16 -15 -16zM815 1647q-14 0 -14 15t15 15q14 0 14 -14q0 -16 -15 -16zM984 1393l-148 -1062q-10 -71 -37 -132t-72.5 -111t-115.5 -78.5t-158 -28.5q-70 0 -124.5 19t-87 52t-53 77.5t-23 96t3.5 106.5l147 1061h8 l-147 -1061q-6 -54 -3.5 -104t22 -93.5t51.5 -76t85 -51t122 -18.5q86 0 155 28t113 77t70.5 108.5t35.5 129.5l147 1061h9z" />
<glyph unicode="&#xdd;" horiz-adv-x="806" d="M708 1728l4 -8l-300 -142l-4 6zM887 1393l-476 -838l-78 -555h-8l78 555l-242 838h8l239 -830l470 830h9z" />
<glyph unicode="&#xde;" horiz-adv-x="915" d="M505 1127q350 0 350 -307q0 -74 -13.5 -142t-48.5 -136t-88.5 -117.5t-139.5 -80t-195 -30.5h-176l-44 -314h-8l195 1393h8l-37 -266h197zM373 322q107 0 191 30.5t136 79t86 115t47 133.5t13 140q0 153 -85 226t-256 73h-198l-112 -797h178z" />
<glyph unicode="&#xdf;" horiz-adv-x="966" d="M-77 -392l-3 5q68 40 107 80t66.5 109.5t42.5 180.5l157 1125q26 185 118 289.5t220 104.5q92 0 145 -57t53 -147q0 -76 -27 -135.5t-65 -96t-76 -68.5t-65 -72t-27 -88q0 -37 19 -72t47 -63t61 -66t61 -77.5t47 -101.5t19 -135q0 -55 -15.5 -111.5t-46 -110t-87 -87.5 t-128.5 -34q-52 0 -99.5 17t-76.5 40l2 7q71 -57 174 -57q57 0 104.5 22.5t77 57.5t50 80.5t29 89t8.5 84.5q0 73 -19 134.5t-47 101t-61 77.5t-61 66t-47 64t-19 74q0 50 27 90.5t65 72.5t76 68t65 94.5t27 134.5q0 86 -51 141t-141 55q-123 0 -212.5 -102.5t-115.5 -284.5 l-157 -1124q-15 -113 -43.5 -183.5t-68 -110.5t-109.5 -81z" />
<glyph unicode="&#xe0;" d="M533 1531l257 -172l-4 -5l-258 168zM587 1080q114 0 201 -59l-107 -775q-19 -107 -11.5 -168.5t57.5 -88.5l-3 -8q-52 27 -61 91t7 147q0 4 0.5 6.5t0.5 5.5q-136 -250 -314 -250q-117 0 -180 97.5t-63 258.5q0 101 16.5 202t53.5 199.5t90.5 173.5t134.5 121.5t178 46.5 zM587 1072q-118 0 -211 -69t-146.5 -180t-80.5 -235.5t-27 -250.5q0 -158 60.5 -253t174.5 -95q177 0 316 260l106 768q-83 55 -192 55z" />
<glyph unicode="&#xe1;" d="M794 1531l4 -9l-307 -168l-2 7zM587 1080q114 0 201 -59l-107 -775q-19 -107 -11.5 -168.5t57.5 -88.5l-3 -8q-52 27 -61 91t7 147q0 4 0.5 6.5t0.5 5.5q-136 -250 -314 -250q-117 0 -180 97.5t-63 258.5q0 101 16.5 202t53.5 199.5t90.5 173.5t134.5 121.5t178 46.5z M587 1072q-118 0 -211 -69t-146.5 -180t-80.5 -235.5t-27 -250.5q0 -158 60.5 -253t174.5 -95q177 0 316 260l106 768q-83 55 -192 55z" />
<glyph unicode="&#xe2;" d="M449 1350l-6 5l209 174h6l158 -174l-7 -5l-154 171zM587 1080q114 0 201 -59l-107 -775q-19 -107 -11.5 -168.5t57.5 -88.5l-3 -8q-52 27 -61 91t7 147q0 4 0.5 6.5t0.5 5.5q-136 -250 -314 -250q-117 0 -180 97.5t-63 258.5q0 101 16.5 202t53.5 199.5t90.5 173.5 t134.5 121.5t178 46.5zM587 1072q-118 0 -211 -69t-146.5 -180t-80.5 -235.5t-27 -250.5q0 -158 60.5 -253t174.5 -95q177 0 316 260l106 768q-83 55 -192 55z" />
<glyph unicode="&#xe3;" d="M735 1403q-32 0 -64.5 22.5t-62.5 45t-56 22.5q-27 0 -50 -15.5t-62 -56.5l-6 4q40 43 64 59.5t54 16.5q27 0 58 -22.5t63 -45t62 -22.5q31 0 54.5 17t57.5 60l7 -4q-35 -45 -60.5 -63t-58.5 -18zM587 1080q114 0 201 -59l-107 -775q-19 -107 -11.5 -168.5t57.5 -88.5 l-3 -8q-52 27 -61 91t7 147q0 4 0.5 6.5t0.5 5.5q-136 -250 -314 -250q-117 0 -180 97.5t-63 258.5q0 101 16.5 202t53.5 199.5t90.5 173.5t134.5 121.5t178 46.5zM587 1072q-118 0 -211 -69t-146.5 -180t-80.5 -235.5t-27 -250.5q0 -158 60.5 -253t174.5 -95q177 0 316 260 l106 768q-83 55 -192 55z" />
<glyph unicode="&#xe4;" d="M510 1389q-15 0 -15 15t16 15q14 0 14 -14q0 -16 -15 -16zM765 1389q-15 0 -15 15t16 15q14 0 14 -14q0 -16 -15 -16zM587 1080q114 0 201 -59l-107 -775q-19 -107 -11.5 -168.5t57.5 -88.5l-3 -8q-52 27 -61 91t7 147q0 4 0.5 6.5t0.5 5.5q-136 -250 -314 -250 q-117 0 -180 97.5t-63 258.5q0 101 16.5 202t53.5 199.5t90.5 173.5t134.5 121.5t178 46.5zM587 1072q-118 0 -211 -69t-146.5 -180t-80.5 -235.5t-27 -250.5q0 -158 60.5 -253t174.5 -95q177 0 316 260l106 768q-83 55 -192 55z" />
<glyph unicode="&#xe5;" d="M665 1605q44 0 68.5 -28.5t24.5 -76.5q0 -70 -35 -115.5t-91 -45.5q-45 0 -71 29.5t-26 78.5q0 70 36 114t94 44zM665 1598q-55 0 -88.5 -41.5t-33.5 -109.5q0 -46 23.5 -73t65.5 -27q53 0 86 43t33 110q0 45 -22.5 71.5t-63.5 26.5zM587 1080q114 0 201 -59l-107 -775 q-19 -107 -11.5 -168.5t57.5 -88.5l-3 -8q-52 27 -61 91t7 147q0 4 0.5 6.5t0.5 5.5q-136 -250 -314 -250q-117 0 -180 97.5t-63 258.5q0 101 16.5 202t53.5 199.5t90.5 173.5t134.5 121.5t178 46.5zM587 1072q-118 0 -211 -69t-146.5 -180t-80.5 -235.5t-27 -250.5 q0 -158 60.5 -253t174.5 -95q177 0 316 260l106 768q-83 55 -192 55z" />
<glyph unicode="&#xe6;" horiz-adv-x="1382" d="M491 1080q100 0 162.5 -71t71.5 -217q59 132 151.5 210t219.5 78q101 0 163.5 -57t62.5 -159q0 -82 -35.5 -149t-96.5 -113.5t-147.5 -80t-184 -51t-210.5 -24.5q-37 -457 242 -457q77 0 140 29t135 91l5 -6q-74 -63 -138 -92.5t-142 -29.5q-212 0 -249 263 q-91 -140 -172.5 -201.5t-186.5 -61.5q-103 0 -159 70t-56 183q0 77 22 142t66.5 117t120.5 82t177 30h211q17 85 54 173q-4 147 -66 220.5t-161 73.5q-110 0 -257 -69l-1 7q146 70 258 70zM1095 1072q-85 0 -156.5 -37.5t-120 -98.5t-85.5 -143.5t-56.5 -166.5t-28.5 -173 q143 8 260 35.5t210 75.5t144.5 124.5t51.5 175.5t-60.5 153.5t-158.5 54.5zM662 597h-209q-99 0 -173.5 -29t-118.5 -80t-65 -115t-21 -139q0 -110 53.5 -177.5t153.5 -67.5q105 0 186.5 63t171.5 202q-16 169 22 343z" />
<glyph unicode="&#xe7;" horiz-adv-x="790" d="M562 1080q129 0 208 -103l-7 -4q-75 99 -202 99q-134 0 -234.5 -102.5t-150.5 -264t-50 -352.5q0 -175 67.5 -269.5t188.5 -94.5q67 0 121.5 27t110.5 79l6 -5q-116 -109 -239 -109h-5l-30 -151q70 -2 104 -28.5t34 -83.5q0 -55 -36 -95.5t-100 -40.5q-60 0 -102 34l5 5 q40 -31 97 -31q61 0 94 37.5t33 89.5q0 55 -33 79.5t-104 26.5l31 159q-119 5 -185.5 101t-66.5 270q0 143 30.5 273.5t86 232t140.5 161.5t188 60z" />
<glyph unicode="&#xe8;" horiz-adv-x="864" d="M750 1359l-4 -5l-258 168l5 9zM804 864q0 -82 -35.5 -149t-96.5 -113.5t-147.5 -80t-184 -51t-211.5 -24.5q-5 -62 -5 -106q0 -170 65 -260.5t183 -90.5q77 0 140 29t135 91l4 -6q-74 -63 -137.5 -92.5t-141.5 -29.5q-122 0 -189 92t-67 266q0 78 11 159t33 165.5 t59.5 158.5t87 132t119 92t151.5 34q101 0 164 -57t63 -159zM577 1072q-85 0 -156.5 -37.5t-120.5 -99t-86 -143.5t-56.5 -166t-28.5 -173q143 8 260.5 35.5t210.5 75.5t144.5 124.5t51.5 175.5t-60.5 153.5t-158.5 54.5z" />
<glyph unicode="&#xe9;" horiz-adv-x="864" d="M758 1522l-307 -168l-2 7l305 170zM804 864q0 -82 -35.5 -149t-96.5 -113.5t-147.5 -80t-184 -51t-211.5 -24.5q-5 -62 -5 -106q0 -170 65 -260.5t183 -90.5q77 0 140 29t135 91l4 -6q-74 -63 -137.5 -92.5t-141.5 -29.5q-122 0 -189 92t-67 266q0 78 11 159t33 165.5 t59.5 158.5t87 132t119 92t151.5 34q101 0 164 -57t63 -159zM577 1072q-85 0 -156.5 -37.5t-120.5 -99t-86 -143.5t-56.5 -166t-28.5 -173q143 8 260.5 35.5t210.5 75.5t144.5 124.5t51.5 175.5t-60.5 153.5t-158.5 54.5z" />
<glyph unicode="&#xea;" horiz-adv-x="864" d="M615 1521l-206 -171l-6 5l209 174h6l158 -174l-7 -5zM804 864q0 -82 -35.5 -149t-96.5 -113.5t-147.5 -80t-184 -51t-211.5 -24.5q-5 -62 -5 -106q0 -170 65 -260.5t183 -90.5q77 0 140 29t135 91l4 -6q-74 -63 -137.5 -92.5t-141.5 -29.5q-122 0 -189 92t-67 266 q0 78 11 159t33 165.5t59.5 158.5t87 132t119 92t151.5 34q101 0 164 -57t63 -159zM577 1072q-85 0 -156.5 -37.5t-120.5 -99t-86 -143.5t-56.5 -166t-28.5 -173q143 8 260.5 35.5t210.5 75.5t144.5 124.5t51.5 175.5t-60.5 153.5t-158.5 54.5z" />
<glyph unicode="&#xeb;" horiz-adv-x="864" d="M470 1389q-15 0 -15 15t16 15q14 0 14 -14q0 -16 -15 -16zM725 1389q-14 0 -14 15t15 15q14 0 14 -14q0 -16 -15 -16zM804 864q0 -82 -35.5 -149t-96.5 -113.5t-147.5 -80t-184 -51t-211.5 -24.5q-5 -62 -5 -106q0 -170 65 -260.5t183 -90.5q77 0 140 29t135 91l4 -6 q-74 -63 -137.5 -92.5t-141.5 -29.5q-122 0 -189 92t-67 266q0 78 11 159t33 165.5t59.5 158.5t87 132t119 92t151.5 34q101 0 164 -57t63 -159zM577 1072q-85 0 -156.5 -37.5t-120.5 -99t-86 -143.5t-56.5 -166t-28.5 -173q143 8 260.5 35.5t210.5 75.5t144.5 124.5 t51.5 175.5t-60.5 153.5t-158.5 54.5z" />
<glyph unicode="&#xec;" horiz-adv-x="423" d="M229 1531l257 -172l-3 -5l-259 168zM290 1059l-148 -1059h-8l147 1059h9z" />
<glyph unicode="&#xed;" horiz-adv-x="423" d="M490 1531l4 -9l-307 -168l-2 7zM290 1059l-148 -1059h-8l147 1059h9z" />
<glyph unicode="&#xee;" horiz-adv-x="423" d="M145 1350l-6 5l209 174h6l158 -174l-6 -5l-155 171zM290 1059l-148 -1059h-8l147 1059h9z" />
<glyph unicode="&#xef;" horiz-adv-x="423" d="M206 1389q-15 0 -15 15t16 15q14 0 14 -14q0 -16 -15 -16zM461 1389q-14 0 -14 15t15 15q14 0 14 -14q0 -16 -15 -16zM290 1059l-148 -1059h-8l147 1059h9z" />
<glyph unicode="&#xf0;" horiz-adv-x="937" d="M650 1370q163 -161 163 -473q0 -96 -12 -198t-36 -205.5t-62.5 -195t-87.5 -163t-116 -113t-144 -41.5q-120 0 -184 90.5t-64 246.5q0 70 14 150t46.5 164t78 151.5t115 110.5t151.5 43q95 0 166 -64t115 -177q10 99 10.5 182t-12 174t-49.5 171t-98 142l-179 -187l-7 3 l181 189q-90 88 -217 127l3 7q129 -40 219 -128l130 135l6 -4zM355 -11q75 0 141 41.5t113 109.5t84.5 160t60.5 186.5t36 195.5q-97 247 -278 247q-81 0 -149 -42.5t-112.5 -109t-76 -149.5t-45 -162t-13.5 -148q0 -153 61.5 -241t177.5 -88z" />
<glyph unicode="&#xf1;" horiz-adv-x="974" d="M713 1403q-32 0 -64.5 22.5t-62.5 45t-56 22.5q-27 0 -50 -15.5t-62 -56.5l-6 4q40 43 64 59.5t54 16.5q27 0 58 -22.5t63 -45t62 -22.5q31 0 54.5 17t57.5 60l7 -4q-35 -45 -60.5 -63t-58.5 -18zM620 1080q111 0 159.5 -83t29.5 -223l-109 -774h-8l108 773 q19 138 -26.5 218.5t-153.5 80.5q-110 0 -199 -89.5t-183 -291.5l-96 -691h-8l147 1059h8l-48 -347q92 194 180 281t199 87z" />
<glyph unicode="&#xf2;" horiz-adv-x="940" d="M507 1531l257 -172l-4 -5l-258 168zM379 -19q-127 0 -195 97t-68 271q0 77 11 158t32.5 164t58.5 156t85 130t115 90t145 33q126 0 194 -95.5t68 -268.5q0 -92 -14.5 -188.5t-48.5 -195.5t-83.5 -176t-127.5 -126t-172 -49zM379 -11q93 0 169.5 48.5t125 125t82 174.5 t47.5 193t14 186q0 170 -66 263t-188 93q-92 0 -168 -47t-125 -122.5t-83 -172.5t-48.5 -192.5t-14.5 -188.5q0 -171 66 -265.5t189 -94.5z" />
<glyph unicode="&#xf3;" horiz-adv-x="940" d="M768 1531l4 -9l-308 -168l-1 7zM379 -19q-127 0 -195 97t-68 271q0 77 11 158t32.5 164t58.5 156t85 130t115 90t145 33q126 0 194 -95.5t68 -268.5q0 -92 -14.5 -188.5t-48.5 -195.5t-83.5 -176t-127.5 -126t-172 -49zM379 -11q93 0 169.5 48.5t125 125t82 174.5 t47.5 193t14 186q0 170 -66 263t-188 93q-92 0 -168 -47t-125 -122.5t-83 -172.5t-48.5 -192.5t-14.5 -188.5q0 -171 66 -265.5t189 -94.5z" />
<glyph unicode="&#xf4;" horiz-adv-x="940" d="M423 1350l-6 5l209 174h6l158 -174l-7 -5l-154 171zM379 -19q-127 0 -195 97t-68 271q0 77 11 158t32.5 164t58.5 156t85 130t115 90t145 33q126 0 194 -95.5t68 -268.5q0 -92 -14.5 -188.5t-48.5 -195.5t-83.5 -176t-127.5 -126t-172 -49zM379 -11q93 0 169.5 48.5 t125 125t82 174.5t47.5 193t14 186q0 170 -66 263t-188 93q-92 0 -168 -47t-125 -122.5t-83 -172.5t-48.5 -192.5t-14.5 -188.5q0 -171 66 -265.5t189 -94.5z" />
<glyph unicode="&#xf5;" horiz-adv-x="940" d="M709 1403q-32 0 -64.5 22.5t-62.5 45t-56 22.5q-27 0 -50 -15.5t-62 -56.5l-7 4q40 42 64.5 59t54.5 17q27 0 58 -22.5t63 -45t62 -22.5q31 0 54.5 17t57.5 60l7 -4q-35 -45 -60.5 -63t-58.5 -18zM379 -19q-127 0 -195 97t-68 271q0 77 11 158t32.5 164t58.5 156t85 130 t115 90t145 33q126 0 194 -95.5t68 -268.5q0 -92 -14.5 -188.5t-48.5 -195.5t-83.5 -176t-127.5 -126t-172 -49zM379 -11q93 0 169.5 48.5t125 125t82 174.5t47.5 193t14 186q0 170 -66 263t-188 93q-92 0 -168 -47t-125 -122.5t-83 -172.5t-48.5 -192.5t-14.5 -188.5 q0 -171 66 -265.5t189 -94.5z" />
<glyph unicode="&#xf6;" horiz-adv-x="940" d="M484 1389q-15 0 -15 15t15 15t15 -14q0 -16 -15 -16zM739 1389q-15 0 -15 15t15 15t15 -14q0 -16 -15 -16zM379 -19q-127 0 -195 97t-68 271q0 77 11 158t32.5 164t58.5 156t85 130t115 90t145 33q126 0 194 -95.5t68 -268.5q0 -92 -14.5 -188.5t-48.5 -195.5t-83.5 -176 t-127.5 -126t-172 -49zM379 -11q93 0 169.5 48.5t125 125t82 174.5t47.5 193t14 186q0 170 -66 263t-188 93q-92 0 -168 -47t-125 -122.5t-83 -172.5t-48.5 -192.5t-14.5 -188.5q0 -171 66 -265.5t189 -94.5z" />
<glyph unicode="&#xf7;" horiz-adv-x="831" d="M487 1068q-18 0 -18 17q0 7 5.5 12.5t12.5 5.5q17 0 17 -17q0 -18 -17 -18zM174 674l1 8h522l-1 -8h-522zM375 253q-17 0 -17 17q0 8 5 13t13 5q17 0 17 -17q0 -7 -5.5 -12.5t-12.5 -5.5z" />
<glyph unicode="&#xf8;" horiz-adv-x="940" d="M687 1049q138 -80 138 -333q0 -92 -14.5 -188.5t-48.5 -195.5t-83.5 -176t-127.5 -126t-172 -49q-65 0 -118 28l-100 -240l-7 1l100 243q-138 80 -138 336q0 77 11 158t32.5 164t58.5 156t85 130t115 90t145 33q64 0 116 -27l99 239l7 -1zM124 349q0 -250 133 -329l1 3 l418 1020l1 3q-50 26 -114 26q-92 0 -168 -47t-125 -122.5t-83 -172.5t-48.5 -192.5t-14.5 -188.5zM379 -11q93 0 169.5 48.5t125 125t82 174.5t47.5 193t14 186q0 250 -133 326l-1 -2l-418 -1020l-1 -4q50 -27 115 -27z" />
<glyph unicode="&#xf9;" horiz-adv-x="966" d="M499 1531l257 -172l-4 -5l-258 168zM359 -19q-109 0 -160 81.5t-31 224.5l107 772h8l-106 -772q-19 -140 29.5 -219t152.5 -79q113 0 205.5 92t160.5 259l100 719h8l-148 -1059h-7l47 324q-67 -163 -160 -253t-206 -90z" />
<glyph unicode="&#xfa;" horiz-adv-x="966" d="M760 1531l4 -9l-308 -168l-1 7zM359 -19q-109 0 -160 81.5t-31 224.5l107 772h8l-106 -772q-19 -140 29.5 -219t152.5 -79q113 0 205.5 92t160.5 259l100 719h8l-148 -1059h-7l47 324q-67 -163 -160 -253t-206 -90z" />
<glyph unicode="&#xfb;" horiz-adv-x="966" d="M414 1350l-6 5l210 174h6l157 -174l-6 -5l-154 171zM359 -19q-109 0 -160 81.5t-31 224.5l107 772h8l-106 -772q-19 -140 29.5 -219t152.5 -79q113 0 205.5 92t160.5 259l100 719h8l-148 -1059h-7l47 324q-67 -163 -160 -253t-206 -90z" />
<glyph unicode="&#xfc;" horiz-adv-x="966" d="M475 1389q-14 0 -14 15t15 15t15 -14q0 -16 -16 -16zM731 1389q-15 0 -15 15t15 15t15 -14q0 -16 -15 -16zM359 -19q-109 0 -160 81.5t-31 224.5l107 772h8l-106 -772q-19 -140 29.5 -219t152.5 -79q113 0 205.5 92t160.5 259l100 719h8l-148 -1059h-7l47 324 q-67 -163 -160 -253t-206 -90z" />
<glyph unicode="&#xfd;" horiz-adv-x="745" d="M650 1531l4 -9l-308 -168l-1 7zM764 1059l-449 -1059q-33 -78 -55.5 -125t-51.5 -93.5t-60 -74.5t-72.5 -52t-96.5 -43v7q54 18 94.5 42t70 51t58 73.5t50.5 91.5t55 123h-6l-171 1059h8l170 -1054l447 1054h9z" />
<glyph unicode="&#xfe;" horiz-adv-x="950" d="M603 1080q236 0 236 -338q0 -97 -15.5 -199t-51 -203.5t-86.5 -180.5t-128 -128.5t-169 -49.5q-129 0 -241 70l-61 -439l-9 -2l265 1886h8l-88 -629q84 102 166 157.5t174 55.5zM389 -11q91 0 166.5 49t125.5 128t84.5 179.5t50 201t15.5 195.5q0 330 -229 330 q-166 0 -339 -216l-112 -797q108 -70 238 -70z" />
<glyph unicode="&#xff;" horiz-adv-x="745" d="M365 1389q-14 0 -14 15t15 15t15 -14q0 -16 -16 -16zM621 1389q-15 0 -15 15t15 15t15 -14q0 -16 -15 -16zM764 1059l-449 -1059q-33 -78 -55.5 -125t-51.5 -93.5t-60 -74.5t-72.5 -52t-96.5 -43v7q54 18 94.5 42t70 51t58 73.5t50.5 91.5t55 123h-6l-171 1059h8 l170 -1054l447 1054h9z" />
<glyph unicode="&#x152;" horiz-adv-x="1404" d="M1429 1393l-2 -8h-613q92 -45 142.5 -159t50.5 -289q0 -91 -12 -194h272l-3 -8h-270q-12 -93 -32 -181t-54 -176.5t-77 -160t-103 -127.5t-130 -82h653l-1 -8h-673q-51 -19 -113 -19q-151 0 -234.5 123.5t-83.5 351.5q0 115 19 241t62 255t104 230.5t153 166t201 64.5 q63 0 112 -20h632zM998 938q0 227 -83.5 347.5t-231.5 120.5q-90 0 -168.5 -45t-135 -121t-100.5 -172.5t-70.5 -204t-40 -210.5t-13.5 -197q0 -225 81 -346t228 -121q113 0 206.5 64.5t153 166t100 230.5t57.5 251.5t17 236.5z" />
<glyph unicode="&#x153;" horiz-adv-x="1538" d="M1477 864q0 -82 -35.5 -149t-96.5 -113.5t-148 -80t-184.5 -51t-211.5 -24.5q-4 -49 -4 -106q0 -170 64.5 -260.5t182.5 -90.5q77 0 140.5 29t135.5 91l4 -6q-74 -63 -138 -92.5t-142 -29.5q-122 0 -189 92.5t-67 267.5q0 42 5 100q-17 -74 -41 -138.5t-60.5 -124.5 t-81 -103t-104 -68.5t-127.5 -25.5q-127 0 -195 97t-68 271q0 77 11 158t32.5 164t58.5 156t85 130t115 90t145 33q126 0 194 -95.5t68 -268.5q0 -44 -5 -104q22 95 57 175t86.5 148t125 106.5t161.5 38.5q101 0 164 -57t63 -159zM379 -11q93 0 169.5 48.5t125 125t82 174.5 t47.5 193t14 186q0 170 -66 263t-188 93q-92 0 -168 -47t-125 -122.5t-83 -172.5t-48.5 -192.5t-14.5 -188.5q0 -171 66 -265.5t189 -94.5zM1250 1072q-71 0 -133 -26t-108 -72t-82.5 -105.5t-61.5 -130t-40.5 -141.5t-22.5 -144q143 8 260.5 35.5t210 75.5t144 124.5 t51.5 175.5t-60 153.5t-158 54.5z" />
<glyph unicode="&#x178;" horiz-adv-x="806" d="M433 1647q-14 0 -14 15t15 15t15 -14q0 -16 -16 -16zM689 1647q-15 0 -15 15t15 15t15 -14q0 -16 -15 -16zM887 1393l-476 -838l-78 -555h-8l78 555l-242 838h8l239 -830l470 830h9z" />
<glyph unicode="&#x2c6;" horiz-adv-x="495" d="M184 1350l-6 5l209 174h7l157 -174l-6 -5l-155 171z" />
<glyph unicode="&#x2dc;" horiz-adv-x="534" d="M488 1403q-32 0 -64.5 22.5t-62.5 45t-56 22.5q-27 0 -50 -15.5t-62 -56.5l-7 4q40 42 64.5 59t54.5 17q27 0 58 -22.5t63 -45t62 -22.5q31 0 54.5 17t57.5 60l7 -4q-35 -45 -60.5 -63t-58.5 -18z" />
<glyph unicode="&#x2000;" horiz-adv-x="931" />
<glyph unicode="&#x2001;" horiz-adv-x="1863" />
<glyph unicode="&#x2002;" horiz-adv-x="931" />
<glyph unicode="&#x2003;" horiz-adv-x="1863" />
<glyph unicode="&#x2004;" horiz-adv-x="621" />
<glyph unicode="&#x2005;" horiz-adv-x="465" />
<glyph unicode="&#x2006;" horiz-adv-x="310" />
<glyph unicode="&#x2007;" horiz-adv-x="310" />
<glyph unicode="&#x2008;" horiz-adv-x="232" />
<glyph unicode="&#x2009;" horiz-adv-x="372" />
<glyph unicode="&#x200a;" horiz-adv-x="103" />
<glyph unicode="&#x2010;" horiz-adv-x="675" d="M158 635v8h390v-8h-390z" />
<glyph unicode="&#x2011;" horiz-adv-x="675" d="M158 635v8h390v-8h-390z" />
<glyph unicode="&#x2012;" horiz-adv-x="675" d="M158 635v8h390v-8h-390z" />
<glyph unicode="&#x2013;" horiz-adv-x="876" d="M109 635v8h689v-8h-689z" />
<glyph unicode="&#x2014;" horiz-adv-x="1298" d="M109 635l1 8h1111l-1 -8h-1111z" />
<glyph unicode="&#x2018;" horiz-adv-x="401" d="M303 1314q-13 0 -13 13q0 9 12 35l107 230h7l-111 -251q12 -2 12 -13q0 -14 -14 -14z" />
<glyph unicode="&#x2019;" horiz-adv-x="399" d="M337 1448q13 0 13 -13q0 -9 -12 -35l-107 -231h-6l110 252q-12 2 -12 13q0 14 14 14z" />
<glyph unicode="&#x201a;" horiz-adv-x="399" d="M136 24q14 0 14 -13q0 -8 -12 -34l-107 -231h-7l111 252q-12 2 -12 12q0 14 13 14z" />
<glyph unicode="&#x201c;" horiz-adv-x="542" d="M303 1314q-13 0 -13 13q0 9 12 35l107 230h7l-111 -251q12 -2 12 -13q0 -14 -14 -14zM444 1314q-13 0 -13 13q0 9 12 35l107 230h6l-110 -251q12 -2 12 -13q0 -14 -14 -14z" />
<glyph unicode="&#x201d;" horiz-adv-x="540" d="M337 1448q13 0 13 -13q0 -9 -12 -35l-107 -231h-6l110 252q-12 2 -12 13q0 14 14 14zM478 1448q13 0 13 -13q0 -9 -12 -35l-107 -231h-7l111 252q-12 2 -12 13q0 14 14 14z" />
<glyph unicode="&#x201e;" horiz-adv-x="540" d="M136 24q14 0 14 -13q0 -8 -12 -34l-107 -231h-7l111 252q-12 2 -12 12q0 14 13 14zM277 24q14 0 14 -13q0 -8 -12 -34l-107 -231h-7l110 252q-11 2 -11 12q0 14 13 14z" />
<glyph unicode="&#x2022;" horiz-adv-x="382" d="M219 742q19 0 19 -19q0 -8 -6 -14t-15 -6q-19 0 -19 19q0 8 6 14t15 6z" />
<glyph unicode="&#x2026;" horiz-adv-x="700" d="M43 -9q-17 0 -17 17q0 8 5 13t13 5q17 0 17 -17q0 -7 -5.5 -12.5t-12.5 -5.5zM277 -9q-17 0 -17 17q0 8 5 13t13 5q17 0 17 -17q0 -7 -5.5 -12.5t-12.5 -5.5zM511 -9q-18 0 -18 17q0 8 5.5 13t12.5 5q17 0 17 -17q0 -18 -17 -18z" />
<glyph unicode="&#x202f;" horiz-adv-x="372" />
<glyph unicode="&#x2039;" horiz-adv-x="608" d="M487 1014l7 -4l-299 -420l184 -418l-7 -4l-186 418l1 7z" />
<glyph unicode="&#x203a;" horiz-adv-x="604" d="M252 1014l182 -421v-6l-301 -419l-6 4l299 418l-180 420z" />
<glyph unicode="&#x205f;" horiz-adv-x="465" />
<glyph unicode="&#x20ac;" horiz-adv-x="966" d="M761 1373q73 0 127 -25.5t106 -78.5l-5 -7q-51 53 -104 78t-125 25q-149 0 -275 -138.5t-201 -394.5h484l-2 -8h-484l-45 -268h436l-3 -8h-434q-21 -279 53 -419t229 -140q114 0 234 85l1 -9q-120 -84 -236 -84q-158 0 -234 142.5t-55 424.5h-121l1 8h121l44 268h-117 l2 8h117q76 259 205 400t281 141z" />
<glyph unicode="&#x2122;" horiz-adv-x="1443" d="M686 1393l-2 -8h-226l-106 -765h-8l106 765h-226v8h462zM1298 1393l-64 -773h-8l56 680q1 12 3.5 40.5t4.5 43.5l-327 -672h-7l-140 673q-7 -45 -21 -120l-123 -645h-8l147 773h9l140 -673l327 673h11z" />
<glyph unicode="&#x25fc;" horiz-adv-x="1054" d="M0 1055h1055v-1055h-1055v1055z" />
<glyph unicode="&#xfb03;" horiz-adv-x="1400" d="M1266 1059l-147 -1059h-9l147 1052h-469l-151 -1069q-21 -143 -58 -215.5t-109 -124.5l-4 5q70 52 106.5 124t56.5 211l151 1069h-476l-149 -1069q-22 -164 -69 -238.5t-152 -136.5l-3 5q68 40 107 80t66.5 109.5t42.5 180.5l149 1069h-152l1 7h152l26 186 q17 115 91 175.5t186 60.5q121 0 254 -85q64 106 191 106q62 0 109 -19t97 -59l-6 -5q-49 39 -94 57t-106 18q-92 0 -151 -58t-75 -171l-29 -206h476zM781 1059l30 207q10 73 41 127l-3 -2q-132 83 -249 83q-109 0 -181.5 -58.5t-88.5 -171.5l-25 -185h476z" />
<glyph unicode="&#xfb04;" horiz-adv-x="1462" d="M1224 -11q35 0 71 17l3 -8q-39 -17 -75 -17q-52 0 -74 35t-12 97l187 1317q-139 64 -264 64q-99 0 -163 -58t-80 -171l-29 -206h250l-2 -7h-249l-152 -1069q-21 -143 -58 -215.5t-109 -124.5l-3 5q70 52 106 124t56 211l151 1069h-474l-149 -1069q-22 -164 -69 -238.5 t-152 -136.5l-3 5q68 40 107 80t66.5 109.5t42.5 180.5l149 1069h-152l1 7h152l26 186q17 115 91 175.5t186 60.5q121 0 254 -85q68 106 206 106q127 0 267 -67l6 1l-188 -1323q-16 -124 79 -124zM809 1266q10 74 44 128l-4 -3q-132 83 -249 83q-109 0 -181.5 -58.5 t-88.5 -171.5l-25 -185h475z" />
</font>
</defs>
</svg>
