<?xml version="1.0" standalone="no"?>
<!DOCTYPE svg PUBLIC "-//W3C//DTD SVG 1.1//EN" "http://www.w3.org/Graphics/SVG/1.1/DTD/svg11.dtd" >
<svg xmlns="http://www.w3.org/2000/svg" xmlns:xlink="http://www.w3.org/1999/xlink" version="1.1">
<metadata></metadata>
<defs>
<font id="fira_sans_compressedbold" horiz-adv-x="884" >
<font-face units-per-em="2048" ascent="1638" descent="-410" />
<missing-glyph horiz-adv-x="378" />
<glyph unicode="&#xfb01;" horiz-adv-x="1038" d="M537 1552q187 0 319 -79l-82 -195q-95 45 -194 45q-70 0 -98.5 -29.5t-28.5 -97.5v-109h495v-1087h-309v870h-186v-870h-310v870h-135v217h135v121q0 70 22.5 130t68.5 109t123.5 77t179.5 28z" />
<glyph unicode="&#xfb02;" horiz-adv-x="1105" d="M1057 217l55 -213q-76 -39 -172 -39q-129 0 -201.5 76.5t-72.5 206.5v1067q-55 14 -103 14q-63 0 -86.5 -29t-23.5 -96v-117h149l-33 -217h-116v-870h-310v870h-135v217h135v123q0 148 94.5 245t272.5 97q98 0 195 -34l270 26v-1282q0 -51 45 -51q13 0 37 6z" />
<glyph horiz-adv-x="0" />
<glyph horiz-adv-x="682" />
<glyph unicode="&#xd;" horiz-adv-x="378" />
<glyph unicode=" "  horiz-adv-x="378" />
<glyph unicode="&#x09;" horiz-adv-x="378" />
<glyph unicode="&#xa0;" horiz-adv-x="378" />
<glyph unicode="!" horiz-adv-x="452" d="M387 1419l-43 -903h-238l-43 903h324zM225 324q77 0 126.5 -54t49.5 -127t-49.5 -125.5t-126.5 -52.5q-76 0 -125 52.5t-49 125.5t49 127t125 54z" />
<glyph unicode="&#x22;" horiz-adv-x="845" d="M119 852l-33 567h262l-33 -567h-196zM530 852l-32 567h262l-33 -567h-197z" />
<glyph unicode="#" horiz-adv-x="958" d="M934 903h-107l-53 -399h98v-203h-124l-41 -301h-240l39 301h-158l-39 -301h-241l38 301h-81v203h108l53 399h-100v203h127l37 278h242l-37 -278h157l37 278h242l-37 -278h80v-203zM532 504l54 399h-158l-53 -399h157z" />
<glyph unicode="$" horiz-adv-x="937" d="M903 408q0 -152 -83 -262t-230 -150v-324h-213v308q-220 21 -375 190l148 164q137 -127 270 -127q85 0 126.5 47.5t41.5 130.5q0 75 -43 123t-152 92q-189 79 -267.5 173.5t-78.5 240.5q0 148 92 251.5t238 131.5v301h213v-303q163 -32 284 -162l-135 -160 q-116 107 -233 107q-70 0 -108 -39t-38 -103t44 -105t169 -95q85 -37 142 -73t102 -86.5t65.5 -116.5t20.5 -154z" />
<glyph unicode="%" horiz-adv-x="1499" d="M1051 1473l184 -105l-784 -1448l-183 105zM365 1413q135 0 221 -95.5t86 -273.5q0 -176 -86 -271t-221 -95q-134 0 -221 94.5t-87 271.5t87 273t221 96zM365 1233q-54 0 -76.5 -46t-22.5 -143q0 -95 22.5 -140.5t76.5 -45.5t75 44.5t21 141.5t-21.5 143t-74.5 46z M1135 698q134 0 220.5 -94.5t86.5 -271.5t-86 -272t-221 -95q-136 0 -224 95t-88 272t88 271.5t224 94.5zM1135 518q-56 0 -78.5 -44t-22.5 -142t22.5 -142.5t78.5 -44.5q54 0 75 44t21 143t-21 142.5t-75 43.5z" />
<glyph unicode="&#x26;" horiz-adv-x="1306" d="M543 1454q181 0 282 -92.5t101 -243.5q0 -116 -57.5 -205t-170.5 -178l220 -268q39 113 73 289l240 -60q-59 -218 -156 -385l211 -219l-258 -127l-133 162q-165 -162 -379 -162q-186 0 -303 110.5t-117 284.5q0 124 55 215t179 185q-97 101 -132.5 177.5t-35.5 176.5 q0 68 24 128.5t69.5 108t119.5 75.5t168 28zM547 1253q-94 0 -94 -139q0 -68 18 -114t68 -113q54 62 75 109.5t21 119.5q0 137 -88 137zM498 590q-80 -86 -80 -215q0 -93 43 -141t117 -48q98 0 174 88z" />
<glyph unicode="'" horiz-adv-x="434" d="M119 852l-33 567h262l-33 -567h-196z" />
<glyph unicode="(" horiz-adv-x="573" d="M352 1755l199 -131q-122 -207 -171.5 -407t-49.5 -500q0 -299 49.5 -499.5t171.5 -407.5l-199 -132q-59 90 -100.5 162t-88 174.5t-74.5 202t-47 229.5t-19 271t19 271t47 229t74.5 201.5t88 174.5t100.5 162z" />
<glyph unicode=")" horiz-adv-x="573" d="M219 1755q64 -102 102 -169t87.5 -173.5t76.5 -201t46.5 -224t19.5 -270.5t-19.5 -270.5t-46.5 -224.5t-76.5 -201.5t-88 -173.5t-101.5 -169l-196 132q118 206 168.5 411.5t50.5 495.5q0 291 -50 495.5t-169 411.5z" />
<glyph unicode="*" horiz-adv-x="802" d="M776 1102l-231 -49l180 -213l-213 -135l-111 247l-108 -250l-213 136l178 215l-231 49l79 227l209 -115l-39 306h252l-41 -308l209 119z" />
<glyph unicode="+" horiz-adv-x="913" d="M582 1110v-311h260v-240h-260v-311h-250v311h-260v240h260v311h250z" />
<glyph unicode="," horiz-adv-x="438" d="M219 324q74 0 121 -50.5t47 -126.5q0 -33 -11.5 -72t-40.5 -119l-9 -24l-109 -292h-162l76 356q-80 58 -80 151q0 76 47.5 126.5t120.5 50.5z" />
<glyph unicode="-" horiz-adv-x="712" d="M78 520v242h559v-242h-559z" />
<glyph unicode="." horiz-adv-x="450" d="M225 324q76 0 125 -54t49 -127t-49 -125.5t-125 -52.5q-77 0 -125.5 52.5t-48.5 125.5t48.5 127t125.5 54z" />
<glyph unicode="/" horiz-adv-x="872" d="M510 1669l262 -59l-410 -1837l-260 59z" />
<glyph unicode="0" horiz-adv-x="1052" d="M528 1413q218 0 332.5 -182.5t114.5 -540.5q0 -725 -447 -725q-450 0 -450 725q0 723 450 723zM528 1184q-51 0 -79 -40t-42 -147t-14 -307q0 -204 14 -311.5t41.5 -145.5t79.5 -38t78.5 38.5t39.5 144.5t13 312q0 202 -13 308t-40 146t-78 40z" />
<glyph unicode="1" horiz-adv-x="800" d="M674 1382v-1382h-301v1081l-234 -174l-137 195l395 280h277z" />
<glyph unicode="2" horiz-adv-x="862" d="M391 1413q99 0 178.5 -30.5t130 -83.5t77 -121.5t26.5 -147.5q0 -112 -37 -212t-131.5 -234t-278.5 -344h471l-32 -240h-768v221q195 238 290 373.5t132.5 228t37.5 187.5q0 82 -34 123t-97 41q-56 0 -97.5 -30t-98.5 -102l-178 134q155 237 409 237z" />
<glyph unicode="3" horiz-adv-x="890" d="M410 1413q180 0 288.5 -103t108.5 -253q0 -253 -264 -326q143 -18 223 -100t80 -236q0 -86 -30 -163t-85.5 -137t-142.5 -95t-193 -35q-131 0 -229 52t-184 155l165 150q62 -65 111 -93t111 -28q72 0 116.5 54.5t44.5 154.5q0 109 -49 157.5t-143 48.5h-88l33 211h59 q78 0 124 50t46 141q0 81 -38.5 123.5t-106.5 42.5q-111 0 -211 -111l-154 154q174 186 408 186z" />
<glyph unicode="4" horiz-adv-x="970" d="M942 535v-234h-121v-301h-289l-2 301h-493v209l317 909l260 -92l-268 -792h189l34 333h252v-333h121z" />
<glyph unicode="5" horiz-adv-x="931" d="M823 1384l-35 -223h-407v-309q86 53 174 53q144 0 235 -116.5t91 -331.5q0 -221 -127.5 -356.5t-341.5 -135.5q-241 0 -396 207l168 150q52 -62 101 -92.5t112 -30.5q170 0 170 256q0 131 -36 184t-103 53q-62 0 -131 -49h-205v741h731z" />
<glyph unicode="6" horiz-adv-x="1003" d="M637 928q144 0 234 -120.5t90 -334.5q0 -232 -113.5 -370t-317.5 -138q-452 0 -452 668q0 359 140 569.5t382 210.5q150 0 268 -92l-108 -178q-73 47 -144 47q-93 0 -151 -97t-70 -292q91 127 242 127zM653 471q3 139 -24.5 193.5t-81.5 54.5q-80 0 -154 -123 q1 -230 31 -319t104 -89q64 0 93.5 67.5t31.5 215.5z" />
<glyph unicode="7" horiz-adv-x="802" d="M782 1384v-210l-415 -1207l-277 90l381 1094h-457v233h768z" />
<glyph unicode="8" horiz-adv-x="995" d="M715 743q128 -71 184.5 -160t56.5 -210q0 -183 -122 -295.5t-345 -112.5q-212 0 -331 111.5t-119 292.5q0 119 56 202t169 140q-98 67 -139 147t-41 182q0 172 111.5 272.5t296.5 100.5q194 0 307.5 -94.5t113.5 -261.5q0 -195 -198 -314zM500 1202q-62 0 -92.5 -36 t-30.5 -130q0 -75 27 -119.5t96 -80.5l32 -17q52 51 70.5 101.5t18.5 119.5q0 87 -29.5 124.5t-91.5 37.5zM502 186q155 0 155 189q0 87 -35 135.5t-128 93.5l-50 25q-104 -83 -104 -246q0 -197 162 -197z" />
<glyph unicode="9" horiz-adv-x="987" d="M483 1413q219 0 334 -142t115 -397q0 -211 -44 -366t-139 -265.5t-232 -181.5t-335 -118l-61 219q149 43 243.5 96.5t155.5 138t86 209.5q-98 -125 -233 -125q-137 0 -235.5 125.5t-98.5 329.5q0 225 124 351t320 126zM473 696q82 0 143 115q1 151 -11.5 233.5t-40.5 117 t-79 34.5q-137 0 -137 -250t125 -250z" />
<glyph unicode=":" horiz-adv-x="450" d="M225 1032q76 0 125 -53.5t49 -126.5t-49 -125.5t-125 -52.5q-77 0 -125.5 52.5t-48.5 125.5t48.5 126.5t125.5 53.5zM225 324q76 0 125 -54t49 -127t-49 -125.5t-125 -52.5q-77 0 -125.5 52.5t-48.5 125.5t48.5 127t125.5 54z" />
<glyph unicode=";" horiz-adv-x="450" d="M225 1032q76 0 125 -53.5t49 -126.5t-49 -125.5t-125 -52.5q-77 0 -125.5 52.5t-48.5 125.5t48.5 126.5t125.5 53.5zM219 324q74 0 121 -50.5t47 -126.5q0 -33 -11.5 -72t-40.5 -119l-9 -24l-109 -292h-162l76 356q-80 58 -80 151q0 76 47.5 126.5t120.5 50.5z" />
<glyph unicode="&#x3c;" d="M735 1163l105 -209l-549 -272l549 -266l-105 -215l-692 352v258z" />
<glyph unicode="=" horiz-adv-x="882" d="M72 774v234h739v-234h-739zM72 348v234h739v-234h-739z" />
<glyph unicode="&#x3e;" d="M147 1163l693 -352v-258l-693 -352l-104 215l549 266l-549 272z" />
<glyph unicode="?" horiz-adv-x="843" d="M434 1454q93 0 168 -28.5t121.5 -76.5t71 -108t24.5 -127q0 -73 -22.5 -131t-55.5 -93t-72.5 -71t-72.5 -66t-55.5 -77t-22.5 -105v-55h-276v68q0 71 14.5 127.5t37.5 92.5t51 65t56 52.5t51 47.5t37.5 57t14.5 74q0 53 -28.5 81.5t-78.5 28.5q-49 0 -94 -27t-96 -87 l-182 141q154 217 409 217zM383 324q76 0 125 -54t49 -127t-49 -125.5t-125 -52.5q-77 0 -125.5 52.5t-48.5 125.5t48.5 127t125.5 54z" />
<glyph unicode="@" horiz-adv-x="1734" d="M891 1028q170 0 307 -92v-506q0 -135 14.5 -181t53.5 -46q125 0 125 438q0 285 -121.5 437.5t-372.5 152.5q-176 0 -300.5 -91.5t-186.5 -256t-62 -387.5q0 -723 551 -723q176 0 332 67l69 -207q-191 -86 -405 -86q-383 0 -600 253.5t-217 695.5q0 207 62 385.5 t169.5 303.5t259.5 196t326 71q142 0 265 -42t213 -116.5t155 -176t97 -221.5t32 -251q0 -183 -49.5 -328.5t-136 -226t-193.5 -80.5q-93 0 -152.5 57.5t-74.5 139.5q-74 -191 -246 -191q-151 0 -230 121.5t-79 339.5q0 260 102.5 405.5t292.5 145.5zM850 207q50 0 92 72 v546q-29 13 -63 13q-41 0 -64 -30t-35 -109.5t-12 -223.5q0 -158 18 -213t64 -55z" />
<glyph unicode="A" horiz-adv-x="1036" d="M729 0l-57 311h-316l-55 -311h-319l344 1419h385l344 -1419h-326zM399 543h232l-117 641z" />
<glyph unicode="B" horiz-adv-x="1050" d="M733 752q62 -15 110.5 -38.5t90 -62.5t64 -99.5t22.5 -139.5q0 -109 -39.5 -189.5t-112 -128.5t-168 -71t-215.5 -23h-391v1419h346q253 0 392 -91t139 -271q0 -120 -66 -196.5t-172 -108.5zM471 1192h-55v-344h61q91 0 130.5 45t39.5 133q0 82 -41.5 124t-134.5 42z M489 233q99 0 151 46.5t52 150.5q0 103 -46.5 153t-149.5 50h-80v-400h73z" />
<glyph unicode="C" horiz-adv-x="991" d="M600 1454q213 0 375 -156l-150 -176q-105 92 -202 92q-74 0 -123.5 -45.5t-79 -159t-29.5 -296.5q0 -180 29.5 -292.5t80 -159t124.5 -46.5q42 0 82.5 15.5t65.5 33t69 53.5l145 -172q-165 -180 -391 -180q-120 0 -217.5 46t-170 136t-112 234.5t-39.5 331.5 q0 183 40.5 326t114 233t171.5 136t217 46z" />
<glyph unicode="D" horiz-adv-x="1124" d="M453 1419q74 0 135 -7t126 -26.5t115 -52t96 -86.5t76.5 -126.5t48 -175t17.5 -228.5q0 -168 -32 -295t-84.5 -206t-130.5 -128.5t-161 -68.5t-184 -19h-381v1419h359zM494 1188h-78v-955h78q60 0 102.5 21.5t75.5 74t49 149t16 239.5q0 144 -17 239.5t-51 145t-75 68 t-100 18.5z" />
<glyph unicode="E" d="M844 1419l-33 -229h-395v-356h348v-226h-348v-375h422v-233h-744v1419h750z" />
<glyph unicode="F" horiz-adv-x="827" d="M94 0v1419h725l-33 -229h-370v-389h325v-232h-325v-569h-322z" />
<glyph unicode="G" horiz-adv-x="1116" d="M637 1454q231 0 403 -172l-153 -162q-63 53 -116 77t-120 24q-64 0 -110 -24t-81.5 -81t-53 -157.5t-17.5 -247.5q0 -201 24 -314t67 -153.5t118 -40.5q76 0 141 43v340h-135l-31 227h469v-700q-93 -68 -209 -107t-229 -39q-282 0 -414.5 180t-132.5 564q0 188 44.5 332 t124 233t183 133.5t228.5 44.5z" />
<glyph unicode="H" horiz-adv-x="1128" d="M713 0v612h-297v-612h-322v1419h322v-555h297v555h321v-1419h-321z" />
<glyph unicode="I" horiz-adv-x="512" d="M416 1419v-1419h-322v1419h322z" />
<glyph unicode="J" horiz-adv-x="546" d="M457 1419v-1206q0 -101 -23.5 -184t-59.5 -138.5t-92 -102t-108 -74t-121 -54.5l-84 225q105 53 135.5 122t30.5 218v1194h322z" />
<glyph unicode="K" horiz-adv-x="1105" d="M416 1419v-1419h-322v1419h322zM1100 1419l-352 -639l382 -780h-350l-354 758l356 661h318z" />
<glyph unicode="L" horiz-adv-x="872" d="M416 1419v-1165h446l-33 -254h-735v1419h322z" />
<glyph unicode="M" horiz-adv-x="1366" d="M1227 1419l84 -1419h-303l-13 563q-10 325 -4 570l-157 -981h-302l-165 983q8 -277 2 -576l-13 -559h-301l86 1419h398l149 -970l135 970h404z" />
<glyph unicode="N" horiz-adv-x="1120" d="M1026 1419v-1419h-397l-299 1124q1 -9 7 -61.5t8 -73t7.5 -71.5t7.5 -86.5t5.5 -86.5t4.5 -102.5t1 -105.5v-537h-277v1419h398l299 -1124q-43 289 -43 530v594h278z" />
<glyph unicode="O" horiz-adv-x="1189" d="M594 1454q262 0 400.5 -184.5t138.5 -558.5q0 -369 -139 -557.5t-400 -188.5t-399 186t-138 560q0 368 138.5 555.5t398.5 187.5zM594 1219q-107 0 -155 -115.5t-48 -392.5q0 -192 22.5 -304.5t65.5 -159t115 -46.5q74 0 117.5 46.5t65.5 158.5t22 305q0 277 -48.5 392.5 t-156.5 115.5z" />
<glyph unicode="P" horiz-adv-x="1021" d="M459 1419q265 0 403.5 -117t138.5 -344q0 -239 -133 -360t-376 -121h-76v-477h-322v1419h365zM465 711q111 0 159 56t48 191q0 120 -46.5 176t-156.5 56h-53v-479h49z" />
<glyph unicode="Q" horiz-adv-x="1189" d="M844 90q124 -1 210 -34.5t163 -106.5l-193 -242q-85 125 -192 195.5t-259 70.5q-244 0 -380 188.5t-136 549.5q0 364 139 553.5t398 189.5q261 0 400 -187t139 -556q0 -132 -23 -236.5t-65.5 -176.5t-90 -120t-110.5 -88zM391 711q0 -191 22.5 -303t65.5 -158.5 t115 -46.5q74 0 117.5 46.5t65.5 158t22 303.5q0 190 -22.5 302t-66 159t-116.5 47q-72 0 -115 -47t-65.5 -159t-22.5 -302z" />
<glyph unicode="R" horiz-adv-x="1058" d="M1077 0h-342l-231 547h-10h-78v-547h-322v1419h379q528 0 528 -430q0 -126 -52.5 -225.5t-162.5 -155.5zM416 770h65q103 0 148 52.5t45 166.5q0 105 -48.5 154t-154.5 49h-55v-422z" />
<glyph unicode="S" horiz-adv-x="976" d="M494 1454q132 0 233 -45t186 -135l-141 -168q-122 113 -244 113q-70 0 -108.5 -41t-38.5 -109q0 -65 45 -107.5t174 -97.5q71 -31 121 -60.5t94 -68t70.5 -83.5t41.5 -104.5t15 -133.5q0 -198 -129.5 -323.5t-349.5 -125.5q-276 0 -461 201l154 170q74 -66 140.5 -99.5 t141.5 -33.5q85 0 127.5 50.5t42.5 135.5q0 78 -43 128.5t-155 94.5q-196 83 -278.5 182t-82.5 250q0 182 126 296t319 114z" />
<glyph unicode="T" horiz-adv-x="921" d="M926 1419l-33 -245h-272v-1174h-322v1174h-289v245h916z" />
<glyph unicode="U" horiz-adv-x="1097" d="M1024 1419v-1009q0 -94 -29.5 -173.5t-86.5 -140t-149 -95t-210 -34.5q-233 0 -354 121.5t-121 321.5v1009h321v-995q0 -111 36 -164t118 -53t117.5 53t35.5 164v995h322z" />
<glyph unicode="V" horiz-adv-x="999" d="M1018 1419l-303 -1419h-414l-319 1419h321l209 -1165l193 1165h313z" />
<glyph unicode="W" horiz-adv-x="1458" d="M1442 1419l-178 -1419h-420l-117 1100l-129 -1100h-410l-172 1419h308l102 -1173l139 1173h332l131 -1173l119 1173h295z" />
<glyph unicode="X" horiz-adv-x="1001" d="M686 766l330 -766h-336l-186 553l-177 -553h-331l317 754l-295 665h336l154 -467l164 467h327z" />
<glyph unicode="Y" horiz-adv-x="1024" d="M1047 1419l-373 -884v-535h-322v532l-372 887h335l201 -635l205 635h326z" />
<glyph unicode="Z" horiz-adv-x="921" d="M885 1419v-243l-514 -918h524l-31 -258h-844v240l512 929h-462v250h815z" />
<glyph unicode="[" horiz-adv-x="555" d="M526 1683v-229h-192v-1477h192v-227h-483v1933h483z" />
<glyph unicode="\" horiz-adv-x="872" d="M362 1667l410 -1835l-262 -59l-408 1835z" />
<glyph unicode="]" horiz-adv-x="555" d="M510 1683v-1933h-481v227h192v1479h-192v227h481z" />
<glyph unicode="^" horiz-adv-x="962" d="M623 1726l317 -647h-299l-164 414l-153 -414h-301l317 647h283z" />
<glyph unicode="_" d="M18 -344v244h850v-244h-850z" />
<glyph unicode="`" horiz-adv-x="618" d="M193 1690l374 -263l-84 -149l-411 192z" />
<glyph unicode="a" horiz-adv-x="935" d="M840 289q0 -52 12 -76.5t43 -38.5l-64 -203q-88 8 -144 42t-87 106q-95 -154 -268 -154q-135 0 -215 93t-80 247q0 178 110.5 271.5t323.5 93.5h66v57q0 98 -30.5 136t-105.5 38q-95 0 -233 -55l-70 196q177 80 361 80q193 0 287 -93.5t94 -285.5v-454zM426 184 q72 0 111 103v211h-37q-84 0 -122 -40t-38 -126q0 -72 23 -110t63 -38z" />
<glyph unicode="b" horiz-adv-x="1021" d="M643 1122q160 0 243 -145.5t83 -433.5q0 -268 -96 -423t-263 -155q-145 0 -229 133l-14 -98h-275v1520l309 32v-565q42 63 105 99t137 36zM520 190q63 0 97 78.5t34 274.5q0 109 -8.5 181.5t-25.5 108t-35.5 49t-44.5 13.5q-74 0 -136 -117v-491q49 -97 119 -97z" />
<glyph unicode="c" horiz-adv-x="821" d="M516 1122q181 0 311 -133l-127 -170q-83 68 -159 68q-55 0 -90 -29.5t-55.5 -108.5t-20.5 -212q0 -97 12 -163.5t35 -102t51 -50t66 -14.5q41 0 75.5 14.5t79.5 48.5l133 -178q-134 -127 -307 -127q-222 0 -344.5 145t-122.5 425q0 275 124.5 431t338.5 156z" />
<glyph unicode="d" horiz-adv-x="1024" d="M625 1552l309 -32v-1520h-277l-10 115q-98 -150 -250 -150q-168 0 -256 150.5t-88 429.5q0 264 102.5 420.5t266.5 156.5q123 0 203 -100v530zM498 193q72 0 127 106v508q-28 45 -54.5 66.5t-60.5 21.5q-139 0 -139 -350q0 -104 9.5 -175t27.5 -108.5t39.5 -53 t50.5 -15.5z" />
<glyph unicode="e" horiz-adv-x="962" d="M920 565q0 -58 -7 -112h-553q10 -148 55 -204t128 -56q100 0 217 88l127 -168q-151 -148 -367 -148q-229 0 -348 151.5t-119 420.5t113.5 427t325.5 158q200 0 314 -141.5t114 -415.5zM618 639v14q0 139 -27.5 202t-96.5 63q-62 0 -94.5 -60.5t-39.5 -218.5h258z" />
<glyph unicode="f" horiz-adv-x="626" d="M543 1325q-103 0 -103 -115v-123h199l-35 -217h-164v-870h-309v870h-123v217h123v111q0 163 94 258.5t271 95.5q140 0 260 -65l-82 -197q-69 35 -131 35z" />
<glyph unicode="g" horiz-adv-x="929" d="M866 1247l76 -221q-75 -41 -254 -41q90 -42 133 -110t43 -173q0 -162 -105.5 -262t-287.5 -100q-57 0 -98 12q-33 -23 -33 -69q0 -36 21 -54t79 -18h111q176 0 275.5 -85.5t99.5 -221.5q0 -162 -127 -259.5t-359 -97.5q-130 0 -219 24.5t-137 72.5t-68 108.5t-20 143.5 h274q0 -77 35.5 -111.5t136.5 -34.5q176 0 176 131q0 119 -137 119h-82q-162 0 -235.5 57t-73.5 154q0 119 115 201q-88 56 -128 129.5t-40 183.5q0 186 114 290.5t312 102.5q67 -1 125 8.5t110 31.5t84.5 39.5t83.5 49.5zM459 918q-59 0 -89 -44.5t-30 -144.5 q0 -190 117 -190q58 0 86 43t28 151q0 99 -27.5 142t-84.5 43z" />
<glyph unicode="h" horiz-adv-x="983" d="M649 1122q116 0 183 -83.5t67 -225.5v-813h-309v780q0 107 -60 107q-59 0 -129 -131v-756h-309v1520l309 32v-579q52 77 111 113t137 36z" />
<glyph unicode="i" horiz-adv-x="491" d="M244 1653q79 0 127.5 -50.5t48.5 -127.5q0 -76 -49 -126.5t-127 -50.5q-77 0 -126.5 50.5t-49.5 126.5q0 77 49.5 127.5t126.5 50.5zM401 1087v-1087h-309v1087h309z" />
<glyph unicode="j" horiz-adv-x="491" d="M244 1653q79 0 127.5 -50.5t48.5 -127.5q0 -76 -49 -126.5t-127 -50.5q-77 0 -126.5 50.5t-49.5 126.5q0 77 49.5 127.5t126.5 50.5zM401 1087v-1009q0 -90 -20.5 -164.5t-54 -128t-86 -99t-106 -76t-124.5 -61.5l-104 224q49 28 78 51t56.5 57.5t39.5 81.5t12 111v1013 h309z" />
<glyph unicode="k" horiz-adv-x="970" d="M401 1552v-1552h-309v1520zM969 1087l-258 -479l274 -608h-326l-251 594l266 493h295z" />
<glyph unicode="l" horiz-adv-x="520" d="M354 -35q-129 0 -200.5 76t-71.5 207v1272l309 32v-1290q0 -51 43 -51q13 0 37 6l55 -213q-76 -39 -172 -39z" />
<glyph unicode="m" horiz-adv-x="1429" d="M1108 1122q108 0 173 -84t65 -225v-813h-304v782q0 56 -13.5 81.5t-43.5 25.5q-58 0 -117 -121v-768h-299v782q0 107 -57 107q-60 0 -119 -121v-768h-301v1087h268l19 -131q106 166 256 166q75 0 129 -45t82 -129q107 174 262 174z" />
<glyph unicode="n" horiz-adv-x="983" d="M649 1122q116 0 183 -83.5t67 -225.5v-813h-309v780q0 107 -60 107q-59 0 -129 -131v-756h-309v1087h268l23 -129q55 83 118 123.5t148 40.5z" />
<glyph unicode="o" horiz-adv-x="1011" d="M506 1122q213 0 332.5 -145t119.5 -434q0 -276 -120 -427t-332 -151q-214 0 -333.5 147t-119.5 433q0 280 119.5 428.5t333.5 148.5zM506 893q-71 0 -103 -78.5t-32 -269.5q0 -196 32 -274t103 -78t103 79t32 271q0 194 -32 272t-103 78z" />
<glyph unicode="p" horiz-adv-x="1021" d="M641 1122q160 0 244 -148.5t84 -426.5q0 -267 -97 -424.5t-260 -157.5q-128 0 -211 109v-494l-309 -33v1540h275l12 -118q101 153 262 153zM522 195q129 0 129 348q0 106 -7.5 176.5t-23.5 108t-36 52.5t-49 15q-75 0 -134 -115v-501q52 -84 121 -84z" />
<glyph unicode="q" horiz-adv-x="1024" d="M664 1087h270v-1540l-309 33v514q-83 -129 -230 -129q-164 0 -253 151t-89 429q0 266 102 421.5t269 155.5q133 0 227 -127zM496 193q76 0 129 110v502q-57 90 -117 90q-61 0 -99 -81.5t-38 -268.5q0 -107 9.5 -179t28 -108.5t39 -50.5t48.5 -14z" />
<glyph unicode="r" horiz-adv-x="692" d="M618 1118q44 0 87 -16l-52 -297q-37 12 -75 12q-76 0 -114 -58.5t-63 -174.5v-584h-309v1087h268l23 -178q77 209 235 209z" />
<glyph unicode="s" horiz-adv-x="823" d="M424 1122q203 0 342 -133l-113 -166q-113 78 -202 78q-49 0 -77 -24.5t-28 -67.5q0 -47 35.5 -77.5t148.5 -76.5q138 -57 203.5 -133.5t65.5 -202.5q0 -163 -116 -258.5t-300 -95.5q-115 0 -215 42.5t-172 117.5l145 160q125 -101 226 -101q55 0 86.5 29t31.5 80 q0 58 -35.5 91.5t-146.5 78.5q-140 57 -201 132t-61 191q0 147 102.5 241.5t280.5 94.5z" />
<glyph unicode="t" horiz-adv-x="665" d="M586 240l102 -189q-105 -86 -256 -86q-158 0 -237.5 89.5t-79.5 242.5v573h-113v217h113v238l309 35v-273h203l-33 -217h-170v-571q0 -88 74 -88q38 0 88 29z" />
<glyph unicode="u" horiz-adv-x="974" d="M883 1087v-1087h-271l-12 125q-99 -160 -260 -160q-119 0 -187.5 86.5t-68.5 227.5v808h309v-796q0 -46 16.5 -71t47.5 -25q66 0 116 114v778h310z" />
<glyph unicode="v" horiz-adv-x="892" d="M903 1087l-270 -1087h-365l-278 1087h315l146 -851l153 851h299z" />
<glyph unicode="w" horiz-adv-x="1308" d="M1296 1087l-180 -1087h-360l-103 809l-100 -809h-358l-183 1087h297l82 -854l121 854h293l115 -854l88 854h288z" />
<glyph unicode="x" horiz-adv-x="890" d="M627 582l284 -582h-323l-150 414l-141 -414h-317l280 571l-256 516h320l118 -356l113 356h309z" />
<glyph unicode="y" horiz-adv-x="905" d="M918 1087l-283 -1089q-109 -422 -537 -451l-32 213q130 22 196 75t103 165h-115l-260 1087h311l143 -888l168 888h306z" />
<glyph unicode="z" horiz-adv-x="788" d="M760 1087v-219l-406 -632h414l-25 -236h-725v219l406 635h-371v233h707z" />
<glyph unicode="{" horiz-adv-x="546" d="M520 1718v-215q-69 0 -94 -25t-25 -94v-397q0 -88 -21.5 -143t-61 -82.5t-107.5 -46.5q100 -23 146 -82t46 -187v-397q0 -69 24.5 -94t92.5 -25v-215q-120 0 -199.5 20.5t-122.5 65t-60 102.5t-17 144v393q0 83 -22.5 116.5t-84.5 33.5v254q63 0 85 33.5t22 115.5v393 q0 87 16.5 145t59.5 102.5t122.5 64.5t200.5 20z" />
<glyph unicode="|" horiz-adv-x="612" d="M451 1659v-1874h-289v1874h289z" />
<glyph unicode="}" horiz-adv-x="546" d="M27 1718q121 0 200.5 -20t123 -64.5t60.5 -102.5t17 -145v-393q0 -83 21 -116t83 -33v-254q-62 0 -83 -33.5t-21 -116.5v-393q0 -69 -10 -118.5t-36.5 -91.5t-71.5 -68t-115.5 -40t-167.5 -14v215q69 0 93.5 25t24.5 94v397q0 127 45.5 185t147.5 84q-104 29 -148.5 86 t-44.5 186v397q0 69 -24.5 94t-91.5 25z" />
<glyph unicode="~" horiz-adv-x="903" d="M598 487q-49 0 -95 18t-75 39.5t-64.5 39.5t-64.5 18q-26 0 -49.5 -17t-35.5 -33t-36 -52l-151 82q24 51 49 90.5t59 76t78.5 56.5t95.5 20q48 0 93 -18t73.5 -39t63 -39t63.5 -18q19 0 35 7t32 23t25.5 28.5t26.5 37.5l156 -80q-51 -108 -117.5 -174t-161.5 -66z" />
<glyph unicode="&#xa1;" horiz-adv-x="452" d="M227 1038q76 0 125 -52.5t49 -125.5t-49 -125.5t-125 -52.5q-77 0 -126.5 52.5t-49.5 125.5t49.5 125.5t126.5 52.5zM346 487l43 -917h-323l40 917h240z" />
<glyph unicode="&#xa2;" horiz-adv-x="821" d="M694 270l133 -178q-105 -102 -235 -121v-301h-215v314q-156 42 -240 181.5t-84 369.5q0 227 86 375t240 194v311h213v-299q131 -20 235 -127l-127 -170q-83 68 -159 68q-55 0 -90 -29.5t-55.5 -108.5t-20.5 -212q0 -97 12 -163.5t35 -102t51 -50t66 -14.5q41 0 75.5 14.5 t79.5 48.5z" />
<glyph unicode="&#xa3;" horiz-adv-x="925" d="M481 489q0 -95 -25 -150.5t-104 -102.5h527l-35 -236h-805v225q39 13 65.5 30.5t41 35.5t22 48.5t9 56.5t1.5 73v170h-115v164h115v209q0 176 98.5 288.5t278.5 112.5q230 0 356 -201l-180 -131q-36 54 -68 77.5t-71 23.5q-57 0 -84 -40.5t-27 -125.5v-213h295v-164h-295 v-150z" />
<glyph unicode="&#xa4;" horiz-adv-x="942" d="M938 279l-147 -117l-123 153q-88 -57 -199 -57t-199 57l-127 -153l-137 121l146 172q-56 109 -56 245q0 139 54 244l-146 176l148 119l122 -156q86 58 195 58q114 0 199 -60l129 158l137 -121l-143 -172q55 -107 55 -246q0 -140 -53 -243zM471 461q74 0 108.5 55.5 t34.5 183.5t-34.5 184t-108.5 56q-75 0 -111 -56t-36 -184t36 -183.5t111 -55.5z" />
<glyph unicode="&#xa5;" horiz-adv-x="974" d="M995 1384l-297 -665h164v-164h-221v-149h221v-164h-221v-242h-305v242h-217v164h217v149h-217v164h160l-299 665h307l205 -581l200 581h303z" />
<glyph unicode="&#xa6;" horiz-adv-x="612" d="M451 1659v-752h-289v752h289zM451 537v-752h-289v752h289z" />
<glyph unicode="&#xa7;" horiz-adv-x="935" d="M717 371q55 -41 78.5 -89.5t23.5 -117.5q0 -149 -107 -240.5t-280 -91.5q-198 0 -342 111l105 174q106 -70 219 -70q118 0 118 98q0 36 -14 58.5t-56 47t-130 58.5q-134 53 -194 117.5t-60 181.5q0 162 141 254q-98 83 -98 223q0 141 103 233.5t276 92.5q190 0 338 -115 l-103 -170q-103 70 -209 70q-60 0 -90 -26.5t-30 -73.5q0 -54 35 -84.5t163 -81.5q61 -25 104.5 -50.5t79 -60.5t53 -81.5t17.5 -104.5q0 -162 -141 -262zM469 502q19 -8 50.5 -22t43.5 -19q37 56 37 119q0 59 -35 94.5t-131 73.5q-58 23 -69 28q-29 -56 -29 -112 q0 -60 27.5 -94t105.5 -68z" />
<glyph unicode="&#xa8;" horiz-adv-x="829" d="M225 1628q67 0 109.5 -44.5t42.5 -110.5q0 -67 -42.5 -111.5t-109.5 -44.5q-66 0 -109.5 45t-43.5 111q0 65 44 110t109 45zM627 1628q66 0 108.5 -44.5t42.5 -110.5q0 -67 -42 -111.5t-109 -44.5q-64 0 -108 45t-44 111q0 65 44 110t108 45z" />
<glyph unicode="&#xa9;" horiz-adv-x="1359" d="M682 1565q122 0 228.5 -48.5t185 -135t123.5 -215t45 -281.5q0 -151 -45 -279t-123.5 -214.5t-185 -134.5t-228.5 -48t-229 48t-186 134.5t-125 214.5t-46 279q0 153 46 281.5t125 215t186 135t229 48.5zM682 1407q-183 0 -296.5 -139t-113.5 -383q0 -243 113.5 -381.5 t296.5 -138.5q179 0 293.5 139t114.5 381q0 243 -114 382.5t-294 139.5zM692 1288q127 0 221 -100l-86 -117q-63 47 -118 47q-52 0 -83.5 -55t-31.5 -176q0 -228 121 -228q34 0 60 13t59 41l86 -121q-104 -107 -234 -107q-140 0 -221.5 104.5t-81.5 297.5q0 189 84.5 295 t224.5 106z" />
<glyph unicode="&#xaa;" horiz-adv-x="856" d="M414 1081h49v33q0 62 -20.5 84.5t-75.5 22.5q-72 0 -187 -41l-61 178q131 61 295 61q315 0 315 -276v-338q0 -60 41 -76l-55 -180q-142 10 -199 104q-71 -110 -203 -110q-111 0 -178 71.5t-67 186.5q0 137 88.5 208.5t257.5 71.5zM389 733q46 0 74 51v152h-29 q-59 0 -81.5 -25t-22.5 -84q0 -48 13 -71t46 -23zM74 238h717v-234h-717v234z" />
<glyph unicode="&#xab;" horiz-adv-x="1140" d="M391 1133l193 -123l-224 -426l224 -426l-193 -125l-328 450v197zM885 1133l192 -123l-223 -426l223 -426l-192 -125l-328 450v197z" />
<glyph unicode="&#xac;" horiz-adv-x="913" d="M842 788v-548h-252v315h-518v233h770z" />
<glyph unicode="&#xad;" horiz-adv-x="712" d="M78 520v242h559v-242h-559z" />
<glyph unicode="&#xae;" horiz-adv-x="1067" d="M537 1552q207 0 340 -154t133 -405q0 -248 -133.5 -400.5t-339.5 -152.5q-208 0 -343 152.5t-135 400.5q0 250 135 404.5t343 154.5zM537 571q148 0 237.5 111t89.5 311q0 202 -89.5 315t-237.5 113q-149 0 -241.5 -113.5t-92.5 -314.5q0 -199 92.5 -310.5t241.5 -111.5z M637 967l123 -244h-148l-92 211h-39v-211h-129v575h146q114 0 172.5 -46.5t58.5 -135.5q0 -98 -92 -149zM481 1192v-143h49q66 0 66 73q0 70 -68 70h-47z" />
<glyph unicode="&#xaf;" horiz-adv-x="655" d="M604 1348h-532v208h532v-208z" />
<glyph unicode="&#xb0;" horiz-adv-x="872" d="M365 760q-127 0 -217.5 92t-90.5 256t90.5 255t217.5 91q61 0 116 -22t98.5 -64t69 -109t25.5 -151q0 -165 -90.5 -256.5t-218.5 -91.5zM365 942q53 0 78.5 39t25.5 127t-25.5 127t-78.5 39q-107 0 -107 -166t107 -166z" />
<glyph unicode="&#xb1;" horiz-adv-x="913" d="M582 1257v-311h260v-239h-260v-312h-250v312h-260v239h260v311h250zM86 0v233h739v-233h-739z" />
<glyph unicode="&#xb2;" horiz-adv-x="688" d="M334 1538q127 0 201.5 -74t74.5 -182q0 -98 -57.5 -189t-235.5 -262h308l-23 -174h-518v162q185 209 241 292t56 159q0 45 -20.5 69.5t-57.5 24.5q-62 0 -129 -80l-123 98q107 156 283 156z" />
<glyph unicode="&#xb3;" horiz-adv-x="688" d="M334 1540q127 0 197.5 -65.5t70.5 -163.5q0 -157 -176 -199q97 -6 151 -58.5t54 -150.5q0 -115 -80 -192.5t-227 -77.5q-181 0 -283 137l117 109q75 -72 145 -72q44 0 71 30t27 85q0 58 -29 83t-91 25h-54l27 154h33q102 0 102 96q0 94 -88 94q-67 0 -141 -67l-105 110 q114 123 279 123z" />
<glyph unicode="&#xb4;" horiz-adv-x="618" d="M446 1690l121 -220l-411 -192l-84 149z" />
<glyph unicode="&#xb5;" horiz-adv-x="987" d="M928 0l-283 -33q-29 84 -39 168q-71 -151 -172 -151q-79 0 -135 88q43 -78 62.5 -142.5t19.5 -169.5v-180l-289 -29v1536h309v-774q0 -57 16.5 -80.5t47.5 -23.5q66 0 115 123v755h309v-714q0 -205 39 -373z" />
<glyph unicode="&#xb6;" horiz-adv-x="1359" d="M561 1419h623v-1839l-269 -35v1659h-143v-1624l-266 -35v998q-198 6 -305 126t-107 314q0 206 120.5 321t346.5 115z" />
<glyph unicode="&#xb7;" horiz-adv-x="450" d="M225 809q76 0 125 -53.5t49 -126.5t-49 -125.5t-125 -52.5q-77 0 -125.5 52.5t-48.5 125.5t48.5 126.5t125.5 53.5z" />
<glyph unicode="&#xb8;" horiz-adv-x="589" d="M360 33v-142q179 -28 179 -194q0 -103 -70.5 -165t-194.5 -62q-119 0 -202 59l69 135q54 -26 111 -26q72 0 72 63q0 38 -37 55t-119 17l27 260h165z" />
<glyph unicode="&#xb9;" horiz-adv-x="688" d="M520 1520v-863h-221v646l-152 -107l-98 141l268 183h203z" />
<glyph unicode="&#xba;" horiz-adv-x="862" d="M430 1419q176 0 274.5 -109t98.5 -329q0 -211 -98.5 -324.5t-272.5 -113.5q-176 0 -274.5 110t-98.5 330q0 210 99 323t272 113zM430 1221q-52 0 -74 -49.5t-22 -188.5q0 -99 11 -152.5t30.5 -71.5t54.5 -18t55.5 19t31.5 72t11 149q0 99 -11 152t-31 70.5t-56 17.5z M61 0v233h740v-233h-740z" />
<glyph unicode="&#xbb;" horiz-adv-x="1140" d="M256 1133l328 -453v-197l-328 -450l-193 125l226 426l-226 426zM750 1133l327 -453v-197l-327 -450l-193 125l225 426l-225 426z" />
<glyph unicode="&#xbc;" horiz-adv-x="1683" d="M1096 1552l180 -77l-688 -1647l-180 76zM520 557h-221v645l-152 -106l-98 141l268 182h203v-862zM1645 342v-168h-76v-174h-203l-2 174h-330v156l197 553l188 -72l-166 -469h115l45 201h156v-201h76z" />
<glyph unicode="&#xbd;" horiz-adv-x="1683" d="M1096 1552l180 -77l-688 -1647l-180 76zM520 1419v-862h-221v645l-152 -106l-98 141l268 182h203zM1329 881q127 0 202 -74.5t75 -181.5q0 -98 -57.5 -189t-235.5 -262h307l-23 -174h-518v162q186 209 241.5 291.5t55.5 158.5q0 46 -20.5 70.5t-57.5 24.5q-62 0 -129 -80 l-122 98q107 156 282 156z" />
<glyph unicode="&#xbe;" horiz-adv-x="1683" d="M1096 1552l180 -77l-688 -1647l-180 76zM631 803q0 -115 -80 -193t-227 -78q-180 0 -283 138l117 108q74 -71 145 -71q44 0 71 29.5t27 84.5q0 58 -29 83.5t-91 25.5h-54l27 153h33q102 0 102 97q0 94 -88 94q-66 0 -141 -68l-105 111q114 123 279 123q127 0 197.5 -65.5 t70.5 -164.5q0 -76 -41 -126t-135 -72q97 -6 151 -58.5t54 -150.5zM1645 342v-168h-76v-174h-203l-2 174h-330v156l197 553l188 -72l-166 -469h115l45 201h156v-201h76z" />
<glyph unicode="&#xbf;" horiz-adv-x="843" d="M463 680q-77 0 -126.5 53.5t-49.5 126.5t49.5 125.5t126.5 52.5q76 0 125 -52.5t49 -125.5t-49 -126.5t-125 -53.5zM410 -457q-183 0 -284 100t-101 242q0 65 16.5 117.5t43 88t58.5 66t64.5 58.5t59 57.5t43 70.5t16.5 91v49h276v-61q0 -71 -14.5 -127.5t-37.5 -92.5 t-51 -65t-56 -52.5t-51 -48t-37.5 -58.5t-14.5 -76q0 -56 28 -85.5t78 -29.5q49 0 94.5 27.5t96.5 87.5l182 -142q-154 -217 -409 -217z" />
<glyph unicode="&#xc0;" horiz-adv-x="1036" d="M762 1690l-78 -152l-416 172l117 223zM729 0l-57 311h-316l-55 -311h-319l344 1419h385l344 -1419h-326zM399 543h232l-117 641z" />
<glyph unicode="&#xc1;" horiz-adv-x="1036" d="M764 1712l-416 -174l-78 152l377 245zM729 0l-57 311h-316l-55 -311h-319l344 1419h385l344 -1419h-326zM399 543h232l-117 641z" />
<glyph unicode="&#xc2;" horiz-adv-x="1036" d="M518 1726l-227 -170l-107 111l242 268h184l242 -268l-107 -111zM729 0l-57 311h-316l-55 -311h-319l344 1419h385l344 -1419h-326zM399 543h232l-117 641z" />
<glyph unicode="&#xc3;" horiz-adv-x="1036" d="M422 1655q-27 0 -45 -19t-43 -65l-144 67q34 103 93.5 165.5t134.5 62.5q43 0 81 -21t68.5 -42t53.5 -21q26 0 44 19t40 63l145 -66q-33 -105 -92 -165t-135 -60q-43 0 -81 20.5t-67.5 41t-52.5 20.5zM729 0l-57 311h-316l-55 -311h-319l344 1419h385l344 -1419h-326z M399 543h232l-117 641z" />
<glyph unicode="&#xc4;" horiz-adv-x="1036" d="M328 1575q-66 0 -110 45t-44 111q0 65 44 110t110 45t108.5 -44.5t42.5 -110.5q0 -67 -42 -111.5t-109 -44.5zM729 1575q-64 0 -107.5 45t-43.5 111q0 65 43.5 110t107.5 45q67 0 109.5 -44.5t42.5 -110.5q0 -67 -42.5 -111.5t-109.5 -44.5zM729 0l-57 311h-316l-55 -311 h-319l344 1419h385l344 -1419h-326zM399 543h232l-117 641z" />
<glyph unicode="&#xc5;" horiz-adv-x="1036" d="M520 1499q-116 0 -183 73.5t-67 192.5q0 118 67 190.5t183 72.5q115 0 182.5 -73t67.5 -190q0 -119 -67.5 -192.5t-182.5 -73.5zM520 1874q-71 0 -71 -109q0 -59 18 -84.5t53 -25.5q74 0 74 110q0 109 -74 109zM729 0l-57 311h-316l-55 -311h-319l344 1419h385l344 -1419 h-326zM399 543h232l-117 641z" />
<glyph unicode="&#xc6;" horiz-adv-x="1439" d="M1012 233h391v-233h-662l-36 311h-326l-80 -311h-340l455 1419h927l-32 -229h-428l49 -359h397v-227h-366zM438 545h240l-76 639z" />
<glyph unicode="&#xc7;" horiz-adv-x="991" d="M987 145q-135 -149 -321 -176v-78q178 -27 178 -194q0 -103 -70 -165t-194 -62q-120 0 -203 59l69 135q54 -26 111 -26q72 0 72 63q0 38 -37 55t-119 17l21 200q-203 38 -320 224.5t-117 515.5q0 183 40.5 326t114 233t171.5 136t217 46q213 0 375 -156l-150 -176 q-105 92 -202 92q-74 0 -123.5 -45.5t-79 -159t-29.5 -296.5q0 -180 29.5 -292.5t80 -159t124.5 -46.5q42 0 82.5 15.5t65.5 33t69 53.5z" />
<glyph unicode="&#xc8;" d="M338 1933l377 -243l-78 -152l-416 172zM844 1419l-33 -229h-395v-356h348v-226h-348v-375h422v-233h-744v1419h750z" />
<glyph unicode="&#xc9;" d="M600 1935l117 -223l-416 -174l-78 152zM844 1419l-33 -229h-395v-356h348v-226h-348v-375h422v-233h-744v1419h750z" />
<glyph unicode="&#xca;" d="M244 1556l-107 111l242 268h184l242 -268l-107 -111l-227 170zM844 1419l-33 -229h-395v-356h348v-226h-348v-375h422v-233h-744v1419h750z" />
<glyph unicode="&#xcb;" d="M281 1886q66 0 108.5 -44.5t42.5 -110.5q0 -67 -42 -111.5t-109 -44.5q-66 0 -110 45t-44 111q0 65 44 110t110 45zM682 1886q67 0 109.5 -44.5t42.5 -110.5q0 -67 -42.5 -111.5t-109.5 -44.5q-64 0 -108 45t-44 111q0 65 44 110t108 45zM844 1419l-33 -229h-395v-356 h348v-226h-348v-375h422v-233h-744v1419h750z" />
<glyph unicode="&#xcc;" horiz-adv-x="512" d="M123 1933l377 -243l-78 -152l-416 172zM416 1419v-1419h-322v1419h322z" />
<glyph unicode="&#xcd;" horiz-adv-x="512" d="M385 1935l117 -223l-416 -174l-78 152zM416 1419v-1419h-322v1419h322z" />
<glyph unicode="&#xce;" horiz-adv-x="512" d="M29 1556l-107 111l242 268h184l242 -268l-107 -111l-227 170zM416 1419v-1419h-322v1419h322z" />
<glyph unicode="&#xcf;" horiz-adv-x="512" d="M66 1886q66 0 108.5 -44.5t42.5 -110.5q0 -67 -42 -111.5t-109 -44.5q-66 0 -110 45t-44 111q0 65 44 110t110 45zM467 1886q66 0 108.5 -44.5t42.5 -110.5q0 -67 -42 -111.5t-109 -44.5q-64 0 -108 45t-44 111q0 65 44 110t108 45zM416 1419v-1419h-322v1419h322z" />
<glyph unicode="&#xd0;" horiz-adv-x="1159" d="M487 1419q74 0 135 -7t126 -26.5t115.5 -52t96.5 -86.5t76.5 -126.5t48 -175t17.5 -228.5q0 -168 -32 -295t-84.5 -206t-130.5 -128.5t-161 -68.5t-184 -19h-381v625h-100v196h100v598h358zM528 233q48 0 84 13t67 45.5t51 87t31 139t11 199.5q0 116 -12 200.5t-32 136 t-52 82t-66.5 41.5t-81.5 11h-77v-367h174v-196h-174v-392h77z" />
<glyph unicode="&#xd1;" horiz-adv-x="1120" d="M668 1573q-43 0 -81 20.5t-67.5 41t-52.5 20.5q-27 0 -45 -19t-43 -65l-143 67q34 103 93 165.5t134 62.5q43 0 81 -21t68.5 -42t53.5 -21q26 0 44 19t40 63l145 -66q-33 -105 -92 -165t-135 -60zM1026 1419v-1419h-397l-299 1124q1 -9 7 -61.5t8 -73t7.5 -71.5 t7.5 -86.5t5.5 -86.5t4.5 -102.5t1 -105.5v-537h-277v1419h398l299 -1124q-43 289 -43 530v594h278z" />
<glyph unicode="&#xd2;" horiz-adv-x="1189" d="M461 1933l377 -243l-78 -152l-416 172zM594 1454q262 0 400.5 -184.5t138.5 -558.5q0 -369 -139 -557.5t-400 -188.5t-399 186t-138 560q0 368 138.5 555.5t398.5 187.5zM594 1219q-107 0 -155 -115.5t-48 -392.5q0 -192 22.5 -304.5t65.5 -159t115 -46.5 q74 0 117.5 46.5t65.5 158.5t22 305q0 277 -48.5 392.5t-156.5 115.5z" />
<glyph unicode="&#xd3;" horiz-adv-x="1189" d="M723 1935l117 -223l-416 -174l-78 152zM594 1454q262 0 400.5 -184.5t138.5 -558.5q0 -369 -139 -557.5t-400 -188.5t-399 186t-138 560q0 368 138.5 555.5t398.5 187.5zM594 1219q-107 0 -155 -115.5t-48 -392.5q0 -192 22.5 -304.5t65.5 -159t115 -46.5 q74 0 117.5 46.5t65.5 158.5t22 305q0 277 -48.5 392.5t-156.5 115.5z" />
<glyph unicode="&#xd4;" horiz-adv-x="1189" d="M367 1556l-107 111l242 268h184l242 -268l-107 -111l-227 170zM594 1454q262 0 400.5 -184.5t138.5 -558.5q0 -369 -139 -557.5t-400 -188.5t-399 186t-138 560q0 368 138.5 555.5t398.5 187.5zM594 1219q-107 0 -155 -115.5t-48 -392.5q0 -192 22.5 -304.5t65.5 -159 t115 -46.5q74 0 117.5 46.5t65.5 158.5t22 305q0 277 -48.5 392.5t-156.5 115.5z" />
<glyph unicode="&#xd5;" horiz-adv-x="1189" d="M698 1573q-43 0 -81 20.5t-67 41t-52 20.5q-27 0 -45 -19t-43 -65l-144 67q34 103 93.5 165.5t134.5 62.5q34 0 65.5 -13t51 -29t43 -29t42.5 -13q26 0 44 19t40 63l146 -66q-33 -105 -92 -165t-136 -60zM594 1454q262 0 400.5 -184.5t138.5 -558.5q0 -369 -139 -557.5 t-400 -188.5t-399 186t-138 560q0 368 138.5 555.5t398.5 187.5zM594 1219q-107 0 -155 -115.5t-48 -392.5q0 -192 22.5 -304.5t65.5 -159t115 -46.5q74 0 117.5 46.5t65.5 158.5t22 305q0 277 -48.5 392.5t-156.5 115.5z" />
<glyph unicode="&#xd6;" horiz-adv-x="1189" d="M403 1886q67 0 109.5 -44.5t42.5 -110.5q0 -67 -42.5 -111.5t-109.5 -44.5q-66 0 -109.5 45t-43.5 111q0 65 44 110t109 45zM805 1886q66 0 108.5 -44.5t42.5 -110.5q0 -67 -42 -111.5t-109 -44.5q-64 0 -108 45t-44 111q0 65 44 110t108 45zM594 1454 q262 0 400.5 -184.5t138.5 -558.5q0 -369 -139 -557.5t-400 -188.5t-399 186t-138 560q0 368 138.5 555.5t398.5 187.5zM594 1219q-107 0 -155 -115.5t-48 -392.5q0 -192 22.5 -304.5t65.5 -159t115 -46.5q74 0 117.5 46.5t65.5 158.5t22 305q0 277 -48.5 392.5 t-156.5 115.5z" />
<glyph unicode="&#xd7;" d="M637 1038l182 -143l-215 -268l215 -269l-182 -141l-197 258l-192 -258l-185 141l216 269l-216 268l185 143l192 -258z" />
<glyph unicode="&#xd8;" horiz-adv-x="1189" d="M887 1372q246 -168 246 -661q0 -368 -139 -556t-400 -188q-44 0 -64 2l-59 -241l-235 61l67 258q-246 168 -246 664q0 366 138.5 553.5t398.5 187.5q43 0 63 -2l62 244l237 -66zM594 1223q-119 0 -170 -114.5t-51 -397.5q0 -316 57 -424l205 934q-12 2 -41 2zM815 711 q0 304 -55 411l-203 -923q12 -2 37 -2q83 0 129.5 47.5t68.5 158t23 308.5z" />
<glyph unicode="&#xd9;" horiz-adv-x="1097" d="M416 1933l377 -243l-78 -152l-416 172zM1024 1419v-1009q0 -94 -29.5 -173.5t-86.5 -140t-149 -95t-210 -34.5q-233 0 -354 121.5t-121 321.5v1009h321v-995q0 -111 36 -164t118 -53t117.5 53t35.5 164v995h322z" />
<glyph unicode="&#xda;" horiz-adv-x="1097" d="M678 1935l117 -223l-416 -174l-78 152zM1024 1419v-1009q0 -94 -29.5 -173.5t-86.5 -140t-149 -95t-210 -34.5q-233 0 -354 121.5t-121 321.5v1009h321v-995q0 -111 36 -164t118 -53t117.5 53t35.5 164v995h322z" />
<glyph unicode="&#xdb;" horiz-adv-x="1097" d="M322 1556l-107 111l242 268h184l242 -268l-107 -111l-227 170zM1024 1419v-1009q0 -94 -29.5 -173.5t-86.5 -140t-149 -95t-210 -34.5q-233 0 -354 121.5t-121 321.5v1009h321v-995q0 -111 36 -164t118 -53t117.5 53t35.5 164v995h322z" />
<glyph unicode="&#xdc;" horiz-adv-x="1097" d="M358 1886q67 0 109.5 -44.5t42.5 -110.5q0 -67 -42.5 -111.5t-109.5 -44.5q-66 0 -109.5 45t-43.5 111q0 65 44 110t109 45zM760 1886q66 0 108.5 -44.5t42.5 -110.5q0 -67 -42 -111.5t-109 -44.5q-64 0 -108 45t-44 111q0 65 44 110t108 45zM1024 1419v-1009 q0 -94 -29.5 -173.5t-86.5 -140t-149 -95t-210 -34.5q-233 0 -354 121.5t-121 321.5v1009h321v-995q0 -111 36 -164t118 -53t117.5 53t35.5 164v995h322z" />
<glyph unicode="&#xdd;" horiz-adv-x="1024" d="M641 1935l117 -223l-416 -174l-78 152zM1047 1419l-373 -884v-535h-322v532l-372 887h335l201 -635l205 635h326z" />
<glyph unicode="&#xde;" horiz-adv-x="1021" d="M485 1194q248 0 382 -117.5t134 -347.5q0 -247 -130 -369t-363 -122h-92v-238h-322v1419h322v-225h69zM477 467q104 0 152.5 60t48.5 202q0 126 -50.5 182t-152.5 56h-59v-500h61z" />
<glyph unicode="&#xdf;" horiz-adv-x="1042" d="M510 1552q173 0 268.5 -86t95.5 -215q0 -62 -22 -116.5t-48.5 -87.5t-48.5 -77t-22 -87q0 -35 21.5 -70t53 -63.5t69 -69t69 -84t53 -111t21.5 -147.5q0 -173 -97.5 -273t-250.5 -100q-127 0 -209 53l92 201q28 -14 63 -14q39 0 65 35.5t26 103.5q0 59 -24.5 110.5 t-59.5 90.5t-70 79t-59.5 94t-24.5 116q0 59 19 110.5t41.5 83.5t41.5 81t19 103q0 60 -24 91.5t-66 31.5q-101 0 -101 -172v-1163h-309v1143q0 184 110.5 296.5t307.5 112.5z" />
<glyph unicode="&#xe0;" horiz-adv-x="935" d="M727 1427l-84 -149l-412 192l121 220zM840 289q0 -52 12 -76.5t43 -38.5l-64 -203q-88 8 -144 42t-87 106q-95 -154 -268 -154q-135 0 -215 93t-80 247q0 178 110.5 271.5t323.5 93.5h66v57q0 98 -30.5 136t-105.5 38q-95 0 -233 -55l-70 196q177 80 361 80 q193 0 287 -93.5t94 -285.5v-454zM426 184q72 0 111 103v211h-37q-84 0 -122 -40t-38 -126q0 -72 23 -110t63 -38z" />
<glyph unicode="&#xe1;" horiz-adv-x="935" d="M694 1470l-411 -192l-84 149l374 263zM840 289q0 -52 12 -76.5t43 -38.5l-64 -203q-88 8 -144 42t-87 106q-95 -154 -268 -154q-135 0 -215 93t-80 247q0 178 110.5 271.5t323.5 93.5h66v57q0 98 -30.5 136t-105.5 38q-95 0 -233 -55l-70 196q177 80 361 80 q193 0 287 -93.5t94 -285.5v-454zM426 184q72 0 111 103v211h-37q-84 0 -122 -40t-38 -126q0 -72 23 -110t63 -38z" />
<glyph unicode="&#xe2;" horiz-adv-x="935" d="M463 1468l-227 -186l-107 111l242 284h184l242 -284l-107 -111zM840 289q0 -52 12 -76.5t43 -38.5l-64 -203q-88 8 -144 42t-87 106q-95 -154 -268 -154q-135 0 -215 93t-80 247q0 178 110.5 271.5t323.5 93.5h66v57q0 98 -30.5 136t-105.5 38q-95 0 -233 -55l-70 196 q177 80 361 80q193 0 287 -93.5t94 -285.5v-454zM426 184q72 0 111 103v211h-37q-84 0 -122 -40t-38 -126q0 -72 23 -110t63 -38z" />
<glyph unicode="&#xe3;" horiz-adv-x="935" d="M365 1397q-27 0 -45.5 -19.5t-43.5 -64.5l-143 67q34 103 93 165.5t134 62.5q43 0 81 -21t68.5 -42t53.5 -21q26 0 44 19t40 63l146 -66q-33 -105 -92 -165t-136 -60q-43 0 -81 20.5t-67 41t-52 20.5zM840 289q0 -52 12 -76.5t43 -38.5l-64 -203q-88 8 -144 42t-87 106 q-95 -154 -268 -154q-135 0 -215 93t-80 247q0 178 110.5 271.5t323.5 93.5h66v57q0 98 -30.5 136t-105.5 38q-95 0 -233 -55l-70 196q177 80 361 80q193 0 287 -93.5t94 -285.5v-454zM426 184q72 0 111 103v211h-37q-84 0 -122 -40t-38 -126q0 -72 23 -110t63 -38z" />
<glyph unicode="&#xe4;" horiz-adv-x="935" d="M262 1317q-66 0 -109.5 45t-43.5 111q0 65 44 110t109 45q67 0 109.5 -44.5t42.5 -110.5q0 -67 -42.5 -111.5t-109.5 -44.5zM664 1317q-64 0 -108 45t-44 111q0 65 44 110t108 45q66 0 108.5 -44.5t42.5 -110.5q0 -67 -42 -111.5t-109 -44.5zM840 289q0 -52 12 -76.5 t43 -38.5l-64 -203q-88 8 -144 42t-87 106q-95 -154 -268 -154q-135 0 -215 93t-80 247q0 178 110.5 271.5t323.5 93.5h66v57q0 98 -30.5 136t-105.5 38q-95 0 -233 -55l-70 196q177 80 361 80q193 0 287 -93.5t94 -285.5v-454zM426 184q72 0 111 103v211h-37 q-84 0 -122 -40t-38 -126q0 -72 23 -110t63 -38z" />
<glyph unicode="&#xe5;" horiz-adv-x="935" d="M463 1241q-116 0 -183 73.5t-67 192.5q0 118 66.5 190t183.5 72q115 0 182.5 -72.5t67.5 -189.5q0 -119 -67.5 -192.5t-182.5 -73.5zM463 1616q-72 0 -72 -109q0 -110 72 -110q74 0 74 110q0 109 -74 109zM840 289q0 -52 12 -76.5t43 -38.5l-64 -203q-88 8 -144 42 t-87 106q-95 -154 -268 -154q-135 0 -215 93t-80 247q0 178 110.5 271.5t323.5 93.5h66v57q0 98 -30.5 136t-105.5 38q-95 0 -233 -55l-70 196q177 80 361 80q193 0 287 -93.5t94 -285.5v-454zM426 184q72 0 111 103v211h-37q-84 0 -122 -40t-38 -126q0 -72 23 -110t63 -38z " />
<glyph unicode="&#xe6;" horiz-adv-x="1460" d="M1417 565q0 -50 -8 -112h-549q10 -144 57.5 -201t133.5 -57q89 0 204 86l125 -166q-153 -150 -358 -150q-239 0 -365 180q-119 -180 -307 -180q-143 0 -228 94.5t-85 245.5q0 170 113.5 262t332.5 92h68l-2 60q0 103 -29.5 142.5t-105.5 39.5q-95 0 -234 -57l-67 198 q180 80 346 80q193 0 272 -135q113 135 287 135q181 0 290 -143t109 -414zM1120 639v14q0 262 -125 262q-64 0 -96 -62t-39 -214h260zM438 186q81 0 142 129q-22 87 -25 172h-41q-164 0 -164 -161q0 -140 88 -140z" />
<glyph unicode="&#xe7;" horiz-adv-x="821" d="M827 92q-112 -109 -254 -123v-78q179 -28 179 -194q0 -103 -70.5 -165t-194.5 -62q-119 0 -202 59l69 135q54 -26 111 -26q72 0 72 63q0 38 -37 55t-119 17l20 204q-167 36 -257.5 177.5t-90.5 380.5q0 275 124.5 431t338.5 156q181 0 311 -133l-127 -170q-83 68 -159 68 q-55 0 -90 -29.5t-55.5 -108.5t-20.5 -212q0 -97 12 -163.5t35 -102t51 -50t66 -14.5q41 0 75.5 14.5t79.5 48.5z" />
<glyph unicode="&#xe8;" horiz-adv-x="962" d="M758 1427l-84 -149l-412 192l121 220zM920 565q0 -58 -7 -112h-553q10 -148 55 -204t128 -56q100 0 217 88l127 -168q-151 -148 -367 -148q-229 0 -348 151.5t-119 420.5t113.5 427t325.5 158q200 0 314 -141.5t114 -415.5zM618 639v14q0 139 -27.5 202t-96.5 63 q-62 0 -94.5 -60.5t-39.5 -218.5h258z" />
<glyph unicode="&#xe9;" horiz-adv-x="962" d="M725 1470l-412 -192l-84 149l375 263zM920 565q0 -58 -7 -112h-553q10 -148 55 -204t128 -56q100 0 217 88l127 -168q-151 -148 -367 -148q-229 0 -348 151.5t-119 420.5t113.5 427t325.5 158q200 0 314 -141.5t114 -415.5zM618 639v14q0 139 -27.5 202t-96.5 63 q-62 0 -94.5 -60.5t-39.5 -218.5h258z" />
<glyph unicode="&#xea;" horiz-adv-x="962" d="M494 1468l-228 -186l-106 111l241 284h185l241 -284l-106 -111zM920 565q0 -58 -7 -112h-553q10 -148 55 -204t128 -56q100 0 217 88l127 -168q-151 -148 -367 -148q-229 0 -348 151.5t-119 420.5t113.5 427t325.5 158q200 0 314 -141.5t114 -415.5zM618 639v14 q0 139 -27.5 202t-96.5 63q-62 0 -94.5 -60.5t-39.5 -218.5h258z" />
<glyph unicode="&#xeb;" horiz-adv-x="962" d="M293 1317q-66 0 -110 45t-44 111q0 65 44 110t110 45t108.5 -44.5t42.5 -110.5q0 -67 -42 -111.5t-109 -44.5zM694 1317q-64 0 -107.5 45t-43.5 111q0 65 43.5 110t107.5 45q67 0 109.5 -44.5t42.5 -110.5q0 -67 -42.5 -111.5t-109.5 -44.5zM920 565q0 -58 -7 -112h-553 q10 -148 55 -204t128 -56q100 0 217 88l127 -168q-151 -148 -367 -148q-229 0 -348 151.5t-119 420.5t113.5 427t325.5 158q200 0 314 -141.5t114 -415.5zM618 639v14q0 139 -27.5 202t-96.5 63q-62 0 -94.5 -60.5t-39.5 -218.5h258z" />
<glyph unicode="&#xec;" horiz-adv-x="491" d="M135 1690l375 -263l-84 -149l-412 192zM401 1087v-1087h-309v1087h309z" />
<glyph unicode="&#xed;" horiz-adv-x="491" d="M356 1690l121 -220l-411 -192l-84 149zM401 1087v-1087h-309v1087h309z" />
<glyph unicode="&#xee;" horiz-adv-x="491" d="M18 1282l-106 111l242 284h184l242 -284l-107 -111l-227 186zM401 1087v-1087h-309v1087h309z" />
<glyph unicode="&#xef;" horiz-adv-x="491" d="M45 1628q67 0 109.5 -44.5t42.5 -110.5q0 -67 -42.5 -111.5t-109.5 -44.5q-66 0 -110 45t-44 111q0 65 44 110t110 45zM446 1628q67 0 109.5 -44.5t42.5 -110.5q0 -67 -42.5 -111.5t-109.5 -44.5q-64 0 -107.5 45t-43.5 111q0 65 43.5 110t107.5 45zM401 1087v-1087h-309 v1087h309z" />
<glyph unicode="&#xf0;" horiz-adv-x="1009" d="M625 1370q174 -144 247.5 -339t73.5 -464q0 -176 -50 -310t-153.5 -212t-248.5 -78q-194 0 -317.5 135t-123.5 377q0 220 103 360t245 140q131 0 222 -94q-25 105 -61 178t-103 137l-99 -119l-184 93l113 131q-57 24 -154 49l58 196q117 -24 249 -77l127 155l164 -121z M500 193q70 0 102.5 73t32.5 238q0 121 -2 170q-57 88 -135 88q-136 0 -136 -279q0 -160 34.5 -225t103.5 -65z" />
<glyph unicode="&#xf1;" horiz-adv-x="983" d="M401 1397q-27 0 -45 -19t-43 -65l-143 67q34 103 93 165.5t134 62.5q43 0 81 -21t68.5 -42t53.5 -21q26 0 44 19t40 63l145 -66q-33 -105 -92 -165t-135 -60q-43 0 -81 20.5t-67.5 41t-52.5 20.5zM649 1122q116 0 183 -83.5t67 -225.5v-813h-309v780q0 107 -60 107 q-59 0 -129 -131v-756h-309v1087h268l23 -129q55 83 118 123.5t148 40.5z" />
<glyph unicode="&#xf2;" horiz-adv-x="1011" d="M395 1690l375 -263l-84 -149l-412 192zM506 1122q213 0 332.5 -145t119.5 -434q0 -276 -120 -427t-332 -151q-214 0 -333.5 147t-119.5 433q0 280 119.5 428.5t333.5 148.5zM506 893q-71 0 -103 -78.5t-32 -269.5q0 -196 32 -274t103 -78t103 79t32 271q0 194 -32 272 t-103 78z" />
<glyph unicode="&#xf3;" horiz-adv-x="1011" d="M616 1690l121 -220l-411 -192l-84 149zM506 1122q213 0 332.5 -145t119.5 -434q0 -276 -120 -427t-332 -151q-214 0 -333.5 147t-119.5 433q0 280 119.5 428.5t333.5 148.5zM506 893q-71 0 -103 -78.5t-32 -269.5q0 -196 32 -274t103 -78t103 79t32 271q0 194 -32 272 t-103 78z" />
<glyph unicode="&#xf4;" horiz-adv-x="1011" d="M279 1282l-107 111l242 284h184l242 -284l-107 -111l-227 186zM506 1122q213 0 332.5 -145t119.5 -434q0 -276 -120 -427t-332 -151q-214 0 -333.5 147t-119.5 433q0 280 119.5 428.5t333.5 148.5zM506 893q-71 0 -103 -78.5t-32 -269.5q0 -196 32 -274t103 -78t103 79 t32 271q0 194 -32 272t-103 78z" />
<glyph unicode="&#xf5;" horiz-adv-x="1011" d="M608 1315q-43 0 -81 20.5t-67 41t-52 20.5q-27 0 -45.5 -19.5t-43.5 -64.5l-143 67q34 103 93 165.5t134 62.5q43 0 81 -21t68.5 -42t53.5 -21q26 0 44 19t40 63l146 -66q-33 -105 -92 -165t-136 -60zM506 1122q213 0 332.5 -145t119.5 -434q0 -276 -120 -427t-332 -151 q-214 0 -333.5 147t-119.5 433q0 280 119.5 428.5t333.5 148.5zM506 893q-71 0 -103 -78.5t-32 -269.5q0 -196 32 -274t103 -78t103 79t32 271q0 194 -32 272t-103 78z" />
<glyph unicode="&#xf6;" horiz-adv-x="1011" d="M305 1628q67 0 109.5 -44.5t42.5 -110.5q0 -67 -42.5 -111.5t-109.5 -44.5q-66 0 -109.5 45t-43.5 111q0 65 44 110t109 45zM707 1628q66 0 108.5 -44.5t42.5 -110.5q0 -67 -42 -111.5t-109 -44.5q-64 0 -108 45t-44 111q0 65 44 110t108 45zM506 1122q213 0 332.5 -145 t119.5 -434q0 -276 -120 -427t-332 -151q-214 0 -333.5 147t-119.5 433q0 280 119.5 428.5t333.5 148.5zM506 893q-71 0 -103 -78.5t-32 -269.5q0 -196 32 -274t103 -78t103 79t32 271q0 194 -32 272t-103 78z" />
<glyph unicode="&#xf7;" horiz-adv-x="882" d="M442 1348q76 0 125 -54t49 -127t-49 -125.5t-125 -52.5q-77 0 -125.5 52.5t-48.5 125.5t48.5 127t125.5 54zM72 563v234h739v-234h-739zM442 369q76 0 125 -54t49 -127t-49 -125.5t-125 -52.5q-77 0 -125.5 52.5t-48.5 125.5t48.5 127t125.5 54z" />
<glyph unicode="&#xf8;" horiz-adv-x="1011" d="M764 1044q194 -144 194 -501q0 -276 -120 -427t-332 -151q-27 0 -41 2l-62 -241l-221 61l70 254q-95 68 -147 195t-52 309q0 280 119.5 428.5t333.5 148.5q33 0 49 -2l63 244l220 -64zM506 901q-92 0 -135 -80.5t-43 -275.5q0 -208 43 -287l153 643h-18zM506 186 q93 0 135.5 80.5t42.5 276.5q0 203 -39 280l-151 -637h12z" />
<glyph unicode="&#xf9;" horiz-adv-x="974" d="M375 1690l375 -263l-84 -149l-412 192zM883 1087v-1087h-271l-12 125q-99 -160 -260 -160q-119 0 -187.5 86.5t-68.5 227.5v808h309v-796q0 -46 16.5 -71t47.5 -25q66 0 116 114v778h310z" />
<glyph unicode="&#xfa;" horiz-adv-x="974" d="M596 1690l121 -220l-412 -192l-84 149zM883 1087v-1087h-271l-12 125q-99 -160 -260 -160q-119 0 -187.5 86.5t-68.5 227.5v808h309v-796q0 -46 16.5 -71t47.5 -25q66 0 116 114v778h310z" />
<glyph unicode="&#xfb;" horiz-adv-x="974" d="M258 1282l-106 111l241 284h185l241 -284l-106 -111l-228 186zM883 1087v-1087h-271l-12 125q-99 -160 -260 -160q-119 0 -187.5 86.5t-68.5 227.5v808h309v-796q0 -46 16.5 -71t47.5 -25q66 0 116 114v778h310z" />
<glyph unicode="&#xfc;" horiz-adv-x="974" d="M285 1628q66 0 108.5 -44.5t42.5 -110.5q0 -67 -42 -111.5t-109 -44.5q-66 0 -110 45t-44 111q0 65 44 110t110 45zM686 1628q67 0 109.5 -44.5t42.5 -110.5q0 -67 -42.5 -111.5t-109.5 -44.5q-64 0 -107.5 45t-43.5 111q0 65 43.5 110t107.5 45zM883 1087v-1087h-271 l-12 125q-99 -160 -260 -160q-119 0 -187.5 86.5t-68.5 227.5v808h309v-796q0 -46 16.5 -71t47.5 -25q66 0 116 114v778h310z" />
<glyph unicode="&#xfd;" horiz-adv-x="905" d="M563 1690l121 -220l-412 -192l-84 149zM918 1087l-283 -1089q-109 -422 -537 -451l-32 213q130 22 196 75t103 165h-115l-260 1087h311l143 -888l168 888h306z" />
<glyph unicode="&#xfe;" horiz-adv-x="1021" d="M641 1122q160 0 244 -148.5t84 -426.5q0 -267 -97 -424.5t-260 -157.5q-132 0 -211 121v-502l-309 -37v1973l309 32v-561q93 131 240 131zM522 195q129 0 129 348q0 106 -7.5 176.5t-23.5 108t-36 52.5t-49 15q-75 0 -134 -115v-501q52 -84 121 -84z" />
<glyph unicode="&#xff;" horiz-adv-x="905" d="M252 1628q66 0 108.5 -44.5t42.5 -110.5q0 -67 -42 -111.5t-109 -44.5q-66 0 -110 45t-44 111q0 65 44 110t110 45zM653 1628q67 0 109.5 -44.5t42.5 -110.5q0 -67 -42.5 -111.5t-109.5 -44.5q-64 0 -107.5 45t-43.5 111q0 65 43.5 110t107.5 45zM918 1087l-283 -1089 q-109 -422 -537 -451l-32 213q130 22 196 75t103 165h-115l-260 1087h311l143 -888l168 888h306z" />
<glyph unicode="&#x152;" horiz-adv-x="1538" d="M1092 606q-15 -224 -115 -373h514v-233h-750q-78 -35 -176 -35q-238 0 -373 193t-135 553q0 358 135 550.5t373 192.5q100 0 178 -35h754l-33 -229h-489q97 -143 115 -354h327v-230h-325zM578 201q65 0 105.5 47t61.5 160t21 303q0 277 -46 392.5t-142 115.5 t-141.5 -115.5t-45.5 -392.5q0 -189 21.5 -302.5t61.5 -160.5t104 -47z" />
<glyph unicode="&#x153;" horiz-adv-x="1548" d="M1505 565q0 -65 -6 -112h-551q10 -144 57 -202t130 -58q100 0 217 88l127 -164q-152 -152 -367 -152q-196 0 -315 158q-123 -158 -301 -158q-206 0 -324.5 149.5t-118.5 430.5q0 269 120.5 423t326.5 154q179 0 297 -153q120 153 297 153q186 0 298.5 -143.5 t112.5 -413.5zM1206 639v14q0 135 -28 197.5t-95 62.5q-63 0 -95.5 -62.5t-39.5 -211.5h258zM504 193q70 0 101.5 80.5t31.5 271.5q0 188 -31 268t-100 80q-71 0 -103 -78.5t-32 -269.5q0 -195 31.5 -273.5t101.5 -78.5z" />
<glyph unicode="&#x178;" horiz-adv-x="1024" d="M322 1886q66 0 108.5 -44.5t42.5 -110.5q0 -67 -42 -111.5t-109 -44.5q-66 0 -110 45t-44 111q0 65 44 110t110 45zM723 1886q66 0 108.5 -44.5t42.5 -110.5q0 -67 -42 -111.5t-109 -44.5q-64 0 -108 45t-44 111q0 65 44 110t108 45zM1047 1419l-373 -884v-535h-322v532 l-372 887h335l201 -635l205 635h326z" />
<glyph unicode="&#x2c6;" horiz-adv-x="790" d="M178 1282l-106 111l241 284h185l241 -284l-106 -111l-227 186z" />
<glyph unicode="&#x2dc;" horiz-adv-x="782" d="M494 1315q-43 0 -81 20.5t-67.5 41t-52.5 20.5q-27 0 -45 -19t-43 -65l-144 67q34 103 93.5 165.5t134.5 62.5q43 0 81 -21t68.5 -42t53.5 -21q26 0 43 19t40 63l146 -66q-33 -105 -92 -165t-135 -60z" />
<glyph unicode="&#x2000;" horiz-adv-x="1014" />
<glyph unicode="&#x2001;" horiz-adv-x="2028" />
<glyph unicode="&#x2002;" horiz-adv-x="1014" />
<glyph unicode="&#x2003;" horiz-adv-x="2028" />
<glyph unicode="&#x2004;" horiz-adv-x="676" />
<glyph unicode="&#x2005;" horiz-adv-x="507" />
<glyph unicode="&#x2006;" horiz-adv-x="338" />
<glyph unicode="&#x2007;" horiz-adv-x="338" />
<glyph unicode="&#x2008;" horiz-adv-x="253" />
<glyph unicode="&#x2009;" horiz-adv-x="405" />
<glyph unicode="&#x200a;" horiz-adv-x="112" />
<glyph unicode="&#x2010;" horiz-adv-x="712" d="M78 520v242h559v-242h-559z" />
<glyph unicode="&#x2011;" horiz-adv-x="712" d="M78 520v242h559v-242h-559z" />
<glyph unicode="&#x2012;" horiz-adv-x="712" d="M78 520v242h559v-242h-559z" />
<glyph unicode="&#x2013;" horiz-adv-x="899" d="M43 520v242h815v-242h-815z" />
<glyph unicode="&#x2014;" horiz-adv-x="1368" d="M43 520v242h1282v-242h-1282z" />
<glyph unicode="&#x2018;" horiz-adv-x="448" d="M225 952q-70 0 -110.5 45t-40.5 115q0 37 11.5 75t41.5 111l106 269h148l-70 -318q70 -54 70 -137q0 -69 -43.5 -114.5t-112.5 -45.5z" />
<glyph unicode="&#x2019;" horiz-adv-x="448" d="M223 1565q70 0 111 -45t41 -115q0 -37 -11.5 -75t-41.5 -111l-107 -269h-147l69 318q-69 53 -69 137q0 69 43 114.5t112 45.5z" />
<glyph unicode="&#x201a;" horiz-adv-x="448" d="M223 283q70 0 111 -45t41 -115q0 -37 -11.5 -75t-41.5 -111l-107 -269h-147l69 318q-69 53 -69 137q0 69 43 114.5t112 45.5z" />
<glyph unicode="&#x201c;" horiz-adv-x="868" d="M225 952q-70 0 -110.5 45t-40.5 115q0 37 11.5 75t41.5 111l106 269h148l-70 -318q70 -54 70 -137q0 -69 -43.5 -114.5t-112.5 -45.5zM645 952q-70 0 -110.5 45t-40.5 115q0 37 11.5 75t41.5 111l106 269h148l-70 -318q70 -54 70 -137q0 -69 -43.5 -114.5t-112.5 -45.5z " />
<glyph unicode="&#x201d;" horiz-adv-x="868" d="M223 1565q70 0 111 -45t41 -115q0 -37 -11.5 -75t-41.5 -111l-107 -269h-147l69 318q-69 53 -69 137q0 69 43 114.5t112 45.5zM643 1565q70 0 111 -45t41 -115q0 -36 -11.5 -73t-42.5 -113l-106 -269h-148l70 318q-70 54 -70 137q0 69 43.5 114.5t112.5 45.5z" />
<glyph unicode="&#x201e;" horiz-adv-x="868" d="M223 283q70 0 111 -45t41 -115q0 -37 -11.5 -75t-41.5 -111l-107 -269h-147l69 318q-69 53 -69 137q0 69 43 114.5t112 45.5zM643 283q70 0 111 -45t41 -115q0 -36 -11.5 -73t-42.5 -113l-106 -269h-148l70 318q-70 54 -70 137q0 69 43.5 114.5t112.5 45.5z" />
<glyph unicode="&#x2022;" horiz-adv-x="659" d="M330 975q119 0 193.5 -78.5t74.5 -198.5q0 -118 -74.5 -196t-193.5 -78t-194 79t-75 197q0 119 75 197t194 78z" />
<glyph unicode="&#x2026;" horiz-adv-x="1349" d="M225 324q76 0 125 -54t49 -127t-49 -125.5t-125 -52.5q-77 0 -125.5 52.5t-48.5 125.5t48.5 127t125.5 54zM676 324q76 0 125 -54t49 -127t-49 -125.5t-125 -52.5q-77 0 -125.5 52.5t-48.5 125.5t48.5 127t125.5 54zM1124 324q76 0 125 -54t49 -127t-49 -125.5 t-125 -52.5q-77 0 -125.5 52.5t-48.5 125.5t48.5 127t125.5 54z" />
<glyph unicode="&#x202f;" horiz-adv-x="405" />
<glyph unicode="&#x2039;" horiz-adv-x="647" d="M391 1133l193 -123l-224 -426l224 -426l-193 -125l-328 450v197z" />
<glyph unicode="&#x203a;" horiz-adv-x="647" d="M256 1133l328 -453v-197l-328 -450l-193 125l226 426l-226 426z" />
<glyph unicode="&#x205f;" horiz-adv-x="507" />
<glyph unicode="&#x20ac;" horiz-adv-x="1005" d="M457 453q21 -142 80.5 -202.5t156.5 -60.5q111 0 246 80v-229q-135 -76 -283 -76q-202 0 -334 123.5t-176 364.5h-139l39 163h94v150h-133l39 166h105q51 233 190 357t330 124q184 0 327 -119l-106 -184q-101 78 -205 78q-182 0 -229 -256h403l-41 -166h-370v-150h348 l-41 -163h-301z" />
<glyph unicode="&#x2122;" horiz-adv-x="1536" d="M653 1419l-28 -180h-176v-633h-220v633h-184v180h608zM1438 1419l24 -813h-211l-4 340q0 134 15 293h-5l-106 -549h-168l-115 547h-4q13 -133 13 -291l-5 -340h-200l22 813h281l90 -518l84 518h289z" />
<glyph unicode="&#x25fc;" horiz-adv-x="1085" d="M0 1085h1085v-1085h-1085v1085z" />
<glyph unicode="&#xfb03;" horiz-adv-x="1538" d="M952 1087h496v-1087h-309v870h-187v-870h-309v870h-190v-870h-310v870h-135v217h135v103q0 148 94.5 243t272.5 95q129 0 252 -55q98 79 274 79q188 0 320 -79l-82 -195q-95 45 -195 45q-70 0 -98.5 -29.5t-28.5 -97.5v-109zM643 1087v121q0 40 10 88q-56 15 -102 15 q-55 0 -76.5 -23t-21.5 -80v-121h190z" />
<glyph unicode="&#xfb04;" horiz-adv-x="1603" d="M1556 217l56 -213q-76 -39 -172 -39q-129 0 -202 76.5t-73 206.5v1067q-55 14 -102 14q-63 0 -87 -29t-24 -96v-117h150l-33 -217h-117v-870h-309v870h-190v-870h-310v870h-135v217h135v103q0 148 94.5 245t272.5 97q130 0 250 -55q97 75 250 75q97 0 194 -34l271 26 v-1282q0 -51 45 -51q12 0 36 6zM643 1087v123q0 48 8 84q-55 15 -100 15q-55 0 -76.5 -22.5t-21.5 -78.5v-121h190z" />
</font>
</defs>
</svg>
