<?xml version="1.0" standalone="no"?>
<!DOCTYPE svg PUBLIC "-//W3C//DTD SVG 1.1//EN" "http://www.w3.org/Graphics/SVG/1.1/DTD/svg11.dtd" >
<svg xmlns="http://www.w3.org/2000/svg" xmlns:xlink="http://www.w3.org/1999/xlink" version="1.1">
<metadata></metadata>
<defs>
<font id="fira_sans_compressedbook" horiz-adv-x="987" >
<font-face units-per-em="2048" ascent="1638" descent="-410" />
<missing-glyph horiz-adv-x="440" />
<glyph unicode="&#xfb01;" horiz-adv-x="976" d="M469 1532q133 0 264 -76l-55 -108q-99 47 -201 47q-76 0 -110.5 -34.5t-34.5 -111.5v-172h491v-1077h-166v946h-325v-946h-166v946h-141v131h141v170q0 127 76 206t227 79z" />
<glyph unicode="&#xfb02;" horiz-adv-x="1015" d="M942 125l39 -115q-60 -35 -125 -35q-87 0 -139.5 56t-52.5 151v1184q-102 31 -187 31q-80 0 -112.5 -33.5t-32.5 -110.5v-176h207l-19 -131h-188v-946h-166v946h-141v131h141v176q0 126 76 202.5t219 76.5q107 0 207 -41l161 18v-1323q0 -71 62 -71q26 0 51 10z" />
<glyph horiz-adv-x="0" />
<glyph horiz-adv-x="682" />
<glyph unicode="&#xd;" horiz-adv-x="440" />
<glyph unicode=" "  horiz-adv-x="440" />
<glyph unicode="&#x09;" horiz-adv-x="440" />
<glyph unicode="&#xa0;" horiz-adv-x="440" />
<glyph unicode="!" horiz-adv-x="448" d="M311 1409l-20 -946h-135l-23 946h178zM223 227q55 0 90 -37t35 -88q0 -53 -35 -90t-90 -37q-54 0 -88.5 37t-34.5 90q0 51 34.5 88t88.5 37z" />
<glyph unicode="&#x22;" horiz-adv-x="747" d="M135 879l-22 530h161l-22 -530h-117zM494 879l-23 530h162l-23 -530h-116z" />
<glyph unicode="#" horiz-adv-x="878" d="M854 920h-125l-59 -449h123v-125h-140l-45 -346h-137l45 346h-248l-45 -346h-137l45 346h-106v125h122l60 449h-121v127h137l43 321h137l-43 -321h248l43 321h137l-43 -321h109v-127zM532 471l60 449h-248l-59 -449h247z" />
<glyph unicode="$" horiz-adv-x="894" d="M827 377q0 -143 -83.5 -252t-225.5 -139v-299h-133v290q-204 11 -348 175l90 96q136 -133 291 -133q109 0 174 70t65 190q0 102 -52.5 163.5t-192.5 112.5q-172 65 -251 157t-79 232q0 130 85.5 227t217.5 119v297h133v-297q152 -21 275 -151l-88 -96q-62 59 -122.5 86.5 t-131.5 27.5q-92 0 -146.5 -56.5t-54.5 -147.5q0 -93 52.5 -151t195.5 -112q80 -31 135.5 -63.5t102 -79.5t69 -113t22.5 -153z" />
<glyph unicode="%" horiz-adv-x="1409" d="M1042 1450l111 -61l-778 -1448l-113 63zM358 1389q121 0 197 -90t76 -250q0 -162 -75.5 -253t-197.5 -91q-121 0 -196.5 90.5t-75.5 251.5q0 162 75 252t197 90zM358 1276q-75 0 -106 -59t-31 -170q0 -109 31 -168.5t106 -59.5t105.5 59t30.5 171q0 108 -30.5 167.5 t-105.5 59.5zM1053 662q120 0 196 -91.5t76 -253.5q0 -161 -75.5 -251.5t-196.5 -90.5q-122 0 -198.5 91t-76.5 251q0 162 76.5 253.5t198.5 91.5zM1053 545q-76 0 -108 -59t-32 -169q0 -227 140 -227q74 0 104.5 59t30.5 168q0 108 -30.5 168t-104.5 60z" />
<glyph unicode="&#x26;" horiz-adv-x="1236" d="M522 1432q140 0 226 -85.5t86 -222.5q0 -121 -62.5 -208t-181.5 -168l299 -359q70 198 102 356l144 -40q-54 -223 -148 -412l197 -219l-123 -99l-166 205q-153 -205 -375 -205q-167 0 -273 105t-106 276q0 126 59.5 220t180.5 186q-90 97 -130 175.5t-40 180.5 q0 141 81.5 227.5t229.5 86.5zM524 1311q-72 0 -111.5 -49.5t-39.5 -141.5q0 -77 28.5 -138t100.5 -148q89 67 130.5 129.5t41.5 150.5q0 101 -40 149t-110 48zM471 674q-83 -67 -120.5 -140t-37.5 -174q0 -121 59.5 -186t159.5 -65q83 0 148 41t123 122z" />
<glyph unicode="'" horiz-adv-x="387" d="M135 879l-22 530h161l-22 -530h-117z" />
<glyph unicode="(" horiz-adv-x="544" d="M377 1724l104 -69q-67 -119 -105.5 -200t-76.5 -194.5t-54 -244.5t-16 -299q0 -135 12.5 -249t31 -199.5t54 -175.5t68.5 -155t86 -159l-104 -70q-60 97 -97.5 163.5t-83.5 168t-71.5 194.5t-43.5 218.5t-18 263.5t18 263.5t43.5 218t71.5 194t83.5 168t97.5 163.5z" />
<glyph unicode=")" horiz-adv-x="544" d="M168 1724q60 -97 97.5 -163.5t83 -168t71 -194t43.5 -218t18 -263.5q0 -171 -23.5 -316t-73 -271.5t-95 -212.5t-121.5 -208l-105 70q67 119 105 200.5t75.5 195t53.5 244.5t16 298q0 168 -16 299t-53.5 244.5t-75.5 194t-105 200.5z" />
<glyph unicode="*" horiz-adv-x="778" d="M723 1161l-250 -69l180 -246l-135 -74l-129 264l-129 -264l-133 72l178 246l-250 71l47 127l236 -108l-27 331h156l-27 -331l236 110z" />
<glyph unicode="+" horiz-adv-x="847" d="M496 1049v-304h252v-137h-252v-299h-144v299h-252v137h252v304h144z" />
<glyph unicode="," horiz-adv-x="409" d="M207 227q52 0 85.5 -35t33.5 -88q0 -40 -37 -135l-107 -299h-108l71 326q-57 41 -57 108q0 53 33.5 88t85.5 35z" />
<glyph unicode="-" horiz-adv-x="692" d="M104 571v140h482v-140h-482z" />
<glyph unicode="." horiz-adv-x="417" d="M209 227q55 0 89 -36.5t34 -88.5q0 -53 -34 -90t-89 -37t-89 37t-34 90q0 52 34 88.5t89 36.5z" />
<glyph unicode="/" horiz-adv-x="874" d="M567 1649l138 -27l-400 -1831l-135 27z" />
<glyph unicode="0" horiz-adv-x="989" d="M496 1389q191 0 286 -173t95 -532q0 -362 -95 -535.5t-286 -173.5t-287 174.5t-96 534.5t96 532.5t287 172.5zM496 1255q-72 0 -117 -52.5t-69.5 -179.5t-24.5 -339q0 -213 24.5 -341t69.5 -181t117 -53t116.5 53t68.5 181t24 341q0 215 -24 342t-68.5 178t-116.5 51z " />
<glyph unicode="1" horiz-adv-x="724" d="M541 1368v-1368h-164v1192l-260 -193l-76 109l352 260h148z" />
<glyph unicode="2" horiz-adv-x="817" d="M369 1389q158 0 251 -100.5t93 -260.5q0 -64 -10 -121t-38 -123t-59.5 -123t-95 -146.5t-123 -166t-162.5 -207.5h514l-18 -141h-674v133q131 168 207 270t139 196.5t91 160.5t42.5 128.5t14.5 133.5q0 112 -49 170.5t-134 58.5q-67 0 -118.5 -34t-108.5 -109l-108 78 q138 203 346 203z" />
<glyph unicode="3" horiz-adv-x="839" d="M381 1389q152 0 245 -99t93 -243q0 -258 -250 -320q132 -16 208.5 -100.5t76.5 -235.5q0 -177 -106 -296.5t-281 -119.5q-107 0 -190.5 44.5t-158.5 138.5l105 82q62 -69 116.5 -99t125.5 -30q101 0 162 73.5t61 208.5q0 142 -63 202t-185 60h-76l19 123h51 q102 0 165.5 65.5t63.5 192.5q0 107 -53 164t-145 57q-123 0 -226 -112l-90 84q144 160 332 160z" />
<glyph unicode="4" horiz-adv-x="901" d="M852 477v-133h-143v-344h-158v344h-488v121l336 924l142 -52l-308 -860h320l16 379h140v-379h143z" />
<glyph unicode="5" horiz-adv-x="856" d="M739 1368l-22 -133h-436v-422q82 55 178 55q145 0 233 -114t88 -316q0 -205 -109 -334t-286 -129q-107 0 -186.5 43t-153.5 129l100 91q55 -64 110 -94.5t126 -30.5q108 0 168.5 84t60.5 245q0 299 -202 299q-81 0 -164 -53h-123v680h618z" />
<glyph unicode="6" horiz-adv-x="940" d="M549 897q133 0 222 -112t89 -322q0 -233 -100 -360.5t-262 -127.5q-385 0 -385 658q0 357 116 556.5t320 199.5q127 0 233 -82l-65 -109q-79 57 -166 57q-122 0 -194 -139.5t-81 -396.5q103 178 273 178zM498 109q98 0 148 89.5t50 260.5q0 309 -182 309 q-68 0 -129.5 -56t-105.5 -151q5 -236 57 -344t162 -108z" />
<glyph unicode="7" horiz-adv-x="751" d="M705 1368v-127l-426 -1261l-148 49l410 1202h-502v137h666z" />
<glyph unicode="8" horiz-adv-x="933" d="M604 731q131 -60 193.5 -149.5t62.5 -219.5q0 -177 -108.5 -282t-288.5 -105q-178 0 -283.5 105t-105.5 278q0 255 241 365q-103 58 -148.5 134t-45.5 183q0 165 100.5 257t245.5 92q69 0 130.5 -21t110.5 -62.5t78 -108.5t29 -153q0 -105 -50 -179t-161 -134zM467 1266 q-186 0 -186 -228q0 -99 44 -151.5t148 -98.5l35 -16q79 54 112 115t33 151q0 119 -47 173.5t-139 54.5zM467 104q109 0 168 63t59 193q0 113 -50.5 176t-182.5 121l-43 19q-94 -49 -135 -125.5t-41 -192.5q0 -254 225 -254z" />
<glyph unicode="9" horiz-adv-x="907" d="M440 1389q184 0 278.5 -138.5t94.5 -398.5q0 -167 -24.5 -294.5t-70.5 -220.5t-123.5 -164.5t-171.5 -121t-226 -94.5l-37 125q112 39 193.5 86.5t144.5 114.5t98.5 158t44.5 210q-93 -149 -248 -149q-133 0 -227 119.5t-94 316.5q0 217 103.5 334t264.5 117zM426 633 q134 0 221 182q-1 244 -48.5 343t-156.5 99q-204 0 -204 -323q0 -149 50 -225t138 -76z" />
<glyph unicode=":" horiz-adv-x="417" d="M209 991q55 0 89 -36.5t34 -88.5q0 -53 -34 -90t-89 -37t-89 37t-34 90q0 52 34 88.5t89 36.5zM209 227q55 0 89 -36.5t34 -88.5q0 -53 -34 -90t-89 -37t-89 37t-34 90q0 52 34 88.5t89 36.5z" />
<glyph unicode=";" horiz-adv-x="419" d="M209 991q55 0 89 -36.5t34 -88.5q0 -53 -34 -90t-89 -37t-89 37t-34 90q0 52 34 88.5t89 36.5zM207 227q52 0 85.5 -35t33.5 -88q0 -40 -37 -135l-107 -299h-108l71 326q-57 41 -57 108q0 53 33.5 88t85.5 35z" />
<glyph unicode="&#x3c;" horiz-adv-x="847" d="M700 1104l66 -127l-553 -295l553 -299l-64 -125l-622 342v164z" />
<glyph unicode="=" horiz-adv-x="841" d="M100 801v135h641v-135h-641zM100 416v135h641v-135h-641z" />
<glyph unicode="&#x3e;" horiz-adv-x="847" d="M145 1104l621 -340v-164l-621 -342l-65 125l553 299l-553 295z" />
<glyph unicode="?" horiz-adv-x="798" d="M408 1432q156 0 242.5 -91t86.5 -221q0 -63 -17 -113.5t-43.5 -84.5t-59.5 -64t-65.5 -58.5t-59 -60t-43.5 -76.5t-17 -100v-100h-158v108q0 68 16.5 122.5t42.5 90.5t57.5 66t63.5 56.5t58 54.5t42.5 68.5t16.5 90.5q0 82 -46.5 128t-125.5 46q-68 0 -123 -33t-112 -108 l-103 80q139 199 347 199zM356 227q56 0 90.5 -36.5t34.5 -88.5q0 -53 -34 -90t-91 -37q-54 0 -87 37t-33 90q0 52 33 88.5t87 36.5z" />
<glyph unicode="@" horiz-adv-x="1734" d="M895 1432q171 0 307.5 -61.5t224.5 -170t134.5 -254t46.5 -317.5q0 -272 -89 -440.5t-243 -168.5q-86 0 -138.5 57t-72.5 138q-31 -82 -92.5 -136t-147.5 -54q-143 0 -221 117t-78 331q0 267 99.5 397.5t269.5 130.5q140 0 264 -79v-529q0 -132 27 -187.5t86 -55.5 q82 0 130 116t48 359q0 318 -141.5 493.5t-413.5 175.5q-186 0 -324 -101t-211 -282t-73 -419q0 -374 159 -579.5t449 -205.5q160 0 322 70l43 -129q-176 -78 -367 -78q-170 0 -311.5 62t-242.5 178t-156.5 290.5t-55.5 391.5q0 271 95.5 485t271 334.5t401.5 120.5z M840 147q95 0 172 138v573q-63 25 -117 25q-211 0 -211 -410q0 -170 39 -248t117 -78z" />
<glyph unicode="A" horiz-adv-x="993" d="M799 0l-88 365h-432l-89 -365h-170l371 1409h213l369 -1409h-174zM311 502h367l-184 764z" />
<glyph unicode="B" horiz-adv-x="1021" d="M649 745q68 -13 119.5 -36.5t94 -63t65 -102t22.5 -146.5q0 -196 -126 -296.5t-349 -100.5h-313v1409h264q228 0 350.5 -92t122.5 -262q0 -122 -66 -200t-184 -110zM442 1272h-110v-467h135q127 0 191.5 60.5t64.5 174.5q0 125 -68 178.5t-213 53.5zM475 139 q145 0 221 59t76 199q0 144 -72 209.5t-221 65.5h-147v-533h143z" />
<glyph unicode="C" horiz-adv-x="950" d="M586 1432q98 0 171.5 -33.5t149.5 -102.5l-90 -104q-110 98 -227 98q-314 0 -314 -583q0 -584 318 -584q72 0 125 28t106 78l95 -100q-139 -154 -330 -154q-225 0 -359.5 184.5t-134.5 547.5q0 184 38 325t106 227t155 129.5t191 43.5z" />
<glyph unicode="D" horiz-adv-x="1087" d="M420 1409q68 0 125 -7.5t117 -27.5t107.5 -52.5t90.5 -86t71.5 -125t45 -172.5t16.5 -225q0 -122 -16.5 -223.5t-45 -174t-70 -128.5t-88 -91t-102.5 -57t-109 -30.5t-113 -8.5h-287v1409h258zM451 1270h-119v-1133h127q60 0 108 13t95.5 50.5t79.5 99.5t51.5 167 t19.5 246q0 144 -21 248.5t-52.5 163t-82 92.5t-97 43.5t-109.5 9.5z" />
<glyph unicode="E" horiz-adv-x="884" d="M797 1409l-19 -139h-446v-482h387v-137h-387v-512h473v-139h-643v1409h635z" />
<glyph unicode="F" horiz-adv-x="819" d="M162 0v1409h622l-20 -139h-432v-502h375v-137h-375v-631h-170z" />
<glyph unicode="G" horiz-adv-x="1075" d="M606 1432q105 0 186.5 -36.5t161.5 -113.5l-94 -98q-65 57 -121.5 81.5t-132.5 24.5q-53 0 -99 -16t-89.5 -57t-74 -105t-49 -167.5t-18.5 -237.5q0 -167 20.5 -282t62 -181.5t98 -95.5t135.5 -29q117 0 209 63v453h-199l-18 139h383v-676q-173 -123 -377 -123 q-494 0 -494 732q0 182 41.5 324t113 228t161.5 129.5t194 43.5z" />
<glyph unicode="H" horiz-adv-x="1136" d="M803 0v670h-471v-670h-170v1409h170v-598h471v598h172v-1409h-172z" />
<glyph unicode="I" horiz-adv-x="493" d="M332 1409v-1409h-170v1409h170z" />
<glyph unicode="J" horiz-adv-x="509" d="M358 1409v-1216q0 -82 -14.5 -147.5t-39.5 -113t-65 -85.5t-84.5 -64.5t-105.5 -50.5l-45 121q113 61 147.5 129t34.5 219v1208h172z" />
<glyph unicode="K" horiz-adv-x="997" d="M332 1409v-1409h-170v1409h170zM965 1409l-439 -645l469 -764h-194l-461 754l442 655h183z" />
<glyph unicode="L" horiz-adv-x="825" d="M332 1409v-1257h471l-19 -152h-622v1409h170z" />
<glyph unicode="M" horiz-adv-x="1345" d="M1133 1409l98 -1409h-162l-41 649q-27 426 -27 586l-247 -1073h-162l-260 1075q5 -185 -19 -598l-37 -639h-161l98 1409h223l240 -1047l227 1047h230z" />
<glyph unicode="N" horiz-adv-x="1138" d="M977 1409v-1409h-227l-453 1217q25 -277 25 -525v-692h-160v1409h227l453 -1219q-7 37 -16 169.5t-9 252.5v797h160z" />
<glyph unicode="O" horiz-adv-x="1175" d="M588 1432q231 0 361 -180.5t130 -546.5q0 -363 -130 -546.5t-361 -183.5q-230 0 -361 181t-131 546q0 360 132 545t360 185zM588 1290q-73 0 -129 -31.5t-98 -100t-63.5 -183t-21.5 -273.5t22 -273.5t64.5 -181.5t98 -97.5t127.5 -30.5q101 0 168 54.5t105 186.5t38 345 q0 159 -21 273t-62 182t-97 99t-131 31z" />
<glyph unicode="P" horiz-adv-x="970" d="M424 1409q249 0 375.5 -109t126.5 -323q0 -229 -129.5 -339t-368.5 -110h-96v-528h-170v1409h262zM428 666q164 0 240.5 68t76.5 241q0 158 -76.5 227.5t-240.5 69.5h-96v-606h96z" />
<glyph unicode="Q" horiz-adv-x="1175" d="M799 74q190 -5 340 -146l-117 -133q-92 106 -187.5 146.5t-252.5 40.5q-222 0 -354 181.5t-132 538.5q0 360 132 545t360 185q230 0 360.5 -182t130.5 -545q0 -138 -20 -244t-58.5 -179.5t-87 -122t-114.5 -85.5zM276 702q0 -159 22 -273.5t64.5 -181.5t98 -97.5 t127.5 -30.5q101 0 168 54.5t105 186.5t38 345q0 159 -21 273t-62 182t-97 99t-131 31q-73 0 -129 -31.5t-98 -100t-63.5 -183t-21.5 -273.5z" />
<glyph unicode="R" horiz-adv-x="1021" d="M981 0h-188l-281 610q-14 -2 -47 -2h-133v-608h-170v1409h274q245 0 364.5 -101.5t119.5 -291.5q0 -137 -64 -233.5t-184 -139.5zM451 741q150 0 218 66.5t68 208.5q0 133 -69 194.5t-234 61.5h-102v-531h119z" />
<glyph unicode="S" horiz-adv-x="919" d="M461 1432q207 0 354 -160l-90 -98q-64 61 -126 88.5t-136 27.5q-91 0 -148 -58.5t-57 -152.5t53 -152.5t201 -113.5q82 -32 139.5 -66t104.5 -83t70.5 -117.5t23.5 -157.5q0 -84 -29.5 -159t-82 -131.5t-131.5 -90t-173 -33.5q-235 0 -397 183l92 96q71 -66 142 -100.5 t159 -34.5q110 0 176 72t66 194q0 106 -52.5 169.5t-195.5 117.5q-178 66 -259 160.5t-81 238.5q0 153 106.5 257t270.5 104z" />
<glyph unicode="T" horiz-adv-x="868" d="M856 1409l-20 -143h-318v-1266h-170v1266h-325v143h833z" />
<glyph unicode="U" horiz-adv-x="1099" d="M958 1409v-1032q0 -113 -45 -202.5t-139 -144.5t-225 -55q-99 0 -178 31.5t-128.5 87t-75.5 127.5t-26 156v1032h170v-1020q0 -268 238 -268q237 0 237 268v1020h172z" />
<glyph unicode="V" horiz-adv-x="962" d="M942 1409l-358 -1409h-199l-365 1409h175l292 -1225l287 1225h168z" />
<glyph unicode="W" horiz-adv-x="1406" d="M1360 1409l-232 -1409h-223l-203 1206l-206 -1206h-220l-229 1409h166l180 -1257l215 1257h191l215 -1257l184 1257h162z" />
<glyph unicode="X" horiz-adv-x="909" d="M553 762l350 -762h-180l-274 647l-269 -647h-174l344 752l-313 657h180l236 -549l239 549h172z" />
<glyph unicode="Y" horiz-adv-x="929" d="M922 1409l-371 -864v-545h-172v543l-371 866h182l279 -715l276 715h177z" />
<glyph unicode="Z" horiz-adv-x="872" d="M813 1409v-139l-586 -1123h584l-20 -147h-744v139l586 1125h-527v145h707z" />
<glyph unicode="[" horiz-adv-x="538" d="M457 1665v-137h-195v-1628h195v-136h-351v1901h351z" />
<glyph unicode="\" horiz-adv-x="874" d="M305 1645l400 -1827l-138 -27l-397 1825z" />
<glyph unicode="]" horiz-adv-x="538" d="M434 1665v-1901h-352v136h194v1628h-194v137h352z" />
<glyph unicode="^" horiz-adv-x="909" d="M528 1714l316 -635h-174l-219 488l-213 -488h-172l315 635h147z" />
<glyph unicode="_" horiz-adv-x="880" d="M35 -279v144h811v-144h-811z" />
<glyph unicode="`" horiz-adv-x="530" d="M145 1620l334 -225l-49 -84l-358 176z" />
<glyph unicode="a" horiz-adv-x="919" d="M764 223q0 -58 16.5 -86t53.5 -47l-35 -115q-74 14 -115.5 50t-58.5 108q-91 -158 -260 -158q-134 0 -211.5 89t-77.5 237q0 171 105 261.5t304 90.5h115v103q0 109 -43 160t-133 51q-103 0 -244 -56l-43 117q162 72 307 72q161 0 240.5 -88t79.5 -248v-541zM397 102 q132 0 203 177v262h-96q-131 0 -193.5 -58t-62.5 -176q0 -102 39 -153.5t110 -51.5z" />
<glyph unicode="b" horiz-adv-x="993" d="M571 1100q156 0 242 -140t86 -419q0 -266 -93.5 -416t-252.5 -150q-72 0 -134 38t-106 104l-12 -117h-147v1511l165 17v-588q98 160 252 160zM518 109q205 0 205 432q0 122 -13.5 206.5t-39.5 131.5t-59.5 67.5t-78.5 20.5q-119 0 -213 -172v-539q36 -65 88 -106t111 -41 z" />
<glyph unicode="c" horiz-adv-x="796" d="M494 1100q79 0 143 -26.5t127 -86.5l-78 -98q-92 76 -186 76q-228 0 -228 -430q0 -223 58.5 -320.5t167.5 -97.5q52 0 95 19t93 59l78 -101q-119 -119 -268 -119q-190 0 -296 139t-106 416q0 270 108 420t292 150z" />
<glyph unicode="d" horiz-adv-x="999" d="M680 1532l166 -21v-1511h-148l-10 139q-97 -164 -250 -164q-164 0 -254 148.5t-90 411.5q0 257 97.5 411t254.5 154q144 0 234 -127v559zM469 109q66 0 116.5 41t94.5 120v553q-87 144 -201 144q-98 0 -153.5 -105.5t-55.5 -324.5q0 -428 199 -428z" />
<glyph unicode="e" horiz-adv-x="925" d="M840 571q0 -42 -4 -92h-570q7 -200 67 -283t167 -83q68 0 121.5 22t111.5 70l74 -101q-132 -129 -311 -129q-189 0 -295.5 142.5t-106.5 410.5q0 269 101 420.5t282 151.5q176 0 269.5 -134t93.5 -395zM680 604v19q0 180 -49.5 263t-153.5 83q-96 0 -150 -85t-61 -280 h414z" />
<glyph unicode="f" horiz-adv-x="573" d="M471 1397q-68 0 -99.5 -34.5t-31.5 -109.5v-176h219l-18 -131h-201v-946h-166v946h-149v131h149v176q0 125 75 202t208 77q115 0 217 -57l-49 -117q-74 39 -154 39z" />
<glyph unicode="g" horiz-adv-x="880" d="M825 1186l49 -150q-78 -32 -251 -32q157 -85 157 -279q0 -166 -91 -263t-251 -97q-58 0 -108 20q-49 -40 -49 -109q0 -100 120 -100h117q151 0 239.5 -82t88.5 -203q0 -145 -108.5 -233t-309.5 -88q-212 0 -299.5 80.5t-87.5 240.5h147q0 -103 51 -146.5t189 -43.5 q134 0 193 45.5t59 132.5q0 164 -193 164h-79q-144 0 -210.5 54t-66.5 145q0 99 107 182q-158 98 -158 303q0 169 98.5 271t257.5 102q144 0 224 21t165 65zM434 979q-188 0 -188 -252q0 -114 49 -182t137 -68q92 0 138 59t46 193q0 250 -182 250z" />
<glyph unicode="h" d="M586 1100q118 0 186 -84t68 -225v-791h-166v768q0 107 -31.5 154t-95.5 47q-120 0 -228 -207v-762h-165v1511l165 17v-610q53 90 115.5 136t151.5 46z" />
<glyph unicode="i" horiz-adv-x="475" d="M236 1579q50 0 81 -32.5t31 -82.5q0 -48 -31 -80t-81 -32t-81.5 32t-31.5 80q0 50 31.5 82.5t81.5 32.5zM319 1077v-1077h-165v1077h165z" />
<glyph unicode="j" horiz-adv-x="475" d="M236 1579q50 0 81 -32.5t31 -82.5q0 -48 -31 -80t-81 -32t-81.5 32t-31.5 80q0 50 31.5 82.5t81.5 32.5zM319 1077v-1065q0 -93 -17.5 -161t-57.5 -118.5t-87.5 -85t-123.5 -75.5l-53 117q49 29 77.5 53t52.5 60t34 86t10 122v1067h165z" />
<glyph unicode="k" horiz-adv-x="866" d="M319 1532v-1532h-165v1511zM836 1077l-332 -479l366 -598h-186l-354 590l336 487h170z" />
<glyph unicode="l" horiz-adv-x="495" d="M336 -25q-87 0 -140 56t-53 151v1329l166 21v-1346q0 -71 62 -71q26 0 51 10l39 -115q-60 -35 -125 -35z" />
<glyph unicode="m" horiz-adv-x="1437" d="M1055 1100q108 0 172.5 -85t64.5 -224v-791h-162v770q0 201 -116 201q-114 0 -209 -199v-772h-162v770q0 201 -115 201q-119 0 -211 -199v-772h-163v1077h143l12 -159q107 182 258 182q82 0 139 -51.5t80 -145.5q110 197 269 197z" />
<glyph unicode="n" d="M586 1100q118 0 186 -84t68 -225v-791h-166v768q0 107 -31.5 154t-95.5 47q-120 0 -228 -207v-762h-165v1077h143l14 -168q56 93 120 142t155 49z" />
<glyph unicode="o" d="M496 1100q190 0 293.5 -141.5t103.5 -417.5q0 -263 -106 -414.5t-293 -151.5q-189 0 -294.5 149t-105.5 415q0 271 105.5 416t296.5 145zM496 965q-112 0 -169 -100.5t-57 -325.5q0 -224 56.5 -326t167.5 -102t167 101.5t56 328.5q0 224 -56 324t-165 100z" />
<glyph unicode="p" horiz-adv-x="993" d="M578 1100q158 0 239.5 -143t81.5 -416q0 -265 -90 -415.5t-256 -150.5q-141 0 -234 127v-512l-165 -20v1507h145l10 -143q105 166 269 166zM518 113q205 0 205 428q0 226 -45 326t-141 100q-126 0 -218 -166v-555q79 -133 199 -133z" />
<glyph unicode="q" horiz-adv-x="999" d="M702 1077h144v-1507l-166 20v543q-91 -158 -244 -158q-161 0 -251.5 147t-90.5 413q0 259 96.5 412t255.5 153q150 0 246 -142zM471 109q122 0 209 165v549q-91 144 -203 144q-94 0 -150.5 -105.5t-56.5 -324.5q0 -428 201 -428z" />
<glyph unicode="r" horiz-adv-x="655" d="M557 1100q41 0 82 -13l-29 -159q-42 10 -73 10q-83 0 -135.5 -73t-82.5 -224v-641h-165v1077h143l14 -203q76 226 246 226z" />
<glyph unicode="s" horiz-adv-x="800" d="M410 1100q174 0 301 -121l-74 -96q-114 88 -223 88q-76 0 -120 -42t-44 -116q0 -69 42.5 -109t158.5 -81q148 -56 216 -128.5t68 -197.5q0 -152 -101 -237t-251 -85q-199 0 -338 142l88 92q114 -103 246 -103q86 0 137 48t51 133q0 84 -44.5 128.5t-172.5 90.5 q-143 53 -204.5 124.5t-61.5 178.5q0 124 91.5 207.5t234.5 83.5z" />
<glyph unicode="t" horiz-adv-x="618" d="M553 152l65 -103q-89 -74 -202 -74q-118 0 -183 70.5t-65 190.5v710h-145v131h145v246l166 23v-269h213l-19 -131h-194v-713q0 -118 102 -118q56 0 117 37z" />
<glyph unicode="u" horiz-adv-x="978" d="M825 1077v-1077h-143l-10 158q-107 -183 -271 -183q-116 0 -186 80.5t-70 210.5v811h166v-794q0 -177 127 -177q126 0 221 191v780h166z" />
<glyph unicode="v" horiz-adv-x="843" d="M821 1077l-297 -1077h-196l-305 1077h172l231 -930l229 930h166z" />
<glyph unicode="w" horiz-adv-x="1234" d="M1192 1077l-201 -1077h-219l-156 922l-151 -922h-217l-205 1077h164l153 -952l164 952h195l160 -952l157 952h156z" />
<glyph unicode="x" horiz-adv-x="829" d="M510 578l307 -578h-180l-225 473l-228 -473h-172l305 569l-270 508h174l193 -409l194 409h170z" />
<glyph unicode="y" horiz-adv-x="845" d="M823 1077l-297 -1083q-51 -185 -146.5 -290.5t-268.5 -133.5l-21 127q128 29 187.5 95.5t101.5 207.5h-64l-292 1077h170l233 -956l229 956h168z" />
<glyph unicode="z" horiz-adv-x="735" d="M686 1077v-129l-473 -809h475l-16 -139h-633v125l471 811h-432v141h608z" />
<glyph unicode="{" horiz-adv-x="542" d="M467 1706v-123q-85 0 -119.5 -33.5t-34.5 -115.5v-504q0 -101 -33 -145.5t-108 -69.5q77 -26 110 -68.5t33 -144.5v-504q0 -82 34 -116t118 -34v-122q-163 0 -233 68t-70 222v476q0 85 -26.5 120t-92.5 35v135q65 0 92 37t27 123v475q0 154 69.5 221.5t233.5 67.5z" />
<glyph unicode="|" horiz-adv-x="667" d="M410 1651v-1860h-152v1860h152z" />
<glyph unicode="}" horiz-adv-x="542" d="M78 1706q163 0 232 -67.5t69 -221.5v-475q0 -86 27 -123t92 -37v-135q-66 0 -92.5 -35t-26.5 -120v-476q0 -154 -69 -222t-232 -68v122q83 0 117 34t34 116v504q0 102 32.5 145t111.5 68q-79 25 -111.5 69t-32.5 146v504q0 82 -33.5 115.5t-115.5 33.5z" />
<glyph unicode="~" horiz-adv-x="823" d="M547 526q-42 0 -84.5 18.5t-70.5 41t-61.5 41t-60.5 18.5q-25 0 -48 -17.5t-35 -35t-33 -51.5l-95 53q89 178 224 178q40 0 80.5 -18.5t68.5 -40t61 -40t60 -18.5q36 0 63 24t54 69l94 -52q-85 -170 -217 -170z" />
<glyph unicode="&#xa1;" horiz-adv-x="448" d="M225 1001q54 0 88.5 -37t34.5 -90q0 -51 -34.5 -87.5t-88.5 -36.5q-55 0 -90 36.5t-35 87.5q0 53 35 90t90 37zM293 516l22 -928h-178l21 928h135z" />
<glyph unicode="&#xa2;" horiz-adv-x="796" d="M686 195l78 -101q-93 -93 -213 -114v-293h-135v295q-154 29 -238 165.5t-84 382.5q0 241 86 386.5t238 175.5v307h133v-303q116 -15 213 -109l-78 -98q-92 76 -186 76q-228 0 -228 -430q0 -223 58.5 -320.5t167.5 -97.5q52 0 95 19t93 59z" />
<glyph unicode="&#xa3;" horiz-adv-x="884" d="M369 395q0 -104 -25.5 -160t-99.5 -94h555l-19 -141h-712v133q86 40 112.5 91t26.5 173v269h-113v110h113v258q0 157 87 256t236 99q181 0 299 -164l-104 -80q-42 57 -84 83.5t-100 26.5q-85 0 -128.5 -55.5t-43.5 -161.5v-262h344v-110h-344v-271z" />
<glyph unicode="&#xa4;" horiz-adv-x="942" d="M903 274l-104 -84l-127 156q-87 -65 -207 -65q-115 0 -195 65l-129 -156l-96 89l141 161q-63 108 -63 258q0 142 59 250l-145 176l104 84l129 -157q81 63 195 63q118 0 203 -63l131 157l96 -88l-141 -164q63 -104 63 -258q0 -146 -59 -249zM469 412q199 0 199 288 q0 289 -199 289q-201 0 -201 -289q0 -148 50.5 -218t150.5 -70z" />
<glyph unicode="&#xa5;" horiz-adv-x="901" d="M895 1368l-324 -666h193v-114h-229v-191h229v-114h-229v-283h-168v283h-228v114h228v191h-228v114h189l-320 666h172l275 -616l274 616h166z" />
<glyph unicode="&#xa6;" horiz-adv-x="667" d="M410 1651v-744h-152v744h152zM410 537v-746h-152v746h152z" />
<glyph unicode="&#xa7;" horiz-adv-x="903" d="M653 348q95 -77 95 -198q0 -133 -90.5 -213t-229.5 -80q-174 0 -299 100l68 104q98 -73 221 -73q77 0 122.5 40t45.5 113q0 69 -39.5 107t-167.5 90q-139 58 -199.5 122.5t-60.5 180.5q0 74 35.5 138.5t97.5 109.5q-92 80 -92 207q0 133 90 211.5t225 78.5 q162 0 289 -108l-66 -100q-104 77 -213 77q-76 0 -119.5 -40t-43.5 -111t39 -113.5t165 -95.5q137 -57 198.5 -121.5t61.5 -167.5q0 -153 -133 -258zM272 662q0 -77 36.5 -119t144.5 -86q46 -18 110 -49q70 76 70 176q0 68 -37 109t-147 87q-61 27 -111 54q-66 -81 -66 -172 z" />
<glyph unicode="&#xa8;" horiz-adv-x="677" d="M178 1556q44 0 72.5 -30.5t28.5 -75.5t-28.5 -74.5t-72.5 -29.5t-73 30t-29 74q0 45 29 75.5t73 30.5zM528 1556q44 0 73.5 -30.5t29.5 -75.5q0 -44 -29.5 -74t-73.5 -30q-43 0 -72.5 30t-29.5 74t29.5 75t72.5 31z" />
<glyph unicode="&#xa9;" horiz-adv-x="1359" d="M682 1524q227 0 376.5 -173t149.5 -462q0 -144 -40.5 -264t-111.5 -200.5t-167.5 -124.5t-206.5 -44q-111 0 -208 44t-168.5 124.5t-112.5 200.5t-41 264q0 145 41 265.5t112.5 201t168.5 124.5t208 44zM682 1425q-187 0 -304.5 -143t-117.5 -393q0 -249 118 -391 t304 -142q185 0 302.5 142.5t117.5 390.5q0 250 -117.5 393t-302.5 143zM688 1274q107 0 191 -78l-58 -82q-68 49 -131 49q-145 0 -145 -272q0 -266 147 -266q68 0 137 55l58 -82q-90 -90 -201 -90q-120 0 -197 98.5t-77 284.5q0 189 77 286t199 97z" />
<glyph unicode="&#xaa;" horiz-adv-x="862" d="M424 1073h100v76q0 69 -33 101t-106 32q-78 0 -184 -41l-41 113q129 55 246 55q136 0 203 -66t67 -184v-401q0 -37 13 -57t42 -31l-33 -113q-117 18 -149 113q-71 -113 -207 -113q-108 0 -170.5 68t-62.5 180q0 130 82 199t233 69zM377 678q96 0 147 115v176h-96 q-84 0 -121 -37.5t-37 -118.5q0 -66 28 -100.5t79 -34.5zM115 137h641v-135h-641v135z" />
<glyph unicode="&#xab;" horiz-adv-x="1017" d="M403 1085l101 -65l-238 -432l238 -432l-101 -64l-294 438v115zM809 1085l100 -65l-237 -432l237 -432l-100 -64l-295 438v115z" />
<glyph unicode="&#xac;" horiz-adv-x="851" d="M750 727v-420h-146v285h-504v135h650z" />
<glyph unicode="&#xad;" horiz-adv-x="692" d="M104 571v140h482v-140h-482z" />
<glyph unicode="&#xae;" horiz-adv-x="1075" d="M537 1526q185 0 306.5 -142t121.5 -370t-121.5 -371t-306.5 -143q-183 0 -304.5 141.5t-121.5 368.5t122 371.5t304 144.5zM537 592q148 0 240.5 114t92.5 308t-91.5 308t-241.5 114q-145 0 -238.5 -116t-93.5 -310q0 -193 93 -305.5t239 -112.5zM717 1130 q0 -113 -105 -153l123 -238h-108l-101 219h-49v-219h-94v561h127q102 0 154.5 -44.5t52.5 -125.5zM477 1217v-175h53q88 0 88 88q0 87 -92 87h-49z" />
<glyph unicode="&#xaf;" horiz-adv-x="577" d="M526 1374h-454v121h454v-121z" />
<glyph unicode="&#xb0;" horiz-adv-x="872" d="M367 791q-112 0 -193.5 84t-81.5 237q0 151 82 235.5t193 84.5q115 0 195.5 -84.5t80.5 -237.5t-80.5 -236t-195.5 -83zM367 901q67 0 106 50t39 159t-39 159t-106 50q-64 0 -104 -49.5t-40 -157.5q0 -109 40 -160t104 -51z" />
<glyph unicode="&#xb1;" horiz-adv-x="847" d="M496 1090v-304h252v-137h-252v-299h-144v299h-252v137h252v304h144zM102 0v135h641v-135h-641z" />
<glyph unicode="&#xb2;" horiz-adv-x="671" d="M332 1524q104 0 168.5 -67.5t64.5 -172.5q0 -102 -62 -200.5t-247 -309.5h326l-17 -115h-452v109q105 122 157 186.5t93 127t53 104.5t12 94q0 62 -29.5 96.5t-81.5 34.5q-77 0 -147 -86l-80 64q102 135 242 135z" />
<glyph unicode="&#xb3;" horiz-adv-x="671" d="M332 1526q109 0 170 -62t61 -159q0 -157 -157 -193q82 -8 132 -60.5t50 -148.5q0 -112 -72 -187t-194 -75q-142 0 -238 121l76 67q71 -77 157 -77q60 0 96 41.5t36 113.5q0 148 -136 148h-57l14 102h41q53 0 87 35.5t34 101.5q0 61 -31 95t-84 34q-74 0 -151 -71l-66 69 q102 105 232 105z" />
<glyph unicode="&#xb4;" horiz-adv-x="530" d="M406 1620l73 -133l-358 -176l-49 84z" />
<glyph unicode="&#xb5;" d="M868 0l-151 -23q-33 91 -45 205q-98 -207 -234 -207q-103 0 -157 111q34 -118 34 -272v-226l-161 -18v1507h165v-762q0 -103 36 -149.5t96 -46.5q130 0 208 209v749h166v-710q0 -202 43 -367z" />
<glyph unicode="&#xb6;" horiz-adv-x="1243" d="M563 1409h451v-1819l-148 -24v1710h-192v-1686l-148 -24v1020q-192 10 -286.5 122t-94.5 291q0 196 110.5 303t307.5 107z" />
<glyph unicode="&#xb7;" horiz-adv-x="417" d="M209 764q55 0 89 -36.5t34 -88.5q0 -53 -34 -90t-89 -37t-89 37t-34 90q0 52 34 88.5t89 36.5z" />
<glyph unicode="&#xb8;" horiz-adv-x="487" d="M279 33v-158q157 -23 157 -170q0 -89 -58 -138.5t-149 -49.5q-92 0 -157 45l49 88q52 -25 98 -25q38 0 62 21t24 59q0 48 -35.5 71t-115.5 23l22 234h103z" />
<glyph unicode="&#xb9;" horiz-adv-x="671" d="M463 1511v-852h-131v711l-160 -115l-66 88l238 168h119z" />
<glyph unicode="&#xba;" horiz-adv-x="849" d="M426 1409q156 0 241 -108.5t85 -317.5q0 -203 -86 -314.5t-240 -111.5q-156 0 -243 109t-87 317q0 203 87.5 314.5t242.5 111.5zM426 1284q-86 0 -127 -68.5t-41 -232.5t41 -232.5t127 -68.5q85 0 125.5 68.5t40.5 232.5q0 165 -40 233t-126 68zM104 0v135h641v-135h-641 z" />
<glyph unicode="&#xbb;" horiz-adv-x="1017" d="M209 1085l295 -440v-115l-295 -438l-100 64l237 432l-237 432zM614 1085l295 -440v-115l-295 -438l-100 64l238 432l-238 432z" />
<glyph unicode="&#xbc;" horiz-adv-x="1570" d="M1073 1534l107 -45l-680 -1645l-109 47zM463 557h-131v711l-160 -115l-66 88l238 168h119v-852zM1501 311v-110h-90v-201h-129v201h-315v100l213 565l112 -45l-192 -510h184l16 224h111v-224h90z" />
<glyph unicode="&#xbd;" horiz-adv-x="1570" d="M1073 1534l107 -45l-680 -1645l-109 47zM463 1409v-852h-131v711l-160 -115l-66 88l238 168h119zM1231 864q104 0 168.5 -67t64.5 -172q0 -102 -62 -200.5t-247 -309.5h326l-17 -115h-452v109q105 122 157 186.5t93 127t53 104.5t12 94q0 62 -29 96.5t-81 34.5 q-78 0 -148 -86l-80 63q102 135 242 135z" />
<glyph unicode="&#xbe;" horiz-adv-x="1570" d="M1073 1534l107 -45l-680 -1645l-109 47zM588 801q0 -112 -72 -187t-194 -75q-142 0 -238 120l76 68q72 -78 157 -78q60 0 96 42t36 114q0 78 -35 112.5t-101 34.5h-57l14 103h41q53 0 87 35.5t34 101.5q0 61 -31 95t-84 34q-73 0 -151 -72l-66 70q101 104 232 104 q109 0 170 -62t61 -159q0 -156 -157 -192q82 -8 132 -60.5t50 -148.5zM1501 311v-110h-90v-201h-129v201h-315v100l213 565l112 -45l-192 -510h184l16 224h111v-224h90z" />
<glyph unicode="&#xbf;" horiz-adv-x="798" d="M442 748q-55 0 -90 36.5t-35 87.5q0 53 35 90t90 37t89 -37t34 -90q0 -51 -34 -87.5t-89 -36.5zM391 -438q-156 0 -243 90.5t-87 220.5q0 63 17 114t44 85t59.5 64t65 58.5t59.5 60t44 76.5t17 101v74h157v-84q0 -68 -16.5 -122t-42.5 -90t-57.5 -66t-62.5 -56.5t-57 -55 t-42.5 -69t-16.5 -90.5q0 -83 46 -128.5t126 -45.5q66 0 121.5 33t112.5 108l102 -80q-135 -198 -346 -198z" />
<glyph unicode="&#xc0;" horiz-adv-x="993" d="M690 1638l-45 -90l-362 160l69 141zM799 0l-88 365h-432l-89 -365h-170l371 1409h213l369 -1409h-174zM311 502h367l-184 764z" />
<glyph unicode="&#xc1;" horiz-adv-x="993" d="M702 1708l-364 -160l-43 90l338 211zM799 0l-88 365h-432l-89 -365h-170l371 1409h213l369 -1409h-174zM311 502h367l-184 764z" />
<glyph unicode="&#xc2;" horiz-adv-x="993" d="M496 1722l-213 -161l-68 71l227 226h105l227 -226l-67 -71zM799 0l-88 365h-432l-89 -365h-170l371 1409h213l369 -1409h-174zM311 502h367l-184 764z" />
<glyph unicode="&#xc3;" horiz-adv-x="993" d="M401 1706q-27 0 -46.5 -21t-45.5 -69l-92 43q30 78 75.5 122t102.5 44q38 0 75.5 -22.5t69 -45t56.5 -22.5t45.5 20.5t44.5 67.5l94 -41q-60 -166 -178 -166q-39 0 -77 22.5t-69 45t-55 22.5zM799 0l-88 365h-432l-89 -365h-170l371 1409h213l369 -1409h-174zM311 502 h367l-184 764z" />
<glyph unicode="&#xc4;" horiz-adv-x="993" d="M336 1604q-44 0 -73.5 30t-29.5 74q0 45 29.5 76t73.5 31t72 -31t28 -76t-28 -74.5t-72 -29.5zM686 1604q-43 0 -72.5 30t-29.5 74t29.5 75.5t72.5 31.5q44 0 73 -31t29 -76q0 -44 -29 -74t-73 -30zM799 0l-88 365h-432l-89 -365h-170l371 1409h213l369 -1409h-174z M311 502h367l-184 764z" />
<glyph unicode="&#xc5;" horiz-adv-x="993" d="M498 1542q-89 0 -142 55.5t-53 153.5q0 97 53 153t142 56t141.5 -56t52.5 -153q0 -99 -52.5 -154t-141.5 -55zM498 1872q-88 0 -88 -121t88 -121t88 121t-88 121zM799 0l-88 365h-432l-89 -365h-170l371 1409h213l369 -1409h-174zM311 502h367l-184 764z" />
<glyph unicode="&#xc6;" horiz-adv-x="1368" d="M907 139h383v-139h-524l-66 360h-438l-108 -360h-172l456 1409h781l-19 -139h-510l92 -484h422v-137h-395zM303 500h373l-139 772z" />
<glyph unicode="&#xc7;" horiz-adv-x="950" d="M920 129q-116 -133 -285 -152v-102q158 -23 158 -170q0 -89 -58 -138.5t-149 -49.5q-93 0 -158 45l49 88q52 -25 98 -25q38 0 62.5 21t24.5 59q0 48 -36 71t-116 23l16 181q-198 24 -314 207.5t-116 519.5q0 184 38 325t106 227t155 129.5t191 43.5q98 0 171.5 -33.5 t149.5 -102.5l-90 -104q-110 98 -227 98q-314 0 -314 -583q0 -584 318 -584q72 0 125 28t106 78z" />
<glyph unicode="&#xc8;" horiz-adv-x="884" d="M338 1849l338 -211l-45 -90l-363 160zM797 1409l-19 -139h-446v-482h387v-137h-387v-512h473v-139h-643v1409h635z" />
<glyph unicode="&#xc9;" horiz-adv-x="884" d="M618 1849l70 -141l-364 -160l-43 90zM797 1409l-19 -139h-446v-482h387v-137h-387v-512h473v-139h-643v1409h635z" />
<glyph unicode="&#xca;" horiz-adv-x="884" d="M268 1561l-67 71l227 226h104l228 -226l-68 -71l-211 161zM797 1409l-19 -139h-446v-482h387v-137h-387v-512h473v-139h-643v1409h635z" />
<glyph unicode="&#xcb;" horiz-adv-x="884" d="M322 1815q44 0 72 -31t28 -76t-28 -74.5t-72 -29.5t-73.5 30t-29.5 74q0 45 29.5 76t73.5 31zM672 1815q44 0 73 -31t29 -76q0 -44 -29 -74t-73 -30q-43 0 -73 30t-30 74t30 75.5t73 31.5zM797 1409l-19 -139h-446v-482h387v-137h-387v-512h473v-139h-643v1409h635z" />
<glyph unicode="&#xcc;" horiz-adv-x="493" d="M100 1849l338 -211l-45 -90l-362 160zM332 1409v-1409h-170v1409h170z" />
<glyph unicode="&#xcd;" horiz-adv-x="493" d="M381 1849l70 -141l-365 -160l-43 90zM332 1409v-1409h-170v1409h170z" />
<glyph unicode="&#xce;" horiz-adv-x="493" d="M31 1561l-68 71l227 226h105l227 -226l-67 -71l-211 161zM332 1409v-1409h-170v1409h170z" />
<glyph unicode="&#xcf;" horiz-adv-x="493" d="M84 1815q44 0 72 -31t28 -76t-28 -74.5t-72 -29.5t-73 30t-29 74q0 45 29 76t73 31zM434 1815q44 0 73.5 -31t29.5 -76q0 -44 -29.5 -74t-73.5 -30q-43 0 -72.5 30t-29.5 74t29.5 75.5t72.5 31.5zM332 1409v-1409h-170v1409h170z" />
<glyph unicode="&#xd0;" horiz-adv-x="1116" d="M446 1409q68 0 125 -7.5t117.5 -27.5t108 -52.5t90.5 -86t71.5 -125t45 -172.5t16.5 -225q0 -122 -16.5 -223.5t-45.5 -174t-70.5 -128.5t-88 -91t-102.5 -57t-109 -30.5t-113 -8.5h-287v657h-147v131h147v621h258zM485 137q60 0 108 13t96 50.5t79.5 99.5t51.5 167 t20 246q0 144 -21 248.5t-53 163t-82.5 92.5t-97 43.5t-109.5 9.5h-119v-482h242v-131h-242v-520h127z" />
<glyph unicode="&#xd1;" horiz-adv-x="1138" d="M688 1616q-39 0 -77 22.5t-69 45t-55 22.5q-27 0 -46.5 -21t-45.5 -69l-92 43q30 78 75.5 122t102.5 44q38 0 75.5 -22.5t69 -45t56.5 -22.5t45.5 20.5t44.5 67.5l94 -41q-60 -166 -178 -166zM977 1409v-1409h-227l-453 1217q25 -277 25 -525v-692h-160v1409h227 l453 -1219q-7 37 -16 169.5t-9 252.5v797h160z" />
<glyph unicode="&#xd2;" horiz-adv-x="1175" d="M442 1849l338 -211l-45 -90l-362 160zM588 1432q231 0 361 -180.5t130 -546.5q0 -363 -130 -546.5t-361 -183.5q-230 0 -361 181t-131 546q0 360 132 545t360 185zM588 1290q-73 0 -129 -31.5t-98 -100t-63.5 -183t-21.5 -273.5t22 -273.5t64.5 -181.5t98 -97.5 t127.5 -30.5q101 0 168 54.5t105 186.5t38 345q0 159 -21 273t-62 182t-97 99t-131 31z" />
<glyph unicode="&#xd3;" horiz-adv-x="1175" d="M723 1849l70 -141l-365 -160l-43 90zM588 1432q231 0 361 -180.5t130 -546.5q0 -363 -130 -546.5t-361 -183.5q-230 0 -361 181t-131 546q0 360 132 545t360 185zM588 1290q-73 0 -129 -31.5t-98 -100t-63.5 -183t-21.5 -273.5t22 -273.5t64.5 -181.5t98 -97.5 t127.5 -30.5q101 0 168 54.5t105 186.5t38 345q0 159 -21 273t-62 182t-97 99t-131 31z" />
<glyph unicode="&#xd4;" horiz-adv-x="1175" d="M373 1561l-68 71l227 226h105l227 -226l-67 -71l-211 161zM588 1432q231 0 361 -180.5t130 -546.5q0 -363 -130 -546.5t-361 -183.5q-230 0 -361 181t-131 546q0 360 132 545t360 185zM588 1290q-73 0 -129 -31.5t-98 -100t-63.5 -183t-21.5 -273.5t22 -273.5 t64.5 -181.5t98 -97.5t127.5 -30.5q101 0 168 54.5t105 186.5t38 345q0 159 -21 273t-62 182t-97 99t-131 31z" />
<glyph unicode="&#xd5;" horiz-adv-x="1175" d="M692 1616q-39 0 -76.5 22.5t-68.5 45t-55 22.5q-27 0 -47 -21t-46 -69l-92 43q30 78 75.5 122t102.5 44q38 0 75.5 -22.5t69 -45t56.5 -22.5t45.5 20.5t44.5 67.5l94 -41q-60 -166 -178 -166zM588 1432q231 0 361 -180.5t130 -546.5q0 -363 -130 -546.5t-361 -183.5 q-230 0 -361 181t-131 546q0 360 132 545t360 185zM588 1290q-73 0 -129 -31.5t-98 -100t-63.5 -183t-21.5 -273.5t22 -273.5t64.5 -181.5t98 -97.5t127.5 -30.5q101 0 168 54.5t105 186.5t38 345q0 159 -21 273t-62 182t-97 99t-131 31z" />
<glyph unicode="&#xd6;" horiz-adv-x="1175" d="M426 1815q44 0 72 -31t28 -76t-28 -74.5t-72 -29.5t-73 30t-29 74q0 45 29 76t73 31zM776 1815q44 0 73.5 -31t29.5 -76q0 -44 -29.5 -74t-73.5 -30q-43 0 -72.5 30t-29.5 74t29.5 75.5t72.5 31.5zM588 1432q231 0 361 -180.5t130 -546.5q0 -363 -130 -546.5t-361 -183.5 q-230 0 -361 181t-131 546q0 360 132 545t360 185zM588 1290q-73 0 -129 -31.5t-98 -100t-63.5 -183t-21.5 -273.5t22 -273.5t64.5 -181.5t98 -97.5t127.5 -30.5q101 0 168 54.5t105 186.5t38 345q0 159 -21 273t-62 182t-97 99t-131 31z" />
<glyph unicode="&#xd7;" horiz-adv-x="843" d="M627 985l106 -84l-215 -272l215 -273l-106 -82l-207 265l-203 -265l-106 82l213 273l-213 272l106 84l203 -266z" />
<glyph unicode="&#xd8;" horiz-adv-x="1175" d="M825 1368q254 -152 254 -663q0 -363 -130 -546.5t-361 -183.5q-54 0 -111 13l-57 -244l-139 37l67 258q-121 76 -186.5 241.5t-65.5 421.5q0 360 132 545t360 185q44 0 108 -11l62 250l137 -37zM272 702q0 -399 138 -524l262 1102q-34 10 -84 10q-154 0 -235 -138.5 t-81 -449.5zM588 119q103 0 169 55t103 186t39 345q3 412 -135 528l-260 -1104q45 -10 84 -10z" />
<glyph unicode="&#xd9;" horiz-adv-x="1099" d="M403 1849l338 -211l-45 -90l-362 160zM958 1409v-1032q0 -113 -45 -202.5t-139 -144.5t-225 -55q-99 0 -178 31.5t-128.5 87t-75.5 127.5t-26 156v1032h170v-1020q0 -268 238 -268q237 0 237 268v1020h172z" />
<glyph unicode="&#xda;" horiz-adv-x="1099" d="M684 1849l70 -141l-365 -160l-43 90zM958 1409v-1032q0 -113 -45 -202.5t-139 -144.5t-225 -55q-99 0 -178 31.5t-128.5 87t-75.5 127.5t-26 156v1032h170v-1020q0 -268 238 -268q237 0 237 268v1020h172z" />
<glyph unicode="&#xdb;" horiz-adv-x="1099" d="M334 1561l-68 71l228 226h104l227 -226l-67 -71l-211 161zM958 1409v-1032q0 -113 -45 -202.5t-139 -144.5t-225 -55q-99 0 -178 31.5t-128.5 87t-75.5 127.5t-26 156v1032h170v-1020q0 -268 238 -268q237 0 237 268v1020h172z" />
<glyph unicode="&#xdc;" horiz-adv-x="1099" d="M387 1815q44 0 72 -31t28 -76t-28 -74.5t-72 -29.5t-73 30t-29 74q0 45 29 76t73 31zM737 1815q44 0 73.5 -31t29.5 -76q0 -44 -29.5 -74t-73.5 -30q-43 0 -72.5 30t-29.5 74t29.5 75.5t72.5 31.5zM958 1409v-1032q0 -113 -45 -202.5t-139 -144.5t-225 -55 q-99 0 -178 31.5t-128.5 87t-75.5 127.5t-26 156v1032h170v-1020q0 -268 238 -268q237 0 237 268v1020h172z" />
<glyph unicode="&#xdd;" horiz-adv-x="929" d="M598 1849l70 -141l-365 -160l-43 90zM922 1409l-371 -864v-545h-172v543l-371 866h182l279 -715l276 715h177z" />
<glyph unicode="&#xde;" horiz-adv-x="970" d="M432 1163q494 0 494 -438q0 -234 -127.5 -346.5t-360.5 -112.5h-106v-266h-170v1409h170v-246h100zM428 403q164 0 240.5 71t76.5 249q0 161 -76.5 233t-238.5 72h-98v-625h96z" />
<glyph unicode="&#xdf;" horiz-adv-x="999" d="M500 1532q137 0 221 -82t84 -201q0 -62 -19 -112.5t-46 -83t-54 -60t-46 -58t-19 -63.5q0 -38 23.5 -74t58.5 -64.5t76.5 -68.5t76.5 -82t58.5 -109t23.5 -146q0 -159 -87 -256t-214 -97q-102 0 -176 48l51 112q54 -24 106 -24q68 0 110 56.5t42 162.5q0 78 -31 141.5 t-75 106t-87.5 82.5t-74.5 91.5t-31 112.5q0 44 18.5 81.5t45 66.5t53 59.5t45 74t18.5 95.5q0 76 -42 118t-109 42q-85 0 -133 -62t-48 -174v-1165h-165v1165q0 164 95 265.5t251 101.5z" />
<glyph unicode="&#xe0;" horiz-adv-x="919" d="M662 1395l-50 -84l-358 176l74 133zM764 223q0 -58 16.5 -86t53.5 -47l-35 -115q-74 14 -115.5 50t-58.5 108q-91 -158 -260 -158q-134 0 -211.5 89t-77.5 237q0 171 105 261.5t304 90.5h115v103q0 109 -43 160t-133 51q-103 0 -244 -56l-43 117q162 72 307 72 q161 0 240.5 -88t79.5 -248v-541zM397 102q132 0 203 177v262h-96q-131 0 -193.5 -58t-62.5 -176q0 -102 39 -153.5t110 -51.5z" />
<glyph unicode="&#xe1;" horiz-adv-x="919" d="M641 1487l-358 -176l-50 84l334 225zM764 223q0 -58 16.5 -86t53.5 -47l-35 -115q-74 14 -115.5 50t-58.5 108q-91 -158 -260 -158q-134 0 -211.5 89t-77.5 237q0 171 105 261.5t304 90.5h115v103q0 109 -43 160t-133 51q-103 0 -244 -56l-43 117q162 72 307 72 q161 0 240.5 -88t79.5 -248v-541zM397 102q132 0 203 177v262h-96q-131 0 -193.5 -58t-62.5 -176q0 -102 39 -153.5t110 -51.5z" />
<glyph unicode="&#xe2;" horiz-adv-x="919" d="M442 1481l-213 -172l-67 71l227 234h105l227 -234l-68 -71zM764 223q0 -58 16.5 -86t53.5 -47l-35 -115q-74 14 -115.5 50t-58.5 108q-91 -158 -260 -158q-134 0 -211.5 89t-77.5 237q0 171 105 261.5t304 90.5h115v103q0 109 -43 160t-133 51q-103 0 -244 -56l-43 117 q162 72 307 72q161 0 240.5 -88t79.5 -248v-541zM397 102q132 0 203 177v262h-96q-131 0 -193.5 -58t-62.5 -176q0 -102 39 -153.5t110 -51.5z" />
<glyph unicode="&#xe3;" horiz-adv-x="919" d="M346 1448q-27 0 -46.5 -21t-45.5 -69l-92 43q30 78 75.5 122t102.5 44q38 0 75.5 -22.5t69 -45t56.5 -22.5t45.5 20.5t44.5 67.5l94 -41q-60 -166 -178 -166q-39 0 -77 22.5t-69 45t-55 22.5zM764 223q0 -58 16.5 -86t53.5 -47l-35 -115q-74 14 -115.5 50t-58.5 108 q-91 -158 -260 -158q-134 0 -211.5 89t-77.5 237q0 171 105 261.5t304 90.5h115v103q0 109 -43 160t-133 51q-103 0 -244 -56l-43 117q162 72 307 72q161 0 240.5 -88t79.5 -248v-541zM397 102q132 0 203 177v262h-96q-131 0 -193.5 -58t-62.5 -176q0 -102 39 -153.5 t110 -51.5z" />
<glyph unicode="&#xe4;" horiz-adv-x="919" d="M266 1346q-44 0 -73 30t-29 74q0 45 29 75.5t73 30.5t72.5 -30.5t28.5 -75.5t-28.5 -74.5t-72.5 -29.5zM616 1346q-43 0 -72.5 30t-29.5 74t29.5 75t72.5 31q44 0 73.5 -30.5t29.5 -75.5q0 -44 -29.5 -74t-73.5 -30zM764 223q0 -58 16.5 -86t53.5 -47l-35 -115 q-74 14 -115.5 50t-58.5 108q-91 -158 -260 -158q-134 0 -211.5 89t-77.5 237q0 171 105 261.5t304 90.5h115v103q0 109 -43 160t-133 51q-103 0 -244 -56l-43 117q162 72 307 72q161 0 240.5 -88t79.5 -248v-541zM397 102q132 0 203 177v262h-96q-131 0 -193.5 -58 t-62.5 -176q0 -102 39 -153.5t110 -51.5z" />
<glyph unicode="&#xe5;" horiz-adv-x="919" d="M442 1284q-89 0 -141.5 55t-52.5 154q0 97 52.5 153t141.5 56t142 -56t53 -153q0 -98 -53 -153.5t-142 -55.5zM442 1614q-88 0 -88 -121t88 -121t88 121t-88 121zM764 223q0 -58 16.5 -86t53.5 -47l-35 -115q-74 14 -115.5 50t-58.5 108q-91 -158 -260 -158 q-134 0 -211.5 89t-77.5 237q0 171 105 261.5t304 90.5h115v103q0 109 -43 160t-133 51q-103 0 -244 -56l-43 117q162 72 307 72q161 0 240.5 -88t79.5 -248v-541zM397 102q132 0 203 177v262h-96q-131 0 -193.5 -58t-62.5 -176q0 -102 39 -153.5t110 -51.5z" />
<glyph unicode="&#xe6;" horiz-adv-x="1435" d="M1352 571q0 -42 -4 -92h-570q9 -189 72.5 -277.5t167.5 -88.5q62 0 114.5 22t110.5 70l74 -94q-139 -136 -311 -136q-110 0 -193 52t-133 149q-65 -106 -139.5 -153.5t-169.5 -47.5q-134 0 -214.5 90t-80.5 236q0 170 108.5 261t307.5 91h114v88q0 119 -43.5 172.5 t-140.5 53.5t-238 -58l-39 119q162 72 306 72q197 0 264 -170q101 170 282 170q168 0 261.5 -136.5t93.5 -392.5zM1186 604v19q0 178 -47.5 262t-145.5 84q-201 0 -215 -365h408zM403 102q69 0 124 48t106 153q-27 111 -27 223v15h-98q-256 0 -256 -234q0 -99 39.5 -152 t111.5 -53z" />
<glyph unicode="&#xe7;" horiz-adv-x="796" d="M764 94q-105 -105 -238 -117v-102q158 -23 158 -170q0 -89 -58 -138.5t-149 -49.5q-93 0 -158 45l50 88q52 -25 98 -25q38 0 62 21t24 59q0 48 -36 71t-116 23l19 183q-156 27 -241 163.5t-85 384.5q0 270 108 420t292 150q79 0 143 -26.5t127 -86.5l-78 -98 q-92 76 -186 76q-228 0 -228 -430q0 -223 58.5 -320.5t167.5 -97.5q52 0 95 19t93 59z" />
<glyph unicode="&#xe8;" horiz-adv-x="925" d="M694 1395l-49 -84l-358 176l73 133zM840 571q0 -42 -4 -92h-570q7 -200 67 -283t167 -83q68 0 121.5 22t111.5 70l74 -101q-132 -129 -311 -129q-189 0 -295.5 142.5t-106.5 410.5q0 269 101 420.5t282 151.5q176 0 269.5 -134t93.5 -395zM680 604v19q0 180 -49.5 263 t-153.5 83q-96 0 -150 -85t-61 -280h414z" />
<glyph unicode="&#xe9;" horiz-adv-x="925" d="M674 1487l-359 -176l-49 84l334 225zM840 571q0 -42 -4 -92h-570q7 -200 67 -283t167 -83q68 0 121.5 22t111.5 70l74 -101q-132 -129 -311 -129q-189 0 -295.5 142.5t-106.5 410.5q0 269 101 420.5t282 151.5q176 0 269.5 -134t93.5 -395zM680 604v19q0 180 -49.5 263 t-153.5 83q-96 0 -150 -85t-61 -280h414z" />
<glyph unicode="&#xea;" horiz-adv-x="925" d="M475 1481l-213 -172l-67 71l227 234h104l228 -234l-68 -71zM840 571q0 -42 -4 -92h-570q7 -200 67 -283t167 -83q68 0 121.5 22t111.5 70l74 -101q-132 -129 -311 -129q-189 0 -295.5 142.5t-106.5 410.5q0 269 101 420.5t282 151.5q176 0 269.5 -134t93.5 -395zM680 604 v19q0 180 -49.5 263t-153.5 83q-96 0 -150 -85t-61 -280h414z" />
<glyph unicode="&#xeb;" horiz-adv-x="925" d="M299 1346q-44 0 -73 30t-29 74q0 45 29 75.5t73 30.5t72 -30.5t28 -75.5t-28 -74.5t-72 -29.5zM649 1346q-43 0 -72.5 30t-29.5 74t29.5 75t72.5 31q44 0 73.5 -30.5t29.5 -75.5q0 -44 -29.5 -74t-73.5 -30zM840 571q0 -42 -4 -92h-570q7 -200 67 -283t167 -83 q68 0 121.5 22t111.5 70l74 -101q-132 -129 -311 -129q-189 0 -295.5 142.5t-106.5 410.5q0 269 101 420.5t282 151.5q176 0 269.5 -134t93.5 -395zM680 604v19q0 180 -49.5 263t-153.5 83q-96 0 -150 -85t-61 -280h414z" />
<glyph unicode="&#xec;" horiz-adv-x="475" d="M123 1620l334 -225l-49 -84l-359 176zM319 1077v-1077h-165v1077h165z" />
<glyph unicode="&#xed;" horiz-adv-x="475" d="M362 1620l74 -133l-358 -176l-49 84zM319 1077v-1077h-165v1077h165z" />
<glyph unicode="&#xee;" horiz-adv-x="475" d="M25 1309l-68 71l227 234h105l227 -234l-67 -71l-211 172zM319 1077v-1077h-165v1077h165z" />
<glyph unicode="&#xef;" horiz-adv-x="475" d="M61 1556q44 0 72.5 -30.5t28.5 -75.5t-28.5 -74.5t-72.5 -29.5t-73 30t-29 74q0 45 29 75.5t73 30.5zM412 1556q44 0 73 -30.5t29 -75.5q0 -44 -29 -74t-73 -30q-43 0 -73 30t-30 74t30 75t73 31zM319 1077v-1077h-165v1077h165z" />
<glyph unicode="&#xf0;" horiz-adv-x="968" d="M578 1358q153 -131 218.5 -325.5t65.5 -479.5q0 -278 -104.5 -428t-284.5 -150q-170 0 -274.5 130.5t-104.5 375.5q0 138 40 248t117.5 175t180.5 65q149 0 248 -129q-23 139 -68.5 239.5t-130.5 182.5l-125 -154l-112 57l139 166q-102 55 -188 78l28 123 q137 -35 252 -102l119 149l102 -74zM473 109q105 0 163 110t58 336q0 80 -2 117q-86 166 -227 166q-103 0 -153 -92.5t-50 -260.5q0 -191 56 -283.5t155 -92.5z" />
<glyph unicode="&#xf1;" d="M406 1448q-27 0 -47 -21t-46 -69l-92 43q30 78 75.5 122t102.5 44q38 0 75.5 -22.5t69 -45t56.5 -22.5t45.5 20.5t44.5 67.5l94 -41q-60 -166 -178 -166q-39 0 -76.5 22.5t-68.5 45t-55 22.5zM586 1100q118 0 186 -84t68 -225v-791h-166v768q0 107 -31.5 154t-95.5 47 q-120 0 -228 -207v-762h-165v1077h143l14 -168q56 93 120 142t155 49z" />
<glyph unicode="&#xf2;" d="M379 1620l334 -225l-49 -84l-359 176zM496 1100q190 0 293.5 -141.5t103.5 -417.5q0 -263 -106 -414.5t-293 -151.5q-189 0 -294.5 149t-105.5 415q0 271 105.5 416t296.5 145zM496 965q-112 0 -169 -100.5t-57 -325.5q0 -224 56.5 -326t167.5 -102t167 101.5t56 328.5 q0 224 -56 324t-165 100z" />
<glyph unicode="&#xf3;" d="M618 1620l74 -133l-358 -176l-49 84zM496 1100q190 0 293.5 -141.5t103.5 -417.5q0 -263 -106 -414.5t-293 -151.5q-189 0 -294.5 149t-105.5 415q0 271 105.5 416t296.5 145zM496 965q-112 0 -169 -100.5t-57 -325.5q0 -224 56.5 -326t167.5 -102t167 101.5t56 328.5 q0 224 -56 324t-165 100z" />
<glyph unicode="&#xf4;" d="M281 1309l-68 71l227 234h105l227 -234l-67 -71l-211 172zM496 1100q190 0 293.5 -141.5t103.5 -417.5q0 -263 -106 -414.5t-293 -151.5q-189 0 -294.5 149t-105.5 415q0 271 105.5 416t296.5 145zM496 965q-112 0 -169 -100.5t-57 -325.5q0 -224 56.5 -326t167.5 -102 t167 101.5t56 328.5q0 224 -56 324t-165 100z" />
<glyph unicode="&#xf5;" d="M598 1358q-39 0 -77 22.5t-69 45t-55 22.5q-27 0 -46.5 -21t-45.5 -69l-92 43q30 78 75.5 122t102.5 44q38 0 75.5 -22.5t69 -45t56.5 -22.5t45.5 20.5t44.5 67.5l94 -41q-60 -166 -178 -166zM496 1100q190 0 293.5 -141.5t103.5 -417.5q0 -263 -106 -414.5t-293 -151.5 q-189 0 -294.5 149t-105.5 415q0 271 105.5 416t296.5 145zM496 965q-112 0 -169 -100.5t-57 -325.5q0 -224 56.5 -326t167.5 -102t167 101.5t56 328.5q0 224 -56 324t-165 100z" />
<glyph unicode="&#xf6;" d="M317 1556q44 0 72.5 -30.5t28.5 -75.5t-28.5 -74.5t-72.5 -29.5t-73 30t-29 74q0 45 29 75.5t73 30.5zM668 1556q44 0 73 -30.5t29 -75.5q0 -44 -29 -74t-73 -30q-43 0 -73 30t-30 74t30 75t73 31zM496 1100q190 0 293.5 -141.5t103.5 -417.5q0 -263 -106 -414.5 t-293 -151.5q-189 0 -294.5 149t-105.5 415q0 271 105.5 416t296.5 145zM496 965q-112 0 -169 -100.5t-57 -325.5q0 -224 56.5 -326t167.5 -102t167 101.5t56 328.5q0 224 -56 324t-165 100z" />
<glyph unicode="&#xf7;" horiz-adv-x="841" d="M422 1264q55 0 89 -36.5t34 -88.5q0 -53 -34 -90t-89 -37t-89 37t-34 90q0 52 34 88.5t89 36.5zM100 612v136h641v-136h-641zM422 342q55 0 89 -36.5t34 -88.5q0 -53 -34 -90t-89 -37t-89 37t-34 90q0 52 34 88.5t89 36.5z" />
<glyph unicode="&#xf8;" d="M700 1042q193 -126 193 -501q0 -263 -106 -414.5t-293 -151.5q-44 0 -84 9l-66 -246l-131 37l76 260q-94 65 -144.5 194t-50.5 310q0 271 105.5 416t296.5 145q47 0 86 -8l63 245l129 -37zM496 967q-116 0 -174 -100.5t-58 -327.5q0 -283 84 -373l205 795q-27 6 -57 6z M494 109q116 0 172.5 101.5t56.5 330.5q0 277 -82 368l-205 -794q27 -6 58 -6z" />
<glyph unicode="&#xf9;" horiz-adv-x="978" d="M373 1620l334 -225l-50 -84l-358 176zM825 1077v-1077h-143l-10 158q-107 -183 -271 -183q-116 0 -186 80.5t-70 210.5v811h166v-794q0 -177 127 -177q126 0 221 191v780h166z" />
<glyph unicode="&#xfa;" horiz-adv-x="978" d="M612 1620l74 -133l-358 -176l-49 84zM825 1077v-1077h-143l-10 158q-107 -183 -271 -183q-116 0 -186 80.5t-70 210.5v811h166v-794q0 -177 127 -177q126 0 221 191v780h166z" />
<glyph unicode="&#xfb;" horiz-adv-x="978" d="M274 1309l-67 71l227 234h105l227 -234l-68 -71l-211 172zM825 1077v-1077h-143l-10 158q-107 -183 -271 -183q-116 0 -186 80.5t-70 210.5v811h166v-794q0 -177 127 -177q126 0 221 191v780h166z" />
<glyph unicode="&#xfc;" horiz-adv-x="978" d="M311 1556q44 0 72.5 -30.5t28.5 -75.5t-28.5 -74.5t-72.5 -29.5t-73 30t-29 74q0 45 29 75.5t73 30.5zM662 1556q44 0 73 -30.5t29 -75.5q0 -44 -29 -74t-73 -30q-43 0 -73 30t-30 74t30 75t73 31zM825 1077v-1077h-143l-10 158q-107 -183 -271 -183q-116 0 -186 80.5 t-70 210.5v811h166v-794q0 -177 127 -177q126 0 221 191v780h166z" />
<glyph unicode="&#xfd;" horiz-adv-x="845" d="M549 1620l74 -133l-359 -176l-49 84zM823 1077l-297 -1083q-51 -185 -146.5 -290.5t-268.5 -133.5l-21 127q128 29 187.5 95.5t101.5 207.5h-64l-292 1077h170l233 -956l229 956h168z" />
<glyph unicode="&#xfe;" horiz-adv-x="993" d="M578 1100q158 0 239.5 -143t81.5 -416q0 -265 -90 -415.5t-256 -150.5q-144 0 -234 136v-514l-165 -27v1941l165 21v-590q100 158 259 158zM518 113q205 0 205 428q0 227 -45.5 326.5t-142.5 99.5q-124 0 -216 -166v-555q79 -133 199 -133z" />
<glyph unicode="&#xff;" horiz-adv-x="845" d="M248 1556q44 0 72 -30.5t28 -75.5t-28 -74.5t-72 -29.5t-73.5 30t-29.5 74q0 45 29.5 75.5t73.5 30.5zM598 1556q44 0 73 -30.5t29 -75.5q0 -44 -29 -74t-73 -30q-43 0 -72.5 30t-29.5 74t29.5 75t72.5 31zM823 1077l-297 -1083q-51 -185 -146.5 -290.5t-268.5 -133.5 l-21 127q128 29 187.5 95.5t101.5 207.5h-64l-292 1077h170l233 -956l229 956h168z" />
<glyph unicode="&#x152;" horiz-adv-x="1503" d="M1425 139v-139h-727q-64 -25 -133 -25q-211 0 -340 188.5t-129 538.5q0 348 129.5 539t339.5 191q65 0 129 -23h721l-18 -139h-518q147 -156 165 -479h293v-142h-293q-12 -333 -172 -510h553zM276 702q0 -154 22 -268.5t62 -182t92.5 -100t118.5 -32.5q295 0 295 588 q0 301 -78 442t-217 141q-138 0 -216.5 -142t-78.5 -446z" />
<glyph unicode="&#x153;" horiz-adv-x="1548" d="M1462 571q0 -42 -4 -92h-569q10 -189 72 -277.5t161 -88.5q68 0 122 22t112 70l74 -94q-139 -136 -312 -136q-210 0 -317 226q-109 -226 -307 -226q-190 0 -295 147t-105 417q0 265 106.5 413t295.5 148q202 0 309 -215q103 215 299 215q171 0 264.5 -137.5t93.5 -391.5z M1303 604v19q0 344 -199 344q-201 0 -215 -363h414zM494 111q221 0 221 430q0 424 -219 424q-112 0 -169 -100.5t-57 -325.5q0 -224 56.5 -326t167.5 -102z" />
<glyph unicode="&#x178;" horiz-adv-x="929" d="M301 1815q44 0 72 -31t28 -76t-28 -74.5t-72 -29.5t-73 30t-29 74q0 45 29 76t73 31zM651 1815q44 0 73.5 -31t29.5 -76q0 -44 -29.5 -74t-73.5 -30q-43 0 -72.5 30t-29.5 74t29.5 75.5t72.5 31.5zM922 1409l-371 -864v-545h-172v543l-371 866h182l279 -715l276 715h177z " />
<glyph unicode="&#x2c6;" horiz-adv-x="681" d="M139 1309l-67 71l227 234h104l228 -234l-68 -71l-211 172z" />
<glyph unicode="&#x2dc;" horiz-adv-x="686" d="M446 1358q-39 0 -76.5 22.5t-68.5 45t-55 22.5q-27 0 -46.5 -21t-45.5 -69l-93 43q30 78 76 122t103 44q38 0 75 -22.5t68.5 -45t56.5 -22.5t45.5 20.5t44.5 67.5l95 -41q-60 -166 -179 -166z" />
<glyph unicode="&#x2000;" horiz-adv-x="980" />
<glyph unicode="&#x2001;" horiz-adv-x="1960" />
<glyph unicode="&#x2002;" horiz-adv-x="980" />
<glyph unicode="&#x2003;" horiz-adv-x="1960" />
<glyph unicode="&#x2004;" horiz-adv-x="653" />
<glyph unicode="&#x2005;" horiz-adv-x="490" />
<glyph unicode="&#x2006;" horiz-adv-x="326" />
<glyph unicode="&#x2007;" horiz-adv-x="326" />
<glyph unicode="&#x2008;" horiz-adv-x="245" />
<glyph unicode="&#x2009;" horiz-adv-x="392" />
<glyph unicode="&#x200a;" horiz-adv-x="108" />
<glyph unicode="&#x2010;" horiz-adv-x="692" d="M104 571v140h482v-140h-482z" />
<glyph unicode="&#x2011;" horiz-adv-x="692" d="M104 571v140h482v-140h-482z" />
<glyph unicode="&#x2012;" horiz-adv-x="692" d="M104 571v140h482v-140h-482z" />
<glyph unicode="&#x2013;" horiz-adv-x="892" d="M63 571v140h766v-140h-766z" />
<glyph unicode="&#x2014;" horiz-adv-x="1345" d="M63 571v140h1221v-140h-1221z" />
<glyph unicode="&#x2018;" horiz-adv-x="405" d="M197 1030q-49 0 -78 32.5t-29 78.5q0 40 33 119l106 276h99l-70 -297q49 -36 49 -92q0 -51 -29.5 -84t-80.5 -33z" />
<glyph unicode="&#x2019;" horiz-adv-x="405" d="M209 1532q49 0 77.5 -32.5t28.5 -78.5q0 -41 -32 -118l-107 -277h-98l69 297q-49 36 -49 92q0 51 30 84t81 33z" />
<glyph unicode="&#x201a;" horiz-adv-x="405" d="M209 197q49 0 77.5 -32.5t28.5 -78.5q0 -42 -32 -119l-107 -276h-98l69 297q-49 36 -49 92q0 51 30 84t81 33z" />
<glyph unicode="&#x201c;" horiz-adv-x="759" d="M199 1030q-49 0 -78 32.5t-29 78.5q0 40 33 119l106 276h99l-70 -297q49 -36 49 -92q0 -51 -29.5 -84t-80.5 -33zM551 1030q-49 0 -78 32.5t-29 78.5q0 40 33 119l107 276h98l-70 -297q50 -37 50 -92q0 -51 -30 -84t-81 -33z" />
<glyph unicode="&#x201d;" horiz-adv-x="759" d="M209 1532q49 0 77.5 -32.5t28.5 -78.5q0 -41 -32 -118l-107 -277h-98l69 297q-49 36 -49 92q0 51 30 84t81 33zM561 1532q49 0 78 -32.5t29 -78.5q0 -39 -33 -118l-107 -277h-98l70 297q-49 36 -49 92q0 51 29.5 84t80.5 33z" />
<glyph unicode="&#x201e;" horiz-adv-x="759" d="M209 197q49 0 77.5 -32.5t28.5 -78.5q0 -42 -32 -119l-107 -276h-98l69 297q-49 36 -49 92q0 51 30 84t81 33zM561 197q49 0 78 -32.5t29 -78.5q0 -40 -33 -119l-107 -276h-98l70 297q-49 36 -49 92q0 51 29.5 84t80.5 33z" />
<glyph unicode="&#x2022;" horiz-adv-x="600" d="M299 907q88 0 145.5 -59t57.5 -146q0 -88 -57 -146t-146 -58q-87 0 -144 58t-57 146t57 146.5t144 58.5z" />
<glyph unicode="&#x2026;" horiz-adv-x="1253" d="M209 227q55 0 89 -36.5t34 -88.5q0 -53 -34 -90t-89 -37t-89 37t-34 90q0 52 34 88.5t89 36.5zM627 227q55 0 89 -36.5t34 -88.5q0 -53 -34 -90t-89 -37t-89 37t-34 90q0 52 34 88.5t89 36.5zM1044 227q55 0 89 -36.5t34 -88.5q0 -53 -34 -90t-89 -37t-88.5 37t-33.5 90 q0 52 33.5 88.5t88.5 36.5z" />
<glyph unicode="&#x202f;" horiz-adv-x="392" />
<glyph unicode="&#x2039;" horiz-adv-x="612" d="M403 1085l101 -65l-238 -432l238 -432l-101 -64l-294 438v115z" />
<glyph unicode="&#x203a;" horiz-adv-x="612" d="M209 1085l295 -440v-115l-295 -438l-100 64l237 432l-237 432z" />
<glyph unicode="&#x205f;" horiz-adv-x="490" />
<glyph unicode="&#x20ac;" horiz-adv-x="972" d="M356 479q18 -194 89 -279t196 -85q64 0 117.5 20.5t122.5 59.5v-142q-139 -78 -260 -78q-371 0 -437 504h-143l25 115h114v192h-139l25 115h120q40 242 157.5 365t285.5 123q172 0 303 -113l-64 -113q-63 48 -115.5 69t-119.5 21q-222 0 -275 -352h437l-27 -115h-416 v-192h383l-22 -115h-357z" />
<glyph unicode="&#x2122;" horiz-adv-x="1484" d="M621 1409l-21 -117h-199v-682h-133v682h-209v117h562zM1337 1409l29 -799h-129l-14 424q-2 125 4 248h-2l-154 -586h-110l-164 586h-2q5 -105 2 -248l-13 -424h-122l28 799h178l148 -569l139 569h182z" />
<glyph unicode="&#x25fc;" horiz-adv-x="1075" d="M0 1075h1075v-1075h-1075v1075z" />
<glyph unicode="&#xfb03;" horiz-adv-x="1462" d="M817 1077h492v-1077h-166v946h-326v-946h-166v946h-319v-946h-166v946h-141v131h141v156q0 126 76 202t219 76q133 0 262 -63q78 84 231 84q134 0 265 -76l-56 -108q-99 47 -200 47q-77 0 -111.5 -34.5t-34.5 -111.5v-172zM651 1077v170q0 45 13 92q-84 37 -187 37 q-80 0 -112.5 -33t-32.5 -110v-156h319z" />
<glyph unicode="&#xfb04;" horiz-adv-x="1501" d="M1427 125l39 -115q-60 -35 -125 -35q-87 0 -139.5 56t-52.5 151v1184q-102 31 -186 31q-80 0 -113 -34t-33 -110v-176h207l-18 -131h-189v-946h-166v946h-319v-946h-166v946h-141v131h141v156q0 126 76 202t219 76q132 0 260 -61q79 82 225 82q107 0 207 -41l162 18 v-1323q0 -71 61 -71q26 0 51 10zM651 1077v176q0 37 11 86q-84 37 -185 37q-80 0 -112.5 -33t-32.5 -110v-156h319z" />
</font>
</defs>
</svg>
