<?xml version="1.0" standalone="no"?>
<!DOCTYPE svg PUBLIC "-//W3C//DTD SVG 1.1//EN" "http://www.w3.org/Graphics/SVG/1.1/DTD/svg11.dtd" >
<svg xmlns="http://www.w3.org/2000/svg" xmlns:xlink="http://www.w3.org/1999/xlink" version="1.1">
<metadata></metadata>
<defs>
<font id="fira_sans_compressedlight" horiz-adv-x="907" >
<font-face units-per-em="2048" ascent="1638" descent="-410" />
<missing-glyph horiz-adv-x="460" />
<glyph unicode="&#xfb01;" horiz-adv-x="956" d="M444 1522q132 0 256 -76l-41 -80q-108 57 -208 57q-81 0 -118.5 -36t-37.5 -127v-189h489v-1071h-114v977h-375v-977h-115v977h-145v94h145v195q0 122 67.5 189t196.5 67z" />
<glyph unicode="&#xfb02;" horiz-adv-x="993" d="M915 88l29 -82q-49 -29 -104 -29q-75 0 -120.5 48t-45.5 133v1226q-118 41 -215 41q-87 0 -125.5 -37.5t-38.5 -121.5v-195h223l-14 -94h-209v-977h-115v977h-145v94h145v197q0 116 70.5 185t198.5 69q106 0 229 -47l110 14v-1327q0 -86 70 -86q29 0 57 12z" />
<glyph horiz-adv-x="0" />
<glyph horiz-adv-x="682" />
<glyph unicode="&#xd;" horiz-adv-x="460" />
<glyph unicode=" "  horiz-adv-x="460" />
<glyph unicode="&#x09;" horiz-adv-x="460" />
<glyph unicode="&#xa0;" horiz-adv-x="460" />
<glyph unicode="!" horiz-adv-x="446" d="M283 1403l-11 -959h-98l-12 959h121zM223 164q41 0 66.5 -27t25.5 -65q0 -39 -25.5 -67t-66.5 -28q-40 0 -66 28.5t-26 66.5t26 65t66 27z" />
<glyph unicode="&#x22;" horiz-adv-x="692" d="M141 889l-14 514h113l-15 -514h-84zM465 889l-14 514h112l-14 -514h-84z" />
<glyph unicode="#" horiz-adv-x="854" d="M829 926h-127l-61 -465h127v-90h-139l-49 -371h-99l49 371h-290l-50 -371h-98l49 371h-116v90h129l61 465h-129v92h141l45 344h99l-45 -344h290l46 344h98l-45 -344h114v-92zM543 461l61 465h-291l-61 -465h291z" />
<glyph unicode="$" horiz-adv-x="886" d="M801 371q0 -149 -84.5 -256.5t-224.5 -130.5v-291h-95v284q-191 8 -340 170l66 68q68 -68 137.5 -103.5t159.5 -35.5q120 0 192 80.5t72 212.5q0 117 -56 183.5t-204 123.5q-171 66 -246.5 153t-75.5 220q0 127 82.5 220.5t212.5 110.5v295h95v-295q85 -9 149.5 -45 t124.5 -102l-64 -68q-64 63 -124 91t-134 28q-101 0 -163 -65t-62 -166t56 -164t202 -119q82 -32 138 -65.5t100 -80t65 -109t21 -144.5z" />
<glyph unicode="%" horiz-adv-x="1370" d="M1038 1440l82 -45l-778 -1442l-82 45zM354 1384q115 0 185.5 -87t70.5 -242q0 -158 -70 -247t-186 -89q-115 0 -185.5 88t-70.5 244q0 157 70 245t186 88zM354 1300q-155 0 -155 -249q0 -246 155 -246q156 0 156 250q0 245 -156 245zM1016 643q113 0 183.5 -88t70.5 -244 q0 -158 -68.5 -246t-185.5 -88q-115 0 -185.5 87.5t-70.5 242.5q0 159 69.5 247.5t186.5 88.5zM1016 557q-158 0 -158 -250q0 -246 158 -246q155 0 155 250q0 246 -155 246z" />
<glyph unicode="&#x26;" horiz-adv-x="1220" d="M518 1425q130 0 208.5 -83.5t78.5 -219.5q0 -117 -62.5 -202.5t-193.5 -176.5l336 -395q74 196 110 387l101 -26q-47 -231 -142 -428l209 -236l-86 -68l-186 220q-149 -220 -375 -220q-157 0 -258.5 102.5t-101.5 270.5q0 89 30.5 162.5t80.5 128.5t132 117 q-94 103 -133 179t-39 177q0 138 79 224.5t212 86.5zM520 1335q-84 0 -132 -59t-48 -160q0 -79 29 -141.5t116 -167.5q109 76 159 146.5t50 164.5q0 108 -47 162.5t-127 54.5zM463 692q-96 -72 -142.5 -151.5t-46.5 -188.5q0 -129 69 -203.5t177 -74.5q99 0 171 47t134 141z " />
<glyph unicode="'" horiz-adv-x="368" d="M141 889l-14 514h113l-15 -514h-84z" />
<glyph unicode="(" horiz-adv-x="542" d="M387 1714l74 -49q-54 -96 -86.5 -159.5t-70.5 -157t-58 -179t-33.5 -202t-13.5 -250.5q0 -135 13.5 -251.5t33.5 -202t58 -179t70 -156t87 -159.5l-74 -50q-59 97 -95.5 163.5t-80.5 166.5t-68.5 191.5t-41.5 215.5t-17 261t17 261t41.5 215t68.5 191t80.5 166.5 t95.5 163.5z" />
<glyph unicode=")" horiz-adv-x="542" d="M156 1714q60 -98 96 -163.5t81 -166t69.5 -191.5t41.5 -215t17 -261t-17 -261t-41.5 -215t-69.5 -191.5t-81.5 -166.5t-95.5 -164l-74 50q54 96 86.5 159.5t70.5 157t58 179t33.5 202t13.5 250.5q0 135 -13.5 251.5t-33.5 202t-58 179t-70 156t-87 159.5z" />
<glyph unicode="*" horiz-adv-x="763" d="M696 1194l-254 -82l172 -250l-92 -53l-139 262l-139 -262l-92 51l172 250l-256 84l36 90l240 -106l-16 329h108l-16 -331l242 110z" />
<glyph unicode="+" horiz-adv-x="833" d="M469 1032v-305h254v-100h-254v-303h-102v303h-254v100h254v305h102z" />
<glyph unicode="," horiz-adv-x="382" d="M197 164q39 0 63.5 -26t24.5 -66q0 -10 -1 -19.5t-4.5 -22t-6 -19.5t-8.5 -24.5t-9 -25.5l-96 -268h-76l72 297q-50 29 -50 82q0 40 25.5 66t65.5 26z" />
<glyph unicode="-" horiz-adv-x="679" d="M115 592v98h452v-98h-452z" />
<glyph unicode="." horiz-adv-x="380" d="M190 164q41 0 67 -27t26 -65t-26 -66.5t-67 -28.5q-40 0 -66 28.5t-26 66.5t26 65t66 27z" />
<glyph unicode="/" horiz-adv-x="872" d="M586 1642l96 -18l-395 -1827l-97 19z" />
<glyph unicode="0" horiz-adv-x="962" d="M483 1384q177 0 267 -172t90 -532t-90 -531.5t-267 -171.5q-179 0 -269.5 172.5t-90.5 532.5q0 359 90.5 530.5t269.5 171.5zM483 1288q-80 0 -132 -58t-80.5 -193.5t-28.5 -354.5q0 -325 59.5 -466.5t181.5 -141.5q121 0 179.5 141t58.5 465q0 326 -58.5 467t-179.5 141 z" />
<glyph unicode="1" horiz-adv-x="698" d="M494 1362v-1362h-113v1233l-270 -203l-56 80l340 252h99z" />
<glyph unicode="2" horiz-adv-x="790" d="M358 1384q147 0 232.5 -95.5t85.5 -248.5q0 -67 -9.5 -125t-37.5 -127t-60 -128.5t-97 -154t-127 -178.5t-169 -225h531l-17 -102h-639v96q166 218 255 343.5t151.5 237.5t82 189t19.5 170q0 120 -55 185t-150 65q-75 0 -132.5 -37t-112.5 -114l-76 55q68 100 146.5 147 t178.5 47z" />
<glyph unicode="3" horiz-adv-x="823" d="M373 1384q145 0 231 -96t86 -244q0 -134 -64.5 -213t-181.5 -106q127 -13 203 -97.5t76 -240.5q0 -180 -99 -295t-262 -115q-105 0 -183.5 43.5t-147.5 133.5l73 57q62 -74 119.5 -105.5t136.5 -31.5q114 0 181 83.5t67 229.5q0 287 -270 287h-76l14 90h56q104 0 177 70 t73 206q0 119 -58 184.5t-159 65.5q-68 0 -124.5 -28.5t-115.5 -90.5l-66 60q138 153 314 153z" />
<glyph unicode="4" horiz-adv-x="878" d="M821 455v-97h-147v-358h-111v358h-489v88l338 938l98 -34l-320 -895h373l15 401h96v-401h147z" />
<glyph unicode="5" horiz-adv-x="829" d="M709 1362l-17 -96h-450v-467q90 63 190 63q143 0 229.5 -112.5t86.5 -311.5q0 -206 -101 -333.5t-268 -127.5q-101 0 -178.5 41.5t-145.5 122.5l74 64q55 -66 113 -97.5t135 -31.5q118 0 185 94.5t67 269.5q0 328 -226 328q-54 0 -95.5 -15.5t-90.5 -50.5h-84v660h576z " />
<glyph unicode="6" horiz-adv-x="913" d="M520 887q131 0 216 -108.5t85 -319.5q0 -232 -92.5 -357t-243.5 -125q-96 0 -166.5 45.5t-113 131t-62.5 199.5t-20 259q0 370 110 571t304 201q118 0 213 -79l-50 -76q-77 59 -163 59q-135 0 -213 -156.5t-86 -435.5q111 191 282 191zM485 74q109 0 166.5 99t57.5 282 q0 175 -55 256.5t-150 81.5q-157 0 -266 -226q5 -251 62.5 -372t184.5 -121z" />
<glyph unicode="7" horiz-adv-x="739" d="M684 1362v-90l-440 -1288l-103 34l428 1246h-520v98h635z" />
<glyph unicode="8" horiz-adv-x="915" d="M569 721q135 -64 196.5 -149.5t61.5 -219.5q0 -175 -101.5 -275t-270.5 -100q-168 0 -267.5 101t-99.5 272q0 269 254 381q-111 57 -159 129t-48 184q0 162 94 251t230 89t229.5 -85.5t93.5 -251.5q0 -108 -51 -184.5t-162 -141.5zM248 1042q0 -99 42 -154t156 -110 l52 -24q92 61 132 127.5t40 160.5q0 128 -56.5 190t-154.5 62q-97 0 -154 -61.5t-57 -190.5zM457 72q121 0 188.5 68.5t67.5 211.5q0 122 -52.5 188t-189.5 128l-57 26q-111 -53 -161 -135.5t-50 -208.5q0 -141 68 -209.5t186 -68.5z" />
<glyph unicode="9" horiz-adv-x="886" d="M432 1384q348 0 348 -548q0 -160 -24 -285t-68 -216.5t-117 -162t-160.5 -119.5t-207.5 -92l-27 88q114 43 196.5 95t147 127t100 177.5t42.5 235.5q-47 -82 -115 -128t-150 -46q-134 0 -223.5 115.5t-89.5 312.5q0 215 96.5 330.5t251.5 115.5zM416 604q144 0 250 205 q0 256 -54 368.5t-178 112.5q-111 0 -172 -87.5t-61 -266.5q0 -162 57 -247t158 -85z" />
<glyph unicode=":" horiz-adv-x="380" d="M190 965q41 0 67 -27.5t26 -65.5t-26 -66t-67 -28q-40 0 -66 28t-26 66t26 65.5t66 27.5zM190 164q41 0 67 -27t26 -65t-26 -66.5t-67 -28.5q-40 0 -66 28.5t-26 66.5t26 65t66 27z" />
<glyph unicode=";" horiz-adv-x="389" d="M190 965q41 0 67 -27.5t26 -65.5t-26 -66t-67 -28q-40 0 -66 28t-26 66t26 65.5t66 27.5zM197 164q39 0 63.5 -26t24.5 -66q0 -10 -1 -19.5t-4.5 -22t-6 -19.5t-8.5 -24.5t-9 -25.5l-96 -268h-76l72 297q-50 29 -50 82q0 40 25.5 66t65.5 26z" />
<glyph unicode="&#x3c;" horiz-adv-x="837" d="M690 1073l49 -88l-544 -303l544 -309l-49 -88l-592 344v106z" />
<glyph unicode="=" horiz-adv-x="831" d="M113 807v96h606v-96h-606zM113 451v96h606v-96h-606z" />
<glyph unicode="&#x3e;" horiz-adv-x="837" d="M147 1073l592 -338v-106l-592 -344l-49 88l545 309l-545 303z" />
<glyph unicode="?" horiz-adv-x="780" d="M401 1425q142 0 223 -86.5t81 -212.5q0 -62 -17 -111.5t-44 -83t-60 -63l-66 -59t-60 -62t-44 -80.5t-17 -108v-115h-108v123q0 68 16.5 122.5t43 90t58.5 65.5t64.5 57t59 56.5t43 72t16.5 95.5q0 92 -52.5 146.5t-140.5 54.5q-74 0 -130.5 -35t-114.5 -114l-76 59 q133 188 325 188zM346 164q41 0 66.5 -27t25.5 -65q0 -39 -25.5 -67t-66.5 -28t-66.5 28t-25.5 67q0 38 25.5 65t66.5 27z" />
<glyph unicode="@" horiz-adv-x="1732" d="M895 1425q166 0 298.5 -61t218 -169t130.5 -251.5t45 -312.5q0 -298 -84.5 -452t-224.5 -154q-85 0 -135.5 57.5t-69.5 148.5q-36 -92 -98 -147t-148 -55q-134 0 -212 115.5t-78 330.5q0 257 97.5 386.5t258.5 129.5q125 0 248 -76v-526q0 -141 33.5 -206.5t101.5 -65.5 q43 0 78 26.5t63 84t43 159t15 240.5q0 212 -65 368t-197 244t-318 88q-190 0 -335.5 -108t-222.5 -296t-77 -427q0 -391 169 -604.5t464 -213.5q160 0 317 68l31 -92q-88 -36 -167.5 -55t-182.5 -19q-164 0 -300.5 61t-235 175.5t-153.5 288.5t-55 391q0 265 92.5 476 t264 332t391.5 121zM836 121q65 0 116.5 50.5t83.5 129.5v567q-82 33 -143 33q-117 0 -180.5 -108t-63.5 -318q0 -354 187 -354z" />
<glyph unicode="A" horiz-adv-x="978" d="M823 0l-98 385h-475l-98 -385h-117l381 1403h147l381 -1403h-121zM276 483h422l-211 822z" />
<glyph unicode="B" horiz-adv-x="1007" d="M625 743q299 -47 299 -356q0 -188 -116.5 -287.5t-322.5 -99.5h-305v1403h250q212 0 326 -90.5t114 -259.5q0 -248 -245 -310zM442 1305h-145v-519h180q132 0 201.5 68.5t69.5 189.5q0 261 -306 261zM487 100q314 0 314 287q0 156 -78.5 229.5t-233.5 73.5h-192v-590h190 z" />
<glyph unicode="C" horiz-adv-x="931" d="M582 1425q93 0 163 -32t140 -97l-64 -73q-59 53 -112.5 76.5t-122.5 23.5q-61 0 -112 -19t-96.5 -64.5t-77 -116t-49.5 -177.5t-18 -244q0 -321 95.5 -470.5t257.5 -149.5q77 0 130 28t113 83l68 -74q-135 -142 -313 -142q-105 0 -190.5 43.5t-149.5 130.5t-99.5 227.5 t-35.5 323.5q0 184 37 325.5t102.5 227t149.5 128t184 42.5z" />
<glyph unicode="D" horiz-adv-x="1069" d="M418 1403q63 0 117 -7.5t110.5 -28t101.5 -53.5t86 -86.5t68.5 -124t43.5 -170t16 -220.5q0 -142 -21 -255.5t-60 -189.5t-88 -130t-110 -83.5t-120.5 -42t-125.5 -12.5h-256v1403h238zM434 1303h-137v-1205h147q64 0 117 14.5t105.5 55.5t88.5 107.5t58.5 178 t22.5 259.5q0 109 -12.5 196.5t-32.5 148t-51.5 105.5t-64.5 71.5t-75.5 42.5t-81 21t-84.5 5z" />
<glyph unicode="E" horiz-adv-x="860" d="M776 1403l-12 -100h-467v-527h403v-98h-403v-578h489v-100h-606v1403h596z" />
<glyph unicode="F" horiz-adv-x="808" d="M180 0v1403h586l-14 -100h-455v-551h393v-99h-393v-653h-117z" />
<glyph unicode="G" horiz-adv-x="1050" d="M600 1425q97 0 171 -33.5t149 -105.5l-66 -69q-64 57 -122 81.5t-132 24.5q-58 0 -108.5 -17.5t-99 -62t-83 -112.5t-55.5 -176.5t-21 -247.5q0 -171 24.5 -293.5t72.5 -195t112.5 -105.5t149.5 -33q124 0 231 72v503h-217l-12 101h344v-664q-160 -115 -344 -115 q-232 0 -358.5 178.5t-126.5 551.5q0 185 40.5 326.5t110.5 225t155.5 125t184.5 41.5z" />
<glyph unicode="H" horiz-adv-x="1126" d="M827 0v688h-530v-688h-117v1403h117v-615h530v615h119v-1403h-119z" />
<glyph unicode="I" horiz-adv-x="477" d="M297 1403v-1403h-117v1403h117z" />
<glyph unicode="J" horiz-adv-x="491" d="M322 1403v-1217q0 -121 -30.5 -201t-86.5 -129.5t-156 -97.5l-33 84q115 65 151 134t36 217v1210h119z" />
<glyph unicode="K" horiz-adv-x="948" d="M297 1403v-1403h-117v1403h117zM907 1403l-471 -645l502 -758h-135l-498 752l475 651h127z" />
<glyph unicode="L" horiz-adv-x="802" d="M297 1403v-1297h477l-14 -106h-580v1403h117z" />
<glyph unicode="M" horiz-adv-x="1318" d="M1090 1403l108 -1403h-111l-51 674q-25 315 -39 612l-280 -1120h-113l-293 1120q0 -117 -32 -608l-48 -678h-110l106 1403h160l275 -1096l266 1096h162z" />
<glyph unicode="N" horiz-adv-x="1128" d="M950 1403v-1403h-155l-521 1270q17 -204 17 -477v-793h-111v1403h156l518 -1270q-16 244 -16 412v858h112z" />
<glyph unicode="O" horiz-adv-x="1167" d="M584 1425q222 0 348.5 -181t126.5 -544q0 -356 -126 -539.5t-349 -183.5q-220 0 -347.5 182.5t-127.5 538.5t128.5 541.5t346.5 185.5zM584 1323q-166 0 -258.5 -151.5t-92.5 -473.5q0 -318 93.5 -468t257.5 -150q170 0 260 148.5t90 471.5q0 623 -350 623z" />
<glyph unicode="P" horiz-adv-x="954" d="M406 1403q246 0 366.5 -104t120.5 -316q0 -434 -490 -434h-106v-549h-117v1403h226zM406 647q184 0 273 75.5t89 258.5q0 173 -86 248.5t-274 75.5h-111v-658h109z" />
<glyph unicode="Q" horiz-adv-x="1167" d="M764 49q206 -6 344 -147l-82 -90q-90 99 -188.5 135.5t-257.5 36.5q-216 0 -343.5 180.5t-127.5 533.5q0 355 128.5 541t346.5 186q221 0 348 -182t127 -543q0 -149 -21.5 -262.5t-63 -188.5t-92.5 -122.5t-118 -77.5zM233 698q0 -318 93.5 -468t257.5 -150 q170 0 260 148.5t90 471.5q0 623 -350 623q-166 0 -258.5 -151.5t-92.5 -473.5z" />
<glyph unicode="R" horiz-adv-x="997" d="M946 0h-131l-295 633q-10 0 -31.5 -1t-33.5 -1h-158v-631h-117v1403h250q457 0 457 -381q0 -137 -66 -232t-188 -135zM440 729q165 0 242.5 71t77.5 222q0 144 -76 213.5t-260 69.5h-127v-576h143z" />
<glyph unicode="S" horiz-adv-x="909" d="M455 1425q105 0 183 -38.5t150 -116.5l-67 -68q-64 64 -126 92.5t-140 28.5q-102 0 -167 -67.5t-65 -170.5q0 -104 58 -168t208 -120q84 -32 142.5 -67.5t103.5 -84t66.5 -113.5t21.5 -149q0 -172 -108.5 -289t-282.5 -117q-215 0 -375 177l68 67q71 -70 142 -105.5 t163 -35.5q122 0 196 82.5t74 216.5q0 122 -57 190.5t-209 128.5q-176 68 -253 157t-77 226q0 142 99.5 243t251.5 101z" />
<glyph unicode="T" horiz-adv-x="837" d="M823 1403l-14 -103h-330v-1300h-119v1300h-335v103h798z" />
<glyph unicode="U" horiz-adv-x="1087" d="M930 1403v-1038q0 -109 -41 -195t-129.5 -139.5t-214.5 -53.5q-188 0 -286.5 109.5t-98.5 278.5v1038h116v-1028q0 -138 67 -215.5t202 -77.5t200.5 78.5t65.5 214.5v1028h119z" />
<glyph unicode="V" horiz-adv-x="948" d="M911 1403l-366 -1403h-139l-371 1403h121l321 -1280l318 1280h116z" />
<glyph unicode="W" horiz-adv-x="1384" d="M1327 1403l-246 -1403h-153l-238 1268l-237 -1268h-150l-246 1403h115l209 -1292l242 1292h137l244 -1292l210 1292h113z" />
<glyph unicode="X" horiz-adv-x="872" d="M504 760l354 -760h-125l-303 680l-295 -680h-121l346 754l-313 649h125l260 -574l262 574h119z" />
<glyph unicode="Y" horiz-adv-x="888" d="M870 1403l-364 -854v-549h-119v547l-369 856h127l304 -748l301 748h120z" />
<glyph unicode="Z" horiz-adv-x="866" d="M795 1403v-98l-615 -1199h606l-14 -106h-715v98l615 1202h-555v103h678z" />
<glyph unicode="[" horiz-adv-x="534" d="M428 1651v-95h-186v-1691h186v-94h-295v1880h295z" />
<glyph unicode="\" horiz-adv-x="872" d="M287 1640l395 -1824l-96 -19l-396 1823z" />
<glyph unicode="]" horiz-adv-x="534" d="M401 1651v-1880h-297v94h189v1691h-189v95h297z" />
<glyph unicode="^" horiz-adv-x="897" d="M498 1704l309 -625h-127l-234 510l-233 -510h-125l311 625h99z" />
<glyph unicode="_" horiz-adv-x="882" d="M49 -248v103h785v-103h-785z" />
<glyph unicode="`" horiz-adv-x="493" d="M127 1593l317 -209l-38 -61l-334 174z" />
<glyph unicode="a" d="M735 205q0 -64 17.5 -97t54.5 -51l-25 -80q-64 15 -99.5 54.5t-45.5 113.5q-96 -168 -268 -168q-128 0 -203.5 88t-75.5 232q0 168 101.5 257t289.5 89h142v123q0 117 -46 174t-145 57q-114 0 -246 -57l-32 82q154 72 288 72q148 0 220.5 -83t72.5 -237v-569zM387 70 q156 0 236 198v291h-131q-142 0 -211.5 -63.5t-69.5 -194.5q0 -114 46.5 -172.5t129.5 -58.5z" />
<glyph unicode="b" horiz-adv-x="974" d="M549 1094q154 0 237.5 -138t83.5 -415q0 -269 -90 -416.5t-248 -147.5q-78 0 -141.5 42.5t-107.5 113.5l-11 -133h-100v1507l115 13v-592q103 166 262 166zM514 74q234 0 234 467q0 244 -56 350t-164 106q-136 0 -241 -182v-575q97 -166 227 -166z" />
<glyph unicode="c" horiz-adv-x="782" d="M487 1094q141 0 250 -109l-55 -70q-89 80 -193 80q-123 0 -192.5 -112.5t-69.5 -352.5q0 -452 260 -452q105 0 199 84l57 -70q-115 -115 -256 -115q-180 0 -281.5 138.5t-101.5 412.5q0 273 103 419.5t280 146.5z" />
<glyph unicode="d" horiz-adv-x="980" d="M694 1522l115 -15v-1507h-100l-11 156q-93 -179 -256 -179q-160 0 -249 145.5t-89 407.5q0 258 95.5 411t253.5 153q148 0 241 -140v568zM457 74q79 0 135.5 48.5t101.5 143.5v570q-91 161 -225 161q-112 0 -178 -117.5t-66 -347.5q1 -228 62 -343t170 -115z" />
<glyph unicode="e" d="M813 575q0 -46 -4 -86h-586q4 -114 25 -195.5t56.5 -128t80.5 -68t102 -21.5q70 0 123 23.5t111 74.5l57 -68q-129 -129 -293 -129q-179 0 -280 140.5t-101 408.5q0 272 97.5 420t267.5 148q169 0 256.5 -132.5t87.5 -386.5zM700 580v32q0 193 -56.5 289t-174.5 96 q-233 0 -246 -417h477z" />
<glyph unicode="f" horiz-adv-x="548" d="M449 1425q-74 0 -112 -37.5t-38 -121.5v-195h231l-14 -94h-217v-977h-115v977h-149v94h149v197q0 116 68 185t186 69q105 0 209 -58l-39 -84q-80 45 -159 45z" />
<glyph unicode="g" horiz-adv-x="854" d="M805 1159l35 -108q-80 -31 -244 -31q154 -87 154 -293q0 -163 -87 -257.5t-239 -94.5q-59 0 -111 22q-67 -51 -67 -125q0 -55 34 -85.5t115 -30.5h111q144 0 225.5 -75t81.5 -194q0 -140 -99 -223.5t-290 -83.5q-199 0 -286 76t-87 231h105q2 -114 60 -162.5t208 -48.5 q274 0 274 205q0 88 -54 134t-159 46h-90q-129 0 -191.5 51t-62.5 136q0 102 101 180q-152 96 -152 303q0 167 90.5 265t243.5 98q156 0 231.5 15t149.5 50zM422 1004q-217 0 -217 -273q0 -127 58.5 -198.5t156.5 -71.5q215 0 215 268q0 130 -53.5 202.5t-159.5 72.5z" />
<glyph unicode="h" horiz-adv-x="983" d="M573 1094q117 0 181.5 -83.5t64.5 -226.5v-784h-114v770q0 229 -154 229q-144 0 -264 -231v-768h-115v1507l115 15v-631q60 98 127 150.5t159 52.5z" />
<glyph unicode="i" horiz-adv-x="458" d="M227 1540q37 0 59.5 -25t22.5 -61q0 -34 -22.5 -58t-59.5 -24q-36 0 -59 24.5t-23 57.5q0 36 23 61t59 25zM287 1071v-1071h-115v1071h115z" />
<glyph unicode="j" horiz-adv-x="458" d="M225 1540q37 0 59.5 -25t22.5 -61q0 -34 -22.5 -58t-59.5 -24q-36 0 -59 24.5t-23 57.5q0 36 23 61t59 25zM287 1071v-1087q0 -85 -15 -146.5t-49.5 -107.5t-75.5 -77.5t-108 -68.5l-39 82q65 39 99 74t53.5 94t19.5 150v1087h115z" />
<glyph unicode="k" horiz-adv-x="831" d="M287 1522v-1522h-115v1507zM786 1071l-366 -479l403 -592h-129l-397 586l367 485h122z" />
<glyph unicode="l" horiz-adv-x="481" d="M326 -23q-74 0 -119 48t-45 133v1349l114 15v-1360q0 -86 70 -86q29 0 57 12l29 -82q-49 -29 -106 -29z" />
<glyph unicode="m" horiz-adv-x="1433" d="M1038 1094q107 0 169.5 -85t62.5 -225v-784h-113v770q0 229 -139 229q-134 0 -240 -221v-778h-112v770q0 114 -37 171.5t-105 57.5q-133 0 -239 -221v-778h-113v1071h98l11 -176q109 199 266 199q85 0 141.5 -55.5t77.5 -153.5q111 209 272 209z" />
<glyph unicode="n" horiz-adv-x="983" d="M573 1094q117 0 181.5 -83.5t64.5 -226.5v-784h-114v770q0 229 -154 229q-144 0 -264 -231v-768h-115v1071h98l13 -184q59 101 127 154t163 53z" />
<glyph unicode="o" horiz-adv-x="966" d="M483 1094q182 0 280.5 -140t98.5 -415q0 -268 -101.5 -415t-279.5 -147t-277.5 145.5t-99.5 412.5q0 271 100.5 415t278.5 144zM483 995q-258 0 -258 -460q0 -461 256 -461q260 0 260 465q0 237 -65.5 346.5t-192.5 109.5z" />
<glyph unicode="p" horiz-adv-x="974" d="M551 1094q155 0 237 -139.5t82 -413.5q0 -269 -89 -416.5t-249 -147.5q-148 0 -245 144v-524l-115 -17v1491h100l9 -149q104 172 270 172zM514 76q234 0 234 465q0 237 -55 346.5t-163 109.5q-139 0 -243 -180v-581q93 -160 227 -160z" />
<glyph unicode="q" horiz-adv-x="980" d="M711 1071h98v-1491l-115 17v548q-93 -168 -252 -168q-157 0 -247.5 145t-90.5 408q0 259 94.5 411.5t254.5 152.5q153 0 252 -150zM459 74q76 0 132 47.5t103 140.5v574q-89 161 -227 161q-109 0 -175.5 -118t-66.5 -347q1 -230 63 -344t171 -114z" />
<glyph unicode="r" horiz-adv-x="634" d="M532 1094q32 0 82 -13l-20 -106q-38 10 -74 10q-87 0 -142.5 -76.5t-90.5 -232.5v-676h-115v1071h98l11 -215q39 120 99.5 179t151.5 59z" />
<glyph unicode="s" horiz-adv-x="788" d="M399 1094q160 0 285 -119l-53 -70q-59 49 -112 71.5t-118 22.5q-85 0 -136.5 -49t-51.5 -135q0 -75 46.5 -120t168.5 -89q150 -57 215.5 -126.5t65.5 -192.5q0 -142 -93 -226t-233 -84q-184 0 -322 138l64 65q59 -54 119.5 -81t136.5 -27q95 0 153 55.5t58 155.5 q0 91 -48 140.5t-184 100.5q-141 52 -201.5 119t-60.5 170q0 121 86 201t215 80z" />
<glyph unicode="t" horiz-adv-x="585" d="M543 119l47 -74q-87 -68 -191 -68q-105 0 -165 65.5t-60 176.5v758h-143v94h143v256l115 14v-270h225l-14 -94h-211v-758q0 -68 30.5 -105.5t92.5 -37.5q66 0 131 43z" />
<glyph unicode="u" horiz-adv-x="974" d="M803 1071v-1071h-98l-9 178q-103 -201 -278 -201q-118 0 -187 79.5t-69 213.5v801h114v-790q0 -102 42 -155.5t118 -53.5q149 0 252 219v780h115z" />
<glyph unicode="v" horiz-adv-x="815" d="M782 1071l-299 -1071h-139l-311 1071h119l262 -971l254 971h114z" />
<glyph unicode="w" horiz-adv-x="1208" d="M1155 1071l-211 -1071h-153l-187 963l-184 -963h-152l-215 1071h113l180 -977l193 977h139l188 -977l181 977h108z" />
<glyph unicode="x" horiz-adv-x="794" d="M463 573l309 -573h-125l-252 504l-252 -504h-120l307 569l-271 502h123l213 -434l217 434h121z" />
<glyph unicode="y" horiz-adv-x="811" d="M780 1071l-301 -1075q-50 -184 -131 -280t-239 -134l-15 90q66 19 110.5 45t76.5 68t52.5 89.5t43.5 125.5h-43l-301 1071h117l260 -985l254 985h116z" />
<glyph unicode="z" horiz-adv-x="714" d="M662 1071v-90l-496 -881h491l-10 -100h-604v88l496 883h-455v100h578z" />
<glyph unicode="{" horiz-adv-x="546" d="M444 1696v-88q-79 0 -112 -37t-33 -121v-539q0 -95 -31.5 -134.5t-105.5 -61.5q75 -22 107 -62t32 -135v-538q0 -83 32.5 -119.5t110.5 -36.5v-88q-130 0 -189.5 60t-59.5 194v526q0 82 -29 116t-96 34v98q67 0 96 34.5t29 116.5v527q0 135 59.5 194.5t189.5 59.5z" />
<glyph unicode="|" horiz-adv-x="677" d="M391 1647v-1852h-106v1852h106z" />
<glyph unicode="}" horiz-adv-x="546" d="M102 1696q130 0 190 -59.5t60 -194.5v-527q0 -82 29 -116.5t96 -34.5v-98q-67 0 -96 -34t-29 -116v-526q0 -134 -60 -194t-190 -60v88q79 0 112.5 36.5t33.5 119.5v538q0 96 31 135.5t106 61.5q-75 22 -106 61t-31 135v539q0 84 -33.5 121t-110.5 37z" />
<glyph unicode="~" horiz-adv-x="800" d="M535 547q-37 0 -77.5 17.5t-69 38.5t-62.5 38.5t-60 17.5q-36 0 -61 -23.5t-53 -70.5l-70 39q79 150 190 150q37 0 76.5 -17.5t67.5 -39t62 -39t61 -17.5q34 0 58.5 22t51.5 66l70 -39q-35 -67 -78.5 -105t-105.5 -38z" />
<glyph unicode="&#xa1;" horiz-adv-x="446" d="M223 971q41 0 66.5 -28t25.5 -66t-25.5 -65.5t-66.5 -27.5q-40 0 -66 27.5t-26 65.5t26 66t66 28zM272 514l13 -917h-121l12 917h96z" />
<glyph unicode="&#xa2;" horiz-adv-x="782" d="M743 92q-98 -98 -215 -112v-287h-96v289q-155 21 -241.5 158t-86.5 388t88 395.5t242 166.5v303h94v-301q113 -11 209 -107l-55 -70q-89 80 -193 80q-123 0 -192.5 -112.5t-69.5 -352.5q0 -452 260 -452q105 0 199 84z" />
<glyph unicode="&#xa3;" horiz-adv-x="868" d="M334 346q0 -101 -26.5 -153.5t-98.5 -92.5h561l-12 -100h-676v96q55 30 83.5 59t42 73t13.5 116v336h-110v84h110v280q0 151 80 245.5t217 94.5q165 0 279 -153l-74 -57q-43 60 -89 88t-110 28q-93 0 -141.5 -64t-48.5 -179v-283h354v-84h-354v-334z" />
<glyph unicode="&#xa4;" horiz-adv-x="942" d="M874 272l-73 -59l-131 158q-82 -70 -203 -70q-113 0 -195 70l-129 -158l-69 61l139 164q-68 104 -68 260q0 151 64 254l-143 172l73 60l131 -160q82 70 197 70q117 0 201 -68l129 158l69 -62l-139 -164q68 -104 68 -260q0 -151 -64 -254zM469 393q221 0 221 305 q0 306 -221 306t-221 -306q0 -305 221 -305z" />
<glyph unicode="&#xa5;" horiz-adv-x="868" d="M850 1362l-326 -670h197v-88h-227v-211h227v-86h-227v-307h-117v307h-225v86h225v211h-225v88h194l-328 670h123l297 -643l295 643h117z" />
<glyph unicode="&#xa6;" horiz-adv-x="677" d="M391 1647v-740h-106v740h106zM391 537v-742h-106v742h106z" />
<glyph unicode="&#xa7;" horiz-adv-x="899" d="M629 338q94 -76 94 -199q0 -127 -83 -202.5t-214 -75.5q-159 0 -283 96l52 76q101 -78 227 -78q87 0 137.5 49t50.5 129q0 74 -40.5 117.5t-168.5 97.5q-144 60 -204 123t-60 180q0 145 135 254q-49 39 -70.5 86.5t-21.5 114.5q0 125 82 200.5t209 75.5q81 0 143 -25.5 t123 -74.5l-49 -74q-107 80 -213 80q-87 0 -134.5 -47.5t-47.5 -130.5q0 -76 42 -121t173 -100q134 -55 195 -122t61 -167q0 -155 -135 -262zM246 662q0 -85 40 -130.5t163 -97.5q72 -30 114 -53q49 43 69.5 92t20.5 115q0 72 -40 120t-154 97q-77 33 -123 59 q-90 -90 -90 -202z" />
<glyph unicode="&#xa8;" horiz-adv-x="600" d="M150 1516q34 0 55.5 -22.5t21.5 -55.5q0 -34 -21 -57t-56 -23q-33 0 -54.5 23t-21.5 57q0 33 21.5 55.5t54.5 22.5zM473 1516q35 0 56.5 -22.5t21.5 -55.5q0 -34 -21.5 -57t-56.5 -23q-32 0 -54 23t-22 57q0 32 22 55t54 23z" />
<glyph unicode="&#xa9;" horiz-adv-x="1357" d="M680 1505q220 0 362 -165t142 -449t-142.5 -450.5t-361.5 -166.5q-107 0 -199.5 42t-160.5 120t-107 195t-39 260q0 283 143 448.5t363 165.5zM680 1427q-188 0 -305 -142t-117 -394q0 -254 117 -395.5t305 -141.5t305 142.5t117 394.5q0 253 -117 394.5t-305 141.5z M684 1260q94 0 174 -70l-45 -62q-65 48 -129 48q-67 0 -112.5 -66.5t-45.5 -216.5q0 -283 162 -283q70 0 137 56l43 -64q-80 -80 -184 -80q-114 0 -184 94t-70 277q0 184 72.5 275.5t181.5 91.5z" />
<glyph unicode="&#xaa;" horiz-adv-x="864" d="M426 1067h123v92q0 77 -35.5 114.5t-118.5 37.5q-78 0 -184 -45l-31 84q122 53 230 53q125 0 186 -61.5t61 -176.5v-430q0 -41 13.5 -62t42.5 -34l-25 -78q-103 21 -123 121q-77 -121 -213 -121q-104 0 -164.5 66t-60.5 176q0 127 79.5 195.5t219.5 68.5zM373 651 q114 0 176 131v203h-121q-96 0 -141 -42t-45 -134q0 -77 35 -117.5t96 -40.5zM131 98h606v-96h-606v96z" />
<glyph unicode="&#xab;" horiz-adv-x="993" d="M410 1063l71 -47l-237 -426l237 -428l-71 -45l-279 432v80zM793 1063l71 -47l-237 -426l237 -428l-71 -45l-279 432v80z" />
<glyph unicode="&#xac;" horiz-adv-x="843" d="M731 707v-359h-104v260h-514v99h618z" />
<glyph unicode="&#xad;" horiz-adv-x="679" d="M115 592v98h452v-98h-452z" />
<glyph unicode="&#xae;" horiz-adv-x="1073" d="M537 1507q178 0 293.5 -132.5t115.5 -354.5q0 -221 -116.5 -356.5t-292.5 -135.5t-292 132.5t-116 353.5q0 220 116.5 356.5t291.5 136.5zM537 600q146 0 240.5 113t94.5 307q0 195 -93 305.5t-242 110.5q-145 0 -240.5 -114.5t-95.5 -307.5q0 -194 95 -304t241 -110z M705 1141q0 -120 -107 -154l125 -242h-86l-109 230h-59v-230h-76v558h119q94 0 143.5 -43t49.5 -119zM469 1233v-191h63q97 0 97 99q0 92 -105 92h-55z" />
<glyph unicode="&#xaf;" horiz-adv-x="536" d="M485 1386h-413v91h413v-91z" />
<glyph unicode="&#xb0;" horiz-adv-x="856" d="M367 811q-107 0 -182.5 80.5t-75.5 226.5q0 144 76 225.5t182 81.5q111 0 185.5 -81.5t74.5 -227.5q0 -143 -74.5 -224t-185.5 -81zM367 895q75 0 118 55.5t43 165.5q0 113 -43 168t-118 55q-71 0 -115.5 -55t-44.5 -166q0 -110 45 -166.5t115 -56.5z" />
<glyph unicode="&#xb1;" horiz-adv-x="833" d="M469 1053v-305h254v-101h-254v-303h-102v303h-254v101h254v305h102zM113 0v96h606v-96h-606z" />
<glyph unicode="&#xb2;" horiz-adv-x="671" d="M332 1520q98 0 156.5 -64t58.5 -164q0 -41 -5.5 -75t-24.5 -75.5t-37 -72.5t-62.5 -89t-79.5 -101t-109 -131h336l-12 -86h-430v81q204 244 263.5 342t59.5 203q0 70 -32.5 109t-89.5 39q-86 0 -156 -90l-62 49q96 125 226 125z" />
<glyph unicode="&#xb3;" horiz-adv-x="671" d="M334 1524q99 0 157 -59.5t58 -155.5q0 -82 -42 -132.5t-116 -64.5q79 -5 129.5 -60t50.5 -151q0 -112 -67.5 -184t-181.5 -72q-134 0 -222 115l58 51q69 -82 161 -82q71 0 111.5 47t40.5 127q0 164 -152 164h-51l13 80h34q59 0 98.5 39t39.5 114q0 68 -34 106t-91 38 q-83 0 -160 -74l-51 55q99 99 217 99z" />
<glyph unicode="&#xb4;" horiz-adv-x="493" d="M389 1593l53 -96l-333 -174l-39 61z" />
<glyph unicode="&#xb5;" horiz-adv-x="983" d="M848 -4l-105 -14q-38 115 -45 225q-108 -230 -262 -230q-118 0 -174 121q23 -131 23 -260v-241l-113 -13v1487h115v-766q0 -118 43.5 -171.5t113.5 -53.5q150 0 242 239v752h115v-709q0 -199 47 -366z" />
<glyph unicode="&#xb6;" horiz-adv-x="1204" d="M559 1403h397v-1806l-104 -19v1729h-211v-1710l-104 -19v1026q-193 9 -284 117.5t-91 282.5q0 190 104 294.5t293 104.5z" />
<glyph unicode="&#xb7;" horiz-adv-x="380" d="M190 745q41 0 67 -27t26 -65t-26 -66t-67 -28q-40 0 -66 28t-26 66t26 65t66 27z" />
<glyph unicode="&#xb8;" horiz-adv-x="446" d="M240 33v-168q155 -20 155 -156q0 -81 -52 -126.5t-130 -45.5q-79 0 -141 41l39 68q48 -27 96 -27q42 0 67 23t25 67q0 94 -152 94l19 230h74z" />
<glyph unicode="&#xb9;" horiz-adv-x="673" d="M440 1509v-847h-94v741l-170 -121l-47 66l227 161h84z" />
<glyph unicode="&#xba;" horiz-adv-x="847" d="M424 1403q149 0 229 -104t80 -314q0 -208 -81 -316t-228 -108t-228 106.5t-81 313.5q0 206 82 314t227 108zM426 1313q-98 0 -148.5 -77.5t-50.5 -254.5q0 -173 50 -251.5t147 -78.5q98 0 148.5 78.5t50.5 255.5q0 175 -49 251.5t-148 76.5zM121 0v96h606v-96h-606z" />
<glyph unicode="&#xbb;" horiz-adv-x="993" d="M201 1063l280 -434v-80l-280 -432l-70 45l238 428l-238 426zM584 1063l280 -434v-80l-280 -432l-70 45l238 428l-238 426z" />
<glyph unicode="&#xbc;" horiz-adv-x="1544" d="M1077 1530l78 -33l-682 -1640l-80 32zM440 555h-94v741l-170 -120l-47 65l227 162h84v-848zM1460 295v-82h-92v-213h-94v213h-318v74l218 575l81 -33l-202 -534h221l14 237h80v-237h92z" />
<glyph unicode="&#xbd;" horiz-adv-x="1546" d="M1077 1530l78 -33l-682 -1640l-80 32zM440 1403v-848h-94v741l-170 -120l-47 65l227 162h84zM1206 858q98 0 156.5 -63.5t58.5 -163.5q0 -49 -11.5 -93.5t-28.5 -83t-62.5 -100.5t-87 -113.5t-127.5 -154.5h336l-13 -86h-430v82q205 245 264.5 342.5t59.5 202.5 q0 70 -33 108.5t-90 38.5q-86 0 -156 -90l-61 49q96 125 225 125z" />
<glyph unicode="&#xbe;" horiz-adv-x="1542" d="M1075 1530l78 -33l-682 -1640l-80 32zM571 795q0 -112 -67.5 -184t-181.5 -72q-135 0 -222 114l58 52q69 -82 161 -82q71 0 111.5 47t40.5 127q0 164 -152 164h-51l13 79h34q58 0 98 39.5t40 114.5q0 68 -34 105.5t-91 37.5q-84 0 -160 -73l-51 55q98 98 217 98 q99 0 157 -59.5t58 -155.5q0 -81 -42 -131.5t-116 -64.5q79 -5 129.5 -60t50.5 -151zM1458 295v-82h-92v-213h-94v213h-318v74l217 575l82 -33l-202 -534h221l14 237h80v-237h92z" />
<glyph unicode="&#xbf;" horiz-adv-x="780" d="M436 782q-41 0 -67.5 28.5t-26.5 66.5t26 65t68 27q40 0 65 -27t25 -65t-25 -66.5t-65 -28.5zM379 -424q-141 0 -222 86.5t-81 212.5q0 62 17 111.5t44 83t59.5 63t65.5 58.5t60 61.5t44 81t17 108.5v68h109v-76q0 -68 -16.5 -122.5t-43 -90t-58 -65.5t-63.5 -57 t-58.5 -56.5t-43 -72t-16.5 -95.5q0 -93 51.5 -147t140.5 -54q74 0 131 35.5t115 114.5l74 -60q-133 -188 -326 -188z" />
<glyph unicode="&#xc0;" horiz-adv-x="978" d="M670 1618l-35 -66l-336 156l53 100zM823 0l-98 385h-475l-98 -385h-117l381 1403h147l381 -1403h-121zM276 483h422l-211 822z" />
<glyph unicode="&#xc1;" horiz-adv-x="978" d="M678 1710l-338 -158l-33 66l320 192zM823 0l-98 385h-475l-98 -385h-117l381 1403h147l381 -1403h-121zM276 483h422l-211 822z" />
<glyph unicode="&#xc2;" horiz-adv-x="978" d="M489 1726l-204 -161l-49 51l219 211h71l219 -211l-51 -51zM823 0l-98 385h-475l-98 -385h-117l381 1403h147l381 -1403h-121zM276 483h422l-211 822z" />
<glyph unicode="&#xc3;" horiz-adv-x="978" d="M393 1718q-27 0 -46.5 -18.5t-47.5 -63.5l-66 33q63 135 158 135q35 0 71.5 -22.5t69 -45t58.5 -22.5t47.5 20.5t46.5 67.5l66 -30q-57 -144 -156 -144q-37 0 -75 22.5t-70 45t-56 22.5zM823 0l-98 385h-475l-98 -385h-117l381 1403h147l381 -1403h-121zM276 483h422 l-211 822z" />
<glyph unicode="&#xc4;" horiz-adv-x="978" d="M340 1616q-33 0 -54.5 23t-21.5 57q0 33 21.5 55.5t54.5 22.5q35 0 56.5 -22.5t21.5 -55.5q0 -34 -21.5 -57t-56.5 -23zM664 1616q-32 0 -54 23t-22 57q0 32 22 55t54 23q34 0 55.5 -22.5t21.5 -55.5q0 -34 -21 -57t-56 -23zM823 0l-98 385h-475l-98 -385h-117l381 1403 h147l381 -1403h-121zM276 483h422l-211 822z" />
<glyph unicode="&#xc5;" horiz-adv-x="978" d="M492 1554q-78 0 -125.5 50.5t-47.5 142.5q0 90 47.5 140t125.5 50t125 -50t47 -140q0 -92 -47 -142.5t-125 -50.5zM492 1868q-45 0 -68 -28t-23 -93q0 -66 23 -94.5t68 -28.5t68.5 28.5t23.5 94.5q0 121 -92 121zM823 0l-98 385h-475l-98 -385h-117l381 1403h147 l381 -1403h-121zM276 483h422l-211 822z" />
<glyph unicode="&#xc6;" horiz-adv-x="1327" d="M868 100h383v-100h-479l-74 377h-469l-114 -377h-119l453 1403h725l-15 -100h-534l106 -527h428v-98h-407zM260 477h418l-162 832z" />
<glyph unicode="&#xc7;" horiz-adv-x="931" d="M897 119q-124 -132 -287 -142v-112q156 -21 156 -156q0 -81 -52 -126.5t-130 -45.5q-80 0 -142 41l39 68q48 -27 97 -27q42 0 67 23t25 67q0 94 -152 94l14 177q-195 23 -309 203t-114 519q0 184 37 325.5t102.5 227t149.5 128t184 42.5q93 0 163 -32t140 -97l-64 -73 q-59 53 -112.5 76.5t-122.5 23.5q-61 0 -112 -19t-96.5 -64.5t-77 -116t-49.5 -177.5t-18 -244q0 -321 95.5 -470.5t257.5 -149.5q77 0 130 28t113 83z" />
<glyph unicode="&#xc8;" horiz-adv-x="860" d="M346 1808l318 -190l-35 -66l-336 156zM776 1403l-12 -100h-467v-527h403v-98h-403v-578h489v-100h-606v1403h596z" />
<glyph unicode="&#xc9;" horiz-adv-x="860" d="M621 1810l51 -100l-338 -158l-33 66zM776 1403l-12 -100h-467v-527h403v-98h-403v-578h489v-100h-606v1403h596z" />
<glyph unicode="&#xca;" horiz-adv-x="860" d="M279 1565l-50 51l220 211h71l219 -211l-51 -51l-205 161zM776 1403l-12 -100h-467v-527h403v-98h-403v-578h489v-100h-606v1403h596z" />
<glyph unicode="&#xcb;" horiz-adv-x="860" d="M334 1774q35 0 56.5 -22.5t21.5 -55.5q0 -34 -21.5 -57t-56.5 -23q-33 0 -54.5 23t-21.5 57q0 33 21.5 55.5t54.5 22.5zM657 1774q35 0 56.5 -22.5t21.5 -55.5q0 -34 -21.5 -57t-56.5 -23q-32 0 -53.5 23t-21.5 57q0 33 21.5 55.5t53.5 22.5zM776 1403l-12 -100h-467 v-527h403v-98h-403v-578h489v-100h-606v1403h596z" />
<glyph unicode="&#xcc;" horiz-adv-x="477" d="M98 1808l318 -190l-35 -66l-336 156zM297 1403v-1403h-117v1403h117z" />
<glyph unicode="&#xcd;" horiz-adv-x="477" d="M373 1810l51 -100l-338 -158l-33 66zM297 1403v-1403h-117v1403h117z" />
<glyph unicode="&#xce;" horiz-adv-x="477" d="M31 1565l-49 51l219 211h71l220 -211l-52 -51l-204 161zM297 1403v-1403h-117v1403h117z" />
<glyph unicode="&#xcf;" horiz-adv-x="477" d="M86 1774q35 0 56.5 -22.5t21.5 -55.5q0 -34 -21.5 -57t-56.5 -23q-33 0 -54.5 23t-21.5 57q0 33 21.5 55.5t54.5 22.5zM410 1774q34 0 55.5 -22.5t21.5 -55.5q0 -34 -21 -57t-56 -23q-32 0 -54 23t-22 57q0 32 22 55t54 23zM297 1403v-1403h-117v1403h117z" />
<glyph unicode="&#xd0;" horiz-adv-x="1083" d="M432 1403q63 0 117 -7.5t110.5 -28t101.5 -53.5t86 -86.5t68.5 -124t43.5 -170t16 -220.5q0 -122 -16 -223t-44 -174t-68.5 -129t-85 -90.5t-98.5 -57t-105 -31t-107 -8.5h-256v674h-154v96h154v633h237zM459 98q64 0 117 14.5t105.5 55.5t88 107.5t58 178t22.5 259.5 q0 109 -12 196.5t-32.5 148t-51.5 105.5t-64 71.5t-75.5 42.5t-81 21t-84.5 5h-138v-533h277v-96h-277v-576h148z" />
<glyph unicode="&#xd1;" horiz-adv-x="1128" d="M682 1628q-37 0 -75 22.5t-70 45t-56 22.5q-27 0 -46.5 -18.5t-47.5 -63.5l-65 33q63 135 157 135q35 0 71.5 -22.5t69 -45t58.5 -22.5t47.5 20.5t46.5 67.5l66 -30q-57 -144 -156 -144zM950 1403v-1403h-155l-521 1270q17 -204 17 -477v-793h-111v1403h156l518 -1270 q-16 244 -16 412v858h112z" />
<glyph unicode="&#xd2;" horiz-adv-x="1167" d="M444 1808l318 -190l-35 -66l-336 156zM584 1425q222 0 348.5 -181t126.5 -544q0 -356 -126 -539.5t-349 -183.5q-220 0 -347.5 182.5t-127.5 538.5t128.5 541.5t346.5 185.5zM584 1323q-166 0 -258.5 -151.5t-92.5 -473.5q0 -318 93.5 -468t257.5 -150q170 0 260 148.5 t90 471.5q0 623 -350 623z" />
<glyph unicode="&#xd3;" horiz-adv-x="1167" d="M719 1810l51 -100l-338 -158l-33 66zM584 1425q222 0 348.5 -181t126.5 -544q0 -356 -126 -539.5t-349 -183.5q-220 0 -347.5 182.5t-127.5 538.5t128.5 541.5t346.5 185.5zM584 1323q-166 0 -258.5 -151.5t-92.5 -473.5q0 -318 93.5 -468t257.5 -150q170 0 260 148.5 t90 471.5q0 623 -350 623z" />
<glyph unicode="&#xd4;" horiz-adv-x="1167" d="M377 1565l-49 51l219 211h71l220 -211l-52 -51l-204 161zM584 1425q222 0 348.5 -181t126.5 -544q0 -356 -126 -539.5t-349 -183.5q-220 0 -347.5 182.5t-127.5 538.5t128.5 541.5t346.5 185.5zM584 1323q-166 0 -258.5 -151.5t-92.5 -473.5q0 -318 93.5 -468t257.5 -150 q170 0 260 148.5t90 471.5q0 623 -350 623z" />
<glyph unicode="&#xd5;" horiz-adv-x="1167" d="M686 1628q-37 0 -75 22.5t-70 45t-56 22.5q-27 0 -46.5 -18.5t-47.5 -63.5l-65 33q63 135 157 135q35 0 71.5 -22.5t69 -45t58.5 -22.5t47.5 20.5t46.5 67.5l66 -30q-57 -144 -156 -144zM584 1425q222 0 348.5 -181t126.5 -544q0 -356 -126 -539.5t-349 -183.5 q-220 0 -347.5 182.5t-127.5 538.5t128.5 541.5t346.5 185.5zM584 1323q-166 0 -258.5 -151.5t-92.5 -473.5q0 -318 93.5 -468t257.5 -150q170 0 260 148.5t90 471.5q0 623 -350 623z" />
<glyph unicode="&#xd6;" horiz-adv-x="1167" d="M432 1774q35 0 56.5 -22.5t21.5 -55.5q0 -34 -21.5 -57t-56.5 -23q-33 0 -54.5 23t-21.5 57q0 33 21.5 55.5t54.5 22.5zM756 1774q35 0 56.5 -22.5t21.5 -55.5q0 -34 -21.5 -57t-56.5 -23q-32 0 -54 23t-22 57q0 32 22 55t54 23zM584 1425q222 0 348.5 -181t126.5 -544 q0 -356 -126 -539.5t-349 -183.5q-220 0 -347.5 182.5t-127.5 538.5t128.5 541.5t346.5 185.5zM584 1323q-166 0 -258.5 -151.5t-92.5 -473.5q0 -318 93.5 -468t257.5 -150q170 0 260 148.5t90 471.5q0 623 -350 623z" />
<glyph unicode="&#xd7;" horiz-adv-x="831" d="M625 963l77 -60l-217 -274l217 -275l-77 -57l-209 268l-209 -268l-76 57l215 275l-215 274l76 60l209 -271z" />
<glyph unicode="&#xd8;" horiz-adv-x="1167" d="M801 1370q123 -72 190.5 -240.5t67.5 -429.5q0 -356 -126 -539.5t-349 -183.5q-57 0 -127 17l-58 -238l-100 27l68 252q-123 72 -190.5 238.5t-67.5 424.5q0 355 128.5 541t346.5 186q64 0 123 -16l61 250l100 -29zM231 698q0 -439 179 -565l278 1176q-46 14 -104 14 q-167 0 -260 -151.5t-93 -473.5zM584 80q171 0 260 148t90 472q3 448 -174 572l-281 -1176q44 -16 105 -16z" />
<glyph unicode="&#xd9;" horiz-adv-x="1087" d="M406 1808l317 -190l-35 -66l-336 156zM930 1403v-1038q0 -109 -41 -195t-129.5 -139.5t-214.5 -53.5q-188 0 -286.5 109.5t-98.5 278.5v1038h116v-1028q0 -138 67 -215.5t202 -77.5t200.5 78.5t65.5 214.5v1028h119z" />
<glyph unicode="&#xda;" horiz-adv-x="1087" d="M680 1810l51 -100l-338 -158l-33 66zM930 1403v-1038q0 -109 -41 -195t-129.5 -139.5t-214.5 -53.5q-188 0 -286.5 109.5t-98.5 278.5v1038h116v-1028q0 -138 67 -215.5t202 -77.5t200.5 78.5t65.5 214.5v1028h119z" />
<glyph unicode="&#xdb;" horiz-adv-x="1087" d="M338 1565l-49 51l219 211h72l219 -211l-51 -51l-205 161zM930 1403v-1038q0 -109 -41 -195t-129.5 -139.5t-214.5 -53.5q-188 0 -286.5 109.5t-98.5 278.5v1038h116v-1028q0 -138 67 -215.5t202 -77.5t200.5 78.5t65.5 214.5v1028h119z" />
<glyph unicode="&#xdc;" horiz-adv-x="1087" d="M393 1774q35 0 56.5 -22.5t21.5 -55.5q0 -34 -21.5 -57t-56.5 -23q-33 0 -54.5 23t-21.5 57q0 33 21.5 55.5t54.5 22.5zM717 1774q35 0 56.5 -22.5t21.5 -55.5q0 -34 -21.5 -57t-56.5 -23q-32 0 -54 23t-22 57q0 32 22 55t54 23zM930 1403v-1038q0 -109 -41 -195 t-129.5 -139.5t-214.5 -53.5q-188 0 -286.5 109.5t-98.5 278.5v1038h116v-1028q0 -138 67 -215.5t202 -77.5t200.5 78.5t65.5 214.5v1028h119z" />
<glyph unicode="&#xdd;" horiz-adv-x="888" d="M580 1810l51 -100l-338 -158l-33 66zM870 1403l-364 -854v-549h-119v547l-369 856h127l304 -748l301 748h120z" />
<glyph unicode="&#xde;" horiz-adv-x="954" d="M414 1151q241 0 360 -104t119 -318q0 -448 -479 -448h-117v-281h-117v1403h117v-252h117zM410 379q182 0 270 78t88 270q0 173 -85 249.5t-269 76.5h-117v-674h113z" />
<glyph unicode="&#xdf;" horiz-adv-x="983" d="M496 1522q126 0 204 -76.5t78 -196.5q0 -61 -20 -111t-48 -82t-56 -60t-48 -60t-20 -68q0 -35 17.5 -66t46 -57.5t63 -55t68.5 -63.5t62.5 -76.5t46 -101.5t17.5 -131q0 -153 -77.5 -246.5t-200.5 -93.5q-95 0 -166 43l37 82q58 -28 116 -28q80 0 127.5 63.5t47.5 179.5 q0 64 -17 117t-44.5 90t-60.5 69.5t-66 61t-60.5 58t-44.5 67.5t-17 82t19.5 81.5t47.5 66.5t55.5 59.5t47 75.5t19.5 100q0 87 -47.5 134.5t-126.5 47.5q-96 0 -152.5 -69t-56.5 -195v-1163h-115v1167q0 159 89.5 257t234.5 98z" />
<glyph unicode="&#xe0;" d="M635 1384l-39 -61l-334 174l55 96zM735 205q0 -64 17.5 -97t54.5 -51l-25 -80q-64 15 -99.5 54.5t-45.5 113.5q-96 -168 -268 -168q-128 0 -203.5 88t-75.5 232q0 168 101.5 257t289.5 89h142v123q0 117 -46 174t-145 57q-114 0 -246 -57l-32 82q154 72 288 72 q148 0 220.5 -83t72.5 -237v-569zM387 70q156 0 236 198v291h-131q-142 0 -211.5 -63.5t-69.5 -194.5q0 -114 46.5 -172.5t129.5 -58.5z" />
<glyph unicode="&#xe1;" d="M614 1497l-333 -174l-39 61l319 209zM735 205q0 -64 17.5 -97t54.5 -51l-25 -80q-64 15 -99.5 54.5t-45.5 113.5q-96 -168 -268 -168q-128 0 -203.5 88t-75.5 232q0 168 101.5 257t289.5 89h142v123q0 117 -46 174t-145 57q-114 0 -246 -57l-32 82q154 72 288 72 q148 0 220.5 -83t72.5 -237v-569zM387 70q156 0 236 198v291h-131q-142 0 -211.5 -63.5t-69.5 -194.5q0 -114 46.5 -172.5t129.5 -58.5z" />
<glyph unicode="&#xe2;" d="M438 1495l-205 -172l-49 51l219 221h72l219 -221l-51 -51zM735 205q0 -64 17.5 -97t54.5 -51l-25 -80q-64 15 -99.5 54.5t-45.5 113.5q-96 -168 -268 -168q-128 0 -203.5 88t-75.5 232q0 168 101.5 257t289.5 89h142v123q0 117 -46 174t-145 57q-114 0 -246 -57l-32 82 q154 72 288 72q148 0 220.5 -83t72.5 -237v-569zM387 70q156 0 236 198v291h-131q-142 0 -211.5 -63.5t-69.5 -194.5q0 -114 46.5 -172.5t129.5 -58.5z" />
<glyph unicode="&#xe3;" d="M342 1460q-27 0 -46.5 -18.5t-47.5 -63.5l-66 33q63 135 158 135q35 0 71.5 -22.5t69 -45t58.5 -22.5t47.5 20.5t46.5 67.5l65 -31q-56 -143 -155 -143q-37 0 -75 22.5t-70 45t-56 22.5zM735 205q0 -64 17.5 -97t54.5 -51l-25 -80q-64 15 -99.5 54.5t-45.5 113.5 q-96 -168 -268 -168q-128 0 -203.5 88t-75.5 232q0 168 101.5 257t289.5 89h142v123q0 117 -46 174t-145 57q-114 0 -246 -57l-32 82q154 72 288 72q148 0 220.5 -83t72.5 -237v-569zM387 70q156 0 236 198v291h-131q-142 0 -211.5 -63.5t-69.5 -194.5q0 -114 46.5 -172.5 t129.5 -58.5z" />
<glyph unicode="&#xe4;" d="M276 1358q-33 0 -54 23t-21 57q0 33 21 55.5t54 22.5q35 0 56.5 -22.5t21.5 -55.5q0 -34 -21.5 -57t-56.5 -23zM600 1358q-32 0 -54 23t-22 57q0 32 22 55t54 23q35 0 56.5 -22.5t21.5 -55.5q0 -34 -21.5 -57t-56.5 -23zM735 205q0 -64 17.5 -97t54.5 -51l-25 -80 q-64 15 -99.5 54.5t-45.5 113.5q-96 -168 -268 -168q-128 0 -203.5 88t-75.5 232q0 168 101.5 257t289.5 89h142v123q0 117 -46 174t-145 57q-114 0 -246 -57l-32 82q154 72 288 72q148 0 220.5 -83t72.5 -237v-569zM387 70q156 0 236 198v291h-131q-142 0 -211.5 -63.5 t-69.5 -194.5q0 -114 46.5 -172.5t129.5 -58.5z" />
<glyph unicode="&#xe5;" d="M440 1296q-78 0 -125 50.5t-47 142.5q0 90 47 140t125 50t125 -50t47 -140q0 -92 -47 -142.5t-125 -50.5zM440 1610q-45 0 -67.5 -28t-22.5 -93q0 -66 22.5 -94.5t67.5 -28.5t68.5 28.5t23.5 94.5q0 121 -92 121zM735 205q0 -64 17.5 -97t54.5 -51l-25 -80 q-64 15 -99.5 54.5t-45.5 113.5q-96 -168 -268 -168q-128 0 -203.5 88t-75.5 232q0 168 101.5 257t289.5 89h142v123q0 117 -46 174t-145 57q-114 0 -246 -57l-32 82q154 72 288 72q148 0 220.5 -83t72.5 -237v-569zM387 70q156 0 236 198v291h-131q-142 0 -211.5 -63.5 t-69.5 -194.5q0 -114 46.5 -172.5t129.5 -58.5z" />
<glyph unicode="&#xe6;" horiz-adv-x="1427" d="M1333 575q0 -46 -4 -86h-586q9 -211 80 -312t189 -101q68 0 121.5 24t109.5 76l55 -67q-132 -132 -294 -132q-108 0 -189 55.5t-129 160.5q-68 -115 -142.5 -165.5t-170.5 -50.5q-129 0 -206 88t-77 232q0 167 102.5 256.5t286.5 89.5h146v105q0 129 -46.5 189t-152.5 60 q-98 0 -238 -59l-28 84q157 72 280 72q115 0 179 -51.5t90 -151.5q96 203 284 203q164 0 252 -133.5t88 -385.5zM1219 580v32q0 385 -226 385q-109 0 -176 -103t-74 -314h476zM391 70q79 0 140 52t122 167q-28 109 -28 235v35h-138q-135 0 -205.5 -64.5t-70.5 -193.5 q0 -109 48 -170t132 -61z" />
<glyph unicode="&#xe7;" horiz-adv-x="782" d="M508 -135q156 -21 156 -156q0 -81 -52.5 -126.5t-130.5 -45.5q-79 0 -141 41l39 68q48 -27 96 -27q42 0 67 23t25 67q0 48 -36 71t-115 23l14 179q-155 21 -240.5 157.5t-85.5 388.5q0 273 103 419.5t280 146.5q141 0 250 -109l-55 -70q-89 80 -193 80 q-123 0 -192.5 -112.5t-69.5 -352.5q0 -452 260 -452q105 0 199 84l57 -70q-107 -107 -235 -115v-112z" />
<glyph unicode="&#xe8;" d="M664 1384l-39 -61l-334 174l55 96zM813 575q0 -46 -4 -86h-586q4 -114 25 -195.5t56.5 -128t80.5 -68t102 -21.5q70 0 123 23.5t111 74.5l57 -68q-129 -129 -293 -129q-179 0 -280 140.5t-101 408.5q0 272 97.5 420t267.5 148q169 0 256.5 -132.5t87.5 -386.5zM700 580 v32q0 193 -56.5 289t-174.5 96q-233 0 -246 -417h477z" />
<glyph unicode="&#xe9;" d="M643 1497l-334 -174l-39 61l320 209zM813 575q0 -46 -4 -86h-586q4 -114 25 -195.5t56.5 -128t80.5 -68t102 -21.5q70 0 123 23.5t111 74.5l57 -68q-129 -129 -293 -129q-179 0 -280 140.5t-101 408.5q0 272 97.5 420t267.5 148q169 0 256.5 -132.5t87.5 -386.5zM700 580 v32q0 193 -56.5 289t-174.5 96q-233 0 -246 -417h477z" />
<glyph unicode="&#xea;" d="M467 1495l-205 -172l-49 51l219 221h72l219 -221l-51 -51zM813 575q0 -46 -4 -86h-586q4 -114 25 -195.5t56.5 -128t80.5 -68t102 -21.5q70 0 123 23.5t111 74.5l57 -68q-129 -129 -293 -129q-179 0 -280 140.5t-101 408.5q0 272 97.5 420t267.5 148q169 0 256.5 -132.5 t87.5 -386.5zM700 580v32q0 193 -56.5 289t-174.5 96q-233 0 -246 -417h477z" />
<glyph unicode="&#xeb;" d="M305 1358q-33 0 -54.5 23t-21.5 57q0 33 21.5 55.5t54.5 22.5q35 0 56.5 -22.5t21.5 -55.5q0 -34 -21.5 -57t-56.5 -23zM629 1358q-32 0 -54 23t-22 57q0 32 22 55t54 23q35 0 56.5 -22.5t21.5 -55.5q0 -34 -21.5 -57t-56.5 -23zM813 575q0 -46 -4 -86h-586 q4 -114 25 -195.5t56.5 -128t80.5 -68t102 -21.5q70 0 123 23.5t111 74.5l57 -68q-129 -129 -293 -129q-179 0 -280 140.5t-101 408.5q0 272 97.5 420t267.5 148q169 0 256.5 -132.5t87.5 -386.5zM700 580v32q0 193 -56.5 289t-174.5 96q-233 0 -246 -417h477z" />
<glyph unicode="&#xec;" horiz-adv-x="458" d="M106 1593l318 -209l-39 -61l-334 174zM287 1071v-1071h-115v1071h115z" />
<glyph unicode="&#xed;" horiz-adv-x="458" d="M350 1593l53 -96l-333 -174l-39 61zM287 1071v-1071h-115v1071h115z" />
<glyph unicode="&#xee;" horiz-adv-x="458" d="M23 1323l-50 51l220 221h71l219 -221l-51 -51l-205 172zM287 1071v-1071h-115v1071h115z" />
<glyph unicode="&#xef;" horiz-adv-x="458" d="M66 1516q34 0 55.5 -22.5t21.5 -55.5q0 -34 -21 -57t-56 -23q-33 0 -54.5 23t-21.5 57q0 33 21.5 55.5t54.5 22.5zM389 1516q35 0 56.5 -22.5t21.5 -55.5q0 -34 -21.5 -57t-56.5 -23q-32 0 -54 23t-22 57q0 32 22 55t54 23zM287 1071v-1071h-115v1071h115z" />
<glyph unicode="&#xf0;" horiz-adv-x="944" d="M549 1358q146 -126 213 -313.5t67 -469.5q0 -292 -98.5 -445t-267.5 -153q-165 0 -262 132t-97 368q0 133 38 241t115 174t179 66q154 0 264 -151q-19 157 -69.5 271t-147.5 210l-131 -160l-80 39l144 174q-117 73 -203 93l23 88q114 -24 243 -111l119 148l72 -54z M463 74q119 0 184.5 127t65.5 379q0 69 -2 100q-109 184 -256 184q-113 0 -172.5 -105t-59.5 -282q0 -197 63 -300t177 -103z" />
<glyph unicode="&#xf1;" horiz-adv-x="983" d="M401 1460q-27 0 -46.5 -18.5t-47.5 -63.5l-65 33q63 135 157 135q35 0 71.5 -22.5t69 -45t58.5 -22.5t47.5 20.5t46.5 67.5l66 -31q-56 -143 -156 -143q-37 0 -75 22.5t-70 45t-56 22.5zM573 1094q117 0 181.5 -83.5t64.5 -226.5v-784h-114v770q0 229 -154 229 q-144 0 -264 -231v-768h-115v1071h98l13 -184q59 101 127 154t163 53z" />
<glyph unicode="&#xf2;" horiz-adv-x="966" d="M360 1593l318 -209l-39 -61l-334 174zM483 1094q182 0 280.5 -140t98.5 -415q0 -268 -101.5 -415t-279.5 -147t-277.5 145.5t-99.5 412.5q0 271 100.5 415t278.5 144zM483 995q-258 0 -258 -460q0 -461 256 -461q260 0 260 465q0 237 -65.5 346.5t-192.5 109.5z" />
<glyph unicode="&#xf3;" horiz-adv-x="966" d="M604 1593l53 -96l-333 -174l-39 61zM483 1094q182 0 280.5 -140t98.5 -415q0 -268 -101.5 -415t-279.5 -147t-277.5 145.5t-99.5 412.5q0 271 100.5 415t278.5 144zM483 995q-258 0 -258 -460q0 -461 256 -461q260 0 260 465q0 237 -65.5 346.5t-192.5 109.5z" />
<glyph unicode="&#xf4;" horiz-adv-x="966" d="M276 1323l-49 51l219 221h72l219 -221l-51 -51l-205 172zM483 1094q182 0 280.5 -140t98.5 -415q0 -268 -101.5 -415t-279.5 -147t-277.5 145.5t-99.5 412.5q0 271 100.5 415t278.5 144zM483 995q-258 0 -258 -460q0 -461 256 -461q260 0 260 465q0 237 -65.5 346.5 t-192.5 109.5z" />
<glyph unicode="&#xf5;" horiz-adv-x="966" d="M586 1370q-37 0 -75 22.5t-70 45t-56 22.5q-27 0 -46.5 -18.5t-47.5 -63.5l-66 33q63 135 158 135q35 0 71.5 -22.5t69 -45t58.5 -22.5t47.5 20.5t46.5 67.5l65 -31q-56 -143 -155 -143zM483 1094q182 0 280.5 -140t98.5 -415q0 -268 -101.5 -415t-279.5 -147 t-277.5 145.5t-99.5 412.5q0 271 100.5 415t278.5 144zM483 995q-258 0 -258 -460q0 -461 256 -461q260 0 260 465q0 237 -65.5 346.5t-192.5 109.5z" />
<glyph unicode="&#xf6;" horiz-adv-x="966" d="M319 1516q35 0 56.5 -22.5t21.5 -55.5q0 -34 -21.5 -57t-56.5 -23q-33 0 -54 23t-21 57q0 33 21 55.5t54 22.5zM643 1516q35 0 56.5 -22.5t21.5 -55.5q0 -34 -21.5 -57t-56.5 -23q-32 0 -54 23t-22 57q0 32 22 55t54 23zM483 1094q182 0 280.5 -140t98.5 -415 q0 -268 -101.5 -415t-279.5 -147t-277.5 145.5t-99.5 412.5q0 271 100.5 415t278.5 144zM483 995q-258 0 -258 -460q0 -461 256 -461q260 0 260 465q0 237 -65.5 346.5t-192.5 109.5z" />
<glyph unicode="&#xf7;" horiz-adv-x="831" d="M416 1217q41 0 66.5 -27.5t25.5 -65.5t-25.5 -66t-66.5 -28q-40 0 -66 28t-26 66t26 65.5t66 27.5zM113 631v96h606v-96h-606zM416 324q41 0 66.5 -27.5t25.5 -65.5t-25.5 -66t-66.5 -28q-40 0 -66 28t-26 66t26 65.5t66 27.5z" />
<glyph unicode="&#xf8;" horiz-adv-x="966" d="M674 1042q188 -121 188 -503q0 -268 -101.5 -415t-279.5 -147q-48 0 -98 13l-68 -246l-94 27l76 258q-193 129 -193 506q0 271 100.5 415t278.5 144q49 0 103 -13l67 246l92 -27zM223 535q0 -313 113 -412l229 862q-38 12 -82 12q-260 0 -260 -462zM481 74q262 0 262 465 q0 316 -112 411l-228 -866q42 -10 78 -10z" />
<glyph unicode="&#xf9;" horiz-adv-x="974" d="M360 1593l318 -209l-39 -61l-334 174zM803 1071v-1071h-98l-9 178q-103 -201 -278 -201q-118 0 -187 79.5t-69 213.5v801h114v-790q0 -102 42 -155.5t118 -53.5q149 0 252 219v780h115z" />
<glyph unicode="&#xfa;" horiz-adv-x="974" d="M604 1593l53 -96l-333 -174l-39 61zM803 1071v-1071h-98l-9 178q-103 -201 -278 -201q-118 0 -187 79.5t-69 213.5v801h114v-790q0 -102 42 -155.5t118 -53.5q149 0 252 219v780h115z" />
<glyph unicode="&#xfb;" horiz-adv-x="974" d="M276 1323l-49 51l219 221h72l219 -221l-51 -51l-205 172zM803 1071v-1071h-98l-9 178q-103 -201 -278 -201q-118 0 -187 79.5t-69 213.5v801h114v-790q0 -102 42 -155.5t118 -53.5q149 0 252 219v780h115z" />
<glyph unicode="&#xfc;" horiz-adv-x="974" d="M319 1516q35 0 56.5 -22.5t21.5 -55.5q0 -34 -21.5 -57t-56.5 -23q-33 0 -54 23t-21 57q0 33 21 55.5t54 22.5zM643 1516q35 0 56.5 -22.5t21.5 -55.5q0 -34 -21.5 -57t-56.5 -23q-32 0 -54 23t-22 57q0 32 22 55t54 23zM803 1071v-1071h-98l-9 178q-103 -201 -278 -201 q-118 0 -187 79.5t-69 213.5v801h114v-790q0 -102 42 -155.5t118 -53.5q149 0 252 219v780h115z" />
<glyph unicode="&#xfd;" horiz-adv-x="811" d="M530 1593l54 -96l-334 -174l-39 61zM780 1071l-301 -1075q-50 -184 -131 -280t-239 -134l-15 90q66 19 110.5 45t76.5 68t52.5 89.5t43.5 125.5h-43l-301 1071h117l260 -985l254 985h116z" />
<glyph unicode="&#xfe;" horiz-adv-x="974" d="M551 1094q155 0 237 -139.5t82 -413.5q0 -269 -89 -416.5t-249 -147.5q-150 0 -245 148v-524l-115 -21v1927l115 15v-594q103 166 264 166zM514 76q234 0 234 465q0 237 -55 346.5t-165 109.5q-137 0 -241 -180v-581q93 -160 227 -160z" />
<glyph unicode="&#xff;" horiz-adv-x="811" d="M246 1516q35 0 56.5 -22.5t21.5 -55.5q0 -34 -21.5 -57t-56.5 -23q-33 0 -54.5 23t-21.5 57q0 33 21.5 55.5t54.5 22.5zM569 1516q35 0 56.5 -22.5t21.5 -55.5q0 -34 -21.5 -57t-56.5 -23q-32 0 -53.5 23t-21.5 57q0 33 21.5 55.5t53.5 22.5zM780 1071l-301 -1075 q-50 -184 -131 -280t-239 -134l-15 90q66 19 110.5 45t76.5 68t52.5 89.5t43.5 125.5h-43l-301 1071h117l260 -985l254 985h116z" />
<glyph unicode="&#x152;" horiz-adv-x="1468" d="M1395 100v-100h-709q-61 -23 -123 -23q-203 0 -328.5 188.5t-125.5 532.5q0 343 126.5 535t327.5 192q66 0 127 -22h694l-12 -100h-538q175 -158 190 -525h285v-102h-283q-9 -403 -197 -576h566zM233 698q0 -306 92 -462t242 -156q157 0 245.5 156.5t88.5 474.5 q0 305 -90 458.5t-244 153.5q-153 0 -243.5 -156.5t-90.5 -468.5z" />
<glyph unicode="&#x153;" horiz-adv-x="1544" d="M1450 575q0 -46 -4 -86h-586q9 -211 79 -312t185 -101q69 0 123.5 24t112.5 76l55 -67q-135 -132 -293 -132q-223 0 -323 261q-47 -124 -127.5 -192.5t-190.5 -68.5q-178 0 -277.5 145t-99.5 413t101 413.5t278 145.5q111 0 192 -66t128 -188q46 120 123 187t184 67 q163 0 251.5 -136.5t88.5 -382.5zM1337 580v32q0 385 -229 385q-108 0 -175.5 -103t-74.5 -314h479zM481 74q124 0 191 118.5t67 346.5q0 225 -66 340.5t-190 115.5q-258 0 -258 -460q0 -461 256 -461z" />
<glyph unicode="&#x178;" horiz-adv-x="888" d="M293 1774q35 0 56.5 -22.5t21.5 -55.5q0 -34 -21.5 -57t-56.5 -23q-33 0 -54.5 23t-21.5 57q0 33 21.5 55.5t54.5 22.5zM616 1774q35 0 56.5 -22.5t21.5 -55.5q0 -34 -21.5 -57t-56.5 -23q-32 0 -53.5 23t-21.5 57q0 33 21.5 55.5t53.5 22.5zM870 1403l-364 -854v-549 h-119v547l-369 856h127l304 -748l301 748h120z" />
<glyph unicode="&#x2c6;" horiz-adv-x="632" d="M121 1323l-49 51l219 221h71l220 -221l-52 -51l-204 172z" />
<glyph unicode="&#x2dc;" horiz-adv-x="638" d="M422 1370q-37 0 -75 22.5t-70 45t-56 22.5q-27 0 -46.5 -18.5t-47.5 -63.5l-66 33q63 135 158 135q35 0 71.5 -22.5t69 -45t58.5 -22.5t47.5 20.5t46.5 67.5l66 -31q-56 -143 -156 -143z" />
<glyph unicode="&#x2000;" horiz-adv-x="968" />
<glyph unicode="&#x2001;" horiz-adv-x="1937" />
<glyph unicode="&#x2002;" horiz-adv-x="968" />
<glyph unicode="&#x2003;" horiz-adv-x="1937" />
<glyph unicode="&#x2004;" horiz-adv-x="645" />
<glyph unicode="&#x2005;" horiz-adv-x="484" />
<glyph unicode="&#x2006;" horiz-adv-x="322" />
<glyph unicode="&#x2007;" horiz-adv-x="322" />
<glyph unicode="&#x2008;" horiz-adv-x="242" />
<glyph unicode="&#x2009;" horiz-adv-x="387" />
<glyph unicode="&#x200a;" horiz-adv-x="107" />
<glyph unicode="&#x2010;" horiz-adv-x="679" d="M115 592v98h452v-98h-452z" />
<glyph unicode="&#x2011;" horiz-adv-x="679" d="M115 592v98h452v-98h-452z" />
<glyph unicode="&#x2012;" horiz-adv-x="679" d="M115 592v98h452v-98h-452z" />
<glyph unicode="&#x2013;" horiz-adv-x="882" d="M70 592v98h745v-98h-745z" />
<glyph unicode="&#x2014;" horiz-adv-x="1327" d="M70 592v98h1190v-98h-1190z" />
<glyph unicode="&#x2018;" horiz-adv-x="393" d="M193 1085q-38 0 -60 24.5t-22 61.5q0 26 26 97l96 250h70l-67 -273q40 -24 40 -71q0 -38 -22.5 -63.5t-60.5 -25.5z" />
<glyph unicode="&#x2019;" horiz-adv-x="393" d="M201 1516q38 0 60 -24.5t22 -61.5q0 -23 -27 -97l-96 -250h-70l68 273q-41 24 -41 71q0 38 22.5 63.5t61.5 25.5z" />
<glyph unicode="&#x201a;" horiz-adv-x="393" d="M201 150q38 0 60 -25t22 -62q0 -23 -27 -96l-96 -250h-70l68 273q-41 24 -41 71q0 38 22.5 63.5t61.5 25.5z" />
<glyph unicode="&#x201c;" horiz-adv-x="704" d="M193 1085q-38 0 -60 24.5t-22 61.5q0 26 26 97l96 250h70l-67 -273q40 -24 40 -71q0 -38 -22.5 -63.5t-60.5 -25.5zM504 1085q-38 0 -60 24.5t-22 61.5q0 23 27 97l96 250h69l-67 -273q41 -24 41 -71q0 -38 -22.5 -63.5t-61.5 -25.5z" />
<glyph unicode="&#x201d;" horiz-adv-x="704" d="M201 1516q38 0 60 -24.5t22 -61.5q0 -23 -27 -97l-96 -250h-70l68 273q-41 24 -41 71q0 38 22.5 63.5t61.5 25.5zM512 1516q38 0 60 -24.5t22 -61.5q0 -23 -27 -97l-96 -250h-70l68 273q-41 24 -41 71q0 38 22.5 63.5t61.5 25.5z" />
<glyph unicode="&#x201e;" horiz-adv-x="704" d="M201 150q38 0 60 -25t22 -62q0 -23 -27 -96l-96 -250h-70l68 273q-41 24 -41 71q0 38 22.5 63.5t61.5 25.5zM512 150q38 0 60 -25t22 -62q0 -23 -27 -96l-96 -250h-70l68 273q-41 24 -41 71q0 38 22.5 63.5t61.5 25.5z" />
<glyph unicode="&#x2022;" horiz-adv-x="530" d="M264 856q65 0 105.5 -42t40.5 -105q0 -64 -40.5 -106t-105.5 -42q-62 0 -102.5 43t-40.5 105q0 63 40 105t103 42z" />
<glyph unicode="&#x2026;" horiz-adv-x="1144" d="M190 164q41 0 67 -27t26 -65t-26 -66.5t-67 -28.5q-40 0 -66 28.5t-26 66.5t26 65t66 27zM571 164q41 0 67 -27t26 -65t-26 -66.5t-67 -28.5q-40 0 -66 28.5t-26 66.5t26 65t66 27zM954 164q41 0 67 -27t26 -65t-26 -66.5t-67 -28.5q-40 0 -66 28.5t-26 66.5t26 65t66 27 z" />
<glyph unicode="&#x202f;" horiz-adv-x="387" />
<glyph unicode="&#x2039;" horiz-adv-x="610" d="M410 1063l71 -47l-237 -426l237 -428l-71 -45l-279 432v80z" />
<glyph unicode="&#x203a;" horiz-adv-x="610" d="M201 1063l280 -434v-80l-280 -432l-70 45l238 428l-238 426z" />
<glyph unicode="&#x205f;" horiz-adv-x="484" />
<glyph unicode="&#x20ac;" horiz-adv-x="962" d="M623 1286q-249 0 -306 -403h453l-20 -86h-439v-215h406l-17 -86h-387q21 -223 100 -320.5t214 -97.5q66 0 117.5 20.5t117.5 61.5v-103q-126 -80 -250 -80q-175 0 -281.5 127.5t-135.5 391.5h-140l21 86h114v215h-135l21 86h121q39 248 150.5 374.5t273.5 126.5 q155 0 286 -110l-45 -82q-66 52 -118.5 73t-120.5 21z" />
<glyph unicode="&#x2122;" horiz-adv-x="1460" d="M598 1403l-16 -86h-205v-703h-96v703h-215v86h532zM1288 1403l31 -789h-92l-15 402q-5 125 -2 282h-2l-178 -596h-82l-184 603h-2q2 -114 -4 -289l-15 -402h-88l31 789h127l176 -596l172 596h127z" />
<glyph unicode="&#x25fc;" horiz-adv-x="1075" d="M0 1075h1075v-1075h-1075v1075z" />
<glyph unicode="&#xfb03;" horiz-adv-x="1435" d="M774 1071h490v-1071h-115v977h-375v-977h-115v977h-364v-977h-115v977h-145v94h145v176q0 116 70.5 185t198.5 69q133 0 264 -61q70 82 211 82q132 0 256 -76l-41 -80q-108 57 -209 57q-81 0 -118.5 -36t-37.5 -127v-189zM659 1071v195q0 48 13 92q-102 47 -213 47 q-87 0 -125.5 -38t-38.5 -122v-174h364z" />
<glyph unicode="&#xfb04;" horiz-adv-x="1472" d="M1395 88l28 -82q-49 -29 -104 -29q-75 0 -120.5 48t-45.5 133v1226q-118 41 -215 41q-87 0 -125.5 -37.5t-38.5 -121.5v-195h223l-14 -94h-209v-977h-115v977h-364v-977h-115v977h-145v94h145v176q0 116 70.5 185t198.5 69q134 0 266 -63q71 84 213 84q106 0 229 -47 l111 14v-1327q0 -86 69 -86q30 0 58 12zM659 1071v197q0 46 13 90q-102 47 -213 47q-87 0 -125.5 -38t-38.5 -122v-174h364z" />
</font>
</defs>
</svg>
