<?xml version="1.0" standalone="no"?>
<!DOCTYPE svg PUBLIC "-//W3C//DTD SVG 1.1//EN" "http://www.w3.org/Graphics/SVG/1.1/DTD/svg11.dtd" >
<svg xmlns="http://www.w3.org/2000/svg" xmlns:xlink="http://www.w3.org/1999/xlink" version="1.1">
<metadata></metadata>
<defs>
<font id="fira_sans_compressedmedium" horiz-adv-x="1183" >
<font-face units-per-em="2048" ascent="1638" descent="-410" />
<missing-glyph horiz-adv-x="403" />
<glyph unicode="&#xfb01;" horiz-adv-x="1013" d="M510 1544q164 0 295 -78l-72 -159q-95 45 -196 45q-72 0 -103 -31.5t-31 -101.5v-136h494v-1083h-252v901h-242v-901h-251v901h-138v182h138v142q0 66 20.5 122t62.5 101t112.5 70.5t162.5 25.5z" />
<glyph unicode="&#xfb02;" horiz-adv-x="1069" d="M1010 180l49 -172q-72 -39 -154 -39q-112 0 -176.5 68t-64.5 184v1114q-77 21 -136 21q-70 0 -97.5 -30t-27.5 -101v-142h175l-29 -182h-146v-901h-251v901h-138v182h138v144q0 140 86.5 228.5t250.5 88.5q104 0 199 -37l227 25v-1301q0 -59 52 -59q3 0 43 8z" />
<glyph horiz-adv-x="0" />
<glyph horiz-adv-x="682" />
<glyph unicode="&#xd;" horiz-adv-x="403" />
<glyph unicode=" "  horiz-adv-x="403" />
<glyph unicode="&#x09;" horiz-adv-x="403" />
<glyph unicode="&#xa0;" horiz-adv-x="403" />
<glyph unicode="!" horiz-adv-x="450" d="M358 1415l-34 -919h-199l-35 919h268zM225 289q68 0 112 -47.5t44 -112.5t-44 -112.5t-112 -47.5t-111.5 47.5t-43.5 112.5t43.5 112.5t111.5 47.5z" />
<glyph unicode="&#x22;" horiz-adv-x="808" d="M125 862l-29 553h223l-28 -553h-166zM518 862l-29 553h224l-29 -553h-166z" />
<glyph unicode="#" horiz-adv-x="925" d="M901 909h-115l-55 -420h109v-172h-131l-41 -317h-201l41 317h-193l-41 -317h-198l41 317h-92v172h114l56 420h-109v174h131l39 295h201l-39 -295h192l39 295h199l-39 -295h92v-174zM532 489l56 420h-193l-55 -420h192z" />
<glyph unicode="$" horiz-adv-x="919" d="M872 395q0 -148 -83 -257.5t-228 -145.5v-314h-182v302q-216 16 -365 182l125 137q139 -129 281 -129q94 0 145 57t51 154q0 84 -47 137.5t-168 102.5q-182 72 -262 165.5t-80 237.5q0 140 90 241t230 126v301h182v-301q157 -25 281 -158l-117 -135q-119 110 -244 110 q-77 0 -121.5 -45.5t-44.5 -120.5t48 -123.5t180 -101.5q83 -34 139 -68.5t101.5 -83.5t67 -115.5t21.5 -154.5z" />
<glyph unicode="%" horiz-adv-x="1464" d="M1047 1464l155 -88l-782 -1448l-154 88zM362 1403q130 0 212.5 -93.5t82.5 -262.5q0 -171 -82.5 -265t-212.5 -94t-212 92.5t-82 263.5t82 265t212 94zM362 1247q-63 0 -87.5 -50t-24.5 -153q0 -101 24.5 -151.5t87.5 -50.5q62 0 86.5 50.5t24.5 154.5q0 100 -25 150 t-86 50zM1102 684q130 0 212.5 -93t82.5 -265q0 -170 -82 -263.5t-213 -93.5q-129 0 -212 94t-83 263q0 172 82.5 265t212.5 93zM1102 528q-64 0 -89.5 -49.5t-25.5 -152.5q0 -101 26 -151t89 -50t86.5 49t23.5 152q0 104 -23.5 153t-86.5 49z" />
<glyph unicode="&#x26;" horiz-adv-x="1277" d="M532 1444q165 0 261 -89.5t96 -234.5q0 -81 -31.5 -151t-79.5 -121t-123 -107l250 -303q53 154 84 314l203 -52q-61 -228 -152 -395l203 -217l-203 -119l-145 181q-159 -181 -377 -181q-179 0 -291 109t-112 282q0 124 56.5 216.5t178.5 185.5q-94 98 -131 175.5 t-37 178.5q0 143 90.5 235.5t259.5 92.5zM537 1276q-115 0 -115 -160q0 -71 22.5 -124t79.5 -126q67 64 96 117t29 131q0 162 -112 162zM487 625q-59 -54 -84.5 -113.5t-25.5 -142.5q0 -103 49 -158t133 -55q121 0 213 118z" />
<glyph unicode="'" horiz-adv-x="415" d="M125 862l-29 553h223l-28 -553h-166z" />
<glyph unicode="(" horiz-adv-x="561" d="M360 1743l162 -107q-84 -146 -131.5 -266t-74.5 -281.5t-27 -371.5q0 -305 54 -503.5t179 -416.5l-162 -106q-75 117 -123.5 207.5t-99 218.5t-75.5 277.5t-25 322.5t25 322.5t75.5 277.5t99 218.5t123.5 207.5z" />
<glyph unicode=")" horiz-adv-x="561" d="M199 1743q62 -100 99.5 -166.5t85.5 -171t74 -198.5t45 -222t19 -268t-19 -268t-45 -222t-74 -198.5t-85.5 -171t-99.5 -166.5l-162 106q125 217 179 417.5t54 502.5t-54 502t-179 417z" />
<glyph unicode="*" horiz-adv-x="792" d="M756 1124l-238 -57l180 -227l-184 -111l-117 256l-116 -256l-183 109l178 229l-239 57l67 187l222 -113l-37 320h215l-35 -320l219 115z" />
<glyph unicode="+" horiz-adv-x="884" d="M547 1085v-307h256v-200h-256v-304h-207v304h-256v200h256v307h207z" />
<glyph unicode="," horiz-adv-x="428" d="M215 289q65 0 107.5 -44.5t42.5 -111.5q0 -9 -1 -18t-2.5 -17t-4.5 -20t-5.5 -19.5t-8 -23t-8.5 -24t-10.5 -29t-11.5 -31.5l-108 -301h-142l74 346q-74 54 -74 135q0 68 43 113t109 45z" />
<glyph unicode="-" horiz-adv-x="704" d="M88 541v200h528v-200h-528z" />
<glyph unicode="." horiz-adv-x="440" d="M219 289q70 0 113 -47t43 -113t-43 -113t-113 -47q-68 0 -112 47.5t-44 112.5t44 112.5t112 47.5z" />
<glyph unicode="/" horiz-adv-x="874" d="M535 1661l208 -45l-403 -1835l-211 45z" />
<glyph unicode="0" horiz-adv-x="1028" d="M516 1403q206 0 313 -179t107 -536q0 -719 -420 -719q-424 0 -424 719q0 715 424 715zM516 1212q-60 0 -95 -44.5t-53 -160t-18 -319.5q0 -207 18 -322.5t53 -159.5t95 -44q59 0 93 44t51.5 159.5t17.5 322.5q0 206 -17.5 321t-51.5 159t-93 44z" />
<glyph unicode="1" horiz-adv-x="770" d="M621 1376v-1376h-246v1124l-246 -180l-113 160l379 272h226z" />
<glyph unicode="2" horiz-adv-x="845" d="M381 1403q182 0 284.5 -106t102.5 -269q0 -171 -93.5 -335t-369.5 -492h488l-27 -201h-729v186q203 253 297.5 389t135 235.5t40.5 203.5q0 93 -41 141.5t-113 48.5q-60 0 -105 -32t-101 -105l-150 113q146 223 381 223z" />
<glyph unicode="3" horiz-adv-x="870" d="M397 1403q169 0 272 -102t103 -248q0 -254 -258 -324q138 -18 216.5 -101t78.5 -235q0 -114 -49 -209.5t-148 -155t-229 -59.5q-121 0 -213.5 49t-173.5 148l143 123q61 -66 112 -94.5t116 -28.5q85 0 135.5 61t50.5 176q0 122 -54 175t-161 53h-82l29 176h53 q89 0 141.5 56.5t52.5 162.5q0 91 -44.5 138.5t-122.5 47.5q-114 0 -215 -110l-130 127q165 174 377 174z" />
<glyph unicode="4" horiz-adv-x="942" d="M905 512v-193h-129v-319h-237v319h-492v175l326 913l213 -78l-285 -817h240l28 350h207v-350h129z" />
<glyph unicode="5" horiz-adv-x="901" d="M791 1378l-31 -188h-418v-352q81 51 174 51q144 0 234 -115.5t90 -324.5q0 -215 -120 -347.5t-319 -132.5q-121 0 -209.5 49.5t-162.5 143.5l141 127q53 -63 103.5 -93t117.5 -30q92 0 142.5 71.5t50.5 211.5q0 145 -42.5 203.5t-121.5 58.5q-68 0 -144 -49h-172v716h687 z" />
<glyph unicode="6" horiz-adv-x="978" d="M602 915q138 0 229 -117t91 -329q0 -233 -108.5 -366.5t-295.5 -133.5q-426 0 -426 666q0 356 131 562t357 206q144 0 254 -88l-93 -152q-77 54 -153 54q-102 0 -166 -115t-74 -336q92 149 254 149zM516 158q153 0 156 307q0 149 -35.5 210.5t-101.5 61.5 q-102 0 -187 -153q3 -236 41 -331t127 -95z" />
<glyph unicode="7" horiz-adv-x="782" d="M750 1378v-178l-418 -1227l-226 72l394 1137h-475v196h725z" />
<glyph unicode="8" horiz-adv-x="970" d="M668 739q131 -67 190.5 -156.5t59.5 -213.5q0 -180 -117.5 -290t-321.5 -110q-198 0 -312 109.5t-114 286.5q0 125 57.5 210t174.5 142q-101 63 -144 140.5t-43 182.5q0 169 107 266t276 97q173 0 282 -92t109 -260q0 -99 -48 -175.5t-156 -136.5zM485 1227 q-72 0 -109.5 -43.5t-37.5 -147.5q0 -84 34.5 -131.5t116.5 -89.5l31 -14q64 51 88.5 105.5t24.5 131.5q0 99 -37 144t-111 45zM487 156q183 0 183 213q0 98 -41.5 152t-151.5 106l-47 20q-129 -88 -129 -274q0 -115 47.5 -166t138.5 -51z" />
<glyph unicode="9" horiz-adv-x="954" d="M465 1403q204 0 311 -141t107 -396q0 -169 -27.5 -299.5t-80 -228.5t-138.5 -171.5t-194 -125t-255 -92.5l-53 180q150 47 246 106.5t157 154.5t80 231q-97 -132 -237 -132q-135 0 -232.5 123.5t-97.5 323.5q0 222 116.5 344.5t297.5 122.5zM453 672q103 0 174 139 q0 232 -35.5 321t-124.5 89q-164 0 -164 -281q0 -136 41 -202t109 -66z" />
<glyph unicode=":" horiz-adv-x="440" d="M219 1018q70 0 113 -47t43 -113t-43 -113t-113 -47q-68 0 -112 47.5t-44 112.5t44 112.5t112 47.5zM219 289q70 0 113 -47t43 -113t-43 -113t-113 -47q-68 0 -112 47.5t-44 112.5t44 112.5t112 47.5z" />
<glyph unicode=";" horiz-adv-x="440" d="M219 1018q70 0 113 -47t43 -113t-43 -113t-113 -47q-68 0 -112 47.5t-44 112.5t44 112.5t112 47.5zM215 289q65 0 107.5 -44.5t42.5 -111.5q0 -9 -1 -18t-2.5 -17t-4.5 -20t-5.5 -19.5t-8 -23t-8.5 -24t-10.5 -29t-11.5 -31.5l-108 -301h-142l74 346q-74 54 -74 135 q0 68 43 113t109 45z" />
<glyph unicode="&#x3c;" horiz-adv-x="868" d="M723 1141l88 -176l-553 -283l553 -279l-88 -180l-666 346v226z" />
<glyph unicode="=" horiz-adv-x="866" d="M84 786v195h698v-195h-698zM84 375v194h698v-194h-698z" />
<glyph unicode="&#x3e;" horiz-adv-x="868" d="M145 1141l666 -346v-226l-666 -346l-88 180l553 279l-553 283z" />
<glyph unicode="?" horiz-adv-x="827" d="M424 1444q172 0 268 -96.5t96 -231.5q0 -63 -16.5 -114.5t-43.5 -86t-59 -64.5t-64.5 -58t-59.5 -58t-43.5 -73t-16.5 -95v-71h-231v84q0 80 20.5 142t51.5 97.5t67 69t67 59.5t51.5 67t20.5 93q0 65 -35.5 100t-99.5 35q-108 0 -207 -125l-151 117q146 209 385 209z M373 289q68 0 111.5 -47.5t43.5 -112.5t-43.5 -112.5t-111.5 -47.5t-112 47.5t-44 112.5t44 112.5t112 47.5z" />
<glyph unicode="@" horiz-adv-x="1734" d="M893 1018q157 0 291 -88v-516q0 -132 19 -182t65 -50q67 0 106 108.5t39 342.5q0 299 -129.5 460.5t-388.5 161.5q-270 0 -420.5 -206t-150.5 -555q0 -364 147 -556t426 -192q170 0 328 70l61 -176q-187 -84 -391 -84q-369 0 -584 250t-215 688q0 275 102 492t284 337.5 t413 120.5q141 0 261 -41t208 -114.5t150 -174.5t93 -222t31 -255q0 -177 -45 -318.5t-128 -223t-189 -81.5q-90 0 -146 57.5t-73 137.5q-35 -84 -95.5 -137.5t-148.5 -53.5q-149 0 -227 120t-78 337q0 264 101.5 403.5t283.5 139.5zM846 184q68 0 125 97v559q-44 14 -84 14 q-78 0 -115 -85.5t-37 -293.5q0 -163 26 -227t85 -64z" />
<glyph unicode="A" horiz-adv-x="1017" d="M758 0l-70 332h-364l-68 -332h-260l356 1415h316l354 -1415h-264zM365 528h284l-143 689z" />
<glyph unicode="B" horiz-adv-x="1040" d="M698 750q65 -15 115 -38.5t92.5 -63t65 -100.5t22.5 -142q0 -139 -66.5 -231.5t-179 -133.5t-268.5 -41h-356v1415h309q244 0 377 -91.5t133 -268.5q0 -119 -66.5 -196.5t-177.5 -108.5zM459 1223h-76v-392h88q207 0 207 201q0 100 -52.5 145.5t-166.5 45.5zM481 197 q119 0 180.5 50.5t61.5 168.5q0 120 -57 175.5t-179 55.5h-104v-450h98z" />
<glyph unicode="C" horiz-adv-x="974" d="M594 1444q108 0 191 -36.5t161 -109.5l-125 -149q-107 96 -213 96q-60 0 -105.5 -26.5t-82 -86.5t-55.5 -166t-19 -255q0 -284 69 -408.5t197 -124.5q45 0 88 17.5t68 35t66 52.5l124 -144q-151 -170 -364 -170q-116 0 -210.5 45t-164.5 134.5t-108.5 233t-38.5 329.5 q0 184 40 326t111 230t164.5 132.5t206.5 44.5z" />
<glyph unicode="D" horiz-adv-x="1110" d="M438 1415q72 0 131.5 -7t123 -27t112.5 -52.5t94 -86.5t74.5 -126t47 -173.5t17.5 -227.5q0 -168 -32 -296.5t-84 -206.5t-128.5 -127t-155 -67t-173.5 -18h-342v1415h315zM477 1221h-94v-1026h96q53 0 94 12.5t79 47t62.5 91.5t39 150t14.5 219q0 128 -15.5 220.5 t-40.5 147t-64 86t-78.5 42t-92.5 10.5z" />
<glyph unicode="E" horiz-adv-x="886" d="M825 1415l-26 -194h-416v-406h362v-192h-362v-426h442v-197h-702v1415h702z" />
<glyph unicode="F" horiz-adv-x="825" d="M123 0v1415h684l-29 -194h-395v-433h344v-194h-344v-594h-260z" />
<glyph unicode="G" horiz-adv-x="1101" d="M625 1444q216 0 383 -164l-131 -135q-64 54 -119 78t-125 24q-65 0 -115 -25t-90.5 -84t-62 -167t-21.5 -262q0 -209 29 -329t82 -165t141 -45q92 0 168 51v383h-160l-26 195h434v-693q-88 -63 -196 -99t-218 -36q-264 0 -395 179t-131 559q0 149 28.5 271t79 207.5 t120 144t151.5 85.5t174 27z" />
<glyph unicode="H" horiz-adv-x="1132" d="M750 0v635h-367v-635h-260v1415h260v-571h367v571h262v-1415h-262z" />
<glyph unicode="I" horiz-adv-x="505" d="M383 1415v-1415h-260v1415h260z" />
<glyph unicode="J" horiz-adv-x="534" d="M418 1415v-1210q0 -94 -20 -170.5t-52 -129t-81.5 -95.5t-99 -69.5t-114.5 -51.5l-69 184q110 55 142 123t32 219v1200h262z" />
<glyph unicode="K" horiz-adv-x="1062" d="M383 1415v-1415h-260v1415h260zM1047 1415l-385 -641l415 -774h-286l-398 756l389 659h265z" />
<glyph unicode="L" horiz-adv-x="854" d="M383 1415v-1200h457l-29 -215h-688v1415h260z" />
<glyph unicode="M" horiz-adv-x="1359" d="M1190 1415l90 -1415h-248l-24 598q-16 406 -11 573l-194 -1015h-246l-203 1018q8 -237 -6 -584l-22 -590h-244l90 1415h328l184 -997l172 997h334z" />
<glyph unicode="N" horiz-adv-x="1130" d="M1008 1415v-1415h-332l-359 1159q35 -323 35 -565v-594h-229v1415h330l358 -1159q-35 205 -35 483v676h232z" />
<glyph unicode="O" d="M592 1444q249 0 384.5 -182t135.5 -553q0 -367 -135.5 -553.5t-384.5 -186.5t-384.5 184t-135.5 554q0 365 136 551t384 186zM592 1247q-125 0 -185.5 -124t-60.5 -416q0 -199 29.5 -319.5t82 -169t134.5 -48.5q85 0 138 49t81.5 169t28.5 321q0 196 -29 316.5t-82 171 t-137 50.5z" />
<glyph unicode="P" horiz-adv-x="1001" d="M446 1415q257 0 391 -113.5t134 -334.5q0 -236 -132 -352.5t-374 -116.5h-82v-498h-260v1415h323zM451 692q132 0 191.5 61.5t59.5 211.5q0 134 -59 196t-190 62h-70v-531h68z" />
<glyph unicode="Q" d="M827 86q115 -3 199.5 -38t159.5 -105l-164 -199q-88 117 -189.5 175t-254.5 58q-236 0 -371 185t-135 545q0 363 136.5 550t383.5 187q248 0 384 -184.5t136 -550.5q0 -133 -21.5 -237.5t-62.5 -177t-89 -121t-112 -87.5zM346 707q0 -199 29.5 -319.5t82 -169 t134.5 -48.5q85 0 138 49t81.5 169t28.5 321q0 198 -29 318.5t-82 170t-137 49.5q-83 0 -135.5 -49.5t-81.5 -170.5t-29 -320z" />
<glyph unicode="R" horiz-adv-x="1046" d="M1038 0h-280l-250 571h-25h-100v-571h-260v1415h334q512 0 512 -416q0 -129 -57.5 -227t-172.5 -151zM469 760q122 0 175.5 57.5t53.5 181.5q0 117 -56 171.5t-185 54.5h-74v-465h86z" />
<glyph unicode="S" horiz-adv-x="952" d="M481 1444q233 0 391 -172l-120 -139q-123 114 -252 114q-77 0 -122.5 -48t-45.5 -126q0 -77 47.5 -126t183.5 -103q86 -36 144.5 -72t105.5 -87t69.5 -120.5t22.5 -161.5q0 -187 -123.5 -310.5t-330.5 -123.5q-259 0 -437 193l131 143q73 -66 141.5 -100.5t147.5 -34.5 q95 0 147 58.5t52 158.5q0 89 -46.5 144.5t-170.5 103.5q-188 75 -271.5 173t-83.5 247q0 170 119 279.5t301 109.5z" />
<glyph unicode="T" horiz-adv-x="901" d="M899 1415l-29 -205h-290v-1210h-261v1210h-303v205h883z" />
<glyph unicode="U" horiz-adv-x="1099" d="M997 1415v-1018q0 -90 -28 -167t-82.5 -135t-140.5 -91t-195 -33q-219 0 -334 117.5t-115 308.5v1018h260v-1005q0 -119 45.5 -177.5t143.5 -58.5q97 0 141.5 58.5t44.5 177.5v1005h260z" />
<glyph unicode="V" horiz-adv-x="985" d="M989 1415l-327 -1415h-326l-340 1415h264l242 -1186l231 1186h256z" />
<glyph unicode="W" horiz-adv-x="1437" d="M1409 1415l-199 -1415h-342l-151 1139l-158 -1139h-336l-194 1415h252l131 -1206l170 1206h276l166 -1206l143 1206h242z" />
<glyph unicode="X" horiz-adv-x="964" d="M633 764l338 -764h-275l-221 590l-213 -590h-268l328 754l-304 661h275l186 -500l197 500h264z" />
<glyph unicode="Y" horiz-adv-x="987" d="M997 1415l-372 -876v-539h-263v537l-372 878h276l232 -665l233 665h266z" />
<glyph unicode="Z" horiz-adv-x="901" d="M854 1415v-203l-541 -999h547l-24 -213h-805v201l542 1005h-489v209h770z" />
<glyph unicode="[" horiz-adv-x="548" d="M498 1677v-194h-193v-1536h193v-191h-430v1921h430z" />
<glyph unicode="\" horiz-adv-x="874" d="M340 1657l403 -1831l-208 -45l-406 1831z" />
<glyph unicode="]" horiz-adv-x="548" d="M481 1677v-1921h-432v193h195v1536h-195v192h432z" />
<glyph unicode="^" horiz-adv-x="940" d="M584 1722l317 -643h-250l-184 445l-178 -445h-250l315 643h230z" />
<glyph unicode="_" horiz-adv-x="882" d="M25 -317v202h835v-202h-835z" />
<glyph unicode="`" horiz-adv-x="583" d="M174 1663l358 -248l-69 -123l-391 185z" />
<glyph unicode="a" horiz-adv-x="929" d="M809 262q0 -54 14 -79.5t47 -41.5l-51 -168q-83 9 -134 44.5t-75 107.5q-96 -156 -264 -156q-136 0 -215.5 91t-79.5 243q0 175 109 268t319 93h84v75q0 102 -35.5 144.5t-115.5 42.5q-96 0 -240 -54l-57 164q172 76 338 76q356 0 356 -360v-490zM414 152q98 0 149 135 v227h-59q-104 0 -152.5 -46.5t-48.5 -145.5q0 -170 111 -170z" />
<glyph unicode="b" horiz-adv-x="1011" d="M614 1112q158 0 242 -143t84 -426q0 -267 -94.5 -420.5t-257.5 -153.5q-71 0 -131.5 35.5t-102.5 99.5l-14 -104h-223v1516l252 26v-575q89 145 245 145zM520 160q77 0 118.5 86.5t41.5 296.5q0 114 -10.5 191t-31 117.5t-45 56.5t-58.5 16q-91 0 -166 -142v-508 q28 -52 67 -83t84 -31z" />
<glyph unicode="c" horiz-adv-x="811" d="M506 1112q171 0 297 -123l-109 -143q-87 72 -172 72q-92 0 -139 -87t-47 -294q0 -138 24.5 -221t63.5 -113.5t98 -30.5q44 0 81.5 16.5t86.5 51.5l113 -146q-132 -125 -293 -125q-209 0 -324.5 142t-115.5 421q0 272 118 426t318 154z" />
<glyph unicode="d" horiz-adv-x="1015" d="M647 1544l252 -26v-1518h-223l-12 125q-95 -156 -248 -156q-167 0 -256.5 150.5t-89.5 421.5q0 260 100.5 415.5t261.5 155.5q131 0 215 -108v540zM487 160q87 0 160 127v526q-65 111 -149 111q-166 0 -166 -381q0 -141 20 -228t53.5 -121t81.5 -34z" />
<glyph unicode="e" horiz-adv-x="948" d="M889 567q0 -17 -6 -104h-559q9 -169 58.5 -235t141.5 -66q63 0 115 21.5t111 68.5l104 -143q-143 -140 -344 -140q-213 0 -326.5 147t-113.5 416t108 424.5t307 155.5q191 0 297.5 -138t106.5 -407zM643 627v14q0 155 -36.5 225t-119.5 70q-75 0 -115.5 -68.5 t-47.5 -240.5h319z" />
<glyph unicode="f" horiz-adv-x="606" d="M514 1354q-113 0 -113 -125v-146h207l-28 -182h-179v-901h-251v901h-136v182h136v138q0 147 85.5 235t245.5 88q127 0 242 -61l-70 -164q-71 35 -139 35z" />
<glyph unicode="g" horiz-adv-x="911" d="M852 1223l63 -195q-75 -37 -253 -37q169 -82 169 -278q0 -163 -100.5 -264t-271.5 -101q-49 0 -105 17q-37 -29 -37 -84q0 -40 23 -61t84 -21h115q165 0 260.5 -85t95.5 -216q0 -155 -119.5 -248.5t-341.5 -93.5q-121 0 -204.5 23.5t-130 69.5t-66 105t-19.5 140h224 q0 -88 41 -125t157 -37q113 0 160 38.5t47 110.5q0 69 -39 102t-121 33h-77q-156 0 -228 55.5t-72 151.5q0 109 111 195q-84 53 -123 126.5t-39 180.5q0 179 108 283t290 102q92 0 170.5 18t121.5 38t107 57zM449 942q-72 0 -109 -51t-37 -162q0 -104 37 -160.5t106 -56.5 q72 0 107 50t35 169q0 109 -34 160t-105 51z" />
<glyph unicode="h" horiz-adv-x="985" d="M623 1112q116 0 183.5 -83.5t67.5 -225.5v-803h-251v774q0 146 -84 146q-86 0 -170 -162v-758h-252v1516l252 26v-588q52 80 112 119t142 39z" />
<glyph unicode="i" horiz-adv-x="485" d="M242 1624q68 0 109.5 -43.5t41.5 -110.5q0 -66 -41.5 -108.5t-109.5 -42.5q-67 0 -109.5 43t-42.5 108q0 67 42.5 110.5t109.5 43.5zM369 1083v-1083h-252v1083h252z" />
<glyph unicode="j" horiz-adv-x="485" d="M242 1624q68 0 109.5 -43.5t41.5 -110.5q0 -66 -41.5 -108.5t-109.5 -42.5q-67 0 -109.5 43t-42.5 108q0 67 42.5 110.5t109.5 43.5zM369 1083v-1032q0 -84 -17.5 -152.5t-46 -117.5t-75 -91t-94.5 -71t-116 -61l-86 180q49 29 78 52t55.5 58.5t38 84t11.5 116.5v1034 h252z" />
<glyph unicode="k" horiz-adv-x="927" d="M369 1544v-1544h-252v1518zM915 1083l-286 -479l311 -604h-270l-291 592l291 491h245z" />
<glyph unicode="l" horiz-adv-x="509" d="M346 -31q-110 0 -175 68t-65 184v1297l252 26v-1313q0 -27 13 -43t37 -16q5 0 45 8l49 -172q-72 -39 -156 -39z" />
<glyph unicode="m" horiz-adv-x="1433" d="M1085 1112q109 0 174.5 -84t65.5 -225v-803h-248v776q0 146 -80 146q-79 0 -153 -152v-770h-246v776q0 146 -78 146q-84 0 -155 -152v-770h-248v1083h219l16 -139q109 168 256 168q76 0 131.5 -46.5t83.5 -133.5q109 180 262 180z" />
<glyph unicode="n" horiz-adv-x="985" d="M623 1112q116 0 183.5 -83.5t67.5 -225.5v-803h-251v774q0 146 -84 146q-86 0 -170 -162v-758h-252v1083h219l18 -141q56 85 118.5 127.5t150.5 42.5z" />
<glyph unicode="o" horiz-adv-x="1003" d="M502 1112q206 0 319 -143t113 -426q0 -269 -115 -421.5t-317 -152.5q-203 0 -317.5 148.5t-114.5 425.5q0 275 114 422t318 147zM502 922q-87 0 -128.5 -87t-41.5 -292q0 -208 41 -294.5t129 -86.5q87 0 128.5 87t41.5 294q0 206 -41 292.5t-129 86.5z" />
<glyph unicode="p" horiz-adv-x="1011" d="M616 1112q159 0 241.5 -146t82.5 -421q0 -267 -93.5 -421.5t-258.5 -154.5q-131 0 -219 117v-502l-252 -28v1527h223l10 -131q54 82 118.5 121t147.5 39zM520 162q160 0 160 381q0 212 -35 296.5t-108 84.5q-95 0 -168 -136v-524q66 -102 151 -102z" />
<glyph unicode="q" horiz-adv-x="1015" d="M680 1083h219v-1527l-252 28v525q-87 -140 -233 -140q-163 0 -253.5 149.5t-90.5 422.5q0 263 100 417t264 154q143 0 234 -131zM485 160q92 0 162 131v520q-69 113 -151 113q-74 0 -119 -90.5t-45 -290.5q0 -212 40 -297.5t113 -85.5z" />
<glyph unicode="r" horiz-adv-x="677" d="M594 1110q46 0 84 -14l-41 -242q-42 10 -76 10q-78 0 -122.5 -67.5t-69.5 -200.5v-596h-252v1083h219l18 -188q75 215 240 215z" />
<glyph unicode="s" horiz-adv-x="815" d="M418 1112q192 0 325 -127l-96 -137q-116 82 -213 82q-59 0 -93 -32t-34 -87q0 -56 38.5 -90t152.5 -78q141 -56 208.5 -132t67.5 -202q0 -158 -110.5 -249t-280.5 -91q-218 0 -367 152l123 135q115 -100 234 -100q67 0 106 35.5t39 99.5q0 68 -39 106t-157 82 q-141 55 -202 129.5t-61 188.5q0 137 97.5 226t261.5 89z" />
<glyph unicode="t" horiz-adv-x="649" d="M573 205l89 -156q-103 -80 -236 -80q-142 0 -215.5 81.5t-73.5 219.5v631h-127v182h127v240l252 31v-271h205l-25 -182h-180v-631q0 -98 84 -98q39 0 100 33z" />
<glyph unicode="u" horiz-adv-x="976" d="M860 1083v-1083h-219l-12 137q-52 -83 -114.5 -125.5t-147.5 -42.5q-118 0 -187 83.5t-69 219.5v811h251v-796q0 -127 87 -127q49 0 87 38t72 107v778h252z" />
<glyph unicode="v" horiz-adv-x="874" d="M872 1083l-282 -1083h-297l-291 1083h260l178 -880l185 880h247z" />
<glyph unicode="w" horiz-adv-x="1280" d="M1253 1083l-186 -1083h-307l-121 854l-119 -854h-305l-190 1083h243l111 -895l137 895h256l131 -895l117 895h233z" />
<glyph unicode="x" horiz-adv-x="868" d="M582 580l292 -580h-266l-180 436l-176 -436h-260l293 571l-265 512h263l149 -376l146 376h253z" />
<glyph unicode="y" horiz-adv-x="882" d="M881 1083l-287 -1087q-53 -196 -172 -308t-318 -132l-28 178q130 26 194 85t101 181h-95l-274 1083h256l180 -915l193 915h250z" />
<glyph unicode="z" horiz-adv-x="768" d="M729 1083v-182l-432 -702h440l-22 -199h-688v182l432 703h-396v198h666z" />
<glyph unicode="{" horiz-adv-x="544" d="M500 1714v-178q-76 0 -105.5 -28.5t-29.5 -102.5v-440q0 -119 -39 -171.5t-131 -78.5q91 -25 131.5 -77t40.5 -169v-440q0 -75 28.5 -103t104.5 -28v-179q-106 0 -177 19t-111.5 60.5t-57.5 98.5t-17 140v424q0 84 -23.5 117.5t-88.5 33.5v207q64 0 88 35t24 119v424 q0 113 30.5 179.5t111 102t221.5 35.5z" />
<glyph unicode="|" horiz-adv-x="636" d="M436 1657v-1870h-235v1870h235z" />
<glyph unicode="}" horiz-adv-x="544" d="M45 1714q142 0 222.5 -35.5t111.5 -102.5t31 -179v-424q0 -84 23.5 -119t86.5 -35v-207q-63 0 -86.5 -33.5t-23.5 -117.5v-424q0 -83 -17 -140t-58 -98.5t-112 -60.5t-178 -19v179q77 0 106 28t29 103v440q0 80 20 129.5t55 74t97 42.5q-94 28 -133 79.5t-39 170.5v440 q0 73 -29 102t-102 29z" />
<glyph unicode="~" horiz-adv-x="870" d="M578 502q-47 0 -92 18.5t-73.5 41t-63 41t-62.5 18.5q-19 0 -35.5 -8t-33 -27t-24.5 -30.5t-26 -39.5l-129 70q103 219 260 219q45 0 88.5 -18.5t71.5 -40t62 -40t61 -18.5q36 0 62 23.5t56 70.5l131 -67q-100 -213 -253 -213z" />
<glyph unicode="&#xa1;" horiz-adv-x="450" d="M225 1026q68 0 112 -47.5t44 -112.5t-43.5 -112t-112.5 -47q-68 0 -111.5 47t-43.5 112t43.5 112.5t111.5 47.5zM326 500l34 -922h-266l33 922h199z" />
<glyph unicode="&#xa2;" horiz-adv-x="811" d="M690 240l113 -146q-102 -99 -228 -119v-299h-182v306q-156 38 -239.5 175.5t-83.5 374.5q0 232 86.5 379.5t238.5 186.5v311h180v-301q130 -21 228 -119l-109 -143q-87 72 -172 72q-92 0 -139 -87t-47 -294q0 -138 24.5 -221t63.5 -113.5t98 -30.5q44 0 81.5 16.5 t86.5 51.5z" />
<glyph unicode="&#xa3;" horiz-adv-x="909" d="M436 455q0 -101 -25.5 -157.5t-103.5 -98.5h541l-29 -199h-770v188q90 35 114.5 85t24.5 171v205h-112v144h112v227q0 168 95 275.5t262 107.5q210 0 334 -186l-150 -111q-39 55 -75.5 79.5t-82.5 24.5q-135 0 -135 -186v-231h316v-144h-316v-194z" />
<glyph unicode="&#xa4;" horiz-adv-x="942" d="M926 276l-131 -104l-125 156q-86 -62 -203 -62q-110 0 -197 62l-127 -156l-123 109l144 170q-58 107 -58 247q0 137 56 246l-148 178l133 107l125 -158q83 59 195 59q118 0 201 -59l131 158l123 -111l-146 -168q60 -108 60 -252q0 -134 -56 -243zM469 440q85 0 125.5 62 t40.5 198t-41 198.5t-125 62.5t-126 -63t-42 -198t42 -197.5t126 -62.5z" />
<glyph unicode="&#xa5;" horiz-adv-x="946" d="M956 1378l-307 -665h174v-146h-223v-166h223v-143h-223v-258h-252v258h-221v143h221v166h-221v146h170l-307 665h256l231 -594l232 594h247z" />
<glyph unicode="&#xa6;" horiz-adv-x="636" d="M436 1657v-750h-235v750h235zM436 537v-750h-235v750h235z" />
<glyph unicode="&#xa7;" horiz-adv-x="921" d="M692 362q99 -80 99 -204q0 -142 -101 -229t-260 -87q-188 0 -324 107l89 147q101 -71 221 -71q64 0 100.5 30.5t36.5 89.5q0 58 -37.5 92t-165.5 85q-137 53 -197.5 117.5t-60.5 181.5q0 154 139 251q-96 80 -96 218t98.5 224.5t255.5 86.5q182 0 320 -115l-90 -141 q-104 74 -209 74q-67 0 -102 -31.5t-35 -89.5q0 -61 36.5 -96.5t161.5 -86.5q132 -54 195 -118.5t63 -173.5q0 -162 -137 -261zM463 485q65 -28 100 -45q49 65 49 142q0 62 -35.5 98.5t-136.5 79.5q-53 21 -86 39q-43 -64 -43 -135q0 -68 31 -105.5t121 -73.5z" />
<glyph unicode="&#xa8;" horiz-adv-x="772" d="M207 1602q58 0 95.5 -40t37.5 -98q0 -59 -37.5 -98t-95.5 -39t-95.5 39t-37.5 98q0 58 37.5 98t95.5 40zM590 1602q58 0 95.5 -40t37.5 -98q0 -59 -37.5 -98t-95.5 -39q-57 0 -95 39t-38 98q0 58 38 98t95 40z" />
<glyph unicode="&#xa9;" horiz-adv-x="1359" d="M682 1550q117 0 219.5 -47t177.5 -131t118.5 -209.5t43.5 -275.5q0 -149 -43.5 -274t-118.5 -209t-177.5 -130.5t-219.5 -46.5t-220 46.5t-179 130.5t-120 209t-44 274q0 150 44 275.5t120 209.5t179 131t220 47zM682 1415q-185 0 -300.5 -141t-115.5 -387 q0 -245 116 -386t300 -141q182 0 298 141t116 386q0 246 -116 387t-298 141zM692 1284q117 0 209 -92l-76 -102q-68 47 -125 47q-127 0 -127 -248q0 -244 132 -244q61 0 126 55l76 -106q-100 -100 -221 -100q-132 0 -212.5 102t-80.5 293q0 190 82 292.5t217 102.5z" />
<glyph unicode="&#xaa;" horiz-adv-x="858" d="M418 1079h69v49q0 63 -25.5 90t-88.5 27q-70 0 -185 -41l-55 152q130 59 277 59q152 0 225.5 -69t73.5 -197v-363q0 -63 47 -79l-47 -154q-136 13 -181 106q-69 -110 -204 -110q-110 0 -176 70.5t-66 183.5q0 133 87 204.5t249 71.5zM385 713q64 0 102 75v160h-55 q-69 0 -97 -29.5t-28 -97.5q0 -108 78 -108zM90 199h686v-195h-686v195z" />
<glyph unicode="&#xab;" horiz-adv-x="1089" d="M395 1114l156 -98l-229 -430l229 -430l-156 -101l-313 447v166zM852 1114l156 -98l-230 -430l230 -430l-156 -101l-313 447v166z" />
<glyph unicode="&#xac;" horiz-adv-x="886" d="M803 764v-500h-209v305h-510v195h719z" />
<glyph unicode="&#xad;" horiz-adv-x="704" d="M88 541v200h528v-200h-528z" />
<glyph unicode="&#xae;" horiz-adv-x="1071" d="M537 1542q199 0 326.5 -149.5t127.5 -391.5q0 -241 -127.5 -389.5t-326.5 -148.5q-198 0 -327.5 149t-129.5 389t130 390.5t327 150.5zM537 580q149 0 239 111.5t90 309.5t-90.5 312t-238.5 114t-240 -114.5t-92 -311.5t92 -309t240 -112zM725 1122q0 -103 -98 -153 l123 -240h-134l-94 213h-41v-213h-116v569h139q109 0 165 -45t56 -131zM481 1200v-153h49q34 0 55 19t21 58q0 76 -78 76h-47z" />
<glyph unicode="&#xaf;" horiz-adv-x="626" d="M575 1358h-503v174h503v-174z" />
<glyph unicode="&#xb0;" horiz-adv-x="874" d="M365 770q-121 0 -208 89.5t-87 250.5q0 158 87 246t208 88q124 0 210.5 -88t86.5 -248t-86.5 -249t-210.5 -89zM365 924q122 0 122 184t-122 184q-119 0 -119 -182q0 -186 119 -186z" />
<glyph unicode="&#xb1;" horiz-adv-x="884" d="M547 1188v-307h256v-201h-256v-303h-207v303h-256v201h256v307h207zM92 0v195h699v-195h-699z" />
<glyph unicode="&#xb2;" horiz-adv-x="679" d="M332 1532q118 0 189 -72t71 -178q0 -100 -60 -195t-239 -278h315l-20 -152h-494v142q193 218 249 303t56 170q0 52 -23.5 80t-66.5 28q-38 0 -70 -19.5t-67 -60.5l-104 84q101 148 264 148z" />
<glyph unicode="&#xb3;" horiz-adv-x="679" d="M334 1534q120 0 187 -64.5t67 -162.5q0 -156 -170 -195q92 -8 143 -60t51 -149q0 -114 -76.5 -191t-213.5 -77q-164 0 -263 131l99 92q41 -39 75 -56.5t76 -17.5q50 0 80.5 34.5t30.5 96.5q0 65 -31.5 94t-93.5 29h-57l22 136h37q109 0 109 110q0 52 -26.5 80.5 t-72.5 28.5q-65 0 -145 -70l-88 96q109 115 260 115z" />
<glyph unicode="&#xb4;" horiz-adv-x="583" d="M430 1663l102 -186l-391 -185l-69 123z" />
<glyph unicode="&#xb5;" horiz-adv-x="987" d="M903 0l-229 -29q-25 66 -41 185q-81 -176 -197 -176q-45 0 -79 22t-64 74q32 -68 46.5 -131t14.5 -164v-199l-237 -24v1525h252v-768q0 -141 90 -141q92 0 151 156v753h252v-712q0 -195 41 -371z" />
<glyph unicode="&#xb6;" horiz-adv-x="1312" d="M561 1415h555v-1831l-221 -30v1679h-162v-1649l-219 -30v1005q-194 7 -296.5 125t-102.5 305q0 202 116 314t330 112z" />
<glyph unicode="&#xb7;" horiz-adv-x="440" d="M219 791q70 0 113 -47t43 -113t-43 -113t-113 -47q-68 0 -112 47.5t-44 112.5t44 112.5t112 47.5z" />
<glyph unicode="&#xb8;" horiz-adv-x="550" d="M328 33v-148q172 -27 172 -184q0 -98 -66.5 -155.5t-177.5 -57.5q-107 0 -184 53l61 117q55 -25 107 -25q75 0 75 70q0 42 -36 61t-117 19l26 250h140z" />
<glyph unicode="&#xb9;" horiz-adv-x="679" d="M498 1516v-859h-187v670l-153 -108l-86 120l256 177h170z" />
<glyph unicode="&#xba;" horiz-adv-x="856" d="M428 1415q168 0 261 -109.5t93 -324.5q0 -206 -93.5 -319t-258.5 -113q-168 0 -262 109.5t-94 324.5q0 207 94 319.5t260 112.5zM428 1245q-66 0 -94.5 -56.5t-28.5 -205.5q0 -152 28.5 -208t94.5 -56t95.5 57t29.5 205q0 104 -14.5 162.5t-40.5 80t-70 21.5zM80 0v195 h698v-195h-698z" />
<glyph unicode="&#xbb;" horiz-adv-x="1089" d="M236 1114l315 -446v-166l-315 -447l-154 101l229 430l-229 430zM692 1114l316 -446v-166l-316 -447l-153 101l229 430l-229 430z" />
<glyph unicode="&#xbc;" horiz-adv-x="1636" d="M1085 1544l152 -63l-686 -1647l-152 64zM498 557h-187v670l-153 -109l-86 121l256 176h170v-858zM1587 330v-146h-82v-184h-174l-2 184h-323v135l204 558l158 -62l-176 -485h139l35 209h139v-209h82z" />
<glyph unicode="&#xbd;" horiz-adv-x="1636" d="M1085 1544l152 -63l-686 -1647l-152 64zM498 1415v-858h-187v670l-153 -109l-86 121l256 176h170zM1288 874q118 0 189 -71.5t71 -177.5q0 -100 -60 -195t-239 -278h316l-21 -152h-493v141q193 218 249 303t56 170q0 52 -23.5 80.5t-66.5 28.5q-70 0 -138 -80l-104 84 q101 147 264 147z" />
<glyph unicode="&#xbe;" horiz-adv-x="1636" d="M1085 1544l152 -63l-686 -1647l-152 64zM612 803q0 -114 -76.5 -191t-213.5 -77q-164 0 -263 131l99 92q41 -39 75 -56.5t76 -17.5q50 0 80.5 34.5t30.5 96.5q0 65 -31.5 94t-93.5 29h-57l22 135h37q109 0 109 111q0 52 -26.5 80t-72.5 28q-66 0 -145 -69l-88 96 q109 115 260 115q120 0 187 -65t67 -163q0 -155 -170 -194q92 -8 143 -60t51 -149zM1587 330v-146h-82v-184h-174l-2 184h-323v135l204 558l158 -62l-176 -485h139l35 209h139v-209h82z" />
<glyph unicode="&#xbf;" horiz-adv-x="827" d="M455 707q-70 0 -114 46.5t-44 112.5q0 65 44 111.5t114 46.5q68 0 110.5 -46.5t42.5 -111.5q0 -67 -42 -113t-111 -46zM403 -451q-88 0 -159 27.5t-115 74.5t-67 105.5t-23 122.5t16.5 116t43.5 87t59 65.5t64.5 58.5t59.5 58t43.5 73t16.5 95v62h231v-74 q0 -69 -15.5 -124.5t-40 -91.5t-54 -65.5t-59 -54.5t-54 -51t-40 -62.5t-15.5 -81.5q0 -67 35.5 -103t97.5 -36q55 0 105 30.5t104 96.5l151 -117q-148 -211 -385 -211z" />
<glyph unicode="&#xc0;" horiz-adv-x="1017" d="M733 1669l-65 -127l-396 168l99 191zM758 0l-70 332h-364l-68 -332h-260l356 1415h316l354 -1415h-264zM365 528h284l-143 689z" />
<glyph unicode="&#xc1;" horiz-adv-x="1017" d="M739 1710l-395 -168l-65 127l360 234zM758 0l-70 332h-364l-68 -332h-260l356 1415h316l354 -1415h-264zM365 528h284l-143 689z" />
<glyph unicode="&#xc2;" horiz-adv-x="1017" d="M510 1724l-223 -168l-90 97l235 252h154l235 -252l-92 -97zM758 0l-70 332h-364l-68 -332h-260l356 1415h316l354 -1415h-264zM365 528h284l-143 689z" />
<glyph unicode="&#xc3;" horiz-adv-x="1017" d="M414 1675q-27 0 -45 -19.5t-45 -66.5l-123 58q32 93 86 148.5t123 55.5q41 0 78.5 -22t67.5 -44t54 -22q26 0 45.5 20t42.5 66l125 -57q-32 -98 -86.5 -150.5t-122.5 -52.5q-41 0 -78.5 21.5t-67.5 43t-54 21.5zM758 0l-70 332h-364l-68 -332h-260l356 1415h316 l354 -1415h-264zM365 528h284l-143 689z" />
<glyph unicode="&#xc4;" horiz-adv-x="1017" d="M330 1585q-58 0 -95.5 39t-37.5 98q0 58 37.5 98t95.5 40t95.5 -40t37.5 -98q0 -59 -37.5 -98t-95.5 -39zM713 1585q-57 0 -95 39t-38 98q0 58 38 98t95 40q58 0 95.5 -40t37.5 -98q0 -59 -37.5 -98t-95.5 -39zM758 0l-70 332h-364l-68 -332h-260l356 1415h316l354 -1415 h-264zM365 528h284l-143 689z" />
<glyph unicode="&#xc5;" horiz-adv-x="1017" d="M510 1518q-105 0 -166 65.5t-61 175.5q0 109 61 174.5t166 65.5t166 -65.5t61 -174.5q0 -110 -61 -175.5t-166 -65.5zM510 1872q-39 0 -58.5 -25.5t-19.5 -87.5t19.5 -88t58.5 -26q80 0 80 114q0 61 -20.5 87t-59.5 26zM758 0l-70 332h-364l-68 -332h-260l356 1415h316 l354 -1415h-264zM365 528h284l-143 689z" />
<glyph unicode="&#xc6;" horiz-adv-x="1413" d="M971 197h387v-197h-606l-47 332h-373l-92 -332h-273l457 1415h868l-26 -194h-461l65 -408h408v-192h-377zM385 526h291l-101 693z" />
<glyph unicode="&#xc7;" horiz-adv-x="974" d="M958 139q-126 -145 -305 -166v-88q172 -27 172 -184q0 -98 -66 -155.5t-177 -57.5q-108 0 -185 53l62 117q55 -25 106 -25q76 0 76 70q0 42 -36.5 61t-117.5 19l21 192q-203 32 -319.5 217.5t-116.5 518.5q0 184 40 326t111 230t164.5 132.5t206.5 44.5q108 0 191 -36.5 t161 -109.5l-125 -149q-107 96 -213 96q-60 0 -105.5 -26.5t-82 -86.5t-55.5 -166t-19 -255q0 -284 69 -408.5t197 -124.5q45 0 88 17.5t68 35t66 52.5z" />
<glyph unicode="&#xc8;" horiz-adv-x="886" d="M338 1901l362 -232l-65 -127l-395 168zM825 1415l-26 -194h-416v-406h362v-192h-362v-426h442v-197h-702v1415h702z" />
<glyph unicode="&#xc9;" horiz-adv-x="886" d="M606 1903l101 -193l-396 -168l-65 127zM825 1415l-26 -194h-416v-406h362v-192h-362v-426h442v-197h-702v1415h702z" />
<glyph unicode="&#xca;" horiz-adv-x="886" d="M254 1556l-90 97l235 252h154l235 -252l-92 -97l-219 168zM825 1415l-26 -194h-416v-406h362v-192h-362v-426h442v-197h-702v1415h702z" />
<glyph unicode="&#xcb;" horiz-adv-x="886" d="M297 1860q58 0 95.5 -40t37.5 -98q0 -59 -37.5 -98t-95.5 -39t-95.5 39t-37.5 98q0 58 37.5 98t95.5 40zM680 1860q58 0 95.5 -40t37.5 -98q0 -59 -37.5 -98t-95.5 -39q-57 0 -95 39t-38 98q0 58 38 98t95 40zM825 1415l-26 -194h-416v-406h362v-192h-362v-426h442v-197 h-702v1415h702z" />
<glyph unicode="&#xcc;" horiz-adv-x="505" d="M113 1901l362 -232l-65 -127l-396 168zM383 1415v-1415h-260v1415h260z" />
<glyph unicode="&#xcd;" horiz-adv-x="505" d="M381 1903l100 -193l-395 -168l-66 127zM383 1415v-1415h-260v1415h260z" />
<glyph unicode="&#xce;" horiz-adv-x="505" d="M29 1556l-90 97l235 252h154l235 -252l-92 -97l-219 168zM383 1415v-1415h-260v1415h260z" />
<glyph unicode="&#xcf;" horiz-adv-x="505" d="M72 1860q58 0 95.5 -40t37.5 -98q0 -59 -37.5 -98t-95.5 -39t-95.5 39t-37.5 98q0 58 37.5 98t95.5 40zM455 1860q58 0 95.5 -40t37.5 -98q0 -59 -37.5 -98t-95.5 -39q-57 0 -95 39t-38 98q0 58 38 98t95 40zM383 1415v-1415h-260v1415h260z" />
<glyph unicode="&#xd0;" horiz-adv-x="1144" d="M471 1415q72 0 131.5 -7t123 -27t112.5 -52.5t94 -86.5t74.5 -126t47 -173.5t17.5 -227.5q0 -168 -32 -296.5t-84 -206.5t-128.5 -127t-155 -67t-173.5 -18h-342v637h-121v172h121v606h315zM512 195q53 0 94 12.5t79 47t62.5 91.5t39 150t14.5 219q0 128 -15.5 220.5 t-40.5 147t-64 86t-78.5 42t-92.5 10.5h-94v-412h198v-172h-198v-442h96z" />
<glyph unicode="&#xd1;" horiz-adv-x="1130" d="M678 1589q-41 0 -78.5 21.5t-68 43t-54.5 21.5q-27 0 -45 -19.5t-45 -66.5l-123 58q32 93 86 148.5t123 55.5q41 0 78.5 -22t68 -44t54.5 -22q26 0 45.5 20t42.5 66l125 -57q-32 -98 -86.5 -150.5t-122.5 -52.5zM1008 1415v-1415h-332l-359 1159q35 -323 35 -565v-594 h-229v1415h330l358 -1159q-35 205 -35 483v676h232z" />
<glyph unicode="&#xd2;" d="M453 1901l362 -232l-65 -127l-396 168zM592 1444q249 0 384.5 -182t135.5 -553q0 -367 -135.5 -553.5t-384.5 -186.5t-384.5 184t-135.5 554q0 365 136 551t384 186zM592 1247q-125 0 -185.5 -124t-60.5 -416q0 -199 29.5 -319.5t82 -169t134.5 -48.5q85 0 138 49 t81.5 169t28.5 321q0 196 -29 316.5t-82 171t-137 50.5z" />
<glyph unicode="&#xd3;" d="M721 1903l100 -193l-395 -168l-66 127zM592 1444q249 0 384.5 -182t135.5 -553q0 -367 -135.5 -553.5t-384.5 -186.5t-384.5 184t-135.5 554q0 365 136 551t384 186zM592 1247q-125 0 -185.5 -124t-60.5 -416q0 -199 29.5 -319.5t82 -169t134.5 -48.5q85 0 138 49 t81.5 169t28.5 321q0 196 -29 316.5t-82 171t-137 50.5z" />
<glyph unicode="&#xd4;" d="M369 1556l-90 97l235 252h154l235 -252l-92 -97l-219 168zM592 1444q249 0 384.5 -182t135.5 -553q0 -367 -135.5 -553.5t-384.5 -186.5t-384.5 184t-135.5 554q0 365 136 551t384 186zM592 1247q-125 0 -185.5 -124t-60.5 -416q0 -199 29.5 -319.5t82 -169t134.5 -48.5 q85 0 138 49t81.5 169t28.5 321q0 196 -29 316.5t-82 171t-137 50.5z" />
<glyph unicode="&#xd5;" d="M696 1589q-41 0 -78.5 21.5t-67.5 43t-54 21.5q-27 0 -45 -19.5t-45 -66.5l-123 58q32 93 86 148.5t123 55.5q41 0 78.5 -22t67.5 -44t54 -22q26 0 45.5 20t42.5 66l125 -57q-32 -98 -86.5 -150.5t-122.5 -52.5zM592 1444q249 0 384.5 -182t135.5 -553 q0 -367 -135.5 -553.5t-384.5 -186.5t-384.5 184t-135.5 554q0 365 136 551t384 186zM592 1247q-125 0 -185.5 -124t-60.5 -416q0 -199 29.5 -319.5t82 -169t134.5 -48.5q85 0 138 49t81.5 169t28.5 321q0 196 -29 316.5t-82 171t-137 50.5z" />
<glyph unicode="&#xd6;" d="M412 1860q58 0 95.5 -40t37.5 -98q0 -59 -37.5 -98t-95.5 -39t-95.5 39t-37.5 98q0 58 37.5 98t95.5 40zM795 1860q58 0 95.5 -40t37.5 -98q0 -59 -37.5 -98t-95.5 -39q-57 0 -95 39t-38 98q0 58 38 98t95 40zM592 1444q249 0 384.5 -182t135.5 -553 q0 -367 -135.5 -553.5t-384.5 -186.5t-384.5 184t-135.5 554q0 365 136 551t384 186zM592 1247q-125 0 -185.5 -124t-60.5 -416q0 -199 29.5 -319.5t82 -169t134.5 -48.5q85 0 138 49t81.5 169t28.5 321q0 196 -29 316.5t-82 171t-137 50.5z" />
<glyph unicode="&#xd7;" horiz-adv-x="866" d="M633 1018l151 -121l-215 -268l215 -271l-151 -118l-201 260l-196 -260l-154 118l215 271l-215 268l154 121l196 -262z" />
<glyph unicode="&#xd8;" d="M862 1370q250 -162 250 -661q0 -367 -135.5 -552.5t-384.5 -185.5q-42 0 -82 6l-59 -243l-197 51l65 260q-247 163 -247 662q0 365 136 551t384 186q42 0 82 -6l61 248l197 -54zM592 1249q-88 0 -143.5 -51t-85 -171.5t-29.5 -319.5q0 -353 86 -465l229 1001q-27 6 -57 6 zM848 709q3 343 -84 462l-227 -1001q32 -4 55 -4q90 0 144 50t82.5 169.5t29.5 323.5z" />
<glyph unicode="&#xd9;" horiz-adv-x="1099" d="M410 1901l362 -232l-65 -127l-396 168zM997 1415v-1018q0 -90 -28 -167t-82.5 -135t-140.5 -91t-195 -33q-219 0 -334 117.5t-115 308.5v1018h260v-1005q0 -119 45.5 -177.5t143.5 -58.5q97 0 141.5 58.5t44.5 177.5v1005h260z" />
<glyph unicode="&#xda;" horiz-adv-x="1099" d="M678 1903l100 -193l-395 -168l-66 127zM997 1415v-1018q0 -90 -28 -167t-82.5 -135t-140.5 -91t-195 -33q-219 0 -334 117.5t-115 308.5v1018h260v-1005q0 -119 45.5 -177.5t143.5 -58.5q97 0 141.5 58.5t44.5 177.5v1005h260z" />
<glyph unicode="&#xdb;" horiz-adv-x="1099" d="M326 1556l-90 97l235 252h154l235 -252l-92 -97l-219 168zM997 1415v-1018q0 -90 -28 -167t-82.5 -135t-140.5 -91t-195 -33q-219 0 -334 117.5t-115 308.5v1018h260v-1005q0 -119 45.5 -177.5t143.5 -58.5q97 0 141.5 58.5t44.5 177.5v1005h260z" />
<glyph unicode="&#xdc;" horiz-adv-x="1099" d="M369 1860q58 0 95.5 -40t37.5 -98q0 -59 -37.5 -98t-95.5 -39t-95.5 39t-37.5 98q0 58 37.5 98t95.5 40zM752 1860q58 0 95.5 -40t37.5 -98q0 -59 -37.5 -98t-95.5 -39q-57 0 -95.5 39.5t-38.5 97.5q0 57 38.5 97.5t95.5 40.5zM997 1415v-1018q0 -90 -28 -167t-82.5 -135 t-140.5 -91t-195 -33q-219 0 -334 117.5t-115 308.5v1018h260v-1005q0 -119 45.5 -177.5t143.5 -58.5q97 0 141.5 58.5t44.5 177.5v1005h260z" />
<glyph unicode="&#xdd;" horiz-adv-x="987" d="M623 1903l100 -193l-395 -168l-66 127zM997 1415l-372 -876v-539h-263v537l-372 878h276l232 -665l233 665h266z" />
<glyph unicode="&#xde;" horiz-adv-x="1001" d="M463 1182q247 0 377.5 -115t130.5 -340q0 -242 -129.5 -360.5t-362.5 -118.5h-96v-248h-260v1415h260v-233h80zM459 442q128 0 188 64.5t60 220.5q0 139 -61.5 201.5t-188.5 62.5h-74v-549h76z" />
<glyph unicode="&#xdf;" horiz-adv-x="1024" d="M506 1544q159 0 250.5 -85t91.5 -210q0 -56 -16.5 -103t-40 -79t-47 -60.5t-40 -60.5t-16.5 -67q0 -42 31 -83t75 -80.5t87.5 -87.5t74.5 -124t31 -170q0 -166 -94 -265.5t-236 -99.5q-115 0 -196 51l76 166q36 -18 81 -18q52 0 83.5 43t31.5 127q0 67 -27 123t-65.5 97 t-77 81t-65.5 93.5t-27 115.5q0 46 15 86t36.5 70t42.5 60.5t36 71.5t15 89q0 66 -31 100.5t-83 34.5q-65 0 -99 -50.5t-34 -146.5v-1163h-252v1153q0 175 104.5 283t284.5 108z" />
<glyph unicode="&#xe0;" horiz-adv-x="929" d="M698 1415l-69 -123l-391 185l102 186zM809 262q0 -54 14 -79.5t47 -41.5l-51 -168q-83 9 -134 44.5t-75 107.5q-96 -156 -264 -156q-136 0 -215.5 91t-79.5 243q0 175 109 268t319 93h84v75q0 102 -35.5 144.5t-115.5 42.5q-96 0 -240 -54l-57 164q172 76 338 76 q356 0 356 -360v-490zM414 152q98 0 149 135v227h-59q-104 0 -152.5 -46.5t-48.5 -145.5q0 -170 111 -170z" />
<glyph unicode="&#xe1;" horiz-adv-x="929" d="M672 1477l-391 -185l-70 123l358 248zM809 262q0 -54 14 -79.5t47 -41.5l-51 -168q-83 9 -134 44.5t-75 107.5q-96 -156 -264 -156q-136 0 -215.5 91t-79.5 243q0 175 109 268t319 93h84v75q0 102 -35.5 144.5t-115.5 42.5q-96 0 -240 -54l-57 164q172 76 338 76 q356 0 356 -360v-490zM414 152q98 0 149 135v227h-59q-104 0 -152.5 -46.5t-48.5 -145.5q0 -170 111 -170z" />
<glyph unicode="&#xe2;" horiz-adv-x="929" d="M453 1473l-224 -181l-90 97l236 262h153l236 -262l-92 -97zM809 262q0 -54 14 -79.5t47 -41.5l-51 -168q-83 9 -134 44.5t-75 107.5q-96 -156 -264 -156q-136 0 -215.5 91t-79.5 243q0 175 109 268t319 93h84v75q0 102 -35.5 144.5t-115.5 42.5q-96 0 -240 -54l-57 164 q172 76 338 76q356 0 356 -360v-490zM414 152q98 0 149 135v227h-59q-104 0 -152.5 -46.5t-48.5 -145.5q0 -170 111 -170z" />
<glyph unicode="&#xe3;" horiz-adv-x="929" d="M354 1417q-27 0 -45 -19.5t-45 -66.5l-123 58q32 93 86 148.5t123 55.5q41 0 78.5 -22t68 -44t54.5 -22q26 0 45.5 20t42.5 66l125 -57q-32 -98 -86.5 -150.5t-122.5 -52.5q-41 0 -78.5 21.5t-68 43t-54.5 21.5zM809 262q0 -54 14 -79.5t47 -41.5l-51 -168 q-83 9 -134 44.5t-75 107.5q-96 -156 -264 -156q-136 0 -215.5 91t-79.5 243q0 175 109 268t319 93h84v75q0 102 -35.5 144.5t-115.5 42.5q-96 0 -240 -54l-57 164q172 76 338 76q356 0 356 -360v-490zM414 152q98 0 149 135v227h-59q-104 0 -152.5 -46.5t-48.5 -145.5 q0 -170 111 -170z" />
<glyph unicode="&#xe4;" horiz-adv-x="929" d="M260 1327q-58 0 -95.5 39t-37.5 98q0 58 37.5 98t95.5 40t95.5 -40t37.5 -98q0 -59 -37.5 -98t-95.5 -39zM643 1327q-57 0 -95 39t-38 98q0 58 38 98t95 40q58 0 95.5 -40t37.5 -98q0 -59 -37.5 -98t-95.5 -39zM809 262q0 -54 14 -79.5t47 -41.5l-51 -168 q-83 9 -134 44.5t-75 107.5q-96 -156 -264 -156q-136 0 -215.5 91t-79.5 243q0 175 109 268t319 93h84v75q0 102 -35.5 144.5t-115.5 42.5q-96 0 -240 -54l-57 164q172 76 338 76q356 0 356 -360v-490zM414 152q98 0 149 135v227h-59q-104 0 -152.5 -46.5t-48.5 -145.5 q0 -170 111 -170z" />
<glyph unicode="&#xe5;" horiz-adv-x="929" d="M453 1260q-105 0 -166.5 66t-61.5 175t61.5 174.5t166.5 65.5t166 -65.5t61 -174.5q0 -110 -61 -175.5t-166 -65.5zM453 1614q-39 0 -58.5 -25.5t-19.5 -87.5t19.5 -88.5t58.5 -26.5q79 0 79 115q0 62 -20 87.5t-59 25.5zM809 262q0 -54 14 -79.5t47 -41.5l-51 -168 q-83 9 -134 44.5t-75 107.5q-96 -156 -264 -156q-136 0 -215.5 91t-79.5 243q0 175 109 268t319 93h84v75q0 102 -35.5 144.5t-115.5 42.5q-96 0 -240 -54l-57 164q172 76 338 76q356 0 356 -360v-490zM414 152q98 0 149 135v227h-59q-104 0 -152.5 -46.5t-48.5 -145.5 q0 -170 111 -170z" />
<glyph unicode="&#xe6;" horiz-adv-x="1449" d="M1389 567q0 -31 -5 -104h-557q10 -161 63.5 -231t145.5 -70q100 0 213 90l107 -139q-147 -144 -342 -144q-230 0 -348 187q-117 -187 -306 -187q-141 0 -225 92.5t-84 241.5q0 171 112 262.5t324 91.5h84v72q0 108 -34.5 152.5t-118.5 44.5q-92 0 -236 -56l-57 166 q175 76 332 76q192 0 268 -145q110 145 283 145q177 0 279 -139.5t102 -405.5zM1147 627v14q0 295 -154 295q-76 0 -117.5 -72.5t-48.5 -236.5h320zM426 154q53 0 95 39t79 120q-22 93 -25 193v2h-61q-203 0 -203 -191q0 -163 115 -163z" />
<glyph unicode="&#xe7;" horiz-adv-x="811" d="M803 94q-112 -109 -252 -123v-86q172 -27 172 -184q0 -98 -66.5 -155.5t-177.5 -57.5q-107 0 -184 53l61 117q55 -25 107 -25q76 0 76 70q0 42 -36.5 61t-117.5 19l21 197q-161 33 -248.5 171.5t-87.5 380.5q0 272 118 426t318 154q171 0 297 -123l-109 -143 q-87 72 -172 72q-92 0 -139 -87t-47 -294q0 -138 24.5 -221t63.5 -113.5t98 -30.5q44 0 81.5 16.5t86.5 51.5z" />
<glyph unicode="&#xe8;" horiz-adv-x="948" d="M731 1415l-69 -123l-392 185l103 186zM889 567q0 -17 -6 -104h-559q9 -169 58.5 -235t141.5 -66q63 0 115 21.5t111 68.5l104 -143q-143 -140 -344 -140q-213 0 -326.5 147t-113.5 416t108 424.5t307 155.5q191 0 297.5 -138t106.5 -407zM643 627v14q0 155 -36.5 225 t-119.5 70q-75 0 -115.5 -68.5t-47.5 -240.5h319z" />
<glyph unicode="&#xe9;" horiz-adv-x="948" d="M705 1477l-392 -185l-69 123l358 248zM889 567q0 -17 -6 -104h-559q9 -169 58.5 -235t141.5 -66q63 0 115 21.5t111 68.5l104 -143q-143 -140 -344 -140q-213 0 -326.5 147t-113.5 416t108 424.5t307 155.5q191 0 297.5 -138t106.5 -407zM643 627v14q0 155 -36.5 225 t-119.5 70q-75 0 -115.5 -68.5t-47.5 -240.5h319z" />
<glyph unicode="&#xea;" horiz-adv-x="948" d="M485 1473l-223 -181l-90 97l236 262h153l236 -262l-92 -97zM889 567q0 -17 -6 -104h-559q9 -169 58.5 -235t141.5 -66q63 0 115 21.5t111 68.5l104 -143q-143 -140 -344 -140q-213 0 -326.5 147t-113.5 416t108 424.5t307 155.5q191 0 297.5 -138t106.5 -407zM643 627v14 q0 155 -36.5 225t-119.5 70q-75 0 -115.5 -68.5t-47.5 -240.5h319z" />
<glyph unicode="&#xeb;" horiz-adv-x="948" d="M293 1327q-58 0 -95.5 39t-37.5 98q0 58 37.5 98t95.5 40t95.5 -40t37.5 -98q0 -59 -37.5 -98t-95.5 -39zM676 1327q-57 0 -95 39t-38 98q0 58 38 98t95 40q58 0 95.5 -40t37.5 -98q0 -59 -37.5 -98t-95.5 -39zM889 567q0 -17 -6 -104h-559q9 -169 58.5 -235t141.5 -66 q63 0 115 21.5t111 68.5l104 -143q-143 -140 -344 -140q-213 0 -326.5 147t-113.5 416t108 424.5t307 155.5q191 0 297.5 -138t106.5 -407zM643 627v14q0 155 -36.5 225t-119.5 70q-75 0 -115.5 -68.5t-47.5 -240.5h319z" />
<glyph unicode="&#xec;" horiz-adv-x="485" d="M131 1663l358 -248l-69 -123l-391 185zM369 1083v-1083h-252v1083h252z" />
<glyph unicode="&#xed;" horiz-adv-x="485" d="M360 1663l103 -186l-391 -185l-70 123zM369 1083v-1083h-252v1083h252z" />
<glyph unicode="&#xee;" horiz-adv-x="485" d="M20 1292l-90 97l236 262h153l236 -262l-92 -97l-219 181zM369 1083v-1083h-252v1083h252z" />
<glyph unicode="&#xef;" horiz-adv-x="485" d="M51 1602q58 0 95.5 -40t37.5 -98q0 -59 -37.5 -98t-95.5 -39t-95.5 39t-37.5 98q0 58 37.5 98t95.5 40zM434 1602q58 0 95.5 -40t37.5 -98q0 -59 -37.5 -98t-95.5 -39q-57 0 -95 39t-38 98q0 58 38 98t95 40zM369 1083v-1083h-252v1083h252z" />
<glyph unicode="&#xf0;" horiz-adv-x="995" d="M608 1364q164 -140 234.5 -336t70.5 -471q0 -270 -113 -428t-315 -158q-184 0 -299.5 132t-115.5 376q0 218 98.5 357t247.5 139q138 0 229 -105q-25 119 -64.5 202t-111.5 153l-111 -133l-155 77l125 148q-81 35 -168 57l45 168q128 -28 254 -86l121 154l141 -105z M489 160q84 0 127 87t43 277q0 105 -2 148q-68 121 -172 121q-83 0 -122 -77t-39 -231q0 -174 42 -249.5t123 -75.5z" />
<glyph unicode="&#xf1;" horiz-adv-x="985" d="M401 1417q-27 0 -45 -19.5t-45 -66.5l-123 58q32 93 86 148.5t123 55.5q41 0 78.5 -22t68 -44t54.5 -22q26 0 45.5 20t42.5 66l125 -57q-32 -98 -86.5 -150.5t-122.5 -52.5q-41 0 -78.5 21.5t-68 43t-54.5 21.5zM623 1112q116 0 183.5 -83.5t67.5 -225.5v-803h-251v774 q0 146 -84 146q-86 0 -170 -162v-758h-252v1083h219l18 -141q56 85 118.5 127.5t150.5 42.5z" />
<glyph unicode="&#xf2;" horiz-adv-x="1003" d="M389 1663l359 -248l-70 -123l-391 185zM502 1112q206 0 319 -143t113 -426q0 -269 -115 -421.5t-317 -152.5q-203 0 -317.5 148.5t-114.5 425.5q0 275 114 422t318 147zM502 922q-87 0 -128.5 -87t-41.5 -292q0 -208 41 -294.5t129 -86.5q87 0 128.5 87t41.5 294 q0 206 -41 292.5t-129 86.5z" />
<glyph unicode="&#xf3;" horiz-adv-x="1003" d="M618 1663l103 -186l-391 -185l-70 123zM502 1112q206 0 319 -143t113 -426q0 -269 -115 -421.5t-317 -152.5q-203 0 -317.5 148.5t-114.5 425.5q0 275 114 422t318 147zM502 922q-87 0 -128.5 -87t-41.5 -292q0 -208 41 -294.5t129 -86.5q87 0 128.5 87t41.5 294 q0 206 -41 292.5t-129 86.5z" />
<glyph unicode="&#xf4;" horiz-adv-x="1003" d="M279 1292l-91 97l236 262h154l235 -262l-92 -97l-219 181zM502 1112q206 0 319 -143t113 -426q0 -269 -115 -421.5t-317 -152.5q-203 0 -317.5 148.5t-114.5 425.5q0 275 114 422t318 147zM502 922q-87 0 -128.5 -87t-41.5 -292q0 -208 41 -294.5t129 -86.5 q87 0 128.5 87t41.5 294q0 206 -41 292.5t-129 86.5z" />
<glyph unicode="&#xf5;" horiz-adv-x="1003" d="M604 1331q-41 0 -78.5 21.5t-68 43t-54.5 21.5q-27 0 -45 -19.5t-45 -66.5l-123 58q32 93 86 148.5t123 55.5q41 0 78.5 -22t68 -44t54.5 -22q26 0 45.5 20t42.5 66l125 -57q-32 -98 -86.5 -150.5t-122.5 -52.5zM502 1112q206 0 319 -143t113 -426q0 -269 -115 -421.5 t-317 -152.5q-203 0 -317.5 148.5t-114.5 425.5q0 275 114 422t318 147zM502 922q-87 0 -128.5 -87t-41.5 -292q0 -208 41 -294.5t129 -86.5q87 0 128.5 87t41.5 294q0 206 -41 292.5t-129 86.5z" />
<glyph unicode="&#xf6;" horiz-adv-x="1003" d="M309 1602q58 0 95.5 -40t37.5 -98q0 -59 -37.5 -98t-95.5 -39t-95.5 39t-37.5 98q0 58 37.5 98t95.5 40zM692 1602q58 0 95.5 -40t37.5 -98q0 -59 -37.5 -98t-95.5 -39q-57 0 -95 39t-38 98q0 58 38 98t95 40zM502 1112q206 0 319 -143t113 -426q0 -269 -115 -421.5 t-317 -152.5q-203 0 -317.5 148.5t-114.5 425.5q0 275 114 422t318 147zM502 922q-87 0 -128.5 -87t-41.5 -292q0 -208 41 -294.5t129 -86.5q87 0 128.5 87t41.5 294q0 206 -41 292.5t-129 86.5z" />
<glyph unicode="&#xf7;" horiz-adv-x="866" d="M432 1317q70 0 113 -47t43 -113t-43 -113t-113 -47q-68 0 -112 47.5t-44 112.5t44 112.5t112 47.5zM84 584v194h698v-194h-698zM432 358q70 0 113 -47t43 -112q0 -66 -43 -113t-113 -47q-68 0 -112 47.5t-44 112.5t43.5 112t112.5 47z" />
<glyph unicode="&#xf8;" horiz-adv-x="1003" d="M739 1042q195 -136 195 -499q0 -269 -115 -421.5t-317 -152.5q-22 0 -58 4l-63 -243l-186 51l71 260q-94 67 -145 194.5t-51 307.5q0 275 114 422t318 147q25 0 61 -4l66 246l184 -54zM502 926q-101 0 -149 -87.5t-48 -295.5q0 -238 55 -320l177 701q-12 2 -35 2z M502 156q101 0 148.5 88.5t47.5 298.5q0 233 -55 315l-172 -700q10 -2 31 -2z" />
<glyph unicode="&#xf9;" horiz-adv-x="976" d="M373 1663l358 -248l-69 -123l-392 185zM860 1083v-1083h-219l-12 137q-52 -83 -114.5 -125.5t-147.5 -42.5q-118 0 -187 83.5t-69 219.5v811h251v-796q0 -127 87 -127q49 0 87 38t72 107v778h252z" />
<glyph unicode="&#xfa;" horiz-adv-x="976" d="M602 1663l103 -186l-392 -185l-69 123zM860 1083v-1083h-219l-12 137q-52 -83 -114.5 -125.5t-147.5 -42.5q-118 0 -187 83.5t-69 219.5v811h251v-796q0 -127 87 -127q49 0 87 38t72 107v778h252z" />
<glyph unicode="&#xfb;" horiz-adv-x="976" d="M262 1292l-90 97l236 262h153l236 -262l-92 -97l-220 181zM860 1083v-1083h-219l-12 137q-52 -83 -114.5 -125.5t-147.5 -42.5q-118 0 -187 83.5t-69 219.5v811h251v-796q0 -127 87 -127q49 0 87 38t72 107v778h252z" />
<glyph unicode="&#xfc;" horiz-adv-x="976" d="M293 1602q58 0 95.5 -40t37.5 -98q0 -59 -37.5 -98t-95.5 -39t-95.5 39t-37.5 98q0 58 37.5 98t95.5 40zM676 1602q58 0 95.5 -40t37.5 -98q0 -59 -37.5 -98t-95.5 -39q-57 0 -95 39t-38 98q0 58 38 98t95 40zM860 1083v-1083h-219l-12 137q-52 -83 -114.5 -125.5 t-147.5 -42.5q-118 0 -187 83.5t-69 219.5v811h251v-796q0 -127 87 -127q49 0 87 38t72 107v778h252z" />
<glyph unicode="&#xfd;" horiz-adv-x="882" d="M559 1663l103 -186l-392 -185l-69 123zM881 1083l-287 -1087q-53 -196 -172 -308t-318 -132l-28 178q130 26 194 85t101 181h-95l-274 1083h256l180 -915l193 915h250z" />
<glyph unicode="&#xfe;" horiz-adv-x="1011" d="M616 1112q159 0 241.5 -146t82.5 -421q0 -267 -93.5 -421.5t-258.5 -154.5q-135 0 -219 127v-508l-252 -32v1962l252 26v-573q98 141 247 141zM520 162q160 0 160 381q0 144 -17 229.5t-48 118.5t-80 33q-93 0 -166 -136v-524q66 -102 151 -102z" />
<glyph unicode="&#xff;" horiz-adv-x="882" d="M250 1602q58 0 95.5 -40t37.5 -98q0 -59 -37.5 -98t-95.5 -39t-95.5 39t-37.5 98q0 58 37.5 98t95.5 40zM633 1602q58 0 95.5 -40t37.5 -98q0 -59 -37.5 -98t-95.5 -39q-57 0 -95 39t-38 98q0 58 38 98t95 40zM881 1083l-287 -1087q-53 -196 -172 -308t-318 -132l-28 178 q130 26 194 85t101 181h-95l-274 1083h256l180 -915l193 915h250z" />
<glyph unicode="&#x152;" horiz-adv-x="1527" d="M1466 197v-197h-743q-73 -31 -158 -31q-228 0 -360.5 190.5t-132.5 547.5q0 354 133 545.5t360 191.5q82 0 158 -29h741l-26 -194h-498q115 -150 133 -404h311v-194h-309q-18 -265 -139 -426h530zM575 170q114 0 172 124.5t58 414.5q0 193 -28.5 314.5t-78 172.5 t-123.5 51q-113 0 -171 -125.5t-58 -414.5q0 -287 58.5 -412t170.5 -125z" />
<glyph unicode="&#x153;" horiz-adv-x="1548" d="M1489 567q0 -17 -6 -104h-557q19 -301 202 -301q63 0 115 21.5t111 68.5l104 -137q-146 -146 -344 -146t-315 181q-115 -181 -303 -181q-199 0 -312.5 149t-113.5 425q0 266 115 417.5t315 151.5q184 0 301 -172q116 172 297 172t286 -141t105 -404zM1245 627v14 q0 149 -37 221t-116 72q-76 0 -117.5 -72t-48.5 -235h319zM500 162q86 0 128 91t42 290q0 197 -41.5 288t-126.5 91q-87 0 -128.5 -87t-41.5 -292q0 -208 41 -294.5t127 -86.5z" />
<glyph unicode="&#x178;" horiz-adv-x="987" d="M313 1860q58 0 95.5 -40t37.5 -98q0 -59 -37.5 -98t-95.5 -39t-95.5 39t-37.5 98q0 58 37.5 98t95.5 40zM696 1860q58 0 95.5 -40t37.5 -98q0 -59 -37.5 -98t-95.5 -39q-57 0 -95 39t-38 98q0 58 38 98t95 40zM997 1415l-372 -876v-539h-263v537l-372 878h276l232 -665 l233 665h266z" />
<glyph unicode="&#x2c6;" horiz-adv-x="747" d="M162 1292l-90 97l235 262h154l235 -262l-92 -97l-219 181z" />
<glyph unicode="&#x2dc;" horiz-adv-x="745" d="M475 1331q-41 0 -78.5 21.5t-68 43t-54.5 21.5q-27 0 -45 -19.5t-45 -66.5l-123 58q32 93 86 148.5t123 55.5q41 0 78.5 -22t68 -44t54.5 -22q26 0 45.5 20t42.5 66l125 -57q-32 -98 -86.5 -150.5t-122.5 -52.5z" />
<glyph unicode="&#x2000;" horiz-adv-x="999" />
<glyph unicode="&#x2001;" horiz-adv-x="1999" />
<glyph unicode="&#x2002;" horiz-adv-x="999" />
<glyph unicode="&#x2003;" horiz-adv-x="1999" />
<glyph unicode="&#x2004;" horiz-adv-x="666" />
<glyph unicode="&#x2005;" horiz-adv-x="499" />
<glyph unicode="&#x2006;" horiz-adv-x="333" />
<glyph unicode="&#x2007;" horiz-adv-x="333" />
<glyph unicode="&#x2008;" horiz-adv-x="249" />
<glyph unicode="&#x2009;" horiz-adv-x="399" />
<glyph unicode="&#x200a;" horiz-adv-x="111" />
<glyph unicode="&#x2010;" horiz-adv-x="704" d="M88 541v200h528v-200h-528z" />
<glyph unicode="&#x2011;" horiz-adv-x="704" d="M88 541v200h528v-200h-528z" />
<glyph unicode="&#x2012;" horiz-adv-x="704" d="M88 541v200h528v-200h-528z" />
<glyph unicode="&#x2013;" horiz-adv-x="897" d="M51 541v200h797v-200h-797z" />
<glyph unicode="&#x2014;" horiz-adv-x="1359" d="M51 541v200h1260v-200h-1260z" />
<glyph unicode="&#x2018;" horiz-adv-x="430" d="M213 979q-63 0 -99 40t-36 101q0 52 45 162l108 272h127l-69 -311q61 -45 61 -119q0 -63 -37.5 -104t-99.5 -41z" />
<glyph unicode="&#x2019;" horiz-adv-x="430" d="M217 1554q63 0 99 -40t36 -101q0 -52 -45 -162l-108 -272h-127l69 311q-61 45 -61 119q0 63 37.5 104t99.5 41z" />
<glyph unicode="&#x201a;" horiz-adv-x="430" d="M217 252q63 0 99 -40t36 -101q0 -52 -45 -162l-108 -273h-127l69 312q-61 45 -61 118q0 63 37.5 104.5t99.5 41.5z" />
<glyph unicode="&#x201c;" horiz-adv-x="825" d="M213 979q-63 0 -99 40t-36 101q0 52 45 162l108 272h127l-69 -311q61 -45 61 -119q0 -63 -37.5 -104t-99.5 -41zM608 979q-63 0 -99 40t-36 101q0 52 45 162l109 272h127l-70 -311q61 -45 61 -119q0 -63 -37.5 -104t-99.5 -41z" />
<glyph unicode="&#x201d;" horiz-adv-x="825" d="M217 1554q63 0 99 -40t36 -101q0 -52 -45 -162l-108 -272h-127l69 311q-61 45 -61 119q0 63 37.5 104t99.5 41zM612 1554q63 0 99.5 -40t36.5 -101q0 -33 -10 -65t-36 -97l-108 -272h-127l70 311q-62 46 -62 119q0 63 37.5 104t99.5 41z" />
<glyph unicode="&#x201e;" horiz-adv-x="825" d="M217 252q63 0 99 -40t36 -101q0 -52 -45 -162l-108 -273h-127l69 312q-61 45 -61 118q0 63 37.5 104.5t99.5 41.5zM612 252q63 0 99.5 -40t36.5 -101q0 -33 -10 -65t-36 -97l-108 -273h-127l70 312q-62 46 -62 118q0 63 37.5 104.5t99.5 41.5z" />
<glyph unicode="&#x2022;" horiz-adv-x="641" d="M319 950q108 0 178 -71.5t70 -178.5q0 -109 -70 -180t-178 -71q-106 0 -175.5 72t-69.5 179q0 108 69 179t176 71z" />
<glyph unicode="&#x2026;" horiz-adv-x="1320" d="M219 289q70 0 113 -47t43 -113t-43 -113t-113 -47q-68 0 -112 47.5t-44 112.5t44 112.5t112 47.5zM659 289q70 0 113 -47t43 -113t-43 -113t-113 -47q-68 0 -111.5 47.5t-43.5 112.5t43.5 112.5t111.5 47.5zM1100 289q70 0 112.5 -47t42.5 -113t-42.5 -113t-112.5 -47 q-68 0 -112 47.5t-44 112.5t44 112.5t112 47.5z" />
<glyph unicode="&#x202f;" horiz-adv-x="399" />
<glyph unicode="&#x2039;" horiz-adv-x="632" d="M395 1114l156 -98l-229 -430l229 -430l-156 -101l-313 447v166z" />
<glyph unicode="&#x203a;" horiz-adv-x="632" d="M236 1114l315 -446v-166l-315 -447l-154 101l229 430l-229 430z" />
<glyph unicode="&#x205f;" horiz-adv-x="499" />
<glyph unicode="&#x20ac;" horiz-adv-x="993" d="M416 463q21 -162 84.5 -231.5t171.5 -69.5q105 0 243 80v-195q-139 -78 -272 -78q-195 0 -318 123.5t-161 370.5h-144l35 143h103v168h-138l35 148h111q46 236 176 358.5t311 122.5t318 -117l-88 -156q-56 43 -106 62.5t-111 19.5q-199 0 -246 -290h414l-35 -148h-387 v-168h360l-33 -143h-323z" />
<glyph unicode="&#x2122;" horiz-adv-x="1515" d="M641 1415l-25 -155h-186v-652h-186v652h-193v155h590zM1399 1415l26 -807h-180l-8 379q0 132 12 270h-4l-125 -565h-145l-135 563h-4q13 -118 10 -268l-8 -379h-170l24 807h242l113 -536l104 536h248z" />
<glyph unicode="&#x25fc;" horiz-adv-x="1085" d="M0 1085h1085v-1085h-1085v1085z" />
<glyph unicode="&#xfb03;" horiz-adv-x="1507" d="M897 1083h494v-1083h-252v901h-242v-901h-252v901h-242v-901h-251v901h-138v182h138v123q0 140 86.5 228t250.5 88q130 0 256 -60q92 82 259 82q163 0 294 -78l-71 -159q-95 45 -197 45q-72 0 -102.5 -31.5t-30.5 -101.5v-136zM645 1083v142q0 43 10 88q-65 24 -135 24 q-65 0 -91 -27t-26 -91v-136h242z" />
<glyph unicode="&#xfb04;" horiz-adv-x="1562" d="M1503 180l49 -172q-72 -39 -153 -39q-112 0 -177 68t-65 184v1114q-77 21 -135 21q-70 0 -97.5 -30t-27.5 -101v-142h174l-29 -182h-145v-901h-252v901h-242v-901h-251v901h-138v182h138v123q0 140 86.5 229t250.5 89q125 0 254 -58q88 78 240 78q104 0 199 -37l227 25 v-1301q0 -59 51 -59q3 0 43 8zM645 1083v144q0 41 10 86q-67 22 -135 22q-65 0 -91 -26t-26 -90v-136h242z" />
</font>
</defs>
</svg>
