<?xml version="1.0" standalone="no"?>
<!DOCTYPE svg PUBLIC "-//W3C//DTD SVG 1.1//EN" "http://www.w3.org/Graphics/SVG/1.1/DTD/svg11.dtd" >
<svg xmlns="http://www.w3.org/2000/svg" xmlns:xlink="http://www.w3.org/1999/xlink" version="1.1">
<metadata></metadata>
<defs>
<font id="fira_sans_compressedultraLtIt" horiz-adv-x="966" >
<font-face units-per-em="2048" ascent="1638" descent="-410" />
<missing-glyph horiz-adv-x="477" />
<glyph unicode="&#xfb01;" horiz-adv-x="950" d="M838 1065l-150 -1065h-70l142 1006h-418l-139 -1004q-13 -94 -33.5 -158t-56.5 -109.5t-75 -74t-104 -63.5l-20 51q71 40 109 75t66.5 102.5t43.5 178.5l139 1002h-149l8 59h152l26 197q17 121 89.5 186t189.5 65q121 0 221 -83l-33 -48q-92 72 -192 72q-181 0 -207 -201 l-27 -188h488z" />
<glyph unicode="&#xfb02;" horiz-adv-x="989" d="M772 43q26 0 66 14l18 -55q-53 -22 -96 -22q-62 0 -95 41.5t-22 123.5l174 1254q-123 53 -233 53q-182 0 -207 -199l-27 -188h240l-21 -59h-227l-139 -1004q-13 -94 -33.5 -158t-56.5 -109.5t-75 -74t-104 -63.5l-20 51q71 40 109 75t66.5 102.5t43.5 178.5l139 1002 h-149l8 59h152l26 197q17 121 89.5 186t189.5 65q132 0 241 -59l68 10l-184 -1321q-15 -100 59 -100z" />
<glyph horiz-adv-x="0" />
<glyph horiz-adv-x="682" />
<glyph unicode="&#xd;" horiz-adv-x="477" />
<glyph unicode=" "  horiz-adv-x="477" />
<glyph unicode="&#x09;" horiz-adv-x="477" />
<glyph unicode="&#xa0;" horiz-adv-x="477" />
<glyph unicode="!" horiz-adv-x="446" d="M168 428l131 969h70l-138 -969h-63zM150 -20q-27 0 -43.5 16.5t-16.5 40.5q0 30 19.5 51t50.5 21q27 0 43 -17t16 -41q0 -30 -19 -50.5t-50 -20.5z" />
<glyph unicode="&#x22;" horiz-adv-x="645" d="M201 897l61 500h72l-80 -500h-53zM494 897l61 500h72l-80 -500h-53z" />
<glyph unicode="#" horiz-adv-x="833" d="M864 932h-135l-117 -475h123l-10 -64h-129l-98 -393h-72l98 393h-321l-99 -393h-67l98 393h-129l10 64h136l116 475h-123l7 63h133l90 361h67l-90 -361h322l90 361h72l-91 -361h127zM541 457l116 475h-321l-117 -475h322z" />
<glyph unicode="$" horiz-adv-x="880" d="M608 1374q140 -13 252 -145l-47 -41q-105 125 -246 125q-129 0 -212 -82.5t-83 -216.5q0 -95 48.5 -151.5t164.5 -104.5q138 -59 201.5 -133.5t63.5 -200.5q0 -58 -13 -115.5t-42 -113.5t-71.5 -100t-106 -74.5t-140.5 -38.5l-43 -283h-60l41 281q-192 3 -311 163l47 41 q108 -141 275 -141q92 0 163 35t110.5 92t59 120.5t19.5 129.5q0 101 -50.5 163t-172.5 117q-135 58 -194.5 128.5t-59.5 181.5q0 149 98 254t250 112l41 293h61z" />
<glyph unicode="%" horiz-adv-x="1349" d="M1184 1430l-1004 -1432l51 -37l1002 1432zM395 733q-95 0 -148.5 65.5t-53.5 182.5q0 68 18.5 136.5t53.5 128t93 97t129 37.5q94 0 147.5 -65t53.5 -180q0 -68 -18.5 -137t-53 -129.5t-92.5 -98t-129 -37.5zM397 791q59 0 105.5 35.5t71 91t37 112t12.5 109.5 q0 83 -34 133.5t-104 50.5q-60 0 -105.5 -35t-70.5 -90.5t-37 -112t-12 -110.5q0 -83 33.5 -133.5t103.5 -50.5zM903 -20q-94 0 -147.5 65t-53.5 182q0 68 18.5 136.5t53 128.5t92.5 97.5t129 37.5q95 0 149 -65.5t54 -180.5q0 -68 -18.5 -137t-53.5 -129t-93.5 -97.5 t-129.5 -37.5zM907 37q59 0 105.5 35.5t71 91t37 112t12.5 109.5q0 84 -34 134t-104 50q-60 0 -105.5 -35t-70.5 -90.5t-37 -112t-12 -110.5q0 -84 33 -134t104 -50z" />
<glyph unicode="&#x26;" horiz-adv-x="1230" d="M659 1419q109 0 177.5 -69.5t68.5 -175.5q0 -125 -73 -218.5t-273 -218.5l293 -426q95 167 182 381l60 -24q-100 -237 -203 -402l168 -246l-58 -38l-153 227q-171 -229 -397 -229q-139 0 -220 86.5t-81 224.5t69 248.5t246 218.5q-115 169 -115 305q0 68 19 130 t55.5 113.5t97 82t137.5 30.5zM659 1358q-63 0 -111 -26t-75 -70t-40 -94t-13 -105q0 -127 102 -279q128 79 196 142t92 118t24 130q0 83 -49.5 133.5t-125.5 50.5zM500 711q-108 -64 -171 -134.5t-85.5 -136.5t-22.5 -149q0 -107 61.5 -177.5t170.5 -70.5q205 0 356 215z " />
<glyph unicode="'" horiz-adv-x="352" d="M201 897l61 500h72l-80 -500h-53z" />
<glyph unicode="(" horiz-adv-x="542" d="M559 1706l41 -33q-222 -318 -324 -600t-102 -633q0 -195 40 -346.5t120 -337.5l-49 -24q-46 104 -70 164.5t-53.5 154t-42.5 188t-13 201.5q0 194 28 358.5t88.5 317.5t139 288t197.5 302z" />
<glyph unicode=")" horiz-adv-x="542" d="M311 1702q45 -105 68.5 -165t53 -153.5t42 -187t12.5 -199.5q0 -192 -28 -357.5t-88.5 -319t-139 -290.5t-196.5 -302l-43 32q223 320 324.5 601t101.5 636q0 194 -39 344t-117 336z" />
<glyph unicode="*" horiz-adv-x="763" d="M778 1217l-272 -91l127 -266l-62 -31l-110 267l-187 -267l-53 37l201 262l-244 93l29 57l235 -104l41 329h68l-57 -332l266 103z" />
<glyph unicode="+" horiz-adv-x="845" d="M528 1024l-45 -313h254l-10 -68h-254l-43 -313h-70l46 313h-256l8 68h258l45 313h67z" />
<glyph unicode="," horiz-adv-x="348" d="M109 109q26 0 42.5 -17t16.5 -43q0 -30 -35 -96l-121 -242h-49l107 277q-29 16 -29 51q0 31 19.5 50.5t48.5 19.5z" />
<glyph unicode="-" horiz-adv-x="671" d="M131 608l10 66h428l-10 -66h-428z" />
<glyph unicode="." horiz-adv-x="350" d="M100 -20q-27 0 -43 16.5t-16 40.5q0 30 19.5 51t50.5 21q27 0 43 -17t16 -41q0 -30 -19.5 -50.5t-50.5 -20.5z" />
<glyph unicode="/" horiz-adv-x="894" d="M768 1638l57 -16l-645 -1819l-57 15z" />
<glyph unicode="0" d="M616 1380q-98 0 -180.5 -65t-137 -169.5t-93 -237.5t-55.5 -265.5t-17 -257.5q0 -405 258 -405q98 0 180 65t136.5 169.5t92.5 237.5t55 265.5t17 257.5q0 405 -256 405zM612 1317q97 0 143 -82.5t46 -257.5q0 -150 -26.5 -309.5t-75.5 -301t-129.5 -232.5t-176.5 -91 q-95 0 -141.5 83.5t-46.5 256.5q0 150 26.5 309.5t75 301t129 232.5t176.5 91z" />
<glyph unicode="1" horiz-adv-x="688" d="M571 1356l-190 -1356h-70l176 1272l-307 -215l-28 53l362 246h57z" />
<glyph unicode="2" horiz-adv-x="790" d="M455 1380q125 0 196.5 -80t71.5 -215q0 -74 -15 -135.5t-52 -138t-114.5 -180.5t-187 -235.5t-284.5 -329.5l542 2l-24 -68h-611l13 68q230 260 358 415.5t197.5 268.5t87.5 178.5t18 152.5q0 112 -52 174t-146 62q-80 0 -144.5 -40.5t-130.5 -117.5l-47 39 q81 95 158.5 137.5t165.5 42.5z" />
<glyph unicode="3" horiz-adv-x="833" d="M508 1380q121 0 187.5 -73t66.5 -199q0 -152 -79.5 -258.5t-213.5 -126.5q97 -10 153 -76.5t56 -195.5q0 -83 -24.5 -163.5t-72.5 -150.5t-131.5 -113.5t-189.5 -43.5q-185 0 -283 172l52 34q46 -77 101.5 -110t131.5 -33q74 0 134 26t98 68t63.5 97t36 110t10.5 111 q0 233 -215 233h-72l21 62h47q74 0 133.5 31.5t96 84t56 115t19.5 127.5q0 102 -47.5 157.5t-136.5 55.5q-72 0 -136.5 -32t-138.5 -101l-38 43q80 75 155 112t160 37z" />
<glyph unicode="4" horiz-adv-x="860" d="M780 436l-8 -63h-151l-54 -373h-69l53 373h-494l11 57l471 950l55 -24l-455 -920h420l68 420h61l-59 -420h151z" />
<glyph unicode="5" horiz-adv-x="806" d="M807 1356l-21 -62h-458l-72 -512q104 74 205 74q120 0 187 -88t67 -236q0 -72 -14.5 -146t-48 -148t-82 -130.5t-122.5 -92t-163 -35.5q-183 0 -283 157l51 41q45 -69 99.5 -102t136.5 -33q74 0 135 31t100.5 81t67 115t39.5 129.5t12 128.5q0 125 -52 196t-142 71 q-60 0 -106.5 -18.5t-106.5 -59.5h-58l90 639h539z" />
<glyph unicode="6" horiz-adv-x="905" d="M674 1319q-100 0 -190.5 -87.5t-156.5 -236t-102 -338.5q65 104 150.5 163t175.5 59q113 0 181.5 -78t68.5 -226q0 -99 -24.5 -200t-72 -191t-127.5 -147t-180 -57q-95 0 -157 51t-87.5 134.5t-25.5 199.5q0 136 24 278.5t72 274t113 235t153.5 165.5t186.5 62 q111 0 188 -77l-41 -46q-72 62 -149 62zM545 817q-86 0 -172 -69.5t-162 -192.5q-12 -86 -12 -190q0 -160 47.5 -241t150.5 -81q86 0 153 53.5t104.5 136.5t56 170.5t18.5 169.5q0 120 -49 182t-135 62z" />
<glyph unicode="7" horiz-adv-x="731" d="M784 1356l-8 -56l-631 -1312l-63 18l616 1284l-530 2l8 64h608z" />
<glyph unicode="8" horiz-adv-x="919" d="M592 711q101 -56 148.5 -125.5t47.5 -167.5q0 -195 -115.5 -316.5t-289.5 -121.5q-144 0 -224.5 83.5t-80.5 221.5q0 311 328 454q-78 45 -116 109t-38 156q0 82 29.5 153.5t78.5 119.5t111.5 75.5t128.5 27.5q118 0 191 -72t73 -200q0 -135 -62.5 -224.5t-209.5 -172.5z M319 1006q0 -81 36 -138t122 -98l64 -33q137 78 195.5 163t58.5 206q0 103 -52 159t-143 56q-115 0 -198 -89.5t-83 -225.5zM385 43q141 0 236.5 99.5t95.5 275.5q0 92 -43.5 151t-145.5 109l-65 33q-98 -42 -163.5 -95t-96.5 -112t-42 -109.5t-11 -111.5q0 -114 61.5 -177 t173.5 -63z" />
<glyph unicode="9" horiz-adv-x="884" d="M549 1380q135 0 201.5 -92.5t66.5 -261.5q0 -89 -7 -169t-27.5 -173.5t-53 -174.5t-88 -164.5t-128.5 -151.5t-177.5 -128t-231.5 -100l-16 51q129 48 226.5 106t180 140.5t139.5 196t89 260.5q-155 -203 -328 -203q-113 0 -178 87.5t-65 240.5q0 73 15.5 147.5 t48.5 144.5t79 124.5t112 87t142 32.5zM403 580q164 0 332 233q13 127 13 213q0 293 -201 293q-82 0 -147 -46t-102.5 -118.5t-57 -153t-19.5 -159.5q0 -127 47.5 -194.5t134.5 -67.5z" />
<glyph unicode=":" horiz-adv-x="350" d="M219 811q-27 0 -43 16.5t-16 40.5q0 30 19 51t50 21q27 0 43.5 -16.5t16.5 -40.5q0 -30 -19.5 -51t-50.5 -21zM100 -20q-27 0 -43 16.5t-16 40.5q0 30 19.5 51t50.5 21q27 0 43 -17t16 -41q0 -30 -19.5 -50.5t-50.5 -20.5z" />
<glyph unicode=";" horiz-adv-x="350" d="M219 811q-27 0 -43 16.5t-16 40.5q0 30 19 51t50 21q27 0 43.5 -16.5t16.5 -40.5q0 -30 -19.5 -51t-50.5 -21zM109 109q26 0 42.5 -17t16.5 -43q0 -30 -35 -96l-121 -242h-49l107 277q-29 16 -29 51q0 31 19.5 50.5t48.5 19.5z" />
<glyph unicode="&#x3c;" horiz-adv-x="860" d="M770 1051l23 -56l-574 -325l486 -308l-39 -55l-521 340l9 55z" />
<glyph unicode="=" horiz-adv-x="845" d="M174 811l8 66h580l-10 -66h-578zM127 479l8 66h580l-10 -66h-578z" />
<glyph unicode="&#x3e;" horiz-adv-x="860" d="M236 1051l520 -342l-11 -54l-616 -348l-23 55l576 324l-487 309z" />
<glyph unicode="?" horiz-adv-x="763" d="M518 1419q115 0 179.5 -67t64.5 -174q0 -70 -22 -128.5t-57.5 -98.5t-78 -76t-85 -69t-78 -68.5t-57.5 -83.5t-22 -105q0 -38 9 -94l-64 -17q-14 65 -14 109q0 64 22 117t57 91t77.5 72.5t84.5 69t77 72.5t57 91.5t22 117.5q0 84 -45 131t-129 47q-78 0 -143 -37.5 t-140 -116.5l-43 39q79 92 158 135t170 43zM307 -23q-27 0 -43 17t-16 41q0 30 19 50.5t50 20.5q27 0 43.5 -16.5t16.5 -40.5q0 -30 -19.5 -51t-50.5 -21z" />
<glyph unicode="@" horiz-adv-x="1757" d="M1038 1419q110 0 203 -31.5t160.5 -89t115 -136.5t70.5 -174.5t23 -203.5q0 -126 -24.5 -254.5t-71.5 -242t-125.5 -185t-174.5 -71.5q-87 0 -131.5 60t-42.5 163q-117 -219 -282 -219q-102 0 -161.5 77t-59.5 228q0 82 15.5 167.5t50 171t84 152.5t125 108.5t165.5 41.5 q105 0 203 -57l-72 -545q-6 -46 -8.5 -81.5t0.5 -76.5t14.5 -68t36.5 -45t63 -18q64 0 119 45.5t92 118.5t63 165t38 184t12 177q0 259 -131.5 416.5t-372.5 157.5q-106 0 -202 -28t-171.5 -78t-140 -117.5t-112.5 -147.5t-84.5 -166.5t-59 -176.5t-34 -175.5t-11.5 -165.5 q0 -297 146 -471t393 -174q179 0 332 67l10 -61q-92 -35 -168 -52.5t-176 -17.5q-272 0 -439 192.5t-167 516.5q0 98 15.5 202.5t50 214.5t84 211t123 191.5t161.5 157t205 105t249 38.5zM764 96q83 0 157 73t117 179l74 539q-70 31 -137 31q-79 0 -144 -40t-106 -102.5 t-69.5 -141.5t-40 -153.5t-11.5 -142.5q0 -120 43 -181t117 -61z" />
<glyph unicode="A" d="M768 0l-51 403h-504l-166 -403h-74l584 1397h92l193 -1397h-74zM238 467h471l-113 872z" />
<glyph unicode="B" horiz-adv-x="1024" d="M670 739q229 -34 229 -280q0 -61 -13.5 -121t-47.5 -122.5t-85 -109t-134 -76.5t-187 -30h-311l196 1397h297q164 0 253 -74.5t89 -216.5q0 -144 -77 -242.5t-209 -124.5zM379 1331l-80 -561h256q83 0 148 28t103.5 75.5t58.5 106t20 124.5q0 227 -271 227h-235zM444 66 q87 0 155.5 25.5t110 65.5t68.5 93.5t37 104.5t10 104q0 248 -264 248h-270l-90 -641h243z" />
<glyph unicode="C" horiz-adv-x="927" d="M729 1419q87 0 148.5 -31.5t115.5 -91.5l-45 -45q-54 54 -103 77.5t-118 23.5q-92 0 -171 -39t-135.5 -107t-100 -154.5t-69.5 -186t-39 -197t-13 -191.5q0 -211 77.5 -320.5t210.5 -109.5q84 0 147 29.5t128 85.5l41 -51q-144 -131 -320 -131q-163 0 -259.5 128.5 t-96.5 366.5q0 127 20.5 254.5t68 253t115.5 221.5t171 155.5t227 59.5z" />
<glyph unicode="D" horiz-adv-x="1083" d="M578 1397q423 0 423 -469q0 -141 -21 -271t-70 -251t-121.5 -210t-184.5 -142.5t-250 -53.5h-233l196 1397h261zM578 1331h-199l-178 -1265h166q122 0 220 52t161 136.5t105 198.5t59.5 232t17.5 243q0 95 -19.5 167.5t-51 116.5t-78.5 71.5t-95.5 37.5t-107.5 10z" />
<glyph unicode="E" horiz-adv-x="835" d="M879 1397l-19 -66h-481l-78 -565h416l-10 -64h-418l-88 -636h504l-13 -66h-571l196 1397h562z" />
<glyph unicode="F" horiz-adv-x="794" d="M870 1397l-20 -66h-471l-82 -594h408l-9 -63h-409l-94 -674h-72l196 1397h553z" />
<glyph unicode="G" horiz-adv-x="1032" d="M731 1419q90 0 159 -31.5t132 -97.5l-49 -45q-54 57 -111 82t-135 25q-102 0 -188 -48t-147 -131.5t-104.5 -195.5t-64 -240.5t-20.5 -267.5q0 -212 78 -318t229 -106q132 0 272 80l78 547h-233v67h313l-90 -653q-165 -106 -344 -106q-181 0 -279 125.5t-98 367.5 q0 187 40 356.5t114 301.5t190 210t258 78z" />
<glyph unicode="H" horiz-adv-x="1116" d="M193 0h-72l196 1397h72l-88 -629h582l88 629h71l-196 -1397h-72l100 705h-583z" />
<glyph unicode="I" horiz-adv-x="462" d="M389 1397l-196 -1397h-72l196 1397h72z" />
<glyph unicode="J" horiz-adv-x="489" d="M426 1397l-172 -1217q-17 -114 -48.5 -182.5t-86.5 -115.5t-160 -99l-22 51q129 70 177 138t70 216l170 1209h72z" />
<glyph unicode="K" horiz-adv-x="899" d="M121 0l196 1397h72l-196 -1397h-72zM727 0l-424 752l594 645h80l-596 -649l426 -748h-80z" />
<glyph unicode="L" horiz-adv-x="763" d="M389 1397l-188 -1327h485l-22 -70h-543l196 1397h72z" />
<glyph unicode="M" horiz-adv-x="1294" d="M1171 1397l-79 -1397h-68l39 696q25 474 39 643l-469 -1169h-74l-153 1165q-12 -63 -132 -624l-153 -711h-70l311 1397h99l147 -1143l455 1143h108z" />
<glyph unicode="N" horiz-adv-x="1120" d="M1047 1397l-199 -1397h-90l-396 1327q-9 -139 -53 -448l-121 -879h-67l196 1397h91l397 -1321q10 158 47 411l125 910h70z" />
<glyph unicode="O" horiz-adv-x="1169" d="M725 1419q172 0 268.5 -126t96.5 -363q0 -101 -14 -205.5t-42.5 -212.5t-77.5 -202.5t-113 -169t-154.5 -117.5t-196.5 -43q-172 0 -268.5 128.5t-96.5 364.5q0 98 14.5 202t44 211.5t79 202t113 169t153.5 118t194 43.5zM725 1354q-94 0 -173.5 -42t-135.5 -113.5 t-98.5 -160.5t-67.5 -190t-37 -195.5t-12 -181.5q0 -209 77 -317.5t216 -108.5q83 0 155.5 32t124.5 86.5t94.5 128.5t69.5 154t45 167.5t25.5 166.5t7.5 152q0 209 -75.5 315.5t-215.5 106.5z" />
<glyph unicode="P" horiz-adv-x="950" d="M578 1397q181 0 275.5 -81t94.5 -245q0 -75 -14.5 -143.5t-50.5 -136t-91.5 -116.5t-144.5 -79.5t-201 -30.5h-174l-79 -565h-72l196 1397h261zM457 631q98 0 173 26.5t120 69t74 102t39.5 117.5t10.5 123q0 139 -74.5 200.5t-226.5 61.5h-194l-98 -700h176z" />
<glyph unicode="Q" horiz-adv-x="1173" d="M655 20q206 -13 312 -147l-58 -49q-72 91 -167.5 123.5t-256.5 32.5q-169 3 -263.5 131t-94.5 362q0 98 14.5 202t44 211.5t79 202t113 169t153.5 118t194 43.5q172 0 268.5 -126t96.5 -363q0 -132 -24 -267t-73 -266t-136.5 -232.5t-201.5 -144.5zM201 471 q0 -209 77 -317.5t216 -108.5q83 0 155.5 32t124.5 86.5t94.5 128.5t69.5 154t45 167.5t25.5 166.5t7.5 152q0 209 -75.5 315.5t-215.5 106.5q-94 0 -173.5 -42t-135.5 -113.5t-98.5 -160.5t-67.5 -190t-37 -195.5t-12 -181.5z" />
<glyph unicode="R" horiz-adv-x="978" d="M942 1098q0 -72 -18.5 -138.5t-55.5 -127t-102 -105t-150 -63.5l224 -664h-76l-219 651h-260l-92 -651h-72l196 1397h273q181 0 266.5 -75.5t85.5 -223.5zM293 717h211q82 0 146.5 23t104.5 60.5t66 88t36.5 101.5t10.5 106q0 122 -64 178.5t-214 56.5h-211z" />
<glyph unicode="S" horiz-adv-x="901" d="M584 1419q96 0 167.5 -39t133.5 -112l-47 -41q-60 67 -119 97t-137 30q-128 0 -213.5 -91t-85.5 -221q0 -92 47.5 -146t175.5 -112q142 -65 204 -143t62 -207q0 -84 -28 -163.5t-80.5 -145t-137 -105.5t-188.5 -40q-110 0 -189.5 44.5t-142.5 127.5l49 41 q57 -72 123 -110t160 -38q88 0 159 34t114 90t66 123.5t23 139.5q0 106 -50.5 170t-176.5 123q-148 68 -206 136t-58 177q0 96 44.5 182t132 142.5t198.5 56.5z" />
<glyph unicode="T" horiz-adv-x="811" d="M915 1397l-18 -68h-342l-188 -1329h-72l188 1329h-346l8 68h770z" />
<glyph unicode="U" horiz-adv-x="1079" d="M1024 1397l-145 -1043q-22 -161 -129.5 -267.5t-284.5 -106.5q-92 0 -159 30.5t-103.5 83.5t-49 120t-1.5 144l145 1039h72l-146 -1037q-20 -141 40 -228t206 -87q147 0 233 92t105 228l145 1032h72z" />
<glyph unicode="V" horiz-adv-x="933" d="M1006 1397l-572 -1397h-88l-176 1397h72l157 -1325l531 1325h76z" />
<glyph unicode="W" horiz-adv-x="1359" d="M1417 1397l-456 -1397h-89l-81 1323l-453 -1323h-88l-66 1397h68l53 -1319l453 1319h88l80 -1323l422 1323h69z" />
<glyph unicode="X" horiz-adv-x="839" d="M889 1397l-406 -643l258 -754h-73l-232 698l-413 -698h-78l456 756l-223 641h78l193 -592l360 592h80z" />
<glyph unicode="Y" horiz-adv-x="854" d="M946 1397l-481 -846l-78 -551h-72l78 553l-243 844h73l215 -774l428 774h80z" />
<glyph unicode="Z" horiz-adv-x="856" d="M-16 0l12 63l811 1268h-574l11 66h651l-8 -62l-813 -1267h620l-22 -68h-688z" />
<glyph unicode="[" horiz-adv-x="528" d="M557 1638l-6 -53h-182l-246 -1755h180l-8 -53h-244l262 1861h244z" />
<glyph unicode="\" horiz-adv-x="894" d="M436 1632l133 -1818l-59 -11l-133 1819z" />
<glyph unicode="]" horiz-adv-x="530" d="M530 1638l-264 -1861h-243l8 53h180l246 1755h-181l7 53h247z" />
<glyph unicode="^" horiz-adv-x="907" d="M645 1694l219 -615h-78l-178 531l-325 -531h-84l391 615h55z" />
<glyph unicode="_" horiz-adv-x="897" d="M-35 -219l8 63h758l-10 -63h-756z" />
<glyph unicode="`" horiz-adv-x="460" d="M244 1571l274 -197l-29 -43l-290 172z" />
<glyph unicode="a" horiz-adv-x="954" d="M584 1087q131 0 254 -75l-113 -787q-14 -88 -8 -128.5t45 -63.5l-25 -53q-50 24 -72 66t-12 124q-122 -190 -288 -190q-126 0 -197.5 97t-71.5 271q0 101 17 201.5t55 198.5t93.5 172.5t139 120.5t183.5 46zM582 1026q-71 0 -132.5 -29.5t-106 -80.5t-79 -117t-55 -142.5 t-31 -153.5t-10.5 -153q0 -148 51.5 -227.5t149.5 -79.5q159 0 293 227l100 711q-75 45 -180 45z" />
<glyph unicode="b" d="M621 1087q121 0 186 -89.5t65 -254.5q0 -100 -15 -201t-51 -203.5t-88.5 -181t-135.5 -128t-185 -49.5q-133 0 -278 67l207 1456l71 10l-84 -602q148 176 308 176zM614 1024q-154 0 -313 -199l-104 -737q92 -45 202 -45q74 0 136 32.5t105 89t75 126t50.5 150.5 t27.5 155.5t10 146.5q1 138 -47.5 209.5t-141.5 71.5z" />
<glyph unicode="c" horiz-adv-x="782" d="M567 1087q70 0 123.5 -25t104.5 -79l-45 -43q-39 42 -82 63t-103 21q-82 0 -150 -42.5t-112.5 -110t-75 -156t-44 -177.5t-13.5 -176q0 -158 58.5 -238.5t162.5 -80.5q61 0 113 23.5t110 68.5l33 -47q-121 -108 -258 -108q-136 0 -213.5 99.5t-77.5 282.5q0 67 8.5 136.5 t26.5 141t44.5 136.5t65 122t85.5 99t108 66t131 24z" />
<glyph unicode="d" d="M848 1516l70 -13l-213 -1503h-60l25 236q-143 -256 -322 -256q-119 0 -185.5 97t-66.5 271q0 99 17 200.5t53 198.5t87 172.5t126 121.5t162 46q158 0 227 -147zM541 1026q-89 0 -162.5 -63.5t-118 -164t-68.5 -217t-24 -231.5q0 -148 48.5 -227.5t137.5 -79.5 q50 0 96.5 23.5t87.5 70t76 100.5t74 130l68 481q-32 83 -81.5 130.5t-133.5 47.5z" />
<glyph unicode="e" horiz-adv-x="870" d="M823 852q0 -189 -171 -292t-480 -126q-2 -25 -2 -74q0 -159 58 -238t159 -79q72 0 133 27t129 82l35 -48q-73 -63 -144 -93.5t-153 -30.5q-135 0 -212 98t-77 280q0 106 18.5 209t57.5 197t94 166t134.5 114.5t172.5 42.5q118 0 183 -63.5t65 -171.5zM571 1026 q-85 0 -156 -44.5t-118 -121t-77 -169t-42 -197.5q288 24 432 111.5t144 246.5q0 80 -45.5 127t-137.5 47z" />
<glyph unicode="f" horiz-adv-x="526" d="M571 1452q-166 0 -194 -199l-27 -188h240l-21 -59h-227l-139 -1004q-13 -94 -33.5 -158t-56.5 -109.5t-75 -74t-104 -63.5l-20 51q71 40 109 75t66.5 102.5t43.5 178.5l139 1002h-149l8 59h152l26 197q17 120 86 185.5t174 65.5q98 0 195 -69l-33 -49q-86 57 -160 57z " />
<glyph unicode="g" horiz-adv-x="948" d="M586 1087q131 0 254 -75l-146 -1024q-16 -107 -50 -186t-83 -124.5t-105.5 -66.5t-123.5 -21q-150 0 -277 97l33 45q120 -82 246 -82q112 0 190 81t103 259l26 198q-124 -188 -284 -188q-127 0 -198 95t-73 263q-1 97 16 196t55.5 195.5t93.5 171t139 120.5t184 46z M584 1026q-71 0 -133 -29.5t-106.5 -80t-79.5 -116.5t-55.5 -141t-30.5 -150.5t-9 -148.5q2 -141 54 -219t149 -78q158 0 293 228l100 690q-75 45 -182 45z" />
<glyph unicode="h" horiz-adv-x="978" d="M637 1087q114 0 165.5 -84.5t31.5 -234.5l-109 -768h-70l109 764q36 262 -133 262q-93 0 -185.5 -101.5t-173.5 -269.5l-90 -655h-69l213 1503l69 13l-102 -725q159 296 344 296z" />
<glyph unicode="i" horiz-adv-x="444" d="M344 1393q-22 0 -35.5 13.5t-13.5 33.5q0 27 17 44t44 17q22 0 36 -13.5t14 -33.5q0 -26 -17 -43.5t-45 -17.5zM334 1065l-152 -1065h-69l151 1065h70z" />
<glyph unicode="j" horiz-adv-x="444" d="M346 1393q-22 0 -35.5 13.5t-13.5 33.5q0 27 17 44t44 17q22 0 36 -13.5t14 -33.5q0 -26 -17 -43.5t-45 -17.5zM-86 -403l-20 51q71 40 108.5 75.5t66 102t44.5 178.5l151 1061h70l-152 -1063q-10 -76 -27 -132.5t-37 -96t-53 -72t-66 -54.5t-85 -50z" />
<glyph unicode="k" horiz-adv-x="872" d="M395 1513l-106 -755q76 161 161 245t193 84q92 0 142.5 -57.5t50.5 -144.5q0 -136 -80.5 -235t-235.5 -158l187 -492h-72l-195 516q326 106 326 369q0 65 -32 104t-97 39q-99 0 -189 -108t-180 -312l-86 -608h-69l213 1503z" />
<glyph unicode="l" horiz-adv-x="468" d="M385 1513l-192 -1370q-15 -100 59 -100q27 0 67 14l17 -55q-53 -22 -94 -22q-63 0 -96 41t-23 124l192 1358z" />
<glyph unicode="m" horiz-adv-x="1427" d="M1102 1087q104 0 152 -87.5t26 -241.5l-106 -758h-70l104 754q39 272 -112 272q-85 0 -165 -98.5t-163 -280.5l-92 -647h-68l107 754q20 136 -11 204t-104 68q-86 0 -166 -102t-162 -287l-90 -637h-69l151 1065h58l-35 -289q68 147 149 229t168 82q97 0 145.5 -77 t38.5 -215q67 137 149 214.5t165 77.5z" />
<glyph unicode="n" horiz-adv-x="976" d="M637 1087q113 0 163.5 -84.5t30.5 -234.5l-108 -768h-70l109 764q36 262 -131 262q-95 0 -186.5 -101t-170.5 -270l-92 -655h-69l151 1065h58l-33 -281q77 146 160.5 224.5t187.5 78.5z" />
<glyph unicode="o" horiz-adv-x="952" d="M389 -20q-140 0 -215.5 101t-75.5 281q0 92 15.5 188t52 193.5t88.5 173t132 123t177 47.5q140 0 215.5 -101.5t75.5 -280.5q0 -92 -15.5 -188t-51.5 -193.5t-88 -173t-132.5 -123t-177.5 -47.5zM389 43q85 0 154 45.5t112.5 116.5t73 161.5t41.5 176t12 164.5 q0 156 -55.5 236.5t-163.5 80.5q-85 0 -154 -45.5t-112.5 -116.5t-73 -162t-41.5 -176.5t-12 -165.5q0 -154 56.5 -234.5t162.5 -80.5z" />
<glyph unicode="p" horiz-adv-x="956" d="M53 -410l211 1475h60l-17 -152q139 174 301 174q122 0 187 -89.5t65 -254.5q0 -71 -7.5 -143.5t-24 -148.5t-42 -143.5t-63.5 -128t-85 -104.5t-110.5 -69.5t-136.5 -25.5q-101 0 -207 47l-61 -428zM393 43q86 0 156.5 46t114 118.5t73.5 167.5t42 186.5t12 181.5 q1 139 -46.5 210t-140.5 71q-162 0 -307 -199l-102 -735q96 -47 198 -47z" />
<glyph unicode="q" horiz-adv-x="952" d="M573 -410l82 578q-121 -188 -288 -188q-127 0 -199 97t-72 271q0 83 12.5 167.5t37 168t65.5 155.5t94 128t126.5 88t158.5 32q130 0 250 -75l-197 -1413zM371 43q165 0 297 231l100 707q-75 45 -180 45q-86 0 -157.5 -42t-119 -110.5t-80.5 -158t-48 -181.5t-15 -184 q0 -147 53 -227t150 -80z" />
<glyph unicode="r" horiz-adv-x="614" d="M586 1087q40 0 82 -14l-23 -63q-32 12 -67 12q-97 0 -168.5 -96t-139.5 -287l-88 -639h-69l151 1065h60l-37 -270q56 143 127 217.5t172 74.5z" />
<glyph unicode="s" horiz-adv-x="776" d="M463 1087q151 0 260 -112l-43 -43q-52 48 -102 70t-117 22q-101 0 -165.5 -60t-64.5 -161q0 -73 39 -117.5t146 -91.5q121 -52 173 -118t52 -165q0 -154 -94.5 -242.5t-247.5 -88.5q-175 0 -299 135l47 43q52 -57 110.5 -86t143.5 -29q120 0 194 66.5t74 197.5 q0 79 -40.5 131t-151.5 101q-122 53 -169.5 112t-47.5 152q0 123 86 203.5t217 80.5z" />
<glyph unicode="t" horiz-adv-x="559" d="M319 1006l-110 -783q-12 -92 17.5 -137t90.5 -45q68 0 152 49l29 -49q-91 -61 -187 -61q-92 0 -139.5 64t-30.5 179l109 783h-146l9 59h147l51 266l56 6l-39 -272h233l-16 -59h-226z" />
<glyph unicode="u" horiz-adv-x="968" d="M340 -20q-111 0 -164 82.5t-33 224.5l111 778h70l-111 -780q-17 -119 18 -180.5t113 -61.5q198 0 354 379l88 643h70l-151 -1065h-54l35 295q-139 -315 -346 -315z" />
<glyph unicode="v" horiz-adv-x="788" d="M825 1065l-456 -1065h-86l-168 1065h73l144 -1004l420 1004h73z" />
<glyph unicode="w" horiz-adv-x="1181" d="M1198 1065l-373 -1065h-92l-76 993l-352 -993h-94l-76 1065h68l65 -1002l357 1002h86l75 -1004l342 1004h70z" />
<glyph unicode="x" horiz-adv-x="761" d="M766 1065l-338 -498l227 -567h-73l-203 524l-346 -524h-80l391 573l-199 492h74l174 -449l295 449h78z" />
<glyph unicode="y" horiz-adv-x="782" d="M819 1065l-450 -1071q-60 -140 -110.5 -213.5t-112 -113.5t-169.5 -73l-6 54q134 44 198 112.5t132 239.5h-29l-157 1065h73l138 -1014l419 1014h74z" />
<glyph unicode="z" horiz-adv-x="696" d="M713 1065l-11 -57l-639 -945h502l-18 -63h-574l9 57l641 944h-467l10 64h547z" />
<glyph unicode="{" horiz-adv-x="555" d="M590 1686l-6 -54q-78 0 -117 -44.5t-51 -137.5l-76 -549q-13 -94 -47 -132t-105 -54q67 -18 89 -60t8 -143l-74 -539q-12 -91 13.5 -133t99.5 -43l-5 -53q-95 0 -141 55.5t-31 169.5l78 570q10 80 -16 111.5t-96 31.5l8 66q69 0 107.5 33t50.5 112l77 571 q17 115 75 168.5t159 53.5z" />
<glyph unicode="|" horiz-adv-x="708" d="M543 1642l-258 -1845h-66l258 1845h66z" />
<glyph unicode="}" horiz-adv-x="555" d="M16 -256l4 53q77 0 116.5 44.5t51.5 138.5l78 548q13 95 47 133t105 54q-34 10 -54 22.5t-34.5 36t-15 57.5t4.5 87l76 538q12 91 -13 133t-99 43l4 54q95 0 141 -56t31 -170l-80 -569q-10 -80 17 -111.5t98 -31.5l-11 -64q-68 0 -105.5 -33.5t-49.5 -113.5l-80 -572 q-15 -115 -72.5 -168t-159.5 -53z" />
<glyph unicode="~" horiz-adv-x="804" d="M541 559q-32 0 -67.5 18t-61.5 39.5t-57.5 39.5t-57.5 18q-28 0 -52 -13t-39 -28t-40 -47l-41 30q47 65 85.5 95t92.5 30q33 0 67.5 -18t59 -39t56 -39t57.5 -18q37 0 64.5 21t62.5 65l41 -31q-45 -63 -82.5 -93t-87.5 -30z" />
<glyph unicode="&#xa1;" horiz-adv-x="446" d="M266 811q-27 0 -43 16.5t-16 40.5q0 30 19 51t50 21q27 0 43.5 -16.5t16.5 -40.5q0 -30 -19.5 -51t-50.5 -21zM252 514l-127 -911h-70l131 911h66z" />
<glyph unicode="&#xa2;" horiz-adv-x="782" d="M582 1087q122 -6 213 -104l-45 -43q-39 42 -82 63t-103 21q-82 0 -150 -42.5t-112.5 -110t-75 -156t-44 -177.5t-13.5 -176q0 -158 58.5 -238.5t162.5 -80.5q61 0 113 23.5t110 68.5l33 -47q-106 -94 -221 -106l-41 -283h-61l38 283q-125 9 -194.5 107t-69.5 273 q0 91 15 184t48 186t81 167t120 124.5t158 61.5l43 301h60z" />
<glyph unicode="&#xa3;" horiz-adv-x="851" d="M637 1380q157 0 240 -145l-48 -35q-37 61 -81 89t-111 28q-102 0 -168.5 -80t-81.5 -209l-37 -274h363l-11 -62h-362l-53 -391q-13 -99 -47 -148t-109 -87h563l-20 -66h-641l8 63q88 47 125.5 96t50.5 142l55 391h-112l10 62h111l38 280q21 153 104.5 249.5t213.5 96.5z " />
<glyph unicode="&#xa4;" horiz-adv-x="942" d="M872 270l-47 -39l-133 160q-80 -74 -198 -74t-195 74l-131 -160l-45 39l137 164q-72 101 -72 264q0 155 70 258l-141 168l47 39l133 -159q79 73 197 73q120 0 196 -73l131 159l45 -39l-137 -163q72 -101 72 -263q0 -157 -70 -260zM494 377q120 0 179.5 82t59.5 237 q0 322 -239 322q-118 0 -178 -82.5t-60 -239.5q0 -155 60 -237t178 -82z" />
<glyph unicode="&#xa5;" horiz-adv-x="837" d="M924 1356l-422 -674h198l-8 -61h-223l-33 -230h223l-8 -63h-223l-47 -328h-72l47 328h-225l8 63h226l32 230h-225l10 61h201l-240 674h78l219 -668l406 668h78z" />
<glyph unicode="&#xa6;" horiz-adv-x="708" d="M543 1642l-103 -735h-65l102 735h66zM387 537l-102 -740h-66l103 740h65z" />
<glyph unicode="&#xa7;" horiz-adv-x="944" d="M631 1317q-111 0 -172.5 -64.5t-61.5 -156.5q0 -69 39 -116t144 -97q112 -52 158 -112.5t46 -149.5q0 -93 -41.5 -160t-146.5 -137q70 -70 70 -177q0 -123 -85 -202.5t-225 -79.5q-86 0 -147 22.5t-121 69.5l37 49q100 -80 233 -80q113 0 174.5 62t61.5 157q0 73 -39 122 t-135 91q-117 53 -169 114.5t-52 152.5q0 93 46 163.5t148 139.5q-67 67 -67 168q0 120 86 201t217 81q135 0 250 -92l-39 -49q-54 42 -101.5 61t-107.5 19zM715 621q0 65 -34 115.5t-128 92.5q-82 40 -119 66q-91 -66 -127.5 -125.5t-36.5 -142.5q0 -70 39 -119t142 -94 q60 -26 106 -58q95 67 126.5 129.5t31.5 135.5z" />
<glyph unicode="&#xa8;" horiz-adv-x="528" d="M233 1372q-21 0 -34 13t-13 34q0 25 16 42.5t42 17.5q21 0 34 -13t13 -34q0 -25 -16 -42.5t-42 -17.5zM535 1372q-21 0 -34.5 13t-13.5 34q0 25 16 42.5t42 17.5q21 0 34 -13t13 -34q0 -25 -15.5 -42.5t-41.5 -17.5z" />
<glyph unicode="&#xa9;" horiz-adv-x="1355" d="M729 1489q213 0 348 -159t135 -439q0 -279 -135 -439.5t-348 -160.5t-349 160t-136 440q0 279 136 438.5t349 159.5zM729 1430q-190 0 -307 -142t-117 -397q0 -258 116.5 -398.5t307.5 -140.5q188 0 305 142t117 397q0 257 -116.5 398t-305.5 141zM727 1247q93 0 162 -63 l-33 -43q-57 45 -127 45q-32 0 -60 -14t-54 -45.5t-41 -91t-15 -140.5q0 -299 174 -299q71 0 137 55l31 -45q-71 -71 -170 -71q-108 0 -171.5 90t-63.5 270q0 92 20 162.5t53.5 110.5t73.5 59.5t84 19.5z" />
<glyph unicode="&#xaa;" horiz-adv-x="876" d="M387 565q-92 0 -143 58t-51 153q0 132 85 208.5t234 76.5h143l13 86q9 101 -19 144.5t-110 43.5q-95 0 -195 -43l-20 54q117 51 221 51q213 0 192 -248l-55 -395q-9 -49 -3 -85.5t38 -54.5l-19 -49q-44 14 -64.5 45t-17.5 88q-98 -133 -229 -133zM393 627q134 0 223 157 l31 217h-133q-71 0 -122 -19.5t-77.5 -53t-38.5 -71t-12 -81.5q0 -69 32 -109t97 -40zM74 0l8 66h580l-11 -66h-577z" />
<glyph unicode="&#xab;" horiz-adv-x="964" d="M479 1042l45 -30l-295 -426l177 -418l-50 -29l-204 426l6 47zM842 1042l45 -30l-295 -426l176 -418l-49 -29l-205 426l6 47z" />
<glyph unicode="&#xac;" horiz-adv-x="858" d="M745 686l-40 -301h-70l33 238h-523l9 63h591z" />
<glyph unicode="&#xad;" horiz-adv-x="671" d="M131 608l10 66h428l-10 -66h-428z" />
<glyph unicode="&#xae;" horiz-adv-x="1069" d="M604 1491q170 0 280.5 -124.5t110.5 -340.5q0 -214 -111.5 -343.5t-279.5 -129.5q-170 0 -281.5 124t-111.5 341q0 212 112.5 342.5t280.5 130.5zM604 606q145 0 241.5 113.5t96.5 306.5q0 194 -95 302t-243 108q-145 0 -241.5 -112.5t-96.5 -305.5q0 -195 96 -303.5 t242 -108.5zM764 1147q0 -119 -105 -152l123 -243h-67l-115 237h-70v-237h-59v553h109q90 0 137 -41.5t47 -116.5zM530 1249v-207h72q103 0 103 105q0 102 -115 102h-60z" />
<glyph unicode="&#xaf;" horiz-adv-x="499" d="M559 1397h-375l9 65h374z" />
<glyph unicode="&#xb0;" horiz-adv-x="870" d="M426 829q-93 0 -150 64.5t-57 177.5q0 144 80.5 246t202.5 102q91 0 148 -64t57 -177q0 -144 -80 -246.5t-201 -102.5zM428 891q95 0 153 82.5t58 204.5q0 85 -37 131.5t-102 46.5q-96 0 -153.5 -81.5t-57.5 -203.5q0 -86 36.5 -133t102.5 -47z" />
<glyph unicode="&#xb1;" horiz-adv-x="847" d="M528 1028l-45 -313h254l-10 -68h-254l-43 -313h-70l46 313h-256l8 68h258l45 313h67zM59 0l9 66h579l-10 -66h-578z" />
<glyph unicode="&#xb2;" horiz-adv-x="694" d="M463 1513q84 0 131 -54.5t47 -139.5q0 -56 -19 -112.5t-47.5 -104.5t-80.5 -108t-99.5 -108.5t-121.5 -121.5l-14 -14t-13 -12.5t-15 -14.5h347l-21 -61h-405l8 61q16 16 46 47q63 64 92.5 95t77.5 83t70.5 81.5t52.5 72t43 74.5t23 69.5t10 73.5q0 64 -30.5 100.5 t-83.5 36.5q-93 0 -176 -94l-43 37q103 114 221 114z" />
<glyph unicode="&#xb3;" horiz-adv-x="694" d="M471 1520q83 0 129.5 -48t46.5 -129q0 -97 -50 -157t-132 -76q64 -6 101.5 -47t37.5 -115q0 -130 -77.5 -215.5t-194.5 -85.5q-124 0 -195 111l45 33q57 -84 150 -84q96 0 151.5 69.5t55.5 171.5q0 129 -136 129h-51l19 58h30q84 0 133.5 61t49.5 145q0 60 -29.5 90.5 t-83.5 30.5q-50 0 -89.5 -16.5t-90.5 -59.5l-31 41q107 93 211 93z" />
<glyph unicode="&#xb4;" horiz-adv-x="468" d="M512 1573l33 -70l-340 -172l-25 45z" />
<glyph unicode="&#xb5;" horiz-adv-x="987" d="M756 354q-29 -199 -6 -356l-62 -10q-19 116 -12 231q-70 -112 -145.5 -175.5t-170.5 -63.5q-133 0 -174 131q-2 -79 -26 -254l-37 -254l-68 -4l209 1466h68l-107 -768q-19 -133 22.5 -193.5t119.5 -60.5q165 0 313 276l106 746h70z" />
<glyph unicode="&#xb6;" horiz-adv-x="1167" d="M688 1397h350l-252 -1794l-67 -13l242 1743h-226l-241 -1730l-70 -13l145 1031q-165 7 -241 90t-76 221q0 210 115.5 337.5t320.5 127.5z" />
<glyph unicode="&#xb7;" horiz-adv-x="350" d="M188 598q-27 0 -43 16.5t-16 40.5q0 30 19.5 51t50.5 21q27 0 43 -16.5t16 -40.5q0 -30 -19.5 -51t-50.5 -21z" />
<glyph unicode="&#xb8;" horiz-adv-x="413" d="M127 33l-31 -176q140 -15 140 -138q0 -75 -51 -120t-128 -45q-73 0 -127 40l29 48q48 -29 98 -29q49 0 79 26t30 78q0 49 -29.5 70.5t-105.5 22.5l47 223h49z" />
<glyph unicode="&#xb9;" horiz-adv-x="694" d="M549 1503l-119 -841h-63l106 763l-190 -120l-27 45l240 153h53z" />
<glyph unicode="&#xba;" horiz-adv-x="864" d="M555 1397q115 0 178.5 -80.5t63.5 -226.5q0 -67 -12 -137t-40.5 -140.5t-69 -125t-103.5 -88.5t-138 -34q-115 0 -178 80.5t-63 226.5q0 86 20.5 173.5t61.5 168.5t114 132t166 51zM555 1337q-63 0 -115 -31t-84 -80t-54 -112t-31 -123.5t-9 -118.5q0 -119 45 -183 t127 -64q78 0 138 46.5t92 119.5t47.5 149t15.5 150q0 119 -45 183t-127 64zM68 0l8 66h579l-10 -66h-577z" />
<glyph unicode="&#xbb;" horiz-adv-x="964" d="M262 1042l205 -428l-8 -47l-322 -428l-43 31l295 426l-176 418zM625 1042l204 -428l-8 -47l-321 -428l-43 31l295 426l-177 418z" />
<glyph unicode="&#xbc;" horiz-adv-x="1564" d="M1231 1526l47 -27l-913 -1634l-50 26zM352 555l107 764l-191 -121l-26 45l239 154h54l-119 -842h-64zM1421 281l-10 -60h-96l-31 -221h-61l32 221h-319l8 51l299 586l51 -22l-284 -555h254l43 249h53l-35 -249h96z" />
<glyph unicode="&#xbd;" horiz-adv-x="1564" d="M1231 1526l47 -27l-913 -1634l-50 26zM535 1397l-119 -842h-64l107 764l-191 -121l-26 45l239 154h54zM1241 852q84 0 131 -55t47 -140q0 -92 -56 -191t-114 -163t-200 -203l-39 -39h346l-21 -61h-405l8 61q196 201 245 257q136 155 163 268q8 35 8 71q0 64 -31 101 t-84 37q-92 0 -176 -95l-43 37q104 115 221 115z" />
<glyph unicode="&#xbe;" horiz-adv-x="1564" d="M1231 1526l47 -27l-913 -1634l-50 26zM590 842q0 -130 -78 -215.5t-195 -85.5q-123 0 -194 110l45 33q57 -84 149 -84q96 0 151.5 70t55.5 172q0 129 -135 129h-51l18 57h31q84 0 133 61.5t49 145.5q0 60 -29 90.5t-83 30.5q-50 0 -90 -17t-91 -59l-30 41q106 92 211 92 q83 0 129.5 -47.5t46.5 -128.5q0 -97 -50 -157t-132 -76q64 -6 101.5 -47t37.5 -115zM1421 281l-10 -60h-96l-31 -221h-61l32 221h-319l8 51l299 586l51 -22l-284 -555h254l43 249h53l-35 -249h96z" />
<glyph unicode="&#xbf;" horiz-adv-x="761" d="M453 1032q27 0 43 -16.5t16 -40.5q0 -30 -19.5 -51t-50.5 -21q-27 0 -43 17t-16 41q0 30 19.5 50.5t50.5 20.5zM240 -410q-116 0 -180 66.5t-64 173.5q0 70 22 128.5t57 98.5t77.5 76t85.5 69t78 68.5t57 83.5t22 105q0 21 -6 96l62 14q14 -65 14 -108q0 -64 -22 -117 t-57 -90.5t-77 -72t-84.5 -68.5t-77.5 -72t-57 -91.5t-22 -117.5q0 -85 45 -132.5t129 -47.5q79 0 144.5 37.5t137.5 117.5l43 -38q-78 -93 -156.5 -136t-170.5 -43z" />
<glyph unicode="&#xc0;" d="M805 1599l-29 -40l-291 151l45 68zM768 0l-51 403h-504l-166 -403h-74l584 1397h92l193 -1397h-74zM238 467h471l-113 872z" />
<glyph unicode="&#xc1;" d="M817 1710l-340 -151l-24 43l331 178zM768 0l-51 403h-504l-166 -403h-74l584 1397h92l193 -1397h-74zM238 467h471l-113 872z" />
<glyph unicode="&#xc2;" d="M645 1729l-225 -162l-33 37l242 196h41l182 -196l-35 -37zM557 1397h92l193 -1397h-74l-51 403h-504l-166 -403h-74zM238 467h471l-113 872z" />
<glyph unicode="&#xc3;" d="M549 1726q-32 0 -54 -16t-55 -57l-39 28q71 107 146 107q34 0 68 -22t65.5 -44t58.5 -22q28 0 53 20t56 66l41 -27q-70 -121 -148 -121q-37 0 -72.5 22t-65 44t-54.5 22zM557 1397h92l193 -1397h-74l-51 403h-504l-166 -403h-74zM238 467h471l-113 872z" />
<glyph unicode="&#xc4;" d="M485 1630q-21 0 -34 13t-13 34q0 25 16 42.5t42 17.5q21 0 34 -13t13 -34q0 -25 -16 -42.5t-42 -17.5zM786 1630q-21 0 -34 13t-13 34q0 25 16 42.5t42 17.5q21 0 34 -13t13 -34q0 -25 -16 -42.5t-42 -17.5zM557 1397h92l193 -1397h-74l-51 403h-504l-166 -403h-74z M238 467h471l-113 872z" />
<glyph unicode="&#xc5;" d="M633 1567q-63 0 -100 41.5t-37 107.5q0 90 51 145.5t125 55.5q62 0 98.5 -42t36.5 -108q0 -90 -50.5 -145t-123.5 -55zM670 1864q-53 0 -84 -41t-31 -107q0 -45 21.5 -70.5t58.5 -25.5q52 0 82.5 41t30.5 106q0 45 -21 71t-57 26zM768 0l-51 403h-504l-166 -403h-74 l584 1397h92l193 -1397h-74zM238 467h471l-113 872z" />
<glyph unicode="&#xc6;" horiz-adv-x="1296" d="M1245 1331h-555l41 -565h432l-8 -64h-420l45 -636h385l-10 -66h-438l-27 393h-493l-179 -393h-71l643 1397h674zM225 457h461l-61 882z" />
<glyph unicode="&#xc7;" horiz-adv-x="927" d="M727 1352q-92 0 -171 -39t-135.5 -107t-100 -154.5t-69.5 -186t-39 -197t-13 -191.5q0 -211 77.5 -320.5t210.5 -109.5q84 0 147 29.5t128 85.5l41 -51q-135 -126 -305 -131l-21 -123q139 -15 139 -138q0 -75 -50.5 -120t-127.5 -45q-73 0 -127 40l29 48q48 -29 98 -29 q49 0 79 26t30 78q0 49 -29.5 70.5t-105.5 22.5l37 172q-149 14 -235.5 141.5t-86.5 351.5q0 127 20.5 254.5t68 253t115.5 221.5t171 155.5t227 59.5q87 0 148.5 -31.5t115.5 -91.5l-45 -45q-54 54 -103 77.5t-118 23.5z" />
<glyph unicode="&#xc8;" horiz-adv-x="835" d="M535 1778l274 -179l-29 -40l-291 151zM879 1397l-19 -66h-481l-78 -565h416l-10 -64h-418l-88 -636h504l-13 -66h-571l196 1397h562z" />
<glyph unicode="&#xc9;" horiz-adv-x="835" d="M788 1780l33 -70l-340 -151l-24 43zM879 1397l-19 -66h-481l-78 -565h416l-10 -64h-418l-88 -636h504l-13 -66h-571l196 1397h562z" />
<glyph unicode="&#xca;" horiz-adv-x="835" d="M424 1567l-33 37l242 196h41l182 -196l-35 -37l-172 162zM879 1397l-19 -66h-481l-78 -565h416l-10 -64h-418l-88 -636h504l-13 -66h-571l196 1397h562z" />
<glyph unicode="&#xcb;" horiz-adv-x="835" d="M489 1630q-21 0 -34 13t-13 34q0 25 16 42.5t42 17.5q21 0 34 -13t13 -34q0 -25 -16 -42.5t-42 -17.5zM791 1630q-21 0 -34.5 13t-13.5 34q0 25 16 42.5t42 17.5q21 0 34 -13t13 -34q0 -25 -15.5 -42.5t-41.5 -17.5zM879 1397l-19 -66h-481l-78 -565h416l-10 -64h-418 l-88 -636h504l-13 -66h-571l196 1397h562z" />
<glyph unicode="&#xcc;" horiz-adv-x="462" d="M283 1778l274 -179l-29 -40l-290 151zM389 1397l-196 -1397h-72l196 1397h72z" />
<glyph unicode="&#xcd;" horiz-adv-x="462" d="M537 1780l32 -70l-340 -151l-24 43zM389 1397l-196 -1397h-72l196 1397h72z" />
<glyph unicode="&#xce;" horiz-adv-x="462" d="M172 1567l-33 37l242 196h41l182 -196l-35 -37l-172 162zM389 1397l-196 -1397h-72l196 1397h72z" />
<glyph unicode="&#xcf;" horiz-adv-x="462" d="M238 1630q-22 0 -35 13t-13 34q0 25 16 42.5t42 17.5q21 0 34 -13t13 -34q0 -25 -15.5 -42.5t-41.5 -17.5zM539 1630q-21 0 -34 13t-13 34q0 25 15.5 42.5t41.5 17.5q21 0 34 -13t13 -34q0 -25 -15.5 -42.5t-41.5 -17.5zM389 1397l-196 -1397h-72l196 1397h72z" />
<glyph unicode="&#xd0;" horiz-adv-x="1089" d="M584 1397q71 0 130.5 -13t115 -46t94 -85t61.5 -135t23 -190q0 -141 -21 -271t-70 -251t-122 -210t-185 -142.5t-250 -53.5h-233l98 692h-153l10 62h151l91 643h260zM373 66q122 0 220 52t161 136.5t105 198.5t59.5 232t17.5 243q0 95 -19.5 167.5t-51 116.5t-78.5 71.5 t-95.5 37.5t-107.5 10h-199l-82 -577h311l-10 -62h-309l-88 -626h166z" />
<glyph unicode="&#xd1;" horiz-adv-x="1120" d="M831 1638q-37 0 -72.5 22t-65 44t-54.5 22q-32 0 -54 -16t-55 -57l-38 28q71 107 145 107q34 0 68 -22t65.5 -44t58.5 -22q28 0 53 20t56 66l41 -27q-70 -121 -148 -121zM1047 1397l-199 -1397h-90l-396 1327q-9 -139 -53 -448l-121 -879h-67l196 1397h91l397 -1321 q10 158 47 411l125 910h70z" />
<glyph unicode="&#xd2;" horiz-adv-x="1169" d="M655 1778l275 -179l-29 -40l-291 151zM725 1419q172 0 268.5 -126t96.5 -363q0 -101 -14 -205.5t-42.5 -212.5t-77.5 -202.5t-113 -169t-154.5 -117.5t-196.5 -43q-172 0 -268.5 128.5t-96.5 364.5q0 98 14.5 202t44 211.5t79 202t113 169t153.5 118t194 43.5zM725 1354 q-94 0 -173.5 -42t-135.5 -113.5t-98.5 -160.5t-67.5 -190t-37 -195.5t-12 -181.5q0 -209 77 -317.5t216 -108.5q83 0 155.5 32t124.5 86.5t94.5 128.5t69.5 154t45 167.5t25.5 166.5t7.5 152q0 209 -75.5 315.5t-215.5 106.5z" />
<glyph unicode="&#xd3;" horiz-adv-x="1169" d="M909 1780l33 -70l-340 -151l-24 43zM725 1419q172 0 268.5 -126t96.5 -363q0 -101 -14 -205.5t-42.5 -212.5t-77.5 -202.5t-113 -169t-154.5 -117.5t-196.5 -43q-172 0 -268.5 128.5t-96.5 364.5q0 98 14.5 202t44 211.5t79 202t113 169t153.5 118t194 43.5zM725 1354 q-94 0 -173.5 -42t-135.5 -113.5t-98.5 -160.5t-67.5 -190t-37 -195.5t-12 -181.5q0 -209 77 -317.5t216 -108.5q83 0 155.5 32t124.5 86.5t94.5 128.5t69.5 154t45 167.5t25.5 166.5t7.5 152q0 209 -75.5 315.5t-215.5 106.5z" />
<glyph unicode="&#xd4;" horiz-adv-x="1169" d="M545 1567l-33 37l242 196h41l182 -196l-35 -37l-172 162zM725 1419q172 0 268.5 -126t96.5 -363q0 -101 -14 -205.5t-42.5 -212.5t-77.5 -202.5t-113 -169t-154.5 -117.5t-196.5 -43q-172 0 -268.5 128.5t-96.5 364.5q0 98 14.5 202t44 211.5t79 202t113 169t153.5 118 t194 43.5zM725 1354q-94 0 -173.5 -42t-135.5 -113.5t-98.5 -160.5t-67.5 -190t-37 -195.5t-12 -181.5q0 -209 77 -317.5t216 -108.5q83 0 155.5 32t124.5 86.5t94.5 128.5t69.5 154t45 167.5t25.5 166.5t7.5 152q0 209 -75.5 315.5t-215.5 106.5z" />
<glyph unicode="&#xd5;" horiz-adv-x="1169" d="M866 1638q-37 0 -72.5 22t-65 44t-54.5 22q-32 0 -54 -16t-55 -57l-39 28q71 107 146 107q34 0 68 -22t65.5 -44t58.5 -22q28 0 53 20t56 66l41 -27q-70 -121 -148 -121zM725 1419q172 0 268.5 -126t96.5 -363q0 -101 -14 -205.5t-42.5 -212.5t-77.5 -202.5t-113 -169 t-154.5 -117.5t-196.5 -43q-172 0 -268.5 128.5t-96.5 364.5q0 98 14.5 202t44 211.5t79 202t113 169t153.5 118t194 43.5zM725 1354q-94 0 -173.5 -42t-135.5 -113.5t-98.5 -160.5t-67.5 -190t-37 -195.5t-12 -181.5q0 -209 77 -317.5t216 -108.5q83 0 155.5 32t124.5 86.5 t94.5 128.5t69.5 154t45 167.5t25.5 166.5t7.5 152q0 209 -75.5 315.5t-215.5 106.5z" />
<glyph unicode="&#xd6;" horiz-adv-x="1169" d="M610 1630q-21 0 -34 13t-13 34q0 25 16 42.5t42 17.5q21 0 34 -13t13 -34q0 -25 -16 -42.5t-42 -17.5zM911 1630q-21 0 -34 13t-13 34q0 25 16 42.5t42 17.5q21 0 34 -13t13 -34q0 -25 -16 -42.5t-42 -17.5zM725 1419q172 0 268.5 -126t96.5 -363q0 -101 -14 -205.5 t-42.5 -212.5t-77.5 -202.5t-113 -169t-154.5 -117.5t-196.5 -43q-172 0 -268.5 128.5t-96.5 364.5q0 98 14.5 202t44 211.5t79 202t113 169t153.5 118t194 43.5zM725 1354q-94 0 -173.5 -42t-135.5 -113.5t-98.5 -160.5t-67.5 -190t-37 -195.5t-12 -181.5q0 -209 77 -317.5 t216 -108.5q83 0 155.5 32t124.5 86.5t94.5 128.5t69.5 154t45 167.5t25.5 166.5t7.5 152q0 209 -75.5 315.5t-215.5 106.5z" />
<glyph unicode="&#xd7;" horiz-adv-x="847" d="M692 944l43 -45l-256 -272l187 -273l-56 -39l-180 267l-246 -267l-43 45l252 269l-182 276l55 39l174 -270z" />
<glyph unicode="&#xd8;" horiz-adv-x="1169" d="M903 1374q90 -53 138.5 -166t48.5 -278q0 -101 -14 -205.5t-42.5 -212.5t-77.5 -202.5t-113 -169t-154.5 -117.5t-196.5 -43q-62 0 -117 18l-88 -234l-60 21l92 238q-93 53 -142.5 167.5t-49.5 282.5q0 98 14.5 202t44 211.5t79 202t113 169t153.5 118t194 43.5 q71 0 127 -20l90 248l62 -21zM201 471q0 -300 151 -391l475 1257q-53 17 -102 17q-94 0 -173.5 -42t-135.5 -113.5t-98.5 -160.5t-67.5 -190t-37 -195.5t-12 -181.5zM494 45q83 0 155.5 32t124.5 86.5t94.5 128.5t69.5 154t45 167.5t25.5 166.5t7.5 152q0 295 -144 385 l-473 -1258q41 -14 95 -14z" />
<glyph unicode="&#xd9;" horiz-adv-x="1079" d="M588 1778l274 -179l-28 -40l-291 151zM1024 1397l-145 -1043q-22 -161 -129.5 -267.5t-284.5 -106.5q-92 0 -159 30.5t-103.5 83.5t-49 120t-1.5 144l145 1039h72l-146 -1037q-20 -141 40 -228t206 -87q147 0 233 92t105 228l145 1032h72z" />
<glyph unicode="&#xda;" horiz-adv-x="1079" d="M842 1780l32 -70l-339 -151l-25 43zM1024 1397l-145 -1043q-22 -161 -129.5 -267.5t-284.5 -106.5q-92 0 -159 30.5t-103.5 83.5t-49 120t-1.5 144l145 1039h72l-146 -1037q-20 -141 40 -228t206 -87q147 0 233 92t105 228l145 1032h72z" />
<glyph unicode="&#xdb;" horiz-adv-x="1079" d="M477 1567l-33 37l242 196h41l182 -196l-35 -37l-172 162zM1024 1397l-145 -1043q-22 -161 -129.5 -267.5t-284.5 -106.5q-92 0 -159 30.5t-103.5 83.5t-49 120t-1.5 144l145 1039h72l-146 -1037q-20 -141 40 -228t206 -87q147 0 233 92t105 228l145 1032h72z" />
<glyph unicode="&#xdc;" horiz-adv-x="1079" d="M543 1630q-21 0 -34 13t-13 34q0 25 15.5 42.5t41.5 17.5q21 0 34 -13t13 -34q0 -25 -15.5 -42.5t-41.5 -17.5zM844 1630q-21 0 -34 13t-13 34q0 25 15.5 42.5t41.5 17.5q21 0 34 -13t13 -34q0 -25 -15.5 -42.5t-41.5 -17.5zM1024 1397l-145 -1043 q-22 -161 -129.5 -267.5t-284.5 -106.5q-92 0 -159 30.5t-103.5 83.5t-49 120t-1.5 144l145 1039h72l-146 -1037q-20 -141 40 -228t206 -87q147 0 233 92t105 228l145 1032h72z" />
<glyph unicode="&#xdd;" horiz-adv-x="854" d="M725 1780l33 -70l-340 -151l-25 43zM946 1397l-481 -846l-78 -551h-72l78 553l-243 844h73l215 -774l428 774h80z" />
<glyph unicode="&#xde;" horiz-adv-x="937" d="M526 1141q371 0 371 -338q0 -76 -14.5 -145.5t-50.5 -137.5t-91.5 -117t-144.5 -79.5t-201 -30.5h-162l-40 -293h-72l196 1397h72l-37 -256h174zM406 358q98 0 173 27t120 69.5t74 103t39.5 119.5t10.5 126q0 145 -74.5 208.5t-226.5 63.5h-178l-100 -717h162z" />
<glyph unicode="&#xdf;" horiz-adv-x="970" d="M-86 -403l-20 51q71 40 108.5 75.5t66 102t44.5 178.5l157 1106q27 194 124 298.5t237 104.5q103 0 165 -62t62 -159q0 -76 -27 -135t-65 -95.5t-76 -68.5t-65 -70t-27 -83q0 -29 14 -57t36.5 -52t49.5 -50.5t54 -58.5t49.5 -69.5t36.5 -90t14 -114.5q0 -46 -11 -95 t-35.5 -98t-59.5 -87.5t-89 -63t-118 -24.5q-103 0 -181 53l31 53q72 -43 148 -43q64 0 113.5 31t77 79t41 97.5t13.5 95.5q0 57 -14 105.5t-36.5 83t-49.5 64.5t-54 56.5t-49.5 52.5t-36.5 59.5t-14 70.5q0 40 14 74t37 58.5t50.5 48t55 49.5t50.5 55.5t37 73t14 95.5 q0 73 -42.5 116.5t-114.5 43.5q-111 0 -189 -89t-102 -265l-156 -1096q-10 -76 -27 -132.5t-37 -96t-53 -72t-66 -54.5t-85 -50z" />
<glyph unicode="&#xe0;" horiz-adv-x="954" d="M545 1571l274 -197l-28 -43l-291 172zM584 1087q131 0 254 -75l-113 -787q-14 -88 -8 -128.5t45 -63.5l-25 -53q-50 24 -72 66t-12 124q-122 -190 -288 -190q-126 0 -197.5 97t-71.5 271q0 101 17 201.5t55 198.5t93.5 172.5t139 120.5t183.5 46zM582 1026 q-71 0 -132.5 -29.5t-106 -80.5t-79 -117t-55 -142.5t-31 -153.5t-10.5 -153q0 -148 51.5 -227.5t149.5 -79.5q159 0 293 227l100 711q-75 45 -180 45z" />
<glyph unicode="&#xe1;" horiz-adv-x="954" d="M788 1573l33 -70l-340 -172l-24 45zM584 1087q131 0 254 -75l-113 -787q-14 -88 -8 -128.5t45 -63.5l-25 -53q-50 24 -72 66t-12 124q-122 -190 -288 -190q-126 0 -197.5 97t-71.5 271q0 101 17 201.5t55 198.5t93.5 172.5t139 120.5t183.5 46zM582 1026 q-71 0 -132.5 -29.5t-106 -80.5t-79 -117t-55 -142.5t-31 -153.5t-10.5 -153q0 -148 51.5 -227.5t149.5 -79.5q159 0 293 227l100 711q-75 45 -180 45z" />
<glyph unicode="&#xe2;" horiz-adv-x="954" d="M426 1331l-33 41l242 207h41l182 -209l-39 -39l-168 174zM584 1087q131 0 254 -75l-113 -787q-14 -88 -8 -128.5t45 -63.5l-25 -53q-50 24 -72 66t-12 124q-122 -190 -288 -190q-126 0 -197.5 97t-71.5 271q0 101 17 201.5t55 198.5t93.5 172.5t139 120.5t183.5 46z M582 1026q-71 0 -132.5 -29.5t-106 -80.5t-79 -117t-55 -142.5t-31 -153.5t-10.5 -153q0 -148 51.5 -227.5t149.5 -79.5q159 0 293 227l100 711q-75 45 -180 45z" />
<glyph unicode="&#xe3;" horiz-adv-x="954" d="M737 1380q-37 0 -72.5 22t-65 44t-54.5 22q-32 0 -54 -16t-55 -57l-39 28q71 107 146 107q34 0 68 -22t65.5 -44t58.5 -22q28 0 53 20t56 66l41 -27q-70 -121 -148 -121zM584 1087q131 0 254 -75l-113 -787q-14 -88 -8 -128.5t45 -63.5l-25 -53q-50 24 -72 66t-12 124 q-122 -190 -288 -190q-126 0 -197.5 97t-71.5 271q0 101 17 201.5t55 198.5t93.5 172.5t139 120.5t183.5 46zM582 1026q-71 0 -132.5 -29.5t-106 -80.5t-79 -117t-55 -142.5t-31 -153.5t-10.5 -153q0 -148 51.5 -227.5t149.5 -79.5q159 0 293 227l100 711q-75 45 -180 45z " />
<glyph unicode="&#xe4;" horiz-adv-x="954" d="M481 1372q-21 0 -34 13t-13 34q0 25 16 42.5t42 17.5q21 0 34 -13t13 -34q0 -25 -16 -42.5t-42 -17.5zM782 1372q-21 0 -34 13t-13 34q0 25 16 42.5t42 17.5q21 0 34 -13t13 -34q0 -25 -16 -42.5t-42 -17.5zM584 1087q131 0 254 -75l-113 -787q-14 -88 -8 -128.5 t45 -63.5l-25 -53q-50 24 -72 66t-12 124q-122 -190 -288 -190q-126 0 -197.5 97t-71.5 271q0 101 17 201.5t55 198.5t93.5 172.5t139 120.5t183.5 46zM582 1026q-71 0 -132.5 -29.5t-106 -80.5t-79 -117t-55 -142.5t-31 -153.5t-10.5 -153q0 -148 51.5 -227.5t149.5 -79.5 q159 0 293 227l100 711q-75 45 -180 45z" />
<glyph unicode="&#xe5;" horiz-adv-x="954" d="M664 1659q62 0 98.5 -42t36.5 -108q0 -90 -50.5 -145t-123.5 -55q-63 0 -100.5 41.5t-37.5 107.5q0 90 51.5 145.5t125.5 55.5zM662 1606q-53 0 -84 -41t-31 -107q0 -45 21.5 -70.5t58.5 -25.5q52 0 82 40.5t30 106.5q0 45 -20.5 71t-56.5 26zM584 1087q131 0 254 -75 l-113 -787q-14 -88 -8 -128.5t45 -63.5l-25 -53q-50 24 -72 66t-12 124q-122 -190 -288 -190q-126 0 -197.5 97t-71.5 271q0 101 17 201.5t55 198.5t93.5 172.5t139 120.5t183.5 46zM582 1026q-71 0 -132.5 -29.5t-106 -80.5t-79 -117t-55 -142.5t-31 -153.5t-10.5 -153 q0 -148 51.5 -227.5t149.5 -79.5q159 0 293 227l100 711q-75 45 -180 45z" />
<glyph unicode="&#xe6;" horiz-adv-x="1390" d="M487 1087q206 0 261 -217q131 217 348 217q118 0 181.5 -63.5t63.5 -171.5q0 -189 -170 -292t-479 -126q-6 -80 1.5 -148t31 -124t70 -87.5t112.5 -31.5q71 0 131.5 27t128.5 82l37 -48q-76 -63 -146 -93.5t-153 -30.5q-97 0 -165 52.5t-99 153.5q-91 -112 -175 -159 t-171 -47q-114 0 -179 72.5t-65 193.5q0 71 22.5 134.5t68.5 117t126.5 85t186.5 31.5h192q18 87 53 164q-16 120 -68 183t-151 63q-105 0 -243 -63l-17 57q148 69 266 69zM1090 1026q-85 0 -155.5 -45t-118 -121.5t-77 -169t-41.5 -196.5q287 24 430.5 111.5t143.5 246.5 q0 81 -44.5 127.5t-137.5 46.5zM635 557h-174q-92 0 -159 -25.5t-104.5 -70.5t-55 -98.5t-17.5 -116.5q0 -95 47 -149t127 -54q84 0 161.5 49.5t166.5 163.5q-11 70 -7.5 149.5t15.5 151.5z" />
<glyph unicode="&#xe7;" horiz-adv-x="782" d="M567 1087q70 0 123.5 -25t104.5 -79l-45 -43q-39 42 -82 63t-103 21q-82 0 -150 -42.5t-112.5 -110t-75 -156t-44 -177.5t-13.5 -176q0 -158 58.5 -238.5t162.5 -80.5q61 0 113 23.5t110 68.5l33 -47q-114 -102 -248 -108l-20 -123q139 -15 139 -138q0 -75 -50.5 -120 t-127.5 -45q-73 0 -127 40l29 48q48 -29 98 -29q49 0 79 26t30 78q0 48 -30 70t-106 23l37 172q-119 14 -185.5 112t-66.5 268q0 67 8.5 136.5t26.5 141t44.5 136.5t65 122t85.5 99t108 66t131 24z" />
<glyph unicode="&#xe8;" horiz-adv-x="870" d="M791 1374l-29 -43l-291 172l45 68zM823 852q0 -189 -171 -292t-480 -126q-2 -25 -2 -74q0 -159 58 -238t159 -79q72 0 133 27t129 82l35 -48q-73 -63 -144 -93.5t-153 -30.5q-135 0 -212 98t-77 280q0 106 18.5 209t57.5 197t94 166t134.5 114.5t172.5 42.5 q118 0 183 -63.5t65 -171.5zM571 1026q-85 0 -156 -44.5t-118 -121t-77 -169t-42 -197.5q288 24 432 111.5t144 246.5q0 80 -45.5 127t-137.5 47z" />
<glyph unicode="&#xe9;" horiz-adv-x="870" d="M793 1503l-340 -172l-25 45l332 197zM823 852q0 -189 -171 -292t-480 -126q-2 -25 -2 -74q0 -159 58 -238t159 -79q72 0 133 27t129 82l35 -48q-73 -63 -144 -93.5t-153 -30.5q-135 0 -212 98t-77 280q0 106 18.5 209t57.5 197t94 166t134.5 114.5t172.5 42.5 q118 0 183 -63.5t65 -171.5zM571 1026q-85 0 -156 -44.5t-118 -121t-77 -169t-42 -197.5q288 24 432 111.5t144 246.5q0 80 -45.5 127t-137.5 47z" />
<glyph unicode="&#xea;" horiz-adv-x="870" d="M623 1505l-226 -174l-32 41l241 207h41l182 -209l-38 -39zM575 1087q118 0 183 -63.5t65 -171.5q0 -189 -171 -292t-480 -126q-2 -25 -2 -74q0 -159 58 -238t159 -79q72 0 133 27t129 82l35 -48q-73 -63 -144 -93.5t-153 -30.5q-135 0 -212 98t-77 280q0 106 18.5 209 t57.5 197t94 166t134.5 114.5t172.5 42.5zM178 494q288 24 432 111.5t144 246.5q0 80 -45.5 127t-137.5 47q-85 0 -156 -44.5t-118 -121t-77 -169t-42 -197.5z" />
<glyph unicode="&#xeb;" horiz-adv-x="870" d="M453 1372q-21 0 -34 13t-13 34q0 25 15.5 42.5t41.5 17.5q21 0 34 -13t13 -34q0 -25 -15.5 -42.5t-41.5 -17.5zM754 1372q-21 0 -34 13t-13 34q0 25 15.5 42.5t41.5 17.5q21 0 34 -13t13 -34q0 -25 -15.5 -42.5t-41.5 -17.5zM823 852q0 -189 -171 -292t-480 -126 q-2 -25 -2 -74q0 -159 58 -238t159 -79q72 0 133 27t129 82l35 -48q-73 -63 -144 -93.5t-153 -30.5q-135 0 -212 98t-77 280q0 106 18.5 209t57.5 197t94 166t134.5 114.5t172.5 42.5q118 0 183 -63.5t65 -171.5zM571 1026q-85 0 -156 -44.5t-118 -121t-77 -169t-42 -197.5 q288 24 432 111.5t144 246.5q0 80 -45.5 127t-137.5 47z" />
<glyph unicode="&#xec;" horiz-adv-x="444" d="M256 1571l274 -197l-28 -43l-291 172zM334 1065l-152 -1065h-69l151 1065h70z" />
<glyph unicode="&#xed;" horiz-adv-x="444" d="M500 1573l32 -70l-339 -172l-25 45zM334 1065l-152 -1065h-69l151 1065h70z" />
<glyph unicode="&#xee;" horiz-adv-x="444" d="M137 1331l-33 41l242 207h41l182 -209l-39 -39l-168 174zM334 1065l-152 -1065h-69l151 1065h70z" />
<glyph unicode="&#xef;" horiz-adv-x="444" d="M193 1372q-21 0 -34.5 13t-13.5 34q0 25 16 42.5t42 17.5q21 0 34 -13t13 -34q0 -25 -15.5 -42.5t-41.5 -17.5zM494 1372q-22 0 -35 13t-13 34q0 25 16 42.5t42 17.5q21 0 34 -13t13 -34q0 -25 -15.5 -42.5t-41.5 -17.5zM334 1065l-152 -1065h-69l151 1065h70z" />
<glyph unicode="&#xf0;" horiz-adv-x="952" d="M672 1360q166 -180 166 -496q0 -124 -16.5 -245.5t-53 -238t-90 -204.5t-134 -142t-177.5 -54q-134 0 -205.5 92.5t-71.5 255.5q0 108 26.5 215.5t75.5 199.5t131 149.5t183 57.5q164 0 264 -178q5 195 -27.5 318t-117.5 223l-160 -164l-49 22l172 181q-94 81 -195 108 l23 56q115 -32 215 -119l147 143l33 -39zM369 43q61 0 113.5 26t92 74t70.5 107t54 133t38 144.5t25 148.5q-95 211 -254 211q-87 0 -155.5 -51t-109 -134t-61 -179t-20.5 -195q0 -137 53 -211t154 -74z" />
<glyph unicode="&#xf1;" horiz-adv-x="976" d="M719 1380q-37 0 -72.5 22t-65.5 44t-55 22q-32 0 -53 -15.5t-55 -57.5l-39 28q71 107 145 107q34 0 68.5 -22t66 -44t58.5 -22t52 20t56 66l41 -27q-70 -121 -147 -121zM637 1087q113 0 163.5 -84.5t30.5 -234.5l-108 -768h-70l109 764q36 262 -131 262 q-95 0 -186.5 -101t-170.5 -270l-92 -655h-69l151 1065h58l-33 -281q77 146 160.5 224.5t187.5 78.5z" />
<glyph unicode="&#xf2;" horiz-adv-x="952" d="M522 1571l275 -197l-29 -43l-291 172zM389 -20q-140 0 -215.5 101t-75.5 281q0 92 15.5 188t52 193.5t88.5 173t132 123t177 47.5q140 0 215.5 -101.5t75.5 -280.5q0 -92 -15.5 -188t-51.5 -193.5t-88 -173t-132.5 -123t-177.5 -47.5zM389 43q85 0 154 45.5t112.5 116.5 t73 161.5t41.5 176t12 164.5q0 156 -55.5 236.5t-163.5 80.5q-85 0 -154 -45.5t-112.5 -116.5t-73 -162t-41.5 -176.5t-12 -165.5q0 -154 56.5 -234.5t162.5 -80.5z" />
<glyph unicode="&#xf3;" horiz-adv-x="952" d="M766 1573l33 -70l-340 -172l-25 45zM389 -20q-140 0 -215.5 101t-75.5 281q0 92 15.5 188t52 193.5t88.5 173t132 123t177 47.5q140 0 215.5 -101.5t75.5 -280.5q0 -92 -15.5 -188t-51.5 -193.5t-88 -173t-132.5 -123t-177.5 -47.5zM389 43q85 0 154 45.5t112.5 116.5 t73 161.5t41.5 176t12 164.5q0 156 -55.5 236.5t-163.5 80.5q-85 0 -154 -45.5t-112.5 -116.5t-73 -162t-41.5 -176.5t-12 -165.5q0 -154 56.5 -234.5t162.5 -80.5z" />
<glyph unicode="&#xf4;" horiz-adv-x="952" d="M403 1331l-32 41l241 207h41l183 -209l-39 -39l-168 174zM389 -20q-140 0 -215.5 101t-75.5 281q0 92 15.5 188t52 193.5t88.5 173t132 123t177 47.5q140 0 215.5 -101.5t75.5 -280.5q0 -92 -15.5 -188t-51.5 -193.5t-88 -173t-132.5 -123t-177.5 -47.5zM389 43 q85 0 154 45.5t112.5 116.5t73 161.5t41.5 176t12 164.5q0 156 -55.5 236.5t-163.5 80.5q-85 0 -154 -45.5t-112.5 -116.5t-73 -162t-41.5 -176.5t-12 -165.5q0 -154 56.5 -234.5t162.5 -80.5z" />
<glyph unicode="&#xf5;" horiz-adv-x="952" d="M715 1380q-37 0 -72.5 22t-65.5 44t-55 22q-32 0 -53 -15.5t-55 -57.5l-39 28q71 107 145 107q34 0 68.5 -22t66 -44t58.5 -22t52 20t56 66l41 -27q-70 -121 -147 -121zM389 -20q-140 0 -215.5 101t-75.5 281q0 92 15.5 188t52 193.5t88.5 173t132 123t177 47.5 q140 0 215.5 -101.5t75.5 -280.5q0 -92 -15.5 -188t-51.5 -193.5t-88 -173t-132.5 -123t-177.5 -47.5zM389 43q85 0 154 45.5t112.5 116.5t73 161.5t41.5 176t12 164.5q0 156 -55.5 236.5t-163.5 80.5q-85 0 -154 -45.5t-112.5 -116.5t-73 -162t-41.5 -176.5t-12 -165.5 q0 -154 56.5 -234.5t162.5 -80.5z" />
<glyph unicode="&#xf6;" horiz-adv-x="952" d="M459 1372q-21 0 -34 13t-13 34q0 25 15.5 42.5t41.5 17.5q21 0 34 -13t13 -34q0 -25 -15.5 -42.5t-41.5 -17.5zM760 1372q-21 0 -34 13t-13 34q0 25 15.5 42.5t41.5 17.5q21 0 34 -13t13 -34q0 -25 -15.5 -42.5t-41.5 -17.5zM389 -20q-140 0 -215.5 101t-75.5 281 q0 92 15.5 188t52 193.5t88.5 173t132 123t177 47.5q140 0 215.5 -101.5t75.5 -280.5q0 -92 -15.5 -188t-51.5 -193.5t-88 -173t-132.5 -123t-177.5 -47.5zM389 43q85 0 154 45.5t112.5 116.5t73 161.5t41.5 176t12 164.5q0 156 -55.5 236.5t-163.5 80.5q-85 0 -154 -45.5 t-112.5 -116.5t-73 -162t-41.5 -176.5t-12 -165.5q0 -154 56.5 -234.5t162.5 -80.5z" />
<glyph unicode="&#xf7;" horiz-adv-x="845" d="M502 1047q-27 0 -43.5 16.5t-16.5 40.5q0 30 19.5 51t50.5 21q27 0 43 -17t16 -41q0 -30 -19 -50.5t-50 -20.5zM150 645l8 66h579l-10 -66h-577zM381 176q-27 0 -43 16.5t-16 40.5q0 30 19 51t50 21q27 0 43.5 -16.5t16.5 -40.5q0 -30 -19.5 -51t-50.5 -21z" />
<glyph unicode="&#xf8;" horiz-adv-x="952" d="M723 1040q131 -93 131 -335q0 -92 -15.5 -188t-51.5 -193.5t-88 -173t-132.5 -123t-177.5 -47.5q-50 0 -100 16l-107 -246l-55 19l106 256q-135 91 -135 337q0 92 15.5 188t52 193.5t88.5 173t132 123t177 47.5q61 0 107 -18l102 248l55 -19zM170 358q0 -209 96 -278 l381 930q-35 14 -84 14q-85 0 -154 -45.5t-112.5 -116.5t-73 -162t-41.5 -176.5t-12 -165.5zM389 43q85 0 154 45.5t112.5 116.5t73 161.5t41.5 176t12 164.5q0 204 -90 276l-381 -928q35 -12 78 -12z" />
<glyph unicode="&#xf9;" horiz-adv-x="968" d="M514 1571l274 -197l-28 -43l-291 172zM340 -20q-111 0 -164 82.5t-33 224.5l111 778h70l-111 -780q-17 -119 18 -180.5t113 -61.5q198 0 354 379l88 643h70l-151 -1065h-54l35 295q-139 -315 -346 -315z" />
<glyph unicode="&#xfa;" horiz-adv-x="968" d="M758 1573l33 -70l-340 -172l-25 45zM340 -20q-111 0 -164 82.5t-33 224.5l111 778h70l-111 -780q-17 -119 18 -180.5t113 -61.5q198 0 354 379l88 643h70l-151 -1065h-54l35 295q-139 -315 -346 -315z" />
<glyph unicode="&#xfb;" horiz-adv-x="968" d="M395 1331l-33 41l242 207h41l182 -209l-39 -39l-167 174zM340 -20q-111 0 -164 82.5t-33 224.5l111 778h70l-111 -780q-17 -119 18 -180.5t113 -61.5q198 0 354 379l88 643h70l-151 -1065h-54l35 295q-139 -315 -346 -315z" />
<glyph unicode="&#xfc;" horiz-adv-x="968" d="M451 1372q-21 0 -34.5 13t-13.5 34q0 25 16 42.5t42 17.5q21 0 34 -13t13 -34q0 -25 -15.5 -42.5t-41.5 -17.5zM752 1372q-21 0 -34 13t-13 34q0 25 15.5 42.5t41.5 17.5q21 0 34 -13t13 -34q0 -25 -15.5 -42.5t-41.5 -17.5zM340 -20q-111 0 -164 82.5t-33 224.5l111 778 h70l-111 -780q-17 -119 18 -180.5t113 -61.5q198 0 354 379l88 643h70l-151 -1065h-54l35 295q-139 -315 -346 -315z" />
<glyph unicode="&#xfd;" horiz-adv-x="782" d="M659 1573l33 -70l-340 -172l-24 45zM819 1065l-450 -1071q-60 -140 -110.5 -213.5t-112 -113.5t-169.5 -73l-6 54q134 44 198 112.5t132 239.5h-29l-157 1065h73l138 -1014l419 1014h74z" />
<glyph unicode="&#xfe;" horiz-adv-x="958" d="M610 1087q122 0 187 -89.5t65 -254.5q0 -71 -7.5 -143.5t-24 -148.5t-42 -143.5t-63.5 -128t-85 -104.5t-110.5 -69.5t-136.5 -25.5q-101 0 -207 47l-61 -428l-72 -9l273 1913l69 13l-84 -605q71 85 142.5 130.5t156.5 45.5zM395 43q86 0 156.5 46t114 118.5t73.5 167.5 t42 186.5t12 181.5q1 139 -46.5 210t-140.5 71q-82 0 -156.5 -52t-150.5 -147l-102 -735q96 -47 198 -47z" />
<glyph unicode="&#xff;" horiz-adv-x="782" d="M352 1372q-21 0 -34 13t-13 34q0 25 15.5 42.5t41.5 17.5q22 0 35 -13.5t13 -33.5q0 -25 -16 -42.5t-42 -17.5zM653 1372q-21 0 -34 13t-13 34q0 25 16 42.5t42 17.5q21 0 34 -13t13 -34q0 -25 -16 -42.5t-42 -17.5zM819 1065l-450 -1071q-60 -140 -110.5 -213.5 t-112 -113.5t-169.5 -73l-6 54q134 44 198 112.5t132 239.5h-29l-157 1065h73l138 -1014l419 1014h74z" />
<glyph unicode="&#x152;" horiz-adv-x="1431" d="M1475 1397l-19 -66h-534q129 -120 129 -401q0 -78 -9 -164h271l-8 -64h-271q-31 -208 -108 -379t-203 -257h577l-12 -66h-684q-56 -20 -127 -20q-162 0 -256 129t-94 364q0 98 14.5 202t43 211.5t76.5 202t109.5 169t147 118t184.5 43.5q69 0 117 -22h656zM977 932 q0 208 -73.5 315t-203.5 107q-105 0 -191.5 -60t-142 -154t-94 -214t-55 -234.5t-16.5 -220.5q0 -208 74.5 -317t203.5 -109q91 0 168 42.5t130 115.5t93 163t62.5 191.5t33.5 195t11 179.5z" />
<glyph unicode="&#x153;" horiz-adv-x="1523" d="M1477 852q0 -187 -171 -290.5t-479 -127.5q-2 -25 -2 -74q0 -159 57.5 -238t159.5 -79q71 0 132 27t129 82l34 -48q-73 -63 -144 -93.5t-153 -30.5q-119 0 -191 75.5t-87 225.5q-125 -301 -373 -301q-140 0 -215.5 101t-75.5 281q0 92 15.5 188t52 193.5t88.5 173 t132 123t177 47.5q122 0 193 -77.5t92 -223.5q60 139 154.5 220t226.5 81q119 0 183.5 -63.5t64.5 -171.5zM1225 1026q-85 0 -156 -44t-118 -119.5t-76.5 -168.5t-40.5 -200q286 24 429.5 111.5t143.5 246.5q0 80 -45 127t-137 47zM389 43q85 0 154 45.5t112.5 116.5 t73 161.5t41.5 176t12 164.5q0 156 -55.5 236.5t-163.5 80.5q-85 0 -154 -45.5t-112.5 -116.5t-73 -162t-41.5 -176.5t-12 -165.5q0 -154 56.5 -234.5t162.5 -80.5z" />
<glyph unicode="&#x178;" horiz-adv-x="854" d="M426 1630q-21 0 -34 13t-13 34q0 25 15.5 42.5t41.5 17.5q21 0 34 -13t13 -34q0 -25 -15.5 -42.5t-41.5 -17.5zM727 1630q-21 0 -34 13t-13 34q0 25 15.5 42.5t41.5 17.5q21 0 34 -13t13 -34q0 -25 -15.5 -42.5t-41.5 -17.5zM946 1397l-481 -846l-78 -551h-72l78 553 l-243 844h73l215 -774l428 774h80z" />
<glyph unicode="&#x2c6;" horiz-adv-x="587" d="M211 1331l-33 41l242 207h41l182 -209l-39 -39l-168 174z" />
<glyph unicode="&#x2dc;" horiz-adv-x="600" d="M526 1380q-37 0 -72.5 22t-65 44t-54.5 22q-32 0 -54 -16t-55 -57l-39 28q71 107 146 107q34 0 68 -22t65.5 -44t58.5 -22q28 0 53 20t56 66l41 -27q-70 -121 -148 -121z" />
<glyph unicode="&#x2000;" horiz-adv-x="958" />
<glyph unicode="&#x2001;" horiz-adv-x="1917" />
<glyph unicode="&#x2002;" horiz-adv-x="958" />
<glyph unicode="&#x2003;" horiz-adv-x="1917" />
<glyph unicode="&#x2004;" horiz-adv-x="639" />
<glyph unicode="&#x2005;" horiz-adv-x="479" />
<glyph unicode="&#x2006;" horiz-adv-x="319" />
<glyph unicode="&#x2007;" horiz-adv-x="319" />
<glyph unicode="&#x2008;" horiz-adv-x="239" />
<glyph unicode="&#x2009;" horiz-adv-x="383" />
<glyph unicode="&#x200a;" horiz-adv-x="106" />
<glyph unicode="&#x2010;" horiz-adv-x="671" d="M131 608l10 66h428l-10 -66h-428z" />
<glyph unicode="&#x2011;" horiz-adv-x="671" d="M131 608l10 66h428l-10 -66h-428z" />
<glyph unicode="&#x2012;" horiz-adv-x="671" d="M131 608l10 66h428l-10 -66h-428z" />
<glyph unicode="&#x2013;" horiz-adv-x="874" d="M84 608l10 66h725l-8 -66h-727z" />
<glyph unicode="&#x2014;" horiz-adv-x="1312" d="M86 610l10 64h1161l-10 -64h-1161z" />
<glyph unicode="&#x2018;" horiz-adv-x="382" d="M279 1133q-28 0 -43 16.5t-15 38.5q0 29 33 88l119 225h45l-109 -252q33 -11 33 -47q0 -29 -17.5 -49t-45.5 -20z" />
<glyph unicode="&#x2019;" horiz-adv-x="382" d="M326 1503q27 0 42 -16.5t15 -38.5q0 -29 -33 -88l-119 -225h-45l109 251q-33 11 -33 48q0 29 18 49t46 20z" />
<glyph unicode="&#x201a;" horiz-adv-x="382" d="M129 109q27 0 42 -17t15 -39q0 -30 -32 -88l-119 -225h-45l108 252q-32 11 -32 47q0 29 17.5 49.5t45.5 20.5z" />
<glyph unicode="&#x201c;" horiz-adv-x="657" d="M279 1133q-28 0 -43 16.5t-15 38.5q0 29 33 88l119 225h45l-109 -252q33 -11 33 -47q0 -29 -17.5 -49t-45.5 -20zM553 1133q-27 0 -42 16.5t-15 38.5q0 30 32 88l119 225h45l-108 -252q32 -11 32 -47q0 -29 -17.5 -49t-45.5 -20z" />
<glyph unicode="&#x201d;" horiz-adv-x="657" d="M326 1503q27 0 42 -16.5t15 -38.5q0 -29 -33 -88l-119 -225h-45l109 251q-33 11 -33 48q0 29 18 49t46 20zM600 1503q27 0 42 -16.5t15 -38.5q0 -30 -32 -88l-119 -225h-45l108 251q-32 11 -32 48q0 29 17.5 49t45.5 20z" />
<glyph unicode="&#x201e;" horiz-adv-x="657" d="M129 109q27 0 42 -17t15 -39q0 -30 -32 -88l-119 -225h-45l108 252q-32 11 -32 47q0 29 17.5 49.5t45.5 20.5zM403 109q27 0 42.5 -17t15.5 -39q0 -29 -33 -88l-119 -225h-45l109 252q-33 11 -33 47q0 29 17.5 49.5t45.5 20.5z" />
<glyph unicode="&#x2022;" horiz-adv-x="471" d="M270 811q38 0 63 -23.5t25 -60.5q0 -45 -30.5 -77t-75.5 -32q-38 0 -63 23.5t-25 60.5q0 45 30.5 77t75.5 32z" />
<glyph unicode="&#x2026;" horiz-adv-x="1046" d="M100 -20q-27 0 -43 16.5t-16 40.5q0 30 19.5 51t50.5 21q27 0 43 -17t16 -41q0 -30 -19.5 -50.5t-50.5 -20.5zM451 -20q-27 0 -43.5 16.5t-16.5 40.5q0 30 19.5 51t50.5 21q27 0 43 -17t16 -41q0 -30 -19 -50.5t-50 -20.5zM799 -20q-27 0 -43.5 16.5t-16.5 40.5 q0 30 19.5 51t50.5 21q27 0 43 -17t16 -41q0 -30 -19 -50.5t-50 -20.5z" />
<glyph unicode="&#x202f;" horiz-adv-x="383" />
<glyph unicode="&#x2039;" horiz-adv-x="602" d="M479 1042l45 -30l-295 -426l177 -418l-50 -29l-204 426l6 47z" />
<glyph unicode="&#x203a;" horiz-adv-x="602" d="M262 1042l205 -428l-8 -47l-322 -428l-43 31l295 426l-176 418z" />
<glyph unicode="&#x205f;" horiz-adv-x="479" />
<glyph unicode="&#x20ac;" horiz-adv-x="980" d="M766 1315q-135 0 -243 -111t-173 -338h469l-24 -63h-461l-43 -230h428l-21 -61h-415q-20 -238 48.5 -352.5t207.5 -114.5q71 0 126.5 22.5t122.5 67.5l-10 -74q-124 -81 -248 -81q-166 0 -251.5 135t-67.5 397h-131l22 61h117l41 230h-129l23 63h122q75 258 202.5 386 t293.5 128q77 0 138 -28t120 -86l-41 -49q-59 55 -107.5 76.5t-115.5 21.5z" />
<glyph unicode="&#x2122;" horiz-adv-x="1470" d="M709 1397l-17 -58h-213l-100 -723h-62l101 723h-219l8 58h502zM1376 1397l-73 -781h-62l37 385q12 119 35 314l-283 -606h-59l-117 620q-15 -127 -51 -334l-70 -379h-61l145 781h80l113 -627l286 627h80z" />
<glyph unicode="&#x25fc;" horiz-adv-x="1064" d="M0 1065h1065v-1065h-1065v1065z" />
<glyph unicode="&#xfb03;" horiz-adv-x="1445" d="M1333 1065l-151 -1065h-70l143 1006h-419l-138 -1004q-16 -110 -45 -181.5t-68 -113.5t-102 -78l-24 47q73 45 111 115t59 213l139 1002h-426l-139 -1004q-13 -94 -33.5 -158t-56.5 -109.5t-75 -74t-104 -63.5l-20 51q71 40 109 75t66.5 102.5t43.5 178.5l141 1002h-151 l8 59h152l24 176q17 122 93 187t204 65q127 0 256 -80q74 100 221 100q121 0 224 -83l-35 -48q-92 72 -191 72q-91 0 -142.5 -48.5t-66.5 -152.5l-26 -188h489zM776 1065l27 197q9 61 28 102q-64 35 -115 52.5t-112 17.5q-104 0 -160 -48t-71 -153l-23 -168h426z" />
<glyph unicode="&#xfb04;" horiz-adv-x="1482" d="M1266 43q27 0 67 14l17 -55q-50 -22 -95 -22q-63 0 -96 41t-22 124l176 1254q-123 53 -234 53q-91 0 -142.5 -47.5t-66.5 -151.5l-26 -188h239l-20 -59h-227l-138 -1004q-16 -110 -45 -181t-68 -113t-102 -79l-24 47q73 45 112 115t58 213l139 1002h-426l-139 -1004 q-13 -94 -33.5 -158t-56.5 -109.5t-75 -74t-104 -63.5l-20 51q71 40 109 75t66.5 102.5t43.5 178.5l141 1002h-151l8 59h152l24 176q17 122 93 187t204 65q127 0 256 -80q74 100 221 100q135 0 244 -59l66 10l-185 -1321q-15 -100 60 -100zM776 1065l27 197q9 61 28 102 q-64 35 -115 52.5t-112 17.5q-104 0 -160 -48t-71 -153l-23 -168h426z" />
</font>
</defs>
</svg>
