<?xml version="1.0" standalone="no"?>
<!DOCTYPE svg PUBLIC "-//W3C//DTD SVG 1.1//EN" "http://www.w3.org/Graphics/SVG/1.1/DTD/svg11.dtd" >
<svg xmlns="http://www.w3.org/2000/svg" xmlns:xlink="http://www.w3.org/1999/xlink" version="1.1">
<metadata></metadata>
<defs>
<font id="fira_sans_compressedMdIt" horiz-adv-x="1003" >
<font-face units-per-em="2048" ascent="1638" descent="-410" />
<missing-glyph horiz-adv-x="387" />
<glyph unicode="&#xfb01;" horiz-adv-x="1001" d="M963 1083l-152 -1083h-248l127 901h-241l-113 -825q-12 -84 -31.5 -150.5t-50.5 -116.5t-62.5 -86t-80 -67.5t-89 -52t-102.5 -47.5l-59 184q53 24 86.5 47.5t64 61.5t49 94.5t29.5 138.5l111 819h-133l26 182h133l17 127q22 150 124.5 242t262.5 92q84 0 151.5 -22.5 t139.5 -67.5l-95 -158q-92 56 -178 56q-73 0 -111 -38.5t-49 -117.5l-16 -113h490z" />
<glyph unicode="&#xfb02;" horiz-adv-x="1058" d="M903 174q24 0 45 8l27 -174q-70 -37 -160 -37q-109 0 -161.5 70t-35.5 192l154 1102q-77 23 -133 23q-69 0 -104 -40.5t-46 -121.5l-16 -113h170l-51 -182h-143l-113 -825q-12 -84 -31.5 -150.5t-50.5 -116.5t-62.5 -86t-80 -67.5t-89 -52t-102.5 -47.5l-59 184 q53 24 86.5 47.5t64 61.5t49 94.5t29.5 138.5l111 819h-133l26 182h133l17 127q23 152 119.5 243t254.5 91q129 0 222 -41l207 23l-181 -1286q-11 -66 37 -66z" />
<glyph horiz-adv-x="0" />
<glyph horiz-adv-x="682" />
<glyph unicode="&#xd;" horiz-adv-x="387" />
<glyph unicode=" "  horiz-adv-x="387" />
<glyph unicode="&#x09;" horiz-adv-x="387" />
<glyph unicode="&#xa0;" horiz-adv-x="387" />
<glyph unicode="!" horiz-adv-x="452" d="M113 496l96 919h262l-160 -919h-198zM154 -31q-64 0 -102 40.5t-38 101.5q0 73 49 125.5t121 52.5q65 0 102.5 -40.5t37.5 -101.5q0 -74 -48 -126t-122 -52z" />
<glyph unicode="&#x22;" horiz-adv-x="806" d="M168 860l49 555h225l-108 -555h-166zM561 860l49 555h226l-109 -555h-166z" />
<glyph unicode="#" horiz-adv-x="923" d="M948 909h-119l-104 -420h104l-26 -172h-119l-80 -317h-196l77 317h-192l-78 -317h-197l78 317h-104l26 172h121l103 420h-103l25 174h121l71 293h199l-72 -293h193l72 293h198l-74 -293h103zM528 489l105 420h-193l-104 -420h192z" />
<glyph unicode="$" horiz-adv-x="913" d="M571 811q141 -69 208 -149t67 -213q0 -173 -105.5 -300t-279.5 -161l-45 -310h-180l43 304q-192 21 -324 184l141 133q60 -65 119 -97t137 -32q105 0 169.5 67.5t64.5 180.5q0 76 -39.5 121t-149.5 100q-141 68 -201.5 142.5t-60.5 193.5q0 153 105 273.5t268 144.5 l43 299h180l-45 -303q149 -27 256 -160l-133 -129q-100 106 -221 106q-90 0 -144.5 -55.5t-54.5 -142.5q0 -66 37.5 -105.5t144.5 -91.5z" />
<glyph unicode="%" horiz-adv-x="1439" d="M1169 1464l-987 -1441l135 -95l988 1442zM385 688q-111 0 -180.5 76.5t-69.5 208.5q0 78 22 153t63 137.5t107.5 101t147.5 38.5q114 0 183 -74.5t69 -206.5q0 -61 -13.5 -122t-41.5 -117.5t-67.5 -99.5t-96.5 -69t-123 -26zM397 842q42 0 73.5 29.5t47.5 75.5t23.5 90 t7.5 85q0 125 -86 125q-43 0 -74.5 -28t-47 -72.5t-22 -87.5t-6.5 -86q0 -131 84 -131zM1006 -31q-113 0 -182.5 76.5t-69.5 210.5q0 62 13.5 122.5t42 116t68.5 97.5t96.5 67t121.5 25q114 0 182 -74.5t68 -206.5q0 -61 -13 -122t-41 -117.5t-67 -99.5t-96 -69t-123 -26z M1016 125q43 0 74.5 29t47 75t22.5 89.5t7 84.5q0 127 -84 127q-44 0 -76 -28t-47 -73.5t-21.5 -88.5t-6.5 -86q0 -129 84 -129z" />
<glyph unicode="&#x26;" horiz-adv-x="1294" d="M668 1444q147 0 233 -80t86 -203q0 -72 -20.5 -132.5t-63.5 -111t-92 -90t-123 -86.5l199 -303q68 133 127 299l194 -63q-85 -197 -207 -373l160 -217l-215 -115l-110 170q-95 -91 -184.5 -130.5t-196.5 -39.5q-160 0 -257.5 96.5t-97.5 243.5q0 133 68.5 241.5 t222.5 221.5q-112 150 -112 289q0 170 106 276.5t283 106.5zM655 1274q-69 0 -106 -60.5t-37 -146.5q0 -91 66 -195q93 73 134.5 136.5t41.5 152.5q0 52 -26 82.5t-73 30.5zM502 625q-81 -70 -113.5 -142t-32.5 -159q0 -79 37 -123.5t107 -44.5q126 0 229 118z" />
<glyph unicode="'" horiz-adv-x="413" d="M168 860l49 555h225l-108 -555h-166z" />
<glyph unicode="(" horiz-adv-x="555" d="M522 1747l148 -111q-383 -541 -383 -1208q0 -195 30.5 -340.5t94.5 -298.5l-174 -96q-41 95 -59 137.5t-50 131t-46 151.5t-26 153.5t-12 182.5q0 201 29.5 370t94.5 326.5t146.5 293t206.5 308.5z" />
<glyph unicode=")" horiz-adv-x="557" d="M367 1741q43 -98 59.5 -138t49.5 -130t46.5 -152t26 -153.5t12.5 -184.5q0 -199 -30 -368.5t-95 -326.5t-147 -293.5t-207 -307.5l-148 108q383 542 383 1211q0 196 -30.5 343.5t-93.5 297.5z" />
<glyph unicode="*" horiz-adv-x="800" d="M846 1120l-260 -57l149 -240l-198 -114l-78 264l-146 -264l-174 112l209 246l-229 57l80 199l217 -117l4 312h225l-80 -314l240 125z" />
<glyph unicode="+" horiz-adv-x="892" d="M631 1092l-43 -314h246l-29 -200h-248l-47 -312h-207l47 312h-252l29 200h254l43 314h207z" />
<glyph unicode="," horiz-adv-x="428" d="M174 289q62 0 97.5 -36t35.5 -99q0 -43 -16 -84.5t-60 -124.5l-153 -295h-141l122 352q-53 39 -53 109q0 74 47.5 126t120.5 52z" />
<glyph unicode="-" horiz-adv-x="698" d="M90 541l27 200h520l-27 -200h-520z" />
<glyph unicode="." horiz-adv-x="434" d="M143 -31q-64 0 -101.5 40.5t-37.5 101.5q0 73 49 125.5t121 52.5q65 0 102 -40.5t37 -101.5q0 -74 -48 -126t-122 -52z" />
<glyph unicode="/" horiz-adv-x="884" d="M688 1663l205 -51l-645 -1831l-205 53z" />
<glyph unicode="0" horiz-adv-x="1030" d="M639 1403q-116 0 -210 -61.5t-154.5 -160.5t-102 -229.5t-59 -261t-17.5 -262.5q0 -226 85 -342.5t251 -116.5q115 0 209 61.5t155 160.5t102.5 229.5t59 261.5t17.5 262q0 224 -85.5 341.5t-250.5 117.5zM627 1210q106 0 106 -202q0 -132 -19.5 -276.5t-54.5 -273.5 t-92 -212.5t-125 -83.5q-52 0 -78 48.5t-26 156.5q0 129 18.5 271.5t53 272.5t91.5 214.5t126 84.5z" />
<glyph unicode="1" horiz-adv-x="784" d="M729 1378l-192 -1378h-244l151 1102l-262 -174l-90 176l414 274h223z" />
<glyph unicode="2" horiz-adv-x="860" d="M494 1403q165 0 255.5 -95t90.5 -243q0 -88 -27.5 -169.5t-100 -186t-175 -220t-275.5 -292.5l483 4l-57 -201h-719l27 190q112 123 177.5 196t138 156t110 133.5t75 106.5t53.5 97.5t26 84t10 87.5q0 76 -34 114.5t-93 38.5t-112 -33.5t-120 -105.5l-133 119 q176 219 400 219z" />
<glyph unicode="3" horiz-adv-x="866" d="M498 1403q155 0 244 -89.5t89 -228.5q0 -279 -317 -358q248 -37 248 -264q0 -94 -33.5 -182t-94 -158t-154 -112t-204.5 -42q-231 0 -356 201l154 117q44 -64 92 -93.5t110 -29.5q103 0 167.5 83.5t64.5 223.5q0 86 -40.5 122t-121.5 36h-92l59 182h58q96 0 155.5 71.5 t59.5 184.5q0 71 -33.5 108t-95.5 37q-111 0 -238 -118l-106 137q178 172 385 172z" />
<glyph unicode="4" horiz-adv-x="940" d="M897 512l-29 -193h-127l-45 -319h-237l43 319h-486l27 175l444 913l203 -82l-383 -813h223l78 350h209l-49 -350h129z" />
<glyph unicode="5" horiz-adv-x="894" d="M905 1378l-55 -188h-414l-49 -350q87 49 176 49q122 0 193 -87.5t71 -248.5q0 -88 -20 -171.5t-61.5 -158.5t-101 -131.5t-144 -89.5t-183.5 -33q-225 0 -344 195l156 123q41 -61 88 -91t109 -30q66 0 116.5 34.5t79 91t42.5 120.5t14 131q0 89 -32 127.5t-93 38.5 q-71 0 -152 -50h-172l100 719h676z" />
<glyph unicode="6" horiz-adv-x="970" d="M649 915q123 0 193.5 -86t70.5 -247q0 -115 -30.5 -222.5t-88 -195.5t-150 -141.5t-206.5 -53.5q-178 0 -264 113t-86 319q0 140 26 281.5t79 270.5t125.5 229.5t173.5 160.5t215 60q133 0 245 -90l-110 -148q-72 52 -142 52q-101 0 -186 -121.5t-135 -335.5 q120 155 270 155zM449 158q57 0 102 43.5t69 111.5t36 138.5t12 136.5q0 145 -101 145q-105 0 -217 -168q-16 -138 -16 -200q0 -108 28 -157.5t87 -49.5z" />
<glyph unicode="7" horiz-adv-x="772" d="M860 1376l-26 -176l-576 -1227l-209 76l529 1133h-463l28 194h717z" />
<glyph unicode="8" horiz-adv-x="970" d="M709 731q184 -106 184 -297q0 -212 -136 -338.5t-347 -126.5q-179 0 -279 97.5t-100 248.5q0 133 67 234.5t219 173.5q-133 98 -133 260q0 191 121.5 305.5t304.5 114.5q157 0 254 -82t97 -221q0 -121 -58.5 -209t-193.5 -160zM596 1225q-47 0 -82 -20.5t-54.5 -55.5 t-28.5 -75.5t-9 -86.5q0 -66 27 -105t90 -69l26 -12q88 60 123 128t35 158q0 138 -127 138zM428 158q100 0 159.5 74t59.5 198q0 71 -33 115.5t-118 85.5l-39 18q-181 -114 -181 -325q0 -81 39 -123.5t113 -42.5z" />
<glyph unicode="9" horiz-adv-x="942" d="M571 1403q175 0 265 -107.5t90 -298.5q0 -136 -23 -258t-83 -247t-153 -225.5t-243 -185.5t-344 -134l-35 176q241 76 380.5 190t209.5 320q-66 -73 -127 -108.5t-135 -35.5q-123 0 -200 95.5t-77 253.5q0 111 31.5 211.5t89.5 180t150 126.5t204 47zM455 672 q100 0 209 149q10 110 10 203q0 102 -28 148.5t-89 46.5q-57 0 -100.5 -36.5t-66.5 -95t-34.5 -121t-11.5 -124.5q0 -170 111 -170z" />
<glyph unicode=":" horiz-adv-x="436" d="M246 698q-64 0 -102 40.5t-38 101.5q0 73 49 125.5t121 52.5q65 0 102.5 -40t37.5 -101q0 -74 -48.5 -126.5t-121.5 -52.5zM143 -31q-64 0 -101.5 40.5t-37.5 101.5q0 73 49 125.5t121 52.5q65 0 102 -40.5t37 -101.5q0 -74 -48 -126t-122 -52z" />
<glyph unicode=";" horiz-adv-x="440" d="M250 698q-64 0 -101.5 40.5t-37.5 101.5q0 73 49 125.5t121 52.5q65 0 102 -40t37 -101q0 -74 -48.5 -126.5t-121.5 -52.5zM174 289q62 0 97.5 -36t35.5 -99q0 -43 -16 -84.5t-60 -124.5l-153 -295h-141l122 352q-53 39 -53 109q0 74 47.5 126t120.5 52z" />
<glyph unicode="&#x3c;" horiz-adv-x="868" d="M803 1151l61 -188l-585 -293l501 -279l-112 -178l-602 350l32 236z" />
<glyph unicode="=" horiz-adv-x="876" d="M127 782l29 201h690l-29 -201h-690zM70 371l28 200h690l-28 -200h-690z" />
<glyph unicode="&#x3e;" horiz-adv-x="868" d="M240 1151l602 -352l-33 -234l-703 -352l-63 188l590 293l-504 279z" />
<glyph unicode="?" horiz-adv-x="819" d="M530 1444q157 0 243.5 -85.5t86.5 -213.5q0 -73 -22 -132t-57.5 -98t-78 -71.5t-85.5 -61.5t-78.5 -59.5t-57.5 -73t-22 -94.5q0 -25 4 -57l-219 -35q-17 49 -17 106q0 69 20.5 124t53.5 91.5t72.5 68t79.5 59t73 57t53.5 71.5t20.5 93q0 110 -106 110q-97 0 -222 -131 l-135 125q168 207 393 207zM324 -31q-64 0 -102 40.5t-38 101.5q0 73 49 125.5t121 52.5q65 0 102.5 -40.5t37.5 -101.5q0 -74 -48 -126t-122 -52z" />
<glyph unicode="@" horiz-adv-x="1740" d="M1022 1444q151 0 273 -52t200.5 -143.5t120 -213t41.5 -263.5q0 -106 -19 -212.5t-58 -204.5t-92.5 -174t-129 -121.5t-160.5 -45.5q-91 0 -141.5 58.5t-55.5 144.5q-93 -199 -262 -199q-114 0 -180.5 88.5t-66.5 239.5q0 120 27.5 235t82 215t148 161t213.5 61 q141 0 268 -84l-76 -553q-15 -83 -7 -141t54 -58q71 0 127 99t82.5 232.5t26.5 262.5q0 230 -108.5 354.5t-321.5 124.5q-106 0 -199 -31t-163 -84.5t-127 -127.5t-95.5 -158.5t-65 -178.5t-38 -186t-11.5 -184q0 -262 120.5 -410.5t346.5 -148.5q164 0 334 70l37 -178 q-196 -82 -393 -82q-312 0 -491 205t-179 548q0 129 26 260.5t75.5 259t129.5 238.5t181 195.5t236.5 133t289.5 48.5zM791 184q50 0 88.5 46.5t60.5 99.5l74 512q-27 12 -66 12q-64 0 -112.5 -51.5t-74 -133.5t-38 -167.5t-12.5 -169.5q0 -148 80 -148z" />
<glyph unicode="A" d="M666 0l-21 332h-348l-111 -332h-266l547 1415h313l152 -1415h-266zM360 528h273l-41 697z" />
<glyph unicode="B" horiz-adv-x="1042" d="M729 748q246 -58 246 -277q0 -213 -142 -342t-419 -129h-369l201 1415h364q197 0 309.5 -82.5t112.5 -230.5q0 -142 -82.5 -231t-220.5 -123zM608 1223h-133l-55 -392h115q117 0 176 65t59 185q0 142 -162 142zM442 197q62 0 110 15.5t78 41t49 62.5t26.5 76t7.5 85 q0 90 -45.5 130t-141.5 40h-133l-63 -450h112z" />
<glyph unicode="C" horiz-adv-x="970" d="M725 1444q108 0 187.5 -38.5t144.5 -113.5l-139 -137q-90 90 -195 90q-80 0 -145.5 -49t-107.5 -127t-70 -180.5t-40 -203.5t-12 -202q0 -305 193 -305q43 0 89 17.5t67 30.5t76 53q4 2 5.5 3l4.5 3t5 4l97 -156q-175 -164 -387 -164q-190 0 -303 137t-113 392 q0 140 23.5 274t75.5 256.5t125.5 214.5t181.5 146.5t237 54.5z" />
<glyph unicode="D" horiz-adv-x="1120" d="M573 1415q88 0 160.5 -13.5t139 -47.5t112 -88t72 -140t26.5 -198q0 -156 -23 -291t-76 -254t-132.5 -202.5t-198.5 -132t-268 -48.5h-340l201 1415h327zM582 1221h-107l-145 -1026h100q87 0 156.5 46t113 119.5t72 172.5t40 197.5t11.5 201.5q0 160 -62 224.5t-179 64.5 z" />
<glyph unicode="E" horiz-adv-x="878" d="M938 1415l-59 -194h-404l-57 -406h358l-28 -192h-357l-61 -426h440l-31 -197h-694l201 1415h692z" />
<glyph unicode="F" horiz-adv-x="811" d="M918 1415l-58 -194h-385l-61 -433h342l-31 -194h-338l-84 -594h-258l201 1415h672z" />
<glyph unicode="G" horiz-adv-x="1093" d="M754 1444q219 0 358 -166l-147 -131q-53 55 -101.5 77.5t-115.5 22.5q-86 0 -156 -49.5t-116 -129.5t-77.5 -186t-45 -214.5t-13.5 -218.5q0 -279 182 -279q95 0 187 57l51 377h-158l4 195h428l-94 -686q-215 -142 -436 -142q-210 0 -318 129t-108 381q0 144 26 281 t81.5 261t133.5 217.5t190.5 148.5t244.5 55z" />
<glyph unicode="H" horiz-adv-x="1120" d="M303 0h-258l201 1415h256l-80 -571h360l80 571h258l-198 -1415h-258l90 635h-361z" />
<glyph unicode="I" horiz-adv-x="501" d="M502 1415l-199 -1415h-258l201 1415h256z" />
<glyph unicode="J" horiz-adv-x="540" d="M547 1415l-172 -1225q-14 -96 -44 -172t-67 -126t-92.5 -90.5t-106 -64.5t-122.5 -50l-49 180q116 58 161 129.5t64 216.5l170 1202h258z" />
<glyph unicode="K" horiz-adv-x="1062" d="M45 0l201 1415h256l-199 -1415h-258zM705 0l-287 756l471 659h266l-471 -659l303 -756h-282z" />
<glyph unicode="L" horiz-adv-x="839" d="M502 1415l-168 -1200h452l-59 -215h-682l201 1415h256z" />
<glyph unicode="M" horiz-adv-x="1345" d="M1296 1415l-108 -1415h-250l55 590q23 261 76 600l-326 -1034h-249l-58 1032q-28 -301 -80 -602l-100 -586h-250l287 1415h315l45 -1009l305 1009h338z" />
<glyph unicode="N" horiz-adv-x="1116" d="M1116 1415l-198 -1415h-318l-209 1196q0 -322 -39 -614l-78 -582h-227l199 1415h317l209 -1196q0 169 5 280.5t24 250.5l88 665h227z" />
<glyph unicode="O" horiz-adv-x="1179" d="M721 1444q204 0 314 -133.5t110 -388.5q0 -137 -22 -269t-71.5 -257t-122 -219t-181.5 -151t-242 -57q-204 0 -315 134t-111 386q0 95 11 190t36 190t61 179t88.5 157t116.5 126t148 83t180 30zM705 1245q-78 0 -142 -55t-103.5 -140t-66.5 -193.5t-38 -208.5t-11 -193 q0 -149 45 -217t133 -68q80 0 144.5 55t103.5 139.5t65.5 193.5t37 209t10.5 194q0 148 -44.5 216t-133.5 68z" />
<glyph unicode="P" horiz-adv-x="978" d="M584 1415q208 0 320 -97.5t112 -281.5q0 -109 -32.5 -204t-97 -170.5t-172 -119.5t-245.5 -44h-96l-70 -498h-258l201 1415h338zM473 692q81 0 138 29.5t86.5 81t42 108t12.5 123.5q0 101 -46 145t-147 44h-84l-74 -531h72z" />
<glyph unicode="Q" horiz-adv-x="1179" d="M762 80q200 -8 325 -143l-192 -191q-69 116 -157 171.5t-232 55.5q-204 0 -315 132.5t-111 383.5q0 95 11 190t36 190t61 179t88.5 157t116.5 126t148 83t180 30q204 0 314 -133.5t110 -388.5q0 -131 -21.5 -254.5t-65 -239t-119.5 -207.5t-177 -141zM344 455 q0 -149 45 -217t133 -68q80 0 144.5 55t103.5 139.5t65.5 193.5t37 209t10.5 194q0 148 -44.5 216t-133.5 68q-78 0 -142 -55t-103.5 -140t-66.5 -193.5t-38 -208.5t-11 -193z" />
<glyph unicode="R" horiz-adv-x="1034" d="M1018 1063q0 -145 -69.5 -258.5t-207.5 -179.5l209 -625h-266l-174 569l-127 2l-80 -571h-258l201 1415h334q218 0 328 -92t110 -260zM410 760h88q72 0 124 26t79.5 70.5t40 93.5t12.5 105q0 90 -44 130t-137 40h-98z" />
<glyph unicode="S" horiz-adv-x="946" d="M608 1444q237 0 377 -176l-139 -135q-103 112 -234 112q-94 0 -150 -57t-56 -148q0 -69 40 -111t156 -98q142 -68 210.5 -152.5t68.5 -223.5q0 -133 -64 -244t-182 -176.5t-266 -65.5q-250 0 -414 197l147 137q64 -67 125.5 -100t145.5 -33q109 0 176 68.5t67 185.5 q0 80 -42.5 127.5t-161.5 105.5q-144 70 -205.5 148t-61.5 205q0 118 58.5 217t165 158t239.5 59z" />
<glyph unicode="T" horiz-adv-x="894" d="M1012 1415l-56 -209h-286l-170 -1206h-258l170 1206h-303l28 209h875z" />
<glyph unicode="U" horiz-adv-x="1087" d="M1106 1415l-143 -1028q-26 -178 -156 -297t-336 -119q-109 0 -191 35.5t-128.5 95.5t-64.5 136.5t-5 162.5l143 1014h256l-143 -1038q-13 -92 23.5 -147.5t125.5 -55.5q94 0 149.5 60t70.5 153l141 1028h258z" />
<glyph unicode="V" horiz-adv-x="970" d="M1096 1415l-518 -1415h-324l-135 1415h262l68 -1186l382 1186h265z" />
<glyph unicode="W" horiz-adv-x="1417" d="M1511 1415l-395 -1415h-334l6 1145l-309 -1145h-332l5 1415h249l-41 -1204l336 1204h271l-9 -1204l310 1204h243z" />
<glyph unicode="X" horiz-adv-x="950" d="M1049 1415l-396 -653l228 -762h-271l-129 594l-282 -594h-281l428 754l-203 661h271l104 -510l252 510h279z" />
<glyph unicode="Y" horiz-adv-x="972" d="M1104 1415l-490 -878l-75 -537h-258l73 537l-241 878h270l131 -672l313 672h277z" />
<glyph unicode="Z" horiz-adv-x="892" d="M-45 0l31 201l667 1005h-479l31 209h758l-31 -203l-670 -999h545l-62 -213h-790z" />
<glyph unicode="[" horiz-adv-x="546" d="M651 1677l-28 -196h-191l-209 -1530h189l-29 -195h-426l272 1921h422z" />
<glyph unicode="\" horiz-adv-x="886" d="M508 1647l133 -1831l-217 -35l-131 1831z" />
<glyph unicode="]" horiz-adv-x="546" d="M639 1677l-270 -1921h-422l26 195h191l209 1530h-185l27 196h424z" />
<glyph unicode="^" horiz-adv-x="942" d="M750 1724l223 -645h-242l-123 445l-235 -445h-252l403 645h226z" />
<glyph unicode="_" horiz-adv-x="886" d="M-90 -317l29 202h823l-29 -202h-823z" />
<glyph unicode="`" horiz-adv-x="575" d="M309 1659l326 -250l-76 -115l-366 183z" />
<glyph unicode="a" horiz-adv-x="985" d="M608 1112q170 0 334 -90l-106 -743q-11 -52 -4.5 -86.5t42.5 -51.5l-77 -168q-165 20 -193 160q-59 -81 -121.5 -122.5t-146.5 -41.5q-132 0 -207.5 103t-75.5 276q0 110 18.5 215t61.5 205.5t105.5 176t157.5 121.5t212 46zM594 928q-73 0 -130.5 -53t-91 -139.5 t-50.5 -186.5t-17 -205q0 -97 26.5 -140.5t80.5 -43.5q49 0 91 40t93 117l82 594q-42 17 -84 17z" />
<glyph unicode="b" horiz-adv-x="1001" d="M678 1112q126 0 197 -95t71 -272q0 -122 -17.5 -231t-58.5 -210.5t-103 -174.5t-157 -116.5t-215 -43.5q-160 0 -350 80l207 1469l250 26l-78 -559q111 127 254 127zM588 922q-47 0 -98 -36t-95 -95l-84 -609q58 -22 115 -22q69 0 123 54t84 141t45.5 184.5t15.5 197.5 q0 101 -26.5 143t-79.5 42z" />
<glyph unicode="c" horiz-adv-x="811" d="M580 1112q171 0 284 -125l-125 -139q-76 67 -155 67q-72 0 -126.5 -51t-83.5 -133.5t-43 -170.5t-14 -179q0 -209 136 -209q46 0 85 17t95 55l90 -156q-147 -119 -307 -119q-166 0 -261.5 111.5t-95.5 308.5q0 137 33 264t95.5 230.5t164.5 166t228 62.5z" />
<glyph unicode="d" d="M782 1540l246 -24l-213 -1516h-219l6 147q-56 -88 -120.5 -133t-151.5 -45q-131 0 -203 101.5t-72 281.5q0 132 28.5 263t82.5 244.5t143.5 184t200.5 70.5q134 0 199 -113zM551 924q-61 0 -110 -58t-77 -148t-42.5 -185.5t-14.5 -182.5q0 -190 109 -190q54 0 102 51.5 t100 148.5l64 461q-25 53 -54.5 78t-76.5 25z" />
<glyph unicode="e" horiz-adv-x="921" d="M590 1112q149 0 232 -79.5t81 -201.5q-1 -88 -35.5 -157.5t-88.5 -115t-134 -78.5t-159.5 -51t-178.5 -30v-28q0 -110 37.5 -157.5t110.5 -47.5q59 0 111.5 22.5t119.5 71.5l90 -151q-167 -140 -356 -140q-172 0 -268 107t-95 305q1 110 20.5 213t61.5 198t103 165.5 t150.5 112.5t197.5 42zM324 565q172 20 253.5 85.5t81.5 178.5q0 105 -94 105q-67 0 -118.5 -56t-79 -134t-43.5 -179z" />
<glyph unicode="f" horiz-adv-x="583" d="M629 1354q-61 0 -93.5 -38t-43.5 -120l-17 -113h213l-55 -182h-182l-115 -825q-12 -84 -31.5 -150.5t-50.5 -116.5t-62.5 -86t-80 -67.5t-89 -52t-102.5 -47.5l-59 184q53 24 86.5 47.5t64 61.5t49 94.5t29.5 138.5l113 819h-135l26 182h133l19 127q21 153 114.5 244.5 t247.5 91.5q137 0 246 -84l-90 -149q-68 41 -135 41z" />
<glyph unicode="g" horiz-adv-x="983" d="M610 1112q170 0 334 -90l-139 -995q-36 -248 -151.5 -362t-315.5 -114q-185 0 -332 109l92 168q124 -76 234 -76q42 0 75.5 10t66 36t55 77.5t32.5 126.5l19 139q-52 -68 -108 -104.5t-136 -36.5q-131 0 -205 101t-74 270q0 107 18.5 209.5t60.5 200t104.5 170t157.5 117 t212 44.5zM596 928q-59 0 -108 -33.5t-82 -89.5t-55.5 -129.5t-33 -151t-10.5 -157.5q0 -177 107 -177q50 0 94.5 40.5t93.5 115.5l78 565q-42 17 -84 17z" />
<glyph unicode="h" horiz-adv-x="966" d="M688 1114q112 0 170 -88.5t37 -234.5l-113 -791h-247l106 762q17 133 -57 133q-86 0 -211 -252l-86 -643h-248l213 1516l250 24l-88 -625q117 199 274 199z" />
<glyph unicode="i" horiz-adv-x="477" d="M346 1319q-64 0 -99.5 36t-35.5 97q0 77 48 124.5t120 47.5q64 0 99.5 -36t35.5 -97q0 -75 -49 -123.5t-119 -48.5zM438 1083l-151 -1083h-248l151 1083h248z" />
<glyph unicode="j" horiz-adv-x="479" d="M352 1319q-64 0 -99.5 36t-35.5 97q0 77 48 124.5t120 47.5q64 0 99.5 -36t35.5 -97q0 -75 -49 -123.5t-119 -48.5zM-117 -444l-57 184q71 32 111 66t71 100.5t47 175.5l140 1001h247l-141 -1007q-12 -84 -32 -150.5t-51 -116.5t-62.5 -86t-80 -67.5t-89 -52 t-103.5 -47.5z" />
<glyph unicode="k" horiz-adv-x="964" d="M502 1544l-86 -618q65 95 138 140.5t163 45.5q107 0 173 -66.5t66 -173.5q0 -123 -67 -216t-205 -167l164 -489h-260l-158 526q150 54 212.5 128t62.5 180q0 96 -78 96q-57 0 -122 -67t-128 -197l-90 -666h-248l213 1518z" />
<glyph unicode="l" horiz-adv-x="501" d="M489 1544l-180 -1304q-8 -66 37 -66q24 0 45 8l27 -174q-70 -37 -160 -37q-109 0 -161.5 70t-35.5 192l181 1285z" />
<glyph unicode="m" horiz-adv-x="1413" d="M1145 1114q106 0 162.5 -88.5t35.5 -234.5l-114 -791h-248l106 762q17 137 -47 137q-43 0 -87 -63.5t-103 -186.5l-94 -649h-248l106 762q17 137 -47 137q-43 0 -88 -65.5t-104 -188.5l-88 -645h-248l151 1083h216l-11 -176q125 207 277 207q80 0 133 -52.5t65 -148.5 q64 99 129 150t146 51z" />
<glyph unicode="n" horiz-adv-x="968" d="M690 1114q112 0 170 -88.5t37 -234.5l-113 -791h-247l106 762q17 133 -57 133q-86 0 -211 -252l-88 -643h-248l151 1083h216l-11 -180q65 101 135.5 156t159.5 55z" />
<glyph unicode="o" horiz-adv-x="993" d="M416 -31q-169 0 -264 109.5t-95 306.5q0 104 18.5 205t60 196t101 167t148 115.5t195.5 43.5q169 0 262.5 -107.5t93.5 -306.5q0 -85 -13 -169.5t-39 -167t-69 -153t-99 -124.5t-133 -84.5t-167 -30.5zM432 162q69 0 121 58.5t79 150t39.5 182t12.5 176.5q0 193 -121 193 q-56 0 -101 -39.5t-72.5 -100.5t-46 -139t-25.5 -150t-7 -139q0 -192 121 -192z" />
<glyph unicode="p" horiz-adv-x="1001" d="M-25 -449l215 1532h220l-7 -116q118 145 275 145q126 0 198 -95.5t72 -271.5q0 -118 -17 -227t-56.5 -210t-97 -175.5t-145 -119t-194.5 -44.5q-80 0 -153 31l-60 -420zM424 158q71 0 126 57.5t85.5 148t45.5 187t15 190.5q0 97 -27 139t-81 42q-46 0 -98 -36.5 t-93 -92.5l-86 -611q61 -24 113 -24z" />
<glyph unicode="q" horiz-adv-x="987" d="M498 -449l75 551q-50 -63 -105.5 -98t-131.5 -35q-131 0 -207 103t-76 276q0 92 13.5 180.5t41 175.5t73 160t105.5 129t143 87.5t181 31.5q172 0 336 -90l-201 -1442zM412 160q51 0 94 40.5t94 116.5l84 594q-43 17 -88 17q-73 0 -130.5 -52t-91.5 -137.5t-51.5 -186.5 t-17.5 -208q0 -96 26.5 -140t80.5 -44z" />
<glyph unicode="r" horiz-adv-x="667" d="M655 1110q41 0 88 -14l-77 -242q-38 10 -72 10q-78 0 -134 -83t-100 -240l-73 -541h-248l151 1083h213l-10 -188q50 106 112.5 160.5t149.5 54.5z" />
<glyph unicode="s" horiz-adv-x="813" d="M479 1112q194 0 324 -133l-113 -137q-97 84 -203 84q-65 0 -103 -34.5t-38 -92.5q0 -49 36 -82t130 -76q110 -48 164.5 -116.5t54.5 -178.5q0 -169 -119 -273t-297 -104q-215 0 -360 160l135 135q109 -106 225 -106q80 0 122 46.5t42 110.5q0 61 -35 97.5t-129 76.5 q-113 49 -165 113.5t-52 169.5q0 142 108 241t273 99z" />
<glyph unicode="t" horiz-adv-x="645" d="M438 901l-88 -622q-15 -107 70 -107q36 0 104 35l62 -162q-107 -76 -236 -76q-134 0 -200 86.5t-46 231.5l86 614h-131l27 182h139l62 246l215 25l-39 -271h203l-56 -182h-172z" />
<glyph unicode="u" horiz-adv-x="958" d="M283 -31q-112 0 -171.5 85.5t-39.5 224.5l110 804h248l-111 -790q-7 -56 8 -84.5t48 -28.5q89 0 196 191l103 712h246l-152 -1083h-213l10 166q-63 -96 -127 -146.5t-155 -50.5z" />
<glyph unicode="v" horiz-adv-x="862" d="M936 1083l-426 -1083h-299l-131 1083h262l47 -880l287 880h260z" />
<glyph unicode="w" horiz-adv-x="1259" d="M1313 1083l-338 -1083h-291l-10 860l-240 -860h-295l-39 1083h246l-20 -899l264 899h248l4 -899l233 899h238z" />
<glyph unicode="x" horiz-adv-x="851" d="M893 1083l-311 -516l202 -567h-258l-120 432l-234 -432h-256l365 580l-185 503h260l97 -378l188 378h252z" />
<glyph unicode="y" horiz-adv-x="868" d="M942 1083l-428 -1089q-85 -219 -213 -318t-336 -120l-4 176q136 28 203.5 83t124.5 185h-92l-117 1083h256l45 -909l301 909h260z" />
<glyph unicode="z" horiz-adv-x="761" d="M793 1083l-27 -182l-500 -702h414l-53 -199h-676l26 182l500 703h-371l31 198h656z" />
<glyph unicode="{" horiz-adv-x="546" d="M657 1714l-22 -182q-72 0 -105 -32.5t-43 -115.5l-55 -426q-7 -61 -23.5 -103t-45.5 -69.5t-60 -43.5t-80 -31q85 -23 117 -75.5t16 -170.5l-55 -428q-10 -75 14 -105t95 -30l-25 -183q-185 0 -259.5 79t-51.5 249l55 416q12 85 -7.5 117t-86.5 32l31 207q65 0 96 32.5 t41 115.5l59 428q22 172 108.5 245.5t286.5 73.5z" />
<glyph unicode="|" horiz-adv-x="647" d="M596 1657l-262 -1870h-232l263 1870h231z" />
<glyph unicode="}" horiz-adv-x="546" d="M-61 -281l22 183q72 0 105 32t43 115l55 426q8 61 25 103t45.5 69.5t60 44t80.5 31.5q-86 23 -118.5 75.5t-16.5 170.5l57 428q10 75 -14.5 105t-96.5 30l25 182q185 0 259.5 -79t51.5 -249l-55 -415q-12 -86 7.5 -118t86.5 -32l-29 -207q-65 0 -97 -32.5t-42 -114.5 l-57 -428q-24 -173 -110.5 -246.5t-286.5 -73.5z" />
<glyph unicode="~" horiz-adv-x="870" d="M569 496q-42 0 -81.5 19.5t-65 43t-56.5 43t-59 19.5q-21 0 -39.5 -7.5t-38 -27t-28.5 -31t-31 -39.5l-121 74q31 47 56.5 80t62 68.5t78.5 54t88 18.5q41 0 80.5 -19t64.5 -42.5t56 -42.5t59 -19q69 0 135 96l123 -73q-29 -45 -55 -78.5t-61.5 -67t-78 -51.5t-88.5 -18z " />
<glyph unicode="&#xa1;" horiz-adv-x="454" d="M258 705q-64 0 -101.5 40t-37.5 101q0 73 49 125.5t121 52.5q65 0 102 -40t37 -101q0 -74 -48 -126t-122 -52zM317 494l-98 -910h-262l160 910h200z" />
<glyph unicode="&#xa2;" horiz-adv-x="811" d="M584 915q-72 0 -126.5 -51t-83.5 -133.5t-43 -170.5t-14 -179q0 -209 136 -209q46 0 85 17t95 55l90 -156q-117 -94 -234 -113l-43 -297h-180l43 306q-119 32 -184.5 137t-65.5 268q0 120 26 234.5t75 212t128.5 167.5t178.5 95l45 311h178l-41 -301q125 -20 215 -121 l-125 -139q-76 67 -155 67z" />
<glyph unicode="&#xa3;" horiz-adv-x="901" d="M670 1208q-134 0 -162 -207l-29 -208h307l-20 -144h-305l-27 -203q-13 -100 -44 -154t-109 -95h522l-60 -197h-757l28 190q93 34 126.5 87.5t47.5 171.5l27 200h-115l23 144h113l28 219q27 180 129.5 285.5t270.5 105.5q206 0 307 -189l-160 -104q-31 54 -63 76t-78 22z " />
<glyph unicode="&#xa4;" horiz-adv-x="942" d="M950 276l-133 -104l-125 154q-85 -60 -200 -60q-114 0 -197 62l-129 -156l-123 109l143 168q-57 105 -57 249q0 139 55 246l-147 178l133 107l125 -158q83 59 197 59q115 0 198 -59l131 158l123 -111l-145 -168q59 -103 59 -252q0 -142 -55 -243zM494 440q83 0 124 62 t41 198t-41 198.5t-124 62.5q-85 0 -126.5 -62.5t-41.5 -198.5t41.5 -198t126.5 -62z" />
<glyph unicode="&#xa5;" horiz-adv-x="931" d="M1059 1376l-395 -663h172l-23 -146h-221l-23 -166h222l-23 -143h-217l-37 -258h-248l37 258h-221l22 143h218l22 166h-219l22 146h168l-209 663h254l140 -592l297 592h262z" />
<glyph unicode="&#xa6;" horiz-adv-x="647" d="M596 1657l-107 -750h-231l107 750h231zM438 537l-104 -750h-232l105 750h231z" />
<glyph unicode="&#xa7;" horiz-adv-x="952" d="M643 911q211 -93 211 -262q0 -92 -47 -162.5t-141 -128.5q73 -73 73 -184q0 -137 -105.5 -234.5t-291.5 -97.5q-180 0 -311 109l104 143q99 -71 213 -71q81 0 118.5 38.5t37.5 100.5q0 58 -34 91.5t-134 74.5q-108 44 -160.5 105.5t-52.5 156.5q0 180 186 291 q-67 70 -67 176q0 152 110 248t277 96q177 0 311 -117l-104 -139q-95 76 -201 76q-83 0 -121.5 -39.5t-38.5 -100.5q0 -58 33.5 -90.5t134.5 -79.5zM453 489q30 -14 102 -51q80 86 80 172q0 46 -31 83t-106 69q-50 21 -80 39q-74 -82 -74 -174q0 -46 25 -78.5t84 -59.5z" />
<glyph unicode="&#xa8;" horiz-adv-x="770" d="M307 1329q-53 0 -85 32.5t-32 84.5q0 66 43.5 109.5t104.5 43.5q55 0 87 -32t32 -84q0 -67 -43.5 -110.5t-106.5 -43.5zM690 1329q-54 0 -86.5 32.5t-32.5 84.5q0 66 44 109.5t104 43.5q55 0 87 -32t32 -84q0 -67 -43 -110.5t-105 -43.5z" />
<glyph unicode="&#xa9;" horiz-adv-x="1368" d="M733 1550q117 0 219.5 -47t178.5 -131t119.5 -209.5t43.5 -275.5q0 -149 -43.5 -274t-119.5 -209t-178.5 -130.5t-219.5 -46.5t-220 46.5t-179 130.5t-120 209t-44 274q0 150 44 275.5t120 209.5t179 131t220 47zM733 1415q-183 0 -299.5 -141t-116.5 -387 q0 -245 116.5 -386t299.5 -141t298.5 141t115.5 386q0 246 -115.5 387t-298.5 141zM743 1284q117 0 209 -92l-75 -102q-68 47 -123 47q-127 0 -127 -248q0 -244 131 -244q62 0 127 55l73 -106q-96 -100 -221 -100q-132 0 -211.5 102t-79.5 293q0 190 81 292.5t216 102.5z " />
<glyph unicode="&#xaa;" horiz-adv-x="833" d="M326 549q-98 0 -155.5 63t-57.5 164q0 59 18.5 110t58.5 96t113.5 71t173.5 26h78l4 33q10 71 -12 103t-80 32q-77 0 -186 -39l-39 150q137 57 272 57q148 0 215.5 -78t46.5 -233l-43 -305q-7 -36 0 -58.5t35 -35.5l-68 -152q-129 13 -161 111q-86 -115 -213 -115z M401 713q65 0 115 86l21 147h-62q-72 0 -104.5 -43t-32.5 -106q0 -84 63 -84zM2 0l29 201h678l-29 -201h-678z" />
<glyph unicode="&#xab;" horiz-adv-x="1073" d="M463 1114l141 -102l-280 -430l159 -424l-168 -103l-247 447l26 166zM926 1114l141 -102l-281 -430l160 -424l-168 -103l-248 447l27 166z" />
<glyph unicode="&#xac;" horiz-adv-x="894" d="M831 766l-71 -502h-221l41 301h-484l29 201h706z" />
<glyph unicode="&#xad;" horiz-adv-x="698" d="M90 541l27 200h520l-27 -200h-520z" />
<glyph unicode="&#xae;" horiz-adv-x="1071" d="M602 1542q198 0 326.5 -149.5t128.5 -391.5q0 -240 -128.5 -389t-326.5 -149q-199 0 -329 149t-130 389t130 390.5t329 150.5zM602 580q148 0 239 112t91 309q0 198 -91.5 312t-238.5 114q-148 0 -241 -114.5t-93 -311.5t93 -309t241 -112zM788 1122q0 -105 -98 -153 l123 -240h-131l-94 213h-43v-213h-117v569h139q109 0 165 -45t56 -131zM545 1200v-153h51q74 0 74 77q0 76 -78 76h-47z" />
<glyph unicode="&#xaf;" horiz-adv-x="622" d="M672 1354h-496l27 180h497z" />
<glyph unicode="&#xb0;" horiz-adv-x="860" d="M408 770q-108 0 -180 72.5t-72 204.5q0 169 97 283t241 114q108 0 179.5 -72t71.5 -205q0 -169 -96.5 -283t-240.5 -114zM420 922q73 0 113 69.5t40 173.5q0 127 -90 127q-75 0 -115 -69.5t-40 -173.5q0 -127 92 -127z" />
<glyph unicode="&#xb1;" horiz-adv-x="892" d="M645 1194l-43 -313h246l-29 -201h-248l-47 -311h-207l48 311h-252l28 201h254l43 313h207zM29 0l28 201h691l-29 -201h-690z" />
<glyph unicode="&#xb2;" horiz-adv-x="671" d="M453 1532q105 0 167 -61.5t62 -157.5q0 -43 -11 -84.5t-36.5 -84t-52 -78t-73.5 -83t-83.5 -82t-99.5 -90.5h307l-43 -154h-486l21 146q87 85 131 129.5t98.5 104.5t78.5 98t41.5 81.5t17.5 83.5q0 39 -20 60.5t-54 21.5q-36 0 -68.5 -21t-73.5 -63l-100 91 q121 143 277 143z" />
<glyph unicode="&#xb3;" horiz-adv-x="671" d="M457 1534q105 0 164 -56.5t59 -144.5q0 -85 -52.5 -142t-148.5 -81q77 -6 120.5 -49t43.5 -121q0 -128 -89 -216.5t-235 -88.5q-164 0 -245 135l112 88q59 -74 133 -74q63 0 100.5 48t37.5 118q0 88 -107 88h-59l43 136h33q60 0 95.5 41t35.5 98q0 76 -78 76 q-71 0 -156 -68l-78 100q122 113 271 113z" />
<glyph unicode="&#xb4;" horiz-adv-x="585" d="M563 1663l92 -186l-409 -185l-66 121z" />
<glyph unicode="&#xb5;" horiz-adv-x="978" d="M823 367q-29 -205 -10 -371l-229 -23q-18 86 -15 160q-94 -153 -207 -153q-73 0 -114 59q15 -98 -8 -256l-29 -199l-236 -26l215 1525h246l-104 -764q-11 -84 8 -117.5t61 -33.5q94 0 172 170l105 745h246z" />
<glyph unicode="&#xb6;" horiz-adv-x="1296" d="M688 1415h547l-258 -1831l-217 -30l229 1677h-162l-227 -1647l-219 -30l143 1005q-168 7 -255 101t-87 247q0 232 136.5 370t369.5 138z" />
<glyph unicode="&#xb7;" horiz-adv-x="434" d="M215 471q-64 0 -101.5 40t-37.5 101q0 73 49 126t121 53q65 0 102 -40.5t37 -101.5q0 -74 -48 -126t-122 -52z" />
<glyph unicode="&#xb8;" horiz-adv-x="544" d="M242 33l-23 -148q148 -18 148 -161q0 -42 -15 -82t-45 -75.5t-84.5 -57t-124.5 -21.5q-112 0 -176 57l74 115q52 -27 98 -27q41 0 66.5 20.5t25.5 59.5t-31 54.5t-110 15.5l57 250h140z" />
<glyph unicode="&#xb9;" horiz-adv-x="671" d="M623 1516l-121 -859h-180l90 668l-160 -108l-72 122l277 177h166z" />
<glyph unicode="&#xba;" horiz-adv-x="845" d="M539 1415q144 0 223.5 -85t79.5 -245q0 -78 -14 -152.5t-46 -145t-79 -123t-117.5 -84t-155.5 -31.5q-144 0 -223.5 85.5t-79.5 244.5q0 78 14 152.5t46 145t79 123t117.5 84t155.5 31.5zM528 1245q-51 0 -87.5 -38.5t-54.5 -101.5t-26 -125t-8 -126q0 -135 88 -135 q50 0 87 40.5t55.5 104t27 125.5t8.5 121q0 135 -90 135zM0 0l29 201h690l-29 -201h-690z" />
<glyph unicode="&#xbb;" horiz-adv-x="1073" d="M307 1114l248 -446l-25 -166l-370 -447l-140 103l281 432l-162 422zM770 1114l248 -446l-25 -166l-370 -447l-140 103l281 432l-162 422z" />
<glyph unicode="&#xbc;" horiz-adv-x="1603" d="M1182 1542l133 -72l-907 -1636l-136 72zM307 557l90 668l-159 -109l-72 123l276 176h166l-121 -858h-180zM1526 334l-23 -150h-76l-26 -184h-172l26 184h-321l18 135l279 558l149 -62l-235 -481h135l59 205h138l-29 -205h78z" />
<glyph unicode="&#xbd;" horiz-adv-x="1603" d="M1182 1542l133 -72l-907 -1636l-136 72zM608 1415l-121 -858h-180l90 668l-159 -109l-72 123l276 176h166zM1292 874q105 0 167.5 -61.5t62.5 -157.5q0 -51 -19 -103t-45 -94t-79.5 -99.5t-95 -96.5t-118.5 -108h308l-43 -154h-486l21 145q85 83 130.5 129t98.5 105.5 t78 98.5t42 82t17 83q0 39 -20 60.5t-54 21.5q-36 0 -68 -20.5t-73 -63.5l-100 90q121 143 276 143z" />
<glyph unicode="&#xbe;" horiz-adv-x="1603" d="M1182 1542l133 -72l-907 -1636l-136 72zM629 840q0 -128 -89 -216.5t-235 -88.5q-165 0 -246 135l113 88q59 -74 133 -74q62 0 99.5 48t37.5 118q0 46 -26 67t-80 21h-60l43 135h33q60 0 95.5 41t35.5 98q0 76 -77 76q-72 0 -156 -67l-78 100q122 113 270 113 q105 0 164.5 -56.5t59.5 -144.5q0 -85 -52.5 -142t-148.5 -81q77 -6 120.5 -49t43.5 -121zM1526 334l-23 -150h-76l-26 -184h-172l26 184h-321l18 135l279 558l149 -62l-235 -481h135l59 205h138l-29 -205h78z" />
<glyph unicode="&#xbf;" horiz-adv-x="817" d="M483 1040q64 0 102 -40.5t38 -100.5q0 -73 -49 -125.5t-121 -52.5q-65 0 -102.5 40t-37.5 101q0 74 48 126t122 52zM274 -449q-157 0 -243 85.5t-86 213.5q0 72 22 130.5t58 97t78.5 71t85.5 61.5t79 60t58 74t22 96q0 26 -4 58l217 34q19 -55 19 -106q0 -69 -20.5 -124 t-53.5 -91.5t-72.5 -67.5t-79.5 -58.5t-73 -56.5t-53.5 -70.5t-20.5 -92.5q0 -61 26 -87t78 -26q103 0 221 133l136 -127q-168 -207 -394 -207z" />
<glyph unicode="&#xc0;" d="M899 1657l-78 -117l-364 162l112 184zM666 0l-21 332h-348l-111 -332h-266l547 1415h313l152 -1415h-266zM360 528h273l-41 697z" />
<glyph unicode="&#xc1;" d="M909 1702l-411 -164l-62 121l381 231zM666 0l-21 332h-348l-111 -332h-266l547 1415h313l152 -1415h-266zM360 528h273l-41 697z" />
<glyph unicode="&#xc2;" d="M662 1722l-238 -170l-94 105l274 250h152l205 -262l-101 -93zM467 1415h313l152 -1415h-266l-21 332h-348l-111 -332h-266zM360 528h273l-41 697z" />
<glyph unicode="&#xc3;" d="M563 1675q-26 0 -47 -21.5t-51 -68.5l-115 70q46 92 104 148.5t121 56.5q34 0 64.5 -15t49.5 -33.5t41.5 -33.5t41.5 -15q23 0 44.5 20.5t51.5 67.5l115 -67q-45 -96 -103.5 -149.5t-121.5 -53.5q-38 0 -75 23.5t-67 47t-53 23.5zM467 1415h313l152 -1415h-266l-21 332 h-348l-111 -332h-266zM360 528h273l-41 697z" />
<glyph unicode="&#xc4;" d="M459 1587q-53 0 -85 32.5t-32 84.5q0 66 43 110t104 44q55 0 87 -32.5t32 -84.5q0 -67 -43.5 -110.5t-105.5 -43.5zM870 1858q55 0 87 -32.5t32 -84.5q0 -67 -42.5 -110.5t-104.5 -43.5q-54 0 -86.5 32.5t-32.5 84.5q0 66 43.5 110t103.5 44zM467 1415h313l152 -1415 h-266l-21 332h-348l-111 -332h-266zM360 528h273l-41 697z" />
<glyph unicode="&#xc5;" d="M645 1520q-92 0 -146.5 59.5t-54.5 153.5q0 114 71 189t183 75q92 0 146.5 -59.5t54.5 -153.5q0 -114 -70.5 -189t-183.5 -75zM688 1870q-46 0 -72 -38.5t-26 -94.5q0 -43 17.5 -66.5t49.5 -23.5q44 0 70.5 38.5t26.5 94.5q0 90 -66 90zM666 0l-21 332h-348l-111 -332 h-266l547 1415h313l152 -1415h-266zM360 528h273l-41 697z" />
<glyph unicode="&#xc6;" horiz-adv-x="1409" d="M1352 1221h-455l10 -408h406l-31 -192h-369l11 -424h381l-31 -197h-586l-4 332h-371l-135 -332h-272l639 1415h864zM393 528h289l-8 691z" />
<glyph unicode="&#xc7;" horiz-adv-x="970" d="M723 1245q-80 0 -145.5 -49t-107.5 -127t-70 -180.5t-40 -203.5t-12 -202q0 -305 193 -305q43 0 89 17.5t67 30.5t76 53q4 2 5.5 3l4.5 3t5 4l97 -156q-153 -142 -332 -160l-12 -88q147 -18 147 -161q0 -42 -14.5 -82t-45 -75.5t-84.5 -57t-124 -21.5q-112 0 -176 57 l73 115q52 -27 99 -27q41 0 66.5 20.5t25.5 59.5t-31 54.5t-110 15.5l45 194q-153 30 -241.5 164t-88.5 357q0 140 23.5 274t75.5 256.5t125.5 214.5t181.5 146.5t237 54.5q108 0 187.5 -38.5t144.5 -113.5l-139 -137q-90 90 -195 90z" />
<glyph unicode="&#xc8;" horiz-adv-x="878" d="M539 1886l329 -229l-77 -117l-365 162zM938 1415l-59 -194h-404l-57 -406h358l-28 -192h-357l-61 -426h440l-31 -197h-694l201 1415h692z" />
<glyph unicode="&#xc9;" horiz-adv-x="878" d="M786 1890l93 -188l-412 -164l-61 121zM938 1415l-59 -194h-404l-57 -406h358l-28 -192h-357l-61 -426h440l-31 -197h-694l201 1415h692z" />
<glyph unicode="&#xca;" horiz-adv-x="878" d="M393 1552l-94 105l274 250h152l205 -262l-101 -93l-198 170zM938 1415l-59 -194h-404l-57 -406h358l-28 -192h-357l-61 -426h440l-31 -197h-694l201 1415h692z" />
<glyph unicode="&#xcb;" horiz-adv-x="878" d="M428 1587q-53 0 -85 32.5t-32 84.5q0 66 43.5 110t104.5 44q55 0 87 -32.5t32 -84.5q0 -67 -44 -110.5t-106 -43.5zM811 1587q-53 0 -86 32.5t-33 84.5q0 66 44 110t104 44q55 0 86.5 -32.5t31.5 -84.5q0 -67 -42.5 -110.5t-104.5 -43.5zM938 1415l-59 -194h-404 l-57 -406h358l-28 -192h-357l-61 -426h440l-31 -197h-694l201 1415h692z" />
<glyph unicode="&#xcc;" horiz-adv-x="501" d="M317 1886l330 -229l-78 -117l-364 162zM502 1415l-199 -1415h-258l201 1415h256z" />
<glyph unicode="&#xcd;" horiz-adv-x="501" d="M565 1890l92 -188l-411 -164l-62 121zM502 1415l-199 -1415h-258l201 1415h256z" />
<glyph unicode="&#xce;" horiz-adv-x="501" d="M172 1552l-94 105l274 250h152l205 -262l-101 -93l-198 170zM502 1415l-199 -1415h-258l201 1415h256z" />
<glyph unicode="&#xcf;" horiz-adv-x="501" d="M207 1587q-53 0 -85 32.5t-32 84.5q0 66 43.5 110t104.5 44q55 0 86.5 -32.5t31.5 -84.5q0 -67 -43.5 -110.5t-105.5 -43.5zM590 1587q-54 0 -86.5 32.5t-32.5 84.5q0 66 43.5 110t103.5 44q55 0 87 -32.5t32 -84.5q0 -67 -42.5 -110.5t-104.5 -43.5zM502 1415 l-199 -1415h-258l201 1415h256z" />
<glyph unicode="&#xd0;" horiz-adv-x="1134" d="M588 1415q88 0 160.5 -13.5t139 -47.5t112 -88t72 -140t26.5 -198q0 -156 -23.5 -291t-76.5 -254t-132.5 -202.5t-198.5 -132t-268 -48.5h-340l91 637h-113l26 172h111l86 606h328zM444 195q87 0 157 46t113 119.5t72 172.5t40.5 197.5t11.5 201.5q0 159 -62 224t-180 65 h-107l-57 -412h227l-26 -172h-225l-64 -442h100z" />
<glyph unicode="&#xd1;" horiz-adv-x="1116" d="M821 1581q-38 0 -74.5 23.5t-66.5 47t-53 23.5q-26 0 -47.5 -21.5t-51.5 -68.5l-114 70q46 92 104 148.5t121 56.5q34 0 64.5 -15t49.5 -33.5t41.5 -33.5t41.5 -15q23 0 44.5 20.5t51.5 67.5l115 -67q-44 -96 -103.5 -149.5t-122.5 -53.5zM1116 1415l-198 -1415h-318 l-209 1196q0 -322 -39 -614l-78 -582h-227l199 1415h317l209 -1196q0 169 5 280.5t24 250.5l88 665h227z" />
<glyph unicode="&#xd2;" horiz-adv-x="1179" d="M664 1886l329 -229l-78 -117l-364 162zM721 1444q204 0 314 -133.5t110 -388.5q0 -137 -22 -269t-71.5 -257t-122 -219t-181.5 -151t-242 -57q-204 0 -315 134t-111 386q0 95 11 190t36 190t61 179t88.5 157t116.5 126t148 83t180 30zM705 1245q-78 0 -142 -55 t-103.5 -140t-66.5 -193.5t-38 -208.5t-11 -193q0 -149 45 -217t133 -68q80 0 144.5 55t103.5 139.5t65.5 193.5t37 209t10.5 194q0 148 -44.5 216t-133.5 68z" />
<glyph unicode="&#xd3;" horiz-adv-x="1179" d="M911 1890l93 -188l-412 -164l-62 121zM721 1444q204 0 314 -133.5t110 -388.5q0 -137 -22 -269t-71.5 -257t-122 -219t-181.5 -151t-242 -57q-204 0 -315 134t-111 386q0 95 11 190t36 190t61 179t88.5 157t116.5 126t148 83t180 30zM705 1245q-78 0 -142 -55 t-103.5 -140t-66.5 -193.5t-38 -208.5t-11 -193q0 -149 45 -217t133 -68q80 0 144.5 55t103.5 139.5t65.5 193.5t37 209t10.5 194q0 148 -44.5 216t-133.5 68z" />
<glyph unicode="&#xd4;" horiz-adv-x="1179" d="M518 1552l-94 105l274 250h152l205 -262l-101 -93l-198 170zM721 1444q204 0 314 -133.5t110 -388.5q0 -137 -22 -269t-71.5 -257t-122 -219t-181.5 -151t-242 -57q-204 0 -315 134t-111 386q0 95 11 190t36 190t61 179t88.5 157t116.5 126t148 83t180 30zM705 1245 q-78 0 -142 -55t-103.5 -140t-66.5 -193.5t-38 -208.5t-11 -193q0 -149 45 -217t133 -68q80 0 144.5 55t103.5 139.5t65.5 193.5t37 209t10.5 194q0 148 -44.5 216t-133.5 68z" />
<glyph unicode="&#xd5;" horiz-adv-x="1179" d="M852 1581q-38 0 -75 23.5t-67 47t-53 23.5q-26 0 -47 -21.5t-51 -68.5l-115 70q46 92 104.5 148.5t121.5 56.5q34 0 64.5 -15t49 -33.5t41 -33.5t41.5 -15q23 0 45 21t52 67l114 -67q-45 -96 -103.5 -149.5t-121.5 -53.5zM721 1444q204 0 314 -133.5t110 -388.5 q0 -137 -22 -269t-71.5 -257t-122 -219t-181.5 -151t-242 -57q-204 0 -315 134t-111 386q0 95 11 190t36 190t61 179t88.5 157t116.5 126t148 83t180 30zM705 1245q-78 0 -142 -55t-103.5 -140t-66.5 -193.5t-38 -208.5t-11 -193q0 -149 45 -217t133 -68q80 0 144.5 55 t103.5 139.5t65.5 193.5t37 209t10.5 194q0 148 -44.5 216t-133.5 68z" />
<glyph unicode="&#xd6;" horiz-adv-x="1179" d="M553 1587q-53 0 -85 32.5t-32 84.5q0 66 43.5 110t104.5 44q55 0 86.5 -32.5t31.5 -84.5q0 -67 -43.5 -110.5t-105.5 -43.5zM936 1587q-54 0 -86.5 32.5t-32.5 84.5q0 66 44 110t104 44q55 0 86.5 -32.5t31.5 -84.5q0 -67 -42.5 -110.5t-104.5 -43.5zM721 1444 q204 0 314 -133.5t110 -388.5q0 -137 -22 -269t-71.5 -257t-122 -219t-181.5 -151t-242 -57q-204 0 -315 134t-111 386q0 95 11 190t36 190t61 179t88.5 157t116.5 126t148 83t180 30zM705 1245q-78 0 -142 -55t-103.5 -140t-66.5 -193.5t-38 -208.5t-11 -193 q0 -149 45 -217t133 -68q80 0 144.5 55t103.5 139.5t65.5 193.5t37 209t10.5 194q0 148 -44.5 216t-133.5 68z" />
<glyph unicode="&#xd7;" horiz-adv-x="882" d="M696 1018l133 -127l-245 -262l194 -264l-162 -125l-182 249l-227 -249l-131 127l241 258l-190 268l162 125l176 -262z" />
<glyph unicode="&#xd8;" horiz-adv-x="1179" d="M973 1364q83 -65 127.5 -178t44.5 -264q0 -137 -22 -269t-71.5 -257t-122 -219t-181.5 -151t-242 -57q-38 0 -76 6l-90 -241l-188 53l100 266q-172 133 -172 436q0 95 11 190t36 190t61 179t88.5 157t116.5 126t148 83t180 30q37 0 72 -6l94 248l186 -56zM705 1249 q-81 0 -146.5 -55.5t-106 -141t-67.5 -194.5t-38 -209.5t-11 -193.5q0 -154 45 -219l362 1011q-12 2 -38 2zM522 168q82 0 148 55.5t105.5 140t66.5 194t37 209.5t10 194q0 148 -39 213l-365 -1004q12 -2 37 -2z" />
<glyph unicode="&#xd9;" horiz-adv-x="1087" d="M608 1886l330 -229l-78 -117l-364 162zM1106 1415l-143 -1028q-26 -178 -156 -297t-336 -119q-109 0 -191 35.5t-128.5 95.5t-64.5 136.5t-5 162.5l143 1014h256l-143 -1038q-13 -92 23.5 -147.5t125.5 -55.5q94 0 149.5 60t70.5 153l141 1028h258z" />
<glyph unicode="&#xda;" horiz-adv-x="1087" d="M856 1890l92 -188l-411 -164l-62 121zM1106 1415l-143 -1028q-26 -178 -156 -297t-336 -119q-109 0 -191 35.5t-128.5 95.5t-64.5 136.5t-5 162.5l143 1014h256l-143 -1038q-13 -92 23.5 -147.5t125.5 -55.5q94 0 149.5 60t70.5 153l141 1028h258z" />
<glyph unicode="&#xdb;" horiz-adv-x="1087" d="M463 1552l-94 105l274 250h152l204 -262l-100 -93l-199 170zM1106 1415l-143 -1028q-26 -178 -156 -297t-336 -119q-109 0 -191 35.5t-128.5 95.5t-64.5 136.5t-5 162.5l143 1014h256l-143 -1038q-13 -92 23.5 -147.5t125.5 -55.5q94 0 149.5 60t70.5 153l141 1028h258z " />
<glyph unicode="&#xdc;" horiz-adv-x="1087" d="M498 1587q-53 0 -85 32.5t-32 84.5q0 66 43 110t104 44q55 0 87 -32.5t32 -84.5q0 -67 -43.5 -110.5t-105.5 -43.5zM881 1587q-53 0 -86 32.5t-33 84.5q0 66 43.5 110t103.5 44q55 0 87 -32.5t32 -84.5q0 -67 -42.5 -110.5t-104.5 -43.5zM1106 1415l-143 -1028 q-26 -178 -156 -297t-336 -119q-109 0 -191 35.5t-128.5 95.5t-64.5 136.5t-5 162.5l143 1014h256l-143 -1038q-13 -92 23.5 -147.5t125.5 -55.5q94 0 149.5 60t70.5 153l141 1028h258z" />
<glyph unicode="&#xdd;" horiz-adv-x="972" d="M797 1890l92 -188l-412 -164l-61 121zM1104 1415l-490 -878l-75 -537h-258l73 537l-241 878h270l131 -672l313 672h277z" />
<glyph unicode="&#xde;" horiz-adv-x="989" d="M561 1182q208 0 319 -99t111 -290q0 -88 -20 -167.5t-63 -149t-106.5 -120t-155 -79.5t-202.5 -29h-106l-35 -248h-256l199 1415h256l-33 -233h92zM449 442q66 0 116 20.5t80.5 53t50 79.5t26.5 94t7 102q0 107 -46 151.5t-146 44.5h-95l-77 -545h84z" />
<glyph unicode="&#xdf;" horiz-adv-x="1001" d="M-117 -444l-57 184q69 33 108.5 65t71 96.5t45.5 166.5l142 1034q29 211 144 326.5t298 115.5q142 0 222.5 -76t80.5 -194q0 -57 -15.5 -105.5t-39 -79t-51 -60.5t-51 -53t-39 -53.5t-15.5 -64.5q0 -38 22.5 -73.5t55 -70t64.5 -75.5t54.5 -108.5t22.5 -151.5 q0 -77 -22.5 -147.5t-66.5 -130t-118.5 -95t-169.5 -35.5q-113 0 -196 58l86 170q50 -31 96 -31q72 0 105.5 56.5t33.5 137.5q0 57 -19 106t-46.5 85.5l-55 73t-46.5 86t-19 108.5q0 58 20 106t48.5 82.5t57 68.5t48.5 80.5t20 101.5q0 100 -90 100q-134 0 -172 -262 l-141 -1022q-13 -97 -41 -172.5t-62 -126t-88 -93.5t-102.5 -69.5t-122.5 -58.5z" />
<glyph unicode="&#xe0;" horiz-adv-x="985" d="M582 1659l325 -250l-76 -115l-366 183zM608 1112q170 0 334 -90l-106 -743q-11 -52 -4.5 -86.5t42.5 -51.5l-77 -168q-165 20 -193 160q-59 -81 -121.5 -122.5t-146.5 -41.5q-132 0 -207.5 103t-75.5 276q0 110 18.5 215t61.5 205.5t105.5 176t157.5 121.5t212 46z M594 928q-73 0 -130.5 -53t-91 -139.5t-50.5 -186.5t-17 -205q0 -97 26.5 -140.5t80.5 -43.5q49 0 91 40t93 117l82 594q-42 17 -84 17z" />
<glyph unicode="&#xe1;" horiz-adv-x="985" d="M809 1663l92 -186l-409 -185l-66 121zM608 1112q170 0 334 -90l-106 -743q-11 -52 -4.5 -86.5t42.5 -51.5l-77 -168q-165 20 -193 160q-59 -81 -121.5 -122.5t-146.5 -41.5q-132 0 -207.5 103t-75.5 276q0 110 18.5 215t61.5 205.5t105.5 176t157.5 121.5t212 46z M594 928q-73 0 -130.5 -53t-91 -139.5t-50.5 -186.5t-17 -205q0 -97 26.5 -140.5t80.5 -43.5q49 0 91 40t93 117l82 594q-42 17 -84 17z" />
<glyph unicode="&#xe2;" horiz-adv-x="985" d="M434 1290l-90 105l274 256h152l205 -267l-109 -94l-190 178zM608 1112q170 0 334 -90l-106 -743q-11 -52 -4.5 -86.5t42.5 -51.5l-77 -168q-165 20 -193 160q-59 -81 -121.5 -122.5t-146.5 -41.5q-132 0 -207.5 103t-75.5 276q0 110 18.5 215t61.5 205.5t105.5 176 t157.5 121.5t212 46zM594 928q-73 0 -130.5 -53t-91 -139.5t-50.5 -186.5t-17 -205q0 -97 26.5 -140.5t80.5 -43.5q49 0 91 40t93 117l82 594q-42 17 -84 17z" />
<glyph unicode="&#xe3;" horiz-adv-x="985" d="M760 1323q-38 0 -75 23.5t-67 47t-53 23.5q-26 0 -47 -21.5t-51 -68.5l-115 70q46 92 104.5 148.5t121.5 56.5q34 0 64.5 -15t49 -33.5t41 -33.5t41.5 -15q23 0 44.5 20.5t51.5 67.5l115 -67q-45 -96 -103.5 -149.5t-121.5 -53.5zM608 1112q170 0 334 -90l-106 -743 q-11 -52 -4.5 -86.5t42.5 -51.5l-77 -168q-165 20 -193 160q-59 -81 -121.5 -122.5t-146.5 -41.5q-132 0 -207.5 103t-75.5 276q0 110 18.5 215t61.5 205.5t105.5 176t157.5 121.5t212 46zM594 928q-73 0 -130.5 -53t-91 -139.5t-50.5 -186.5t-17 -205q0 -97 26.5 -140.5 t80.5 -43.5q49 0 91 40t93 117l82 594q-42 17 -84 17z" />
<glyph unicode="&#xe4;" horiz-adv-x="985" d="M461 1329q-53 0 -85 32.5t-32 84.5q0 66 43.5 109.5t104.5 43.5q55 0 86.5 -32t31.5 -84q0 -67 -43.5 -110.5t-105.5 -43.5zM844 1329q-54 0 -86.5 32.5t-32.5 84.5q0 66 43.5 109.5t103.5 43.5q55 0 87 -32t32 -84q0 -67 -42.5 -110.5t-104.5 -43.5zM608 1112 q170 0 334 -90l-106 -743q-11 -52 -4.5 -86.5t42.5 -51.5l-77 -168q-165 20 -193 160q-59 -81 -121.5 -122.5t-146.5 -41.5q-132 0 -207.5 103t-75.5 276q0 110 18.5 215t61.5 205.5t105.5 176t157.5 121.5t212 46zM594 928q-73 0 -130.5 -53t-91 -139.5t-50.5 -186.5 t-17 -205q0 -97 26.5 -140.5t80.5 -43.5q49 0 91 40t93 117l82 594q-42 17 -84 17z" />
<glyph unicode="&#xe5;" horiz-adv-x="985" d="M696 1739q92 0 146.5 -59.5t54.5 -153.5q0 -114 -70.5 -189t-183.5 -75q-92 0 -146.5 59.5t-54.5 153.5q0 114 71 189t183 75zM686 1612q-46 0 -72 -38.5t-26 -94.5q0 -43 17.5 -66.5t49.5 -23.5q44 0 70.5 38.5t26.5 94.5q0 90 -66 90zM608 1112q170 0 334 -90 l-106 -743q-11 -52 -4.5 -86.5t42.5 -51.5l-77 -168q-165 20 -193 160q-59 -81 -121.5 -122.5t-146.5 -41.5q-132 0 -207.5 103t-75.5 276q0 110 18.5 215t61.5 205.5t105.5 176t157.5 121.5t212 46zM594 928q-73 0 -130.5 -53t-91 -139.5t-50.5 -186.5t-17 -205 q0 -97 26.5 -140.5t80.5 -43.5q49 0 91 40t93 117l82 594q-42 17 -84 17z" />
<glyph unicode="&#xe6;" horiz-adv-x="1427" d="M504 1112q93 0 154 -34.5t106 -104.5q133 139 330 139q149 0 233 -79.5t82 -201.5q-1 -88 -35.5 -157.5t-88.5 -115t-134.5 -78.5t-160.5 -51t-179 -30q0 -125 34 -179t116 -54q103 0 229 94l92 -151q-167 -140 -358 -140q-222 0 -312 170q-130 -168 -315 -168 q-130 0 -204.5 76.5t-74.5 202.5q0 51 9.5 96.5t30 91t57 81.5t86.5 64.5t123 44t163 15.5h107q13 62 43 133q-15 69 -61.5 106.5t-114.5 37.5q-102 0 -236 -54l-35 174q170 72 314 72zM1071 934q-69 0 -121.5 -56t-80 -134.5t-42.5 -178.5q173 22 255.5 86.5t82.5 177.5 q0 105 -94 105zM569 489h-80q-206 0 -206 -217q0 -118 90 -118q48 0 93 36.5t99 116.5q-7 103 4 182z" />
<glyph unicode="&#xe7;" horiz-adv-x="811" d="M584 915q-72 0 -126.5 -51t-83.5 -133.5t-43 -170.5t-14 -179q0 -209 136 -209q46 0 85 17t95 55l90 -156q-130 -106 -270 -117l-13 -86q148 -18 148 -161q0 -42 -15 -82t-45 -75.5t-84.5 -57t-124.5 -21.5q-112 0 -176 57l74 115q52 -27 98 -27q41 0 67 21t26 59 q0 39 -31.5 54.5t-110.5 15.5l45 199q-119 33 -185.5 138.5t-66.5 268.5q0 137 33 264t95.5 230.5t164.5 166t228 62.5q171 0 284 -125l-125 -139q-76 67 -155 67z" />
<glyph unicode="&#xe8;" horiz-adv-x="921" d="M868 1409l-75 -115l-367 183l117 182zM590 1112q149 0 232 -79.5t81 -201.5q-1 -88 -35.5 -157.5t-88.5 -115t-134 -78.5t-159.5 -51t-178.5 -30v-28q0 -110 37.5 -157.5t110.5 -47.5q59 0 111.5 22.5t119.5 71.5l90 -151q-167 -140 -356 -140q-172 0 -268 107t-95 305 q1 110 20.5 213t61.5 198t103 165.5t150.5 112.5t197.5 42zM324 565q172 20 253.5 85.5t81.5 178.5q0 105 -94 105q-67 0 -118.5 -56t-79 -134t-43.5 -179z" />
<glyph unicode="&#xe9;" horiz-adv-x="921" d="M862 1477l-409 -185l-66 121l383 250zM590 1112q149 0 232 -79.5t81 -201.5q-1 -88 -35.5 -157.5t-88.5 -115t-134 -78.5t-159.5 -51t-178.5 -30v-28q0 -110 37.5 -157.5t110.5 -47.5q59 0 111.5 22.5t119.5 71.5l90 -151q-167 -140 -356 -140q-172 0 -268 107t-95 305 q1 110 20.5 213t61.5 198t103 165.5t150.5 112.5t197.5 42zM324 565q172 20 253.5 85.5t81.5 178.5q0 105 -94 105q-67 0 -118.5 -56t-79 -134t-43.5 -179z" />
<glyph unicode="&#xea;" horiz-adv-x="921" d="M637 1468l-242 -178l-90 105l275 256h151l205 -267l-109 -94zM590 1112q149 0 232 -79.5t81 -201.5q-1 -88 -35.5 -157.5t-88.5 -115t-134 -78.5t-159.5 -51t-178.5 -30v-28q0 -110 37.5 -157.5t110.5 -47.5q59 0 111.5 22.5t119.5 71.5l90 -151q-167 -140 -356 -140 q-172 0 -268 107t-95 305q1 110 20.5 213t61.5 198t103 165.5t150.5 112.5t197.5 42zM324 565q172 20 253.5 85.5t81.5 178.5q0 105 -94 105q-67 0 -118.5 -56t-79 -134t-43.5 -179z" />
<glyph unicode="&#xeb;" horiz-adv-x="921" d="M422 1329q-53 0 -85 32.5t-32 84.5q0 66 43.5 109.5t104.5 43.5q55 0 86.5 -32t31.5 -84q0 -67 -43.5 -110.5t-105.5 -43.5zM834 1599q55 0 86.5 -32t31.5 -84q0 -67 -42.5 -110.5t-104.5 -43.5q-53 0 -86 32.5t-33 84.5q0 66 44 109.5t104 43.5zM590 1112 q149 0 232 -79.5t81 -201.5q-1 -88 -35.5 -157.5t-88.5 -115t-134 -78.5t-159.5 -51t-178.5 -30v-28q0 -110 37.5 -157.5t110.5 -47.5q59 0 111.5 22.5t119.5 71.5l90 -151q-167 -140 -356 -140q-172 0 -268 107t-95 305q1 110 20.5 213t61.5 198t103 165.5t150.5 112.5 t197.5 42zM324 565q172 20 253.5 85.5t81.5 178.5q0 105 -94 105q-67 0 -118.5 -56t-79 -134t-43.5 -179z" />
<glyph unicode="&#xec;" horiz-adv-x="477" d="M279 1659l325 -250l-76 -115l-366 183zM438 1083l-151 -1083h-248l151 1083h248z" />
<glyph unicode="&#xed;" horiz-adv-x="477" d="M506 1663l92 -186l-410 -185l-65 121zM438 1083l-151 -1083h-248l151 1083h248z" />
<glyph unicode="&#xee;" horiz-adv-x="477" d="M131 1290l-90 105l274 256h152l205 -267l-109 -94l-190 178zM438 1083l-151 -1083h-248l151 1083h248z" />
<glyph unicode="&#xef;" horiz-adv-x="477" d="M158 1329q-53 0 -85 32.5t-32 84.5q0 66 43 109.5t104 43.5q55 0 87 -32t32 -84q0 -67 -43.5 -110.5t-105.5 -43.5zM541 1329q-53 0 -86 32.5t-33 84.5q0 66 43.5 109.5t103.5 43.5q55 0 87 -32t32 -84q0 -67 -42.5 -110.5t-104.5 -43.5zM438 1083l-151 -1083h-248 l151 1083h248z" />
<glyph unicode="&#xf0;" d="M723 1358q110 -101 159.5 -227t49.5 -310q0 -132 -20 -254.5t-62.5 -231t-103.5 -189.5t-148 -128t-190 -47q-163 0 -259 105t-96 295q0 146 51 283t150.5 229t222.5 92q134 0 217 -107q-3 123 -29 198t-90 148l-120 -120l-138 77l136 142q-65 35 -158 61l72 168 q117 -28 225 -90l156 158l110 -113zM426 160q48 0 86 28.5t63.5 73t46 115.5t32.5 138t24 157q-50 121 -152 121q-61 0 -106.5 -41.5t-70 -108.5t-36.5 -139t-12 -146q0 -198 125 -198z" />
<glyph unicode="&#xf1;" horiz-adv-x="968" d="M709 1323q-38 0 -75 23.5t-67 47t-53 23.5q-26 0 -47 -21.5t-51 -68.5l-115 70q46 92 104 148.5t121 56.5q34 0 64.5 -15t49.5 -33.5t41.5 -33.5t41.5 -15q23 0 44.5 20.5t51.5 67.5l115 -67q-45 -96 -103.5 -149.5t-121.5 -53.5zM690 1114q112 0 170 -88.5t37 -234.5 l-113 -791h-247l106 762q17 133 -57 133q-86 0 -211 -252l-88 -643h-248l151 1083h216l-11 -180q65 101 135.5 156t159.5 55z" />
<glyph unicode="&#xf2;" horiz-adv-x="993" d="M541 1659l325 -250l-75 -115l-367 183zM416 -31q-169 0 -264 109.5t-95 306.5q0 104 18.5 205t60 196t101 167t148 115.5t195.5 43.5q169 0 262.5 -107.5t93.5 -306.5q0 -85 -13 -169.5t-39 -167t-69 -153t-99 -124.5t-133 -84.5t-167 -30.5zM432 162q69 0 121 58.5 t79 150t39.5 182t12.5 176.5q0 193 -121 193q-56 0 -101 -39.5t-72.5 -100.5t-46 -139t-25.5 -150t-7 -139q0 -192 121 -192z" />
<glyph unicode="&#xf3;" horiz-adv-x="993" d="M768 1663l92 -186l-409 -185l-66 121zM416 -31q-169 0 -264 109.5t-95 306.5q0 104 18.5 205t60 196t101 167t148 115.5t195.5 43.5q169 0 262.5 -107.5t93.5 -306.5q0 -85 -13 -169.5t-39 -167t-69 -153t-99 -124.5t-133 -84.5t-167 -30.5zM432 162q69 0 121 58.5 t79 150t39.5 182t12.5 176.5q0 193 -121 193q-56 0 -101 -39.5t-72.5 -100.5t-46 -139t-25.5 -150t-7 -139q0 -192 121 -192z" />
<glyph unicode="&#xf4;" horiz-adv-x="993" d="M393 1290l-90 105l275 256h151l205 -267l-109 -94l-190 178zM416 -31q-169 0 -264 109.5t-95 306.5q0 104 18.5 205t60 196t101 167t148 115.5t195.5 43.5q169 0 262.5 -107.5t93.5 -306.5q0 -85 -13 -169.5t-39 -167t-69 -153t-99 -124.5t-133 -84.5t-167 -30.5z M432 162q69 0 121 58.5t79 150t39.5 182t12.5 176.5q0 193 -121 193q-56 0 -101 -39.5t-72.5 -100.5t-46 -139t-25.5 -150t-7 -139q0 -192 121 -192z" />
<glyph unicode="&#xf5;" horiz-adv-x="993" d="M719 1323q-38 0 -75 23.5t-67 47t-53 23.5q-26 0 -47 -21.5t-51 -68.5l-115 70q46 92 104.5 148.5t121.5 56.5q34 0 64.5 -15t49 -33.5t41 -33.5t41.5 -15q23 0 44.5 20.5t51.5 67.5l115 -67q-45 -96 -103.5 -149.5t-121.5 -53.5zM416 -31q-169 0 -264 109.5t-95 306.5 q0 104 18.5 205t60 196t101 167t148 115.5t195.5 43.5q169 0 262.5 -107.5t93.5 -306.5q0 -85 -13 -169.5t-39 -167t-69 -153t-99 -124.5t-133 -84.5t-167 -30.5zM432 162q69 0 121 58.5t79 150t39.5 182t12.5 176.5q0 193 -121 193q-56 0 -101 -39.5t-72.5 -100.5t-46 -139 t-25.5 -150t-7 -139q0 -192 121 -192z" />
<glyph unicode="&#xf6;" horiz-adv-x="993" d="M420 1329q-53 0 -85 32.5t-32 84.5q0 66 43.5 109.5t104.5 43.5q55 0 86.5 -32t31.5 -84q0 -67 -43.5 -110.5t-105.5 -43.5zM803 1329q-53 0 -86 32.5t-33 84.5q0 66 43.5 109.5t103.5 43.5q55 0 87 -32t32 -84q0 -67 -42.5 -110.5t-104.5 -43.5zM416 -31 q-169 0 -264 109.5t-95 306.5q0 104 18.5 205t60 196t101 167t148 115.5t195.5 43.5q169 0 262.5 -107.5t93.5 -306.5q0 -85 -13 -169.5t-39 -167t-69 -153t-99 -124.5t-133 -84.5t-167 -30.5zM432 162q69 0 121 58.5t79 150t39.5 182t12.5 176.5q0 193 -121 193 q-56 0 -101 -39.5t-72.5 -100.5t-46 -139t-25.5 -150t-7 -139q0 -192 121 -192z" />
<glyph unicode="&#xf7;" horiz-adv-x="878" d="M518 997q-64 0 -101.5 40.5t-37.5 101.5q0 73 49 125.5t121 52.5q65 0 102 -40t37 -101q0 -74 -48.5 -126.5t-121.5 -52.5zM98 580l29 200h690l-29 -200h-690zM385 39q-64 0 -101.5 40t-37.5 101q0 73 49 125.5t121 52.5q65 0 102 -40t37 -101q0 -74 -48 -126t-122 -52z " />
<glyph unicode="&#xf8;" horiz-adv-x="993" d="M803 1038q133 -108 133 -340q0 -85 -13 -169.5t-39 -167t-69 -153t-99 -124.5t-133 -84.5t-167 -30.5q-22 0 -54 4l-96 -243l-174 55l105 256q-140 109 -140 344q0 104 18.5 205t60 196t101 167t148 115.5t195.5 43.5q23 0 55 -4l96 246l176 -58zM563 932 q-58 0 -105 -38.5t-76.5 -98.5t-49 -138.5t-27.5 -153.5t-8 -149q0 -93 20 -137l7 8l256 693l4 14h-21zM432 150q71 0 125.5 57t83.5 148t43 186t14 188q0 83 -18 129l-4 -6l-256 -686l-4 -16h16z" />
<glyph unicode="&#xf9;" horiz-adv-x="958" d="M516 1659l326 -250l-76 -115l-367 183zM283 -31q-112 0 -171.5 85.5t-39.5 224.5l110 804h248l-111 -790q-7 -56 8 -84.5t48 -28.5q89 0 196 191l103 712h246l-152 -1083h-213l10 166q-63 -96 -127 -146.5t-155 -50.5z" />
<glyph unicode="&#xfa;" horiz-adv-x="958" d="M743 1663l93 -186l-410 -185l-66 121zM283 -31q-112 0 -171.5 85.5t-39.5 224.5l110 804h248l-111 -790q-7 -56 8 -84.5t48 -28.5q89 0 196 191l103 712h246l-152 -1083h-213l10 166q-63 -96 -127 -146.5t-155 -50.5z" />
<glyph unicode="&#xfb;" horiz-adv-x="958" d="M369 1290l-90 105l274 256h152l204 -267l-108 -94l-191 178zM283 -31q-112 0 -171.5 85.5t-39.5 224.5l110 804h248l-111 -790q-7 -56 8 -84.5t48 -28.5q89 0 196 191l103 712h246l-152 -1083h-213l10 166q-63 -96 -127 -146.5t-155 -50.5z" />
<glyph unicode="&#xfc;" horiz-adv-x="958" d="M395 1329q-53 0 -84.5 32.5t-31.5 84.5q0 66 43 109.5t104 43.5q55 0 87 -32t32 -84q0 -67 -43.5 -110.5t-106.5 -43.5zM778 1329q-54 0 -86.5 32.5t-32.5 84.5q0 66 44 109.5t104 43.5q55 0 87 -32t32 -84q0 -67 -43 -110.5t-105 -43.5zM283 -31q-112 0 -171.5 85.5 t-39.5 224.5l110 804h248l-111 -790q-7 -56 8 -84.5t48 -28.5q89 0 196 191l103 712h246l-152 -1083h-213l10 166q-63 -96 -127 -146.5t-155 -50.5z" />
<glyph unicode="&#xfd;" horiz-adv-x="868" d="M702 1663l93 -186l-410 -185l-66 121zM942 1083l-428 -1089q-85 -219 -213 -318t-336 -120l-4 176q136 28 203.5 83t124.5 185h-92l-117 1083h256l45 -909l301 909h260z" />
<glyph unicode="&#xfe;" d="M678 1112q127 0 198.5 -95t71.5 -272q0 -118 -17 -227t-56.5 -210t-97 -175.5t-145 -119t-194.5 -44.5q-77 0 -153 31l-58 -418l-252 -31l277 1967l252 26l-80 -561q51 62 117.5 95.5t136.5 33.5zM426 158q70 0 124.5 57.5t85 148t45.5 187t15 190.5q0 97 -27 139t-79 42 q-47 0 -98 -36t-95 -93l-86 -611q61 -24 115 -24z" />
<glyph unicode="&#xff;" horiz-adv-x="868" d="M354 1329q-53 0 -84.5 32.5t-31.5 84.5q0 66 43 109.5t104 43.5q55 0 87 -32t32 -84q0 -67 -44 -110.5t-106 -43.5zM737 1329q-53 0 -86 32.5t-33 84.5q0 66 44 109.5t104 43.5q55 0 87 -32t32 -84q0 -67 -43 -110.5t-105 -43.5zM942 1083l-428 -1089q-85 -219 -213 -318 t-336 -120l-4 176q136 28 203.5 83t124.5 185h-92l-117 1083h256l45 -909l301 909h260z" />
<glyph unicode="&#x152;" horiz-adv-x="1507" d="M1567 1415l-58 -194h-473q68 -121 68 -299q0 -37 -4 -107h305l-29 -192h-301q-54 -262 -186 -426h514l-33 -197h-727q-73 -31 -160 -31q-189 0 -296 135t-107 385q0 112 15.5 222.5t46.5 218.5t82 200t117 163t156 111t195 40q85 0 154 -29h721zM344 455q0 -285 160 -285 q73 0 133 55t97 140t62.5 193.5t35.5 209t10 193.5q0 148 -41 216t-121 68q-72 0 -131 -55t-96 -140t-62.5 -193t-36 -209t-10.5 -193z" />
<glyph unicode="&#x153;" horiz-adv-x="1515" d="M1188 1112q146 0 229.5 -80t81.5 -201q-1 -88 -35.5 -157.5t-88.5 -115t-134.5 -78.5t-160.5 -51t-179 -30v-28q0 -109 38.5 -157t111.5 -48q103 0 229 94l92 -151q-170 -140 -354 -140q-200 0 -283 170q-127 -170 -327 -170q-163 0 -257 109.5t-94 306.5q0 104 18.5 205 t59.5 196t99.5 167t146.5 115.5t194 43.5q203 0 285 -172q122 172 328 172zM913 563q176 22 259 87.5t83 178.5q0 105 -96 105q-68 0 -120.5 -53.5t-81.5 -133t-44 -184.5zM432 162q69 0 121 58.5t79 150t39.5 182t12.5 176.5q0 193 -121 193q-56 0 -101 -39.5t-72.5 -100.5 t-46 -139t-25.5 -150t-7 -139q0 -192 121 -192z" />
<glyph unicode="&#x178;" horiz-adv-x="972" d="M438 1587q-53 0 -84.5 32.5t-31.5 84.5q0 66 43 110t104 44q55 0 87 -32.5t32 -84.5q0 -67 -44 -110.5t-106 -43.5zM821 1587q-53 0 -86 32.5t-33 84.5q0 66 44 110t104 44q55 0 87 -32.5t32 -84.5q0 -67 -43 -110.5t-105 -43.5zM1104 1415l-490 -878l-75 -537h-258 l73 537l-241 878h270l131 -672l313 672h277z" />
<glyph unicode="&#x2c6;" horiz-adv-x="745" d="M270 1290l-90 105l275 256h151l205 -267l-109 -94l-190 178z" />
<glyph unicode="&#x2dc;" horiz-adv-x="739" d="M590 1323q-38 0 -75 23.5t-67 47t-53 23.5q-26 0 -47 -21.5t-51 -68.5l-115 70q46 92 104.5 148.5t121.5 56.5q34 0 64.5 -15t49 -33.5t41 -33.5t41.5 -15q23 0 44.5 20.5t51.5 67.5l115 -67q-45 -96 -103.5 -149.5t-121.5 -53.5z" />
<glyph unicode="&#x2000;" horiz-adv-x="998" />
<glyph unicode="&#x2001;" horiz-adv-x="1997" />
<glyph unicode="&#x2002;" horiz-adv-x="998" />
<glyph unicode="&#x2003;" horiz-adv-x="1997" />
<glyph unicode="&#x2004;" horiz-adv-x="665" />
<glyph unicode="&#x2005;" horiz-adv-x="499" />
<glyph unicode="&#x2006;" horiz-adv-x="332" />
<glyph unicode="&#x2007;" horiz-adv-x="332" />
<glyph unicode="&#x2008;" horiz-adv-x="249" />
<glyph unicode="&#x2009;" horiz-adv-x="399" />
<glyph unicode="&#x200a;" horiz-adv-x="110" />
<glyph unicode="&#x2010;" horiz-adv-x="698" d="M90 541l27 200h520l-27 -200h-520z" />
<glyph unicode="&#x2011;" horiz-adv-x="698" d="M90 541l27 200h520l-27 -200h-520z" />
<glyph unicode="&#x2012;" horiz-adv-x="698" d="M90 541l27 200h520l-27 -200h-520z" />
<glyph unicode="&#x2013;" horiz-adv-x="886" d="M51 541l29 200h782l-26 -200h-785z" />
<glyph unicode="&#x2014;" horiz-adv-x="1339" d="M51 541l29 200h1237l-29 -200h-1237z" />
<glyph unicode="&#x2018;" horiz-adv-x="432" d="M281 979q-55 0 -88 33.5t-33 89.5q0 37 14.5 73.5t54.5 112.5l144 266h129l-117 -317q47 -36 47 -100q0 -66 -42 -112t-109 -46z" />
<glyph unicode="&#x2019;" horiz-adv-x="432" d="M354 1554q55 0 88 -33t33 -89q0 -37 -14.5 -74.5t-54.5 -112.5l-144 -266h-129l117 317q-47 36 -47 101q0 66 42 111.5t109 45.5z" />
<glyph unicode="&#x201a;" horiz-adv-x="432" d="M172 252q55 0 88 -33.5t33 -89.5q0 -37 -14.5 -72.5t-55.5 -113.5l-143 -267h-129l117 318q-48 36 -48 100q0 66 42.5 112t109.5 46z" />
<glyph unicode="&#x201c;" horiz-adv-x="827" d="M281 979q-55 0 -88 33.5t-33 89.5q0 37 14.5 73.5t54.5 112.5l144 266h129l-117 -317q47 -36 47 -100q0 -66 -42 -112t-109 -46zM676 979q-55 0 -88 33.5t-33 89.5q0 37 14.5 72.5t55.5 113.5l143 266h129l-117 -317q47 -36 47 -100q0 -66 -42 -112t-109 -46z" />
<glyph unicode="&#x201d;" horiz-adv-x="827" d="M354 1554q55 0 88 -33t33 -89q0 -37 -14.5 -74.5t-54.5 -112.5l-144 -266h-129l117 317q-47 36 -47 101q0 66 42 111.5t109 45.5zM750 1554q55 0 87.5 -33t32.5 -89q0 -37 -14.5 -74.5t-54.5 -112.5l-144 -266h-129l117 317q-47 36 -47 101q0 66 42.5 111.5t109.5 45.5z " />
<glyph unicode="&#x201e;" horiz-adv-x="827" d="M172 252q55 0 88 -33.5t33 -89.5q0 -37 -14.5 -72.5t-55.5 -113.5l-143 -267h-129l117 318q-48 36 -48 100q0 66 42.5 112t109.5 46zM567 252q55 0 88 -33.5t33 -89.5q0 -37 -14.5 -72.5t-55.5 -113.5l-143 -267h-129l117 318q-47 36 -47 100q0 66 42 112t109 46z" />
<glyph unicode="&#x2022;" horiz-adv-x="634" d="M367 950q99 0 158 -60.5t59 -156.5q0 -120 -78 -202t-193 -82q-98 0 -157.5 61t-59.5 158q0 120 78 201t193 81z" />
<glyph unicode="&#x2026;" horiz-adv-x="1304" d="M143 -31q-64 0 -101.5 40.5t-37.5 101.5q0 73 49 125.5t121 52.5q65 0 102 -40.5t37 -101.5q0 -74 -48 -126t-122 -52zM578 -31q-64 0 -102 40.5t-38 101.5q0 73 49 125.5t121 52.5q65 0 102.5 -40.5t37.5 -101.5q0 -74 -48 -126t-122 -52zM1014 -31q-64 0 -102 40.5 t-38 101.5q0 73 49 125.5t121 52.5q65 0 102.5 -40.5t37.5 -101.5q0 -74 -48 -126t-122 -52z" />
<glyph unicode="&#x202f;" horiz-adv-x="399" />
<glyph unicode="&#x2039;" horiz-adv-x="610" d="M463 1114l141 -102l-280 -430l159 -424l-168 -103l-247 447l26 166z" />
<glyph unicode="&#x203a;" horiz-adv-x="610" d="M307 1114l248 -446l-25 -166l-370 -447l-140 103l281 432l-162 422z" />
<glyph unicode="&#x205f;" horiz-adv-x="499" />
<glyph unicode="&#x20ac;" horiz-adv-x="995" d="M784 1210q-93 0 -168 -70.5t-124 -217.5h403l-53 -148h-381l-29 -168h352l-53 -143h-317q-6 -160 42.5 -229.5t153.5 -69.5q110 0 256 84l-28 -205q-145 -74 -277 -74q-189 0 -293 127t-104 367h-144l56 143h106l27 168h-137l55 148h113q85 237 228 359t325 122 q177 0 299 -119l-111 -154q-86 80 -197 80z" />
<glyph unicode="&#x2122;" horiz-adv-x="1517" d="M766 1415l-49 -155h-185l-88 -652h-184l90 652h-192l24 155h584zM1511 1415l-88 -807h-174l41 383q10 104 47 260l-198 -559h-148l-61 557q-6 -83 -29 -266l-57 -375h-168l139 807h234l38 -536l177 536h247z" />
<glyph unicode="&#x25fc;" horiz-adv-x="1085" d="M0 1085h1085v-1085h-1085v1085z" />
<glyph unicode="&#xfb03;" horiz-adv-x="1490" d="M1452 1083l-152 -1083h-247l127 901h-242l-113 -825q-15 -109 -45 -189.5t-76 -135.5t-96 -90.5t-121 -68.5l-73 181q70 42 109 110t57 199l110 819h-239l-115 -825q-12 -84 -31.5 -150.5t-50.5 -116.5t-62.5 -86t-80 -67.5t-89 -52t-102.5 -47.5l-59 184 q53 24 86.5 47.5t64 61.5t49 94.5t29.5 138.5l117 819h-139l26 182h137l17 115q19 146 121 235t264 89q122 0 233 -62q105 84 254 84q148 0 289 -90l-92 -158q-95 56 -178 56q-73 0 -111 -38.5t-49 -117.5l-16 -113h489zM717 1083l16 127q10 56 27 101q-58 22 -109 22 q-73 0 -111.5 -35t-47.5 -108l-15 -107h240z" />
<glyph unicode="&#xfb04;" horiz-adv-x="1548" d="M1393 174q24 0 45 8l26 -174q-73 -37 -159 -37q-109 0 -161.5 70t-35.5 192l154 1100q-73 25 -136 25q-68 0 -102 -40t-45 -122l-16 -113h170l-54 -182h-141l-113 -825q-15 -109 -44.5 -189t-76.5 -135t-96 -90t-121 -70l-73 181q70 42 109 110t57 199l110 819h-239 l-115 -825q-12 -84 -31.5 -150.5t-50.5 -116.5t-62.5 -86t-80 -67.5t-89 -52t-102.5 -47.5l-59 184q53 24 86.5 47.5t64 61.5t49 94.5t29.5 138.5l117 819h-139l26 182h137l17 115q19 146 121 235t264 89q117 0 231 -60q98 82 244 82q128 0 221 -41l207 23l-180 -1286 q-11 -66 37 -66zM717 1083l16 127q10 56 27 101q-58 22 -109 22q-73 0 -111.5 -35t-47.5 -108l-15 -107h240z" />
</font>
</defs>
</svg>
