<?xml version="1.0" standalone="no"?>
<!DOCTYPE svg PUBLIC "-//W3C//DTD SVG 1.1//EN" "http://www.w3.org/Graphics/SVG/1.1/DTD/svg11.dtd" >
<svg xmlns="http://www.w3.org/2000/svg" xmlns:xlink="http://www.w3.org/1999/xlink" version="1.1">
<metadata></metadata>
<defs>
<font id="fira_sans_compressedXLt" horiz-adv-x="972" >
<font-face units-per-em="2048" ascent="1638" descent="-410" />
<missing-glyph horiz-adv-x="471" />
<glyph unicode="&#xfb01;" horiz-adv-x="946" d="M434 1518q129 0 252 -78l-35 -66q-111 62 -213 62q-81 0 -120 -36.5t-39 -133.5v-197h487v-1069h-92v991h-395v-991h-93v991h-145v78h145v205q0 120 64 182t184 62z" />
<glyph unicode="&#xfb02;" horiz-adv-x="983" d="M905 72l25 -68q-52 -27 -99 -27q-69 0 -111 45t-42 125v1246q-119 45 -227 45q-89 0 -130.5 -40t-41.5 -128v-201h231l-12 -78h-219v-991h-93v991h-145v78h145v207q0 110 68.5 176t189.5 66q107 0 236 -50l90 11v-1329q0 -44 19 -68.5t55 -24.5q27 0 61 15z" />
<glyph horiz-adv-x="0" />
<glyph horiz-adv-x="682" />
<glyph unicode="&#xd;" horiz-adv-x="471" />
<glyph unicode=" "  horiz-adv-x="471" />
<glyph unicode="&#x09;" horiz-adv-x="471" />
<glyph unicode="&#xa0;" horiz-adv-x="471" />
<glyph unicode="!" horiz-adv-x="446" d="M270 1401l-6 -965h-82l-8 965h96zM223 137q35 0 56.5 -24t21.5 -56t-21.5 -56t-56.5 -24q-34 0 -56 24t-22 56t22 56t56 24z" />
<glyph unicode="&#x22;" horiz-adv-x="667" d="M145 893l-10 508h90l-10 -508h-70zM453 893l-11 508h90l-10 -508h-69z" />
<glyph unicode="#" horiz-adv-x="841" d="M817 930h-127l-61 -471h127v-76h-138l-51 -383h-84l52 383h-308l-51 -383h-82l51 383h-120v76h131l61 471h-131v76h141l47 354h82l-47 -354h307l48 354h84l-48 -354h117v-76zM545 459l61 471h-307l-61 -471h307z" />
<glyph unicode="$" horiz-adv-x="882" d="M791 367q0 -148 -86 -255.5t-224 -129.5v-287h-80v282q-189 8 -333 168l53 56q69 -70 138.5 -107t160.5 -37q125 0 200.5 85.5t75.5 222.5q0 124 -58 193.5t-210 129.5q-170 64 -243.5 149t-73.5 216q0 125 81.5 217.5t208.5 105.5v295h80v-295q85 -7 148.5 -42 t126.5 -101l-54 -57q-64 64 -124.5 93t-137.5 29q-106 0 -170.5 -68.5t-64.5 -174.5q0 -107 58 -171.5t206 -119.5q111 -44 178 -91.5t105.5 -123t38.5 -182.5z" />
<glyph unicode="%" horiz-adv-x="1351" d="M1038 1434l68 -37l-778 -1440l-68 37zM352 1382q111 0 179.5 -86t68.5 -239q0 -157 -66.5 -243.5t-181.5 -86.5q-111 0 -179.5 86t-68.5 240q0 156 67 242.5t181 86.5zM352 1313q-164 0 -164 -260q0 -118 39.5 -187t124.5 -69q164 0 164 260q0 118 -39.5 187t-124.5 69z M999 635q111 0 179.5 -86t68.5 -240q0 -156 -67 -244t-181 -88q-111 0 -179 87t-68 241q0 157 66 243.5t181 86.5zM999 563q-165 0 -165 -258q0 -256 165 -256q164 0 164 260q0 118 -39.5 186t-124.5 68z" />
<glyph unicode="&#x26;" horiz-adv-x="1212" d="M518 1421q124 0 199.5 -82.5t75.5 -216.5q0 -116 -63 -201t-200 -180l353 -411q76 194 114 401l82 -20q-46 -240 -139 -437l213 -241l-68 -56l-194 226q-74 -108 -163.5 -167t-213.5 -59q-152 0 -251 102t-99 269q0 131 60 223.5t184 184.5q-94 106 -133 180.5t-39 175.5 q0 139 77 224t205 85zM518 1348q-88 0 -140 -64.5t-52 -169.5q0 -79 29 -141.5t122 -175.5q118 79 171.5 152.5t53.5 168.5q0 112 -50.5 171t-133.5 59zM459 700q-101 -74 -151 -156.5t-50 -195.5q0 -133 72 -212t186 -79q105 0 180.5 51t139.5 150z" />
<glyph unicode="'" horiz-adv-x="360" d="M145 893l-10 508h90l-10 -508h-70z" />
<glyph unicode="(" horiz-adv-x="542" d="M393 1708l60 -39q-56 -99 -87.5 -160.5t-71.5 -157t-60.5 -180.5t-35 -202.5t-14.5 -251.5t14.5 -252t35 -203t60.5 -181t71.5 -156.5t87.5 -160.5l-60 -38q-74 121 -118.5 206.5t-91.5 208.5t-69 264.5t-22 311.5t22 311.5t69 264.5t91.5 208.5t118.5 206.5z" />
<glyph unicode=")" horiz-adv-x="542" d="M152 1708q74 -122 117.5 -206.5t90.5 -208t69 -265.5t22 -311t-22 -311t-69 -265.5t-90.5 -208t-117.5 -206.5l-62 38q55 98 87 160.5t71.5 157.5t60 180.5t35 203t14.5 251.5t-14.5 252t-35 202.5t-60 180.5t-71 157t-87.5 160z" />
<glyph unicode="*" horiz-adv-x="757" d="M684 1208l-256 -86l168 -254l-74 -43l-143 258l-143 -258l-74 43l168 252l-256 88l30 74l242 -106l-10 329h86l-10 -329l241 108z" />
<glyph unicode="+" horiz-adv-x="827" d="M459 1026v-307h252v-84h-252v-305h-86v305h-256v84h256v307h86z" />
<glyph unicode="," horiz-adv-x="372" d="M190 137q35 0 56.5 -23t21.5 -57q0 -24 -26 -100l-92 -254h-64l72 285q-43 22 -43 69q0 34 21.5 57t53.5 23z" />
<glyph unicode="-" horiz-adv-x="675" d="M117 600v82h442v-82h-442z" />
<glyph unicode="." horiz-adv-x="366" d="M182 137q35 0 56.5 -24t21.5 -56t-21.5 -56t-56.5 -24q-34 0 -56 24t-22 56t22 56t56 24z" />
<glyph unicode="/" horiz-adv-x="872" d="M594 1640l78 -16l-393 -1825l-80 17z" />
<glyph unicode="0" horiz-adv-x="952" d="M477 1382q348 0 348 -704q0 -701 -348 -701q-350 0 -350 705q0 700 350 700zM477 1303q-126 0 -190 -147t-64 -474q0 -329 63.5 -477t190.5 -148t189.5 146.5t62.5 474.5q0 331 -62.5 478t-189.5 147z" />
<glyph unicode="1" horiz-adv-x="688" d="M473 1360v-1360h-90v1253l-274 -209l-46 66l332 250h78z" />
<glyph unicode="2" horiz-adv-x="780" d="M356 1382q141 0 223.5 -93.5t82.5 -244.5q0 -67 -9.5 -126t-38 -128.5t-61 -130.5t-98 -158.5t-128.5 -183.5t-173 -233h538l-14 -84h-627v82q222 293 324.5 447.5t147 271t44.5 241.5q0 123 -58 192t-157 69q-78 0 -138 -39t-116 -117l-63 45q69 99 146 144.5t175 45.5z " />
<glyph unicode="3" horiz-adv-x="815" d="M369 1382q142 0 225.5 -94.5t83.5 -243.5q0 -135 -65 -214t-179 -105q125 -13 200 -97.5t75 -242.5q0 -181 -96 -294.5t-253 -113.5q-103 0 -180 43t-145 132l61 47q64 -77 122.5 -109.5t139.5 -32.5q120 0 189 87.5t69 238.5q0 155 -74.5 227t-203.5 72h-76l10 74h60 q104 0 181 73.5t77 212.5q0 123 -60.5 193t-164.5 70q-70 0 -128 -29t-118 -94l-53 49q130 151 303 151z" />
<glyph unicode="4" horiz-adv-x="868" d="M809 444v-77h-152v-367h-88v367h-493v71l340 944l80 -28l-324 -910h397l13 412h75v-412h152z" />
<glyph unicode="5" horiz-adv-x="819" d="M696 1360l-16 -80h-457v-489q88 67 197 67q143 0 228 -110.5t85 -309.5q0 -207 -97.5 -334t-260.5 -127q-98 0 -173.5 41t-142.5 121l62 51q55 -67 114 -99t140 -32q123 0 192.5 100t69.5 281q0 174 -63 257t-173 83q-56 0 -99 -16t-95 -53h-70v649h559z" />
<glyph unicode="6" horiz-adv-x="901" d="M508 883q131 0 214 -107.5t83 -318.5q0 -232 -89 -356t-235 -124q-94 0 -163.5 45.5t-110.5 131t-60.5 197t-19.5 253.5q0 375 106.5 576.5t296.5 201.5q112 0 205 -77l-43 -64q-74 62 -164 62q-140 0 -220.5 -165t-88.5 -458q111 203 289 203zM481 57q114 0 173 104 t59 294q0 178 -58 264t-157 86q-168 0 -279 -240q5 -251 67 -379.5t195 -128.5z" />
<glyph unicode="7" horiz-adv-x="735" d="M674 1360v-74l-445 -1300l-84 28l437 1264h-531v82h623z" />
<glyph unicode="8" horiz-adv-x="907" d="M553 717q139 -66 199.5 -148.5t60.5 -218.5q0 -175 -98.5 -274t-263.5 -99q-164 0 -260.5 100t-96.5 269q0 276 258 391q-113 54 -161 124.5t-48 185.5q0 160 90 247.5t222 87.5q62 0 116.5 -19.5t99.5 -59t71 -105.5t26 -151q0 -109 -51 -186t-164 -144zM233 1044 q0 -99 42 -155.5t161 -114.5l58 -29q97 62 139.5 131.5t42.5 167.5q0 134 -59.5 198.5t-161.5 64.5q-100 0 -161 -65.5t-61 -197.5zM453 57q124 0 196 71.5t72 219.5q0 127 -53 194t-193 132l-59 26q-121 -55 -175.5 -139.5t-54.5 -214.5q0 -145 72 -217t195 -72z" />
<glyph unicode="9" horiz-adv-x="878" d="M428 1382q173 0 255.5 -139t82.5 -416q0 -157 -23.5 -280t-67.5 -213.5t-114.5 -160.5t-154.5 -119t-199 -91l-25 72q116 44 199.5 98.5t148.5 132t100 185.5t42 249q-48 -89 -118 -137.5t-155 -48.5q-135 0 -222 113.5t-87 310.5q0 214 93 329t245 115zM412 592 q79 0 142.5 53.5t119.5 159.5q0 263 -57 381.5t-187 118.5q-116 0 -180 -91t-64 -278q0 -167 60.5 -255.5t165.5 -88.5z" />
<glyph unicode=":" horiz-adv-x="366" d="M182 952q35 0 56.5 -24t21.5 -56t-21.5 -55.5t-56.5 -23.5q-34 0 -56 23.5t-22 55.5t22 56t56 24zM182 137q35 0 56.5 -24t21.5 -56t-21.5 -56t-56.5 -24q-34 0 -56 24t-22 56t22 56t56 24z" />
<glyph unicode=";" horiz-adv-x="374" d="M182 952q35 0 56.5 -24t21.5 -56t-21.5 -55.5t-56.5 -23.5q-34 0 -56 23.5t-22 55.5t22 56t56 24zM190 137q35 0 56.5 -23t21.5 -57q0 -24 -26 -100l-92 -254h-64l72 285q-43 22 -43 69q0 34 21.5 57t53.5 23z" />
<glyph unicode="&#x3c;" horiz-adv-x="833" d="M684 1059l43 -70l-541 -307l541 -313l-41 -72l-580 344v82z" />
<glyph unicode="=" horiz-adv-x="825" d="M117 811v80h592v-80h-592zM117 465v80h592v-80h-592z" />
<glyph unicode="&#x3e;" horiz-adv-x="833" d="M147 1059l580 -336v-82l-580 -344l-41 72l539 313l-539 307z" />
<glyph unicode="?" horiz-adv-x="772" d="M399 1421q135 0 213 -83.5t78 -207.5q0 -61 -17 -110.5t-44 -83t-59.5 -63t-65.5 -59t-60 -63t-44 -83t-17 -111.5v-121h-86v129q0 68 16.5 122.5t43 90t58.5 65.5t64.5 57.5t59 57.5t43 73.5t16.5 98.5q0 95 -55 153t-146 58q-78 0 -136 -35.5t-116 -115.5l-61 47 q66 94 142.5 139t172.5 45zM340 137q35 0 57.5 -24t22.5 -56t-22.5 -56t-57.5 -24q-34 0 -56 24t-22 56t22 56t56 24z" />
<glyph unicode="@" horiz-adv-x="1732" d="M895 1421q162 0 293 -61t215 -168.5t129 -250.5t45 -310q0 -158 -23 -276.5t-64.5 -189t-94.5 -104.5t-117 -34q-85 0 -134.5 58.5t-68.5 154.5q-80 -209 -248 -209q-130 0 -207 115t-77 329q0 254 96.5 382t253.5 128q114 0 240 -72v-526q0 -147 35.5 -216t109.5 -69 q45 0 81 26.5t65.5 85t46 163.5t16.5 250q0 212 -67.5 372t-202 251t-322.5 91q-192 0 -340 -111t-227.5 -302t-79.5 -430q0 -399 173 -615.5t472 -216.5q164 0 313 68l27 -76q-86 -36 -162.5 -54t-179.5 -18q-161 0 -295.5 60t-232.5 173.5t-152.5 287t-54.5 391.5 q0 261 91.5 470.5t261 331t386.5 121.5zM834 109q73 0 130 60t85 150v553q-79 37 -156 37q-123 0 -191.5 -112t-68.5 -322q0 -183 52.5 -274.5t148.5 -91.5z" />
<glyph unicode="A" d="M836 0l-105 395h-493l-105 -395h-90l385 1401h119l385 -1401h-96zM260 475h451l-226 848z" />
<glyph unicode="B" horiz-adv-x="1001" d="M614 743q297 -44 297 -358q0 -185 -111 -285t-308 -100h-304v1401h244q204 0 315 -90.5t111 -257.5q0 -251 -244 -310zM442 1319h-159v-541h200q134 0 205.5 72.5t71.5 196.5q0 136 -81 204t-237 68zM492 82q321 0 321 303q0 313 -321 313h-209v-616h209z" />
<glyph unicode="C" horiz-adv-x="923" d="M582 1421q92 0 159 -31t133 -94l-53 -59q-59 53 -112 76.5t-123 23.5q-80 0 -145 -33.5t-117 -106t-80.5 -198.5t-28.5 -299q0 -167 28 -291t78.5 -198t115.5 -109.5t145 -35.5q81 0 135.5 27.5t113.5 82.5l56 -59q-129 -140 -305 -140q-211 0 -339 182t-128 541 q0 185 36.5 326t101 226t147.5 127t182 42z" />
<glyph unicode="D" horiz-adv-x="1060" d="M418 1401q60 0 112.5 -7.5t107.5 -28.5t99 -53.5t84 -86.5t67 -124t42.5 -169t15.5 -219q0 -141 -21 -255t-59 -190t-86 -130t-108 -83.5t-117.5 -42t-122.5 -12.5h-244v1401h230zM428 1317h-145v-1235h153q66 0 121.5 15t110.5 57.5t93 111t61.5 182.5t23.5 265 q0 111 -13 200.5t-34.5 151.5t-54 108t-67 73t-79 43.5t-84 22t-86.5 5.5z" />
<glyph unicode="E" horiz-adv-x="849" d="M768 1401l-12 -84h-473v-545h409v-82h-409v-608h495v-82h-590v1401h580z" />
<glyph unicode="F" horiz-adv-x="802" d="M188 0v1401h570l-10 -84h-465v-572h401v-81h-401v-664h-95z" />
<glyph unicode="G" horiz-adv-x="1040" d="M596 1421q94 0 165 -31.5t144 -101.5l-55 -57q-63 57 -121 81.5t-133 24.5q-59 0 -112 -18.5t-103 -64t-86 -115t-58 -180.5t-22 -252q0 -174 26.5 -300t76.5 -201t118 -110t156 -35q130 0 242 76v527h-226l-12 84h330v-658q-154 -113 -332 -113q-227 0 -353 179 t-126 551q0 150 27 271.5t72 202.5t107.5 136t131 79.5t143.5 24.5z" />
<glyph unicode="H" horiz-adv-x="1122" d="M840 0v696h-557v-696h-95v1401h95v-623h557v623h94v-1401h-94z" />
<glyph unicode="I" horiz-adv-x="471" d="M283 1401v-1401h-95v1401h95z" />
<glyph unicode="J" horiz-adv-x="483" d="M307 1401v-1217q0 -169 -56 -254.5t-202 -158.5l-26 67q115 67 151.5 135.5t36.5 214.5v1213h96z" />
<glyph unicode="K" horiz-adv-x="925" d="M283 1401v-1401h-95v1401h95zM883 1401l-488 -645l516 -756h-108l-514 752l491 649h103z" />
<glyph unicode="L" horiz-adv-x="792" d="M283 1401v-1313h479l-12 -88h-562v1401h95z" />
<glyph unicode="M" horiz-adv-x="1308" d="M1071 1401l113 -1401h-88l-56 686q-23 262 -45 623l-295 -1141h-92l-305 1141q-3 -98 -41 -613l-49 -696h-90l113 1401h129l290 -1118l283 1118h133z" />
<glyph unicode="N" horiz-adv-x="1126" d="M938 1401v-1401h-125l-549 1292q15 -225 15 -454v-838h-91v1401h125l547 -1292q-12 210 -12 407v885h90z" />
<glyph unicode="O" horiz-adv-x="1163" d="M582 1421q219 0 343 -180.5t124 -542.5q0 -354 -123.5 -537.5t-343.5 -183.5q-214 0 -340.5 183.5t-126.5 535.5q0 355 126.5 540t340.5 185zM582 1337q-172 0 -269.5 -157t-97.5 -484q0 -321 98.5 -478t268.5 -157q177 0 272.5 156t95.5 481q0 329 -96.5 484t-271.5 155 z" />
<glyph unicode="P" horiz-adv-x="946" d="M397 1401q244 0 363 -102.5t119 -313.5q0 -428 -486 -428h-110v-557h-95v1401h209zM395 639q194 0 288.5 78.5t94.5 265.5q0 179 -91 257.5t-290 78.5h-114v-680h112z" />
<glyph unicode="Q" horiz-adv-x="1163" d="M750 37q210 -7 344 -146l-66 -73q-90 95 -189.5 130.5t-258.5 35.5q-214 0 -339.5 180t-125.5 532q0 355 126.5 540t340.5 185q218 0 342.5 -181t124.5 -542q0 -153 -22 -269.5t-64 -193t-94 -123.5t-119 -75zM215 696q0 -321 98.5 -478t268.5 -157q177 0 272.5 156 t95.5 481q0 329 -96.5 484t-271.5 155q-172 0 -269.5 -157t-97.5 -484z" />
<glyph unicode="R" horiz-adv-x="987" d="M930 0h-105l-305 645q-46 -4 -71 -4h-166v-641h-95v1401h238q446 0 446 -375q0 -140 -67.5 -233.5t-192.5 -130.5zM438 723q170 0 251 73.5t81 229.5q0 148 -78.5 220.5t-269.5 72.5h-139v-596h155z" />
<glyph unicode="S" horiz-adv-x="905" d="M451 1421q103 0 178.5 -37.5t146.5 -113.5l-55 -56q-66 66 -127 94.5t-143 28.5q-108 0 -175 -71t-67 -179q0 -109 59 -175t211 -124q115 -45 184 -94t108.5 -127t39.5 -188q0 -171 -106 -286.5t-273 -115.5q-206 0 -364 175l55 55q74 -72 144 -109t163 -37 q128 0 205.5 87.5t77.5 228.5q0 129 -59.5 200.5t-215.5 131.5q-175 69 -250 155t-75 221q0 139 95.5 237.5t242.5 98.5z" />
<glyph unicode="T" horiz-adv-x="825" d="M809 1401l-10 -84h-338v-1317h-96v1317h-340v84h784z" />
<glyph unicode="U" horiz-adv-x="1083" d="M918 1401v-1041q0 -166 -96.5 -274.5t-278.5 -108.5q-184 0 -279.5 108t-95.5 275v1041h94v-1032q0 -142 69.5 -224t211.5 -82q141 0 209.5 83t68.5 223v1032h97z" />
<glyph unicode="V" horiz-adv-x="940" d="M899 1401l-373 -1401h-110l-373 1401h94l336 -1303l332 1303h94z" />
<glyph unicode="W" horiz-adv-x="1374" d="M1313 1401l-254 -1401h-121l-252 1296l-252 -1296h-121l-254 1401h95l223 -1309l254 1309h110l256 -1309l226 1309h90z" />
<glyph unicode="X" horiz-adv-x="856" d="M481 760l357 -760h-99l-317 694l-307 -694h-97l349 754l-314 647h99l272 -586l270 586h97z" />
<glyph unicode="Y" horiz-adv-x="872" d="M848 1401l-363 -850v-551h-94v549l-366 852h100l315 -764l310 764h98z" />
<glyph unicode="Z" horiz-adv-x="864" d="M786 1401v-80l-626 -1235h614l-10 -86h-705v82l629 1233h-565v86h663z" />
<glyph unicode="[" horiz-adv-x="532" d="M416 1645v-76h-185v-1721h185v-75h-271v1872h271z" />
<glyph unicode="\" horiz-adv-x="872" d="M279 1638l393 -1822l-78 -17l-395 1823z" />
<glyph unicode="]" horiz-adv-x="532" d="M387 1645v-1872h-272v75h184v1721h-184v76h272z" />
<glyph unicode="^" horiz-adv-x="890" d="M483 1698l310 -619h-107l-242 520l-243 -520h-103l310 619h75z" />
<glyph unicode="_" horiz-adv-x="882" d="M57 -233v81h770v-81h-770z" />
<glyph unicode="`" horiz-adv-x="477" d="M119 1581l309 -203l-33 -51l-323 172z" />
<glyph unicode="a" horiz-adv-x="903" d="M723 197q0 -67 18 -101.5t56 -52.5l-21 -66q-63 18 -95 59.5t-38 117.5q-95 -177 -272 -177q-126 0 -199.5 88t-73.5 232q0 165 99.5 253.5t281.5 88.5h154v131q0 121 -47.5 181.5t-149.5 60.5q-109 0 -248 -60l-28 68q153 70 282 70q142 0 211.5 -81.5t69.5 -232.5v-579 zM383 55q168 0 250 207v305h-146q-148 0 -220 -66.5t-72 -201.5q0 -119 50 -181.5t138 -62.5z" />
<glyph unicode="b" horiz-adv-x="966" d="M539 1090q154 0 236.5 -136.5t82.5 -412.5q0 -272 -88.5 -418t-247.5 -146q-79 0 -144 44.5t-110 115.5l-8 -137h-80v1505l92 11v-594q105 168 267 168zM512 57q248 0 248 484q0 247 -59.5 358t-174.5 111q-80 0 -139.5 -48t-114.5 -139v-592q103 -174 240 -174z" />
<glyph unicode="c" horiz-adv-x="774" d="M483 1090q139 0 244 -105l-47 -59q-90 84 -195 84q-129 0 -203.5 -117t-74.5 -365q0 -469 276 -469q108 0 203 88l47 -55q-112 -115 -250 -115q-175 0 -274.5 138.5t-99.5 412.5q0 272 100.5 417t273.5 145z" />
<glyph unicode="d" d="M702 1518l93 -13v-1505h-84l-6 162q-94 -185 -263 -185q-156 0 -244.5 144.5t-88.5 408.5q0 257 94.5 408.5t253.5 151.5q151 0 245 -146v574zM453 57q85 0 144.5 54.5t104.5 160.5v566q-93 172 -235 172q-120 0 -190.5 -122.5t-69.5 -357.5q1 -234 65.5 -353.5 t180.5 -119.5z" />
<glyph unicode="e" horiz-adv-x="899" d="M801 578q0 -44 -4 -84h-594q16 -435 280 -435q70 0 123 25t111 78l49 -56q-126 -129 -283 -129q-175 0 -274.5 140t-99.5 409q0 273 95 418.5t261 145.5q165 0 250.5 -131t85.5 -381zM711 567v41q0 402 -246 402q-115 0 -185.5 -105.5t-76.5 -337.5h508z" />
<glyph unicode="f" horiz-adv-x="538" d="M438 1438q-155 0 -155 -168v-201h235l-14 -78h-221v-991h-93v991h-149v78h149v207q0 112 64.5 177t175.5 65q106 0 205 -60l-33 -67q-81 47 -164 47z" />
<glyph unicode="g" horiz-adv-x="841" d="M797 1147l26 -90q-77 -28 -237 -31q149 -84 149 -299q0 -163 -84 -254.5t-233 -91.5q-66 0 -113 20q-74 -51 -74 -131q0 -123 162 -123h107q142 0 220.5 -71.5t78.5 -188.5q0 -138 -95.5 -219.5t-281.5 -81.5q-193 0 -279 73t-86 226h84q2 -118 64 -169.5t217 -51.5 q147 0 216 57.5t69 159.5q0 92 -56.5 140.5t-165.5 48.5h-94q-125 0 -185.5 49.5t-60.5 132.5q0 100 99 176q-150 94 -150 305q0 165 88 261t238 96q160 0 232.5 13t144.5 44zM418 1016q-115 0 -172.5 -73.5t-57.5 -209.5q0 -134 62 -207t166 -73q227 0 227 276 q0 133 -57 210t-168 77z" />
<glyph unicode="h" horiz-adv-x="980" d="M569 1090q117 0 179.5 -82.5t62.5 -225.5v-782h-92v770q0 242 -166 242q-83 0 -151.5 -62.5t-129.5 -177.5v-772h-92v1505l92 13v-637q60 100 130.5 154.5t166.5 54.5z" />
<glyph unicode="i" horiz-adv-x="452" d="M225 1522q30 0 50 -21t20 -49q0 -30 -20 -50t-50 -20t-49.5 20t-19.5 50q0 29 19.5 49.5t49.5 20.5zM272 1069v-1069h-92v1069h92z" />
<glyph unicode="j" horiz-adv-x="452" d="M225 1522q30 0 50 -21t20 -49q0 -30 -20 -50t-50 -20t-49.5 20t-19.5 50q0 29 19.5 49.5t49.5 20.5zM272 1069v-1098q0 -82 -13.5 -140t-45 -101.5t-70.5 -74t-102 -65.5l-31 66q96 59 133 122.5t37 194.5v1096h92z" />
<glyph unicode="k" horiz-adv-x="815" d="M272 1518v-1518h-92v1505zM764 1069l-381 -481l420 -588h-107l-413 584l381 485h100z" />
<glyph unicode="l" horiz-adv-x="475" d="M324 -23q-69 0 -111.5 45t-42.5 125v1358l92 13v-1368q0 -44 19 -68.5t55 -24.5q29 0 59 15l25 -68q-48 -27 -96 -27z" />
<glyph unicode="m" horiz-adv-x="1431" d="M1032 1090q106 0 167 -84t61 -224v-782h-91v770q0 119 -39 180.5t-112 61.5q-137 0 -252 -232v-780h-90v770q0 118 -40 180t-112 62q-139 0 -254 -232v-780h-90v1069h80l6 -184q115 205 271 205q87 0 143.5 -56t75.5 -157q116 213 276 213z" />
<glyph unicode="n" horiz-adv-x="980" d="M569 1090q117 0 179.5 -82.5t62.5 -225.5v-782h-92v770q0 242 -166 242q-153 0 -281 -240v-772h-92v1069h80l8 -190q60 102 132 156.5t169 54.5z" />
<glyph unicode="o" horiz-adv-x="956" d="M479 1090q176 0 272.5 -138.5t96.5 -412.5q0 -272 -98.5 -417t-272.5 -145t-271 144t-97 411q0 272 98 415t272 143zM479 1010q-274 0 -274 -478q0 -240 70.5 -356.5t201.5 -116.5q275 0 275 480q0 471 -273 471z" />
<glyph unicode="p" horiz-adv-x="966" d="M539 1090q155 0 237 -137.5t82 -411.5q0 -272 -88 -418t-246 -146q-156 0 -252 152v-528l-92 -15v1483h80l6 -156q110 177 273 177zM512 59q248 0 248 482q0 243 -59 356t-175 113q-79 0 -139 -48t-115 -137v-596q100 -170 240 -170z" />
<glyph unicode="q" d="M715 1069h80v-1483l-93 15v555q-95 -179 -256 -179q-157 0 -247 145t-90 408q0 258 93 409t253 151q152 0 254 -150zM455 57q81 0 140.5 52t106.5 151v580q-45 80 -101 125t-136 45q-119 0 -189 -122.5t-69 -357.5q1 -233 66.5 -353t181.5 -120z" />
<glyph unicode="r" horiz-adv-x="626" d="M520 1090q34 0 84 -13l-16 -82q-46 11 -74 11q-91 0 -147.5 -79t-94.5 -241v-686h-92v1069h80l6 -217q39 121 100 179.5t154 58.5z" />
<glyph unicode="s" horiz-adv-x="784" d="M395 1090q156 0 279 -117l-47 -58q-59 51 -111 74t-119 23q-90 0 -145 -52.5t-55 -144.5q0 -77 48.5 -124t172.5 -93q150 -56 214 -125t64 -190q0 -137 -88.5 -221.5t-224.5 -84.5q-175 0 -313 138l51 53q62 -57 121.5 -85t138.5 -28q98 0 160.5 60t62.5 166 q0 96 -49 147t-188 104q-142 53 -202.5 117.5t-60.5 165.5q0 119 83 197t208 78z" />
<glyph unicode="t" horiz-adv-x="571" d="M537 104l41 -61q-85 -66 -185 -66q-101 0 -158 63t-57 171v780h-143v78h143v260l92 10v-270h230l-13 -78h-217v-778q0 -72 33 -113t98 -41q68 0 136 45z" />
<glyph unicode="u" d="M793 1069v-1069h-78l-6 186q-107 -209 -285 -209q-117 0 -185.5 80t-68.5 215v797h92v-788q0 -111 45.5 -167.5t128.5 -56.5q159 0 264 230v782h93z" />
<glyph unicode="v" horiz-adv-x="802" d="M766 1069l-303 -1069h-111l-317 1069h98l275 -989l264 989h94z" />
<glyph unicode="w" horiz-adv-x="1196" d="M1141 1069l-217 -1069h-125l-199 979l-201 -979h-123l-221 1069h95l190 -987l207 987h110l205 -989l189 989h90z" />
<glyph unicode="x" horiz-adv-x="778" d="M442 573l312 -573h-105l-262 516l-264 -516h-98l309 569l-271 500h101l223 -444l227 444h99z" />
<glyph unicode="y" horiz-adv-x="796" d="M762 1069l-303 -1073q-52 -184 -126 -275.5t-224 -132.5l-13 72q66 21 109.5 48t75 70.5t52 92t44.5 129.5h-35l-307 1069h96l272 -997l265 997h94z" />
<glyph unicode="z" horiz-adv-x="706" d="M649 1069v-74l-504 -913h500l-10 -82h-590v74l506 913h-465v82h563z" />
<glyph unicode="{" horiz-adv-x="548" d="M434 1690v-72q-77 0 -109 -37.5t-32 -122.5v-555q0 -91 -31 -129.5t-104 -58.5q73 -20 104 -58t31 -131v-555q0 -83 33 -121t108 -38v-72q-115 0 -170 56t-55 181v549q0 82 -30 115t-99 33v82q69 0 99 33.5t30 115.5v549q0 127 54.5 181.5t170.5 54.5z" />
<glyph unicode="|" horiz-adv-x="679" d="M383 1645v-1850h-86v1850h86z" />
<glyph unicode="}" horiz-adv-x="548" d="M115 1690q115 0 170 -55t55 -181v-549q0 -82 30 -115.5t99 -33.5v-82q-69 0 -99 -33t-30 -115v-549q0 -125 -55 -181t-170 -56v72q75 0 108 38t33 121v555q0 93 30.5 131t104.5 58q-73 20 -104 58.5t-31 129.5v555q0 85 -32 122.5t-107 37.5z" />
<glyph unicode="~" horiz-adv-x="790" d="M530 555q-45 0 -95 28.5t-94.5 56.5t-76.5 28q-36 0 -60 -22t-52 -68l-60 32q35 64 76.5 99.5t99.5 35.5q35 0 73.5 -17.5t66.5 -38.5t62 -38.5t62 -17.5q32 0 56 21.5t53 66.5l57 -33q-35 -64 -73.5 -98.5t-94.5 -34.5z" />
<glyph unicode="&#xa1;" horiz-adv-x="446" d="M223 956q36 0 57 -23t21 -56q0 -32 -21.5 -55t-56.5 -23q-34 0 -56 23t-22 55q0 33 22 56t56 23zM264 514l8 -913h-96l8 913h80z" />
<glyph unicode="&#xa2;" horiz-adv-x="774" d="M733 92q-98 -101 -215 -112v-285h-80v285q-155 18 -242 155t-87 393q0 254 88.5 397.5t242.5 161.5v304h78v-304q116 -9 209 -102l-47 -59q-90 84 -195 84q-129 0 -203.5 -117t-74.5 -365q0 -469 276 -469q108 0 203 88z" />
<glyph unicode="&#xa3;" horiz-adv-x="860" d="M319 324q0 -100 -27 -151.5t-97 -88.5h563l-10 -84h-660v80q81 46 111 95t30 147v364h-112v74h112v289q0 148 76.5 240.5t208.5 92.5q83 0 147 -36t121 -111l-59 -49q-45 61 -92.5 90t-112.5 29q-97 0 -148 -67.5t-51 -186.5v-291h359v-74h-359v-362z" />
<glyph unicode="&#xa4;" horiz-adv-x="942" d="M862 272l-61 -49l-131 160q-83 -74 -203 -74q-114 0 -193 70l-131 -156l-57 49l139 164q-69 104 -69 262q0 151 65 256l-143 170l61 50l133 -160q80 71 195 71q121 0 199 -69l131 158l57 -52l-139 -164q69 -101 69 -260q0 -156 -65 -256zM469 385q115 0 173 80t58 233 t-58 233.5t-173 80.5q-113 0 -171 -80.5t-58 -233.5q0 -313 229 -313z" />
<glyph unicode="&#xa5;" horiz-adv-x="854" d="M829 1360l-327 -674h200v-74h-227v-219h227v-76h-227v-317h-94v317h-225v76h225v219h-225v74h198l-329 674h98l307 -655l305 655h94z" />
<glyph unicode="&#xa6;" horiz-adv-x="679" d="M383 1645v-738h-86v738h86zM383 537v-742h-86v742h86z" />
<glyph unicode="&#xa7;" horiz-adv-x="897" d="M618 332q95 -74 95 -197q0 -124 -80 -198t-207 -74q-156 0 -274 94l43 63q98 -79 227 -79q94 0 147.5 51.5t53.5 136.5q0 78 -41.5 123.5t-169.5 99.5q-146 62 -206.5 123.5t-60.5 177.5q0 144 138 260q-51 38 -73 84.5t-22 112.5q0 123 79 196.5t202 73.5 q77 0 137 -24.5t121 -71.5l-41 -61q-110 80 -213 80q-92 0 -142 -51t-50 -138q0 -79 42.5 -125.5t176.5 -101.5q133 -57 193.5 -124.5t60.5 -166.5q0 -155 -136 -264zM233 662q0 -88 42 -135.5t171 -102.5q61 -24 117 -55q54 46 77.5 98t23.5 121q0 74 -42 126t-161 103 q-40 16 -125 60q-103 -90 -103 -215z" />
<glyph unicode="&#xa8;" horiz-adv-x="567" d="M139 1499q29 0 47.5 -19.5t18.5 -47.5q0 -29 -18.5 -48.5t-47.5 -19.5t-47 19t-18 49q0 28 18 47.5t47 19.5zM451 1499q29 0 48 -19.5t19 -47.5q0 -29 -19 -48.5t-48 -19.5t-47.5 19.5t-18.5 48.5q0 28 18.5 47.5t47.5 19.5z" />
<glyph unicode="&#xa9;" horiz-adv-x="1357" d="M680 1497q217 0 355.5 -161.5t138.5 -444.5q0 -281 -139 -444.5t-355 -163.5q-217 0 -356.5 162.5t-139.5 445.5q0 280 139.5 443t356.5 163zM680 1427q-188 0 -305 -141.5t-117 -394.5q0 -256 116.5 -396.5t305.5 -140.5q188 0 305 142t117 395q0 255 -116.5 395.5 t-305.5 140.5zM682 1253q95 0 166 -65l-39 -53q-57 45 -127 45q-69 0 -116.5 -67t-47.5 -220q0 -291 168 -291q71 0 137 55l37 -53q-76 -76 -176 -76q-112 0 -179 92t-67 273q0 182 70 271t174 89z" />
<glyph unicode="&#xaa;" horiz-adv-x="864" d="M426 1065h135v96q0 82 -36.5 122t-123.5 40q-71 0 -188 -45l-23 70q119 53 220 53q239 0 239 -232v-444q0 -42 13.5 -63.5t42.5 -34.5l-19 -64q-51 14 -79 43.5t-34 81.5q-81 -125 -215 -125q-102 0 -162.5 65.5t-60.5 174.5q0 125 78.5 193.5t212.5 68.5zM371 639 q123 0 190 143v211h-133q-101 0 -150 -45t-49 -141q0 -82 38 -125t104 -43zM137 82h592v-80h-592v80z" />
<glyph unicode="&#xab;" horiz-adv-x="983" d="M412 1053l59 -39l-238 -424l238 -424l-59 -37l-271 428v64zM784 1053l60 -39l-238 -424l238 -424l-60 -37l-270 428v64z" />
<glyph unicode="&#xac;" horiz-adv-x="839" d="M723 696v-329h-86v249h-520v80h606z" />
<glyph unicode="&#xad;" horiz-adv-x="675" d="M117 600v82h442v-82h-442z" />
<glyph unicode="&#xae;" horiz-adv-x="1073" d="M537 1499q174 0 287.5 -128.5t113.5 -348.5q0 -216 -114.5 -348.5t-286.5 -132.5q-173 0 -286.5 128t-113.5 347q0 217 114.5 350t285.5 133zM537 604q145 0 240 112.5t95 305.5q0 196 -93 305t-242 109q-145 0 -240.5 -113.5t-95.5 -306.5q0 -194 94.5 -303t241.5 -109z M700 1143q0 -119 -104 -152l123 -241h-76l-113 231h-65v-231h-66v553h113q92 0 140 -42t48 -118zM465 1241v-199h67q101 0 101 101q0 98 -109 98h-59z" />
<glyph unicode="&#xaf;" horiz-adv-x="518" d="M467 1393h-395v75h395v-75z" />
<glyph unicode="&#xb0;" horiz-adv-x="847" d="M367 821q-105 0 -178.5 79t-73.5 222q0 138 74 218.5t178 80.5q110 0 182 -79t72 -222q0 -140 -72 -219.5t-182 -79.5zM367 893q79 0 124.5 58t45.5 169q0 114 -45.5 172t-124.5 58q-73 0 -120.5 -58t-47.5 -170q0 -111 47.5 -170t120.5 -59z" />
<glyph unicode="&#xb1;" horiz-adv-x="827" d="M459 1038v-307h252v-84h-252v-305h-86v305h-256v84h256v307h86zM117 0v80h592v-80h-592z" />
<glyph unicode="&#xb2;" horiz-adv-x="671" d="M332 1518q95 0 151 -62.5t56 -161.5q0 -32 -2.5 -59t-14 -58.5t-19.5 -53t-33.5 -61t-41 -62.5t-57.5 -76.5t-67 -84.5t-85 -104h340l-12 -73h-418v71q208 251 267 350t59 209q0 73 -34.5 113.5t-94.5 40.5q-89 0 -158 -92l-55 41q51 65 103 94t116 29z" />
<glyph unicode="&#xb3;" horiz-adv-x="671" d="M334 1522q96 0 152.5 -59t56.5 -154q0 -82 -43 -133.5t-115 -63.5q77 -5 127.5 -60.5t50.5 -152.5q0 -110 -65.5 -182t-175.5 -72q-127 0 -216 113l52 43q70 -84 161 -84q77 0 119.5 49t42.5 133q0 174 -157 174h-50l9 68h34q61 0 103.5 40.5t42.5 121.5q0 71 -36 110 t-97 39q-85 0 -162 -74l-43 47q94 97 209 97z" />
<glyph unicode="&#xb4;" horiz-adv-x="479" d="M381 1581l47 -82l-326 -172l-32 51z" />
<glyph unicode="&#xb5;" horiz-adv-x="983" d="M838 -6l-84 -10q-22 67 -31 115.5t-12 119.5q-111 -242 -275 -242q-128 0 -182 127q16 -109 16 -256v-247l-90 -9v1477h92v-766q0 -126 47.5 -184t120.5 -58q154 0 258 252v756h93v-709q0 -204 47 -366z" />
<glyph unicode="&#xb6;" horiz-adv-x="1185" d="M557 1399l375 2v-1800l-88 -17v1737h-217v-1720l-86 -17v1028q-99 4 -172 36t-116 86.5t-63 122t-20 149.5q0 189 101 291t286 102z" />
<glyph unicode="&#xb7;" horiz-adv-x="366" d="M182 737q35 0 56.5 -24t21.5 -56t-21.5 -55.5t-56.5 -23.5q-34 0 -56 23.5t-22 55.5t22 56t56 24z" />
<glyph unicode="&#xb8;" horiz-adv-x="428" d="M221 33v-172q156 -21 156 -152q0 -75 -50 -119.5t-122 -44.5q-74 0 -133 41l34 58q48 -29 97 -29q42 0 68 24t26 70q0 49 -37 72.5t-115 23.5l15 228h61z" />
<glyph unicode="&#xb9;" horiz-adv-x="673" d="M430 1507v-845h-78v755l-174 -123l-39 54l223 159h68z" />
<glyph unicode="&#xba;" horiz-adv-x="847" d="M424 1401q145 0 223 -103t78 -313q0 -208 -80 -315t-221 -107q-143 0 -222 105.5t-79 312.5q0 206 80 313t221 107zM426 1325q-104 0 -158.5 -81.5t-54.5 -262.5q0 -342 211 -342q104 0 157.5 82t53.5 264q0 180 -52.5 260t-156.5 80zM127 0v80h592v-80h-592z" />
<glyph unicode="&#xbb;" horiz-adv-x="983" d="M197 1053l274 -432v-64l-274 -428l-56 37l238 424l-238 424zM569 1053l275 -432v-64l-275 -428l-55 37l238 424l-238 424z" />
<glyph unicode="&#xbc;" horiz-adv-x="1533" d="M1077 1528l68 -27l-684 -1640l-68 28zM430 555h-78v756l-174 -123l-39 53l223 160h68v-846zM1444 289v-72h-94v-217h-80v217h-316v62l217 581l68 -26l-207 -545h238l12 243h68v-243h94z" />
<glyph unicode="&#xbd;" horiz-adv-x="1536" d="M1077 1528l68 -27l-684 -1640l-68 28zM430 1401v-846h-78v756l-174 -123l-39 53l223 160h68zM1196 856q95 0 151 -62t56 -161q0 -32 -2.5 -59t-14 -58.5t-19.5 -53t-33.5 -61t-41 -62.5t-57.5 -76.5t-67 -84.5t-85 -104h340l-12 -74h-418v72q208 251 267 350t59 209 q0 73 -34.5 113t-94.5 40q-89 0 -158 -92l-55 41q51 65 103 94t116 29z" />
<glyph unicode="&#xbe;" horiz-adv-x="1531" d="M1075 1528l68 -27l-684 -1640l-68 28zM563 793q0 -110 -65.5 -182t-175.5 -72q-128 0 -216 112l52 43q70 -84 161 -84q77 0 119.5 49.5t42.5 133.5q0 174 -157 174h-50l9 67h34q61 0 103.5 40.5t42.5 121.5q0 71 -36 110.5t-97 39.5q-85 0 -162 -74l-43 47q93 96 209 96 q96 0 152.5 -59t56.5 -154q0 -81 -43 -132.5t-115 -63.5q77 -5 127.5 -60.5t50.5 -152.5zM1442 289v-72h-94v-217h-80v217h-316v62l217 581l68 -26l-207 -545h238l12 243h68v-243h94z" />
<glyph unicode="&#xbf;" horiz-adv-x="772" d="M432 799q-35 0 -56.5 23t-21.5 55t21.5 55.5t56.5 23.5t56.5 -23.5t21.5 -55.5t-21.5 -55t-56.5 -23zM375 -416q-135 0 -213 83.5t-78 207.5q0 61 17 110.5t43.5 83t59 63t65.5 59.5t59.5 63.5t43.5 83t17 111.5v63h88v-72q0 -79 -22.5 -140t-55.5 -96.5t-72.5 -71.5 t-72.5 -66t-55.5 -79.5t-22.5 -111.5q0 -97 54.5 -154t146.5 -57q78 0 135.5 36t116.5 116l61 -49q-129 -183 -315 -183z" />
<glyph unicode="&#xc0;" d="M659 1608l-28 -54l-326 154l45 84zM836 0l-105 395h-493l-105 -395h-90l385 1401h119l385 -1401h-96zM260 475h451l-226 848z" />
<glyph unicode="&#xc1;" d="M666 1710l-328 -156l-27 56l312 182zM836 0l-105 395h-493l-105 -395h-90l385 1401h119l385 -1401h-96zM260 475h451l-226 848z" />
<glyph unicode="&#xc2;" d="M485 1729l-202 -162l-41 43l215 205h55l217 -205l-43 -43zM836 0l-105 395h-493l-105 -395h-90l385 1401h119l385 -1401h-96zM260 475h451l-226 848z" />
<glyph unicode="&#xc3;" d="M389 1722q-28 0 -49 -17.5t-45 -57.5l-55 26q63 123 147 123q34 0 70 -22.5t69 -45t60 -22.5q26 0 47.5 20t48.5 66l53 -25q-56 -135 -147 -135q-36 0 -73 22.5t-69.5 45t-56.5 22.5zM836 0l-105 395h-493l-105 -395h-90l385 1401h119l385 -1401h-96zM260 475h451 l-226 848z" />
<glyph unicode="&#xc4;" d="M342 1622q-29 0 -47.5 19.5t-18.5 48.5q0 28 18.5 47.5t47.5 19.5t47.5 -19.5t18.5 -47.5q0 -29 -18.5 -48.5t-47.5 -19.5zM653 1622q-29 0 -47 19t-18 49q0 28 18 47.5t47 19.5t48.5 -19.5t19.5 -47.5q0 -29 -19.5 -48.5t-48.5 -19.5zM836 0l-105 395h-493l-105 -395 h-90l385 1401h119l385 -1401h-96zM260 475h451l-226 848z" />
<glyph unicode="&#xc5;" d="M487 1561q-74 0 -117.5 47.5t-43.5 136.5q0 87 43.5 134.5t117.5 47.5q75 0 119.5 -47.5t44.5 -134.5q0 -89 -44.5 -136.5t-119.5 -47.5zM487 1868q-92 0 -92 -123q0 -125 92 -125q95 0 95 125q0 123 -95 123zM836 0l-105 395h-493l-105 -395h-90l385 1401h119l385 -1401 h-96zM260 475h451l-226 848z" />
<glyph unicode="&#xc6;" horiz-adv-x="1306" d="M850 82h385v-82h-461l-78 385h-479l-119 -385h-94l447 1401h702l-10 -84h-547l113 -547h432v-80h-416zM242 467h438l-174 856z" />
<glyph unicode="&#xc7;" horiz-adv-x="923" d="M887 117q-128 -135 -289 -140v-116q156 -21 156 -152q0 -75 -50 -119.5t-122 -44.5q-74 0 -133 41l34 58q48 -29 97 -29q42 0 68 24t26 70q0 49 -37 72.5t-115 23.5l10 175q-191 21 -304 202t-113 518q0 185 36.5 326t101 226t147.5 127t182 42q92 0 159 -31t133 -94 l-53 -59q-59 53 -112 76.5t-123 23.5q-80 0 -145 -33.5t-117 -106t-80.5 -198.5t-28.5 -299q0 -167 28 -291t78.5 -198t115.5 -109.5t145 -35.5q81 0 135.5 27.5t113.5 82.5z" />
<glyph unicode="&#xc8;" horiz-adv-x="849" d="M348 1792l309 -184l-28 -54l-326 154zM768 1401l-12 -84h-473v-545h409v-82h-409v-608h495v-82h-590v1401h580z" />
<glyph unicode="&#xc9;" horiz-adv-x="849" d="M621 1792l43 -82l-328 -156l-27 56zM768 1401l-12 -84h-473v-545h409v-82h-409v-608h495v-82h-590v1401h580z" />
<glyph unicode="&#xca;" horiz-adv-x="849" d="M281 1567l-41 43l215 205h55l217 -205l-43 -43l-201 162zM768 1401l-12 -84h-473v-545h409v-82h-409v-608h495v-82h-590v1401h580z" />
<glyph unicode="&#xcb;" horiz-adv-x="849" d="M340 1757q29 0 47.5 -19.5t18.5 -47.5q0 -29 -18.5 -48.5t-47.5 -19.5t-47.5 19.5t-18.5 48.5q0 28 18.5 47.5t47.5 19.5zM651 1757q29 0 48.5 -19.5t19.5 -47.5q0 -29 -19.5 -48.5t-48.5 -19.5t-47 19t-18 49q0 28 18 47.5t47 19.5zM768 1401l-12 -84h-473v-545h409v-82 h-409v-608h495v-82h-590v1401h580z" />
<glyph unicode="&#xcc;" horiz-adv-x="471" d="M96 1792l310 -184l-29 -54l-326 154zM283 1401v-1401h-95v1401h95z" />
<glyph unicode="&#xcd;" horiz-adv-x="471" d="M369 1792l43 -82l-328 -156l-27 56zM283 1401v-1401h-95v1401h95z" />
<glyph unicode="&#xce;" horiz-adv-x="471" d="M29 1567l-41 43l215 205h55l217 -205l-43 -43l-201 162zM283 1401v-1401h-95v1401h95z" />
<glyph unicode="&#xcf;" horiz-adv-x="471" d="M88 1757q29 0 47.5 -19.5t18.5 -47.5q0 -29 -18.5 -48.5t-47.5 -19.5t-47 19t-18 49q0 28 18 47.5t47 19.5zM399 1757q29 0 48.5 -19.5t19.5 -47.5q0 -29 -19.5 -48.5t-48.5 -19.5t-47 19t-18 49q0 28 18 47.5t47 19.5zM283 1401v-1401h-95v1401h95z" />
<glyph unicode="&#xd0;" horiz-adv-x="1069" d="M426 1401q60 0 112.5 -7.5t107.5 -28.5t99 -53.5t84 -86.5t67 -124t42.5 -169t15.5 -219q0 -141 -21 -255t-59 -190t-86 -130t-108 -83.5t-117.5 -42t-122.5 -12.5h-243v680h-156v82h156v639h229zM444 82q66 0 121.5 15t110.5 57.5t93 111t61.5 182.5t23.5 265 q0 111 -13 200.5t-34.5 151.5t-54 108t-67 73t-79 43.5t-84 22t-86.5 5.5h-145v-555h293v-82h-293v-598h153z" />
<glyph unicode="&#xd1;" horiz-adv-x="1126" d="M678 1632q-36 0 -73 22.5t-69.5 45t-56.5 22.5q-28 0 -49 -17.5t-45 -57.5l-55 26q63 123 147 123q34 0 70 -22.5t69 -45t60 -22.5q26 0 47.5 20t48.5 66l53 -25q-56 -135 -147 -135zM938 1401v-1401h-125l-549 1292q15 -225 15 -454v-838h-91v1401h125l547 -1292 q-12 210 -12 407v885h90z" />
<glyph unicode="&#xd2;" horiz-adv-x="1163" d="M444 1792l310 -184l-29 -54l-326 154zM582 1421q219 0 343 -180.5t124 -542.5q0 -354 -123.5 -537.5t-343.5 -183.5q-214 0 -340.5 183.5t-126.5 535.5q0 355 126.5 540t340.5 185zM582 1337q-172 0 -269.5 -157t-97.5 -484q0 -321 98.5 -478t268.5 -157q177 0 272.5 156 t95.5 481q0 329 -96.5 484t-271.5 155z" />
<glyph unicode="&#xd3;" horiz-adv-x="1163" d="M717 1792l43 -82l-328 -156l-26 56zM582 1421q219 0 343 -180.5t124 -542.5q0 -354 -123.5 -537.5t-343.5 -183.5q-214 0 -340.5 183.5t-126.5 535.5q0 355 126.5 540t340.5 185zM582 1337q-172 0 -269.5 -157t-97.5 -484q0 -321 98.5 -478t268.5 -157q177 0 272.5 156 t95.5 481q0 329 -96.5 484t-271.5 155z" />
<glyph unicode="&#xd4;" horiz-adv-x="1163" d="M377 1567l-41 43l215 205h55l217 -205l-43 -43l-200 162zM582 1421q219 0 343 -180.5t124 -542.5q0 -354 -123.5 -537.5t-343.5 -183.5q-214 0 -340.5 183.5t-126.5 535.5q0 355 126.5 540t340.5 185zM582 1337q-172 0 -269.5 -157t-97.5 -484q0 -321 98.5 -478 t268.5 -157q177 0 272.5 156t95.5 481q0 329 -96.5 484t-271.5 155z" />
<glyph unicode="&#xd5;" horiz-adv-x="1163" d="M682 1632q-36 0 -73 22.5t-69.5 45t-56.5 22.5q-28 0 -49 -17.5t-45 -57.5l-55 26q63 123 147 123q34 0 70 -22.5t69 -45t60 -22.5q26 0 47.5 20t48.5 66l53 -25q-56 -135 -147 -135zM582 1421q219 0 343 -180.5t124 -542.5q0 -354 -123.5 -537.5t-343.5 -183.5 q-214 0 -340.5 183.5t-126.5 535.5q0 355 126.5 540t340.5 185zM582 1337q-172 0 -269.5 -157t-97.5 -484q0 -321 98.5 -478t268.5 -157q177 0 272.5 156t95.5 481q0 329 -96.5 484t-271.5 155z" />
<glyph unicode="&#xd6;" horiz-adv-x="1163" d="M436 1757q29 0 47.5 -19.5t18.5 -47.5q0 -29 -18.5 -48.5t-47.5 -19.5t-47 19t-18 49q0 28 18 47.5t47 19.5zM748 1757q29 0 48 -19.5t19 -47.5q0 -29 -19 -48.5t-48 -19.5t-47.5 19.5t-18.5 48.5q0 28 18.5 47.5t47.5 19.5zM582 1421q219 0 343 -180.5t124 -542.5 q0 -354 -123.5 -537.5t-343.5 -183.5q-214 0 -340.5 183.5t-126.5 535.5q0 355 126.5 540t340.5 185zM582 1337q-172 0 -269.5 -157t-97.5 -484q0 -321 98.5 -478t268.5 -157q177 0 272.5 156t95.5 481q0 329 -96.5 484t-271.5 155z" />
<glyph unicode="&#xd7;" horiz-adv-x="827" d="M625 952l63 -49l-217 -274l217 -275l-63 -47l-211 268l-211 -268l-64 47l217 275l-217 274l66 49l209 -270z" />
<glyph unicode="&#xd8;" horiz-adv-x="1163" d="M786 1370q263 -148 263 -672q0 -353 -123.5 -537t-343.5 -184q-71 0 -133 21l-58 -238l-84 23l68 248q-124 74 -192 241.5t-68 423.5q0 354 126.5 539.5t340.5 185.5q70 0 131 -18l61 250l84 -25zM213 696q0 -451 195 -585l288 1208q-52 18 -114 18q-85 0 -151.5 -37 t-115.5 -113t-75.5 -200t-26.5 -291zM582 61q365 0 368 637q0 466 -194 592l-289 -1208q53 -21 115 -21z" />
<glyph unicode="&#xd9;" horiz-adv-x="1083" d="M406 1792l309 -184l-29 -54l-326 154zM918 1401v-1041q0 -166 -96.5 -274.5t-278.5 -108.5q-184 0 -279.5 108t-95.5 275v1041h94v-1032q0 -142 69.5 -224t211.5 -82q141 0 209.5 83t68.5 223v1032h97z" />
<glyph unicode="&#xda;" horiz-adv-x="1083" d="M678 1792l43 -82l-328 -156l-26 56zM918 1401v-1041q0 -166 -96.5 -274.5t-278.5 -108.5q-184 0 -279.5 108t-95.5 275v1041h94v-1032q0 -142 69.5 -224t211.5 -82q141 0 209.5 83t68.5 223v1032h97z" />
<glyph unicode="&#xdb;" horiz-adv-x="1083" d="M338 1567l-41 43l215 205h55l217 -205l-43 -43l-200 162zM918 1401v-1041q0 -166 -96.5 -274.5t-278.5 -108.5q-184 0 -279.5 108t-95.5 275v1041h94v-1032q0 -142 69.5 -224t211.5 -82q141 0 209.5 83t68.5 223v1032h97z" />
<glyph unicode="&#xdc;" horiz-adv-x="1083" d="M397 1757q29 0 47.5 -19.5t18.5 -47.5q0 -29 -18.5 -48.5t-47.5 -19.5t-47 19t-18 49q0 28 18 47.5t47 19.5zM709 1757q29 0 48 -19.5t19 -47.5q0 -29 -19 -48.5t-48 -19.5t-47.5 19.5t-18.5 48.5q0 28 18.5 47.5t47.5 19.5zM918 1401v-1041q0 -166 -96.5 -274.5 t-278.5 -108.5q-184 0 -279.5 108t-95.5 275v1041h94v-1032q0 -142 69.5 -224t211.5 -82q141 0 209.5 83t68.5 223v1032h97z" />
<glyph unicode="&#xdd;" horiz-adv-x="872" d="M571 1792l43 -82l-327 -156l-27 56zM848 1401l-363 -850v-551h-94v549l-366 852h100l315 -764l310 764h98z" />
<glyph unicode="&#xde;" horiz-adv-x="946" d="M406 1147q239 0 356 -102.5t117 -315.5q0 -230 -122.5 -336t-353.5 -106h-120v-287h-95v1401h95v-254h123zM401 369q190 0 283.5 81t93.5 277q0 180 -89.5 259t-282.5 79h-123v-696h118z" />
<glyph unicode="&#xdf;" horiz-adv-x="976" d="M494 1518q122 0 198 -74.5t76 -194.5q0 -61 -20.5 -110.5t-50 -81.5t-58.5 -60.5t-49.5 -61.5t-20.5 -69q0 -35 18 -66.5t46.5 -58t63.5 -54.5t70 -63t63.5 -76.5t46.5 -102t18 -132.5q0 -150 -75 -243t-195 -93q-91 0 -162 43l33 68q53 -29 120 -29q85 0 135 66t50 188 q0 90 -33 159.5t-79.5 112.5t-93 81.5t-79.5 87t-33 108.5q0 37 14.5 70t36 56t47 51t47 54.5t36 66.5t14.5 87q0 92 -50 141.5t-134 49.5q-100 0 -161 -72t-61 -203v-1163h-92v1167q0 158 87.5 254.5t226.5 96.5z" />
<glyph unicode="&#xe0;" horiz-adv-x="903" d="M625 1378l-33 -51l-324 172l47 82zM723 197q0 -67 18 -101.5t56 -52.5l-21 -66q-63 18 -95 59.5t-38 117.5q-95 -177 -272 -177q-126 0 -199.5 88t-73.5 232q0 165 99.5 253.5t281.5 88.5h154v131q0 121 -47.5 181.5t-149.5 60.5q-109 0 -248 -60l-28 68q153 70 282 70 q142 0 211.5 -81.5t69.5 -232.5v-579zM383 55q168 0 250 207v305h-146q-148 0 -220 -66.5t-72 -201.5q0 -119 50 -181.5t138 -62.5z" />
<glyph unicode="&#xe1;" horiz-adv-x="903" d="M606 1499l-325 -172l-33 51l311 203zM723 197q0 -67 18 -101.5t56 -52.5l-21 -66q-63 18 -95 59.5t-38 117.5q-95 -177 -272 -177q-126 0 -199.5 88t-73.5 232q0 165 99.5 253.5t281.5 88.5h154v131q0 121 -47.5 181.5t-149.5 60.5q-109 0 -248 -60l-28 68q153 70 282 70 q142 0 211.5 -81.5t69.5 -232.5v-579zM383 55q168 0 250 207v305h-146q-148 0 -220 -66.5t-72 -201.5q0 -119 50 -181.5t138 -62.5z" />
<glyph unicode="&#xe2;" horiz-adv-x="903" d="M440 1503l-202 -174l-41 41l215 217h55l217 -217l-43 -41zM723 197q0 -67 18 -101.5t56 -52.5l-21 -66q-63 18 -95 59.5t-38 117.5q-95 -177 -272 -177q-126 0 -199.5 88t-73.5 232q0 165 99.5 253.5t281.5 88.5h154v131q0 121 -47.5 181.5t-149.5 60.5q-109 0 -248 -60 l-28 68q153 70 282 70q142 0 211.5 -81.5t69.5 -232.5v-579zM383 55q168 0 250 207v305h-146q-148 0 -220 -66.5t-72 -201.5q0 -119 50 -181.5t138 -62.5z" />
<glyph unicode="&#xe3;" horiz-adv-x="903" d="M342 1464q-28 0 -49 -17.5t-45 -57.5l-55 26q63 123 147 123q34 0 70 -22.5t69 -45t60 -22.5q26 0 47.5 20t48.5 66l53 -25q-56 -135 -147 -135q-36 0 -73 22.5t-69.5 45t-56.5 22.5zM723 197q0 -67 18 -101.5t56 -52.5l-21 -66q-63 18 -95 59.5t-38 117.5 q-95 -177 -272 -177q-126 0 -199.5 88t-73.5 232q0 165 99.5 253.5t281.5 88.5h154v131q0 121 -47.5 181.5t-149.5 60.5q-109 0 -248 -60l-28 68q153 70 282 70q142 0 211.5 -81.5t69.5 -232.5v-579zM383 55q168 0 250 207v305h-146q-148 0 -220 -66.5t-72 -201.5 q0 -119 50 -181.5t138 -62.5z" />
<glyph unicode="&#xe4;" horiz-adv-x="903" d="M285 1364q-29 0 -47.5 19.5t-18.5 48.5q0 28 18.5 47.5t47.5 19.5t47 -19.5t18 -47.5q0 -30 -18 -49t-47 -19zM596 1364q-29 0 -47.5 19.5t-18.5 48.5q0 28 18.5 47.5t47.5 19.5t48.5 -19.5t19.5 -47.5q0 -29 -19.5 -48.5t-48.5 -19.5zM723 197q0 -67 18 -101.5t56 -52.5 l-21 -66q-63 18 -95 59.5t-38 117.5q-95 -177 -272 -177q-126 0 -199.5 88t-73.5 232q0 165 99.5 253.5t281.5 88.5h154v131q0 121 -47.5 181.5t-149.5 60.5q-109 0 -248 -60l-28 68q153 70 282 70q142 0 211.5 -81.5t69.5 -232.5v-579zM383 55q168 0 250 207v305h-146 q-148 0 -220 -66.5t-72 -201.5q0 -119 50 -181.5t138 -62.5z" />
<glyph unicode="&#xe5;" horiz-adv-x="903" d="M440 1303q-74 0 -117.5 47.5t-43.5 136.5q0 87 43.5 134.5t117.5 47.5q75 0 119.5 -47.5t44.5 -134.5q0 -89 -44.5 -136.5t-119.5 -47.5zM440 1610q-92 0 -92 -123q0 -125 92 -125q95 0 95 125q0 123 -95 123zM723 197q0 -67 18 -101.5t56 -52.5l-21 -66q-63 18 -95 59.5 t-38 117.5q-95 -177 -272 -177q-126 0 -199.5 88t-73.5 232q0 165 99.5 253.5t281.5 88.5h154v131q0 121 -47.5 181.5t-149.5 60.5q-109 0 -248 -60l-28 68q153 70 282 70q142 0 211.5 -81.5t69.5 -232.5v-579zM383 55q168 0 250 207v305h-146q-148 0 -220 -66.5t-72 -201.5 q0 -119 50 -181.5t138 -62.5z" />
<glyph unicode="&#xe6;" horiz-adv-x="1423" d="M1325 578q0 -44 -4 -84h-592q7 -220 82.5 -327.5t198.5 -107.5q69 0 122.5 25.5t110.5 79.5l47 -55q-66 -66 -133.5 -99t-152.5 -33q-105 0 -185.5 58t-128.5 166q-71 -120 -146.5 -172t-170.5 -52q-126 0 -200.5 88t-74.5 232q0 164 100 253t277 89h158v113 q0 133 -47.5 195.5t-157.5 62.5q-99 0 -238 -60l-24 70q153 70 272 70q117 0 181 -55.5t88 -164.5q92 220 286 220q162 0 247 -132t85 -380zM1233 567v41q0 402 -240 402q-116 0 -187 -110t-77 -333h504zM387 55q82 0 146.5 55t128.5 175q-29 113 -29 239v43h-156 q-136 0 -209 -67.5t-73 -200.5q0 -116 51 -180t141 -64z" />
<glyph unicode="&#xe7;" horiz-adv-x="774" d="M733 92q-102 -106 -231 -115v-116q155 -20 155 -152q0 -75 -50 -119.5t-122 -44.5q-74 0 -133 41l35 58q48 -29 96 -29q42 0 68.5 24.5t26.5 69.5q0 49 -37 72.5t-115 23.5l10 175q-155 18 -241 155.5t-86 392.5q0 272 100.5 417t273.5 145q139 0 244 -105l-47 -59 q-90 84 -195 84q-129 0 -203.5 -117t-74.5 -365q0 -469 276 -469q108 0 203 88z" />
<glyph unicode="&#xe8;" horiz-adv-x="899" d="M649 1378l-33 -51l-323 172l47 82zM801 578q0 -44 -4 -84h-594q16 -435 280 -435q70 0 123 25t111 78l49 -56q-126 -129 -283 -129q-175 0 -274.5 140t-99.5 409q0 273 95 418.5t261 145.5q165 0 250.5 -131t85.5 -381zM711 567v41q0 402 -246 402q-115 0 -185.5 -105.5 t-76.5 -337.5h508z" />
<glyph unicode="&#xe9;" horiz-adv-x="899" d="M631 1499l-326 -172l-33 51l312 203zM801 578q0 -44 -4 -84h-594q16 -435 280 -435q70 0 123 25t111 78l49 -56q-126 -129 -283 -129q-175 0 -274.5 140t-99.5 409q0 273 95 418.5t261 145.5q165 0 250.5 -131t85.5 -381zM711 567v41q0 402 -246 402 q-115 0 -185.5 -105.5t-76.5 -337.5h508z" />
<glyph unicode="&#xea;" horiz-adv-x="899" d="M465 1503l-203 -174l-41 41l215 217h56l217 -217l-43 -41zM801 578q0 -44 -4 -84h-594q16 -435 280 -435q70 0 123 25t111 78l49 -56q-126 -129 -283 -129q-175 0 -274.5 140t-99.5 409q0 273 95 418.5t261 145.5q165 0 250.5 -131t85.5 -381zM711 567v41q0 402 -246 402 q-115 0 -185.5 -105.5t-76.5 -337.5h508z" />
<glyph unicode="&#xeb;" horiz-adv-x="899" d="M309 1364q-29 0 -47 19t-18 49q0 28 18 47.5t47 19.5t47.5 -19.5t18.5 -47.5q0 -29 -18.5 -48.5t-47.5 -19.5zM621 1364q-29 0 -47.5 19.5t-18.5 48.5q0 28 18.5 47.5t47.5 19.5t48 -19.5t19 -47.5q0 -29 -19 -48.5t-48 -19.5zM801 578q0 -44 -4 -84h-594 q16 -435 280 -435q70 0 123 25t111 78l49 -56q-126 -129 -283 -129q-175 0 -274.5 140t-99.5 409q0 273 95 418.5t261 145.5q165 0 250.5 -131t85.5 -381zM711 567v41q0 402 -246 402q-115 0 -185.5 -105.5t-76.5 -337.5h508z" />
<glyph unicode="&#xec;" horiz-adv-x="452" d="M100 1581l310 -203l-33 -51l-324 172zM272 1069v-1069h-92v1069h92z" />
<glyph unicode="&#xed;" horiz-adv-x="452" d="M344 1581l47 -82l-325 -172l-33 51zM272 1069v-1069h-92v1069h92z" />
<glyph unicode="&#xee;" horiz-adv-x="452" d="M23 1329l-41 41l215 217h55l217 -217l-43 -41l-201 174zM272 1069v-1069h-92v1069h92z" />
<glyph unicode="&#xef;" horiz-adv-x="452" d="M70 1499q29 0 47 -19.5t18 -47.5q0 -30 -18 -49t-47 -19t-47.5 19.5t-18.5 48.5q0 28 18.5 47.5t47.5 19.5zM381 1499q29 0 48.5 -19.5t19.5 -47.5q0 -29 -19.5 -48.5t-48.5 -19.5t-47.5 19.5t-18.5 48.5q0 28 18.5 47.5t47.5 19.5zM272 1069v-1069h-92v1069h92z" />
<glyph unicode="&#xf0;" horiz-adv-x="933" d="M539 1358q141 -127 208.5 -310t67.5 -462q0 -299 -95.5 -454t-260.5 -155q-162 0 -256 133.5t-94 364.5q0 131 37.5 238.5t113.5 174t178 66.5q83 0 148 -40t125 -119q-18 163 -70.5 284t-155.5 221l-133 -161l-67 28l145 179q-103 73 -209 100l19 74q110 -27 241 -117 l117 145l59 -43zM459 57q124 0 193 136t69 397q0 65 -2 92q-114 192 -270 192q-118 0 -181 -110.5t-63 -290.5q0 -200 66.5 -308t187.5 -108z" />
<glyph unicode="&#xf1;" horiz-adv-x="980" d="M401 1464q-28 0 -49 -17.5t-45 -57.5l-55 26q63 123 147 123q34 0 70 -22.5t69 -45t60 -22.5q26 0 47.5 20t48.5 66l54 -25q-56 -135 -148 -135q-36 0 -73 22.5t-69.5 45t-56.5 22.5zM569 1090q117 0 179.5 -82.5t62.5 -225.5v-782h-92v770q0 242 -166 242 q-153 0 -281 -240v-772h-92v1069h80l8 -190q60 102 132 156.5t169 54.5z" />
<glyph unicode="&#xf2;" horiz-adv-x="956" d="M354 1581l310 -203l-33 -51l-324 172zM479 1090q176 0 272.5 -138.5t96.5 -412.5q0 -272 -98.5 -417t-272.5 -145t-271 144t-97 411q0 272 98 415t272 143zM479 1010q-274 0 -274 -478q0 -240 70.5 -356.5t201.5 -116.5q275 0 275 480q0 471 -273 471z" />
<glyph unicode="&#xf3;" horiz-adv-x="956" d="M598 1581l47 -82l-326 -172l-32 51zM479 1090q176 0 272.5 -138.5t96.5 -412.5q0 -272 -98.5 -417t-272.5 -145t-271 144t-97 411q0 272 98 415t272 143zM479 1010q-274 0 -274 -478q0 -240 70.5 -356.5t201.5 -116.5q275 0 275 480q0 471 -273 471z" />
<glyph unicode="&#xf4;" horiz-adv-x="956" d="M276 1329l-40 41l215 217h55l217 -217l-43 -41l-201 174zM479 1090q176 0 272.5 -138.5t96.5 -412.5q0 -272 -98.5 -417t-272.5 -145t-271 144t-97 411q0 272 98 415t272 143zM479 1010q-274 0 -274 -478q0 -240 70.5 -356.5t201.5 -116.5q275 0 275 480q0 471 -273 471z " />
<glyph unicode="&#xf5;" horiz-adv-x="956" d="M580 1374q-36 0 -73 22.5t-69.5 45t-56.5 22.5q-28 0 -49 -17.5t-45 -57.5l-56 26q63 123 148 123q34 0 70 -22.5t69 -45t60 -22.5q26 0 47.5 20t48.5 66l53 -25q-56 -135 -147 -135zM479 1090q176 0 272.5 -138.5t96.5 -412.5q0 -272 -98.5 -417t-272.5 -145t-271 144 t-97 411q0 272 98 415t272 143zM479 1010q-274 0 -274 -478q0 -240 70.5 -356.5t201.5 -116.5q275 0 275 480q0 471 -273 471z" />
<glyph unicode="&#xf6;" horiz-adv-x="956" d="M324 1499q29 0 47 -19.5t18 -47.5q0 -30 -18 -49t-47 -19t-47.5 19.5t-18.5 48.5q0 28 18.5 47.5t47.5 19.5zM635 1499q29 0 48 -19.5t19 -47.5q0 -29 -19 -48.5t-48 -19.5t-47.5 19.5t-18.5 48.5q0 28 18.5 47.5t47.5 19.5zM479 1090q176 0 272.5 -138.5t96.5 -412.5 q0 -272 -98.5 -417t-272.5 -145t-271 144t-97 411q0 272 98 415t272 143zM479 1010q-274 0 -274 -478q0 -240 70.5 -356.5t201.5 -116.5q275 0 275 480q0 471 -273 471z" />
<glyph unicode="&#xf7;" horiz-adv-x="825" d="M412 1196q35 0 56 -23.5t21 -56.5t-21 -56.5t-56 -23.5q-34 0 -56 24t-22 56t22 56t56 24zM117 639v80h592v-80h-592zM412 315q35 0 56 -23.5t21 -55.5q0 -33 -21 -56.5t-56 -23.5q-34 0 -56 24t-22 56t22 55.5t56 23.5z" />
<glyph unicode="&#xf8;" horiz-adv-x="956" d="M659 1040q189 -119 189 -501q0 -272 -98.5 -417t-272.5 -145q-50 0 -106 17l-68 -246l-78 21l76 258q-192 122 -192 505q0 272 98 415t272 143q57 0 109 -15l69 246l76 -21zM203 532q0 -332 131 -430l233 893q-41 15 -88 15q-276 0 -276 -478zM477 57q277 0 277 482 q0 328 -127 426l-236 -893q41 -15 86 -15z" />
<glyph unicode="&#xf9;" d="M356 1581l310 -203l-33 -51l-324 172zM793 1069v-1069h-78l-6 186q-107 -209 -285 -209q-117 0 -185.5 80t-68.5 215v797h92v-788q0 -111 45.5 -167.5t128.5 -56.5q159 0 264 230v782h93z" />
<glyph unicode="&#xfa;" d="M600 1581l47 -82l-325 -172l-33 51zM793 1069v-1069h-78l-6 186q-107 -209 -285 -209q-117 0 -185.5 80t-68.5 215v797h92v-788q0 -111 45.5 -167.5t128.5 -56.5q159 0 264 230v782h93z" />
<glyph unicode="&#xfb;" d="M279 1329l-41 41l215 217h55l217 -217l-43 -41l-201 174zM793 1069v-1069h-78l-6 186q-107 -209 -285 -209q-117 0 -185.5 80t-68.5 215v797h92v-788q0 -111 45.5 -167.5t128.5 -56.5q159 0 264 230v782h93z" />
<glyph unicode="&#xfc;" d="M326 1499q29 0 47 -19.5t18 -47.5q0 -30 -18 -49t-47 -19t-47.5 19.5t-18.5 48.5q0 28 18.5 47.5t47.5 19.5zM637 1499q29 0 48.5 -19.5t19.5 -47.5q0 -29 -19.5 -48.5t-48.5 -19.5t-47.5 19.5t-18.5 48.5q0 28 18.5 47.5t47.5 19.5zM793 1069v-1069h-78l-6 186 q-107 -209 -285 -209q-117 0 -185.5 80t-68.5 215v797h92v-788q0 -111 45.5 -167.5t128.5 -56.5q159 0 264 230v782h93z" />
<glyph unicode="&#xfd;" horiz-adv-x="796" d="M520 1581l47 -82l-325 -172l-33 51zM762 1069l-303 -1073q-52 -184 -126 -275.5t-224 -132.5l-13 72q66 21 109.5 48t75 70.5t52 92t44.5 129.5h-35l-307 1069h96l272 -997l265 997h94z" />
<glyph unicode="&#xfe;" horiz-adv-x="966" d="M539 1090q155 0 237 -137.5t82 -411.5q0 -272 -88 -418t-246 -146q-157 0 -252 154v-528l-92 -17v1919l92 13v-598q103 170 267 170zM512 59q248 0 248 482q0 243 -59 356t-175 113q-79 0 -139 -48t-115 -137v-596q100 -170 240 -170z" />
<glyph unicode="&#xff;" horiz-adv-x="796" d="M246 1499q29 0 47 -19.5t18 -47.5q0 -30 -18 -49t-47 -19t-47.5 19.5t-18.5 48.5q0 28 18.5 47.5t47.5 19.5zM557 1499q29 0 48.5 -19.5t19.5 -47.5q0 -29 -19.5 -48.5t-48.5 -19.5t-47 19t-18 49q0 28 18 47.5t47 19.5zM762 1069l-303 -1073q-52 -184 -126 -275.5 t-224 -132.5l-13 72q66 21 109.5 48t75 70.5t52 92t44.5 129.5h-35l-307 1069h96l272 -997l265 997h94z" />
<glyph unicode="&#x152;" horiz-adv-x="1454" d="M1382 82v-82h-698q-61 -23 -121 -23q-200 0 -324 189t-124 530q0 342 124.5 533.5t323.5 191.5q68 0 121 -20h688l-12 -84h-547q189 -156 201 -545h282v-84h-280q-6 -442 -209 -606h575zM215 696q0 -310 96.5 -472.5t253.5 -162.5q164 0 258.5 164.5t94.5 487.5 q0 307 -96 465.5t-257 158.5q-159 0 -254.5 -162.5t-95.5 -478.5z" />
<glyph unicode="&#x153;" horiz-adv-x="1542" d="M1444 578q0 -44 -4 -84h-592q9 -220 82.5 -327.5t193.5 -107.5q70 0 124.5 25.5t113.5 79.5l45 -55q-129 -132 -283 -132q-118 0 -199.5 73.5t-125.5 207.5q-46 -133 -127 -207t-195 -74q-173 0 -270.5 144.5t-97.5 410.5q0 270 98.5 414t271.5 144q116 0 198 -71.5 t124 -203.5q44 131 122 203t189 72q161 0 246.5 -134t85.5 -378zM1354 567v41q0 193 -61 298.5t-183 105.5q-113 0 -185.5 -111.5t-78.5 -333.5h508zM477 59q131 0 203 123t72 357q0 230 -71.5 350.5t-201.5 120.5q-274 0 -274 -478q0 -240 70.5 -356.5t201.5 -116.5z" />
<glyph unicode="&#x178;" horiz-adv-x="872" d="M291 1757q29 0 47 -19.5t18 -47.5q0 -30 -18 -49t-47 -19t-47.5 19.5t-18.5 48.5q0 28 18.5 47.5t47.5 19.5zM602 1757q29 0 48.5 -19.5t19.5 -47.5q0 -29 -19.5 -48.5t-48.5 -19.5t-47 19t-18 49q0 28 18 47.5t47 19.5zM848 1401l-363 -850v-551h-94v549l-366 852h100 l315 -764l310 764h98z" />
<glyph unicode="&#x2c6;" horiz-adv-x="610" d="M113 1329l-41 41l215 217h55l217 -217l-43 -41l-201 174z" />
<glyph unicode="&#x2dc;" horiz-adv-x="618" d="M410 1374q-36 0 -73 22.5t-69.5 45t-56.5 22.5q-28 0 -49 -17.5t-45 -57.5l-56 26q63 123 148 123q34 0 70 -22.5t69 -45t60 -22.5q26 0 47.5 20t48.5 66l53 -25q-56 -135 -147 -135z" />
<glyph unicode="&#x2000;" horiz-adv-x="963" />
<glyph unicode="&#x2001;" horiz-adv-x="1927" />
<glyph unicode="&#x2002;" horiz-adv-x="963" />
<glyph unicode="&#x2003;" horiz-adv-x="1927" />
<glyph unicode="&#x2004;" horiz-adv-x="642" />
<glyph unicode="&#x2005;" horiz-adv-x="481" />
<glyph unicode="&#x2006;" horiz-adv-x="321" />
<glyph unicode="&#x2007;" horiz-adv-x="321" />
<glyph unicode="&#x2008;" horiz-adv-x="240" />
<glyph unicode="&#x2009;" horiz-adv-x="385" />
<glyph unicode="&#x200a;" horiz-adv-x="107" />
<glyph unicode="&#x2010;" horiz-adv-x="675" d="M117 600v82h442v-82h-442z" />
<glyph unicode="&#x2011;" horiz-adv-x="675" d="M117 600v82h442v-82h-442z" />
<glyph unicode="&#x2012;" horiz-adv-x="675" d="M117 600v82h442v-82h-442z" />
<glyph unicode="&#x2013;" horiz-adv-x="880" d="M72 600v82h735v-82h-735z" />
<glyph unicode="&#x2014;" horiz-adv-x="1318" d="M72 602v80h1175v-80h-1175z" />
<glyph unicode="&#x2018;" horiz-adv-x="387" d="M190 1110q-34 0 -52.5 22t-18.5 54q0 26 24 86l90 239h60l-68 -262q37 -21 37 -63q0 -32 -19.5 -54t-52.5 -22z" />
<glyph unicode="&#x2019;" horiz-adv-x="387" d="M197 1509q34 0 52.5 -21.5t18.5 -53.5q0 -26 -24 -86l-90 -240h-60l68 262q-37 21 -37 64q0 32 19.5 53.5t52.5 21.5z" />
<glyph unicode="&#x201a;" horiz-adv-x="387" d="M197 129q34 0 52.5 -22t18.5 -54q0 -26 -24 -86l-90 -239h-60l68 262q-37 21 -37 63q0 32 19.5 54t52.5 22z" />
<glyph unicode="&#x201c;" horiz-adv-x="679" d="M190 1110q-34 0 -52.5 22t-18.5 54q0 26 24 86l90 239h60l-68 -262q37 -21 37 -63q0 -32 -19.5 -54t-52.5 -22zM483 1110q-34 0 -52.5 22t-18.5 54q0 26 24 86l90 239h60l-68 -262q37 -21 37 -63q0 -32 -19.5 -54t-52.5 -22z" />
<glyph unicode="&#x201d;" horiz-adv-x="679" d="M197 1509q34 0 52.5 -21.5t18.5 -53.5q0 -26 -24 -86l-90 -240h-60l68 262q-37 21 -37 64q0 32 19.5 53.5t52.5 21.5zM489 1509q34 0 53 -21.5t19 -53.5q0 -26 -24 -86l-91 -240h-59l68 262q-37 21 -37 64q0 32 19 53.5t52 21.5z" />
<glyph unicode="&#x201e;" horiz-adv-x="679" d="M197 129q34 0 52.5 -22t18.5 -54q0 -26 -24 -86l-90 -239h-60l68 262q-37 21 -37 63q0 32 19.5 54t52.5 22zM489 129q34 0 53 -22t19 -54q0 -26 -24 -86l-91 -239h-59l68 262q-37 21 -37 63q0 32 19 54t52 22z" />
<glyph unicode="&#x2022;" horiz-adv-x="499" d="M250 834q55 0 88 -35t33 -88q0 -52 -33.5 -86.5t-87.5 -34.5q-52 0 -85.5 34.5t-33.5 86.5q0 53 33.5 88t85.5 35z" />
<glyph unicode="&#x2026;" horiz-adv-x="1097" d="M182 137q35 0 56.5 -24t21.5 -56t-21.5 -56t-56.5 -24q-34 0 -56 24t-22 56t22 56t56 24zM549 137q35 0 56.5 -24t21.5 -56t-21.5 -56t-56.5 -24q-34 0 -56 24t-22 56t22 56t56 24zM913 137q35 0 56.5 -24t21.5 -56t-21.5 -56t-56.5 -24q-34 0 -55.5 24t-21.5 56t21.5 56 t55.5 24z" />
<glyph unicode="&#x202f;" horiz-adv-x="385" />
<glyph unicode="&#x2039;" horiz-adv-x="610" d="M412 1053l59 -39l-238 -424l238 -424l-59 -37l-271 428v64z" />
<glyph unicode="&#x203a;" horiz-adv-x="610" d="M197 1053l274 -432v-64l-274 -428l-56 37l238 424l-238 424z" />
<glyph unicode="&#x205f;" horiz-adv-x="481" />
<glyph unicode="&#x20ac;" horiz-adv-x="960" d="M616 1300q-122 0 -205 -103.5t-114 -322.5h463l-19 -75h-450v-221h418l-15 -74h-401q22 -235 105 -339t223 -104q69 0 119.5 20.5t113.5 63.5v-86q-117 -82 -246 -82q-171 0 -275.5 129t-133.5 398h-136l15 74h119v221h-134l15 75h123q36 251 146 379.5t269 128.5 q149 0 281 -108l-39 -70q-65 53 -119 74.5t-123 21.5z" />
<glyph unicode="&#x2122;" horiz-adv-x="1447" d="M588 1401l-15 -72h-208v-715h-78v715h-217v72h518zM1266 1401l32 -787h-75l-17 394q-5 222 -2 299h-2l-190 -602h-70l-192 610h-2q0 -166 -7 -307l-14 -394h-76l33 787h107l186 -608l188 608h101z" />
<glyph unicode="&#x25fc;" horiz-adv-x="1064" d="M0 1065h1065v-1065h-1065v1065z" />
<glyph unicode="&#xfb03;" horiz-adv-x="1423" d="M756 1069h487v-1069h-92v991h-395v-991h-92v991h-385v-991h-93v991h-145v78h145v186q0 110 68.5 176t189.5 66q129 0 265 -61q63 82 202 82q129 0 252 -78l-35 -66q-111 62 -213 62q-81 0 -120 -36.5t-39 -133.5v-197zM664 1069v205q0 54 12 94q-106 49 -225 49 q-89 0 -130.5 -40t-41.5 -128v-180h385z" />
<glyph unicode="&#xfb04;" horiz-adv-x="1460" d="M1382 72l25 -68q-52 -27 -98 -27q-69 0 -111.5 45t-42.5 125v1246q-119 45 -227 45q-89 0 -130.5 -40t-41.5 -128v-201h231l-12 -78h-219v-991h-92v991h-385v-991h-93v991h-145v78h145v186q0 110 68.5 176t189.5 66q131 0 271 -63q68 84 207 84q106 0 235 -50l90 11 v-1329q0 -44 19 -68.5t55 -24.5q27 0 61 15zM664 1069v207q0 51 14 92q-106 49 -227 49q-89 0 -130.5 -40t-41.5 -128v-180h385z" />
</font>
</defs>
</svg>
