<?xml version="1.0" standalone="no"?>
<!DOCTYPE svg PUBLIC "-//W3C//DTD SVG 1.1//EN" "http://www.w3.org/Graphics/SVG/1.1/DTD/svg11.dtd" >
<svg xmlns="http://www.w3.org/2000/svg" xmlns:xlink="http://www.w3.org/1999/xlink" version="1.1">
<metadata></metadata>
<defs>
<font id="fira_sans_compressedthin" horiz-adv-x="1157" >
<font-face units-per-em="2048" ascent="1638" descent="-410" />
<missing-glyph horiz-adv-x="493" />
<glyph unicode="&#xfb01;" horiz-adv-x="925" d="M420 1509q119 0 237 -77l-20 -35q-110 69 -217 69q-88 0 -131 -42t-43 -152v-209h483v-1063h-45v1022h-438v-1022h-45v1022h-150v41h150v219q0 227 219 227z" />
<glyph unicode="&#xfb02;" horiz-adv-x="966" d="M881 35l14 -35q-46 -20 -82 -20q-58 0 -92.5 38t-34.5 107v1286q-131 55 -250 55q-96 0 -143 -46t-47 -142v-215h243l-6 -41h-237v-1022h-45v1022h-150v41h150v221q0 106 62 165.5t171 59.5q114 0 254 -57l43 6v-1333q0 -50 22 -77.5t64 -27.5q27 0 64 15z" />
<glyph horiz-adv-x="0" />
<glyph horiz-adv-x="682" />
<glyph unicode="&#xd;" horiz-adv-x="493" />
<glyph unicode=" "  horiz-adv-x="493" />
<glyph unicode="&#x09;" horiz-adv-x="493" />
<glyph unicode="&#xa0;" horiz-adv-x="493" />
<glyph unicode="!" horiz-adv-x="442" d="M244 1395l-2 -981h-41l-2 981h45zM221 76q21 0 34 -14t13 -33q0 -18 -13 -31.5t-34 -13.5t-34 13.5t-13 31.5q0 19 13 33t34 14z" />
<glyph unicode="&#x22;" horiz-adv-x="624" d="M154 903l-4 492h45l-7 -492h-34zM436 903l-4 492h45l-6 -492h-35z" />
<glyph unicode="#" horiz-adv-x="821" d="M797 940h-133l-66 -489h137v-41h-141l-55 -410h-43l53 410h-348l-54 -410h-43l54 410h-133v41h139l63 489h-141v41h147l50 375h43l-50 -375h349l49 375h45l-49 -375h127v-41zM555 451l63 489h-348l-63 -489h348z" />
<glyph unicode="$" horiz-adv-x="880" d="M768 360q0 -155 -87.5 -261.5t-225.5 -116.5v-281h-41v279q-102 1 -179.5 42t-146.5 119l29 29q69 -74 138.5 -112t166.5 -38q135 0 218 95t83 243q0 138 -64 214t-223 139q-170 66 -238.5 144t-68.5 206q0 124 80.5 215t206.5 98v287h41v-287q88 -4 151.5 -38.5 t124.5 -100.5l-28 -29q-63 65 -124.5 95t-144.5 30q-116 0 -188 -77.5t-72 -192.5q0 -117 60.5 -185t216.5 -128q167 -64 241 -150t74 -238z" />
<glyph unicode="%" horiz-adv-x="1308" d="M1030 1423l37 -18l-774 -1436l-37 19zM344 1378q106 0 167.5 -82t61.5 -233q0 -153 -60.5 -238.5t-168.5 -85.5q-104 0 -166.5 84t-62.5 234q0 154 60.5 237.5t168.5 83.5zM344 1339q-91 0 -137.5 -74.5t-46.5 -207.5q0 -129 46.5 -204t137.5 -75q92 0 138 75.5t46 209.5 q0 130 -46.5 203t-137.5 73zM965 618q105 0 167 -82t62 -233q0 -153 -60.5 -238t-168.5 -85q-106 0 -168 83.5t-62 233.5q0 154 61 237.5t169 83.5zM965 580q-94 0 -140.5 -75t-46.5 -208q0 -130 46.5 -204.5t140.5 -74.5q91 0 137.5 76t46.5 209q0 130 -46.5 203.5 t-137.5 73.5z" />
<glyph unicode="&#x26;" horiz-adv-x="1204" d="M518 1417q115 0 183.5 -80.5t68.5 -214.5q0 -81 -33.5 -147.5t-88.5 -117.5t-152 -118l391 -452q80 193 119 434l43 -8q-41 -249 -134 -455l215 -248l-32 -24l-205 233q-68 -114 -158.5 -176.5t-218.5 -62.5q-145 0 -239.5 97.5t-94.5 260.5q0 135 61 228.5t187 181.5 q-99 115 -136.5 188.5t-37.5 177.5q0 137 73 220t189 83zM518 1376q-98 0 -157.5 -71.5t-59.5 -188.5q0 -89 31.5 -155t134.5 -191q136 90 197 168t61 184q0 120 -57 187t-150 67zM459 719q-116 -79 -173 -168.5t-57 -212.5q0 -142 80 -228.5t207 -86.5q118 0 199.5 56.5 t146.5 168.5z" />
<glyph unicode="'" horiz-adv-x="342" d="M154 903l-4 492h45l-7 -492h-34z" />
<glyph unicode="(" horiz-adv-x="544" d="M403 1698l31 -19q-47 -85 -73.5 -134.5t-64 -129.5t-58 -146.5t-41.5 -154.5t-30 -186.5t-9 -210.5q0 -113 9 -211.5t30 -186.5t41.5 -154.5t58 -146.5t63.5 -129.5t74 -134.5l-31 -18q-57 97 -92 161.5t-77.5 163t-65.5 188t-39 211t-16 257.5t16 257.5t39 211t65.5 188 t77.5 163t92 161.5z" />
<glyph unicode=")" horiz-adv-x="544" d="M141 1698q58 -98 92.5 -162t77 -163t65.5 -188t39.5 -210.5t16.5 -257.5t-16.5 -257.5t-39.5 -210.5t-65.5 -188t-77 -163t-92.5 -162l-30 18q57 101 88 161t72.5 159t63 184.5t37 205t15.5 253.5q0 113 -9 211.5t-30 186.5t-41.5 154t-58.5 146.5t-63.5 129.5t-73.5 134 z" />
<glyph unicode="*" horiz-adv-x="747" d="M657 1235l-258 -94l162 -258l-35 -23l-151 258l-154 -258l-35 23l162 256l-258 96l16 39l250 -105l-4 330h43l-2 -328l248 103z" />
<glyph unicode="+" horiz-adv-x="815" d="M432 1010v-312h254v-43h-254v-311h-45v311h-258v43h258v312h45z" />
<glyph unicode="," horiz-adv-x="321" d="M166 76q22 0 34.5 -12.5t12.5 -32.5q0 -23 -18 -68l-78 -229h-33l66 252q-31 14 -31 43q0 21 14 34t33 13z" />
<glyph unicode="-" horiz-adv-x="671" d="M129 618v44h414v-44h-414z" />
<glyph unicode="." horiz-adv-x="309" d="M156 76q21 0 33 -13.5t12 -33.5q0 -18 -12 -31.5t-33 -13.5t-34 13.5t-13 31.5q0 19 13 33t34 14z" />
<glyph unicode="/" horiz-adv-x="872" d="M610 1634l41 -10l-391 -1819l-41 11z" />
<glyph unicode="0" horiz-adv-x="931" d="M467 1378q164 0 246 -170.5t82 -531.5q0 -357 -82 -526.5t-246 -169.5q-165 0 -248.5 170.5t-83.5 529.5q0 358 83.5 528t248.5 170zM467 1335q-141 0 -213 -157.5t-72 -497.5q0 -341 71.5 -499t213.5 -158q141 0 212 156.5t71 496.5q0 343 -70.5 501t-212.5 158z" />
<glyph unicode="1" horiz-adv-x="665" d="M434 1354v-1354h-45v1298l-287 -223l-24 35l319 244h37z" />
<glyph unicode="2" horiz-adv-x="761" d="M352 1378q131 0 207 -91t76 -236q0 -59 -8.5 -113.5t-23 -106t-48 -117t-67 -124t-97.5 -151.5t-123.5 -175.5t-158.5 -218.5h553l-9 -45h-598v43q118 160 190 260.5t138.5 201t101 165t61.5 133.5t35.5 125.5t8.5 122.5q0 131 -64 207.5t-174 76.5q-85 0 -150 -41.5 t-122 -122.5l-33 23q66 94 138.5 139t166.5 45z" />
<glyph unicode="3" horiz-adv-x="800" d="M365 1378q132 0 209 -90t77 -241q0 -143 -67 -223.5t-178 -100.5q124 -10 200 -96t76 -250q0 -180 -89 -288.5t-235 -108.5q-102 0 -174 40.5t-137 129.5l31 22q64 -83 127 -117.5t151 -34.5q130 0 205.5 97t75.5 258q0 164 -81 244.5t-220 80.5h-66l4 41h60 q52 0 99.5 18.5t87 54t63.5 96t24 137.5q0 135 -65 212.5t-178 77.5q-74 0 -136 -31t-123 -100l-28 23q123 149 287 149z" />
<glyph unicode="4" horiz-adv-x="847" d="M782 424v-41h-155v-383h-43v383h-500v37l346 958l39 -14l-338 -940h453l6 432h37v-432h155z" />
<glyph unicode="5" horiz-adv-x="798" d="M666 1354l-9 -41h-469v-543q91 80 207 80q142 0 223.5 -108.5t81.5 -303.5q0 -208 -88.5 -333t-242.5 -125q-179 0 -297 153l32 27q53 -69 117 -103t150 -34q133 0 208.5 111t75.5 304q0 182 -70.5 275.5t-193.5 93.5q-60 0 -108.5 -20t-102.5 -62h-35v629h521z" />
<glyph unicode="6" horiz-adv-x="878" d="M485 874q129 0 208 -104.5t79 -314.5q0 -233 -81 -354t-220 -121q-90 0 -156 45t-104.5 128.5t-57 192t-18.5 244.5q0 376 101 582t282 206q101 0 189 -75l-27 -33q-71 65 -164 65q-156 0 -243.5 -185.5t-92.5 -508.5q123 233 305 233zM471 23q125 0 190.5 112t65.5 318 q0 191 -66 284.5t-176 93.5q-182 0 -305 -260q7 -548 291 -548z" />
<glyph unicode="7" horiz-adv-x="729" d="M657 1354v-37l-458 -1329l-43 16l454 1309h-547v41h594z" />
<glyph unicode="8" horiz-adv-x="894" d="M524 707q143 -70 202.5 -149t59.5 -216q0 -172 -92 -267t-248 -95q-158 0 -247.5 96t-89.5 268q0 278 264 399q-118 58 -166.5 126t-48.5 182q0 156 84 241.5t207 85.5q124 0 207 -82.5t83 -246.5q0 -113 -50 -191t-165 -151zM203 1051q0 -105 44.5 -167t170.5 -124 l71 -37q109 68 157 143.5t48 182.5q0 146 -67.5 217t-177.5 71q-108 0 -177 -72.5t-69 -213.5zM446 23q136 0 215.5 80t79.5 239q0 134 -58.5 205.5t-207.5 142.5l-67 31q-133 -62 -193.5 -151.5t-60.5 -225.5q0 -159 78.5 -240t213.5 -81z" />
<glyph unicode="9" horiz-adv-x="860" d="M420 1378q165 0 241 -140.5t76 -424.5q0 -151 -23 -271t-65 -208.5t-108.5 -158t-145.5 -118t-184 -88.5l-14 37q94 37 166 81t133.5 105.5t102 138.5t65 180t28.5 230q-113 -219 -289 -219q-135 0 -219 110.5t-84 307.5q0 212 88 325t232 113zM403 565q171 0 289 240 q0 272 -63 401t-207 129q-128 0 -200 -99t-72 -298q0 -180 67.5 -276.5t185.5 -96.5z" />
<glyph unicode=":" horiz-adv-x="309" d="M156 926q21 0 33 -13.5t12 -33.5q0 -18 -12 -31.5t-33 -13.5t-34 13.5t-13 31.5q0 19 13 33t34 14zM156 76q21 0 33 -13.5t12 -33.5q0 -18 -12 -31.5t-33 -13.5t-34 13.5t-13 31.5q0 19 13 33t34 14z" />
<glyph unicode=";" horiz-adv-x="321" d="M156 926q21 0 33 -13.5t12 -33.5q0 -18 -12 -31.5t-33 -13.5t-34 13.5t-13 31.5q0 19 13 33t34 14zM166 76q22 0 34.5 -12.5t12.5 -32.5q0 -23 -18 -68l-78 -229h-33l66 252q-31 14 -31 43q0 21 14 34t33 13z" />
<glyph unicode="&#x3c;" horiz-adv-x="829" d="M678 1028l24 -35l-532 -311l532 -320l-22 -36l-553 340v32z" />
<glyph unicode="=" horiz-adv-x="815" d="M129 819v41h557v-41h-557zM129 496v41h557v-41h-557z" />
<glyph unicode="&#x3e;" horiz-adv-x="829" d="M152 1028l550 -330v-32l-552 -340l-23 36l532 320l-532 311z" />
<glyph unicode="?" horiz-adv-x="768" d="M399 1415q121 0 193 -78.5t72 -199.5q0 -61 -17 -109.5t-44 -81.5t-60 -62.5t-66 -59.5t-60 -65t-44 -87t-17 -117v-141h-43v145q0 68 17 123t43.5 90.5t59 66t65.5 59t59.5 59.5t43.5 77t17 103q0 107 -59.5 172t-159.5 65q-82 0 -142.5 -37.5t-119.5 -119.5l-33 24 q62 90 132.5 132t162.5 42zM334 76q21 0 34 -14t13 -33q0 -18 -13 -31.5t-34 -13.5t-33 13.5t-12 31.5q0 20 12 33.5t33 13.5z" />
<glyph unicode="@" horiz-adv-x="1732" d="M895 1417q128 0 236 -40t186.5 -111t133 -169.5t81.5 -215.5t27 -248q0 -136 -16 -242t-42 -173t-62.5 -110t-75 -60t-81.5 -17q-87 0 -137 63t-64 176q-82 -235 -250 -235q-124 0 -200 113t-76 327q0 248 95 375t241 127q106 0 221 -68v-532q0 -307 170 -307 q37 0 69 15.5t62 55t51 101.5t34 161.5t13 227.5q0 160 -40 295t-116 235t-194 156.5t-266 56.5q-197 0 -352 -117t-238.5 -315.5t-83.5 -441.5q0 -209 49.5 -373.5t138.5 -270.5t211.5 -161t270.5 -55q167 0 309 63l12 -39q-155 -67 -321 -67q-156 0 -286.5 58.5 t-226.5 170t-150 284.5t-54 390q0 191 52.5 359.5t145.5 292t228.5 194.5t294.5 71zM834 76q84 0 145 73.5t90 194.5v543q-96 47 -176 47q-133 0 -212 -119.5t-79 -339.5q0 -195 62 -297t170 -102z" />
<glyph unicode="A" horiz-adv-x="962" d="M860 0l-117 416h-526l-117 -416h-43l396 1395h57l397 -1395h-47zM229 459h502l-250 899z" />
<glyph unicode="B" horiz-adv-x="987" d="M575 739q143 -11 227.5 -100.5t84.5 -261.5q0 -186 -106.5 -281.5t-299.5 -95.5h-276v1395h219q197 0 301 -89.5t104 -254.5q0 -129 -65.5 -209t-188.5 -103zM432 1352h-182v-594h237q139 0 216 80.5t77 210.5q0 149 -88 226t-260 77zM483 43q171 0 264 82.5t93 251.5 q0 167 -89 253.5t-255 86.5h-246v-674h233z" />
<glyph unicode="C" horiz-adv-x="907" d="M578 1415q88 0 151.5 -30t122.5 -89l-27 -30q-60 55 -114 80.5t-129 25.5q-88 0 -160 -38.5t-128 -117t-87 -211t-31 -309.5q0 -333 110 -502t289 -169q86 0 144.5 29.5t116.5 84.5l28 -30q-122 -129 -289 -129q-202 0 -324 182.5t-122 533.5q0 184 34.5 324t96 225 t141.5 127.5t177 42.5z" />
<glyph unicode="D" horiz-adv-x="1044" d="M412 1395q67 0 124 -11.5t116 -39t105 -78.5t82.5 -124t56 -182t19.5 -247q0 -140 -20 -253.5t-57 -189.5t-83.5 -130.5t-104 -84t-113 -42.5t-117.5 -13h-215v1395h207zM412 1352h-162v-1309h172q70 0 130 17t119.5 62.5t101 118.5t67.5 193.5t26 278.5q0 115 -14 208.5 t-37.5 159t-59 115t-73.5 79t-85.5 47t-91 24t-93.5 6.5z" />
<glyph unicode="E" horiz-adv-x="833" d="M748 1395l-7 -43h-491v-594h426v-43h-426v-672h510v-43h-555v1395h543z" />
<glyph unicode="F" horiz-adv-x="794" d="M205 0v1395h534l-6 -43h-483v-623h418v-43h-418v-686h-45z" />
<glyph unicode="G" horiz-adv-x="1019" d="M586 1415q87 0 152.5 -28.5t133.5 -92.5l-28 -30q-61 57 -121 82.5t-137 25.5q-63 0 -119.5 -20t-110.5 -69.5t-93 -123.5t-63 -190t-24 -262q0 -179 29.5 -311.5t85 -213t130 -119t169.5 -38.5q145 0 264 84v573h-242l-6 43h293v-641q-145 -104 -305 -104 q-219 0 -342 178.5t-123 548.5q0 150 26 271.5t70 201.5t103.5 134t123.5 77.5t134 23.5z" />
<glyph unicode="H" horiz-adv-x="1110" d="M860 0v715h-610v-715h-45v1395h45v-637h610v637h47v-1395h-47z" />
<glyph unicode="I" horiz-adv-x="454" d="M250 1395v-1395h-45v1395h45z" />
<glyph unicode="J" horiz-adv-x="468" d="M274 1395v-1217q0 -156 -45 -234t-180 -149l-12 33q116 67 154 137.5t38 216.5v1213h45z" />
<glyph unicode="K" horiz-adv-x="886" d="M250 1395v-1395h-45v1395h45zM834 1395l-523 -643l549 -752h-53l-551 752l524 643h54z" />
<glyph unicode="L" horiz-adv-x="768" d="M250 1395v-1350h483l-6 -45h-522v1395h45z" />
<glyph unicode="M" horiz-adv-x="1286" d="M1030 1395l125 -1395h-43l-65 707q-45 519 -54 645l-327 -1180h-45l-332 1180q-4 -58 -24 -289.5t-29 -337.5l-60 -725h-45l123 1395h68l321 -1166l320 1166h67z" />
<glyph unicode="N" horiz-adv-x="1114" d="M909 1395v-1395h-59l-606 1341q6 -210 6 -364v-977h-45v1395h59l606 -1342q-6 252 -6 367v975h45z" />
<glyph unicode="O" d="M580 1415q210 0 330 -180t120 -539q0 -352 -118 -534t-332 -182q-209 0 -330 182t-121 532q0 352 122.5 536.5t328.5 184.5zM580 1372q-187 0 -295.5 -170t-108.5 -508q0 -333 108.5 -501t295.5 -168q194 0 297.5 166.5t103.5 504.5q0 341 -105.5 508.5t-295.5 167.5z " />
<glyph unicode="P" horiz-adv-x="929" d="M375 1395q245 0 358 -98t113 -306q0 -215 -120 -314t-357 -99h-119v-578h-45v1395h170zM373 621q215 0 320.5 86t105.5 282q0 193 -99.5 278t-324.5 85h-125v-731h123z" />
<glyph unicode="Q" d="M700 12q115 -3 204 -34.5t161 -108.5l-35 -35q-85 87 -185 118.5t-265 31.5q-209 0 -330 179.5t-121 530.5t122.5 536t328.5 185q210 0 330 -180.5t120 -538.5q0 -600 -330 -684zM176 694q0 -333 108.5 -501t295.5 -168q194 0 297.5 166.5t103.5 504.5 q0 341 -105.5 508.5t-295.5 167.5q-187 0 -295.5 -170t-108.5 -508z" />
<glyph unicode="R" horiz-adv-x="964" d="M893 0h-51l-318 668q-50 -4 -73 -4h-201v-664h-45v1395h219q219 0 317.5 -93.5t98.5 -269.5q0 -146 -71 -237t-200 -119zM442 707q349 0 349 325q0 78 -18.5 135t-60.5 99.5t-115 64t-177 21.5h-170v-645h192z" />
<glyph unicode="S" horiz-adv-x="901" d="M446 1415q100 0 170.5 -35.5t135.5 -105.5l-29 -29q-64 66 -127.5 96.5t-149.5 30.5q-119 0 -193.5 -80t-74.5 -198q0 -119 63 -189.5t222 -132.5q173 -67 249 -155t76 -244q0 -168 -100 -280.5t-254 -112.5q-109 0 -191 43t-155 124l31 27q68 -73 140.5 -111t172.5 -38 q138 0 223.5 97t85.5 249q0 143 -65.5 220t-229.5 142q-174 69 -244.5 149.5t-70.5 211.5q0 132 88.5 226.5t226.5 94.5z" />
<glyph unicode="T" horiz-adv-x="802" d="M780 1395l-4 -43h-350v-1352h-47v1352h-352v43h753z" />
<glyph unicode="U" horiz-adv-x="1071" d="M887 1395v-1043q0 -78 -20.5 -144t-61.5 -118t-110 -81t-158 -29q-91 0 -160 29t-110.5 81t-62 118t-20.5 144v1043h45v-1039q0 -149 76 -240t232 -91q155 0 230 92t75 239v1039h45z" />
<glyph unicode="V" horiz-adv-x="923" d="M866 1395l-377 -1395h-55l-377 1395h47l359 -1350l358 1350h45z" />
<glyph unicode="W" horiz-adv-x="1347" d="M1278 1395l-266 -1395h-58l-280 1350l-281 -1350h-57l-266 1395h47l248 -1346l280 1346h57l281 -1346l250 1346h45z" />
<glyph unicode="X" horiz-adv-x="819" d="M434 758l361 -758h-50l-339 727l-332 -727h-49l352 756l-311 639h49l291 -609l288 609h47z" />
<glyph unicode="Y" horiz-adv-x="835" d="M801 1395l-357 -842v-553h-47v553l-364 842h51l338 -797l332 797h47z" />
<glyph unicode="Z" horiz-adv-x="856" d="M772 1395v-39l-655 -1311h637l-6 -45h-680v43l657 1309h-594v43h641z" />
<glyph unicode="[" horiz-adv-x="526" d="M391 1630v-37h-180v-1773h180v-37h-223v1847h223z" />
<glyph unicode="\" horiz-adv-x="872" d="M260 1634l391 -1818l-41 -11l-391 1819z" />
<glyph unicode="]" horiz-adv-x="526" d="M358 1630v-1847h-223v37h180v1773h-180v37h223z" />
<glyph unicode="^" horiz-adv-x="884" d="M457 1686l299 -607h-58l-260 551l-260 -551h-55l299 607h35z" />
<glyph unicode="_" horiz-adv-x="882" d="M74 -205v43h737v-43h-737z" />
<glyph unicode="`" horiz-adv-x="440" d="M98 1554l295 -186l-20 -29l-301 172z" />
<glyph unicode="a" horiz-adv-x="888" d="M694 197q0 -84 17.5 -125t60.5 -60l-10 -32q-56 21 -82 66t-27 130q-48 -99 -115 -147.5t-161 -48.5q-125 0 -196.5 86.5t-71.5 228.5q0 161 96 248.5t268 87.5h176v141q0 133 -50 201.5t-163 68.5q-116 0 -248 -63l-16 35q135 69 266 69q256 0 256 -307v-579zM377 23 q184 0 272 223v344h-172q-319 0 -319 -295q0 -129 58 -200.5t161 -71.5z" />
<glyph unicode="b" horiz-adv-x="950" d="M522 1083q150 0 229.5 -135t79.5 -407q0 -275 -83 -418t-240 -143q-160 0 -268 180l-4 -160h-39v1501l45 6v-608q111 184 280 184zM506 23q276 0 276 518q0 501 -264 501q-89 0 -153 -51t-123 -151v-621q111 -196 264 -196z" />
<glyph unicode="c" horiz-adv-x="768" d="M477 1083q69 0 123 -24t105 -78l-27 -29q-87 90 -201 90q-143 0 -226 -127.5t-83 -388.5q0 -256 83 -379.5t224 -123.5q119 0 213 94l25 -27q-102 -110 -236 -110q-165 0 -260.5 137.5t-95.5 408.5q0 274 94.5 415.5t261.5 141.5z" />
<glyph unicode="d" horiz-adv-x="958" d="M719 1507l45 -6v-1501h-41l-4 180q-94 -200 -273 -200q-152 0 -238.5 142t-86.5 406q0 257 91.5 406t250.5 149q160 0 256 -168v592zM446 23q95 0 159.5 58.5t113.5 172.5v596q-94 192 -256 192q-136 0 -216 -134t-79 -380q1 -248 74.5 -376.5t203.5 -128.5z" />
<glyph unicode="e" horiz-adv-x="886" d="M778 582q0 -32 -4 -78h-608q6 -245 87.5 -363t217.5 -118q74 0 129 27t113 83l28 -29q-62 -62 -125 -93t-143 -31q-163 0 -257.5 139.5t-94.5 402.5q0 272 91.5 416.5t248.5 144.5t237 -131t80 -370zM731 543q2 16 2 55q0 211 -67.5 327.5t-204.5 116.5 q-131 0 -211.5 -123.5t-83.5 -375.5h565z" />
<glyph unicode="f" horiz-adv-x="518" d="M418 1466q-81 0 -126.5 -45.5t-45.5 -142.5v-215h246l-9 -41h-237v-1022h-45v1022h-150v41h150v221q0 106 58.5 165.5t154.5 59.5q104 0 196 -63l-20 -35q-86 55 -172 55z" />
<glyph unicode="g" horiz-adv-x="823" d="M782 1126l15 -49q-83 -27 -260 -30q85 -31 130.5 -111.5t45.5 -206.5q0 -162 -79.5 -251t-217.5 -89q-60 0 -127 29q-86 -62 -86 -154q0 -135 184 -135h107q133 0 206.5 -67t73.5 -179q0 -131 -89 -208.5t-263 -77.5q-185 0 -267.5 67t-82.5 217h43q2 -131 71 -186 t236 -55q155 0 230 65t75 176q0 98 -61 152.5t-177 54.5h-106q-112 0 -167.5 46t-55.5 124q0 104 94 174q-148 92 -148 301q0 163 83 256.5t223 93.5q119 0 192 6t104 13.5t74 23.5zM410 1042q-124 0 -190 -82t-66 -227t73.5 -224t188.5 -79q120 0 186 75.5t66 223.5 t-68.5 230.5t-189.5 82.5z" />
<glyph unicode="h" horiz-adv-x="976" d="M557 1083q116 0 175 -81t59 -226v-776h-46v772q0 270 -192 270q-180 0 -311 -262v-780h-45v1501l45 6v-661q131 237 315 237z" />
<glyph unicode="i" horiz-adv-x="436" d="M219 1483q17 0 28 -12t11 -29q0 -16 -11 -27.5t-28 -11.5q-18 0 -29.5 11.5t-11.5 27.5q0 18 11.5 29.5t29.5 11.5zM242 1063v-1063h-45v1063h45z" />
<glyph unicode="j" horiz-adv-x="436" d="M217 1483q17 0 28 -12t11 -29q0 -16 -11 -27.5t-28 -11.5q-18 0 -29.5 11.5t-11.5 27.5q0 18 11.5 29.5t29.5 11.5zM242 1063v-1114q0 -97 -23 -161.5t-61.5 -103t-110.5 -83.5l-18 32q64 40 98.5 77.5t52 95t17.5 145.5v1112h45z" />
<glyph unicode="k" horiz-adv-x="782" d="M242 1507v-1507h-45v1501zM715 1063l-412 -481l453 -582h-54l-450 582l410 481h53z" />
<glyph unicode="l" horiz-adv-x="464" d="M311 -20q-58 0 -91.5 38t-33.5 107v1376l45 6v-1382q0 -105 84 -105q26 0 64 15l14 -35q-46 -20 -82 -20z" />
<glyph unicode="m" horiz-adv-x="1425" d="M1018 1083q105 0 163 -83t58 -224v-776h-45v772q0 128 -45.5 199t-132.5 71q-157 0 -277 -256v-786h-45v774q0 126 -45.5 197t-130.5 71q-156 0 -276 -256v-786h-45v1063h39l4 -209q114 229 278 229q90 0 146.5 -63t70.5 -174q113 237 283 237z" />
<glyph unicode="n" horiz-adv-x="976" d="M557 1083q116 0 175 -81t59 -226v-776h-46v772q0 270 -192 270q-180 0 -311 -262v-780h-45v1063h39l4 -215q62 114 138.5 174.5t178.5 60.5z" />
<glyph unicode="o" horiz-adv-x="942" d="M473 1083q166 0 257 -136t91 -410q0 -277 -92.5 -417t-259.5 -140q-166 0 -257 139.5t-91 410.5q0 274 93.5 413.5t258.5 139.5zM473 1042q-144 0 -225.5 -127t-81.5 -385q0 -254 79 -380.5t224 -126.5q147 0 227 127t80 387q0 255 -79 380t-224 125z" />
<glyph unicode="p" horiz-adv-x="950" d="M520 1083q311 0 311 -542q0 -274 -83.5 -417.5t-237.5 -143.5q-164 0 -268 176v-549l-45 -8v1464h39l4 -166q113 186 280 186zM508 23q134 0 204 130t70 388q0 501 -262 501q-88 0 -153.5 -51.5t-124.5 -150.5v-623q113 -194 266 -194z" />
<glyph unicode="q" horiz-adv-x="958" d="M725 1063h39v-1464l-45 8v567q-97 -194 -266 -194q-154 0 -243 143t-89 405q0 258 90.5 406.5t249.5 148.5q168 0 258 -165zM451 23q91 0 155 56t113 161v612q-95 190 -258 190q-135 0 -214.5 -135t-78.5 -379q1 -245 76.5 -375t206.5 -130z" />
<glyph unicode="r" horiz-adv-x="612" d="M500 1083q42 0 82 -12l-9 -37q-38 10 -73 10q-97 0 -157 -78.5t-101 -246.5v-719h-45v1063h39l2 -244q39 136 101 200t161 64z" />
<glyph unicode="s" horiz-adv-x="774" d="M385 1083q78 0 140.5 -27t121.5 -85l-24 -31q-57 54 -110.5 78t-125.5 24q-97 0 -161 -61t-64 -160q0 -85 52 -136t185 -103q151 -61 212 -126t61 -182q0 -131 -81.5 -212.5t-207.5 -81.5q-96 0 -165.5 35t-131.5 100l27 28q63 -63 123.5 -93t146.5 -30q106 0 175 68 t69 186q0 105 -52.5 160.5t-197.5 114.5q-142 55 -201 115t-59 157q0 114 78 188t190 74z" />
<glyph unicode="t" horiz-adv-x="548" d="M528 72l23 -31q-82 -61 -172 -61t-141.5 58.5t-51.5 160.5v823h-143v41h143v268l45 4v-272h240l-6 -41h-234v-821q0 -84 39 -131t113 -47q76 0 145 49z" />
<glyph unicode="u" horiz-adv-x="968" d="M774 1063v-1063h-41l-2 209q-49 -103 -123 -166t-172 -63q-117 0 -183.5 79t-66.5 217v787h45v-784q0 -124 54 -190t151 -66q96 0 166 64.5t127 184.5v791h45z" />
<glyph unicode="v" horiz-adv-x="774" d="M727 1063l-305 -1063h-55l-322 1063h49l299 -1024l289 1024h45z" />
<glyph unicode="w" horiz-adv-x="1167" d="M1104 1063l-227 -1063h-62l-229 1018l-230 -1018h-61l-232 1063h48l215 -1016l233 1016h55l232 -1018l213 1018h45z" />
<glyph unicode="x" horiz-adv-x="749" d="M399 571l314 -571h-51l-289 545l-287 -545h-49l309 569l-268 494h51l244 -467l250 467h49z" />
<glyph unicode="y" horiz-adv-x="765" d="M721 1063l-303 -1065q-27 -95 -50 -153.5t-58.5 -108t-82.5 -80t-118 -55.5l-9 37q66 24 108.5 52t73.5 75t50 96.5t45 138.5h-17l-315 1063h47l299 -1026l283 1026h47z" />
<glyph unicode="z" horiz-adv-x="692" d="M631 1063v-37l-529 -983h519l-5 -43h-565v37l531 985h-486v41h535z" />
<glyph unicode="{" horiz-adv-x="548" d="M412 1675l-2 -37q-70 0 -102 -41t-32 -131v-579q0 -84 -31.5 -122.5t-99.5 -49.5q68 -11 99.5 -49.5t31.5 -122.5v-580q0 -88 33 -130t103 -42v-37q-87 0 -133 50t-46 161v580q0 79 -32 113t-99 34v45q67 0 99 34t32 114v581q0 111 46 160t133 49z" />
<glyph unicode="|" horiz-adv-x="692" d="M367 1640v-1841h-43v1841h43z" />
<glyph unicode="}" horiz-adv-x="548" d="M137 1675q88 0 133 -48.5t45 -160.5v-581q0 -80 32 -114t99 -34v-45q-67 0 -99 -34t-32 -113v-580q0 -112 -45 -161.5t-133 -49.5v37q71 0 103 41.5t32 130.5v580q0 84 32.5 122.5t101.5 49.5q-68 11 -101 49.5t-33 122.5v579q0 90 -31.5 131t-101.5 41z" />
<glyph unicode="~" horiz-adv-x="772" d="M516 575q-31 0 -67.5 17.5t-64.5 38t-62 38t-60 17.5q-36 0 -60.5 -21t-54.5 -65l-32 18q30 54 64.5 81.5t82.5 27.5q31 0 67.5 -17t64 -37.5t62 -37.5t62.5 -17q34 0 57 20.5t50 63.5l32 -16q-31 -57 -62 -84t-79 -27z" />
<glyph unicode="&#xa1;" horiz-adv-x="442" d="M221 928q21 0 34 -14t13 -33t-13 -33t-34 -14t-34 14t-13 33t13 33t34 14zM242 516l2 -909h-45l2 909h41z" />
<glyph unicode="&#xa2;" horiz-adv-x="768" d="M713 90q-95 -102 -219 -110v-279h-41v279q-155 11 -243.5 148t-88.5 398q0 264 89 406t247 151v301h39v-301q120 -6 209 -102l-27 -29q-87 90 -201 90q-143 0 -226 -127.5t-83 -388.5q0 -256 83 -379.5t224 -123.5q119 0 213 94z" />
<glyph unicode="&#xa3;" horiz-adv-x="843" d="M287 281q0 -99 -29 -150t-98 -88h573l-6 -43h-625v43q78 44 109 92t31 141v426h-107v43h107v304q0 146 69 237.5t193 91.5q146 0 246 -137l-31 -24q-45 61 -95 90.5t-120 29.5q-106 0 -161.5 -78t-55.5 -210v-304h360v-43h-360v-421z" />
<glyph unicode="&#xa4;" horiz-adv-x="942" d="M829 272l-32 -24l-131 158q-79 -76 -197 -76q-114 0 -190 73l-132 -155l-30 24l133 162q-76 102 -76 262q0 161 74 260l-135 162l30 27l131 -158q81 78 195 78q122 0 197 -78l129 158l28 -27l-131 -160q74 -99 74 -262q0 -162 -76 -260zM469 369q120 0 186 85.5t66 241.5 q0 158 -65 244t-187 86q-120 0 -185 -86.5t-65 -243.5t65.5 -242t184.5 -85z" />
<glyph unicode="&#xa5;" horiz-adv-x="819" d="M786 1354l-335 -680h208v-43h-225v-242h225v-45h-225v-344h-45v344h-221v45h221v242h-221v43h205l-340 680h51l328 -676l327 676h47z" />
<glyph unicode="&#xa6;" horiz-adv-x="692" d="M367 1640v-733h-43v733h43zM367 537v-738h-43v738h43z" />
<glyph unicode="&#xa7;" horiz-adv-x="892" d="M594 324q51 -37 73.5 -83t22.5 -114q0 -117 -73.5 -187.5t-190.5 -70.5q-143 0 -256 90l25 33q103 -80 231 -80q101 0 160 59t59 154q0 85 -44 135.5t-173 104.5q-74 31 -118 55.5t-80 58.5t-51 77t-15 103q0 148 143 267q-54 37 -76 82.5t-22 111.5q0 117 72 186.5 t184 69.5q70 0 125 -22t115 -66l-23 -35q-104 82 -217 82q-97 0 -154 -58t-57 -155q0 -86 45 -134.5t184 -106.5q132 -56 189 -122.5t57 -168.5q0 -84 -32.5 -148t-102.5 -118zM209 659q0 -96 46.5 -147.5t184.5 -108.5q66 -27 121 -57q65 50 94 107t29 135 q0 87 -45.5 143.5t-169.5 110.5q-86 37 -131 63q-129 -106 -129 -246z" />
<glyph unicode="&#xa8;" horiz-adv-x="485" d="M113 1458q18 0 28.5 -11.5t10.5 -29.5t-10.5 -28.5t-28.5 -10.5q-17 0 -28 11t-11 28t11 29t28 12zM397 1458q17 0 28 -12t11 -29t-11 -28t-28 -11q-19 0 -30 11t-11 28q0 18 11.5 29.5t29.5 11.5z" />
<glyph unicode="&#xa9;" horiz-adv-x="1357" d="M680 1479q209 0 340 -155.5t131 -432.5q0 -273 -131.5 -430.5t-339.5 -157.5q-209 0 -340 155.5t-131 432.5q0 273 131.5 430.5t339.5 157.5zM680 1436q-192 0 -311 -144t-119 -401q0 -260 118.5 -402.5t311.5 -142.5q191 0 309.5 144.5t118.5 400.5q0 260 -118 402.5 t-310 142.5zM678 1241q87 0 149 -59l-22 -29q-53 47 -127 47q-33 0 -63 -15.5t-57.5 -49t-43.5 -95.5t-16 -145q0 -161 50 -236t134 -75q78 0 139 57l23 -33q-69 -65 -164 -65q-103 0 -165 88t-62 264q0 91 20 160.5t53 108.5t71.5 58t80.5 19z" />
<glyph unicode="&#xaa;" horiz-adv-x="860" d="M428 1059h154v115q0 89 -39.5 134.5t-132.5 45.5q-82 0 -193 -49l-12 38q113 52 209 52q213 0 213 -217v-461q0 -52 14 -78.5t47 -40.5l-10 -31q-45 15 -67 48t-23 92q-79 -140 -223 -140q-98 0 -155.5 65t-57.5 173q0 121 74.5 187.5t201.5 66.5zM369 608q138 0 213 156 v252h-152q-229 0 -229 -211q0 -93 45 -145t123 -52zM152 43h557v-41h-557v41z" />
<glyph unicode="&#xab;" horiz-adv-x="954" d="M416 1030l30 -18l-239 -422l239 -420l-30 -18l-256 423v29zM764 1030l31 -18l-240 -422l240 -420l-31 -18l-256 423v29z" />
<glyph unicode="&#xac;" horiz-adv-x="831" d="M702 678v-272h-47v229h-526v43h573z" />
<glyph unicode="&#xad;" horiz-adv-x="671" d="M129 618v44h414v-44h-414z" />
<glyph unicode="&#xae;" horiz-adv-x="1071" d="M535 1477q167 0 272.5 -120t105.5 -329t-105 -334t-273 -125q-166 0 -271.5 120.5t-105.5 330.5q0 207 105.5 332t271.5 125zM535 608q152 0 245.5 112.5t93.5 307.5t-93.5 303.5t-245.5 108.5q-150 0 -244 -113.5t-94 -306.5q0 -194 94.5 -303t243.5 -109zM686 1151 q0 -123 -104 -150l123 -245h-48l-118 241h-88v-241h-41v551h102q84 0 129 -41t45 -115zM451 1266v-230h86q108 0 108 115t-125 115h-69z" />
<glyph unicode="&#xaf;" horiz-adv-x="479" d="M428 1403h-356v41h356v-41z" />
<glyph unicode="&#xb0;" horiz-adv-x="839" d="M369 842q-100 0 -167 76t-67 212q0 131 67.5 208t166.5 77q105 0 169 -76.5t64 -210.5q0 -133 -64 -209.5t-169 -76.5zM369 883q87 0 136.5 64t49.5 181q0 119 -49.5 183.5t-136.5 64.5q-82 0 -134.5 -65.5t-52.5 -180.5q0 -116 53 -181.5t134 -65.5z" />
<glyph unicode="&#xb1;" horiz-adv-x="815" d="M432 1010v-312h254v-43h-254v-311h-45v311h-258v43h258v312h45zM129 0v41h557v-41h-557z" />
<glyph unicode="&#xb2;" horiz-adv-x="671" d="M332 1511q90 0 140 -58.5t50 -154.5q0 -43 -5 -78t-23 -77t-35 -74t-59.5 -91t-77 -103.5t-105.5 -135.5q-19 -24 -29 -37h355l-8 -43h-396v41q95 120 142 182t93.5 128.5t64 107.5t28 84.5t10.5 93.5q0 83 -38.5 128.5t-106.5 45.5q-99 0 -170 -98l-31 25 q84 114 201 114z" />
<glyph unicode="&#xb3;" horiz-adv-x="671" d="M336 1516q87 0 139.5 -57.5t52.5 -149.5q0 -86 -44 -139t-113 -62q76 -3 126 -59.5t50 -155.5q0 -109 -61 -178.5t-162 -69.5q-121 0 -201 109l29 22q70 -90 172 -90q85 0 132.5 55.5t47.5 149.5q0 99 -46.5 146.5t-127.5 47.5h-43l4 39h35q65 0 112 46.5t47 136.5 q0 78 -40.5 123t-108.5 45q-90 0 -170 -80l-25 26q45 48 90.5 71.5t104.5 23.5z" />
<glyph unicode="&#xb4;" horiz-adv-x="442" d="M365 1554l26 -43l-303 -172l-18 29z" />
<glyph unicode="&#xb5;" horiz-adv-x="978" d="M817 -6l-41 -4q-41 143 -45 260q-110 -270 -297 -270q-158 0 -201 161q9 -153 9 -272v-262l-45 -4v1460h45v-772q0 -139 54.5 -203.5t137.5 -64.5q177 0 291 284v756h45v-715q0 -189 47 -354z" />
<glyph unicode="&#xb6;" d="M561 1395h316v-1788l-46 -8v1755h-233v-1747l-45 -8v1028q-98 3 -170 34.5t-113 85.5t-60.5 120t-19.5 145q0 182 98.5 282.5t272.5 100.5z" />
<glyph unicode="&#xb7;" horiz-adv-x="309" d="M156 715q21 0 33 -13.5t12 -33.5q0 -18 -12 -31.5t-33 -13.5t-34 13.5t-13 31.5q0 19 13 33t34 14z" />
<glyph unicode="&#xb8;" horiz-adv-x="385" d="M184 18l-4 -170q154 -15 154 -137q0 -69 -42.5 -107t-103.5 -38q-62 0 -116 37l20 32q43 -30 96 -30q46 0 74.5 26.5t28.5 79.5t-36.5 78.5t-115.5 26.5l11 202h34z" />
<glyph unicode="&#xb9;" horiz-adv-x="673" d="M410 1499v-840h-43v791l-185 -133l-20 31l213 151h35z" />
<glyph unicode="&#xba;" horiz-adv-x="845" d="M424 1395q137 0 211 -100.5t74 -309.5t-76 -313.5t-211 -104.5t-209 104.5t-74 309.5q0 206 76 310t209 104zM424 1356q-114 0 -177 -91.5t-63 -283.5q0 -190 61.5 -282.5t176.5 -92.5q242 0 242 379q0 371 -240 371zM145 0v41h557v-41h-557z" />
<glyph unicode="&#xbb;" horiz-adv-x="954" d="M188 1030l258 -426v-29l-258 -423l-28 18l237 420l-237 422zM537 1030l258 -426v-29l-258 -423l-29 18l237 420l-237 422z" />
<glyph unicode="&#xbc;" horiz-adv-x="1503" d="M1077 1520l37 -17l-684 -1638l-37 16zM410 555h-43v791l-185 -134l-20 31l213 152h35v-840zM1399 270v-41h-99v-229h-43v229h-319v37l221 590l35 -14l-217 -572h280l7 260h36v-260h99z" />
<glyph unicode="&#xbd;" horiz-adv-x="1505" d="M1077 1520l37 -17l-684 -1638l-37 16zM410 1395v-840h-43v791l-185 -134l-20 31l213 152h35zM1165 852q90 0 140.5 -58.5t50.5 -154.5q0 -43 -5 -78t-23 -77t-35 -74t-59.5 -91t-77 -103.5t-105.5 -135.5q-19 -24 -29 -37h354l-8 -43h-395v41q95 120 142 182t93.5 128.5 t64 107.5t28 84.5t10.5 93.5q0 83 -39 128.5t-107 45.5q-99 0 -170 -98l-30 24q85 115 200 115z" />
<glyph unicode="&#xbe;" horiz-adv-x="1501" d="M1075 1520l37 -17l-684 -1638l-37 16zM547 788q0 -109 -61 -178t-162 -69q-121 0 -201 108l29 23q70 -90 172 -90q85 0 132.5 55t47.5 149q0 99 -47 147t-127 48h-43l4 39h35q65 0 112 46t47 136q0 78 -40.5 123t-108.5 45q-90 0 -170 -80l-25 27q45 48 90.5 71t104.5 23 q87 0 139.5 -57.5t52.5 -149.5q0 -86 -44 -138.5t-113 -61.5q76 -3 126 -60t50 -156zM1397 270v-41h-99v-229h-43v229h-319v37l221 590l35 -14l-217 -572h280l7 260h36v-260h99z" />
<glyph unicode="&#xbf;" horiz-adv-x="768" d="M434 834q-21 0 -34 14t-13 33t13 33t34 14t33 -13.5t12 -33.5t-12 -33.5t-33 -13.5zM369 -403q-119 0 -192 78.5t-73 195.5q0 60 17 108.5t44 81.5t60 62.5t66 60t60 65t44 87t17 117.5v63h43v-70q0 -68 -17 -122t-43.5 -89.5t-59.5 -66t-65.5 -58.5t-59 -59.5t-43.5 -77 t-17 -102.5q0 -103 60.5 -167t158.5 -64q83 0 143.5 37t118.5 120l33 -26q-122 -174 -295 -174z" />
<glyph unicode="&#xc0;" horiz-adv-x="962" d="M641 1591l-16 -28l-301 149l24 43zM860 0l-117 416h-526l-117 -416h-43l396 1395h57l397 -1395h-47zM229 459h502l-250 899z" />
<glyph unicode="&#xc1;" horiz-adv-x="962" d="M639 1712l-303 -147l-14 28l294 164zM860 0l-117 416h-526l-117 -416h-43l396 1395h57l397 -1395h-47zM229 459h502l-250 899z" />
<glyph unicode="&#xc2;" horiz-adv-x="962" d="M479 1733l-192 -162l-23 22l203 187h25l204 -187l-24 -22zM860 0l-117 416h-526l-117 -416h-43l396 1395h57l397 -1395h-47zM229 459h502l-250 899z" />
<glyph unicode="&#xc3;" horiz-adv-x="962" d="M381 1737q-28 0 -49 -16.5t-49 -55.5l-29 16q32 48 61.5 71.5t65.5 23.5t99 -45t98 -45q29 0 51 19t49 64l29 -14q-29 -58 -59.5 -83t-69.5 -25q-34 0 -70.5 22.5t-69 45t-57.5 22.5zM860 0l-117 416h-526l-117 -416h-43l396 1395h57l397 -1395h-47zM229 459h502 l-250 899z" />
<glyph unicode="&#xc4;" horiz-adv-x="962" d="M350 1636q-17 0 -28 11t-11 28t11 29t28 12q18 0 28.5 -11.5t10.5 -29.5t-10.5 -28.5t-28.5 -10.5zM635 1636q-19 0 -30 11t-11 28q0 18 11.5 29.5t29.5 11.5q17 0 28 -12t11 -29t-11 -28t-28 -11zM860 0l-117 416h-526l-117 -416h-43l396 1395h57l397 -1395h-47z M229 459h502l-250 899z" />
<glyph unicode="&#xc5;" horiz-adv-x="962" d="M481 1577q-62 0 -99.5 42.5t-37.5 117.5q0 77 37 119t100 42t100 -42t37 -117q0 -77 -37 -119.5t-100 -42.5zM481 1864q-96 0 -96 -127q0 -125 96 -125q97 0 97 127q0 125 -97 125zM860 0l-117 416h-526l-117 -416h-43l396 1395h57l397 -1395h-47zM229 459h502l-250 899z " />
<glyph unicode="&#xc6;" horiz-adv-x="1275" d="M815 43h387v-43h-424l-86 401h-502l-124 -401h-48l445 1395h651l-6 -43h-571l127 -594h436v-43h-428zM205 446h479l-195 912z" />
<glyph unicode="&#xc7;" horiz-adv-x="907" d="M864 109q-119 -126 -282 -129l-4 -132q153 -15 153 -137q0 -69 -42 -107t-103 -38q-63 0 -117 37l20 32q43 -30 97 -30q45 0 73.5 26.5t28.5 79.5t-36 78.5t-115 26.5l8 166q-189 13 -302.5 194.5t-113.5 519.5q0 184 34.5 324t96 225t141.5 127.5t177 42.5 q88 0 151.5 -30t122.5 -89l-27 -30q-60 55 -114 80.5t-129 25.5q-88 0 -160 -38.5t-128 -117t-87 -211t-31 -309.5q0 -333 110 -502t289 -169q86 0 144.5 29.5t116.5 84.5z" />
<glyph unicode="&#xc8;" horiz-adv-x="833" d="M350 1755l293 -164l-16 -28l-301 149zM748 1395l-7 -43h-491v-594h426v-43h-426v-672h510v-43h-555v1395h543z" />
<glyph unicode="&#xc9;" horiz-adv-x="833" d="M618 1757l23 -45l-303 -147l-14 28zM748 1395l-7 -43h-491v-594h426v-43h-426v-672h510v-43h-555v1395h543z" />
<glyph unicode="&#xca;" horiz-adv-x="833" d="M289 1571l-23 22l203 187h25l204 -187l-24 -22l-193 162zM748 1395l-7 -43h-491v-594h426v-43h-426v-672h510v-43h-555v1395h543z" />
<glyph unicode="&#xcb;" horiz-adv-x="833" d="M352 1716q18 0 28.5 -11.5t10.5 -29.5t-10.5 -28.5t-28.5 -10.5q-17 0 -28 11t-11 28t11 29t28 12zM637 1716q17 0 28 -12t11 -29t-11 -28t-28 -11q-19 0 -30 11t-11 28q0 18 11.5 29.5t29.5 11.5zM748 1395l-7 -43h-491v-594h426v-43h-426v-672h510v-43h-555v1395h543z " />
<glyph unicode="&#xcc;" horiz-adv-x="454" d="M94 1755l293 -164l-16 -28l-301 149zM250 1395v-1395h-45v1395h45z" />
<glyph unicode="&#xcd;" horiz-adv-x="454" d="M362 1757l23 -45l-303 -147l-14 28zM250 1395v-1395h-45v1395h45z" />
<glyph unicode="&#xce;" horiz-adv-x="454" d="M33 1571l-23 22l203 187h25l204 -187l-24 -22l-193 162zM250 1395v-1395h-45v1395h45z" />
<glyph unicode="&#xcf;" horiz-adv-x="454" d="M96 1716q18 0 28.5 -11.5t10.5 -29.5t-10.5 -28.5t-28.5 -10.5q-17 0 -28 11t-11 28t11 29t28 12zM381 1716q17 0 28 -12t11 -29t-11 -28t-28 -11q-19 0 -30 11t-11 28q0 18 11.5 29.5t29.5 11.5zM250 1395v-1395h-45v1395h45z" />
<glyph unicode="&#xd0;" horiz-adv-x="1042" d="M410 1395q67 0 124 -11.5t116 -39t105 -78.5t82.5 -124t56 -182t19.5 -247q0 -140 -20 -253.5t-57 -189.5t-83.5 -130.5t-104 -84t-113 -42.5t-117.5 -13h-215v698h-160v45h160v652h207zM420 43q70 0 130 17t119.5 62.5t101 118.5t67.5 193.5t26 278.5q0 115 -14 208.5 t-37.5 159t-59 115t-73.5 79t-85.5 47t-91 24t-93.5 6.5h-162v-609h317v-45h-317v-655h172z" />
<glyph unicode="&#xd1;" horiz-adv-x="1114" d="M664 1647q-34 0 -70.5 22.5t-69 45t-57.5 22.5q-28 0 -49 -16.5t-49 -55.5l-29 16q32 48 61.5 71.5t65.5 23.5t99 -45t98 -45q29 0 51 19t49 64l29 -14q-29 -58 -59.5 -83t-69.5 -25zM909 1395v-1395h-59l-606 1341q6 -210 6 -364v-977h-45v1395h59l606 -1342 q-6 252 -6 367v975h45z" />
<glyph unicode="&#xd2;" d="M446 1755l293 -164l-16 -28l-301 149zM580 1415q210 0 330 -180t120 -539q0 -352 -118 -534t-332 -182q-209 0 -330 182t-121 532q0 352 122.5 536.5t328.5 184.5zM580 1372q-187 0 -295.5 -170t-108.5 -508q0 -333 108.5 -501t295.5 -168q194 0 297.5 166.5t103.5 504.5 q0 341 -105.5 508.5t-295.5 167.5z" />
<glyph unicode="&#xd3;" d="M715 1757l22 -45l-303 -147l-14 28zM580 1415q210 0 330 -180t120 -539q0 -352 -118 -534t-332 -182q-209 0 -330 182t-121 532q0 352 122.5 536.5t328.5 184.5zM580 1372q-187 0 -295.5 -170t-108.5 -508q0 -333 108.5 -501t295.5 -168q194 0 297.5 166.5t103.5 504.5 q0 341 -105.5 508.5t-295.5 167.5z" />
<glyph unicode="&#xd4;" d="M385 1571l-23 22l203 187h25l205 -187l-25 -22l-192 162zM580 1415q210 0 330 -180t120 -539q0 -352 -118 -534t-332 -182q-209 0 -330 182t-121 532q0 352 122.5 536.5t328.5 184.5zM580 1372q-187 0 -295.5 -170t-108.5 -508q0 -333 108.5 -501t295.5 -168 q194 0 297.5 166.5t103.5 504.5q0 341 -105.5 508.5t-295.5 167.5z" />
<glyph unicode="&#xd5;" d="M676 1647q-34 0 -70.5 22.5t-69 45t-57.5 22.5q-28 0 -49 -16.5t-49 -55.5l-29 16q32 48 61.5 71.5t65.5 23.5t99 -45t98 -45q29 0 51 19t49 64l29 -14q-29 -58 -59.5 -83t-69.5 -25zM580 1415q210 0 330 -180t120 -539q0 -352 -118 -534t-332 -182q-209 0 -330 182 t-121 532q0 352 122.5 536.5t328.5 184.5zM580 1372q-187 0 -295.5 -170t-108.5 -508q0 -333 108.5 -501t295.5 -168q194 0 297.5 166.5t103.5 504.5q0 341 -105.5 508.5t-295.5 167.5z" />
<glyph unicode="&#xd6;" d="M449 1716q18 0 28 -11.5t10 -29.5q0 -39 -38 -39q-17 0 -28 11t-11 28t11 29t28 12zM733 1716q17 0 28 -12t11 -29t-11 -28t-28 -11q-19 0 -30 11t-11 28q0 18 11.5 29.5t29.5 11.5zM580 1415q210 0 330 -180t120 -539q0 -352 -118 -534t-332 -182q-209 0 -330 182 t-121 532q0 352 122.5 536.5t328.5 184.5zM580 1372q-187 0 -295.5 -170t-108.5 -508q0 -333 108.5 -501t295.5 -168q194 0 297.5 166.5t103.5 504.5q0 341 -105.5 508.5t-295.5 167.5z" />
<glyph unicode="&#xd7;" horiz-adv-x="815" d="M625 932l32 -27l-219 -276l219 -275l-34 -26l-215 274l-215 -274l-35 26l219 275l-219 276l35 27l215 -277z" />
<glyph unicode="&#xd8;" d="M762 1372q128 -66 198 -236t70 -440q0 -351 -118 -533.5t-332 -182.5q-84 0 -150 28l-55 -235l-45 14l63 238q-126 69 -195 237.5t-69 431.5q0 350 122.5 535.5t328.5 185.5q80 0 145 -26l59 245l45 -12zM176 694q0 -250 61.5 -406t172.5 -220l307 1280q-64 24 -137 24 q-187 0 -295.5 -170t-108.5 -508zM580 25q194 0 297.5 166.5t103.5 504.5q0 504 -231 635l-306 -1280q59 -26 136 -26z" />
<glyph unicode="&#xd9;" horiz-adv-x="1071" d="M403 1755l293 -164l-16 -28l-301 149zM887 1395v-1043q0 -78 -20.5 -144t-61.5 -118t-110 -81t-158 -29q-91 0 -160 29t-110.5 81t-62 118t-20.5 144v1043h45v-1039q0 -149 76 -240t232 -91q155 0 230 92t75 239v1039h45z" />
<glyph unicode="&#xda;" horiz-adv-x="1071" d="M672 1757l22 -45l-303 -147l-14 28zM887 1395v-1043q0 -78 -20.5 -144t-61.5 -118t-110 -81t-158 -29q-91 0 -160 29t-110.5 81t-62 118t-20.5 144v1043h45v-1039q0 -149 76 -240t232 -91q155 0 230 92t75 239v1039h45z" />
<glyph unicode="&#xdb;" horiz-adv-x="1071" d="M342 1571l-23 22l203 187h25l205 -187l-25 -22l-192 162zM887 1395v-1043q0 -78 -20.5 -144t-61.5 -118t-110 -81t-158 -29q-91 0 -160 29t-110.5 81t-62 118t-20.5 144v1043h45v-1039q0 -149 76 -240t232 -91q155 0 230 92t75 239v1039h45z" />
<glyph unicode="&#xdc;" horiz-adv-x="1071" d="M406 1716q18 0 28 -11.5t10 -29.5q0 -39 -38 -39q-17 0 -28 11t-11 28t11 29t28 12zM690 1716q17 0 28 -12t11 -29t-11 -28t-28 -11q-19 0 -30 11t-11 28q0 18 11.5 29.5t29.5 11.5zM887 1395v-1043q0 -78 -20.5 -144t-61.5 -118t-110 -81t-158 -29q-91 0 -160 29 t-110.5 81t-62 118t-20.5 144v1043h45v-1039q0 -149 76 -240t232 -91q155 0 230 92t75 239v1039h45z" />
<glyph unicode="&#xdd;" horiz-adv-x="835" d="M553 1757l22 -45l-303 -147l-14 28zM801 1395l-357 -842v-553h-47v553l-364 842h51l338 -797l332 797h47z" />
<glyph unicode="&#xde;" horiz-adv-x="929" d="M385 1135q238 0 349.5 -98t111.5 -310q0 -224 -117.5 -325t-349.5 -101h-129v-301h-45v1395h45v-260h135zM379 344q213 0 316.5 87.5t103.5 295.5q0 195 -98 280t-316 85h-135v-748h129z" />
<glyph unicode="&#xdf;" horiz-adv-x="964" d="M489 1509q115 0 184.5 -70t69.5 -188q0 -60 -21 -109.5t-50.5 -82.5t-59 -62t-50.5 -64t-21 -73q0 -37 18 -68.5t47 -57.5t63.5 -53.5t69.5 -62t64 -76t47 -103t18 -136.5q0 -146 -66.5 -234.5t-180.5 -88.5q-83 0 -156 43l16 34q59 -34 137 -34q95 0 149 73t54 207 q0 71 -18 130t-46.5 98t-63.5 72t-69.5 60.5t-63 55t-46.5 63.5t-18 78q0 43 20.5 79.5t50 66t59 61.5t50 79t20.5 105q0 103 -56 159t-151 56q-111 0 -179 -79.5t-68 -223.5v-1163h-45v1169q0 155 81.5 247.5t210.5 92.5z" />
<glyph unicode="&#xe0;" horiz-adv-x="888" d="M602 1368l-20 -29l-301 172l26 43zM694 197q0 -84 17.5 -125t60.5 -60l-10 -32q-56 21 -82 66t-27 130q-48 -99 -115 -147.5t-161 -48.5q-125 0 -196.5 86.5t-71.5 228.5q0 161 96 248.5t268 87.5h176v141q0 133 -50 201.5t-163 68.5q-116 0 -248 -63l-16 35 q135 69 266 69q256 0 256 -307v-579zM377 23q184 0 272 223v344h-172q-319 0 -319 -295q0 -129 58 -200.5t161 -71.5z" />
<glyph unicode="&#xe1;" horiz-adv-x="888" d="M584 1511l-303 -172l-19 29l295 186zM694 197q0 -84 17.5 -125t60.5 -60l-10 -32q-56 21 -82 66t-27 130q-48 -99 -115 -147.5t-161 -48.5q-125 0 -196.5 86.5t-71.5 228.5q0 161 96 248.5t268 87.5h176v141q0 133 -50 201.5t-163 68.5q-116 0 -248 -63l-16 35 q135 69 266 69q256 0 256 -307v-579zM377 23q184 0 272 223v344h-172q-319 0 -319 -295q0 -129 58 -200.5t161 -71.5z" />
<glyph unicode="&#xe2;" horiz-adv-x="888" d="M434 1513l-192 -172l-23 21l203 199h27l200 -199l-22 -21zM694 197q0 -84 17.5 -125t60.5 -60l-10 -32q-56 21 -82 66t-27 130q-48 -99 -115 -147.5t-161 -48.5q-125 0 -196.5 86.5t-71.5 228.5q0 161 96 248.5t268 87.5h176v141q0 133 -50 201.5t-163 68.5 q-116 0 -248 -63l-16 35q135 69 266 69q256 0 256 -307v-579zM377 23q184 0 272 223v344h-172q-319 0 -319 -295q0 -129 58 -200.5t161 -71.5z" />
<glyph unicode="&#xe3;" horiz-adv-x="888" d="M338 1479q-28 0 -49 -16.5t-49 -55.5l-29 16q32 48 61.5 71.5t65.5 23.5t99 -45.5t98 -45.5q29 0 51 19t49 65l29 -14q-29 -58 -59.5 -83t-69.5 -25q-34 0 -70.5 22.5t-69 45t-57.5 22.5zM694 197q0 -84 17.5 -125t60.5 -60l-10 -32q-56 21 -82 66t-27 130 q-48 -99 -115 -147.5t-161 -48.5q-125 0 -196.5 86.5t-71.5 228.5q0 161 96 248.5t268 87.5h176v141q0 133 -50 201.5t-163 68.5q-116 0 -248 -63l-16 35q135 69 266 69q256 0 256 -307v-579zM377 23q184 0 272 223v344h-172q-319 0 -319 -295q0 -129 58 -200.5t161 -71.5z " />
<glyph unicode="&#xe4;" horiz-adv-x="888" d="M293 1378q-17 0 -28 11t-11 28t11 29t28 12q18 0 28.5 -11.5t10.5 -29.5t-10.5 -28.5t-28.5 -10.5zM578 1378q-19 0 -30 11t-11 28q0 18 11.5 29.5t29.5 11.5q17 0 27.5 -11.5t10.5 -29.5q0 -17 -10.5 -28t-27.5 -11zM694 197q0 -84 17.5 -125t60.5 -60l-10 -32 q-56 21 -82 66t-27 130q-48 -99 -115 -147.5t-161 -48.5q-125 0 -196.5 86.5t-71.5 228.5q0 161 96 248.5t268 87.5h176v141q0 133 -50 201.5t-163 68.5q-116 0 -248 -63l-16 35q135 69 266 69q256 0 256 -307v-579zM377 23q184 0 272 223v344h-172q-319 0 -319 -295 q0 -129 58 -200.5t161 -71.5z" />
<glyph unicode="&#xe5;" horiz-adv-x="888" d="M436 1319q-62 0 -99.5 42.5t-37.5 117.5q0 77 37 119t100 42t100 -42t37 -117q0 -77 -37 -119.5t-100 -42.5zM436 1606q-96 0 -96 -127q0 -125 96 -125t96 127q0 125 -96 125zM694 197q0 -84 17.5 -125t60.5 -60l-10 -32q-56 21 -82 66t-27 130q-48 -99 -115 -147.5 t-161 -48.5q-125 0 -196.5 86.5t-71.5 228.5q0 161 96 248.5t268 87.5h176v141q0 133 -50 201.5t-163 68.5q-116 0 -248 -63l-16 35q135 69 266 69q256 0 256 -307v-579zM377 23q184 0 272 223v344h-172q-319 0 -319 -295q0 -129 58 -200.5t161 -71.5z" />
<glyph unicode="&#xe6;" horiz-adv-x="1417" d="M1307 582q0 -32 -4 -78h-607q4 -240 86.5 -360.5t218.5 -120.5q73 0 129 27.5t113 84.5l27 -31q-62 -62 -125.5 -93t-145.5 -31q-106 0 -184 61.5t-121 179.5q-71 -129 -146.5 -185t-174.5 -56q-123 0 -193.5 86t-70.5 229q0 161 95.5 248.5t264.5 87.5h180v127 q0 143 -51.5 213.5t-169.5 70.5q-104 0 -240 -65l-12 37q138 69 254 69q129 0 190.5 -71t69.5 -213q40 139 117 211.5t184 72.5q157 0 236.5 -129.5t79.5 -371.5zM1262 543v55q0 214 -67.5 329t-203.5 115q-130 0 -211 -127.5t-84 -371.5h566zM377 23q93 0 162.5 58 t140.5 189q-31 112 -31 252v68h-182q-148 0 -229.5 -75.5t-81.5 -219.5q0 -126 59 -199t162 -73z" />
<glyph unicode="&#xe7;" horiz-adv-x="768" d="M713 90q-100 -107 -228 -110l-4 -132q154 -15 154 -137q0 -69 -42.5 -107t-103.5 -38q-62 0 -116 37l20 32q43 -30 96 -30q46 0 74.5 26.5t28.5 79.5t-36.5 78.5t-115.5 26.5l9 166q-153 11 -240.5 148t-87.5 396q0 274 94.5 415.5t261.5 141.5q69 0 123 -24t105 -78 l-27 -29q-87 90 -201 90q-143 0 -226 -127.5t-83 -388.5q0 -256 83 -379.5t224 -123.5q119 0 213 94z" />
<glyph unicode="&#xe8;" horiz-adv-x="886" d="M627 1368l-21 -29l-301 172l27 43zM778 582q0 -32 -4 -78h-608q6 -245 87.5 -363t217.5 -118q74 0 129 27t113 83l28 -29q-62 -62 -125 -93t-143 -31q-163 0 -257.5 139.5t-94.5 402.5q0 272 91.5 416.5t248.5 144.5t237 -131t80 -370zM731 543q2 16 2 55 q0 211 -67.5 327.5t-204.5 116.5q-131 0 -211.5 -123.5t-83.5 -375.5h565z" />
<glyph unicode="&#xe9;" horiz-adv-x="886" d="M608 1511l-303 -172l-18 29l295 186zM778 582q0 -32 -4 -78h-608q6 -245 87.5 -363t217.5 -118q74 0 129 27t113 83l28 -29q-62 -62 -125 -93t-143 -31q-163 0 -257.5 139.5t-94.5 402.5q0 272 91.5 416.5t248.5 144.5t237 -131t80 -370zM731 543q2 16 2 55 q0 211 -67.5 327.5t-204.5 116.5q-131 0 -211.5 -123.5t-83.5 -375.5h565z" />
<glyph unicode="&#xea;" horiz-adv-x="886" d="M459 1513l-193 -172l-22 21l202 199h27l201 -199l-23 -21zM778 582q0 -32 -4 -78h-608q6 -245 87.5 -363t217.5 -118q74 0 129 27t113 83l28 -29q-62 -62 -125 -93t-143 -31q-163 0 -257.5 139.5t-94.5 402.5q0 272 91.5 416.5t248.5 144.5t237 -131t80 -370zM731 543 q2 16 2 55q0 211 -67.5 327.5t-204.5 116.5q-131 0 -211.5 -123.5t-83.5 -375.5h565z" />
<glyph unicode="&#xeb;" horiz-adv-x="886" d="M317 1378q-17 0 -27.5 11t-10.5 28q0 18 10.5 29.5t27.5 11.5q18 0 28.5 -11.5t10.5 -29.5t-10.5 -28.5t-28.5 -10.5zM602 1378q-19 0 -30 11t-11 28q0 18 11.5 29.5t29.5 11.5q17 0 28 -12t11 -29t-11 -28t-28 -11zM778 582q0 -32 -4 -78h-608q6 -245 87.5 -363 t217.5 -118q74 0 129 27t113 83l28 -29q-62 -62 -125 -93t-143 -31q-163 0 -257.5 139.5t-94.5 402.5q0 272 91.5 416.5t248.5 144.5t237 -131t80 -370zM731 543q2 16 2 55q0 211 -67.5 327.5t-204.5 116.5q-131 0 -211.5 -123.5t-83.5 -375.5h565z" />
<glyph unicode="&#xec;" horiz-adv-x="436" d="M90 1554l295 -186l-20 -29l-302 172zM242 1063v-1063h-45v1063h45z" />
<glyph unicode="&#xed;" horiz-adv-x="436" d="M340 1554l27 -43l-304 -172l-18 29zM242 1063v-1063h-45v1063h45z" />
<glyph unicode="&#xee;" horiz-adv-x="436" d="M25 1341l-23 21l203 199h26l201 -199l-22 -21l-193 172zM242 1063v-1063h-45v1063h45z" />
<glyph unicode="&#xef;" horiz-adv-x="436" d="M76 1458q18 0 28.5 -11.5t10.5 -29.5t-10.5 -28.5t-28.5 -10.5q-17 0 -28 11t-11 28t11 29t28 12zM360 1458q17 0 28 -12t11 -29t-11 -28t-28 -11q-19 0 -30 11t-11 28q0 18 11.5 29.5t29.5 11.5zM242 1063v-1063h-45v1063h45z" />
<glyph unicode="&#xf0;" horiz-adv-x="915" d="M516 1360q135 -120 202.5 -297t67.5 -447q0 -321 -88.5 -478.5t-246.5 -157.5q-156 0 -243 131.5t-87 359.5q0 130 35.5 236t109 171.5t172.5 65.5q170 0 297 -196q-12 192 -70 331.5t-176 253.5l-139 -174l-35 15l146 182q-104 87 -223 114l10 41q130 -36 239 -127 l113 144l31 -23zM451 23q139 0 213.5 148.5t74.5 449.5q0 49 -2 65q-131 217 -297 217q-128 0 -200 -121t-72 -313q0 -211 74 -328.5t209 -117.5z" />
<glyph unicode="&#xf1;" horiz-adv-x="976" d="M399 1479q-28 0 -49 -16.5t-49 -55.5l-29 16q32 48 61.5 71.5t65.5 23.5t99 -45.5t98 -45.5q29 0 51 19t49 65l29 -14q-29 -58 -59.5 -83t-69.5 -25q-34 0 -70.5 22.5t-69 45t-57.5 22.5zM557 1083q116 0 175 -81t59 -226v-776h-46v772q0 270 -192 270q-180 0 -311 -262 v-780h-45v1063h39l4 -215q62 114 138.5 174.5t178.5 60.5z" />
<glyph unicode="&#xf2;" horiz-adv-x="942" d="M342 1554l295 -186l-21 -29l-301 172zM473 1083q166 0 257 -136t91 -410q0 -277 -92.5 -417t-259.5 -140q-166 0 -257 139.5t-91 410.5q0 274 93.5 413.5t258.5 139.5zM473 1042q-144 0 -225.5 -127t-81.5 -385q0 -254 79 -380.5t224 -126.5q147 0 227 127t80 387 q0 255 -79 380t-224 125z" />
<glyph unicode="&#xf3;" horiz-adv-x="942" d="M592 1554l26 -43l-303 -172l-18 29zM473 1083q166 0 257 -136t91 -410q0 -277 -92.5 -417t-259.5 -140q-166 0 -257 139.5t-91 410.5q0 274 93.5 413.5t258.5 139.5zM473 1042q-144 0 -225.5 -127t-81.5 -385q0 -254 79 -380.5t224 -126.5q147 0 227 127t80 387 q0 255 -79 380t-224 125z" />
<glyph unicode="&#xf4;" horiz-adv-x="942" d="M276 1341l-22 21l203 199h26l201 -199l-22 -21l-193 172zM473 1083q166 0 257 -136t91 -410q0 -277 -92.5 -417t-259.5 -140q-166 0 -257 139.5t-91 410.5q0 274 93.5 413.5t258.5 139.5zM473 1042q-144 0 -225.5 -127t-81.5 -385q0 -254 79 -380.5t224 -126.5 q147 0 227 127t80 387q0 255 -79 380t-224 125z" />
<glyph unicode="&#xf5;" horiz-adv-x="942" d="M569 1389q-34 0 -70 22.5t-68.5 45t-57.5 22.5q-28 0 -49.5 -16.5t-49.5 -55.5l-28 16q32 48 61.5 71.5t65.5 23.5t98.5 -45.5t97.5 -45.5q29 0 51.5 19.5t49.5 64.5l28 -14q-29 -58 -59.5 -83t-69.5 -25zM473 1083q166 0 257 -136t91 -410q0 -277 -92.5 -417 t-259.5 -140q-166 0 -257 139.5t-91 410.5q0 274 93.5 413.5t258.5 139.5zM473 1042q-144 0 -225.5 -127t-81.5 -385q0 -254 79 -380.5t224 -126.5q147 0 227 127t80 387q0 255 -79 380t-224 125z" />
<glyph unicode="&#xf6;" horiz-adv-x="942" d="M328 1458q18 0 28.5 -11.5t10.5 -29.5t-10.5 -28.5t-28.5 -10.5q-17 0 -28 11t-11 28t11 29t28 12zM612 1458q17 0 28 -12t11 -29t-11 -28t-28 -11q-19 0 -30 11t-11 28q0 18 11.5 29.5t29.5 11.5zM473 1083q166 0 257 -136t91 -410q0 -277 -92.5 -417t-259.5 -140 q-166 0 -257 139.5t-91 410.5q0 274 93.5 413.5t258.5 139.5zM473 1042q-144 0 -225.5 -127t-81.5 -385q0 -254 79 -380.5t224 -126.5q147 0 227 127t80 387q0 255 -79 380t-224 125z" />
<glyph unicode="&#xf7;" horiz-adv-x="815" d="M408 1147q21 0 33 -13.5t12 -33.5q0 -18 -12 -31.5t-33 -13.5t-34.5 13.5t-13.5 31.5q0 19 13.5 33t34.5 14zM129 657v41h557v-41h-557zM408 299q21 0 33 -13.5t12 -33.5q0 -18 -12 -31.5t-33 -13.5t-34.5 13.5t-13.5 31.5q0 19 13.5 33t34.5 14z" />
<glyph unicode="&#xf8;" horiz-adv-x="942" d="M631 1042q190 -110 190 -505q0 -277 -92.5 -417t-259.5 -140q-63 0 -121 22l-69 -244l-41 11l75 251q-192 112 -192 510q0 274 93.5 413.5t258.5 139.5q65 0 123 -22l68 248l38 -11zM166 530q0 -369 162 -469l256 961q-47 20 -111 20q-144 0 -225.5 -127t-81.5 -385z M469 23q147 0 227 127t80 387q0 363 -160 467l-254 -961q44 -20 107 -20z" />
<glyph unicode="&#xf9;" horiz-adv-x="968" d="M352 1554l295 -186l-20 -29l-301 172zM774 1063v-1063h-41l-2 209q-49 -103 -123 -166t-172 -63q-117 0 -183.5 79t-66.5 217v787h45v-784q0 -124 54 -190t151 -66q96 0 166 64.5t127 184.5v791h45z" />
<glyph unicode="&#xfa;" horiz-adv-x="968" d="M602 1554l27 -43l-303 -172l-19 29zM774 1063v-1063h-41l-2 209q-49 -103 -123 -166t-172 -63q-117 0 -183.5 79t-66.5 217v787h45v-784q0 -124 54 -190t151 -66q96 0 166 64.5t127 184.5v791h45z" />
<glyph unicode="&#xfb;" horiz-adv-x="968" d="M287 1341l-23 21l203 199h27l200 -199l-22 -21l-193 172zM774 1063v-1063h-41l-2 209q-49 -103 -123 -166t-172 -63q-117 0 -183.5 79t-66.5 217v787h45v-784q0 -124 54 -190t151 -66q96 0 166 64.5t127 184.5v791h45z" />
<glyph unicode="&#xfc;" horiz-adv-x="968" d="M338 1458q18 0 28.5 -11.5t10.5 -29.5t-10.5 -28.5t-28.5 -10.5q-17 0 -28 11t-11 28t11 29t28 12zM623 1458q17 0 28 -12t11 -29t-11 -28t-28 -11q-19 0 -30 11t-11 28q0 18 11.5 29.5t29.5 11.5zM774 1063v-1063h-41l-2 209q-49 -103 -123 -166t-172 -63 q-117 0 -183.5 79t-66.5 217v787h45v-784q0 -124 54 -190t151 -66q96 0 166 64.5t127 184.5v791h45z" />
<glyph unicode="&#xfd;" horiz-adv-x="765" d="M508 1554l27 -43l-304 -172l-18 29zM721 1063l-303 -1065q-27 -95 -50 -153.5t-58.5 -108t-82.5 -80t-118 -55.5l-9 37q66 24 108.5 52t73.5 75t50 96.5t45 138.5h-17l-315 1063h47l299 -1026l283 1026h47z" />
<glyph unicode="&#xfe;" horiz-adv-x="950" d="M520 1083q311 0 311 -542q0 -274 -83.5 -417.5t-237.5 -143.5q-164 0 -268 176v-549l-45 -8v1902l45 6v-608q111 184 278 184zM508 23q134 0 204 130t70 388q0 501 -262 501q-88 0 -153.5 -51.5t-124.5 -150.5v-623q113 -194 266 -194z" />
<glyph unicode="&#xff;" horiz-adv-x="765" d="M244 1458q18 0 28.5 -11.5t10.5 -29.5t-10.5 -28.5t-28.5 -10.5q-17 0 -28 11t-11 28t11 29t28 12zM528 1458q17 0 28 -12t11 -29t-11 -28t-28 -11q-19 0 -30 11t-11 28q0 18 11.5 29.5t29.5 11.5zM721 1063l-303 -1065q-27 -95 -50 -153.5t-58.5 -108t-82.5 -80 t-118 -55.5l-9 37q66 24 108.5 52t73.5 75t50 96.5t45 138.5h-17l-315 1063h47l299 -1026l283 1026h47z" />
<glyph unicode="&#x152;" horiz-adv-x="1427" d="M1354 43v-43h-686q-50 -20 -111 -20q-192 0 -310 188.5t-118 525.5t119 529t309 192q68 0 121 -20h663l-6 -43h-581q110 -70 171.5 -221.5t65.5 -372.5h277v-43h-277q0 -265 -63.5 -434t-182.5 -238h609zM176 694q0 -317 105 -493t276 -176q182 0 284.5 178t102.5 518 q0 309 -105 480t-282 171q-169 0 -275 -178.5t-106 -499.5z" />
<glyph unicode="&#x153;" horiz-adv-x="1542" d="M1434 582q0 -32 -4 -78h-609q7 -237 89 -359t216 -122q74 0 129.5 27t114.5 85l27 -31q-64 -62 -127 -93t-144 -31q-125 0 -209 89.5t-118 252.5q-36 -162 -120.5 -252t-207.5 -90q-166 0 -258 141.5t-92 408.5q0 272 94 412.5t258 140.5q126 0 210 -89.5t118 -252.5 q34 161 116 251.5t203 90.5q154 0 234 -132.5t80 -368.5zM471 23q143 0 224 134t81 380q0 242 -80.5 373.5t-222.5 131.5q-143 0 -225 -127.5t-82 -384.5q0 -252 80 -379.5t225 -127.5zM1389 543v55q0 209 -67.5 326.5t-203.5 117.5q-130 0 -212 -127.5t-85 -371.5h568z" />
<glyph unicode="&#x178;" horiz-adv-x="835" d="M287 1716q18 0 28.5 -11.5t10.5 -29.5t-10.5 -28.5t-28.5 -10.5q-17 0 -28 11t-11 28t11 29t28 12zM571 1716q17 0 28 -12t11 -29t-11 -28t-28 -11q-19 0 -30 11t-11 28q0 18 11.5 29.5t29.5 11.5zM801 1395l-357 -842v-553h-47v553l-364 842h51l338 -797l332 797h47z " />
<glyph unicode="&#x2c6;" horiz-adv-x="552" d="M94 1341l-22 21l202 199h27l201 -199l-23 -21l-192 172z" />
<glyph unicode="&#x2dc;" horiz-adv-x="575" d="M385 1389q-34 0 -70.5 22.5t-69 45t-57.5 22.5q-28 0 -49 -16.5t-49 -55.5l-29 16q32 48 61.5 71.5t65.5 23.5t99 -45.5t98 -45.5q29 0 51 19t49 65l29 -14q-29 -58 -59.5 -83t-69.5 -25z" />
<glyph unicode="&#x2000;" horiz-adv-x="949" />
<glyph unicode="&#x2001;" horiz-adv-x="1898" />
<glyph unicode="&#x2002;" horiz-adv-x="949" />
<glyph unicode="&#x2003;" horiz-adv-x="1898" />
<glyph unicode="&#x2004;" horiz-adv-x="632" />
<glyph unicode="&#x2005;" horiz-adv-x="474" />
<glyph unicode="&#x2006;" horiz-adv-x="316" />
<glyph unicode="&#x2007;" horiz-adv-x="316" />
<glyph unicode="&#x2008;" horiz-adv-x="237" />
<glyph unicode="&#x2009;" horiz-adv-x="379" />
<glyph unicode="&#x200a;" horiz-adv-x="105" />
<glyph unicode="&#x2010;" horiz-adv-x="671" d="M129 618v44h414v-44h-414z" />
<glyph unicode="&#x2011;" horiz-adv-x="671" d="M129 618v44h414v-44h-414z" />
<glyph unicode="&#x2012;" horiz-adv-x="671" d="M129 618v44h414v-44h-414z" />
<glyph unicode="&#x2013;" horiz-adv-x="874" d="M82 618v44h711v-44h-711z" />
<glyph unicode="&#x2014;" horiz-adv-x="1304" d="M82 621v41h1143v-41h-1143z" />
<glyph unicode="&#x2018;" horiz-adv-x="382" d="M188 1151q-21 0 -32 12.5t-11 32.5q0 13 17 57l80 230h32l-69 -246q26 -12 26 -41q0 -19 -11.5 -32t-31.5 -13z" />
<glyph unicode="&#x2019;" horiz-adv-x="382" d="M195 1485q21 0 32 -12.5t11 -32.5q0 -14 -17 -58l-80 -229h-32l69 246q-26 12 -26 41q0 19 11.5 32t31.5 13z" />
<glyph unicode="&#x201a;" horiz-adv-x="382" d="M195 78q21 0 32 -12.5t11 -32.5q0 -14 -17 -58l-80 -229h-32l69 246q-26 12 -26 41q0 19 11.5 32t31.5 13z" />
<glyph unicode="&#x201c;" horiz-adv-x="612" d="M188 1194q-21 0 -32 12.5t-11 32.5q0 13 17 57l80 230h32l-69 -246q26 -12 26 -41q0 -19 -11.5 -32t-31.5 -13zM418 1194q-21 0 -32 12.5t-11 32.5q0 16 16 57l80 230h33l-70 -246q27 -12 27 -41q0 -19 -11.5 -32t-31.5 -13z" />
<glyph unicode="&#x201d;" horiz-adv-x="612" d="M195 1485q21 0 32 -12.5t11 -32.5q0 -14 -17 -58l-80 -229h-32l69 246q-26 12 -26 41q0 19 11.5 32t31.5 13zM424 1485q21 0 32 -12.5t11 -32.5q0 -17 -16 -58l-80 -229h-33l70 246q-27 12 -27 41q0 19 11.5 32t31.5 13z" />
<glyph unicode="&#x201e;" horiz-adv-x="612" d="M195 78q21 0 32 -12.5t11 -32.5q0 -14 -17 -58l-80 -229h-32l69 246q-26 12 -26 41q0 19 11.5 32t31.5 13zM424 78q21 0 32 -12.5t11 -32.5q0 -17 -16 -58l-80 -229h-33l70 246q-27 12 -27 41q0 19 11.5 32t31.5 13z" />
<glyph unicode="&#x2022;" horiz-adv-x="436" d="M217 784q31 0 48.5 -19t17.5 -48q0 -28 -17.5 -47t-48.5 -19q-28 0 -46.5 19.5t-18.5 46.5q0 28 18 47.5t47 19.5z" />
<glyph unicode="&#x2026;" horiz-adv-x="929" d="M156 76q21 0 33 -13.5t12 -33.5q0 -18 -12 -31.5t-33 -13.5t-34 13.5t-13 31.5q0 19 13 33t34 14zM465 76q21 0 33 -13.5t12 -33.5q0 -18 -12 -31.5t-33 -13.5t-34 13.5t-13 31.5q0 19 13 33t34 14zM776 76q21 0 33 -13.5t12 -33.5q0 -18 -12 -31.5t-33 -13.5t-34 13.5 t-13 31.5q0 19 13 33t34 14z" />
<glyph unicode="&#x202f;" horiz-adv-x="379" />
<glyph unicode="&#x2039;" horiz-adv-x="606" d="M416 1030l30 -18l-239 -422l239 -420l-30 -18l-256 423v29z" />
<glyph unicode="&#x203a;" horiz-adv-x="606" d="M188 1030l258 -426v-29l-258 -423l-28 18l237 420l-237 422z" />
<glyph unicode="&#x205f;" horiz-adv-x="474" />
<glyph unicode="&#x20ac;" horiz-adv-x="950" d="M610 1335q-137 0 -230 -120t-124 -363h475l-10 -41h-469v-244h432l-8 -43h-422q24 -264 114 -381.5t240 -117.5q68 0 118.5 20.5t109.5 63.5l2 -46q-106 -83 -236 -83q-345 0 -395 544h-129l8 43h119v244h-127l8 41h121q33 258 140 392t263 134q135 0 262 -106l-20 -37 q-66 54 -120.5 77t-121.5 23z" />
<glyph unicode="&#x2122;" horiz-adv-x="1429" d="M567 1395l-8 -39h-217v-738h-41v738h-221v39h487zM1214 1395l37 -777h-41l-20 461q-8 150 -6 258h-2l-213 -626h-39l-215 635h-2q0 -150 -6 -267l-23 -461h-39l35 777h57l211 -639l217 639h49z" />
<glyph unicode="&#x25fc;" horiz-adv-x="1064" d="M0 1065h1065v-1065h-1065v1065z" />
<glyph unicode="&#xfb03;" horiz-adv-x="1394" d="M715 1063h483v-1063h-45v1022h-438v-1022h-45v1022h-424v-1022h-45v1022h-150v41h150v201q0 106 62 165.5t171 59.5q124 0 268 -66q51 86 187 86q119 0 237 -77l-20 -35q-110 69 -217 69q-88 0 -131 -42t-43 -152v-209zM670 1063v219q0 61 16 107q-120 57 -250 57 q-190 0 -190 -189v-194h424z" />
<glyph unicode="&#xfb04;" horiz-adv-x="1435" d="M1350 35l14 -35q-46 -20 -82 -20q-58 0 -92.5 38t-34.5 107v1286q-131 55 -250 55q-96 0 -143 -46t-47 -142v-215h243l-6 -41h-237v-1022h-45v1022h-424v-1022h-45v1022h-150v41h150v201q0 106 62 165.5t171 59.5q121 0 275 -68q60 88 194 88q114 0 254 -57l43 6v-1333 q0 -50 22 -77.5t64 -27.5q26 0 64 15zM670 1063v221q0 61 20 105q-129 57 -254 57q-190 0 -190 -189v-194h424z" />
</font>
</defs>
</svg>
