<?xml version="1.0" standalone="no"?>
<!DOCTYPE svg PUBLIC "-//W3C//DTD SVG 1.1//EN" "http://www.w3.org/Graphics/SVG/1.1/DTD/svg11.dtd" >
<svg xmlns="http://www.w3.org/2000/svg" xmlns:xlink="http://www.w3.org/1999/xlink" version="1.1">
<metadata></metadata>
<defs>
<font id="fira_sans_compressedtwoIt" horiz-adv-x="917" >
<font-face units-per-em="2048" ascent="1638" descent="-410" />
<missing-glyph horiz-adv-x="520" />
<glyph unicode="&#xfb01;" horiz-adv-x="915" d="M780 1059l-147 -1059h-4l147 1055h-472l-152 -1073q-16 -112 -44 -181.5t-66.5 -109.5t-107.5 -82l-2 2q68 41 106 81.5t65.5 109t43.5 180.5l153 1073h-157v4h157l30 207q17 115 77 175t154 60q62 0 108.5 -19t96.5 -59l-4 -2q-49 39 -94.5 57.5t-106.5 18.5 q-92 0 -151 -58.5t-76 -172.5l-30 -207h476z" />
<glyph unicode="&#xfb02;" horiz-adv-x="980" d="M741 -14q40 0 72 16l2 -4q-37 -16 -74 -16q-103 0 -84 129l189 1321q-141 65 -266 65q-100 0 -164.5 -58.5t-81.5 -172.5l-30 -207h251v-4h-251l-152 -1073q-16 -112 -44 -181.5t-66.5 -109.5t-107.5 -82l-2 2q68 41 106 81.5t65.5 109t43.5 180.5l153 1073h-157v4h157 l30 207q17 115 82.5 175t167.5 60q129 0 268 -67h2l-188 -1323q-16 -125 79 -125z" />
<glyph horiz-adv-x="0" />
<glyph horiz-adv-x="682" />
<glyph unicode="&#xd;" horiz-adv-x="520" />
<glyph unicode=" "  horiz-adv-x="520" />
<glyph unicode="&#x09;" horiz-adv-x="520" />
<glyph unicode="&#xa0;" horiz-adv-x="520" />
<glyph unicode="!" horiz-adv-x="430" d="M193 385l139 1008h4l-139 -1008h-4zM141 -8q-14 0 -14 14t14 14q15 0 15 -14t-15 -14z" />
<glyph unicode="&#x22;" horiz-adv-x="608" d="M219 913l66 480h4l-66 -480h-4zM494 913l65 480h4l-65 -480h-4z" />
<glyph unicode="#" horiz-adv-x="804" d="M840 954h-146l-126 -512h141l-4 -4h-138l-108 -438h-4l108 438h-389l-108 -438h-5l109 438h-158l4 4h155l127 512h-151v4h152l98 398h4l-98 -398h388l97 398h5l-98 -398h145v-4zM564 442l126 512h-388l-127 -512h389z" />
<glyph unicode="$" horiz-adv-x="888" d="M594 1370q84 -2 143 -35t109 -92l-2 -4q-50 61 -111.5 94t-148.5 33q-82 0 -148.5 -31t-107 -82t-61.5 -111.5t-21 -123.5q0 -98 54 -161t187 -122q125 -55 185.5 -134t60.5 -198q0 -77 -21.5 -148t-66 -134t-123 -101t-182.5 -38l-39 -277h-4l39 277q-92 1 -166 42 t-123 113l2 4q104 -155 289 -155q104 0 182.5 37.5t122 99.5t65 132.5t21.5 147.5q0 117 -59.5 195t-184.5 133q-132 59 -187.5 123.5t-55.5 163.5q0 64 21.5 125.5t62 112.5t108 82.5t150.5 31.5h6l39 279h4z" />
<glyph unicode="%" horiz-adv-x="1300" d="M1169 1413l-989 -1431h4l990 1431h-5zM383 750q-81 0 -124.5 60.5t-43.5 164.5q0 62 14.5 127t44 127.5t83.5 102.5t124 40q79 0 122.5 -57t43.5 -162q0 -49 -8.5 -101.5t-29 -107t-50 -97t-75.5 -70t-101 -27.5zM383 754q54 0 99.5 27t74.5 69.5t49 96.5t28.5 106 t8.5 100q0 104 -42.5 159.5t-119.5 55.5q-56 0 -102 -26.5t-75 -68.5t-49 -95t-28 -104t-8 -99q0 -103 43 -162t121 -59zM862 -18q-81 0 -124.5 60.5t-43.5 164.5q0 62 14.5 127t44.5 127.5t84 102.5t124 40q78 0 121.5 -57t43.5 -162q0 -49 -8.5 -101.5t-29 -107t-50 -97 t-75.5 -70t-101 -27.5zM862 -14q54 0 99.5 27t74.5 69.5t49 96.5t28.5 106t8.5 100q0 104 -42 159.5t-119 55.5q-69 0 -122.5 -39.5t-82.5 -101.5t-43.5 -126.5t-14.5 -125.5q0 -103 43 -162t121 -59z" />
<glyph unicode="&#x26;" horiz-adv-x="1234" d="M674 1415q90 0 147.5 -63t57.5 -162q0 -136 -74 -229.5t-285 -221.5l344 -501q46 67 84.5 150t57.5 136.5t53 159.5h4q-34 -106 -54 -162.5t-58.5 -137.5t-84.5 -148l162 -236l-4 -2l-162 235q-85 -126 -181 -188.5t-212 -62.5q-129 0 -201.5 81t-72.5 209q0 67 11.5 119 t43 112t97 118.5t165.5 117.5q-121 171 -121 328q0 65 17 125t50 111t89 81.5t127 30.5zM674 1411q-70 0 -125.5 -30.5t-88 -80.5t-49 -109.5t-16.5 -123.5q0 -156 121 -326q149 91 226.5 161.5t104.5 134t27 153.5q0 98 -56 159.5t-144 61.5zM516 737q-102 -59 -167.5 -118 t-97 -118.5t-42 -110.5t-10.5 -118q0 -126 71 -206t199 -80q115 0 209.5 62t181.5 188z" />
<glyph unicode="'" horiz-adv-x="333" d="M219 913l66 480h4l-66 -480h-4z" />
<glyph unicode="(" horiz-adv-x="552" d="M578 1690l2 -2q-116 -166 -192 -300.5t-134.5 -286t-84.5 -313.5t-26 -354q0 -104 12 -196t39.5 -182.5t50 -150t64.5 -159.5l-4 -2q-42 100 -64.5 159.5t-50 150.5t-39.5 183.5t-12 196.5q0 193 26.5 355.5t85 314t135 286.5t192.5 300z" />
<glyph unicode=")" horiz-adv-x="548" d="M299 1690q56 -135 84.5 -213.5t54 -209.5t25.5 -270q0 -190 -26.5 -352.5t-85 -314t-134 -286.5t-190.5 -300l-4 2q115 166 191 301t134 286.5t84.5 312.5t26.5 351q0 105 -12 198t-38.5 183t-49.5 151t-64 159z" />
<glyph unicode="*" horiz-adv-x="743" d="M733 1262v-5l-268 -100l121 -264l-4 -2l-121 264l-195 -264l-4 2l195 264l-242 100l2 5l242 -101l47 328h4l-47 -328z" />
<glyph unicode="+" horiz-adv-x="831" d="M483 999l-45 -319h256v-4h-256l-47 -320h-4l47 320h-258v4h258l45 319h4z" />
<glyph unicode="," horiz-adv-x="225" d="M39 20q14 0 14 -14q0 -6 -6 -18l-90 -211h-6l86 215q-12 3 -12 14q0 14 14 14z" />
<glyph unicode="-" horiz-adv-x="675" d="M160 637v4h387v-4h-387z" />
<glyph unicode="." horiz-adv-x="225" d="M39 -8q-14 0 -14 14t14 14t14 -14t-14 -14z" />
<glyph unicode="/" horiz-adv-x="901" d="M797 1626l4 -2l-643 -1812l-4 2z" />
<glyph unicode="0" horiz-adv-x="948" d="M616 1372q-94 0 -173.5 -64t-133.5 -168t-92 -239t-55 -274t-17 -275q0 -370 226 -370q93 0 172.5 62.5t133.5 165t92.5 235t56.5 272.5t18 278q0 377 -228 377zM616 1368q224 0 224 -373q0 -137 -18 -276t-56.5 -271t-92 -234.5t-132 -164.5t-170.5 -63q-221 0 -221 366 q0 136 17 274t54.5 272.5t90.5 238t132 167.5t172 64z" />
<glyph unicode="1" horiz-adv-x="661" d="M520 1352l-188 -1352h-4l188 1348l-338 -240l-2 4l340 240h4z" />
<glyph unicode="2" horiz-adv-x="778" d="M473 1372q116 0 178 -73.5t64 -194.5q1 -61 -7.5 -110t-38.5 -116.5t-74.5 -136.5t-130.5 -181.5t-190 -237.5t-268 -318h572l-3 -4h-575v4q198 231 317 377.5t204.5 261t123.5 192t52.5 137.5t13.5 132q-2 120 -62.5 192t-175.5 72q-86 0 -156.5 -41.5t-144.5 -124.5 l-4 2q76 84 147 126t158 42z" />
<glyph unicode="3" horiz-adv-x="798" d="M494 1372q106 0 164.5 -69t58.5 -181q0 -101 -33.5 -187.5t-104.5 -145.5t-169 -66q102 -9 160.5 -78.5t58.5 -200.5q0 -61 -13 -123t-43 -123.5t-73 -109t-108.5 -77t-143.5 -29.5q-95 0 -158 38.5t-113 126.5l5 3q50 -88 111 -126t155 -38q78 0 142.5 29.5t107 77 t72 108.5t42.5 122.5t13 120.5q0 135 -65.5 206t-182.5 71h-58v4h64q80 0 145 34.5t104.5 92t60 127t20.5 143.5q0 111 -57.5 178.5t-161.5 67.5q-151 0 -291 -143l-4 2q142 145 295 145z" />
<glyph unicode="4" horiz-adv-x="831" d="M745 406l-2 -5h-158l-57 -401h-4l57 401h-507l2 7l483 964l4 -2l-483 -964h502l63 450h4l-63 -450h159z" />
<glyph unicode="5" horiz-adv-x="790" d="M762 1352v-4h-479l-86 -607q116 97 239 97q113 0 173.5 -75t60.5 -208q0 -59 -9 -120.5t-27 -127.5t-50.5 -123t-76 -103t-107 -72.5t-138.5 -26.5q-82 0 -145.5 38.5t-100.5 108.5l4 2q34 -68 98.5 -106.5t143.5 -38.5q75 0 137.5 26.5t105.5 72t75.5 102t50.5 122 t26.5 126.5t8.5 120q0 132 -59.5 205.5t-170.5 73.5q-122 0 -237 -97h-6l86 615h483z" />
<glyph unicode="6" horiz-adv-x="878" d="M664 1372q101 0 159 -74l-4 -2q-55 72 -155 72q-117 0 -222 -107t-176.5 -281.5t-103.5 -387.5q84 125 175.5 199.5t201.5 74.5q103 0 161 -72t58 -210q0 -72 -11.5 -149t-39.5 -159.5t-69.5 -146.5t-107.5 -105.5t-147 -41.5q-126 0 -185 100.5t-59 273.5 q0 129 23.5 269.5t70 273t108.5 238.5t146.5 170.5t176.5 64.5zM539 862q-192 0 -377 -276q-19 -112 -19 -230q0 -172 58 -271t182 -99q68 0 125 28.5t96.5 77.5t69.5 109.5t47 129t25 131.5t8 122q0 137 -56.5 207.5t-158.5 70.5z" />
<glyph unicode="7" horiz-adv-x="731" d="M766 1352v-4l-668 -1358l-4 2l668 1356h-567v4h571z" />
<glyph unicode="8" horiz-adv-x="909" d="M551 694q111 -60 158 -125.5t47 -169.5q0 -180 -109.5 -298.5t-275.5 -118.5q-129 0 -200 75t-71 205q0 56 8 104.5t30.5 102t59.5 99.5t98.5 93t143.5 87q-89 47 -126.5 107t-37.5 153q0 159 99.5 261.5t230.5 102.5q103 0 166.5 -67.5t63.5 -188.5q0 -125 -60 -222 t-225 -200zM281 1008q0 -99 41.5 -158t134.5 -107l90 -47q87 53 144.5 104.5t87 104.5t41 101.5t11.5 109.5q0 120 -62 186t-163 66q-130 0 -227.5 -101.5t-97.5 -258.5zM371 -14q164 0 272.5 117.5t108.5 295.5q0 60 -14 104.5t-46.5 81.5t-74 65t-109.5 63l-64 32 q-86 -41 -148.5 -90t-99 -95t-57.5 -100t-28 -99t-7 -99q0 -129 69.5 -202.5t197.5 -73.5z" />
<glyph unicode="9" horiz-adv-x="864" d="M541 1372q241 0 241 -330q0 -85 -7 -164.5t-26.5 -172t-51 -174t-84 -166t-120.5 -153.5t-166 -131t-216 -104l-2 5q93 32 174 77t160.5 114t140.5 155.5t108 205t69 258.5q-74 -127 -167 -192t-193 -65q-111 0 -173 78t-62 223q0 89 24 181t68.5 172.5t118.5 131.5 t164 51zM401 539q101 0 195 67t166 195q16 110 16 241q0 326 -237 326q-89 0 -162.5 -50.5t-117.5 -131t-67.5 -171.5t-23.5 -179q0 -144 60.5 -220.5t170.5 -76.5z" />
<glyph unicode=":" horiz-adv-x="225" d="M162 870q-6 0 -10.5 4.5t-4.5 10.5q0 14 15 14q14 0 14 -14q0 -15 -14 -15zM39 -8q-14 0 -14 14t14 14t14 -14t-14 -14z" />
<glyph unicode=";" horiz-adv-x="225" d="M162 870q-6 0 -10.5 4.5t-4.5 10.5q0 14 15 14q14 0 14 -14q0 -15 -14 -15zM39 20q14 0 14 -14q0 -6 -6 -18l-90 -211h-6l86 215q-12 3 -12 14q0 14 14 14z" />
<glyph unicode="&#x3c;" horiz-adv-x="856" d="M758 997l2 -4l-572 -311l482 -320l-2 -4l-484 322v4z" />
<glyph unicode="=" horiz-adv-x="833" d="M201 829v5h518v-5h-518zM156 522v4h518v-4h-518z" />
<glyph unicode="&#x3e;" horiz-adv-x="858" d="M231 997l486 -313v-4l-576 -322l-2 4l574 320l-484 311z" />
<glyph unicode="?" d="M520 1413q104 0 156.5 -63t52.5 -164q0 -75 -21.5 -135t-56 -100t-76 -74.5t-83.5 -66.5t-76.5 -67t-56.5 -84.5t-23 -111.5q0 -51 14 -119h-4q-14 68 -14 119q1 62 23 112t56.5 85t76.5 67t83.5 66.5t76 74.5t56 100t21.5 134q0 100 -51.5 161.5t-153.5 61.5 q-79 0 -141.5 -37.5t-136.5 -120.5l-4 2q74 83 138.5 121.5t143.5 38.5zM317 -10q-14 0 -14 14t14 14q15 0 15 -14t-15 -14z" />
<glyph unicode="@" horiz-adv-x="1757" d="M1053 1415q134 0 237.5 -48t167.5 -132.5t96.5 -195.5t32.5 -242q0 -93 -14.5 -195.5t-46.5 -205t-75.5 -184t-108 -132.5t-138.5 -51q-173 0 -141 303q-115 -299 -307 -299q-91 0 -146 76.5t-55 218.5q0 84 15 170.5t48.5 172t82 152t121 107.5t159.5 41q93 0 166 -47 l-76 -566q-44 -325 133 -325q74 0 137.5 51t107 132t74.5 183t45.5 204t14.5 194q0 131 -32 240.5t-95.5 194t-167 132t-237.5 47.5q-125 0 -237.5 -39t-199 -105.5t-159.5 -156t-123.5 -190.5t-85.5 -208.5t-51.5 -210t-16.5 -196.5q0 -320 162 -507t420 -187q166 0 311 63 v-4q-145 -63 -311 -63q-127 0 -235 48t-185.5 137t-121.5 220.5t-44 292.5q0 94 16.5 197t52 211t86.5 209.5t124 191t160 156.5t200.5 106t239.5 39zM756 37q189 0 307 305l80 580q-72 45 -162 45q-86 0 -158 -41t-120 -106.5t-81 -150.5t-48 -171.5t-15 -169.5 q0 -141 54 -216t143 -75z" />
<glyph unicode="A" horiz-adv-x="960" d="M811 0l-66 436h-555l-188 -436h-4l189 436h-1l1 1l413 956h2l213 -1393h-4zM192 440h552l-144 944z" />
<glyph unicode="B" horiz-adv-x="1005" d="M600 737q119 -8 191.5 -84t72.5 -204q0 -70 -14.5 -133t-48.5 -122t-85 -101t-130 -67.5t-178 -25.5h-265l195 1393h254q164 0 246 -72t82 -207q0 -153 -93.5 -258t-226.5 -119zM342 1389l-91 -650h324q55 0 113.5 24.5t110 69.5t84 118.5t32.5 162.5q0 133 -80 204 t-241 71h-252zM410 4q121 0 211 37.5t140.5 102t74.5 141t24 164.5q0 130 -78 208t-215 78h-317l-103 -731h263z" />
<glyph unicode="C" horiz-adv-x="899" d="M719 1413q151 0 246 -117l-2 -4q-95 117 -244 117q-120 0 -218 -62t-161 -160t-106.5 -226t-61.5 -254.5t-18 -249.5q0 -227 85.5 -349t241.5 -122q152 0 289 120l2 -4q-137 -120 -291 -120q-158 0 -244.5 123t-86.5 352q0 87 9.5 177.5t30.5 185t52 180t77.5 161.5 t103.5 131.5t133 88t163 32.5z" />
<glyph unicode="D" horiz-adv-x="1062" d="M557 1393q404 0 404 -445q0 -116 -14.5 -226.5t-45 -218.5t-81.5 -198t-118.5 -159t-163 -107.5t-208.5 -38.5h-187l195 1393h219zM557 1389h-215l-195 -1385h183q97 0 181 29t147 80t113.5 122.5t84.5 153.5t57 177t33 189.5t10 192.5q0 441 -399 441z" />
<glyph unicode="E" horiz-adv-x="829" d="M850 1393v-4h-508l-90 -648h436v-4h-436l-105 -733h527v-4h-531l195 1393h512z" />
<glyph unicode="F" horiz-adv-x="786" d="M842 1393v-4h-500l-96 -678h434v-4h-434l-99 -707h-4l195 1393h504z" />
<glyph unicode="G" horiz-adv-x="1003" d="M719 1413q82 0 142 -27.5t116 -85.5l-2 -4q-56 58 -116 85.5t-140 27.5q-91 0 -172 -39t-141.5 -107.5t-109 -159.5t-79.5 -197t-47 -217.5t-16 -223.5q0 -232 91 -355.5t259 -123.5q148 0 299 96l88 614h-252v4h256l-88 -620q-152 -98 -303 -98q-170 0 -262 124.5 t-92 358.5q0 112 16 224.5t47 218.5t80 197.5t110.5 160t142.5 108t173 39.5z" />
<glyph unicode="H" horiz-adv-x="1097" d="M147 0h-4l195 1393h4l-90 -641h655l90 641h4l-196 -1393h-4l106 748h-655z" />
<glyph unicode="I" horiz-adv-x="438" d="M342 1393l-195 -1393h-4l195 1393h4z" />
<glyph unicode="J" horiz-adv-x="473" d="M387 1393l-170 -1219q-22 -153 -71 -226t-181 -134l-2 4q131 60 180 132.5t70 223.5l170 1219h4z" />
<glyph unicode="K" horiz-adv-x="851" d="M143 2l195 1391h4l-195 -1391h-4zM741 0l-483 750l651 643h6l-651 -643l484 -750h-7z" />
<glyph unicode="L" horiz-adv-x="733" d="M342 1393l-195 -1389h484v-4h-488l195 1393h4z" />
<glyph unicode="M" horiz-adv-x="1273" d="M1116 1393l-59 -1393h-4l30 725q5 110 15.5 347.5t13.5 313.5l-522 -1212h-6l-183 1215q-122 -518 -153 -650l-174 -739h-4l327 1393h9l182 -1213l522 1213h6z" />
<glyph unicode="N" horiz-adv-x="1097" d="M1001 1393l-194 -1393h-6l-459 1386q-26 -182 -31 -215l-164 -1171h-4l195 1393h6l459 -1387l39 273l155 1114h4z" />
<glyph unicode="O" horiz-adv-x="1167" d="M723 1413q166 0 255 -122t89 -353q0 -81 -9 -167t-29.5 -180.5t-51.5 -181t-78 -165t-105 -136.5t-137 -92t-170 -34q-165 0 -252.5 122t-87.5 351q0 96 14 199.5t42.5 212.5t76 206t109 173.5t148 121.5t186.5 45zM723 1409q-119 0 -218 -64.5t-162.5 -165.5t-108 -230 t-63.5 -253.5t-19 -240.5q0 -228 85.5 -348.5t249.5 -120.5q105 0 193.5 45t150 122.5t108 173.5t72.5 205t39 210t13 196q0 230 -87.5 350.5t-252.5 120.5z" />
<glyph unicode="P" horiz-adv-x="931" d="M561 1393q348 0 348 -297q0 -72 -13.5 -139t-48.5 -134t-88 -116t-138.5 -80t-194.5 -31h-195l-84 -596h-4l195 1393h223zM428 600q108 0 192.5 30.5t137 79.5t86.5 115.5t47.5 133t13.5 137.5q0 293 -344 293h-219l-110 -789h196z" />
<glyph unicode="Q" horiz-adv-x="1169" d="M551 -14q142 -2 230 -30t151 -103l-4 -3q-64 75 -159.5 104.5t-273.5 27.5h-8q-165 0 -252.5 122t-87.5 351q0 96 14 199.5t42.5 212.5t76 206t109 173.5t148 121.5t186.5 45q166 0 255 -122t89 -353q0 -113 -16 -231t-55 -242.5t-96.5 -223.5t-147.5 -169t-201 -86z M152 455q0 -228 85.5 -348.5t249.5 -120.5q105 0 193.5 45t150 122.5t108 173.5t72.5 205t39 210t13 196q0 230 -87.5 350.5t-252.5 120.5q-119 0 -218 -64.5t-162.5 -165.5t-108 -230t-63.5 -253.5t-19 -240.5z" />
<glyph unicode="R" horiz-adv-x="944" d="M901 1106q0 -78 -21.5 -150t-63 -133t-110.5 -98.5t-157 -40.5l227 -684h-6l-225 684h-10h-292l-96 -684h-4l195 1393h235q177 0 252.5 -71.5t75.5 -215.5zM535 688q91 0 162.5 36.5t114 97t64 133t21.5 151.5q0 142 -74.5 212.5t-249.5 70.5h-231l-98 -701h291z" />
<glyph unicode="S" horiz-adv-x="909" d="M598 1413q172 0 274 -131l-4 -2q-100 129 -270 129q-108 0 -188 -54t-118 -135.5t-38 -175.5q0 -107 53 -166.5t193 -119.5q135 -58 196.5 -129t61.5 -195q0 -118 -46.5 -219.5t-140 -167t-215.5 -65.5q-114 0 -184.5 40t-124.5 119l2 4q54 -79 124 -119t183 -40 q91 0 168 37.5t126 100.5t76.5 142.5t27.5 165.5q0 124 -60.5 194t-195.5 128q-140 61 -194 121t-54 169q0 70 23 135.5t65.5 118t110 84t149.5 31.5z" />
<glyph unicode="T" horiz-adv-x="788" d="M879 1393l-2 -4h-361l-194 -1389h-5l195 1389h-360v4h727z" />
<glyph unicode="U" horiz-adv-x="1058" d="M981 1393l-147 -1063q-10 -71 -37 -131.5t-72 -110t-114.5 -78t-157.5 -28.5q-70 0 -124.5 19t-87 51.5t-52.5 77t-22.5 95t3.5 105.5l147 1063h5l-148 -1063q-6 -54 -4 -104t22 -94t52 -76.5t85.5 -51t123.5 -18.5q168 0 261.5 97.5t114.5 246.5l148 1063h4z" />
<glyph unicode="V" horiz-adv-x="905" d="M954 1393l-571 -1393h-4l-186 1393h4l184 -1389l569 1389h4z" />
<glyph unicode="W" horiz-adv-x="1316" d="M1356 1393l-463 -1393h-4l-111 1389l-497 -1389h-5l-73 1393h4l72 -1389l497 1389h6l109 -1387l461 1387h4z" />
<glyph unicode="X" horiz-adv-x="784" d="M819 1393l-391 -635l250 -758h-4l-250 756l-461 -756h-4l461 758l-215 635h4l215 -633l391 633h4z" />
<glyph unicode="Y" horiz-adv-x="802" d="M883 1393l-475 -838l-78 -555h-4l77 555l-241 838h4l240 -834l473 834h4z" />
<glyph unicode="Z" horiz-adv-x="843" d="M-6 0v4l876 1385h-620v4h627v-4l-877 -1385h653v-4h-659z" />
<glyph unicode="[" horiz-adv-x="524" d="M524 1618v-4h-180l-258 -1815h182l-2 -4h-184l258 1823h184z" />
<glyph unicode="\" horiz-adv-x="901" d="M412 1626l135 -1812l-4 -2l-135 1812z" />
<glyph unicode="]" horiz-adv-x="522" d="M492 1618l-256 -1823h-187v4h182l256 1815h-182v4h187z" />
<glyph unicode="^" horiz-adv-x="892" d="M612 1673l197 -594h-4l-195 592l-366 -592h-4l368 594h4z" />
<glyph unicode="_" horiz-adv-x="903" d="M4 -178v4h696v-4h-696z" />
<glyph unicode="`" horiz-adv-x="403" d="M203 1528l256 -170l-2 -2l-256 168z" />
<glyph unicode="a" d="M588 1079q113 0 196 -57l-106 -774q-19 -108 -11.5 -171.5t58.5 -90.5l-2 -4q-22 12 -36 29.5t-20 37t-6.5 48t2 53.5t6.5 62l3 24q-137 -254 -316 -254q-117 0 -179 97t-62 257q0 83 12 167.5t35.5 169t63 157t90 128.5t121 88.5t151.5 32.5zM588 1075q-81 0 -150.5 -32 t-120 -88t-89 -128.5t-62 -156t-35.5 -167.5t-12 -167q0 -159 61 -254.5t176 -95.5q178 0 318 262l106 772q-80 55 -192 55z" />
<glyph unicode="b" horiz-adv-x="952" d="M606 1079q117 0 175.5 -86.5t58.5 -251.5q0 -96 -16 -197.5t-51.5 -203t-86 -180.5t-127.5 -128.5t-168 -49.5q-115 0 -248 65l201 1448h4l-88 -635q169 219 346 219zM606 1075q-95 0 -177.5 -56t-168.5 -163l-113 -807q129 -63 244 -63q91 0 167 49t126 128t85.5 180 t51 201.5t15.5 196.5q0 334 -230 334z" />
<glyph unicode="c" horiz-adv-x="790" d="M561 1079q131 0 207 -102l-4 -2q-75 100 -203 100q-133 0 -234.5 -101.5t-152.5 -264.5t-51 -357q0 -177 67.5 -271.5t190.5 -94.5q67 0 122 27t111 79l4 -2q-57 -52 -112.5 -80t-124.5 -28q-124 0 -193 96t-69 274q0 145 30.5 276t85.5 231.5t139.5 160t186.5 59.5z" />
<glyph unicode="d" horiz-adv-x="946" d="M868 1495h4l-208 -1495h-5l43 303q-74 -149 -158 -235t-192 -86q-112 0 -174.5 92t-62.5 256q0 120 26 246t76 241t136.5 188.5t195.5 73.5q96 0 153 -59t80 -150zM549 1075q-87 0 -160.5 -48.5t-122 -126.5t-83 -177.5t-49.5 -199t-15 -193.5q0 -163 61.5 -253.5 t171.5 -90.5q107 0 190 86t160 239l78 551q-54 213 -231 213z" />
<glyph unicode="e" horiz-adv-x="864" d="M803 864q0 -82 -36 -149.5t-97.5 -113.5t-148.5 -79t-184.5 -50.5t-210.5 -24.5q-5 -63 -5 -109q0 -171 65.5 -261.5t184.5 -90.5q78 0 141 29t135 91l2 -4q-73 -62 -136.5 -91t-141.5 -29q-121 0 -187.5 91.5t-66.5 264.5q0 93 15 190.5t50 197.5t86.5 177.5 t131.5 126.5t178 49q100 0 162.5 -57t62.5 -158zM578 1075q-86 0 -158.5 -38t-121.5 -100t-86 -145t-57 -167.5t-29 -173.5q114 6 211.5 24t184 51t147 79t95.5 112t35 147q0 100 -61.5 155.5t-159.5 55.5z" />
<glyph unicode="f" horiz-adv-x="501" d="M551 1499q-88 0 -145 -59.5t-74 -173.5l-29 -207h254v-4h-255l-150 -1073q-16 -112 -44 -181.5t-66.5 -109.5t-107.5 -82l-2 2q101 60 147 134.5t68 236.5l151 1073h-153v4h154l29 207q17 115 75.5 176t147.5 61q56 0 98 -19t84 -59l-4 -2q-42 40 -82 58t-96 18z" />
<glyph unicode="g" d="M590 1079q109 0 192 -57l-147 -1065q-26 -189 -105.5 -268.5t-203.5 -79.5q-143 0 -258 94l2 4q115 -94 256 -94q122 0 200.5 78t104.5 266l41 297q-137 -254 -314 -254q-117 0 -179 97t-62 257q0 78 12 159t35.5 163.5t63 154t90 127.5t121 88.5t151.5 32.5zM590 1075 q-96 0 -176.5 -46.5t-133.5 -120.5t-90 -170t-53 -193t-16 -191q0 -159 61 -254.5t176 -95.5q176 0 316 262l104 754q-80 55 -188 55z" />
<glyph unicode="h" horiz-adv-x="974" d="M618 1079q111 0 159.5 -83t29.5 -222l-109 -774h-4l109 774q19 137 -28 219t-157 82t-198 -89t-184 -294l-97 -692h-4l209 1495h4l-110 -790q93 199 181 286.5t199 87.5z" />
<glyph unicode="i" horiz-adv-x="421" d="M338 1421q-12 0 -12 13q0 12 12 12t12 -12q0 -13 -12 -13zM287 1059l-148 -1059h-4l148 1059h4z" />
<glyph unicode="j" horiz-adv-x="428" d="M344 1421q-12 0 -12 13q0 12 12 12t12 -12q0 -13 -12 -13zM-76 -391l-2 4q67 40 105.5 79.5t66.5 109t43 180.5l152 1077h4l-152 -1077q-15 -112 -43 -182t-66.5 -110t-107.5 -81z" />
<glyph unicode="k" horiz-adv-x="874" d="M348 1495l-121 -864q96 224 195 336t217 112q83 0 126.5 -51t43.5 -139q0 -142 -86 -233.5t-252 -157.5l203 -498h-4l-203 500q169 67 253.5 157.5t84.5 231.5q0 87 -42.5 136.5t-123.5 49.5q-117 0 -217 -114.5t-197 -342.5l-86 -618h-4l209 1495h4z" />
<glyph unicode="l" horiz-adv-x="464" d="M338 1495l-193 -1384q-19 -125 80 -125q40 0 72 16l2 -4q-37 -16 -74 -16q-103 0 -84 129l193 1384h4z" />
<glyph unicode="m" horiz-adv-x="1417" d="M1090 1079q100 0 138.5 -85t16.5 -240l-104 -754h-4l104 754q22 154 -15.5 237.5t-135.5 83.5q-94 0 -182.5 -90t-173.5 -300l-95 -685h-4l104 754q22 154 -15.5 237.5t-135.5 83.5q-196 0 -355 -401l-94 -674h-4l148 1059h4l-51 -373q154 393 352 393q101 0 139 -84.5 t16 -240.5l-8 -58q154 383 355 383z" />
<glyph unicode="n" horiz-adv-x="974" d="M618 1079q111 0 159.5 -83t29.5 -222l-109 -774h-4l109 774q19 137 -28 219t-157 82t-198.5 -88.5t-183.5 -292.5l-97 -694h-4l148 1059h4l-49 -352q93 198 181 285t199 87z" />
<glyph unicode="o" horiz-adv-x="940" d="M379 -18q-126 0 -194 96.5t-68 269.5q0 77 11 158t32.5 164t58.5 156t84.5 130t114.5 90t145 33q125 0 192.5 -94.5t67.5 -267.5q0 -92 -14 -188.5t-48 -195.5t-83.5 -176t-127 -126t-171.5 -49zM379 -14q94 0 170.5 48.5t125.5 125t82.5 175.5t47.5 194.5t14 187.5 q0 171 -66 264.5t-190 93.5q-78 0 -144.5 -33t-113.5 -90t-83.5 -129t-58 -155t-32 -163t-10.5 -157q0 -172 66.5 -267t191.5 -95z" />
<glyph unicode="p" horiz-adv-x="952" d="M82 -391l201 1450h4l-29 -199q153 219 346 219q236 0 236 -338q0 -80 -11.5 -164.5t-34 -170.5t-60 -161.5t-85.5 -134.5t-114.5 -93.5t-143.5 -34.5q-135 0 -244 71l-61 -444h-4zM391 -14q91 0 167.5 49t126.5 128t85 180t50.5 201.5t15.5 196.5q0 334 -232 334 q-187 0 -346 -219l-111 -799q109 -71 244 -71z" />
<glyph unicode="q" horiz-adv-x="931" d="M596 -391l86 627q-140 -254 -317 -254q-122 0 -186 96.5t-64 257.5q0 101 16.5 202t54.5 199.5t92.5 173.5t137 121.5t182.5 46.5q114 0 197 -57l-195 -1413h-4zM365 -14q90 0 168 64t151 198l107 772q-80 55 -193 55q-83 0 -154.5 -32t-123 -88t-91 -128.5t-63 -156 t-35.5 -167.5t-12 -167q0 -160 62.5 -255t183.5 -95z" />
<glyph unicode="r" horiz-adv-x="604" d="M563 1079q41 0 76 -14l-2 -4q-31 14 -74 14q-108 0 -183 -79t-140 -281l-101 -715h-4l148 1059h4l-45 -326q63 191 138 268.5t183 77.5z" />
<glyph unicode="s" horiz-adv-x="770" d="M465 1079q148 0 240 -106l-5 -2q-91 104 -235 104q-114 0 -197.5 -74t-83.5 -192q0 -84 46.5 -138t166.5 -104q118 -50 165.5 -108.5t47.5 -157.5q0 -146 -90.5 -232.5t-220.5 -86.5q-172 0 -274 135l2 4q49 -65 113 -100t159 -35q128 0 217.5 85.5t89.5 229.5 q0 98 -46.5 155t-164.5 107q-122 52 -168.5 106t-46.5 140q0 120 85 195t200 75z" />
<glyph unicode="t" horiz-adv-x="542" d="M275 1055l-117 -844q-15 -110 22 -167.5t119 -57.5q79 0 160 57l2 -4q-86 -57 -162 -57q-85 0 -123.5 59t-21.5 170l116 844h-145v4h146l38 274h4l-38 -274h245v-4h-245z" />
<glyph unicode="u" horiz-adv-x="966" d="M360 -18q-108 0 -159 80.5t-31 224.5l106 772h5l-107 -772q-20 -140 30 -220.5t156 -80.5q113 0 206 90.5t161 257.5l100 725h4l-147 -1059h-4l47 326q-67 -165 -160.5 -254.5t-206.5 -89.5z" />
<glyph unicode="v" horiz-adv-x="745" d="M762 1059l-453 -1059h-4l-174 1059h4l172 -1055l451 1055h4z" />
<glyph unicode="w" horiz-adv-x="1138" d="M1141 1059l-385 -1059h-4l-109 1055l-403 -1055h-7l-88 1059h5l88 -1055l403 1055h4l109 -1055l383 1055h4z" />
<glyph unicode="x" horiz-adv-x="731" d="M709 1059l-338 -490l235 -569h-4l-233 567l-387 -567h-5l390 569l-197 490h4l195 -488l336 488h4z" />
<glyph unicode="y" horiz-adv-x="743" d="M760 1059l-449 -1059q-33 -78 -54.5 -123.5t-50.5 -92.5t-59 -75.5t-71 -53t-96 -42.5v4q67 23 112 51.5t83 79.5t64 102t68 150h-4l-172 1059h4l172 -1057l449 1057h4z" />
<glyph unicode="z" horiz-adv-x="690" d="M696 1059v-4l-704 -1051h538v-4h-544v4l704 1051h-506v4h512z" />
<glyph unicode="{" horiz-adv-x="548" d="M547 1655v-4q-133 0 -158 -191l-82 -586q-10 -78 -51 -118.5t-98 -40.5q56 0 84 -41.5t18 -118.5l-82 -588q-25 -188 105 -188v-4q-134 0 -109 192l82 588q10 77 -17 117.5t-85 40.5v4q58 0 98.5 40t50.5 117l82 588q25 193 162 193z" />
<glyph unicode="|" horiz-adv-x="731" d="M522 1638l-256 -1837h-4l256 1837h4z" />
<glyph unicode="}" horiz-adv-x="546" d="M53 -225v4q133 0 158 190l82 586q10 78 51 119t98 41q-56 0 -84 41t-18 118l82 588q25 189 -105 189v4q134 0 109 -193l-82 -588q-10 -77 17 -117t85 -40v-4q-58 0 -98.5 -40.5t-50.5 -117.5l-82 -588q-25 -192 -162 -192z" />
<glyph unicode="~" horiz-adv-x="792" d="M524 596q-27 0 -57 17.5t-53 39t-53.5 39t-57.5 17.5q-69 0 -129 -91l-4 3q63 92 133 92q28 0 59 -17.5t54 -39t52.5 -39t55.5 -17.5q66 0 129 90l4 -2q-65 -92 -133 -92z" />
<glyph unicode="&#xa1;" horiz-adv-x="430" d="M264 868q-14 0 -14 15q0 14 14 14q15 0 15 -14q0 -6 -4.5 -10.5t-10.5 -4.5zM217 520l-129 -905h-4l129 905h4z" />
<glyph unicode="&#xa2;" horiz-adv-x="790" d="M561 1079q131 0 207 -102l-4 -2q-75 100 -203 100q-133 0 -234.5 -101.5t-152.5 -264.5t-51 -357q0 -177 67.5 -271.5t190.5 -94.5q67 0 122 27t111 79l4 -2q-110 -103 -223 -108l-39 -277h-4l39 277h-10q-124 0 -193 96t-69 274q0 193 50.5 355.5t151 265.5t232.5 106 l41 297h4l-41 -297h4z" />
<glyph unicode="&#xa3;" horiz-adv-x="827" d="M627 1372q137 0 204 -125l-4 -2q-65 123 -200 123q-118 0 -192 -92.5t-95 -239.5l-43 -307h350v-4h-350l-68 -483q-13 -98 -50.5 -151.5t-110.5 -86.5h583v-4h-594v4q77 34 116 86.5t52 151.5l68 483h-96v4h96l43 307q21 149 96.5 242.5t194.5 93.5z" />
<glyph unicode="&#xa4;" horiz-adv-x="942" d="M772 694q0 -166 -86 -262l129 -153l-4 -3l-128 153q-75 -81 -189 -81q-113 0 -188 81l-126 -153l-4 3l127 153q-86 96 -86 262q0 163 81 260l-122 152l4 2l121 -151q75 87 193 87q121 0 196 -89l121 153l4 -2l-122 -154q79 -97 79 -258zM494 352q119 0 196.5 90.5 t77.5 251.5q0 159 -75.5 252.5t-198.5 93.5q-117 0 -191 -86v0q-82 -95 -82 -260q0 -161 77.5 -251.5t195.5 -90.5z" />
<glyph unicode="&#xa5;" horiz-adv-x="786" d="M860 1352l-448 -699h221v-4h-222l-37 -268h220v-4h-220l-52 -377h-5l52 377h-215v4h216l37 268h-214v4h215l-252 699h6l248 -695l444 695h6z" />
<glyph unicode="&#xa6;" horiz-adv-x="733" d="M524 1638l-104 -731h-4l104 731h4zM369 537l-101 -736h-4l101 736h4z" />
<glyph unicode="&#xa7;" horiz-adv-x="956" d="M629 1368q-122 0 -193 -76t-71 -180q0 -82 44 -134t158 -106q100 -47 143.5 -104.5t43.5 -140.5q0 -98 -43 -169t-152 -143q76 -62 76 -165q0 -106 -74 -188.5t-199 -82.5q-135 0 -235 84l2 4q97 -84 233 -84q123 0 196 81t73 186q0 81 -42.5 131t-152.5 100 q-107 49 -153.5 102.5t-46.5 137.5q0 87 46.5 159.5t167.5 153.5q-48 36 -69 78t-21 100q0 106 73 183t196 77q118 0 227 -82l-2 -4q-106 82 -225 82zM750 627q0 81 -42.5 137.5t-142.5 103.5q-64 30 -111 64q-121 -80 -167.5 -153t-46.5 -158q0 -83 46 -136t152 -100 q75 -34 117 -67q109 72 152 142t43 167z" />
<glyph unicode="&#xa8;" horiz-adv-x="399" d="M197 1391q-13 0 -13 12t13 12q12 0 12 -12t-12 -12zM449 1391q-13 0 -13 12t13 12q12 0 12 -12t-12 -12z" />
<glyph unicode="&#xa9;" horiz-adv-x="1345" d="M723 1456q201 0 324.5 -148.5t123.5 -416.5q0 -264 -124 -414.5t-324 -150.5q-201 0 -325 148.5t-124 416.5q0 264 124.5 414.5t324.5 150.5zM723 1452q-198 0 -321 -149t-123 -412q0 -267 122.5 -414t321.5 -147q198 0 321 149t123 412q0 267 -122.5 414t-321.5 147z M719 1233q78 0 131 -53l-2 -4q-53 53 -129 53q-37 0 -71.5 -18.5t-66 -55.5t-50.5 -104.5t-19 -155.5q0 -166 58 -251t149 -85q85 0 147 62l2 -5q-57 -61 -149 -61q-93 0 -152 86.5t-59 253.5q0 89 19.5 157t51 106t67.5 56.5t73 18.5z" />
<glyph unicode="&#xaa;" horiz-adv-x="866" d="M393 569q-85 0 -130.5 51.5t-45.5 137.5q0 137 83.5 215t223.5 78h164l14 104q15 117 -19 175.5t-126 58.5q-97 0 -209 -52l-2 4q113 52 211 52q94 0 129.5 -60.5t20.5 -177.5l-56 -401q-11 -91 -7 -116q9 -49 54 -65l-2 -4q-25 8 -39 25t-16.5 40t-1 46.5t5.5 51.5 q2 7 2 11q-53 -89 -111 -131.5t-143 -42.5zM393 573q84 0 143 44t111 135l41 295h-164q-138 0 -220.5 -77t-82.5 -212q0 -85 44 -135t128 -50zM100 0v4h518v-4h-518z" />
<glyph unicode="&#xab;" horiz-adv-x="942" d="M487 1012l5 -2l-299 -420l184 -418l-4 -2l-185 418v4zM821 1012l4 -2l-299 -420l185 -418l-4 -2l-185 418v4z" />
<glyph unicode="&#xac;" horiz-adv-x="849" d="M711 659l-33 -219h-4l31 215h-531l2 4h535z" />
<glyph unicode="&#xad;" horiz-adv-x="675" d="M160 637v4h387v-4h-387z" />
<glyph unicode="&#xae;" horiz-adv-x="1060" d="M600 1452q160 0 254 -113.5t94 -306.5q0 -198 -90 -314t-258 -116q-160 0 -254 113.5t-94 306.5q0 198 90 314t258 116zM600 606q167 0 255.5 114.5t88.5 311.5q0 192 -93 304t-251 112q-167 0 -255.5 -114.5t-88.5 -311.5q0 -192 93 -304t251 -112zM735 1159 q0 -68 -31.5 -104.5t-77.5 -40.5l124 -254h-5l-123 254h-130v-252h-5v547h95q72 0 112.5 -37.5t40.5 -112.5zM612 1018q52 0 85.5 36t33.5 105q0 72 -38.5 109t-110.5 37h-90v-287h120z" />
<glyph unicode="&#xaf;" horiz-adv-x="442" d="M506 1411h-320v4h320v-4z" />
<glyph unicode="&#xb0;" horiz-adv-x="876" d="M426 862q-80 0 -127 57.5t-47 159.5q0 133 73 233.5t187 100.5q81 0 127.5 -57t46.5 -160q0 -133 -73 -233.5t-187 -100.5zM426 866q75 0 134.5 47.5t90.5 122.5t31 160q0 102 -45.5 157.5t-124.5 55.5q-75 0 -134.5 -47.5t-90.5 -122.5t-31 -160q0 -100 45.5 -156.5 t124.5 -56.5z" />
<glyph unicode="&#xb1;" horiz-adv-x="835" d="M487 999l-45 -319h256v-4h-256l-47 -320h-4l47 320h-258v4h258l45 319h4zM82 0v4h518v-4h-518z" />
<glyph unicode="&#xb2;" horiz-adv-x="696" d="M475 1503q71 0 108 -45t37 -117q0 -45 -10 -89t-37 -94.5t-49 -86.5t-73 -98t-79 -94.5t-98 -110.5t-101 -113h371v-4h-377v4q31 35 91.5 102.5t87.5 98t74 86.5t68.5 86.5t51.5 77.5t43 81t23 74.5t10 79.5q0 71 -36 114.5t-105 43.5q-58 0 -104.5 -26.5t-92.5 -81.5 l-4 2q93 110 201 110z" />
<glyph unicode="&#xb3;" horiz-adv-x="696" d="M481 1503q69 0 108 -42.5t39 -114.5q0 -98 -52.5 -167.5t-141.5 -78.5q149 -10 149 -168q0 -129 -66.5 -211t-177.5 -82q-63 0 -105 24.5t-71 79.5l4 2q29 -55 69.5 -78.5t102.5 -23.5q109 0 174.5 80.5t65.5 208.5q0 166 -168 166h-37l2 4h39q94 0 151.5 72t57.5 172 q0 70 -37.5 111.5t-105.5 41.5q-105 0 -189 -90l-2 4q87 90 191 90z" />
<glyph unicode="&#xb4;" horiz-adv-x="405" d="M481 1528l2 -4l-305 -168v4z" />
<glyph unicode="&#xb5;" horiz-adv-x="987" d="M725 328q-22 -155 0 -328h-4q-20 155 -2 303q-68 -147 -162.5 -234t-204.5 -87q-91 0 -138 55.5t-46 163.5q-10 -66 -24 -168t-21 -150l-39 -272h-4l203 1448h4l-109 -785q-22 -150 27.5 -219t146.5 -69q109 0 203 88t164 237l104 748h4z" />
<glyph unicode="&#xb6;" horiz-adv-x="1146" d="M709 1393h254l-250 -1782h-4l249 1778h-247l-250 -1778h-4l144 1028q-156 1 -232 85.5t-76 221.5q0 190 114.5 318.5t301.5 128.5z" />
<glyph unicode="&#xb7;" horiz-adv-x="225" d="M133 659q-14 0 -14 15q0 14 14 14t14 -14q0 -15 -14 -15z" />
<glyph unicode="&#xb8;" horiz-adv-x="344" d="M61 -14l-30 -156q69 -2 103 -28t34 -83q0 -54 -34.5 -93.5t-98.5 -39.5q-60 0 -101 33l5 2q40 -31 96 -31q62 0 95.5 38.5t33.5 90.5q0 56 -33 80.5t-104 26.5l30 160h4z" />
<glyph unicode="&#xb9;" horiz-adv-x="696" d="M526 1489l-117 -838h-4l117 834l-220 -148l-2 4l222 148h4z" />
<glyph unicode="&#xba;" horiz-adv-x="866" d="M561 1393q101 0 158 -75.5t57 -211.5q0 -61 -10.5 -129t-36.5 -142t-64.5 -132t-99.5 -96t-135 -38q-103 0 -159 75.5t-56 213.5q0 66 11 135.5t38 142t65.5 129t98.5 92.5t133 36zM561 1389q-72 0 -132 -36t-98 -92t-64 -128t-37 -141t-11 -134q0 -135 55 -210t156 -75 q62 0 114.5 26t89 70.5t64 99t43.5 116t23.5 116.5t7.5 105q0 135 -55.5 209t-155.5 74zM100 0v4h518v-4h-518z" />
<glyph unicode="&#xbb;" horiz-adv-x="937" d="M252 1012l180 -420v-4l-299 -418l-4 2l299 418l-180 420zM586 1012l180 -420v-4l-299 -418l-4 2l299 418l-180 420z" />
<glyph unicode="&#xbc;" horiz-adv-x="1513" d="M1212 1501h5l-908 -1638h-4zM391 555l117 834l-219 -148l-2 4l221 148h4l-117 -838h-4zM1346 252v-4h-103l-35 -248h-4l35 248h-330v6l314 598l4 -2l-314 -598h326l39 278h4l-39 -278h103z" />
<glyph unicode="&#xbd;" horiz-adv-x="1513" d="M1212 1501h5l-908 -1638h-4zM512 1393l-117 -838h-4l117 834l-219 -148l-2 4l221 148h4zM1200 852q71 0 108.5 -45t37.5 -117q0 -45 -10 -89t-37 -94.5t-49 -86.5t-73 -98t-79 -94.5t-98 -110.5t-101 -113h371v-4h-377v4q30 33 91.5 102t87.5 98.5t73.5 86.5t68.5 87 t51.5 77t43 81t22.5 74.5t10 79.5q0 71 -36 114.5t-105 43.5q-58 0 -103.5 -27t-92.5 -82l-5 2q47 55 94.5 83t106.5 28z" />
<glyph unicode="&#xbe;" horiz-adv-x="1513" d="M1212 1501h5l-908 -1638h-4zM570 836q0 -129 -66.5 -211t-177.5 -82q-63 0 -105 24.5t-71 79.5l4 2q29 -55 69.5 -78.5t102.5 -23.5q109 0 174 80.5t65 208.5q0 165 -168 165h-36l2 5h39q94 0 151 71.5t57 171.5q0 70 -37.5 112t-105.5 42q-104 0 -188 -90l-2 4 q87 90 190 90q69 0 108.5 -43t39.5 -115q0 -98 -53 -167t-142 -78q150 -10 150 -168zM1346 252v-4h-103l-35 -248h-4l35 248h-330v6l314 598l4 -2l-314 -598h326l39 278h4l-39 -278h103z" />
<glyph unicode="&#xbf;" d="M453 1026q14 0 14 -14q0 -15 -14 -15q-6 0 -10.5 4.5t-4.5 10.5q0 14 15 14zM250 -397q-104 0 -156.5 63t-52.5 164q0 75 21.5 135t56 100t76 74.5t83.5 66.5t76.5 67t56.5 84.5t23 111.5q0 51 -14 119h4q14 -68 14 -119q-1 -62 -23 -112t-56.5 -85t-76.5 -67 t-83.5 -66.5t-76 -74.5t-56 -100t-21.5 -134q0 -100 51.5 -161.5t153.5 -61.5q79 0 141.5 37t136.5 120l4 -2q-74 -83 -138.5 -121t-143.5 -38z" />
<glyph unicode="&#xc0;" horiz-adv-x="960" d="M770 1583l-2 -4l-260 141l2 4zM811 0l-66 436h-555l-188 -436h-4l189 436h-1l1 1l413 956h2l213 -1393h-4zM192 440h552l-144 944z" />
<glyph unicode="&#xc1;" horiz-adv-x="960" d="M788 1720l-296 -141l-3 4l297 141zM811 0l-66 436h-555l-188 -436h-4l189 436h-1l1 1l413 956h2l213 -1393h-4zM192 440h552l-144 944z" />
<glyph unicode="&#xc2;" horiz-adv-x="960" d="M637 1737l-201 -160l-4 2l203 162h4l160 -162l-4 -2zM811 0l-66 436h-555l-188 -436h-4l189 436h-1l1 1l413 956h2l213 -1393h-4zM192 440h552l-144 944z" />
<glyph unicode="&#xc3;" horiz-adv-x="960" d="M848 1743l4 -2q-36 -44 -60.5 -61t-56.5 -17q-31 0 -63.5 22.5t-62.5 45t-56 22.5q-28 0 -51.5 -16t-61.5 -56l-4 2q40 42 64 58t53 16q27 0 57.5 -22.5t62.5 -45t62 -22.5q31 0 55 17t58 59zM600 1393h2l213 -1393h-4l-66 436h-555l-188 -436h-4l189 436h-1l1 1z M192 440h552l-144 944z" />
<glyph unicode="&#xc4;" horiz-adv-x="960" d="M514 1649q-12 0 -12 12t12 12t12 -12t-12 -12zM766 1649q-12 0 -12 12t12 12t12 -12t-12 -12zM811 0l-66 436h-555l-188 -436h-4l189 436h-1l1 1l413 956h2l213 -1393h-4zM192 440h552l-144 944z" />
<glyph unicode="&#xc5;" horiz-adv-x="960" d="M635 1599q-44 0 -69 28.5t-25 76.5q0 69 35 112.5t92 43.5q42 0 66 -28t24 -75q0 -68 -34 -113t-89 -45zM668 1855q-55 0 -89 -41.5t-34 -109.5q0 -46 24 -73t66 -27q53 0 86 43t33 110q0 45 -22.5 71.5t-63.5 26.5zM811 0l-66 436h-555l-188 -436h-4l189 436h-1l1 1 l413 956h2l213 -1393h-4zM192 440h552l-144 944z" />
<glyph unicode="&#xc6;" horiz-adv-x="1271" d="M1219 1389h-601l49 -648h445v-4h-444l55 -733h393v-4h-397l-32 420h-516l-191 -420h-5l637 1393h607v-4zM687 424l-73 965l-441 -965h514z" />
<glyph unicode="&#xc7;" horiz-adv-x="899" d="M719 1413q151 0 246 -117l-2 -4q-95 117 -244 117q-120 0 -218 -62t-161 -160t-106.5 -226t-61.5 -254.5t-18 -249.5q0 -227 85.5 -349t241.5 -122q152 0 289 120l2 -4q-137 -120 -291 -120h-1l-29 -152q69 -2 103 -28t34 -83q0 -54 -34.5 -93.5t-98.5 -39.5 q-60 0 -101 33l4 2q40 -31 97 -31q62 0 95.5 38.5t33.5 90.5q0 56 -33.5 80.5t-104.5 26.5l30 156q-156 2 -241 125t-85 350q0 87 9.5 177.5t30.5 185t52 180t77.5 161.5t103.5 131.5t133 88t163 32.5z" />
<glyph unicode="&#xc8;" horiz-adv-x="829" d="M506 1724l260 -141l-2 -4l-260 141zM850 1393v-4h-508l-90 -648h436v-4h-436l-105 -733h527v-4h-531l195 1393h512z" />
<glyph unicode="&#xc9;" horiz-adv-x="829" d="M782 1724l2 -4l-297 -141l-2 4zM850 1393v-4h-508l-90 -648h436v-4h-436l-105 -733h527v-4h-531l195 1393h512z" />
<glyph unicode="&#xca;" horiz-adv-x="829" d="M432 1577l-4 2l203 162h4l160 -162l-4 -2l-158 160zM850 1393v-4h-508l-90 -648h436v-4h-436l-105 -733h527v-4h-531l195 1393h512z" />
<glyph unicode="&#xcb;" horiz-adv-x="829" d="M510 1649q-12 0 -12 12t12 12t12 -12t-12 -12zM762 1649q-12 0 -12 12t12 12t12 -12t-12 -12zM850 1393v-4h-508l-90 -648h436v-4h-436l-105 -733h527v-4h-531l195 1393h512z" />
<glyph unicode="&#xcc;" horiz-adv-x="438" d="M248 1724l260 -141l-2 -4l-260 141zM342 1393l-195 -1393h-4l195 1393h4z" />
<glyph unicode="&#xcd;" horiz-adv-x="438" d="M524 1724l2 -4l-297 -141l-2 4zM342 1393l-195 -1393h-4l195 1393h4z" />
<glyph unicode="&#xce;" horiz-adv-x="438" d="M174 1577l-4 2l203 162h4l160 -162l-5 -2l-157 160zM342 1393l-195 -1393h-4l195 1393h4z" />
<glyph unicode="&#xcf;" horiz-adv-x="438" d="M252 1649q-12 0 -12 12t12 12t12 -12t-12 -12zM504 1649q-12 0 -12 12t12 12t12 -12t-12 -12zM342 1393l-195 -1393h-4l195 1393h4z" />
<glyph unicode="&#xd0;" horiz-adv-x="1069" d="M563 1393q404 0 404 -445q0 -116 -14.5 -226.5t-45 -218.5t-81.5 -198t-118.5 -159t-163 -107.5t-208.5 -38.5h-186l100 721h-156v4h157l93 668h219zM336 4q135 0 243.5 56t178.5 147.5t117.5 216t67.5 254.5t20 270q0 441 -400 441h-215l-93 -664h331v-4h-332l-100 -717 h182z" />
<glyph unicode="&#xd1;" horiz-adv-x="1097" d="M809 1663q-31 0 -63.5 22.5t-62.5 45t-56 22.5q-28 0 -51.5 -16t-61.5 -56l-4 2q40 42 64 58t53 16q27 0 57.5 -22.5t62.5 -45t62 -22.5q31 0 55 17t58 59l4 -2q-36 -44 -60.5 -61t-56.5 -17zM1001 1393l-194 -1393h-6l-459 1386q-26 -182 -31 -215l-164 -1171h-4 l195 1393h6l459 -1387l39 273l155 1114h4z" />
<glyph unicode="&#xd2;" horiz-adv-x="1167" d="M629 1724l260 -141l-2 -4l-260 141zM723 1413q166 0 255 -122t89 -353q0 -81 -9 -167t-29.5 -180.5t-51.5 -181t-78 -165t-105 -136.5t-137 -92t-170 -34q-165 0 -252.5 122t-87.5 351q0 96 14 199.5t42.5 212.5t76 206t109 173.5t148 121.5t186.5 45zM723 1409 q-119 0 -218 -64.5t-162.5 -165.5t-108 -230t-63.5 -253.5t-19 -240.5q0 -228 85.5 -348.5t249.5 -120.5q105 0 193.5 45t150 122.5t108 173.5t72.5 205t39 210t13 196q0 230 -87.5 350.5t-252.5 120.5z" />
<glyph unicode="&#xd3;" horiz-adv-x="1167" d="M905 1724l2 -4l-297 -141l-2 4zM723 1413q166 0 255 -122t89 -353q0 -81 -9 -167t-29.5 -180.5t-51.5 -181t-78 -165t-105 -136.5t-137 -92t-170 -34q-165 0 -252.5 122t-87.5 351q0 96 14 199.5t42.5 212.5t76 206t109 173.5t148 121.5t186.5 45zM723 1409 q-119 0 -218 -64.5t-162.5 -165.5t-108 -230t-63.5 -253.5t-19 -240.5q0 -228 85.5 -348.5t249.5 -120.5q105 0 193.5 45t150 122.5t108 173.5t72.5 205t39 210t13 196q0 230 -87.5 350.5t-252.5 120.5z" />
<glyph unicode="&#xd4;" horiz-adv-x="1167" d="M555 1577l-4 2l203 162h4l160 -162l-5 -2l-157 160zM723 1413q166 0 255 -122t89 -353q0 -81 -9 -167t-29.5 -180.5t-51.5 -181t-78 -165t-105 -136.5t-137 -92t-170 -34q-165 0 -252.5 122t-87.5 351q0 96 14 199.5t42.5 212.5t76 206t109 173.5t148 121.5t186.5 45z M723 1409q-119 0 -218 -64.5t-162.5 -165.5t-108 -230t-63.5 -253.5t-19 -240.5q0 -228 85.5 -348.5t249.5 -120.5q105 0 193.5 45t150 122.5t108 173.5t72.5 205t39 210t13 196q0 230 -87.5 350.5t-252.5 120.5z" />
<glyph unicode="&#xd5;" horiz-adv-x="1167" d="M854 1663q-31 0 -63.5 22.5t-62.5 45t-56 22.5q-28 0 -51.5 -16t-61.5 -56l-4 2q40 42 64 58t53 16q27 0 57.5 -22.5t62.5 -45t62 -22.5q31 0 55 17t58 59l4 -2q-36 -44 -60.5 -61t-56.5 -17zM723 1413q166 0 255 -122t89 -353q0 -81 -9 -167t-29.5 -180.5t-51.5 -181 t-78 -165t-105 -136.5t-137 -92t-170 -34q-165 0 -252.5 122t-87.5 351q0 96 14 199.5t42.5 212.5t76 206t109 173.5t148 121.5t186.5 45zM723 1409q-119 0 -218 -64.5t-162.5 -165.5t-108 -230t-63.5 -253.5t-19 -240.5q0 -228 85.5 -348.5t249.5 -120.5q105 0 193.5 45 t150 122.5t108 173.5t72.5 205t39 210t13 196q0 230 -87.5 350.5t-252.5 120.5z" />
<glyph unicode="&#xd6;" horiz-adv-x="1167" d="M633 1649q-12 0 -12 12t12 12t12 -12t-12 -12zM885 1649q-13 0 -13 12t13 12q12 0 12 -12t-12 -12zM723 1413q166 0 255 -122t89 -353q0 -81 -9 -167t-29.5 -180.5t-51.5 -181t-78 -165t-105 -136.5t-137 -92t-170 -34q-165 0 -252.5 122t-87.5 351q0 96 14 199.5 t42.5 212.5t76 206t109 173.5t148 121.5t186.5 45zM723 1409q-119 0 -218 -64.5t-162.5 -165.5t-108 -230t-63.5 -253.5t-19 -240.5q0 -228 85.5 -348.5t249.5 -120.5q105 0 193.5 45t150 122.5t108 173.5t72.5 205t39 210t13 196q0 230 -87.5 350.5t-252.5 120.5z" />
<glyph unicode="&#xd7;" horiz-adv-x="825" d="M686 909l4 -2l-258 -276l182 -279l-4 -2l-182 279l-260 -279l-4 2l260 279l-184 276l4 2l184 -276z" />
<glyph unicode="&#xd8;" horiz-adv-x="1167" d="M877 1379q190 -97 190 -441q0 -81 -9 -167t-29.5 -180.5t-51.5 -181t-78 -165t-105 -136.5t-137 -92t-170 -34q-76 0 -133 25l-84 -218l-4 2l84 218q-203 91 -203 446q0 96 14 199.5t42.5 212.5t76 206t109 173.5t148 121.5t186.5 45q84 0 150 -32l88 231l4 -2zM152 455 q0 -354 198 -442l520 1365q-63 31 -147 31q-119 0 -218 -64.5t-162.5 -165.5t-108 -230t-63.5 -253.5t-19 -240.5zM487 -14q105 0 193.5 45t150 122.5t108 173.5t72.5 205t39 210t13 196q0 343 -189 438l-519 -1365q57 -25 132 -25z" />
<glyph unicode="&#xd9;" horiz-adv-x="1058" d="M557 1724l260 -141l-2 -4l-260 141zM981 1393l-147 -1063q-10 -71 -37 -131.5t-72 -110t-114.5 -78t-157.5 -28.5q-70 0 -124.5 19t-87 51.5t-52.5 77t-22.5 95t3.5 105.5l147 1063h5l-148 -1063q-6 -54 -4 -104t22 -94t52 -76.5t85.5 -51t123.5 -18.5q168 0 261.5 97.5 t114.5 246.5l148 1063h4z" />
<glyph unicode="&#xda;" horiz-adv-x="1058" d="M834 1724l2 -4l-297 -141l-2 4zM981 1393l-147 -1063q-10 -71 -37 -131.5t-72 -110t-114.5 -78t-157.5 -28.5q-70 0 -124.5 19t-87 51.5t-52.5 77t-22.5 95t3.5 105.5l147 1063h5l-148 -1063q-6 -54 -4 -104t22 -94t52 -76.5t85.5 -51t123.5 -18.5q168 0 261.5 97.5 t114.5 246.5l148 1063h4z" />
<glyph unicode="&#xdb;" horiz-adv-x="1058" d="M483 1577l-4 2l203 162h4l160 -162l-4 -2l-158 160zM981 1393l-147 -1063q-10 -71 -37 -131.5t-72 -110t-114.5 -78t-157.5 -28.5q-70 0 -124.5 19t-87 51.5t-52.5 77t-22.5 95t3.5 105.5l147 1063h5l-148 -1063q-6 -54 -4 -104t22 -94t52 -76.5t85.5 -51t123.5 -18.5 q168 0 261.5 97.5t114.5 246.5l148 1063h4z" />
<glyph unicode="&#xdc;" horiz-adv-x="1058" d="M561 1649q-12 0 -12 12t12 12t12 -12t-12 -12zM813 1649q-12 0 -12 12t12 12t12 -12t-12 -12zM981 1393l-147 -1063q-10 -71 -37 -131.5t-72 -110t-114.5 -78t-157.5 -28.5q-70 0 -124.5 19t-87 51.5t-52.5 77t-22.5 95t3.5 105.5l147 1063h5l-148 -1063q-6 -54 -4 -104 t22 -94t52 -76.5t85.5 -51t123.5 -18.5q168 0 261.5 97.5t114.5 246.5l148 1063h4z" />
<glyph unicode="&#xdd;" horiz-adv-x="802" d="M707 1724l2 -4l-297 -141l-2 4zM883 1393l-475 -838l-78 -555h-4l77 555l-241 838h4l240 -834l473 834h4z" />
<glyph unicode="&#xde;" horiz-adv-x="913" d="M504 1126q348 0 348 -305q0 -74 -13.5 -142t-48.5 -135.5t-88 -117t-138.5 -80.5t-194.5 -31h-177l-45 -315h-4l195 1393h4l-37 -267h199zM371 319q108 0 192.5 30.5t137 79.5t86.5 116.5t47.5 135t13.5 140.5q0 154 -86 227.5t-258 73.5h-200l-112 -803h179z" />
<glyph unicode="&#xdf;" horiz-adv-x="966" d="M-76 -391l-2 2q101 60 147 134.5t68 236.5l158 1126q26 184 117.5 288.5t218.5 104.5q92 0 144 -56.5t52 -146.5q0 -56 -14.5 -102.5t-37.5 -78.5t-50.5 -59.5t-55 -51t-50.5 -47.5t-37.5 -54.5t-14.5 -66.5q0 -32 14 -62t36.5 -56t49.5 -54t54 -61.5t49.5 -72t36.5 -93 t14 -117.5q0 -55 -15 -111t-45.5 -109.5t-86 -87.5t-127.5 -34q-53 0 -100.5 17t-75.5 40v4q29 -24 76.5 -40.5t99.5 -16.5q71 0 126 33t85 86t44.5 108t14.5 108q0 63 -14 117.5t-36.5 93.5t-49.5 72.5t-54 61.5t-49.5 54.5t-36.5 56.5t-14 63q0 49 27 89.5t65 72.5 t76 68.5t65 95t27 134.5q0 88 -51.5 143.5t-142.5 55.5q-124 0 -214 -103t-116 -286l-158 -1126q-15 -112 -43 -182t-66.5 -110t-107.5 -81z" />
<glyph unicode="&#xe0;" d="M532 1528l256 -170l-2 -2l-256 168zM588 1079q113 0 196 -57l-106 -774q-19 -108 -11.5 -171.5t58.5 -90.5l-2 -4q-22 12 -36 29.5t-20 37t-6.5 48t2 53.5t6.5 62l3 24q-137 -254 -316 -254q-117 0 -179 97t-62 257q0 83 12 167.5t35.5 169t63 157t90 128.5t121 88.5 t151.5 32.5zM588 1075q-81 0 -150.5 -32t-120 -88t-89 -128.5t-62 -156t-35.5 -167.5t-12 -167q0 -159 61 -254.5t176 -95.5q178 0 318 262l106 772q-80 55 -192 55z" />
<glyph unicode="&#xe1;" d="M795 1528l2 -4l-305 -168v4zM588 1079q113 0 196 -57l-106 -774q-19 -108 -11.5 -171.5t58.5 -90.5l-2 -4q-22 12 -36 29.5t-20 37t-6.5 48t2 53.5t6.5 62l3 24q-137 -254 -316 -254q-117 0 -179 97t-62 257q0 83 12 167.5t35.5 169t63 157t90 128.5t121 88.5t151.5 32.5 zM588 1075q-81 0 -150.5 -32t-120 -88t-89 -128.5t-62 -156t-35.5 -167.5t-12 -167q0 -159 61 -254.5t176 -95.5q178 0 318 262l106 772q-80 55 -192 55z" />
<glyph unicode="&#xe2;" d="M451 1352l-5 2l207 172h4l156 -172l-4 -2l-154 170zM588 1079q113 0 196 -57l-106 -774q-19 -108 -11.5 -171.5t58.5 -90.5l-2 -4q-22 12 -36 29.5t-20 37t-6.5 48t2 53.5t6.5 62l3 24q-137 -254 -316 -254q-117 0 -179 97t-62 257q0 83 12 167.5t35.5 169t63 157 t90 128.5t121 88.5t151.5 32.5zM588 1075q-81 0 -150.5 -32t-120 -88t-89 -128.5t-62 -156t-35.5 -167.5t-12 -167q0 -159 61 -254.5t176 -95.5q178 0 318 262l106 772q-80 55 -192 55z" />
<glyph unicode="&#xe3;" d="M735 1405q-31 0 -63.5 22.5t-62.5 45t-56 22.5q-28 0 -51.5 -16t-61.5 -56l-4 2q40 42 64 58t53 16q27 0 57.5 -22.5t62.5 -45t62 -22.5q31 0 55 17t58 59l4 -2q-36 -44 -60.5 -61t-56.5 -17zM588 1079q113 0 196 -57l-106 -774q-19 -108 -11.5 -171.5t58.5 -90.5l-2 -4 q-22 12 -36 29.5t-20 37t-6.5 48t2 53.5t6.5 62l3 24q-137 -254 -316 -254q-117 0 -179 97t-62 257q0 83 12 167.5t35.5 169t63 157t90 128.5t121 88.5t151.5 32.5zM588 1075q-81 0 -150.5 -32t-120 -88t-89 -128.5t-62 -156t-35.5 -167.5t-12 -167q0 -159 61 -254.5 t176 -95.5q178 0 318 262l106 772q-80 55 -192 55z" />
<glyph unicode="&#xe4;" d="M512 1391q-12 0 -12 12t12 12t12 -12t-12 -12zM764 1391q-12 0 -12 12t12 12t12 -12t-12 -12zM588 1079q113 0 196 -57l-106 -774q-19 -108 -11.5 -171.5t58.5 -90.5l-2 -4q-22 12 -36 29.5t-20 37t-6.5 48t2 53.5t6.5 62l3 24q-137 -254 -316 -254q-117 0 -179 97 t-62 257q0 83 12 167.5t35.5 169t63 157t90 128.5t121 88.5t151.5 32.5zM588 1075q-81 0 -150.5 -32t-120 -88t-89 -128.5t-62 -156t-35.5 -167.5t-12 -167q0 -159 61 -254.5t176 -95.5q178 0 318 262l106 772q-80 55 -192 55z" />
<glyph unicode="&#xe5;" d="M666 1602q42 0 66 -28t24 -75q0 -68 -34 -113t-89 -45q-44 0 -69 28.5t-25 76.5q0 69 35 112.5t92 43.5zM666 1597q-55 0 -89 -41.5t-34 -109.5q0 -46 24 -73t66 -27q53 0 86 43t33 110q0 45 -22.5 71.5t-63.5 26.5zM588 1079q113 0 196 -57l-106 -774 q-19 -108 -11.5 -171.5t58.5 -90.5l-2 -4q-22 12 -36 29.5t-20 37t-6.5 48t2 53.5t6.5 62l3 24q-137 -254 -316 -254q-117 0 -179 97t-62 257q0 83 12 167.5t35.5 169t63 157t90 128.5t121 88.5t151.5 32.5zM588 1075q-81 0 -150.5 -32t-120 -88t-89 -128.5t-62 -156 t-35.5 -167.5t-12 -167q0 -159 61 -254.5t176 -95.5q178 0 318 262l106 772q-80 55 -192 55z" />
<glyph unicode="&#xe6;" horiz-adv-x="1382" d="M492 1079q100 0 162 -71.5t69 -221.5q129 293 373 293q100 0 162.5 -57t62.5 -158q0 -83 -36 -150t-97.5 -113.5t-148.5 -80t-184.5 -51t-209.5 -23.5q-37 -460 244 -460q78 0 141 29t135 91l2 -4q-73 -62 -136.5 -91t-141.5 -29q-212 0 -248 266q-90 -142 -172 -204 t-188 -62q-103 0 -158 69t-55 182q0 77 22 142.5t66.5 117.5t120.5 81.5t176 29.5h213q19 92 53 174q-3 149 -65.5 223t-161.5 74q-112 0 -259 -69v4q144 69 259 69zM1096 1075q-86 0 -158 -38t-121.5 -99.5t-86.5 -145t-56.5 -168t-28.5 -173.5q143 8 260.5 35t212 75 t147 125.5t52.5 177.5t-61.5 155.5t-159.5 55.5zM664 600h-211q-99 0 -174.5 -29t-119.5 -81t-65.5 -116.5t-21.5 -140.5q0 -111 54 -179t155 -68q106 0 187.5 64t172.5 204q-15 178 23 346z" />
<glyph unicode="&#xe7;" horiz-adv-x="790" d="M561 1079q131 0 207 -102l-4 -2q-75 100 -203 100q-133 0 -234.5 -101.5t-152.5 -264.5t-51 -357q0 -177 67.5 -271.5t190.5 -94.5q67 0 122 27t111 79l4 -2q-57 -52 -112.5 -80t-124.5 -28h-7l-30 -154q69 -2 103 -28t34 -83q0 -54 -34.5 -93.5t-98.5 -39.5 q-59 0 -100 33l4 2q40 -31 96 -31q62 0 95.5 38.5t33.5 90.5q0 56 -33 80.5t-104 26.5l30 158q-119 5 -185 100.5t-66 269.5q0 145 30.5 276t85.5 231.5t139.5 160t186.5 59.5z" />
<glyph unicode="&#xe8;" horiz-adv-x="864" d="M748 1358l-3 -2l-256 168l3 4zM803 864q0 -82 -36 -149.5t-97.5 -113.5t-148.5 -79t-184.5 -50.5t-210.5 -24.5q-5 -63 -5 -109q0 -171 65.5 -261.5t184.5 -90.5q78 0 141 29t135 91l2 -4q-73 -62 -136.5 -91t-141.5 -29q-121 0 -187.5 91.5t-66.5 264.5q0 93 15 190.5 t50 197.5t86.5 177.5t131.5 126.5t178 49q100 0 162.5 -57t62.5 -158zM578 1075q-86 0 -158.5 -38t-121.5 -100t-86 -145t-57 -167.5t-29 -173.5q114 6 211.5 24t184 51t147 79t95.5 112t35 147q0 100 -61.5 155.5t-159.5 55.5z" />
<glyph unicode="&#xe9;" horiz-adv-x="864" d="M754 1528l2 -4l-305 -168v4zM803 864q0 -82 -36 -149.5t-97.5 -113.5t-148.5 -79t-184.5 -50.5t-210.5 -24.5q-5 -63 -5 -109q0 -171 65.5 -261.5t184.5 -90.5q78 0 141 29t135 91l2 -4q-73 -62 -136.5 -91t-141.5 -29q-121 0 -187.5 91.5t-66.5 264.5q0 93 15 190.5 t50 197.5t86.5 177.5t131.5 126.5t178 49q100 0 162.5 -57t62.5 -158zM578 1075q-86 0 -158.5 -38t-121.5 -100t-86 -145t-57 -167.5t-29 -173.5q114 6 211.5 24t184 51t147 79t95.5 112t35 147q0 100 -61.5 155.5t-159.5 55.5z" />
<glyph unicode="&#xea;" horiz-adv-x="864" d="M614 1522l-204 -170l-4 2l206 172h4l156 -172l-4 -2zM803 864q0 -82 -36 -149.5t-97.5 -113.5t-148.5 -79t-184.5 -50.5t-210.5 -24.5q-5 -63 -5 -109q0 -171 65.5 -261.5t184.5 -90.5q78 0 141 29t135 91l2 -4q-73 -62 -136.5 -91t-141.5 -29q-121 0 -187.5 91.5 t-66.5 264.5q0 93 15 190.5t50 197.5t86.5 177.5t131.5 126.5t178 49q100 0 162.5 -57t62.5 -158zM578 1075q-86 0 -158.5 -38t-121.5 -100t-86 -145t-57 -167.5t-29 -173.5q114 6 211.5 24t184 51t147 79t95.5 112t35 147q0 100 -61.5 155.5t-159.5 55.5z" />
<glyph unicode="&#xeb;" horiz-adv-x="864" d="M471 1391q-12 0 -12 12t12 12t12 -12t-12 -12zM723 1391q-12 0 -12 12t12 12t12 -12t-12 -12zM803 864q0 -82 -36 -149.5t-97.5 -113.5t-148.5 -79t-184.5 -50.5t-210.5 -24.5q-5 -63 -5 -109q0 -171 65.5 -261.5t184.5 -90.5q78 0 141 29t135 91l2 -4 q-73 -62 -136.5 -91t-141.5 -29q-121 0 -187.5 91.5t-66.5 264.5q0 93 15 190.5t50 197.5t86.5 177.5t131.5 126.5t178 49q100 0 162.5 -57t62.5 -158zM578 1075q-86 0 -158.5 -38t-121.5 -100t-86 -145t-57 -167.5t-29 -173.5q114 6 211.5 24t184 51t147 79t95.5 112 t35 147q0 100 -61.5 155.5t-159.5 55.5z" />
<glyph unicode="&#xec;" horiz-adv-x="421" d="M227 1528l256 -170l-2 -2l-256 168zM287 1059l-148 -1059h-4l148 1059h4z" />
<glyph unicode="&#xed;" horiz-adv-x="421" d="M489 1528l3 -4l-306 -168v4zM287 1059l-148 -1059h-4l148 1059h4z" />
<glyph unicode="&#xee;" horiz-adv-x="421" d="M145 1352l-4 2l207 172h4l156 -172l-4 -2l-154 170zM287 1059l-148 -1059h-4l148 1059h4z" />
<glyph unicode="&#xef;" horiz-adv-x="421" d="M207 1391q-12 0 -12 12t12 12t12 -12t-12 -12zM459 1391q-13 0 -13 12t13 12q12 0 12 -12t-12 -12zM287 1059l-148 -1059h-4l148 1059h4z" />
<glyph unicode="&#xf0;" horiz-adv-x="937" d="M648 1371q163 -160 163 -472q0 -116 -17 -239t-54 -245t-89 -218t-129 -155.5t-168 -59.5q-119 0 -182 89.5t-63 245.5q0 69 14 148.5t46 164t77 152t114.5 111t151.5 43.5q96 0 168 -66t115 -180q11 99 12 182.5t-11.5 176t-50.5 174.5t-100 145l-180 -188l-4 2l181 189 q-89 89 -218 128l2 4q127 -39 219 -129l129 135l4 -2zM354 -14q75 0 141 41.5t114 110t86 160.5t61 187.5t36 196.5q-96 250 -280 250q-82 0 -150.5 -43.5t-113.5 -110.5t-76.5 -151t-45 -162.5t-13.5 -147.5q0 -154 61.5 -242.5t179.5 -88.5z" />
<glyph unicode="&#xf1;" horiz-adv-x="974" d="M713 1405q-31 0 -63.5 22.5t-63 45t-56.5 22.5q-27 0 -50 -15.5t-62 -56.5l-4 2q40 42 63.5 58t52.5 16q27 0 58 -22.5t63 -45t62 -22.5q31 0 54.5 17t57.5 59l4 -2q-36 -44 -60 -61t-56 -17zM618 1079q111 0 159.5 -83t29.5 -222l-109 -774h-4l109 774q19 137 -28 219 t-157 82t-198.5 -88.5t-183.5 -292.5l-97 -694h-4l148 1059h4l-49 -352q93 198 181 285t199 87z" />
<glyph unicode="&#xf2;" horiz-adv-x="940" d="M506 1528l256 -170l-2 -2l-256 168zM379 -18q-126 0 -194 96.5t-68 269.5q0 77 11 158t32.5 164t58.5 156t84.5 130t114.5 90t145 33q125 0 192.5 -94.5t67.5 -267.5q0 -92 -14 -188.5t-48 -195.5t-83.5 -176t-127 -126t-171.5 -49zM379 -14q94 0 170.5 48.5t125.5 125 t82.5 175.5t47.5 194.5t14 187.5q0 171 -66 264.5t-190 93.5q-78 0 -144.5 -33t-113.5 -90t-83.5 -129t-58 -155t-32 -163t-10.5 -157q0 -172 66.5 -267t191.5 -95z" />
<glyph unicode="&#xf3;" horiz-adv-x="940" d="M768 1528l2 -4l-305 -168v4zM379 -18q-126 0 -194 96.5t-68 269.5q0 77 11 158t32.5 164t58.5 156t84.5 130t114.5 90t145 33q125 0 192.5 -94.5t67.5 -267.5q0 -92 -14 -188.5t-48 -195.5t-83.5 -176t-127 -126t-171.5 -49zM379 -14q94 0 170.5 48.5t125.5 125 t82.5 175.5t47.5 194.5t14 187.5q0 171 -66 264.5t-190 93.5q-78 0 -144.5 -33t-113.5 -90t-83.5 -129t-58 -155t-32 -163t-10.5 -157q0 -172 66.5 -267t191.5 -95z" />
<glyph unicode="&#xf4;" horiz-adv-x="940" d="M424 1352l-4 2l207 172h4l155 -172l-4 -2l-153 170zM379 -18q-126 0 -194 96.5t-68 269.5q0 77 11 158t32.5 164t58.5 156t84.5 130t114.5 90t145 33q125 0 192.5 -94.5t67.5 -267.5q0 -92 -14 -188.5t-48 -195.5t-83.5 -176t-127 -126t-171.5 -49zM379 -14 q94 0 170.5 48.5t125.5 125t82.5 175.5t47.5 194.5t14 187.5q0 171 -66 264.5t-190 93.5q-78 0 -144.5 -33t-113.5 -90t-83.5 -129t-58 -155t-32 -163t-10.5 -157q0 -172 66.5 -267t191.5 -95z" />
<glyph unicode="&#xf5;" horiz-adv-x="940" d="M709 1405q-31 0 -63.5 22.5t-63 45t-56.5 22.5q-27 0 -50 -15.5t-62 -56.5l-4 2q40 42 63.5 58t52.5 16q27 0 58 -22.5t63 -45t62 -22.5q31 0 54.5 17t57.5 59l4 -2q-36 -44 -60 -61t-56 -17zM379 -18q-126 0 -194 96.5t-68 269.5q0 77 11 158t32.5 164t58.5 156 t84.5 130t114.5 90t145 33q125 0 192.5 -94.5t67.5 -267.5q0 -92 -14 -188.5t-48 -195.5t-83.5 -176t-127 -126t-171.5 -49zM379 -14q94 0 170.5 48.5t125.5 125t82.5 175.5t47.5 194.5t14 187.5q0 171 -66 264.5t-190 93.5q-78 0 -144.5 -33t-113.5 -90t-83.5 -129 t-58 -155t-32 -163t-10.5 -157q0 -172 66.5 -267t191.5 -95z" />
<glyph unicode="&#xf6;" horiz-adv-x="940" d="M485 1391q-12 0 -12 12t12 12q13 0 13 -12t-13 -12zM737 1391q-12 0 -12 12t12 12q13 0 13 -12t-13 -12zM379 -18q-126 0 -194 96.5t-68 269.5q0 77 11 158t32.5 164t58.5 156t84.5 130t114.5 90t145 33q125 0 192.5 -94.5t67.5 -267.5q0 -92 -14 -188.5t-48 -195.5 t-83.5 -176t-127 -126t-171.5 -49zM379 -14q94 0 170.5 48.5t125.5 125t82.5 175.5t47.5 194.5t14 187.5q0 171 -66 264.5t-190 93.5q-78 0 -144.5 -33t-113.5 -90t-83.5 -129t-58 -155t-32 -163t-10.5 -157q0 -172 66.5 -267t191.5 -95z" />
<glyph unicode="&#xf7;" horiz-adv-x="831" d="M485 1069q-14 0 -14 14q0 15 14 15q6 0 10.5 -4.5t4.5 -10.5q0 -14 -15 -14zM176 676v4h518v-4h-518zM375 258q-15 0 -15 14q0 6 4.5 10.5t10.5 4.5q14 0 14 -15q0 -14 -14 -14z" />
<glyph unicode="&#xf8;" horiz-adv-x="940" d="M684 1050q139 -78 139 -333q0 -92 -14 -188.5t-48 -195.5t-83.5 -176t-127 -126t-171.5 -49q-69 0 -119 28l-100 -239h-4l100 241q-139 81 -139 336q0 77 11 158t32.5 164t58.5 156t84.5 130t114.5 90t145 33q67 0 117 -27l98 238h4zM121 348q0 -253 136 -332l1 2v2 l420 1024v3l1 1q-50 27 -116 27q-78 0 -144.5 -33t-113.5 -90t-83.5 -129t-58 -155t-32 -163t-10.5 -157zM379 -14q94 0 170.5 48.5t125.5 125t82.5 175.5t47.5 194.5t14 187.5q0 253 -136 329l-1 -2v-2l-420 -1024v-2l-1 -2q50 -28 118 -28z" />
<glyph unicode="&#xf9;" horiz-adv-x="966" d="M498 1528l256 -170l-2 -2l-256 168zM360 -18q-108 0 -159 80.5t-31 224.5l106 772h5l-107 -772q-20 -140 30 -220.5t156 -80.5q113 0 206 90.5t161 257.5l100 725h4l-147 -1059h-4l47 326q-67 -165 -160.5 -254.5t-206.5 -89.5z" />
<glyph unicode="&#xfa;" horiz-adv-x="966" d="M760 1528l2 -4l-305 -168v4zM360 -18q-108 0 -159 80.5t-31 224.5l106 772h5l-107 -772q-20 -140 30 -220.5t156 -80.5q113 0 206 90.5t161 257.5l100 725h4l-147 -1059h-4l47 326q-67 -165 -160.5 -254.5t-206.5 -89.5z" />
<glyph unicode="&#xfb;" horiz-adv-x="966" d="M416 1352l-4 2l206 172h5l155 -172l-4 -2l-153 170zM360 -18q-108 0 -159 80.5t-31 224.5l106 772h5l-107 -772q-20 -140 30 -220.5t156 -80.5q113 0 206 90.5t161 257.5l100 725h4l-147 -1059h-4l47 326q-67 -165 -160.5 -254.5t-206.5 -89.5z" />
<glyph unicode="&#xfc;" horiz-adv-x="966" d="M477 1391q-12 0 -12 12t12 12t12 -12t-12 -12zM729 1391q-12 0 -12 12t12 12t12 -12t-12 -12zM360 -18q-108 0 -159 80.5t-31 224.5l106 772h5l-107 -772q-20 -140 30 -220.5t156 -80.5q113 0 206 90.5t161 257.5l100 725h4l-147 -1059h-4l47 326q-67 -165 -160.5 -254.5 t-206.5 -89.5z" />
<glyph unicode="&#xfd;" horiz-adv-x="743" d="M649 1528l2 -4l-305 -168v4zM760 1059l-449 -1059q-33 -78 -54.5 -123.5t-50.5 -92.5t-59 -75.5t-71 -53t-96 -42.5v4q67 23 112 51.5t83 79.5t64 102t68 150h-4l-172 1059h4l172 -1057l449 1057h4z" />
<glyph unicode="&#xfe;" horiz-adv-x="950" d="M602 1079q236 0 236 -338q0 -80 -11.5 -164.5t-34 -170.5t-60 -161.5t-85.5 -134.5t-114.5 -93.5t-143.5 -34.5q-135 0 -244 71l-61 -440l-4 -2l264 1884h4l-88 -631q84 103 167 159t175 56zM389 -14q91 0 167 49t126 128t85.5 180t51 201.5t15.5 196.5q0 334 -232 334 q-169 0 -342 -217l-113 -801q109 -71 242 -71z" />
<glyph unicode="&#xff;" horiz-adv-x="743" d="M367 1391q-13 0 -13 12t13 12q12 0 12 -12t-12 -12zM618 1391q-12 0 -12 12t12 12q13 0 13 -12t-13 -12zM760 1059l-449 -1059q-33 -78 -54.5 -123.5t-50.5 -92.5t-59 -75.5t-71 -53t-96 -42.5v4q67 23 112 51.5t83 79.5t64 102t68 150h-4l-172 1059h4l172 -1057 l449 1057h4z" />
<glyph unicode="&#x152;" horiz-adv-x="1402" d="M1425 1393v-4h-620q95 -44 147 -158.5t52 -292.5q0 -85 -13 -197h273l-2 -4h-271q-15 -119 -45 -230t-77.5 -215t-120 -180.5t-160.5 -107.5h659v-4h-671q-48 -18 -113 -18q-150 0 -233 123t-83 350q0 115 19 241.5t62 255t103.5 230.5t152.5 166.5t200 64.5 q63 0 112 -20h629zM999 938q0 228 -83.5 349.5t-233.5 121.5q-108 0 -198.5 -64t-150.5 -165.5t-102 -230t-60.5 -254t-18.5 -240.5q0 -226 81.5 -347.5t229.5 -121.5q82 0 154.5 34t126 91.5t97 136t72.5 164.5t49 180t28.5 180t8.5 166z" />
<glyph unicode="&#x153;" horiz-adv-x="1538" d="M1477 864q0 -82 -36 -149.5t-97.5 -113.5t-148.5 -79t-184.5 -50.5t-210.5 -24.5q-5 -63 -5 -109q0 -171 65 -261.5t184 -90.5q78 0 142 29t135 91l2 -4q-73 -62 -137 -91t-142 -29q-121 0 -187 91.5t-66 264.5q0 67 7 131q-20 -97 -53.5 -180t-83.5 -154t-122.5 -112 t-159.5 -41q-126 0 -194 96.5t-68 269.5q0 77 11 158t32.5 164t58.5 156t84.5 130t114.5 90t145 33q125 0 192.5 -94.5t67.5 -267.5q0 -68 -7 -134q16 78 40.5 147t62 134t84.5 112t111 75t137 28q100 0 163 -57t63 -158zM379 -14q94 0 170.5 48.5t125.5 125t82.5 175.5 t47.5 194.5t14 187.5q0 171 -66 264.5t-190 93.5q-78 0 -144.5 -33t-113.5 -90t-83.5 -129t-58 -155t-32 -163t-10.5 -157q0 -172 66.5 -267t191.5 -95zM1251 1075q-86 0 -158 -38t-121.5 -100t-86.5 -145t-56.5 -167.5t-28.5 -173.5q114 6 211.5 24t184 51t147 79t95.5 112 t35 147q0 100 -62 155.5t-160 55.5z" />
<glyph unicode="&#x178;" horiz-adv-x="802" d="M434 1649q-12 0 -12 12t12 12t12 -12t-12 -12zM686 1649q-12 0 -12 12t12 12t12 -12t-12 -12zM883 1393l-475 -838l-78 -555h-4l77 555l-241 838h4l240 -834l473 834h4z" />
<glyph unicode="&#x2c6;" horiz-adv-x="489" d="M182 1352l-4 2l207 172h4l156 -172l-4 -2l-154 170z" />
<glyph unicode="&#x2dc;" horiz-adv-x="530" d="M485 1405q-31 0 -63.5 22.5t-62.5 45t-56 22.5q-28 0 -51.5 -16t-61.5 -56l-4 2q40 42 64 58t53 16q27 0 57.5 -22.5t62.5 -45t62 -22.5q31 0 55 17t58 59l4 -2q-36 -44 -60.5 -61t-56.5 -17z" />
<glyph unicode="&#x2000;" horiz-adv-x="930" />
<glyph unicode="&#x2001;" horiz-adv-x="1860" />
<glyph unicode="&#x2002;" horiz-adv-x="930" />
<glyph unicode="&#x2003;" horiz-adv-x="1860" />
<glyph unicode="&#x2004;" horiz-adv-x="620" />
<glyph unicode="&#x2005;" horiz-adv-x="465" />
<glyph unicode="&#x2006;" horiz-adv-x="310" />
<glyph unicode="&#x2007;" horiz-adv-x="310" />
<glyph unicode="&#x2008;" horiz-adv-x="232" />
<glyph unicode="&#x2009;" horiz-adv-x="372" />
<glyph unicode="&#x200a;" horiz-adv-x="103" />
<glyph unicode="&#x2010;" horiz-adv-x="675" d="M160 637v4h387v-4h-387z" />
<glyph unicode="&#x2011;" horiz-adv-x="675" d="M160 637v4h387v-4h-387z" />
<glyph unicode="&#x2012;" horiz-adv-x="675" d="M160 637v4h387v-4h-387z" />
<glyph unicode="&#x2013;" horiz-adv-x="876" d="M111 637v4h686v-4h-686z" />
<glyph unicode="&#x2014;" horiz-adv-x="1298" d="M111 637v4h1108v-4h-1108z" />
<glyph unicode="&#x2018;" horiz-adv-x="403" d="M305 1327q-10 0 -10 10q0 8 10 31l107 231h4l-111 -251q10 0 10 -11q0 -10 -10 -10z" />
<glyph unicode="&#x2019;" horiz-adv-x="401" d="M338 1444q10 0 10 -10q0 -8 -10 -31l-107 -232h-4l111 252q-10 0 -10 11q0 10 10 10z" />
<glyph unicode="&#x201a;" horiz-adv-x="401" d="M137 18q10 0 10 -10q0 -8 -10 -31l-106 -231h-4l110 252q-10 0 -10 10t10 10z" />
<glyph unicode="&#x201c;" horiz-adv-x="534" d="M305 1327q-10 0 -10 10q0 8 10 31l107 231h4l-111 -251q10 0 10 -11q0 -10 -10 -10zM436 1327q-10 0 -10 10q0 8 10 31l107 231h4l-111 -251q10 0 10 -11q0 -10 -10 -10z" />
<glyph unicode="&#x201d;" horiz-adv-x="532" d="M338 1444q10 0 10 -10q0 -8 -10 -31l-107 -232h-4l111 252q-10 0 -10 11q0 10 10 10zM469 1444q10 0 10 -10q0 -8 -10 -31l-107 -232h-4l111 252q-10 0 -10 11q0 10 10 10z" />
<glyph unicode="&#x201e;" horiz-adv-x="532" d="M137 18q10 0 10 -10q0 -8 -10 -31l-106 -231h-4l110 252q-10 0 -10 10t10 10zM268 18q11 0 11 -10q0 -6 -11 -31l-106 -231h-4l110 252q-10 0 -10 10t10 10z" />
<glyph unicode="&#x2022;" horiz-adv-x="376" d="M215 737q14 0 14 -14t-14 -14t-14 14t14 14z" />
<glyph unicode="&#x2026;" horiz-adv-x="675" d="M39 -8q-14 0 -14 14t14 14t14 -14t-14 -14zM264 -8q-14 0 -14 14t14 14q15 0 15 -14t-15 -14zM489 -8q-14 0 -14 14t14 14q15 0 15 -14t-15 -14z" />
<glyph unicode="&#x202f;" horiz-adv-x="372" />
<glyph unicode="&#x2039;" horiz-adv-x="608" d="M487 1012l5 -2l-299 -420l184 -418l-4 -2l-185 418v4z" />
<glyph unicode="&#x203a;" horiz-adv-x="604" d="M252 1012l180 -420v-4l-299 -418l-4 2l299 418l-180 420z" />
<glyph unicode="&#x205f;" horiz-adv-x="465" />
<glyph unicode="&#x20ac;" horiz-adv-x="964" d="M760 1372q73 0 126.5 -24.5t104.5 -77.5l-2 -4q-49 53 -102.5 77.5t-126.5 24.5q-149 0 -277 -140.5t-204 -398.5h485v-4h-486l-44 -270h436l-2 -4h-435q-21 -282 53 -423.5t230 -141.5q115 0 234 84l2 -4q-120 -84 -236 -84q-157 0 -232.5 143t-54.5 426h-120v4h121 l44 270h-116v4h117q76 260 205 401.5t280 141.5z" />
<glyph unicode="&#x2122;" horiz-adv-x="1441" d="M684 1393v-4h-227l-107 -768h-4l107 768h-228v4h459zM1292 1393l-63 -772h-4l57 702q2 30 6 66l-330 -676h-4l-141 676q-5 -33 -18 -103l-127 -665h-4l147 772h4l141 -676l330 676h6z" />
<glyph unicode="&#x25fc;" horiz-adv-x="1054" d="M0 1055h1055v-1055h-1055v1055z" />
<glyph unicode="&#xfb03;" horiz-adv-x="1396" d="M1262 1059l-148 -1059h-4l147 1055h-472l-152 -1073q-21 -141 -57 -213.5t-107 -124.5l-2 2q70 53 106 125.5t56 210.5l152 1073h-480l-149 -1073q-15 -112 -43 -181.5t-66.5 -109.5t-108.5 -82l-2 2q101 60 147 134.5t68 236.5l150 1073h-152v4h153l26 186 q17 115 91 175.5t185 60.5q119 0 253 -86q62 106 189 106q62 0 108.5 -19t96.5 -59l-4 -2q-49 39 -94.5 57.5t-106.5 18.5q-92 0 -151 -58.5t-76 -172.5l-29 -207h476zM782 1059l29 207q10 72 42 128l-3 -1q-133 84 -250 84q-109 0 -182 -59t-90 -173l-26 -186h480z" />
<glyph unicode="&#xfb04;" horiz-adv-x="1460" d="M1221 -14q39 0 71 16l2 -4q-37 -16 -73 -16q-103 0 -84 129l188 1321q-141 65 -266 65q-100 0 -164.5 -58.5t-81.5 -172.5l-29 -207h250v-4h-251l-152 -1073q-21 -141 -57 -213.5t-107 -124.5l-2 2q70 53 106 125.5t56 210.5l152 1073h-478l-149 -1073 q-15 -112 -43 -181.5t-66.5 -109.5t-108.5 -82l-2 2q101 60 147 134.5t68 236.5l150 1073h-152v4h153l26 186q17 115 91 175.5t185 60.5q120 0 254 -86q67 106 205 106q129 0 268 -67h2l-188 -1323q-16 -125 80 -125zM809 1266q10 74 44 128l-3 -1q-133 84 -250 84 q-109 0 -182 -59t-90 -173l-26 -186h478z" />
</font>
</defs>
</svg>
