<?xml version="1.0" standalone="no"?>
<!DOCTYPE svg PUBLIC "-//W3C//DTD SVG 1.1//EN" "http://www.w3.org/Graphics/SVG/1.1/DTD/svg11.dtd" >
<svg xmlns="http://www.w3.org/2000/svg" xmlns:xlink="http://www.w3.org/1999/xlink" version="1.1">
<metadata></metadata>
<defs>
<font id="fira_sans_compressedhairIt" horiz-adv-x="962" >
<font-face units-per-em="2048" ascent="1638" descent="-410" />
<missing-glyph horiz-adv-x="503" />
<glyph unicode="&#xfb01;" horiz-adv-x="929" d="M802 1061l-148 -1061h-29l145 1035h-452l-147 -1046q-17 -117 -47 -189t-72 -112.5t-118 -83.5l-9 21q69 40 107.5 78.5t66 106.5t43.5 179l148 1046h-155l4 26h154l29 204q17 117 82 179t168 62q110 0 211 -80l-16 -20q-93 74 -197 74q-188 0 -220 -219l-28 -200h480z " />
<glyph unicode="&#xfb02;" horiz-adv-x="983" d="M752 8q35 0 70 15l8 -23q-41 -19 -82 -19q-55 0 -81 37t-16 106l184 1295q-137 61 -255 61q-198 0 -230 -219l-28 -200h246l-8 -26h-242l-147 -1046q-17 -117 -47 -189t-72 -112.5t-118 -83.5l-9 21q69 40 107.5 78.5t66 106.5t43.5 179l148 1046h-155l4 26h154l29 204 q17 117 85 179t175 62q129 0 257 -64l28 3l-187 -1322q-16 -115 72 -115z" />
<glyph horiz-adv-x="0" />
<glyph horiz-adv-x="682" />
<glyph unicode="&#xd;" horiz-adv-x="503" />
<glyph unicode=" "  horiz-adv-x="503" />
<glyph unicode="&#x09;" horiz-adv-x="503" />
<glyph unicode="&#xa0;" horiz-adv-x="503" />
<glyph unicode="!" horiz-adv-x="436" d="M183 403l136 991h29l-138 -991h-27zM145 -13q-15 0 -23.5 9t-8.5 22q0 15 10 25.5t25 10.5t23.5 -9t8.5 -22q0 -15 -10 -25.5t-25 -10.5z" />
<glyph unicode="&#x22;" horiz-adv-x="620" d="M212 907l64 487h29l-70 -487h-23zM492 907l64 487h29l-71 -487h-22z" />
<glyph unicode="#" horiz-adv-x="815" d="M848 946h-140l-124 -498h134l-6 -27h-134l-104 -421h-31l104 421h-362l-105 -421h-29l104 421h-145l6 27h146l124 498h-139l2 26h143l96 384h29l-95 -384h362l95 384h30l-95 -384h138zM554 448l123 498h-362l-123 -498h362z" />
<glyph unicode="$" horiz-adv-x="884" d="M598 1371q80 -4 140 -38.5t112 -95.5l-19 -18q-105 127 -254 127q-99 0 -173.5 -47t-111.5 -121t-37 -162q0 -96 52 -156.5t178 -115.5q130 -57 191.5 -134t61.5 -198q0 -60 -12.5 -117.5t-42 -113.5t-73 -98.5t-110 -70.5t-147.5 -31l-40 -279h-25l39 279 q-94 1 -169.5 43t-127.5 116l19 17q105 -149 283 -149q100 0 176 37t118 97.5t62.5 128t20.5 139.5q0 111 -56.5 183t-179.5 126q-133 59 -190 125.5t-57 170.5q0 92 39.5 172t120.5 132t187 53l40 285h26z" />
<glyph unicode="%" horiz-adv-x="1318" d="M1176 1419l-996 -1431l23 -14l994 1431zM388 743q-86 0 -133.5 62.5t-47.5 171.5q0 64 16 131t48 128.5t87.5 100.5t125.5 39q85 0 132.5 -60.5t47.5 -170.5q0 -64 -16.5 -131.5t-48 -129.5t-87 -101.5t-124.5 -39.5zM389 769q52 0 95 25.5t70.5 66t46.5 92t27 100.5 t8 95q0 96 -38.5 149.5t-113.5 53.5q-65 0 -115.5 -38t-78 -97.5t-41 -121t-13.5 -119.5q0 -95 38.5 -150.5t114.5 -55.5zM878 -19q-86 0 -133.5 62.5t-47.5 171.5q0 64 16 130.5t48 128t87.5 100.5t125.5 39q85 0 132.5 -60.5t47.5 -170.5q0 -64 -16.5 -131.5t-48 -129 t-87 -101t-124.5 -39.5zM879 6q52 0 95 25.5t70.5 66t46.5 92t27 100.5t8 95q0 96 -38.5 149.5t-113.5 53.5q-65 0 -115.5 -38t-78 -97.5t-41 -121t-13.5 -119.5q0 -95 38.5 -150.5t114.5 -55.5z" />
<glyph unicode="&#x26;" horiz-adv-x="1232" d="M668 1416q97 0 158.5 -65.5t61.5 -167.5q0 -130 -73.5 -223.5t-280.5 -221.5l325 -471q42 66 79 143.5t56.5 129t54.5 147.5l24 -10q-35 -96 -57.5 -152.5t-60.5 -134t-80 -142.5l165 -241l-24 -16l-160 234q-171 -244 -395 -244q-134 0 -209.5 83.5t-75.5 214.5 q0 67 13 121.5t46 114t97.5 117t161.5 114.5q-120 172 -120 319q0 66 18 126.5t52 112t92.5 82t131.5 30.5zM668 1390q-68 0 -120.5 -29t-82.5 -76.5t-45.5 -103.5t-15.5 -116q0 -143 114 -307q142 87 216 154.5t99.5 127t25.5 143.5q0 93 -53.5 150t-137.5 57zM509 728 q-94 -55 -156 -111t-93 -113t-42.5 -108.5t-11.5 -116.5q0 -118 67.5 -194.5t187.5 -76.5q215 0 379 236z" />
<glyph unicode="'" horiz-adv-x="339" d="M212 907l64 487h29l-70 -487h-23z" />
<glyph unicode="(" horiz-adv-x="548" d="M571 1696l16 -14q-114 -163 -190 -298.5t-133 -286t-83 -311.5t-26 -349q0 -195 40.5 -344t122.5 -343l-21 -10q-43 98 -67 161t-51 153t-39.5 183.5t-12.5 199.5q0 193 27 356.5t86.5 315.5t136.5 287t194 300z" />
<glyph unicode=")" horiz-adv-x="546" d="M303 1694q43 -101 66 -161.5t51 -152t40 -184.5t12 -199q0 -191 -27.5 -354.5t-86.5 -316t-136 -288t-193 -300.5l-18 13q113 163 189 299t133.5 287t84 312t26.5 348q0 195 -40 344t-121 343z" />
<glyph unicode="*" horiz-adv-x="751" d="M751 1242l-271 -97l123 -265l-25 -13l-117 265l-192 -265l-23 15l198 264l-243 98l12 24l240 -102l44 329h29l-51 -330l269 101z" />
<glyph unicode="+" horiz-adv-x="837" d="M501 1009l-45 -318h255l-4 -27h-256l-45 -318h-29l46 318h-257l3 27h258l45 318h29z" />
<glyph unicode="," horiz-adv-x="274" d="M67 54q14 0 23 -9t9 -23q0 -15 -18 -49l-102 -223h-23l95 239q-19 9 -19 29q0 15 10 25.5t25 10.5z" />
<glyph unicode="-" horiz-adv-x="673" d="M148 626l4 27h403l-4 -27h-403z" />
<glyph unicode="." horiz-adv-x="276" d="M64 -13q-15 0 -23.5 9t-8.5 22q0 15 10 25.5t26 10.5q15 0 23.5 -9t8.5 -22q0 -15 -10 -25.5t-26 -10.5z" />
<glyph unicode="/" horiz-adv-x="899" d="M786 1630l24 -7l-644 -1815l-24 7z" />
<glyph unicode="0" horiz-adv-x="954" d="M616 1376q-95 0 -175.5 -64.5t-134.5 -169t-92.5 -238.5t-55.5 -270.5t-17 -268.5q0 -384 238 -384q95 0 175 63.5t134.5 167t92.5 236.5t55.5 269.5t17.5 269.5q0 389 -238 389zM615 1349q106 0 158 -89.5t52 -272.5q0 -129 -17.5 -263.5t-54 -263t-88 -229t-126 -162 t-160.5 -61.5q-208 0 -208 357q0 128 16.5 262t53 264t87 231.5t125.5 164t162 62.5z" />
<glyph unicode="1" horiz-adv-x="671" d="M539 1353l-190 -1353h-28l184 1319l-326 -230l-13 22l349 242h24z" />
<glyph unicode="2" horiz-adv-x="782" d="M464 1376q119 0 185 -76.5t67 -202.5q1 -61 -8 -111t-38 -116t-72.5 -134.5t-125.5 -175.5t-184 -228.5t-259 -303.5l561 1l-11 -29h-589l5 29q192 221 311 366t199.5 253.5t117.5 185.5t50.5 134t12.5 128q-1 117 -58.5 185.5t-164.5 68.5q-83 0 -151 -41.5t-139 -122.5 l-20 16q77 89 150.5 131.5t160.5 42.5z" />
<glyph unicode="3" horiz-adv-x="813" d="M500 1376q112 0 173.5 -71t61.5 -188q0 -155 -80.5 -267.5t-220.5 -126.5q100 -9 157 -77.5t57 -198.5q0 -63 -13.5 -126t-44.5 -125t-75.5 -109.5t-112 -76.5t-149.5 -29q-95 0 -160 40.5t-115 127.5l23 15q48 -84 107.5 -120t145.5 -36q77 0 140.5 28.5t104 73.5 t68 104t39.5 117.5t12 116.5q0 129 -61.5 195t-173.5 66h-63l8 26h56q78 0 141 33.5t101.5 89t59 122.5t20.5 137q0 108 -53.5 171t-152.5 63q-144 0 -285 -140l-17 17q148 148 302 148z" />
<glyph unicode="4" horiz-adv-x="841" d="M759 417l-5 -27h-157l-55 -390h-28l55 390h-501l4 25l479 961l24 -11l-473 -948h471l65 439h25l-62 -439h158z" />
<glyph unicode="5" horiz-adv-x="796" d="M779 1353l-7 -26h-473l-80 -569q110 87 226 87q115 0 178.5 -80.5t63.5 -219.5q0 -72 -13 -146.5t-44.5 -150.5t-77.5 -134.5t-119 -95.5t-162 -37q-174 0 -261 152l23 16q79 -141 240 -141q83 0 150.5 35.5t110 91t71.5 128t41 143t12 138.5q0 129 -57 202t-160 73 q-65 0 -117.5 -22t-110.5 -68h-26l88 624h504z" />
<glyph unicode="6" horiz-adv-x="888" d="M668 1376q105 0 171 -76l-18 -19q-62 69 -153 69q-111 0 -210 -99t-168.5 -263.5t-103.5 -368.5q164 252 356 252q108 0 170 -74t62 -217q0 -75 -13 -153.5t-43 -159.5t-73 -144t-110 -102.5t-147 -39.5q-131 0 -192 101.5t-61 276.5q0 132 23.5 273.5t70.5 274 t110 237.5t149 168.5t180 63.5zM540 845q-186 0 -361 -273q-15 -105 -15 -213q0 -351 224 -351q76 0 138.5 39t102 100t66.5 138.5t38 151t11 142.5q0 131 -54 198.5t-150 67.5z" />
<glyph unicode="7" horiz-adv-x="731" d="M773 1353l-4 -24l-653 -1340l-26 8l647 1328l-553 2l4 26h585z" />
<glyph unicode="8" horiz-adv-x="913" d="M565 701q108 -58 155.5 -125t47.5 -169q0 -186 -112 -306t-280 -120q-135 0 -209.5 78t-74.5 212q0 70 15.5 131t51.5 123.5t104 118t166 100.5q-86 47 -124 108t-38 155q0 160 101.5 264.5t235.5 104.5q108 0 175 -69.5t67 -193.5q0 -129 -61.5 -223t-219.5 -189z M295 1007q0 -91 39 -149t130 -104l80 -41q154 91 213.5 183.5t59.5 216.5q0 113 -58 175t-155 62q-124 0 -216.5 -96.5t-92.5 -246.5zM376 8q155 0 258.5 110.5t103.5 288.5q0 105 -50 168t-170 124l-64 32q-104 -47 -173.5 -104.5t-102.5 -120t-45 -117t-12 -119.5 q0 -123 67 -192.5t188 -69.5z" />
<glyph unicode="9" horiz-adv-x="872" d="M544 1376q252 0 252 -340q0 -831 -687 -1064l-7 23q97 34 178.5 78.5t158 110t135 146.5t104 190.5t69.5 240.5q-151 -233 -347 -233q-112 0 -175.5 81.5t-63.5 229.5q0 71 15 145t46.5 144.5t75.5 125.5t108 88.5t138 33.5zM401 554q192 0 351 251q15 111 15 231 q0 314 -224 314q-86 0 -156.5 -49t-112 -126.5t-63.5 -164.5t-22 -172q0 -137 55.5 -210.5t156.5 -73.5z" />
<glyph unicode=":" horiz-adv-x="276" d="M185 848q-14 0 -22.5 9t-8.5 22q0 15 10 25.5t25 10.5t23.5 -9t8.5 -22q0 -15 -10 -25.5t-26 -10.5zM64 -13q-15 0 -23.5 9t-8.5 22q0 15 10 25.5t26 10.5q15 0 23.5 -9t8.5 -22q0 -15 -10 -25.5t-26 -10.5z" />
<glyph unicode=";" horiz-adv-x="276" d="M185 848q-14 0 -22.5 9t-8.5 22q0 15 10 25.5t25 10.5t23.5 -9t8.5 -22q0 -15 -10 -25.5t-26 -10.5zM67 54q14 0 23 -9t9 -23q0 -15 -18 -49l-102 -223h-23l95 239q-19 9 -19 29q0 15 10 25.5t25 10.5z" />
<glyph unicode="&#x3c;" horiz-adv-x="858" d="M763 1018l10 -24l-572 -317l483 -315l-17 -24l-498 330l4 21z" />
<glyph unicode="=" horiz-adv-x="839" d="M190 822l4 27h542l-4 -27h-542zM144 506l4 27h542l-4 -27h-542z" />
<glyph unicode="&#x3e;" horiz-adv-x="858" d="M233 1018l499 -325l-4 -22l-591 -333l-10 24l573 322l-484 310z" />
<glyph unicode="?" horiz-adv-x="849" d="M519 1415q108 0 165 -64.5t57 -167.5q0 -73 -21.5 -132t-56.5 -99t-77 -75t-84 -67.5t-77 -67.5t-57 -84t-22 -109q0 -49 11 -110l-26 -7q-14 66 -14 115q0 63 22 114.5t57 87.5t77 69t84 67.5t77 73.5t56.5 96.5t21.5 127.5q0 94 -49 150t-145 56q-79 0 -143 -37.5 t-138 -119.5l-19 16q76 87 146.5 127t154.5 40zM314 -16q-14 0 -23 9.5t-9 22.5q0 15 10 25.5t25 10.5t23.5 -9t8.5 -22q0 -15 -10 -26t-25 -11z" />
<glyph unicode="@" horiz-adv-x="1757" d="M1047 1416q135 0 241 -48t172.5 -133.5t101 -198t34.5 -245.5q0 -96 -14.5 -198.5t-46.5 -203.5t-76 -180.5t-109.5 -129t-140.5 -49.5q-48 0 -81.5 21.5t-50 60t-22 84.5t-1.5 103q-116 -265 -297 -265q-95 0 -152 76.5t-57 222.5q0 105 25.5 213t75 206t135.5 160 t195 62q94 0 181 -50l-74 -556q-9 -65 -9 -115t10 -98t41 -74t81 -26q70 0 130 49t101 127t70 176t42.5 196t13.5 187q0 129 -32.5 237t-96 189.5t-164 127t-229.5 45.5q-123 0 -233.5 -38t-195 -103t-155 -153t-119 -186.5t-82.5 -205t-49.5 -207.5t-15.5 -194 q0 -311 155.5 -492.5t409.5 -181.5q171 0 320 65l4 -26q-159 -66 -325 -66q-265 0 -429 189.5t-164 511.5q0 96 16 199.5t51 212.5t85 210t123.5 191t161 156.5t202.5 105.5t243 39zM758 61q92 0 168 75.5t128 208.5l77 563q-71 39 -153 39q-70 0 -130 -28.5t-103 -77 t-76 -110t-52.5 -131.5t-29.5 -137t-10 -131q0 -133 48.5 -202t132.5 -69z" />
<glyph unicode="A" d="M794 0l-60 424h-536l-179 -424h-31l595 1394h37l205 -1394h-31zM210 451h520l-132 917z" />
<glyph unicode="B" horiz-adv-x="1013" d="M629 738q114 -12 181 -84.5t67 -200.5q0 -66 -14 -127.5t-47.5 -122t-84.5 -104.5t-131 -71.5t-181 -27.5h-284l195 1394h271q164 0 248.5 -72.5t84.5 -210.5q0 -149 -86 -251.5t-219 -121.5zM356 1367l-87 -616h298q140 0 238.5 101t98.5 258q0 257 -302 257h-246z M425 28q94 0 168 25.5t121 67t77.5 98t43 114t12.5 120.5q0 130 -73.5 200.5t-207.5 70.5h-300l-98 -696h257z" />
<glyph unicode="C" horiz-adv-x="911" d="M723 1415q87 0 146 -31t107 -88l-19 -20q-48 55 -102 83t-133 28q-97 0 -180.5 -41.5t-142 -113t-104 -163t-72 -196.5t-40 -207t-13.5 -201q0 -222 83 -339t230 -117q88 0 154.5 32t129.5 87l17 -22q-140 -125 -302 -125q-160 0 -250.5 125.5t-90.5 357.5 q0 125 19.5 252.5t64.5 254.5t110.5 224.5t165.5 158.5t222 61z" />
<glyph unicode="D" horiz-adv-x="1071" d="M566 1394q410 0 410 -455q0 -140 -20.5 -270.5t-69 -253.5t-120 -214t-181.5 -146t-246 -55h-204l195 1394h236zM566 1367h-210l-188 -1339h176q130 0 234.5 54t172 143t113 209t64.5 245.5t19 259.5q0 428 -381 428z" />
<glyph unicode="E" horiz-adv-x="829" d="M861 1394l-8 -27h-497l-86 -616h430l-5 -27h-429l-98 -696h517l-4 -28h-546l195 1394h531z" />
<glyph unicode="F" horiz-adv-x="788" d="M853 1394l-8 -27h-489l-91 -646h425l-4 -27h-424l-98 -694h-29l195 1394h523z" />
<glyph unicode="G" horiz-adv-x="1013" d="M724 1415q84 0 147.5 -29t122.5 -89l-20 -20q-55 57 -114 83.5t-138 26.5q-106 0 -196.5 -52.5t-154.5 -141.5t-109.5 -207t-67.5 -249.5t-22 -268.5q0 -226 86 -343t248 -117q142 0 290 90l83 590h-244v27h278l-89 -633q-158 -101 -319 -101q-174 0 -268.5 125 t-94.5 362q0 142 23.5 278t72 257t116.5 213t163.5 145.5t206.5 53.5z" />
<glyph unicode="H" horiz-adv-x="1105" d="M164 0h-29l195 1394h30l-90 -637h628l90 637h29l-196 -1394h-30l104 730h-628z" />
<glyph unicode="I" horiz-adv-x="448" d="M360 1394l-196 -1394h-29l195 1394h30z" />
<glyph unicode="J" horiz-adv-x="479" d="M401 1394l-171 -1217q-23 -158 -75 -232.5t-192 -142.5l-10 22q130 65 179 135.5t70 220.5l170 1214h29z" />
<glyph unicode="K" horiz-adv-x="868" d="M135 1l195 1393h30l-196 -1393h-29zM735 0l-460 750l629 644h34l-630 -645l461 -749h-34z" />
<glyph unicode="L" horiz-adv-x="745" d="M360 1394l-192 -1365h485l-10 -29h-508l195 1394h30z" />
<glyph unicode="M" horiz-adv-x="1280" d="M1137 1394l-67 -1394h-28l33 715q22 460 34 655l-503 -1198h-32l-172 1197q-16 -76 -145 -639l-167 -730h-28l321 1394h43l169 -1187l497 1187h45z" />
<glyph unicode="N" horiz-adv-x="1107" d="M1019 1394l-196 -1394h-37l-436 1364q-9 -94 -40 -311l-147 -1053h-28l195 1394h38l436 -1361q41 315 43 331l143 1030h29z" />
<glyph unicode="O" horiz-adv-x="1167" d="M724 1415q169 0 260.5 -123.5t91.5 -357.5q0 -97 -13.5 -200t-41 -212t-75 -204.5t-110 -171.5t-152.5 -120.5t-195 -44.5q-168 0 -258.5 125t-90.5 357q0 97 14.5 200.5t43 211.5t76.5 204t110.5 171.5t150 120t189.5 44.5zM724 1388q-97 0 -181 -43.5t-143 -118.5 t-104.5 -168.5t-72 -199t-40 -205t-13.5 -191.5q0 -220 82.5 -337t236.5 -117q88 0 164.5 33.5t132 89.5t100.5 133t74 161t48.5 175.5t28 174t8.5 160.5q0 222 -83 337.5t-238 115.5z" />
<glyph unicode="P" horiz-adv-x="940" d="M568 1394q357 0 357 -308q0 -73 -14 -140.5t-49 -134.5t-89 -116t-141 -79.5t-197 -30.5h-189l-82 -585h-29l195 1394h238zM440 612q104 0 185 29t131 75.5t82 110t44.5 126.5t12.5 132q0 145 -82 213.5t-246 68.5h-211l-106 -755h190z" />
<glyph unicode="Q" horiz-adv-x="1171" d="M598 -1q120 -4 203.5 -35.5t142.5 -103.5l-24 -20q-67 81 -161 111.5t-262 29.5h-8h-2v0q-166 1 -256.5 126t-90.5 356q0 97 14.5 200.5t43 211.5t76.5 204t110.5 171.5t150 120t189.5 44.5q169 0 260.5 -123.5t91.5 -357.5q0 -109 -15 -222t-51.5 -231.5t-90 -215 t-136.5 -169.5t-185 -97zM170 462q0 -220 82.5 -337t236.5 -117q88 0 164.5 33.5t132 89.5t100.5 133t74 161t48.5 175.5t28 174t8.5 160.5q0 222 -83 337.5t-238 115.5q-97 0 -181 -43.5t-143 -118.5t-104.5 -168.5t-72 -199t-40 -205t-13.5 -191.5z" />
<glyph unicode="R" horiz-adv-x="956" d="M918 1103q0 -75 -20 -145t-60 -130.5t-108 -101.5t-155 -51l226 -675h-32l-224 672h-5h-282l-94 -672h-29l195 1394h251q178 0 257.5 -73t79.5 -218zM522 700q77 0 140 23.5t104 63t69 92t40 108.5t12 115q0 135 -70.5 200t-235.5 65h-225l-94 -667h260z" />
<glyph unicode="S" horiz-adv-x="905" d="M591 1415q173 0 285 -139l-21 -17q-105 129 -264 129q-147 0 -237 -101.5t-90 -242.5q0 -101 51.5 -159t185.5 -117q92 -40 147 -82.5t84.5 -104t29.5 -147.5t-27.5 -166t-78.5 -144.5t-131 -103.5t-177 -39q-112 0 -186 42t-132 123l21 17q54 -76 123 -115.5t174 -39.5 q91 0 165.5 36.5t121.5 97t72.5 135.5t25.5 155q0 117 -56.5 185t-188.5 126q-143 64 -198.5 127.5t-55.5 172.5q0 95 41 178.5t124 138.5t192 55z" />
<glyph unicode="T" horiz-adv-x="796" d="M893 1394l-9 -28h-354l-192 -1366h-29l192 1366h-356l4 28h744z" />
<glyph unicode="U" horiz-adv-x="1067" d="M998 1394l-147 -1055q-10 -73 -38.5 -136t-75.5 -113.5t-119 -79.5t-160 -29q-89 0 -153 29.5t-97 80.5t-44 114t-1 136l147 1053h29l-146 -1052q-12 -67 -0.5 -127.5t39.5 -106.5t86.5 -73t140.5 -27q160 0 251.5 96t111.5 240l146 1050h30z" />
<glyph unicode="V" horiz-adv-x="917" d="M975 1394l-573 -1394h-35l-183 1394h29l175 -1365l555 1365h32z" />
<glyph unicode="W" horiz-adv-x="1335" d="M1380 1394l-462 -1394h-34l-100 1365l-481 -1365h-36l-71 1394h28l65 -1361l480 1361h38l98 -1362l446 1362h29z" />
<glyph unicode="X" horiz-adv-x="804" d="M846 1394l-398 -638l254 -756h-30l-244 734l-443 -734h-31l459 757l-219 637h32l207 -617l380 617h33z" />
<glyph unicode="Y" horiz-adv-x="821" d="M906 1394l-477 -841l-77 -553h-30l78 554l-243 840h30l231 -810l456 810h32z" />
<glyph unicode="Z" horiz-adv-x="847" d="M-10 0l5 27l852 1340h-603l4 27h636l-4 -26l-852 -1339h641l-9 -29h-670z" />
<glyph unicode="[" horiz-adv-x="526" d="M537 1626l-3 -23h-180l-254 -1793h181l-4 -23h-206l259 1839h207z" />
<glyph unicode="\" horiz-adv-x="899" d="M421 1629l135 -1815l-26 -6l-134 1815z" />
<glyph unicode="]" horiz-adv-x="526" d="M506 1626l-260 -1839h-207l3 23h182l252 1793h-181l2 23h209z" />
<glyph unicode="^" horiz-adv-x="899" d="M625 1681l205 -602h-32l-189 568l-350 -568h-35l378 602h23z" />
<glyph unicode="_" horiz-adv-x="901" d="M-12 -194l4 27h721l-4 -27h-721z" />
<glyph unicode="`" horiz-adv-x="425" d="M219 1544l263 -180l-13 -18l-269 170z" />
<glyph unicode="a" horiz-adv-x="931" d="M585 1082q122 0 220 -64l-110 -781q-18 -100 -10.5 -154t53.5 -80l-10 -22q-52 27 -64.5 83t1.5 144q-131 -227 -305 -227q-120 0 -186 97t-66 263q0 101 16.5 202t54 199t91.5 173t135.5 121t179.5 46zM584 1057q-77 0 -143.5 -31t-114.5 -85.5t-85 -124.5t-59.5 -151 t-33.5 -162t-11 -161q0 -155 58 -244.5t166 -89.5q171 0 308 249l105 748q-82 52 -190 52z" />
<glyph unicode="b" horiz-adv-x="958" d="M611 1082q118 0 179.5 -87.5t61.5 -252.5q0 -80 -11 -164t-33.5 -170.5t-60.5 -162.5t-86.5 -135.5t-117.5 -94t-149 -34.5q-123 0 -259 66l203 1452l29 3l-87 -622q78 96 158 149t173 53zM611 1055q-91 0 -172 -54.5t-163 -156.5l-110 -780q117 -56 229 -56 q90 0 164.5 48.5t122 125.5t80.5 176t47 195.5t14 188.5q1 154 -52.5 233.5t-159.5 79.5z" />
<glyph unicode="c" horiz-adv-x="786" d="M564 1082q130 0 214 -102l-20 -18q-77 94 -195 94q-102 0 -184.5 -61t-133.5 -162t-78 -223.5t-27 -252.5q0 -170 64 -259.5t180 -89.5q115 0 230 100l16 -19q-118 -108 -246 -108q-129 0 -201 97.5t-72 278.5q0 135 29 262t83.5 231.5t143 168t197.5 63.5z" />
<glyph unicode="d" horiz-adv-x="954" d="M860 1503l29 -4l-211 -1499h-24l36 277q-152 -296 -340 -296q-114 0 -178 94t-64 263q0 96 16 196.5t51 199.5t85 176t124 124.5t161 47.5q94 0 150.5 -52t81.5 -131zM545 1056q-81 0 -150 -46t-115.5 -120t-79.5 -169t-48 -192.5t-15 -190.5q0 -157 56 -243.5t158 -86.5 q104 0 185.5 85.5t160.5 241.5l74 522q-58 199 -226 199z" />
<glyph unicode="e" horiz-adv-x="866" d="M810 860q0 -99 -50 -176t-141.5 -126.5t-210 -78t-265.5 -37.5q-4 -43 -4 -94q0 -167 63 -253.5t175 -86.5q76 0 138 28t132 87l15 -20q-74 -63 -140 -92.5t-145 -29.5q-127 0 -197 94.5t-70 271.5q0 81 12 164.5t35.5 166.5t62.5 155.5t89 128.5t119 88t149 32 q107 0 170 -59.5t63 -162.5zM575 1056q-66 0 -124 -24t-102 -67t-80 -99t-60.5 -122.5t-40.5 -135.5t-23 -141q144 10 258.5 37t200 74t131.5 118.5t46 163.5t-54.5 144t-151.5 52z" />
<glyph unicode="f" horiz-adv-x="512" d="M559 1481q-85 0 -140 -55t-71 -165l-27 -200h248l-8 -26h-244l-146 -1046q-17 -117 -47 -189t-72 -112.5t-118 -83.5l-9 21q69 40 107.5 78.5t66.5 106.5t43 179l147 1046h-152l3 26h152l29 204q17 116 79.5 179t157.5 63q98 0 187 -75l-15 -19q-45 36 -83 52t-88 16z " />
<glyph unicode="g" horiz-adv-x="929" d="M587 1082q119 0 217 -64l-146 -1049q-51 -367 -330 -367q-147 0 -265 95l15 19q116 -89 251 -89q254 0 301 343l36 258q-131 -228 -303 -228q-120 0 -186 96t-67 260q0 79 12 161t35.5 164t63.5 153.5t91 127.5t122 88t153 32zM586 1057q-77 0 -143.5 -31t-114.5 -85 t-85.5 -123t-59.5 -148.5t-33.5 -158t-10.5 -154.5q1 -152 59 -241t166 -89q170 0 307 249l104 729q-82 52 -189 52z" />
<glyph unicode="h" horiz-adv-x="976" d="M626 1082q112 0 161 -83t30 -227l-108 -772h-29l109 770q19 137 -23 212t-141 75q-103 0 -194.5 -95t-180.5 -286l-95 -676h-29l211 1499l29 4l-107 -765q86 174 173 259t194 85z" />
<glyph unicode="i" horiz-adv-x="430" d="M341 1411q-12 0 -19 7t-7 18q0 13 8.5 22t22.5 9q12 0 19 -7.5t7 -18.5q0 -13 -8.5 -21.5t-22.5 -8.5zM304 1061l-149 -1061h-29l150 1061h28z" />
<glyph unicode="j" horiz-adv-x="434" d="M345 1411q-12 0 -19 7t-7 18q0 13 8 22t22 9q12 0 19.5 -7.5t7.5 -18.5q0 -13 -8.5 -21.5t-22.5 -8.5zM-80 -396l-9 22q102 58 148 130t69 233l151 1072h29l-152 -1072q-16 -117 -46.5 -189.5t-72 -112.5t-117.5 -83z" />
<glyph unicode="k" horiz-adv-x="872" d="M366 1502l-115 -821q87 198 181.5 299.5t207.5 101.5q87 0 133 -53.5t46 -140.5q0 -140 -84.5 -235t-245.5 -158l196 -495h-29l-200 507q166 61 250 152.5t84 228.5q0 78 -38 123.5t-114 45.5q-110 0 -206 -112t-191 -332l-86 -613h-29l211 1499z" />
<glyph unicode="l" horiz-adv-x="464" d="M355 1502l-192 -1379q-17 -115 72 -115q35 0 70 15l8 -23q-41 -19 -82 -19q-55 0 -81 37t-16 106l193 1375z" />
<glyph unicode="m" horiz-adv-x="1421" d="M1094 1082q102 0 144.5 -86.5t20.5 -240.5l-105 -755h-29l105 753q21 148 -14 226t-123 78q-181 0 -346 -389l-94 -668h-28l106 753q21 147 -14.5 225.5t-123.5 78.5q-181 0 -346 -400l-92 -657h-29l150 1061h24l-45 -340q76 183 162.5 272t176.5 89q102 0 144.5 -86.5 t20.5 -240.5l-2 -19q149 346 337 346z" />
<glyph unicode="n" horiz-adv-x="974" d="M626 1082q112 0 161 -83t30 -227l-109 -772h-29l109 770q19 137 -23 212t-140 75q-105 0 -195 -94t-180 -285l-95 -678h-29l150 1061h24l-43 -325q86 177 173 261.5t196 84.5z" />
<glyph unicode="o" horiz-adv-x="944" d="M382 -19q-131 0 -201.5 98t-70.5 274q0 93 15 189.5t50 194.5t86 174t129 123.5t173 47.5q131 0 201.5 -97.5t70.5 -272.5q0 -92 -15 -188.5t-50 -195t-85.5 -174.5t-129 -124.5t-173.5 -48.5zM382 8q90 0 164 47.5t121 121.5t79 169.5t45.5 187t13.5 178.5 q0 166 -62.5 255t-179.5 89q-90 0 -163.5 -46.5t-121 -120.5t-80 -169t-46 -187t-13.5 -180q0 -166 62.5 -255.5t180.5 -89.5z" />
<glyph unicode="p" horiz-adv-x="952" d="M71 -398l205 1459h25l-24 -179q145 200 328 200q120 0 181 -87.5t61 -252.5q0 -82 -11 -166.5t-33.5 -171t-60 -161.5t-86.5 -134.5t-117.5 -93.5t-148.5 -34q-118 0 -229 62l-61 -438zM391 8q90 0 164 48t122 124.5t80.5 175t46.5 195.5t14 191q2 313 -214 313 q-178 0 -331 -211l-108 -774q105 -62 226 -62z" />
<glyph unicode="q" horiz-adv-x="940" d="M588 -398l84 606q-132 -227 -307 -227q-123 0 -190 97t-67 263q0 83 12 167.5t36.5 168.5t64.5 156.5t92.5 128.5t124.5 88t156 32q120 0 218 -64l-195 -1413zM366 8q175 0 312 250l105 747q-82 52 -190 52q-94 0 -172 -44.5t-129.5 -117t-87.5 -167.5t-51.5 -192 t-15.5 -194q0 -155 59 -244.5t170 -89.5z" />
<glyph unicode="r" horiz-adv-x="608" d="M572 1082q40 0 78 -14l-10 -26q-36 14 -71 14q-103 0 -177.5 -87.5t-140.5 -284.5l-96 -684h-29l150 1061h25l-43 -304q59 170 133.5 247.5t180.5 77.5z" />
<glyph unicode="s" horiz-adv-x="772" d="M464 1082q146 0 247 -108l-19 -18q-94 99 -229 99q-110 0 -185.5 -68.5t-75.5 -180.5q0 -79 43 -129t158 -99q119 -51 169 -113t50 -160q0 -148 -92 -236t-231 -88q-97 0 -164 35.5t-120 99.5l20 18q51 -61 112.5 -93.5t151.5 -32.5q126 0 209.5 78t83.5 218 q0 90 -44.5 145.5t-159.5 104.5q-122 53 -169 108.5t-47 143.5q0 122 85 199t207 77z" />
<glyph unicode="t" horiz-adv-x="548" d="M292 1035l-115 -820q-15 -103 19.5 -155.5t108.5 -52.5q73 0 157 54l13 -21q-91 -59 -172 -59q-87 0 -129 61t-26 173l115 820h-146l4 26h146l43 271l24 3l-39 -274h241l-7 -26h-237z" />
<glyph unicode="u" horiz-adv-x="966" d="M353 -19q-109 0 -161.5 81.5t-32.5 224.5l109 774h28l-107 -774q-19 -134 24.5 -206.5t139.5 -72.5q112 0 203 96.5t161 268.5l95 688h29l-149 -1061h-23l43 316q-140 -335 -359 -335z" />
<glyph unicode="v" horiz-adv-x="761" d="M786 1061l-454 -1061h-36l-171 1061h29l163 -1036l440 1036h29z" />
<glyph unicode="w" horiz-adv-x="1155" d="M1163 1061l-380 -1061h-38l-96 1031l-384 -1031h-39l-84 1061h28l80 -1033l385 1033h36l96 -1034l367 1034h29z" />
<glyph unicode="x" horiz-adv-x="741" d="M731 1061l-339 -493l233 -568h-31l-222 551l-371 -551h-33l390 571l-198 490h31l186 -472l321 472h33z" />
<glyph unicode="y" horiz-adv-x="757" d="M783 1061l-451 -1064q-81 -193 -147.5 -269t-205.5 -122l-3 22q130 44 192 117.5t137 254.5h-14l-166 1061h29l160 -1041l438 1041h31z" />
<glyph unicode="z" horiz-adv-x="690" d="M702 1061l-4 -24l-680 -1010h525l-7 -27h-556l4 24l680 1011h-491l3 26h526z" />
<glyph unicode="{" horiz-adv-x="550" d="M563 1667l-1 -22q-70 0 -109.5 -45t-52.5 -142l-81 -573q-11 -85 -48.5 -124t-100.5 -46q61 -8 86.5 -49.5t13.5 -128.5l-80 -568q-13 -96 13.5 -139.5t94.5 -44.5l-1 -23q-160 0 -133 204l81 584q20 151 -107 151l3 27q62 0 102 38t51 116l81 583q27 202 188 202z" />
<glyph unicode="|" horiz-adv-x="722" d="M530 1640l-257 -1840h-28l257 1840h28z" />
<glyph unicode="}" horiz-adv-x="550" d="M39 -238l2 23q70 0 109.5 45t52.5 142l80 572q11 85 49 124.5t101 46.5q-61 8 -86.5 49t-13.5 128l79 569q13 96 -13.5 139.5t-94.5 44.5l2 22q159 0 132 -204l-81 -583q-20 -152 108 -152l-4 -27q-62 0 -102 -37.5t-51 -115.5l-81 -583q-27 -203 -188 -203z" />
<glyph unicode="~" horiz-adv-x="796" d="M530 582q-29 0 -61 17.5t-56 39t-55 39t-58 17.5q-39 0 -68.5 -23t-60.5 -66l-19 14q35 49 70.5 76t79.5 27q38 0 78.5 -28t79 -56t71.5 -28q38 0 67.5 22.5t60.5 65.5l19 -14q-36 -50 -70 -76.5t-78 -26.5z" />
<glyph unicode="&#xa1;" horiz-adv-x="436" d="M266 846q-15 0 -23.5 9t-8.5 22q0 15 10 26t25 11t23.5 -9t8.5 -22q0 -15 -10 -26t-25 -11zM230 518l-128 -907h-29l130 907h27z" />
<glyph unicode="&#xa2;" horiz-adv-x="786" d="M565 1082q129 0 213 -102l-20 -18q-77 94 -195 94q-102 0 -184.5 -61t-133.5 -162t-78 -223.5t-27 -252.5q0 -170 64 -259.5t180 -89.5q115 0 230 100l16 -19q-110 -100 -224 -108l-39 -279h-26l38 279q-127 2 -197.5 99.5t-70.5 276.5q0 131 27.5 255t79 227.5 t135.5 169t187 72.5l42 300h25z" />
<glyph unicode="&#xa3;" horiz-adv-x="837" d="M630 1376q145 0 219 -133l-21 -15q-68 121 -198 121q-111 0 -181.5 -87.5t-90.5 -227.5l-41 -295h357l-4 -27h-357l-62 -448q-13 -98 -49.5 -149t-110.5 -87h577l-9 -28h-611l3 27q82 40 120.5 91t51.5 146l62 448h-102l3 27h102l42 297q21 150 99.5 245t200.5 95z" />
<glyph unicode="&#xa4;" horiz-adv-x="942" d="M838 275l-21 -16l-130 156q-76 -78 -193 -78q-115 0 -190 77l-129 -155l-20 16l132 158q-80 99 -80 263q0 161 76 259l-131 159l21 16l127 -155q77 82 194 82q119 0 196 -82l125 155l20 -16l-128 -158q76 -98 76 -260q0 -164 -79 -262zM494 362q120 0 190.5 87.5 t70.5 245.5q0 159 -69.5 248t-191.5 89q-120 0 -190 -89t-70 -248q0 -158 71 -245.5t189 -87.5z" />
<glyph unicode="&#xa5;" horiz-adv-x="806" d="M885 1353l-438 -688h212l-3 -27h-222l-36 -253h221l-3 -27h-222l-50 -358h-29l50 358h-220l3 27h221l35 253h-219l4 27h209l-247 688h34l237 -685l429 685h34z" />
<glyph unicode="&#xa6;" horiz-adv-x="722" d="M531 1640l-103 -733h-28l104 733h27zM376 537l-102 -737h-27l101 737h28z" />
<glyph unicode="&#xa7;" horiz-adv-x="950" d="M630 1349q-118 0 -185.5 -71.5t-67.5 -172.5q0 -76 42 -126t153 -102q105 -49 149.5 -108.5t44.5 -144.5q0 -96 -42.5 -165.5t-149.5 -140.5q72 -63 72 -170q0 -113 -78 -194t-208 -81q-141 0 -249 87l16 22q98 -82 234 -82q119 0 187.5 73t68.5 174q0 78 -41 128 t-145 97q-112 51 -161 108t-49 143q0 89 46.5 161t160.5 149q-81 67 -81 173q0 111 78 190t204 79q125 0 235 -87l-16 -20q-105 81 -218 81zM736 624q0 75 -39 129.5t-136 99.5q-73 34 -115 65q-109 -74 -152 -141.5t-43 -153.5q0 -77 43.5 -128.5t149.5 -98.5 q69 -32 112 -64q104 70 142 137.5t38 154.5z" />
<glyph unicode="&#xa8;" horiz-adv-x="448" d="M211 1384q-12 0 -19 7t-7 18q0 13 8 22t22 9q12 0 18.5 -7.5t6.5 -18.5q0 -30 -29 -30zM482 1384q-12 0 -19 7t-7 18q0 13 8 22t22 9q12 0 19 -7.5t7 -18.5q0 -13 -8 -21.5t-22 -8.5z" />
<glyph unicode="&#xa9;" horiz-adv-x="1349" d="M726 1469q205 0 333 -152.5t128 -425.5q0 -270 -128.5 -424.5t-332.5 -154.5q-206 0 -334.5 153t-128.5 426q0 270 129 424t334 154zM726 1442q-195 0 -315.5 -146t-120.5 -405q0 -263 120 -407.5t316 -144.5q194 0 314 146t120 406q0 263 -119.5 407t-314.5 144z M722 1238q83 0 143 -57l-15 -19q-52 49 -128 49q-34 0 -66 -16.5t-61 -51t-46.5 -99t-17.5 -149.5q0 -163 53.5 -242t140.5 -79q78 0 143 59l14 -21q-63 -65 -158 -65q-99 0 -159.5 87.5t-60.5 260.5t65.5 258t152.5 85z" />
<glyph unicode="&#xaa;" horiz-adv-x="872" d="M391 568q-87 0 -135 54.5t-48 143.5q0 135 84.5 212t227.5 77h157l13 97q13 111 -19 163t-120 52q-96 0 -203 -47l-10 23q117 51 215 51q194 0 166 -241l-55 -400q-10 -87 -4 -113q9 -36 45 -51l-8 -21q-45 16 -56.5 54t-4.5 103q-51 -79 -109.5 -118t-135.5 -39z M393 594q147 0 244 171l36 263h-152q-138 0 -210.5 -72t-72.5 -190q0 -79 39.5 -125.5t115.5 -46.5zM91 0l3 28h542l-3 -28h-542z" />
<glyph unicode="&#xab;" horiz-adv-x="950" d="M485 1023l19 -12l-297 -423l180 -418l-20 -11l-193 421l3 20zM829 1023l19 -12l-297 -423l181 -418l-21 -11l-192 421l2 20z" />
<glyph unicode="&#xac;" horiz-adv-x="854" d="M725 669l-37 -250h-28l31 223h-528l4 27h558z" />
<glyph unicode="&#xad;" horiz-adv-x="673" d="M148 626l4 27h403l-4 -27h-403z" />
<glyph unicode="&#xae;" horiz-adv-x="1064" d="M602 1467q164 0 265 -117t101 -320q0 -204 -99 -325.5t-267 -121.5q-164 0 -265 117t-101 320q0 204 99 325.5t267 121.5zM602 607q157 0 249 114t92 309q0 193 -93.5 303t-247.5 110q-158 0 -250 -114t-92 -309q0 -193 94.5 -303t247.5 -110zM747 1155 q0 -65 -29.5 -101.5t-78.5 -46.5l124 -250h-30l-121 247h-105v-246h-26v549h100q80 0 123 -39t43 -113zM507 1028h101q51 0 82 31.5t31 95.5q0 63 -35.5 95t-100.5 32h-78v-254z" />
<glyph unicode="&#xaf;" horiz-adv-x="464" d="M526 1406h-341l4 28h341z" />
<glyph unicode="&#xb0;" horiz-adv-x="874" d="M426 850q-85 0 -135.5 60.5t-50.5 166.5q0 137 75.5 237.5t192.5 100.5q85 0 135.5 -60t50.5 -167q0 -137 -75.5 -237.5t-192.5 -100.5zM427 877q105 0 171 91.5t66 219.5q0 95 -42 147.5t-115 52.5q-105 0 -171.5 -91.5t-66.5 -219.5q0 -94 42.5 -147t115.5 -53z" />
<glyph unicode="&#xb1;" horiz-adv-x="839" d="M503 1009l-45 -318h255l-3 -27h-256l-46 -318h-29l46 318h-257l3 27h258l46 318h28zM73 0l4 28h541l-3 -28h-542z" />
<glyph unicode="&#xb2;" horiz-adv-x="696" d="M471 1508q75 0 116 -49t41 -127q0 -35 -5.5 -68.5t-21.5 -70t-29.5 -65t-44 -69.5t-49.5 -66.5t-62.5 -73.5t-65.5 -72t-75.5 -81t-77.5 -83h361l-8 -27h-388l3 27q26 28 73 79t70.5 76t62 68.5t58 67.5t49 61.5t44 62t32.5 57.5t26.5 60t14.5 57t6 60q0 69 -34 109.5 t-97 40.5q-101 0 -189 -103l-19 16q98 113 209 113z" />
<glyph unicode="&#xb3;" horiz-adv-x="696" d="M478 1510q75 0 117 -45t42 -120q0 -97 -52 -163t-138 -78q145 -12 145 -165q0 -130 -71.5 -213.5t-184.5 -83.5q-119 0 -182 108l20 13q31 -51 69.5 -72.5t93.5 -21.5q104 0 165.5 76.5t61.5 193.5q0 151 -155 151h-42l8 25h35q91 0 145 68t54 162q0 66 -34.5 103 t-96.5 37q-98 0 -185 -84l-14 18q92 91 199 91z" />
<glyph unicode="&#xb4;" horiz-adv-x="430" d="M494 1545l13 -29l-318 -170l-10 20z" />
<glyph unicode="&#xb5;" horiz-adv-x="987" d="M736 339q-24 -170 -1 -340l-26 -4q-21 143 -7 274q-68 -132 -155 -210t-191 -78q-168 0 -181 183q-15 -135 -38 -290l-38 -266l-28 -2l205 1455h28l-108 -778q-20 -144 26 -209.5t136 -65.5q100 0 188 82t158 224l105 747h29z" />
<glyph unicode="&#xb6;" horiz-adv-x="1153" d="M700 1394h292l-251 -1786l-29 -5l247 1764h-240l-246 -1759l-29 -5l145 1029q-160 4 -236 88t-76 221q0 198 114.5 325.5t308.5 127.5z" />
<glyph unicode="&#xb7;" horiz-adv-x="276" d="M156 637q-15 0 -23.5 9t-8.5 22q0 15 10 25.5t25 10.5t23.5 -9t8.5 -22q0 -15 -10 -25.5t-25 -10.5z" />
<glyph unicode="&#xb8;" horiz-adv-x="370" d="M87 6l-31 -165q70 -5 104 -34t34 -88q0 -62 -41 -103.5t-109 -41.5q-67 0 -111 35l13 21q41 -30 98 -30q56 0 88.5 33.5t32.5 85.5q0 53 -32 75.5t-105 24.5l37 187h22z" />
<glyph unicode="&#xb9;" horiz-adv-x="696" d="M534 1495l-117 -839h-27l113 806l-208 -137l-12 20l229 150h22z" />
<glyph unicode="&#xba;" horiz-adv-x="866" d="M559 1394q107 0 166 -77t59 -218q0 -53 -8.5 -109.5t-25 -117t-45.5 -114.5t-66 -97t-90.5 -68t-116.5 -25q-107 0 -166 77t-59 219q0 55 8.5 112.5t25.5 118t46 113.5t66.5 95t90.5 66.5t115 24.5zM559 1368q-69 0 -125.5 -34t-92.5 -87t-60.5 -121t-34.5 -134t-10 -128 q0 -129 51 -199.5t145 -70.5q70 0 127 35t92.5 89t59.5 123t34 133.5t10 124.5q0 128 -51.5 198.5t-144.5 70.5zM88 0l4 28h541l-3 -28h-542z" />
<glyph unicode="&#xbb;" horiz-adv-x="948" d="M255 1023l190 -422l-2 -20l-308 -422l-19 12l297 421l-178 419zM600 1023l190 -422l-3 -20l-308 -422l-19 12l297 421l-178 419z" />
<glyph unicode="&#xbc;" horiz-adv-x="1536" d="M1222 1512l21 -11l-910 -1636l-22 10zM376 555l113 806l-208 -137l-12 20l229 150h22l-118 -839h-26zM1376 263l-3 -26h-101l-33 -237h-26l34 237h-325l2 24l308 594l23 -10l-302 -582h298l39 267h24l-38 -267h100z" />
<glyph unicode="&#xbd;" horiz-adv-x="1536" d="M1222 1512l21 -11l-910 -1636l-22 10zM520 1394l-118 -839h-26l113 806l-208 -137l-12 20l229 150h22zM1218 852q75 0 116 -49t41 -127q0 -35 -5.5 -68.5t-21.5 -70t-29.5 -65t-44 -69.5t-49.5 -66.5t-62.5 -73.5t-65.5 -72t-75.5 -81t-77.5 -83h361l-8 -27h-388l3 27 q26 28 73 79t70.5 76t62 68.5t58 67.5t49 61.5t44 62t32.5 57.5t26.5 60t14.5 57t6 60q0 69 -34 110t-97 41q-101 0 -189 -103l-19 16q97 112 209 112z" />
<glyph unicode="&#xbe;" horiz-adv-x="1536" d="M1222 1512l21 -11l-910 -1636l-22 10zM577 838q0 -130 -71 -213t-184 -83q-120 0 -182 107l20 13q31 -51 69.5 -72.5t93.5 -21.5q104 0 165.5 76.5t61.5 193.5q0 151 -155 151h-42l8 25h35q91 0 145 68t54 162q0 66 -34.5 103t-96.5 37q-98 0 -185 -84l-14 19 q92 91 199 91q75 0 116.5 -45t41.5 -121q0 -97 -51.5 -162.5t-137.5 -77.5q144 -12 144 -166zM1376 263l-3 -26h-101l-33 -237h-26l34 237h-325l2 24l308 594l23 -10l-302 -582h298l39 267h24l-38 -267h100z" />
<glyph unicode="&#xbf;" horiz-adv-x="849" d="M451 1029q15 0 23.5 -9t8.5 -22q0 -15 -10.5 -26t-25.5 -11t-23.5 9t-8.5 22q0 15 10.5 26t25.5 11zM245 -402q-108 0 -165 64.5t-57 167.5q0 73 21.5 132t56.5 99.5t77 75.5t84 67.5t77 67.5t57 84t22 109q0 49 -11 110l26 6q14 -67 14 -115q0 -63 -22 -114.5t-57 -87.5 t-77 -69t-84 -67.5t-77 -73.5t-56.5 -96.5t-21.5 -127.5q0 -94 48.5 -150t144.5 -56q79 0 144 37.5t138 119.5l19 -16q-76 -87 -146.5 -127t-154.5 -40z" />
<glyph unicode="&#xc0;" d="M783 1589l-12 -19l-272 146l19 29zM794 0l-60 424h-536l-179 -424h-31l595 1394h37l205 -1394h-31zM210 451h520l-132 917z" />
<glyph unicode="&#xc1;" d="M799 1716l-314 -146l-10 20l311 155zM794 0l-60 424h-536l-179 -424h-31l595 1394h37l205 -1394h-31zM210 451h520l-132 917z" />
<glyph unicode="&#xc2;" d="M640 1733l-211 -160l-14 16l218 175h17l170 -175l-17 -16zM794 0l-60 424h-536l-179 -424h-31l595 1394h37l205 -1394h-31zM210 451h520l-132 917z" />
<glyph unicode="&#xc3;" d="M551 1743q-30 0 -52.5 -16t-58.5 -57l-17 13q37 45 66 65.5t61 20.5q36 0 94.5 -45t92.5 -45q29 0 54 18.5t57 62.5l18 -11q-35 -52 -64.5 -74t-63.5 -22q-33 0 -66.5 22.5t-64 45t-56.5 22.5zM583 1394h37l205 -1394h-31l-60 424h-536l-179 -424h-31zM210 451h520 l-132 917z" />
<glyph unicode="&#xc4;" d="M503 1642q-12 0 -19 7t-7 18q0 13 8 22t22 9q12 0 18.5 -7.5t6.5 -18.5q0 -30 -29 -30zM774 1642q-12 0 -19 7t-7 18q0 13 8 22t22 9q12 0 19 -7.5t7 -18.5q0 -13 -8 -21.5t-22 -8.5zM794 0l-60 424h-536l-179 -424h-31l595 1394h37l205 -1394h-31zM210 451h520l-132 917 z" />
<glyph unicode="&#xc5;" d="M634 1586q-52 0 -81.5 33.5t-29.5 88.5q0 78 41.5 126t104.5 48q51 0 80 -33t29 -87q0 -77 -41 -126.5t-103 -49.5zM669 1859q-54 0 -87 -42t-33 -109q0 -46 23 -72t63 -26q53 0 85 42.5t32 109.5q0 45 -22 71t-61 26zM794 0l-60 424h-536l-179 -424h-31l595 1394h37 l205 -1394h-31zM210 451h520l-132 917z" />
<glyph unicode="&#xc6;" horiz-adv-x="1280" d="M1228 1367h-583l46 -616h440l-3 -27h-435l52 -696h390l-5 -28h-412l-30 409h-508l-186 -409h-30l640 1394h631zM686 436l-68 934l-426 -934h494z" />
<glyph unicode="&#xc7;" horiz-adv-x="911" d="M723 1415q87 0 146 -31t107 -88l-19 -20q-48 55 -102 83t-133 28q-97 0 -180.5 -41.5t-142 -113t-104 -163t-72 -196.5t-40 -207t-13.5 -201q0 -222 83 -339t230 -117q88 0 154.5 32t129.5 87l17 -22q-139 -124 -297 -125l-26 -140q70 -5 104 -34t34 -88 q0 -62 -41 -103.5t-109 -41.5q-67 0 -111 35l13 21q41 -30 98 -30q56 0 88.5 33.5t32.5 85.5q0 53 -32 75.5t-105 24.5l32 162q-153 7 -238.5 132t-85.5 351q0 125 19.5 252.5t64.5 254.5t110.5 224.5t165.5 158.5t222 61z" />
<glyph unicode="&#xc8;" horiz-adv-x="829" d="M517 1745l266 -156l-13 -19l-271 146zM861 1394l-8 -27h-497l-86 -616h430l-5 -27h-429l-98 -696h517l-4 -28h-546l195 1394h531z" />
<glyph unicode="&#xc9;" horiz-adv-x="829" d="M785 1745l13 -29l-313 -146l-11 20zM861 1394l-8 -27h-497l-86 -616h430l-5 -27h-429l-98 -696h517l-4 -28h-546l195 1394h531z" />
<glyph unicode="&#xca;" horiz-adv-x="829" d="M429 1573l-15 16l219 175h17l169 -175l-16 -16l-163 160zM861 1394l-8 -27h-497l-86 -616h430l-5 -27h-429l-98 -696h517l-4 -28h-546l195 1394h531z" />
<glyph unicode="&#xcb;" horiz-adv-x="829" d="M502 1642q-25 0 -25 25q0 13 7.5 22t21.5 9q12 0 19 -7.5t7 -18.5q0 -13 -8 -21.5t-22 -8.5zM773 1642q-25 0 -25 25q0 13 8 22t22 9q12 0 18.5 -7.5t6.5 -18.5q0 -13 -8 -21.5t-22 -8.5zM861 1394l-8 -27h-497l-86 -616h430l-5 -27h-429l-98 -696h517l-4 -28h-546 l195 1394h531z" />
<glyph unicode="&#xcc;" horiz-adv-x="448" d="M261 1745l265 -156l-12 -19l-272 146zM360 1394l-196 -1394h-29l195 1394h30z" />
<glyph unicode="&#xcd;" horiz-adv-x="448" d="M529 1745l13 -29l-314 -146l-10 20zM360 1394l-196 -1394h-29l195 1394h30z" />
<glyph unicode="&#xce;" horiz-adv-x="448" d="M172 1573l-14 16l218 175h18l169 -175l-16 -16l-163 160zM360 1394l-196 -1394h-29l195 1394h30z" />
<glyph unicode="&#xcf;" horiz-adv-x="448" d="M246 1642q-12 0 -19 7t-7 18q0 13 8 22t22 9q12 0 19 -7.5t7 -18.5q0 -13 -8 -21.5t-22 -8.5zM517 1642q-25 0 -25 25q0 13 7.5 22t21.5 9q12 0 19 -7.5t7 -18.5q0 -13 -8 -21.5t-22 -8.5zM360 1394l-196 -1394h-29l195 1394h30z" />
<glyph unicode="&#xd0;" horiz-adv-x="1077" d="M572 1394q410 0 410 -455q0 -140 -20.5 -270.5t-68.5 -253.5t-119.5 -214t-181.5 -146t-246 -55h-205l99 709h-155l4 27h155l92 658h236zM350 28q130 0 234.5 54t172 143t113 209t64.5 245.5t19 259.5q0 428 -381 428h-210l-88 -631h323l-4 -27h-323l-96 -681h176z" />
<glyph unicode="&#xd1;" horiz-adv-x="1107" d="M819 1653q-41 0 -99 45t-88 45t-52.5 -16t-58.5 -57l-17 13q37 45 66 65.5t61 20.5q36 0 94.5 -45t92.5 -45q29 0 54 18.5t57 62.5l18 -11q-35 -52 -64.5 -74t-63.5 -22zM1019 1394l-196 -1394h-37l-436 1364q-9 -94 -40 -311l-147 -1053h-28l195 1394h38l436 -1361 q41 315 43 331l143 1030h29z" />
<glyph unicode="&#xd2;" horiz-adv-x="1167" d="M639 1745l266 -156l-13 -19l-271 146zM724 1415q169 0 260.5 -123.5t91.5 -357.5q0 -97 -13.5 -200t-41 -212t-75 -204.5t-110 -171.5t-152.5 -120.5t-195 -44.5q-168 0 -258.5 125t-90.5 357q0 97 14.5 200.5t43 211.5t76.5 204t110.5 171.5t150 120t189.5 44.5z M724 1388q-97 0 -181 -43.5t-143 -118.5t-104.5 -168.5t-72 -199t-40 -205t-13.5 -191.5q0 -220 82.5 -337t236.5 -117q88 0 164.5 33.5t132 89.5t100.5 133t74 161t48.5 175.5t28 174t8.5 160.5q0 222 -83 337.5t-238 115.5z" />
<glyph unicode="&#xd3;" horiz-adv-x="1167" d="M907 1745l13 -29l-313 -146l-11 20zM724 1415q169 0 260.5 -123.5t91.5 -357.5q0 -97 -13.5 -200t-41 -212t-75 -204.5t-110 -171.5t-152.5 -120.5t-195 -44.5q-168 0 -258.5 125t-90.5 357q0 97 14.5 200.5t43 211.5t76.5 204t110.5 171.5t150 120t189.5 44.5zM724 1388 q-97 0 -181 -43.5t-143 -118.5t-104.5 -168.5t-72 -199t-40 -205t-13.5 -191.5q0 -220 82.5 -337t236.5 -117q88 0 164.5 33.5t132 89.5t100.5 133t74 161t48.5 175.5t28 174t8.5 160.5q0 222 -83 337.5t-238 115.5z" />
<glyph unicode="&#xd4;" horiz-adv-x="1167" d="M551 1573l-15 16l219 175h17l169 -175l-16 -16l-163 160zM724 1415q169 0 260.5 -123.5t91.5 -357.5q0 -97 -13.5 -200t-41 -212t-75 -204.5t-110 -171.5t-152.5 -120.5t-195 -44.5q-168 0 -258.5 125t-90.5 357q0 97 14.5 200.5t43 211.5t76.5 204t110.5 171.5t150 120 t189.5 44.5zM724 1388q-97 0 -181 -43.5t-143 -118.5t-104.5 -168.5t-72 -199t-40 -205t-13.5 -191.5q0 -220 82.5 -337t236.5 -117q88 0 164.5 33.5t132 89.5t100.5 133t74 161t48.5 175.5t28 174t8.5 160.5q0 222 -83 337.5t-238 115.5z" />
<glyph unicode="&#xd5;" horiz-adv-x="1167" d="M859 1653q-41 0 -98.5 45t-87.5 45t-52.5 -16t-58.5 -57l-18 13q71 86 128 86q36 0 94 -45t92 -45q29 0 54 18.5t57 62.5l18 -11q-35 -52 -64.5 -74t-63.5 -22zM724 1415q169 0 260.5 -123.5t91.5 -357.5q0 -97 -13.5 -200t-41 -212t-75 -204.5t-110 -171.5 t-152.5 -120.5t-195 -44.5q-168 0 -258.5 125t-90.5 357q0 97 14.5 200.5t43 211.5t76.5 204t110.5 171.5t150 120t189.5 44.5zM724 1388q-97 0 -181 -43.5t-143 -118.5t-104.5 -168.5t-72 -199t-40 -205t-13.5 -191.5q0 -220 82.5 -337t236.5 -117q88 0 164.5 33.5 t132 89.5t100.5 133t74 161t48.5 175.5t28 174t8.5 160.5q0 222 -83 337.5t-238 115.5z" />
<glyph unicode="&#xd6;" horiz-adv-x="1167" d="M624 1642q-25 0 -25 25q0 13 7.5 22t21.5 9q12 0 19 -7.5t7 -18.5q0 -13 -8 -21.5t-22 -8.5zM895 1642q-25 0 -25 25q0 13 8 22t22 9q12 0 18.5 -7.5t6.5 -18.5q0 -13 -8 -21.5t-22 -8.5zM724 1415q169 0 260.5 -123.5t91.5 -357.5q0 -97 -13.5 -200t-41 -212t-75 -204.5 t-110 -171.5t-152.5 -120.5t-195 -44.5q-168 0 -258.5 125t-90.5 357q0 97 14.5 200.5t43 211.5t76.5 204t110.5 171.5t150 120t189.5 44.5zM724 1388q-97 0 -181 -43.5t-143 -118.5t-104.5 -168.5t-72 -199t-40 -205t-13.5 -191.5q0 -220 82.5 -337t236.5 -117 q88 0 164.5 33.5t132 89.5t100.5 133t74 161t48.5 175.5t28 174t8.5 160.5q0 222 -83 337.5t-238 115.5z" />
<glyph unicode="&#xd7;" horiz-adv-x="833" d="M689 922l19 -18l-257 -275l183 -276l-24 -16l-181 273l-255 -273l-18 19l257 274l-184 276l24 16l180 -273z" />
<glyph unicode="&#xd8;" horiz-adv-x="1167" d="M887 1377q189 -102 189 -443q0 -97 -13.5 -200t-41 -212t-75 -204.5t-110 -171.5t-152.5 -120.5t-195 -44.5q-71 0 -127 22l-86 -224l-25 9l87 225q-96 47 -147 162t-51 288q0 97 14.5 200.5t43 211.5t76.5 204t110.5 171.5t150 120t189.5 44.5q78 0 140 -27l89 238 l27 -9zM170 462q0 -335 181 -424l503 1325q-56 25 -130 25q-97 0 -181 -43.5t-143 -118.5t-104.5 -168.5t-72 -199t-40 -205t-13.5 -191.5zM489 8q88 0 164.5 33.5t132 89.5t100.5 133t74 161t48.5 175.5t28 174t8.5 160.5q0 325 -171 418l-502 -1324q52 -21 117 -21z" />
<glyph unicode="&#xd9;" horiz-adv-x="1067" d="M569 1745l266 -156l-13 -19l-271 146zM998 1394l-147 -1055q-10 -73 -38.5 -136t-75.5 -113.5t-119 -79.5t-160 -29q-89 0 -153 29.5t-97 80.5t-44 114t-1 136l147 1053h29l-146 -1052q-12 -67 -0.5 -127.5t39.5 -106.5t86.5 -73t140.5 -27q160 0 251.5 96t111.5 240 l146 1050h30z" />
<glyph unicode="&#xda;" horiz-adv-x="1067" d="M837 1745l13 -29l-313 -146l-11 20zM998 1394l-147 -1055q-10 -73 -38.5 -136t-75.5 -113.5t-119 -79.5t-160 -29q-89 0 -153 29.5t-97 80.5t-44 114t-1 136l147 1053h29l-146 -1052q-12 -67 -0.5 -127.5t39.5 -106.5t86.5 -73t140.5 -27q160 0 251.5 96t111.5 240 l146 1050h30z" />
<glyph unicode="&#xdb;" horiz-adv-x="1067" d="M481 1573l-15 16l219 175h17l169 -175l-16 -16l-163 160zM998 1394l-147 -1055q-10 -73 -38.5 -136t-75.5 -113.5t-119 -79.5t-160 -29q-89 0 -153 29.5t-97 80.5t-44 114t-1 136l147 1053h29l-146 -1052q-12 -67 -0.5 -127.5t39.5 -106.5t86.5 -73t140.5 -27 q160 0 251.5 96t111.5 240l146 1050h30z" />
<glyph unicode="&#xdc;" horiz-adv-x="1067" d="M554 1642q-25 0 -25 25q0 13 8 22t22 9q12 0 18.5 -7.5t6.5 -18.5q0 -13 -8 -21.5t-22 -8.5zM825 1642q-25 0 -25 25q0 13 8 22t22 9q12 0 18.5 -7.5t6.5 -18.5q0 -13 -8 -21.5t-22 -8.5zM998 1394l-147 -1055q-10 -73 -38.5 -136t-75.5 -113.5t-119 -79.5t-160 -29 q-89 0 -153 29.5t-97 80.5t-44 114t-1 136l147 1053h29l-146 -1052q-12 -67 -0.5 -127.5t39.5 -106.5t86.5 -73t140.5 -27q160 0 251.5 96t111.5 240l146 1050h30z" />
<glyph unicode="&#xdd;" horiz-adv-x="821" d="M713 1745l13 -29l-313 -146l-11 20zM906 1394l-477 -841l-77 -553h-30l78 554l-243 840h30l231 -810l456 810h32z" />
<glyph unicode="&#xde;" horiz-adv-x="923" d="M513 1132q357 0 357 -318q0 -75 -14 -143.5t-49.5 -136t-89.5 -117t-141 -80t-197 -30.5h-172l-43 -307h-29l195 1394h30l-37 -262h190zM385 334q104 0 185 29t130.5 75.5t82 111t44.5 128.5t12 135q0 151 -81.5 221t-245.5 70h-193l-108 -770h174z" />
<glyph unicode="&#xdf;" horiz-adv-x="968" d="M-80 -396l-9 21q69 40 107.5 78.5t66 106.5t43.5 179l157 1120q26 188 120 292.5t226 104.5q95 0 151.5 -58.5t56.5 -150.5q0 -65 -19.5 -118t-48.5 -85.5t-62.5 -64t-62.5 -56t-48.5 -59.5t-19.5 -75q0 -42 26.5 -81t64 -76.5t74.5 -81.5t63.5 -113.5t26.5 -154.5 q0 -44 -9.5 -90t-32.5 -93.5t-55.5 -84.5t-82.5 -60.5t-111 -23.5q-103 0 -177 55l12 23q74 -52 165 -52q69 0 122 32.5t82 84t43.5 105t14.5 103.5q0 83 -26.5 150t-64 109.5t-74.5 80t-63.5 79.5t-26.5 88q0 44 19.5 81t48 62t62.5 56.5t62.5 62.5t48 82.5t19.5 114.5 q0 81 -48 132t-132 51q-119 0 -204.5 -97.5t-111.5 -278.5l-157 -1115q-16 -117 -46.5 -189.5t-72 -112.5t-117.5 -83z" />
<glyph unicode="&#xe0;" horiz-adv-x="931" d="M536 1544l263 -180l-13 -18l-269 170zM585 1082q122 0 220 -64l-110 -781q-18 -100 -10.5 -154t53.5 -80l-10 -22q-52 27 -64.5 83t1.5 144q-131 -227 -305 -227q-120 0 -186 97t-66 263q0 101 16.5 202t54 199t91.5 173t135.5 121t179.5 46zM584 1057q-77 0 -143.5 -31 t-114.5 -85.5t-85 -124.5t-59.5 -151t-33.5 -162t-11 -161q0 -155 58 -244.5t166 -89.5q171 0 308 249l105 748q-82 52 -190 52z" />
<glyph unicode="&#xe1;" horiz-adv-x="931" d="M791 1545l14 -29l-319 -170l-9 20zM585 1082q122 0 220 -64l-110 -781q-18 -100 -10.5 -154t53.5 -80l-10 -22q-52 27 -64.5 83t1.5 144q-131 -227 -305 -227q-120 0 -186 97t-66 263q0 101 16.5 202t54 199t91.5 173t135.5 121t179.5 46zM584 1057q-77 0 -143.5 -31 t-114.5 -85.5t-85 -124.5t-59.5 -151t-33.5 -162t-11 -161q0 -155 58 -244.5t166 -89.5q171 0 308 249l105 748q-82 52 -190 52z" />
<glyph unicode="&#xe2;" horiz-adv-x="931" d="M440 1344l-15 17l220 186h18l167 -186l-18 -17l-159 172zM585 1082q122 0 220 -64l-110 -781q-18 -100 -10.5 -154t53.5 -80l-10 -22q-52 27 -64.5 83t1.5 144q-131 -227 -305 -227q-120 0 -186 97t-66 263q0 101 16.5 202t54 199t91.5 173t135.5 121t179.5 46zM584 1057 q-77 0 -143.5 -31t-114.5 -85.5t-85 -124.5t-59.5 -151t-33.5 -162t-11 -161q0 -155 58 -244.5t166 -89.5q171 0 308 249l105 748q-82 52 -190 52z" />
<glyph unicode="&#xe3;" horiz-adv-x="931" d="M735 1395q-33 0 -66.5 22.5t-63.5 44.5t-56 22q-30 0 -52.5 -15.5t-58.5 -56.5l-18 13q71 86 128 86q36 0 94 -45t92 -45q29 0 54 18t57 62l18 -10q-35 -52 -64.5 -74t-63.5 -22zM585 1082q122 0 220 -64l-110 -781q-18 -100 -10.5 -154t53.5 -80l-10 -22 q-52 27 -64.5 83t1.5 144q-131 -227 -305 -227q-120 0 -186 97t-66 263q0 101 16.5 202t54 199t91.5 173t135.5 121t179.5 46zM584 1057q-77 0 -143.5 -31t-114.5 -85.5t-85 -124.5t-59.5 -151t-33.5 -162t-11 -161q0 -155 58 -244.5t166 -89.5q171 0 308 249l105 748 q-82 52 -190 52z" />
<glyph unicode="&#xe4;" horiz-adv-x="931" d="M499 1384q-12 0 -19 7t-7 18q0 13 8 22t22 9q12 0 19 -7.5t7 -18.5q0 -13 -8 -21.5t-22 -8.5zM770 1384q-25 0 -25 25q0 13 7.5 22t21.5 9q12 0 19 -7.5t7 -18.5q0 -13 -8 -21.5t-22 -8.5zM585 1082q122 0 220 -64l-110 -781q-18 -100 -10.5 -154t53.5 -80l-10 -22 q-52 27 -64.5 83t1.5 144q-131 -227 -305 -227q-120 0 -186 97t-66 263q0 101 16.5 202t54 199t91.5 173t135.5 121t179.5 46zM584 1057q-77 0 -143.5 -31t-114.5 -85.5t-85 -124.5t-59.5 -151t-33.5 -162t-11 -161q0 -155 58 -244.5t166 -89.5q171 0 308 249l105 748 q-82 52 -190 52z" />
<glyph unicode="&#xe5;" horiz-adv-x="931" d="M664 1624q51 0 79.5 -33t28.5 -87q0 -77 -41 -126.5t-103 -49.5q-52 0 -81 33.5t-29 88.5q0 78 41.5 126t104.5 48zM663 1601q-54 0 -86.5 -42t-32.5 -109q0 -46 22.5 -72t62.5 -26q53 0 85 42.5t32 109.5q0 45 -22 71t-61 26zM585 1082q122 0 220 -64l-110 -781 q-18 -100 -10.5 -154t53.5 -80l-10 -22q-52 27 -64.5 83t1.5 144q-131 -227 -305 -227q-120 0 -186 97t-66 263q0 101 16.5 202t54 199t91.5 173t135.5 121t179.5 46zM584 1057q-77 0 -143.5 -31t-114.5 -85.5t-85 -124.5t-59.5 -151t-33.5 -162t-11 -161q0 -155 58 -244.5 t166 -89.5q171 0 308 249l105 748q-82 52 -190 52z" />
<glyph unicode="&#xe6;" horiz-adv-x="1384" d="M490 1082q104 0 167 -66.5t76 -195.5q60 121 150.5 191.5t212.5 70.5q107 0 170 -59.5t63 -162.5q0 -99 -50 -176t-141.5 -126.5t-209.5 -78t-265 -37.5q-10 -86 -0.5 -164.5t33 -138.5t75 -95.5t125.5 -35.5q76 0 138 28t132 87l15 -20q-74 -63 -140 -92.5t-145 -29.5 q-209 0 -254 241q-91 -129 -174 -185t-181 -56q-108 0 -167 70.5t-59 187.5q0 75 22 139.5t67 117t123 83t180 30.5h206q17 85 53 169q-7 137 -66 207.5t-158 70.5q-105 0 -253 -68l-6 24q149 70 261 70zM1094 1056q-98 0 -177 -52t-129.5 -139t-81 -187.5t-41.5 -210.5 q194 13 332 56.5t220.5 129t82.5 207.5q0 92 -54.5 144t-151.5 52zM653 583h-198q-97 0 -169.5 -28t-113.5 -77t-61 -109t-20 -130q0 -105 51.5 -168t144.5 -63q97 0 178 58t171 187q-20 156 17 330z" />
<glyph unicode="&#xe7;" horiz-adv-x="786" d="M564 1082q130 0 214 -102l-20 -18q-77 94 -195 94q-102 0 -184.5 -61t-133.5 -162t-78 -223.5t-27 -252.5q0 -170 64 -259.5t180 -89.5q115 0 230 100l16 -19q-118 -108 -246 -108l-26 -142q70 -5 104 -33.5t34 -87.5q0 -62 -41 -103.5t-109 -41.5q-67 0 -111 35l13 21 q41 -30 98 -30q56 0 88.5 33t32.5 85q0 53 -32 76t-105 25l33 163q-119 8 -185.5 105.5t-66.5 270.5q0 135 29 262t83.5 231.5t143 168t197.5 63.5z" />
<glyph unicode="&#xe8;" horiz-adv-x="866" d="M764 1364l-12 -18l-270 170l19 28zM810 860q0 -99 -50 -176t-141.5 -126.5t-210 -78t-265.5 -37.5q-4 -43 -4 -94q0 -167 63 -253.5t175 -86.5q76 0 138 28t132 87l15 -20q-74 -63 -140 -92.5t-145 -29.5q-127 0 -197 94.5t-70 271.5q0 81 12 164.5t35.5 166.5 t62.5 155.5t89 128.5t119 88t149 32q107 0 170 -59.5t63 -162.5zM575 1056q-66 0 -124 -24t-102 -67t-80 -99t-60.5 -122.5t-40.5 -135.5t-23 -141q144 10 258.5 37t200 74t131.5 118.5t46 163.5t-54.5 144t-151.5 52z" />
<glyph unicode="&#xe9;" horiz-adv-x="866" d="M770 1516l-319 -170l-9 20l314 179zM810 860q0 -99 -50 -176t-141.5 -126.5t-210 -78t-265.5 -37.5q-4 -43 -4 -94q0 -167 63 -253.5t175 -86.5q76 0 138 28t132 87l15 -20q-74 -63 -140 -92.5t-145 -29.5q-127 0 -197 94.5t-70 271.5q0 81 12 164.5t35.5 166.5 t62.5 155.5t89 128.5t119 88t149 32q107 0 170 -59.5t63 -162.5zM575 1056q-66 0 -124 -24t-102 -67t-80 -99t-60.5 -122.5t-40.5 -135.5t-23 -141q144 10 258.5 37t200 74t131.5 118.5t46 163.5t-54.5 144t-151.5 52z" />
<glyph unicode="&#xea;" horiz-adv-x="866" d="M618 1516l-213 -172l-15 17l221 186h17l167 -186l-18 -17zM810 860q0 -99 -50 -176t-141.5 -126.5t-210 -78t-265.5 -37.5q-4 -43 -4 -94q0 -167 63 -253.5t175 -86.5q76 0 138 28t132 87l15 -20q-74 -63 -140 -92.5t-145 -29.5q-127 0 -197 94.5t-70 271.5 q0 81 12 164.5t35.5 166.5t62.5 155.5t89 128.5t119 88t149 32q107 0 170 -59.5t63 -162.5zM575 1056q-66 0 -124 -24t-102 -67t-80 -99t-60.5 -122.5t-40.5 -135.5t-23 -141q144 10 258.5 37t200 74t131.5 118.5t46 163.5t-54.5 144t-151.5 52z" />
<glyph unicode="&#xeb;" horiz-adv-x="866" d="M464 1384q-25 0 -25 25q0 13 7.5 22t21.5 9q12 0 19 -7.5t7 -18.5q0 -13 -8 -21.5t-22 -8.5zM735 1384q-25 0 -25 25q0 13 8 22t22 9q12 0 18.5 -7.5t6.5 -18.5q0 -13 -8 -21.5t-22 -8.5zM810 860q0 -99 -50 -176t-141.5 -126.5t-210 -78t-265.5 -37.5q-4 -43 -4 -94 q0 -167 63 -253.5t175 -86.5q76 0 138 28t132 87l15 -20q-74 -63 -140 -92.5t-145 -29.5q-127 0 -197 94.5t-70 271.5q0 81 12 164.5t35.5 166.5t62.5 155.5t89 128.5t119 88t149 32q107 0 170 -59.5t63 -162.5zM575 1056q-66 0 -124 -24t-102 -67t-80 -99t-60.5 -122.5 t-40.5 -135.5t-23 -141q144 10 258.5 37t200 74t131.5 118.5t46 163.5t-54.5 144t-151.5 52z" />
<glyph unicode="&#xec;" horiz-adv-x="430" d="M239 1544l263 -180l-13 -18l-269 170zM304 1061l-149 -1061h-29l150 1061h28z" />
<glyph unicode="&#xed;" horiz-adv-x="430" d="M494 1545l13 -29l-318 -170l-10 20zM304 1061l-149 -1061h-29l150 1061h28z" />
<glyph unicode="&#xee;" horiz-adv-x="430" d="M143 1344l-16 17l221 186h17l167 -186l-18 -17l-159 172zM304 1061l-149 -1061h-29l150 1061h28z" />
<glyph unicode="&#xef;" horiz-adv-x="430" d="M202 1384q-12 0 -19 7t-7 18q0 13 8 22t22 9q12 0 18.5 -7.5t6.5 -18.5q0 -30 -29 -30zM473 1384q-12 0 -19 7t-7 18q0 13 8 22t22 9q12 0 19 -7.5t7 -18.5q0 -13 -8 -21.5t-22 -8.5zM304 1061l-149 -1061h-29l150 1061h28z" />
<glyph unicode="&#xf0;" horiz-adv-x="942" d="M657 1367q164 -169 164 -482q0 -119 -16.5 -241.5t-53.5 -242t-89.5 -212.5t-131 -150.5t-171.5 -57.5q-125 0 -191 91t-66 249q0 76 14.5 158t47.5 165.5t79 149t115 106.5t151 41q180 0 276 -217q16 208 -14 360t-133 264l-173 -180l-22 9l178 187q-92 86 -208 120 l9 24q123 -38 218 -125l136 138l15 -16zM359 8q63 0 118.5 28t97.5 78t77 114t60 141t42 153.5t27 157.5q-97 234 -272 234q-77 0 -141.5 -39.5t-107 -102t-72.5 -142t-43.5 -158t-13.5 -151.5q0 -148 58.5 -230.5t169.5 -82.5z" />
<glyph unicode="&#xf1;" horiz-adv-x="974" d="M715 1395q-33 0 -66.5 22.5t-63.5 44.5t-56 22q-30 0 -52.5 -15.5t-58.5 -56.5l-17 13q37 45 66 65.5t61 20.5q36 0 94 -45t92 -45q29 0 54 18t57 62l18 -10q-35 -52 -64.5 -74t-63.5 -22zM626 1082q112 0 161 -83t30 -227l-109 -772h-29l109 770q19 137 -23 212t-140 75 q-105 0 -195 -94t-180 -285l-95 -678h-29l150 1061h24l-43 -325q86 177 173 261.5t196 84.5z" />
<glyph unicode="&#xf2;" horiz-adv-x="944" d="M512 1544l263 -180l-13 -18l-269 170zM382 -19q-131 0 -201.5 98t-70.5 274q0 93 15 189.5t50 194.5t86 174t129 123.5t173 47.5q131 0 201.5 -97.5t70.5 -272.5q0 -92 -15 -188.5t-50 -195t-85.5 -174.5t-129 -124.5t-173.5 -48.5zM382 8q90 0 164 47.5t121 121.5 t79 169.5t45.5 187t13.5 178.5q0 166 -62.5 255t-179.5 89q-90 0 -163.5 -46.5t-121 -120.5t-80 -169t-46 -187t-13.5 -180q0 -166 62.5 -255.5t180.5 -89.5z" />
<glyph unicode="&#xf3;" horiz-adv-x="944" d="M767 1545l14 -29l-319 -170l-9 20zM382 -19q-131 0 -201.5 98t-70.5 274q0 93 15 189.5t50 194.5t86 174t129 123.5t173 47.5q131 0 201.5 -97.5t70.5 -272.5q0 -92 -15 -188.5t-50 -195t-85.5 -174.5t-129 -124.5t-173.5 -48.5zM382 8q90 0 164 47.5t121 121.5t79 169.5 t45.5 187t13.5 178.5q0 166 -62.5 255t-179.5 89q-90 0 -163.5 -46.5t-121 -120.5t-80 -169t-46 -187t-13.5 -180q0 -166 62.5 -255.5t180.5 -89.5z" />
<glyph unicode="&#xf4;" horiz-adv-x="944" d="M416 1344l-15 17l220 186h18l167 -186l-18 -17l-159 172zM382 -19q-131 0 -201.5 98t-70.5 274q0 93 15 189.5t50 194.5t86 174t129 123.5t173 47.5q131 0 201.5 -97.5t70.5 -272.5q0 -92 -15 -188.5t-50 -195t-85.5 -174.5t-129 -124.5t-173.5 -48.5zM382 8 q90 0 164 47.5t121 121.5t79 169.5t45.5 187t13.5 178.5q0 166 -62.5 255t-179.5 89q-90 0 -163.5 -46.5t-121 -120.5t-80 -169t-46 -187t-13.5 -180q0 -166 62.5 -255.5t180.5 -89.5z" />
<glyph unicode="&#xf5;" horiz-adv-x="944" d="M711 1395q-33 0 -66.5 22.5t-63.5 44.5t-56 22q-30 0 -52.5 -15.5t-58.5 -56.5l-18 13q71 86 128 86q36 0 94 -45t92 -45q29 0 54 18t57 62l18 -10q-35 -52 -64.5 -74t-63.5 -22zM382 -19q-131 0 -201.5 98t-70.5 274q0 93 15 189.5t50 194.5t86 174t129 123.5t173 47.5 q131 0 201.5 -97.5t70.5 -272.5q0 -92 -15 -188.5t-50 -195t-85.5 -174.5t-129 -124.5t-173.5 -48.5zM382 8q90 0 164 47.5t121 121.5t79 169.5t45.5 187t13.5 178.5q0 166 -62.5 255t-179.5 89q-90 0 -163.5 -46.5t-121 -120.5t-80 -169t-46 -187t-13.5 -180 q0 -166 62.5 -255.5t180.5 -89.5z" />
<glyph unicode="&#xf6;" horiz-adv-x="944" d="M475 1384q-12 0 -19 7t-7 18q0 13 8 22t22 9q12 0 19 -7.5t7 -18.5q0 -13 -8 -21.5t-22 -8.5zM746 1384q-25 0 -25 25q0 13 7.5 22t21.5 9q12 0 19 -7.5t7 -18.5q0 -13 -8 -21.5t-22 -8.5zM382 -19q-131 0 -201.5 98t-70.5 274q0 93 15 189.5t50 194.5t86 174t129 123.5 t173 47.5q131 0 201.5 -97.5t70.5 -272.5q0 -92 -15 -188.5t-50 -195t-85.5 -174.5t-129 -124.5t-173.5 -48.5zM382 8q90 0 164 47.5t121 121.5t79 169.5t45.5 187t13.5 178.5q0 166 -62.5 255t-179.5 89q-90 0 -163.5 -46.5t-121 -120.5t-80 -169t-46 -187t-13.5 -180 q0 -166 62.5 -255.5t180.5 -89.5z" />
<glyph unicode="&#xf7;" horiz-adv-x="837" d="M492 1060q-15 0 -23.5 9t-8.5 22q0 15 10.5 26t25.5 11t23.5 -9t8.5 -22q0 -15 -10.5 -26t-25.5 -11zM166 664l3 27h542l-4 -27h-541zM377 226q-14 0 -22.5 9t-8.5 22q0 15 10 26t25 11t23.5 -9t8.5 -22q0 -15 -10.5 -26t-25.5 -11z" />
<glyph unicode="&#xf8;" horiz-adv-x="944" d="M699 1046q136 -84 136 -334q0 -92 -15 -188.5t-50 -195t-85.5 -174.5t-129 -124.5t-173.5 -48.5q-61 0 -112 23l-102 -241l-24 7l103 247q-137 85 -137 336q0 93 15 189.5t50 194.5t86 174t129 123.5t173 47.5q62 0 113 -23l100 242l24 -7zM139 353q0 -237 120 -313 l408 994q-44 22 -104 22q-90 0 -163.5 -46.5t-121 -120.5t-80 -169t-46 -187t-13.5 -180zM382 8q90 0 164 47.5t121 121.5t79 169.5t45.5 187t13.5 178.5q0 234 -118 311l-408 -994q45 -21 103 -21z" />
<glyph unicode="&#xf9;" horiz-adv-x="966" d="M504 1544l263 -180l-13 -18l-269 170zM353 -19q-109 0 -161.5 81.5t-32.5 224.5l109 774h28l-107 -774q-19 -134 24.5 -206.5t139.5 -72.5q112 0 203 96.5t161 268.5l95 688h29l-149 -1061h-23l43 316q-140 -335 -359 -335z" />
<glyph unicode="&#xfa;" horiz-adv-x="966" d="M759 1545l13 -29l-318 -170l-10 20zM353 -19q-109 0 -161.5 81.5t-32.5 224.5l109 774h28l-107 -774q-19 -134 24.5 -206.5t139.5 -72.5q112 0 203 96.5t161 268.5l95 688h29l-149 -1061h-23l43 316q-140 -335 -359 -335z" />
<glyph unicode="&#xfb;" horiz-adv-x="966" d="M408 1344l-16 17l221 186h17l168 -186l-19 -17l-158 172zM353 -19q-109 0 -161.5 81.5t-32.5 224.5l109 774h28l-107 -774q-19 -134 24.5 -206.5t139.5 -72.5q112 0 203 96.5t161 268.5l95 688h29l-149 -1061h-23l43 316q-140 -335 -359 -335z" />
<glyph unicode="&#xfc;" horiz-adv-x="966" d="M467 1384q-12 0 -19 7t-7 18q0 13 8 22t22 9q12 0 18.5 -7.5t6.5 -18.5q0 -30 -29 -30zM738 1384q-12 0 -19 7t-7 18q0 13 8 22t22 9q12 0 19 -7.5t7 -18.5q0 -13 -8 -21.5t-22 -8.5zM353 -19q-109 0 -161.5 81.5t-32.5 224.5l109 774h28l-107 -774q-19 -134 24.5 -206.5 t139.5 -72.5q112 0 203 96.5t161 268.5l95 688h29l-149 -1061h-23l43 316q-140 -335 -359 -335z" />
<glyph unicode="&#xfd;" horiz-adv-x="757" d="M652 1545l13 -29l-318 -170l-10 20zM783 1061l-451 -1064q-81 -193 -147.5 -269t-205.5 -122l-3 22q130 44 192 117.5t137 254.5h-14l-166 1061h29l160 -1041l438 1041h31z" />
<glyph unicode="&#xfe;" horiz-adv-x="952" d="M605 1082q120 0 180.5 -87.5t60.5 -252.5q0 -82 -11 -166.5t-33.5 -171t-60 -161.5t-86 -134.5t-117 -93.5t-148.5 -34q-118 0 -229 62l-61 -435l-30 -5l267 1896l29 4l-87 -620q80 95 158 147t168 52zM391 8q90 0 164 48t121.5 124.5t80.5 175t47 195.5t14 191 q2 313 -214 313q-161 0 -329 -210l-109 -775q105 -62 225 -62z" />
<glyph unicode="&#xff;" horiz-adv-x="757" d="M360 1384q-12 0 -19 7t-7 18q0 13 8 22t22 9q12 0 18.5 -7.5t6.5 -18.5q0 -30 -29 -30zM631 1384q-12 0 -19 7t-7 18q0 13 8 22t22 9q12 0 19 -7.5t7 -18.5q0 -13 -8 -21.5t-22 -8.5zM783 1061l-451 -1064q-81 -193 -147.5 -269t-205.5 -122l-3 22q130 44 192 117.5 t137 254.5h-14l-166 1061h29l160 -1041l438 1041h31z" />
<glyph unicode="&#x152;" horiz-adv-x="1413" d="M1445 1394l-7 -27h-582q79 -50 123 -161t44 -272q0 -82 -11 -183h271l-5 -27h-269q-14 -110 -42 -212.5t-71 -199t-107 -171.5t-142 -113h621l-5 -28h-678q-51 -19 -116 -19q-154 0 -241.5 126t-87.5 356q0 116 19.5 242t63 253.5t106 228.5t157 164.5t206.5 63.5 q62 0 111 -21h642zM992 935q0 220 -79.5 336.5t-221.5 116.5q-90 0 -168 -44t-133.5 -118t-98.5 -168t-69 -199.5t-39 -205.5t-13 -191q0 -219 79.5 -336.5t219.5 -117.5q112 0 204 63.5t150 162.5t97.5 225.5t55.5 245.5t16 230z" />
<glyph unicode="&#x153;" horiz-adv-x="1531" d="M1477 860q0 -99 -50 -176t-141.5 -126.5t-210 -78t-265.5 -37.5q-4 -43 -4 -94q0 -167 63 -253.5t175 -86.5q76 0 138 28t132 87l15 -20q-74 -63 -140 -92.5t-145 -29.5q-128 0 -198 95t-68 279v8q-25 -81 -59.5 -146.5t-82.5 -120t-113 -85t-141 -30.5q-131 0 -201.5 98 t-70.5 274q0 93 15 189.5t50 194.5t86 174t129 123.5t173 47.5q131 0 200.5 -96.5t71.5 -273.5q0 -2 -0.5 -6.5t-0.5 -6.5q26 82 62 148.5t86 120.5t116.5 84t144.5 30q107 0 170.5 -59.5t63.5 -162.5zM382 8q90 0 164 47.5t121 121.5t79 169.5t45.5 187t13.5 178.5 q0 166 -62.5 255t-179.5 89q-90 0 -163.5 -46.5t-121 -120.5t-80 -169t-46 -187t-13.5 -180q0 -166 62.5 -255.5t180.5 -89.5zM1242 1056q-98 0 -177.5 -51.5t-130 -138t-81 -187.5t-41.5 -212q144 10 258.5 37t200 74t131.5 118.5t46 163.5t-54.5 144t-151.5 52z" />
<glyph unicode="&#x178;" horiz-adv-x="821" d="M430 1642q-12 0 -19 7t-7 18q0 13 8 22t22 9q12 0 19 -7.5t7 -18.5q0 -13 -8 -21.5t-22 -8.5zM701 1642q-25 0 -25 25q0 13 7.5 22t21.5 9q12 0 19 -7.5t7 -18.5q0 -13 -8 -21.5t-22 -8.5zM906 1394l-477 -841l-77 -553h-30l78 554l-243 840h30l231 -810l456 810h32z" />
<glyph unicode="&#x2c6;" horiz-adv-x="528" d="M194 1344l-16 17l221 186h17l167 -186l-18 -17l-159 172z" />
<glyph unicode="&#x2dc;" horiz-adv-x="557" d="M501 1395q-33 0 -66.5 22.5t-63.5 44.5t-56 22q-30 0 -52.5 -15.5t-58.5 -56.5l-18 13q71 86 128 86q36 0 94 -45t92 -45q29 0 54 18t57 62l18 -10q-35 -52 -64.5 -74t-63.5 -22z" />
<glyph unicode="&#x2000;" horiz-adv-x="941" />
<glyph unicode="&#x2001;" horiz-adv-x="1882" />
<glyph unicode="&#x2002;" horiz-adv-x="941" />
<glyph unicode="&#x2003;" horiz-adv-x="1882" />
<glyph unicode="&#x2004;" horiz-adv-x="627" />
<glyph unicode="&#x2005;" horiz-adv-x="470" />
<glyph unicode="&#x2006;" horiz-adv-x="313" />
<glyph unicode="&#x2007;" horiz-adv-x="313" />
<glyph unicode="&#x2008;" horiz-adv-x="235" />
<glyph unicode="&#x2009;" horiz-adv-x="376" />
<glyph unicode="&#x200a;" horiz-adv-x="104" />
<glyph unicode="&#x2010;" horiz-adv-x="673" d="M148 626l4 27h403l-4 -27h-403z" />
<glyph unicode="&#x2011;" horiz-adv-x="673" d="M148 626l4 27h403l-4 -27h-403z" />
<glyph unicode="&#x2012;" horiz-adv-x="673" d="M148 626l4 27h403l-4 -27h-403z" />
<glyph unicode="&#x2013;" horiz-adv-x="876" d="M100 626l4 27h701l-3 -27h-702z" />
<glyph unicode="&#x2014;" horiz-adv-x="1304" d="M101 627l3 26h1129l-3 -26h-1129z" />
<glyph unicode="&#x2018;" horiz-adv-x="393" d="M294 1248q-14 0 -21.5 8.5t-7.5 19.5q0 16 19 53l111 227h20l-110 -250q20 -6 20 -25q0 -14 -8.5 -23.5t-22.5 -9.5z" />
<glyph unicode="&#x2019;" horiz-adv-x="393" d="M332 1468q13 0 20.5 -8.5t7.5 -19.5q0 -17 -19 -54l-110 -227h-20l109 250q-20 6 -20 25q0 14 9 24t23 10z" />
<glyph unicode="&#x201a;" horiz-adv-x="393" d="M133 54q13 0 20.5 -8.5t7.5 -19.5q0 -17 -19 -54l-110 -227h-20l109 250q-19 6 -19 25q0 14 8.5 24t22.5 10z" />
<glyph unicode="&#x201c;" horiz-adv-x="583" d="M294 1248q-14 0 -21.5 8.5t-7.5 19.5q0 16 19 53l111 227h20l-110 -250q20 -6 20 -25q0 -14 -8.5 -23.5t-22.5 -9.5zM484 1248q-14 0 -21.5 8.5t-7.5 19.5q0 16 19 53l111 227h20l-110 -250q20 -6 20 -25q0 -14 -8.5 -23.5t-22.5 -9.5z" />
<glyph unicode="&#x201d;" horiz-adv-x="581" d="M332 1468q13 0 20.5 -8.5t7.5 -19.5q0 -17 -19 -54l-110 -227h-20l109 250q-20 6 -20 25q0 14 9 24t23 10zM522 1468q13 0 20.5 -8.5t7.5 -19.5q0 -17 -19 -54l-111 -227h-19l109 250q-20 6 -20 25q0 14 9 24t23 10z" />
<glyph unicode="&#x201e;" horiz-adv-x="581" d="M133 54q13 0 20.5 -8.5t7.5 -19.5q0 -17 -19 -54l-110 -227h-20l109 250q-19 6 -19 25q0 14 8.5 24t22.5 10zM323 54q13 0 20.5 -8.5t7.5 -19.5q0 -17 -19 -54l-111 -227h-19l109 250q-20 6 -20 25q0 14 9 24t23 10z" />
<glyph unicode="&#x2022;" horiz-adv-x="413" d="M236 765q19 0 31 -11t12 -29q0 -21 -14.5 -36t-35.5 -15q-19 0 -30.5 11.5t-11.5 29.5q0 21 14 35.5t35 14.5z" />
<glyph unicode="&#x2026;" horiz-adv-x="827" d="M64 -13q-15 0 -23.5 9t-8.5 22q0 15 10 25.5t26 10.5q15 0 23.5 -9t8.5 -22q0 -15 -10 -25.5t-26 -10.5zM341 -13q-15 0 -23.5 9t-8.5 22q0 15 10 25.5t25 10.5t23.5 -9t8.5 -22q0 -15 -10 -25.5t-25 -10.5zM616 -13q-15 0 -23.5 9t-8.5 22q0 15 10 25.5t25 10.5t23.5 -9 t8.5 -22q0 -15 -10 -25.5t-25 -10.5z" />
<glyph unicode="&#x202f;" horiz-adv-x="376" />
<glyph unicode="&#x2039;" horiz-adv-x="606" d="M485 1023l19 -12l-297 -423l180 -418l-20 -11l-193 421l3 20z" />
<glyph unicode="&#x203a;" horiz-adv-x="604" d="M255 1023l190 -422l-2 -20l-308 -422l-19 12l297 421l-178 419z" />
<glyph unicode="&#x205f;" horiz-adv-x="470" />
<glyph unicode="&#x20ac;" horiz-adv-x="970" d="M764 1376q74 0 130.5 -26.5t111.5 -81.5l-17 -22q-54 54 -105.5 78t-121.5 24q-145 0 -264.5 -128.5t-191.5 -376.5h480l-10 -26h-476l-44 -255h434l-10 -27h-428q-21 -264 51.5 -395.5t221.5 -131.5q68 0 122.5 21.5t116.5 65.5l-2 -31q-123 -83 -240 -83 q-162 0 -241 139.5t-59 414.5h-125l10 27h119l44 255h-123l10 26h119q76 260 203.5 396.5t284.5 136.5z" />
<glyph unicode="&#x2122;" horiz-adv-x="1454" d="M694 1394l-7 -25h-222l-104 -750h-26l104 750h-224l3 25h476zM1326 1394l-68 -775h-26l48 564q6 59 19 176l-312 -648h-26l-132 654q-10 -81 -33 -204l-103 -542h-26l147 775h33l130 -657l314 657h35z" />
<glyph unicode="&#x25fc;" horiz-adv-x="1064" d="M0 1065h1065v-1065h-1065v1065z" />
<glyph unicode="&#xfb03;" horiz-adv-x="1417" d="M1290 1061l-149 -1061h-28l144 1035h-452l-147 -1046q-22 -149 -62.5 -223.5t-120.5 -127.5l-11 19q72 49 109 120t57 212l147 1046h-461l-145 -1046q-12 -88 -30 -148t-48.5 -103.5t-66 -72t-92.5 -61.5l-9 21q69 40 107.5 78.5t66.5 106.5t43 179l146 1046h-151l3 26 h152l25 183q17 118 91.5 179.5t193.5 61.5q120 0 255 -83q67 104 202 104q110 0 211 -80l-15 -20q-93 74 -198 74q-188 0 -220 -219l-28 -200h481zM781 1061l28 204q10 69 38 120l-3 -4q-130 79 -243 79q-108 0 -174.5 -54.5t-82.5 -164.5l-25 -180h462z" />
<glyph unicode="&#xfb04;" horiz-adv-x="1468" d="M1238 8q35 0 70 15l8 -23q-41 -19 -81 -19q-55 0 -81 37t-16 106l183 1295q-137 61 -254 61q-96 0 -155.5 -54.5t-75.5 -164.5l-28 -200h246l-7 -26h-243l-147 -1046q-22 -149 -62.5 -223.5t-120.5 -127.5l-11 19q72 49 108.5 120t56.5 212l148 1046h-460l-145 -1046 q-12 -88 -30 -148t-48.5 -103.5t-66 -72t-92.5 -61.5l-9 21q69 40 107.5 78.5t66.5 106.5t43 179l146 1046h-151l3 26h152l25 183q17 118 91.5 179.5t193.5 61.5q120 0 255 -83q70 104 211 104q129 0 257 -64l28 3l-187 -1322q-16 -115 72 -115zM808 1265q10 71 39 120 l-3 -4q-130 79 -243 79q-108 0 -174.5 -54.5t-82.5 -164.5l-25 -180h460z" />
</font>
</defs>
</svg>
